<svg width="30" height="26" viewBox="0 0 30 26" fill="none" xmlns="http://www.w3.org/2000/svg">
<mask id="mask0_5684_207" style="mask-type:luminance" maskUnits="userSpaceOnUse" x="5" y="0" width="21" height="26">
<path d="M25.1672 0H5V26H25.1672V0Z" fill="white"/>
</mask>
<g mask="url(#mask0_5684_207)">
<path d="M9.56887 15.3764C10.1086 15.0193 10.6399 13.2563 10.6399 13.2563C10.6399 13.2563 10.6399 12.9626 10.2741 12.4663C10.0525 12.1656 9.84756 12.3639 9.84756 12.3639C9.84756 12.3639 9.25847 13.1542 9.00381 13.3174C8.63501 13.5827 7.9004 13.6058 6.89578 12.0154C5.99028 10.1163 6.28399 9.4361 6.28399 9.4361C6.35408 9.21214 6.56435 8.95782 6.6785 8.83099C6.71321 8.79227 6.69318 8.73086 6.64212 8.72051C6.4422 8.68013 6.04635 8.79294 5.78135 9.19412C5.00001 10.4611 5.507 12.2243 5.507 12.2243C6.09675 14.7756 9.02885 15.7332 9.56887 15.376V15.3764Z" fill="#26064F"/>
<path d="M12.1024 16.9694C12.1982 16.6994 11.7543 15.35 11.5975 15.0015C11.496 14.8513 11.3381 14.836 11.2574 14.8393C11.228 14.8407 11.204 14.8627 11.2 14.8921C11.1786 15.0483 11.0962 15.5559 10.8882 15.868C10.5618 16.436 7.88437 17.6573 7.88437 17.6573C6.39547 18.4626 5.84276 19.1549 5.51601 19.7513C4.97364 20.7889 4.9673 21.5369 5.02271 21.9057C5.03272 21.9721 5.12384 21.9845 5.14987 21.9224C5.34045 21.4725 5.74663 20.9138 5.74663 20.9138C6.64345 19.8691 7.1234 19.3277 9.50912 18.8662C11.2861 18.5224 12.007 17.2394 12.1028 16.9694H12.1024Z" fill="#26064F"/>
<path d="M12.6905 17.0022C12.6528 17.0335 12.6318 17.0809 12.6358 17.1297C12.6551 17.3696 12.5981 18.1954 11.223 19.4947C9.48175 21.1401 9.19638 22.0864 9.26814 23.7698C9.33356 25.2978 10.3782 26.0004 10.3782 26.0004C9.90796 24.6683 9.82986 23.1954 10.5741 21.85C11.3184 20.505 13.4779 19.3121 14.1047 18.424C14.5619 17.8886 14.7271 16.1908 14.6621 15.838C14.5836 15.2873 13.0016 16.7455 12.6902 17.0022H12.6905Z" fill="#26064F"/>
<path d="M17.4246 15.0062C18.501 14.8354 19.0373 14.0277 18.777 12.5955C18.772 12.5678 18.6589 12.3682 19.2987 11.6826C19.8123 11.1343 21.0095 9.86732 21.617 9.21415C22.2244 8.56098 23.0078 7.74493 22.6096 5.84449C22.6096 5.84449 22.4377 5.51774 22.2264 6.1906C22.0609 6.76534 20.4675 7.77096 19.9105 7.45756C19.3531 7.14416 18.4476 5.33751 18.6565 5.16329C18.8655 4.98906 19.9886 4.79748 19.797 3.77017C19.797 3.77017 19.7683 3.70175 19.575 3.51751C19.2967 3.25184 18.7229 2.72783 17.7901 1.67181C16.915 0.482285 15.2151 0.0343774 15.0876 0.00200257V0C15.0876 0 15.0859 0.000333761 15.0836 0.00100128C15.0813 0.000333761 15.0796 0 15.0796 0V0.00200257C14.9518 0.0343774 13.2523 0.482285 12.3768 1.67181C11.4439 2.72816 10.8702 3.25217 10.5918 3.51751C10.3986 3.70175 10.3699 3.77017 10.3699 3.77017C10.1783 4.79748 11.3014 4.98906 11.5104 5.16329C11.7193 5.33751 10.8138 7.14416 10.2564 7.45756C9.69904 7.77096 8.10599 6.76534 7.94045 6.1906C7.72951 5.51774 7.55729 5.84449 7.55729 5.84449C7.15911 7.7446 7.94245 8.56098 8.5499 9.21415C9.15734 9.86732 10.3545 11.1339 10.8682 11.6826C11.508 12.3682 11.3949 12.5681 11.3899 12.5955C11.1295 14.028 11.6659 14.8357 12.7423 15.0062C13.4589 15.1201 14.2202 14.5423 14.6794 14.288C14.8924 14.1702 15.0439 14.1652 15.0793 14.1658C15.0793 14.1658 15.0809 14.1658 15.0833 14.1658C15.0856 14.1658 15.0873 14.1658 15.0873 14.1658C15.1227 14.1648 15.2742 14.1698 15.4871 14.2877C15.9464 14.542 16.708 15.1197 17.4243 15.0059L17.4246 15.0062ZM12.2069 11.3756C11.2537 10.4434 10.8876 9.46013 11.5701 9.103C11.5701 9.103 13.565 8.45017 14.388 11.5975C14.597 12.5377 13.2055 12.3522 12.2069 11.3756ZM15.0873 7.29769C15.0873 7.29769 15.0846 7.29769 15.0833 7.29769C15.0819 7.29769 15.0806 7.29769 15.0793 7.29769C14.577 7.32139 13.836 6.77202 13.824 5.78709C13.811 4.69202 14.4668 3.56858 15.0829 3.53253C15.6991 3.56858 16.3552 4.69202 16.3419 5.78709C16.3302 6.77202 15.5889 7.32139 15.0866 7.29769H15.0873ZM15.7788 11.5975C16.6016 8.45017 18.5968 9.103 18.5968 9.103C19.2793 9.46013 18.9132 10.4431 17.96 11.3756C16.9613 12.3522 15.5699 12.5381 15.7788 11.5975Z" fill="#26064F"/>
<path d="M21.1634 13.3174C20.9087 13.1542 20.3196 12.3638 20.3196 12.3638C20.3196 12.3638 20.1147 12.1656 19.8931 12.4663C19.5273 12.9626 19.5273 13.2563 19.5273 13.2563C19.5273 13.2563 20.0583 15.0196 20.5983 15.3763C21.138 15.7335 24.0701 14.7756 24.6602 12.2246C24.6602 12.2246 25.1672 10.4614 24.3858 9.19475C24.1208 8.79357 23.725 8.68076 23.5251 8.72115C23.474 8.73149 23.454 8.79291 23.4887 8.83162C23.6028 8.95845 23.8131 9.21244 23.8832 9.43673C23.8832 9.43673 24.1769 10.1169 23.2714 12.016C22.2668 13.6061 21.5322 13.5834 21.1634 13.318V13.3174Z" fill="#26064F"/>
<path d="M24.6512 19.7513C24.3248 19.1549 23.7717 18.4626 22.2828 17.6573C22.2828 17.6573 19.6054 16.436 19.279 15.868C19.071 15.5559 18.9883 15.0483 18.9672 14.8921C18.9632 14.8627 18.9392 14.8407 18.9098 14.8393C18.8291 14.836 18.6712 14.8513 18.5697 15.0015C18.4129 15.3496 17.969 16.6994 18.0648 16.9694C18.1605 17.2394 18.8815 18.5224 20.6584 18.8662C23.0441 19.3277 23.5241 19.8688 24.4209 20.9138C24.4209 20.9138 24.8271 21.4725 25.0177 21.9224C25.044 21.9845 25.1352 21.9721 25.1448 21.9057C25.1999 21.5372 25.1939 20.7889 24.6515 19.7516L24.6512 19.7513Z" fill="#26064F"/>
<path d="M18.9439 19.4946C17.5688 18.1953 17.5117 17.3696 17.5311 17.1296C17.5351 17.0805 17.5141 17.0331 17.4763 17.0021C17.1649 16.7451 15.5829 15.2872 15.5045 15.8379C15.4391 16.1907 15.6046 17.8882 16.0619 18.4239C16.6887 19.3121 18.8481 20.5049 19.5924 21.85C20.3367 23.195 20.2586 24.6679 19.7883 26.0003C19.7883 26.0003 20.833 25.2981 20.8984 23.7698C20.9705 22.0863 20.6851 21.1404 18.9436 19.4946H18.9439Z" fill="#26064F"/>
</g>
</svg>
