<svg width="32" height="32" viewBox="0 0 32 32" fill="none" xmlns="http://www.w3.org/2000/svg">
<g clip-path="url(#clip0_5606_50)">
<path d="M25.1631 0.816406H7.06397C3.67417 0.816406 0.929688 3.56089 0.929688 6.95069V25.0537C0.929688 28.4397 3.67417 31.1841 7.06397 31.1841H25.1669C28.5529 31.1841 31.3012 28.4397 31.3012 25.0499V6.95069C31.2974 3.56089 28.5529 0.816406 25.1631 0.816406Z" fill="url(#paint0_linear_5606_50)"/>
<path d="M15.9849 7.79301L16.5998 6.73014C16.9794 6.06585 17.8259 5.84189 18.4902 6.22148C19.1545 6.60108 19.3785 7.44758 18.9989 8.11188L13.0734 18.3686H17.359C18.7483 18.3686 19.5265 20.0008 18.9229 21.132H6.35829C5.59151 21.132 4.97656 20.5171 4.97656 19.7503C4.97656 18.9835 5.59151 18.3686 6.35829 18.3686H9.88095L14.3906 10.5527L12.9823 8.10808C12.6027 7.44379 12.8266 6.60488 13.4909 6.21769C14.1552 5.83809 14.9941 6.06205 15.3813 6.72635L15.9849 7.79301ZM10.6553 22.5555L9.32674 24.8597C8.94714 25.524 8.10064 25.7479 7.43635 25.3683C6.77205 24.9887 6.54809 24.1422 6.92769 23.4779L7.91464 21.7698C9.03066 21.4243 9.93789 21.69 10.6553 22.5555ZM22.0964 18.3762H25.6912C26.4579 18.3762 27.0729 18.9911 27.0729 19.7579C27.0729 20.5247 26.4579 21.1396 25.6912 21.1396H23.6945L25.042 23.4779C25.4216 24.1422 25.1977 24.9812 24.5334 25.3683C23.8691 25.7479 23.0302 25.524 22.643 24.8597C20.373 20.9233 18.6686 17.9776 17.5374 16.0151C16.3796 14.0184 17.2072 12.0141 18.0233 11.3347C18.9305 12.891 20.2857 15.2407 22.0964 18.3762Z" fill="white"/>
</g>
<defs>
<linearGradient id="paint0_linear_5606_50" x1="16.1136" y1="0.816406" x2="16.1136" y2="31.1841" gradientUnits="userSpaceOnUse">
<stop stop-color="#0ED4FC"/>
<stop offset="1" stop-color="#0C57EF"/>
</linearGradient>
<clipPath id="clip0_5606_50">
<rect width="32" height="32" fill="white"/>
</clipPath>
</defs>
</svg>
