<svg width="24" height="24" viewBox="0 0 24 24" fill="none" xmlns="http://www.w3.org/2000/svg">
<g clip-path="url(#clip0_1055_261)">
<mask id="mask0_1055_261" style="mask-type:luminance" maskUnits="userSpaceOnUse" x="0" y="0" width="24" height="24">
<path d="M24 0H0V24H24V0Z" fill="white"/>
</mask>
<g mask="url(#mask0_1055_261)">
<path d="M20.7589 14.3427C20.378 14.6048 19.8825 14.6375 19.4688 14.4287C18.9937 14.1584 18.7357 13.5276 18.7357 12.6717V10.0382C18.7357 8.7727 18.2361 7.87577 17.3965 7.63003C15.9835 7.21638 14.9268 8.94881 14.5214 9.6L12.019 13.6505V8.70717C11.9903 7.5686 11.6217 6.88464 10.9173 6.67986C10.4545 6.54471 9.75826 6.59795 9.08249 7.63003L3.48795 16.6116C2.74256 15.1904 2.35348 13.6055 2.36167 12C2.36167 6.58567 6.68659 2.18294 12.019 2.18294C17.3514 2.18294 21.6886 6.58567 21.6886 12V12.0287C21.6886 12.0287 21.6886 12.0491 21.6886 12.0573C21.7419 13.1017 21.4019 13.9372 20.7589 14.3427ZM23.8511 12V11.9468C23.806 5.3529 18.5146 0 12.019 0C5.52345 0 0.199219 5.38157 0.199219 12C0.199219 18.6184 5.49887 24 12.019 24C15.0088 24 17.8838 22.8532 20.0545 20.7973C20.4927 20.3836 20.5173 19.6956 20.1118 19.2532C19.7186 18.8191 19.0511 18.7863 18.6128 19.1795L18.6088 19.1836C14.7794 22.8164 8.73027 22.6567 5.09751 18.8273C5.00741 18.7331 4.9214 18.6389 4.83539 18.5406L9.86884 10.4437V14.1788C9.86884 15.9727 10.5651 16.5543 11.1466 16.7263C11.7282 16.8983 12.6251 16.7795 13.5589 15.2601L16.3439 10.7549C16.4299 10.6116 16.5118 10.4846 16.5896 10.3782V12.6676C16.5896 14.3468 17.2613 15.686 18.4449 16.3495C19.5384 16.9393 20.8654 16.886 21.9098 16.2102C23.2081 15.3666 23.9166 13.8389 23.8429 12H23.8511Z" fill="url(#paint0_linear_1055_261)"/>
</g>
</g>
<defs>
<linearGradient id="paint0_linear_1055_261" x1="-33.3658" y1="-129.464" x2="1.56881" y2="-137.881" gradientUnits="userSpaceOnUse">
<stop stop-color="#A15FCB"/>
<stop offset="0.21" stop-color="#7F69E7"/>
<stop offset="0.29" stop-color="#6A73F4"/>
<stop offset="0.38" stop-color="#6378F7"/>
<stop offset="0.47" stop-color="#598AF3"/>
<stop offset="0.58" stop-color="#62A7DE"/>
<stop offset="0.73" stop-color="#76C0C3"/>
</linearGradient>
<clipPath id="clip0_1055_261">
<rect width="24" height="24" fill="white"/>
</clipPath>
</defs>
</svg>
