<svg width="24" height="24" viewBox="0 0 24 24" fill="none" xmlns="http://www.w3.org/2000/svg">
<path d="M20.242 5.18576C18.7262 4.49024 17.1007 3.97782 15.4012 3.68434C15.3703 3.67867 15.3393 3.69283 15.3234 3.72114C15.1144 4.09295 14.8828 4.578 14.7206 4.95926C12.8927 4.68559 11.0741 4.68559 9.28367 4.95926C9.12148 4.56953 8.88152 4.09295 8.67153 3.72114C8.65559 3.69377 8.62467 3.67962 8.59372 3.68434C6.89513 3.97688 5.26967 4.48931 3.75294 5.18576C3.73981 5.19142 3.72855 5.20086 3.72108 5.21312C0.637926 9.81929 -0.206681 14.3123 0.207655 18.7495C0.20953 18.7712 0.221716 18.792 0.23859 18.8052C2.27277 20.299 4.24322 21.2059 6.17708 21.8071C6.20803 21.8165 6.24082 21.8052 6.26052 21.7797C6.71797 21.155 7.12576 20.4963 7.47539 19.8036C7.49602 19.763 7.47632 19.7149 7.43415 19.6988C6.78734 19.4535 6.17145 19.1543 5.57901 18.8146C5.53215 18.7873 5.5284 18.7202 5.57151 18.6881C5.69618 18.5947 5.82088 18.4975 5.93993 18.3994C5.96147 18.3814 5.99148 18.3777 6.0168 18.389C9.90891 20.166 14.1226 20.166 17.9688 18.389C17.9941 18.3767 18.0241 18.3805 18.0466 18.3984C18.1656 18.4966 18.2903 18.5947 18.4159 18.6881C18.459 18.7202 18.4562 18.7873 18.4094 18.8146C17.8169 19.1609 17.201 19.4535 16.5533 19.6979C16.5111 19.714 16.4924 19.763 16.513 19.8036C16.8701 20.4953 17.2779 21.154 17.7269 21.7788C17.7457 21.8052 17.7794 21.8165 17.8104 21.8071C19.7536 21.2059 21.724 20.299 23.7582 18.8052C23.776 18.792 23.7873 18.7721 23.7892 18.7504C24.285 13.6205 22.9586 9.16438 20.2729 5.21406C20.2663 5.20086 20.2551 5.19142 20.242 5.18576ZM8.05661 16.0477C6.88482 16.0477 5.9193 14.9719 5.9193 13.6507C5.9193 12.3295 6.86609 11.2537 8.05661 11.2537C9.25647 11.2537 10.2126 12.339 10.1939 13.6507C10.1939 14.9719 9.24709 16.0477 8.05661 16.0477ZM15.959 16.0477C14.7872 16.0477 13.8217 14.9719 13.8217 13.6507C13.8217 12.3295 14.7684 11.2537 15.959 11.2537C17.1589 11.2537 18.115 12.339 18.0963 13.6507C18.0963 14.9719 17.1589 16.0477 15.959 16.0477Z" fill="url(#paint0_linear_1055_250)"/>
<defs>
<linearGradient id="paint0_linear_1055_250" x1="-33.6405" y1="-94.1016" x2="0.0587804" y2="-104.91" gradientUnits="userSpaceOnUse">
<stop stop-color="#A15FCB"/>
<stop offset="0.21" stop-color="#7F69E7"/>
<stop offset="0.29" stop-color="#6A73F4"/>
<stop offset="0.38" stop-color="#6378F7"/>
<stop offset="0.47" stop-color="#598AF3"/>
<stop offset="0.58" stop-color="#62A7DE"/>
<stop offset="0.73" stop-color="#76C0C3"/>
</linearGradient>
</defs>
</svg>
