<svg width="30" height="26" viewBox="0 0 30 26" fill="none" xmlns="http://www.w3.org/2000/svg">
<mask id="mask0_5684_223" style="mask-type:luminance" maskUnits="userSpaceOnUse" x="2" y="0" width="26" height="26">
<path d="M27.5465 0H2.5V25.978H27.5465V0Z" fill="white"/>
</mask>
<g mask="url(#mask0_5684_223)">
<path d="M5.73315 9.4735C5.93639 9.41852 6.24215 9.30041 6.48229 9.05495C6.48867 9.04821 6.4947 9.04147 6.50002 9.03402C6.74122 8.70805 7.38182 7.83689 7.2183 5.93069C7.21617 5.90728 7.20979 5.88423 7.1995 5.8633C7.11721 5.69552 6.71072 4.90985 6.01265 4.21178C5.22627 3.42505 2.94089 2.13889 2.78341 2.17578C2.66635 2.20344 2.55462 2.61384 2.50496 2.82312C2.48758 2.89583 2.51454 2.97138 2.57377 3.01643C2.91252 3.27466 4.05113 4.15078 4.41186 4.53528C4.71868 4.86196 4.7804 5.6785 4.79069 6.10947C4.79388 6.24248 4.66193 6.33683 4.53707 6.29072C4.12171 6.13749 3.32752 5.85408 3.17181 5.86756C2.99765 5.88281 3.15159 6.68977 3.21366 6.98346C3.22714 7.04731 3.27255 7.09981 3.33426 7.12144C4.03162 7.36726 4.72471 7.90002 5.06913 8.35653C5.36638 8.75061 5.46534 9.10922 5.49797 9.32062C5.515 9.43165 5.62496 9.50224 5.73315 9.47315V9.4735Z" fill="#26064F"/>
<path d="M24.3755 10.7746C24.3325 10.7416 24.1382 10.6068 23.5699 10.3773C23.5646 10.3752 23.5596 10.373 23.5547 10.3702C23.0662 10.1219 21.6297 8.99075 21.7953 6.64294C21.7953 6.64294 21.8131 6.32548 21.48 5.71468C21.1469 5.10387 19.0233 0.079789 19.0233 0.079789C19.0233 0.079789 18.8566 -0.225613 18.5792 0.357524C18.3015 0.940307 17.9964 2.10623 18.2461 2.73087C18.4958 3.3555 19.0651 4.70199 19.19 5.40963C19.3149 6.11762 19.5092 7.43607 18.7597 8.25509C18.1191 8.95492 17.3065 8.94535 17.0837 8.92761C17.0422 8.92442 17.0032 8.90739 16.9727 8.87902C16.8255 8.74245 16.397 8.22387 16.0689 6.61208C16.0679 6.60641 16.0668 6.60038 16.0661 6.5947C15.9604 5.59337 15.6046 5.22305 15.3333 5.05421C15.2102 4.9776 15.0864 4.97299 15.0236 4.97937C14.9612 4.97263 14.8374 4.97724 14.714 5.05421C14.4426 5.22341 14.0865 5.59337 13.9811 6.5947C13.9804 6.60038 13.9797 6.60641 13.9783 6.61208C13.6502 8.22387 13.2217 8.74245 13.0745 8.87902C13.044 8.90739 13.005 8.92442 12.9635 8.92761C12.7404 8.94535 11.9277 8.95492 11.2875 8.25509C10.538 7.43607 10.7324 6.11762 10.8572 5.40963C10.9821 4.70163 11.5514 3.3555 11.8011 2.73087C12.0508 2.10623 11.7454 0.940307 11.468 0.357524C11.1903 -0.225259 11.0239 0.079789 11.0239 0.079789C11.0239 0.079789 8.90031 5.10423 8.56724 5.71503C8.23417 6.32584 8.25191 6.6433 8.25191 6.6433C8.41755 8.9911 6.98099 10.1223 6.49256 10.3706C6.48759 10.373 6.48263 10.3755 6.47731 10.3777C5.90907 10.6071 5.71469 10.7419 5.67177 10.7749C5.6661 10.7795 5.66042 10.7841 5.6551 10.7891C5.32593 11.102 5.29295 11.7039 5.50435 12.6215C5.71718 13.5451 6.8462 15.075 6.8462 15.075C6.8462 15.075 7.63755 16.1778 8.20828 16.8897C8.23594 16.9241 8.27815 17.0383 8.27248 17.0664C8.16607 17.5842 8.06285 18.9513 8.49311 19.4518C8.94642 19.9792 9.89952 20.0161 10.1308 19.8128C10.3617 19.61 10.3936 19.5192 11.0931 18.8378C11.0956 18.8353 11.0984 18.8324 11.1006 18.8299C11.5904 18.2794 12.176 18.3894 12.176 18.3894C12.176 18.3894 12.4722 18.3872 12.8312 19.1023C12.8333 19.1062 12.8354 19.1105 12.8376 19.1141C13.2157 19.7437 13.287 19.766 13.6005 19.7568C13.9152 19.7476 13.9244 19.3404 14.1003 19.5624C14.2674 19.7735 14.3092 19.8426 14.5196 19.8011C14.5448 19.7962 14.5689 19.787 14.5902 19.7724C14.7026 19.6965 14.8005 19.5926 14.8885 19.4954C14.9633 19.411 15.0651 19.4273 15.1286 19.4954C15.2166 19.5926 15.3443 19.6965 15.4567 19.7724C15.478 19.7866 15.5021 19.7962 15.5273 19.8011C15.7376 19.8426 15.7795 19.7735 15.9466 19.5624C16.1225 19.3404 16.1317 19.7476 16.4463 19.7568C16.761 19.766 16.8312 19.7437 17.2093 19.1141C17.2114 19.1102 17.2139 19.1062 17.2157 19.1023C17.5747 18.3876 17.8708 18.3894 17.8708 18.3894C17.8708 18.3894 18.4568 18.2791 18.9463 18.8299C18.9488 18.8328 18.9513 18.8353 18.9538 18.8378C19.6532 19.5192 19.6852 19.61 19.9161 19.8128C20.1474 20.0161 21.1004 19.9792 21.5538 19.4518C21.984 18.9513 21.8812 17.5846 21.7744 17.0664C21.7687 17.0383 21.8109 16.9241 21.8386 16.8897C22.4097 16.1775 23.2007 15.075 23.2007 15.075C23.2007 15.075 24.3297 13.5451 24.5425 12.6215C24.7539 11.7039 24.7209 11.102 24.3918 10.7891C24.3864 10.7841 24.3811 10.7795 24.3751 10.7749L24.3755 10.7746ZM12.3569 15.0835C11.4329 15.3595 9.06206 15.838 8.30866 13.7779C8.30547 13.769 8.30263 13.7598 8.30085 13.7506C8.26964 13.6012 8.04689 12.3356 9.15641 11.1505C9.25253 11.0477 9.42386 11.0835 9.47139 11.2162C9.69663 11.8451 10.4202 13.3927 12.4087 14.7469C12.5403 14.8367 12.5098 15.0381 12.3569 15.0839V15.0835ZM21.746 13.7509C21.7442 13.7601 21.7414 13.7694 21.7382 13.7782C20.9848 15.838 18.614 15.3599 17.6899 15.0839C17.5374 15.0381 17.5066 14.8367 17.6382 14.7469C19.6266 13.393 20.3502 11.8454 20.5755 11.2162C20.623 11.0835 20.7943 11.0477 20.8905 11.1505C21.9996 12.3356 21.7769 13.6012 21.746 13.7506V13.7509Z" fill="#26064F"/>
<path d="M15.0257 25.9776C15.0907 25.9762 15.1038 25.9797 15.1839 25.9776C15.8036 25.9574 17.6896 25.7563 18.3986 24.8628C19.1921 23.8629 19.5479 22.0588 19.594 21.8102C19.5976 21.7907 19.5983 21.7704 19.5954 21.7506C19.5869 21.6864 19.5624 21.5296 19.5071 21.3629C19.4606 21.2231 19.2804 21.1862 19.1847 21.2983C18.7558 21.7999 17.7141 22.969 17.2934 23.002C17.2806 23.003 17.2675 23.002 17.2551 22.9999C16.7322 22.9126 16.6968 22.0602 16.2757 22.0563C15.8079 22.0521 15.993 22.5192 15.722 22.5196C15.5039 22.5391 15.4713 22.3617 15.3418 22.2323C15.2825 22.173 15.1531 22.0659 15.0343 22.0517C15.0314 22.0517 15.0286 22.051 15.0261 22.051C15.0261 22.0531 15.0243 22.0634 15.0211 22.0808C15.0211 22.0645 15.0211 22.0542 15.0211 22.051C15.0183 22.051 15.0155 22.0514 15.013 22.0517C14.8945 22.0659 14.765 22.1727 14.7054 22.2323C14.576 22.3617 14.543 22.5391 14.3252 22.5196C14.0546 22.5192 14.2394 22.0517 13.7715 22.0563C13.3505 22.0602 13.315 22.9126 12.7922 22.9999C12.7794 23.002 12.7666 23.003 12.7538 23.002C12.3332 22.969 11.2914 21.7995 10.8625 21.2983C10.7668 21.1862 10.5866 21.2231 10.5401 21.3629C10.4848 21.5296 10.4603 21.6864 10.4518 21.7506C10.4493 21.7704 10.4497 21.7903 10.4532 21.8102C10.4993 22.0588 10.8551 23.8629 11.6486 24.8628C12.3576 25.7563 14.2436 25.9574 14.8633 25.9776C14.9434 25.9801 14.9562 25.9766 15.0215 25.9776" fill="#26064F"/>
<path d="M27.5416 2.82312C27.4919 2.61384 27.3802 2.20309 27.2631 2.17578C27.106 2.13889 24.8203 3.42506 24.0339 4.21143C23.3358 4.90949 22.9297 5.69517 22.847 5.86294C22.8367 5.88423 22.8304 5.90693 22.8282 5.93034C22.6647 7.83653 23.3053 8.70769 23.5465 9.03367C23.5522 9.04112 23.5579 9.04821 23.5642 9.0546C23.8044 9.30005 24.1101 9.41817 24.3134 9.47315C24.4216 9.50259 24.5315 9.43165 24.5486 9.32063C24.5812 9.10922 24.6801 8.75061 24.9774 8.35653C25.3218 7.90003 26.0149 7.36726 26.7119 7.12144C26.7736 7.09981 26.819 7.04731 26.8325 6.98346C26.8942 6.68977 27.0482 5.88281 26.8744 5.86756C26.7186 5.85408 25.9245 6.13749 25.5091 6.29072C25.3842 6.33683 25.2523 6.24248 25.2555 6.10947C25.2661 5.6785 25.3278 4.86196 25.6343 4.53528C25.995 4.15113 27.1337 3.27466 27.4724 3.01643C27.5316 2.97103 27.5586 2.89548 27.5412 2.82312H27.5416Z" fill="#26064F"/>
</g>
</svg>
