<svg width="57" height="62" viewBox="0 0 57 62" fill="none" xmlns="http://www.w3.org/2000/svg">
<mask id="mask0_5687_313" style="mask-type:alpha" maskUnits="userSpaceOnUse" x="0" y="0" width="57" height="62">
<path d="M17.1953 10.8926L25.7061 10.8926C26.1457 11.4341 26.5199 11.8578 26.8418 12.181C27.1956 12.5362 27.5078 12.7919 27.7939 12.9437C28.086 13.0986 28.4062 13.1725 28.7249 13.0624C29.0247 12.9589 29.2134 12.7277 29.3353 12.5404C29.4391 12.3811 29.5338 12.1891 29.6168 12.0205C29.6315 11.9908 29.6458 11.9618 29.6597 11.9338C29.7606 11.7313 29.8572 11.5491 29.973 11.3903C30.1857 11.0986 30.4531 10.8926 30.9453 10.8926H30.9614H30.9774H30.9933H31.0092H31.025H31.0408H31.0565H31.0722H31.0878H31.1034H31.1189H31.1344H31.1498H31.1651H31.1804H31.1957H31.2109H31.226H31.2411H31.2562H31.2712H31.2861H31.301H31.3158H31.3306H31.3453H31.36H31.3746H31.3892H31.4037H31.4182H31.4326H31.447H31.4613H31.4755H31.4897H31.5039H31.518H31.5321H31.5461H31.5601H31.574H31.5878H31.6016H31.6154H31.6291H31.6428H31.6564H31.6699H31.6834H31.6969H31.7103H31.7237H31.737H31.7502H31.7635H31.7766H31.7897H31.8028H31.8158H31.8288H31.8417H31.8546H31.8674H31.8802H31.8929H31.9056H31.9182H31.9308H31.9433H31.9558H31.9682H31.9806H31.993H32.0053H32.0175H32.0297H32.0419H32.054H32.066H32.078H32.09H32.1019H32.1138H32.1256H32.1374H32.1491H32.1608H32.1724H32.184H32.1956H32.2071H32.2185H32.2299H32.2413H32.2526H32.2639H32.2751H32.2863H32.2974H32.3085H32.3196H32.3306H32.3415H32.3524H32.3633H32.3741H32.3849H32.3956H32.4063H32.417H32.4276H32.4381H32.4486H32.4591H32.4695H32.4799H32.4902H32.5005H32.5108H32.521H32.5311H32.5412H32.5513H32.5613H32.5713H32.5813H32.5912H32.601H32.6109H32.6206H32.6304H32.6401H32.6497H32.6593H32.6689H32.6784H32.6879H32.6973H32.7067H32.7161H32.7254H32.7346H32.7439H32.7531H32.7622H32.7713H32.7804H32.7894H32.7984H32.8073H32.8162H32.8251H32.8339H32.8427H32.8514H32.8601H32.8688H32.8774H32.886H32.8945H32.903H32.9115H32.9199H32.9283H32.9366H32.9449H32.9532H32.9614H32.9696H32.9777H32.9858H32.9939H33.0019H33.0099H33.0179H33.0258H33.0336H33.0415H33.0493H33.057H33.0648H33.0724H33.0801H33.0877H33.0953H33.1028H33.1103H33.1178H33.1252H33.1326H33.1399H33.1472H33.1545H33.1617H33.1689H33.1761H33.1832H33.1903H33.1973H33.2044H33.2113H33.2183H33.2252H33.232H33.2389H33.2457H33.2524H33.2592H33.2659H33.2725H33.2791H33.2857H33.2923H33.2988H33.3053H33.3117H33.3181H33.3245H33.3308H33.3372H33.3434H33.3497H33.3559H33.362H33.3682H33.3743H33.3803H33.3864H33.3924H33.3983H33.4043H33.4102H33.416H33.4219H33.4277H33.4334H33.4392H33.4449H33.4505H33.4562H33.4618H33.4673H33.4729H33.4784H33.4838H33.4893H33.4947H33.5001H33.5054H33.5107H33.516H33.5212H33.5264H33.5316H33.5368H33.5419H33.547H33.552H33.5571H33.5621H33.567H33.572H33.5769H33.5817H33.5866H33.5914H33.5962H33.6009H33.6056H33.6103H33.615H33.6196H33.6242H33.6288H33.6333H33.6378H33.6423H33.6468H33.6512H33.6556H33.66H33.6643H33.6686H33.6729H33.6771H33.6813H33.6855H33.6897H33.6938H33.6979H33.702H33.7061H33.7101H33.7141H33.718H33.722H33.7259H33.7298H33.7336H33.7374H33.7412H33.745H33.7488H33.7525H33.7562H33.7598H33.7635H33.7671H33.7707H33.7742H33.7777H33.7812H33.7847H33.7882H33.7916H33.795H33.7984H33.8017H33.805H33.8083H33.8116H33.8148H33.8181H33.8213H33.8244H33.8276H33.8307H33.8338H33.8368H33.8399H33.8429H33.8459H33.8489H33.8518H33.8547H33.8576H33.8605H33.8633H33.8662H33.869H33.8717H33.8745H33.8772H33.8799H33.8826H33.8853H33.8879H33.8905H33.8931H33.8956H33.8982H33.9007H33.9032H33.9057H33.9081H33.9106H33.913H33.9153H33.9177H33.92H33.9224H33.9246H33.9269H33.9292H33.9314H33.9336H33.9358H33.938H33.9401H33.9422H33.9443H33.9464H33.9485H33.9505H33.9525H33.9545H33.9565H33.9584H33.9604H33.9623H33.9642H33.966H33.9679H33.9697H33.9715H33.9733H33.9751H33.9769H33.9786H33.9803H33.982H33.9837H33.9853H33.987H33.9886H33.9902H33.9918H33.9933H33.9949H33.9964H33.9979H33.9994H34.0008H34.0023H34.0037H34.0051H34.0065H34.0079H34.0093H34.0106H34.0119H34.0132H34.0145H34.0158H34.0171H34.0183H34.0195H34.0207H34.0219H34.0231H34.0242H34.0254H34.0265H34.0276H34.0287H34.0297H34.0308H34.0318H34.0328H34.0339H34.0348H34.0358H34.0368H34.0377H34.0386H34.0396H34.0404H34.0413H34.0422H34.043H34.0439H34.0447H34.0455H34.0463H34.0471H34.0478H34.0486H34.0493H34.05H34.0507H34.0514H34.0521H34.0528H34.0534H34.054H34.0547H34.0553H34.0559H34.0564H34.057H34.0576H34.0581H34.0586H34.0591H34.0596H34.0601H34.0606H34.0611H34.0615H34.062H34.0624H34.0628H34.0632H34.0636H34.064H34.0643H34.0647H34.065H34.0654H34.0657H34.066H34.0663H34.0666H34.0668H34.0671H34.0674H34.0676H34.0678H34.068H34.0683H34.0685H34.0686H34.0688H34.069H34.0691H34.0693H34.0694H34.0695H34.0697H34.0698H34.0699H34.07H34.07H34.0701H34.0702H34.0702H34.0702H34.0703H34.0703H39.6953H45.1132L47.6302 13.4096L50.4453 16.2247V21.6426V32.8926V44.1426V49.5713L48.1181 52.0783L45.1223 54.8926H39.6953H28.4453H17.1953H11.7774L8.96233 52.0775L6.44531 49.5605V44.1426L6.44531 32.8926V21.6426L6.44531 16.222L9.20677 13.4098L11.7745 10.8926H17.1953Z" stroke="url(#paint0_linear_5687_313)"/>
<path d="M27.4021 12.2261L28.4339 13.2128L29.4704 12.231L36.1885 5.86719L42.709 5.86719H49.2058L52.137 8.79834L55.4453 12.1067V18.6035V32.8398V47.0762V53.6054L52.7522 56.5067L49.2331 59.8125H42.709H28.4727H14.2363H7.73949L4.43115 56.5042L1.5 53.573L1.5 47.0762L1.5 32.8398L1.5 18.6035L1.5 12.0987L4.74025 8.79881L7.73077 5.86719L14.2363 5.86719H20.7527L27.4021 12.2261Z" stroke="url(#paint1_linear_5687_313)" stroke-width="3"/>
<path d="M32.4607 4.02331L28.4374 8.04662L24.4141 4.02331L28.4374 0L32.4607 4.02331Z" fill="url(#paint2_linear_5687_313)"/>
</mask>
<g mask="url(#mask0_5687_313)">
<rect x="-1" y="-1" width="59" height="63" fill="url(#paint3_linear_5687_313)"/>
<rect x="-1" y="-1" width="59" height="63" fill="url(#paint4_linear_5687_313)"/>
</g>
<defs>
<linearGradient id="paint0_linear_5687_313" x1="-57.9153" y1="-232.353" x2="8.44315" y2="-248.576" gradientUnits="userSpaceOnUse">
<stop stop-color="#A15FCB"/>
<stop offset="0.21" stop-color="#7F69E7"/>
<stop offset="0.29" stop-color="#6A73F4"/>
<stop offset="0.38" stop-color="#6378F7"/>
<stop offset="0.47" stop-color="#598AF3"/>
<stop offset="0.58" stop-color="#62A7DE"/>
<stop offset="0.73" stop-color="#76C0C3"/>
</linearGradient>
<linearGradient id="paint1_linear_5687_313" x1="-80.8124" y1="-302.816" x2="3.16089" y2="-323.345" gradientUnits="userSpaceOnUse">
<stop stop-color="#A15FCB"/>
<stop offset="0.21" stop-color="#7F69E7"/>
<stop offset="0.29" stop-color="#6A73F4"/>
<stop offset="0.38" stop-color="#6378F7"/>
<stop offset="0.47" stop-color="#598AF3"/>
<stop offset="0.58" stop-color="#62A7DE"/>
<stop offset="0.73" stop-color="#76C0C3"/>
</linearGradient>
<linearGradient id="paint2_linear_5687_313" x1="12.9949" y1="-43.4063" x2="24.8607" y2="-46.3071" gradientUnits="userSpaceOnUse">
<stop stop-color="#A15FCB"/>
<stop offset="0.21" stop-color="#7F69E7"/>
<stop offset="0.29" stop-color="#6A73F4"/>
<stop offset="0.38" stop-color="#6378F7"/>
<stop offset="0.47" stop-color="#598AF3"/>
<stop offset="0.58" stop-color="#62A7DE"/>
<stop offset="0.73" stop-color="#76C0C3"/>
</linearGradient>
<linearGradient id="paint3_linear_5687_313" x1="60" y1="-3.5" x2="-5" y2="70" gradientUnits="userSpaceOnUse">
<stop stop-color="#DB8DE4"/>
<stop offset="1" stop-color="#7EBEDF"/>
</linearGradient>
<linearGradient id="paint4_linear_5687_313" x1="60" y1="-3.5" x2="-5" y2="70" gradientUnits="userSpaceOnUse">
<stop stop-color="#DB8DE4"/>
<stop offset="1" stop-color="#7EBEDF"/>
</linearGradient>
</defs>
</svg>
