<svg width="30" height="32" viewBox="0 0 30 32" fill="none" xmlns="http://www.w3.org/2000/svg">
<g clip-path="url(#clip0_5606_43)">
<path d="M14.0661 15.3242L1.09766 28.8821C1.51871 30.3137 2.86608 31.4084 4.46608 31.4084C5.13976 31.4084 5.72923 31.24 6.2345 30.9032L20.8871 22.5663L14.0661 15.3242Z" fill="#EA4335"/>
<path d="M27.202 12.9668L20.8862 9.3457L13.8125 15.5773L20.9704 22.5668L27.2862 19.0299C28.3809 18.4404 29.1388 17.2615 29.1388 15.9983C29.0546 14.7352 28.2967 13.5562 27.202 12.9668Z" fill="#FBBC04"/>
<path d="M1.09593 3.11328C1.01172 3.36591 1.01172 3.70276 1.01172 4.0396V28.0396C1.01172 28.3764 1.01172 28.6291 1.09593 28.9659L14.5696 15.7449L1.09593 3.11328Z" fill="#4285F4"/>
<path d="M14.1503 15.9984L20.8871 9.34579L6.31871 1.09315C5.81345 0.756312 5.13976 0.587891 4.46608 0.587891C2.86608 0.587891 1.4345 1.68263 1.09766 3.11421L14.1503 15.9984Z" fill="#34A853"/>
</g>
<defs>
<clipPath id="clip0_5606_43">
<rect width="29.4737" height="32" fill="white"/>
</clipPath>
</defs>
</svg>
