<svg width="20" height="20" viewBox="0 0 20 20" fill="none" xmlns="http://www.w3.org/2000/svg">
<g clip-path="url(#clip0_4470_9047)">
<path d="M9.70387 0.555571C9.60911 0.586137 9.45629 0.659494 9.36153 0.714511C9.26678 0.769529 9.14452 0.842886 9.0895 0.873451C9.03143 0.907073 8.82053 1.02933 8.6188 1.14548C8.41706 1.26163 8.21228 1.38084 8.16031 1.4114C8.11141 1.43891 7.84243 1.59479 7.56429 1.75679C6.97743 2.09607 6.94687 2.11135 6.38446 2.43534C6.15217 2.56983 5.95655 2.68904 5.95044 2.70126C5.94432 2.71654 5.92904 2.72571 5.91376 2.72571C5.89236 2.72571 5.53475 2.92745 4.54443 3.50207C4.31824 3.63351 4.07066 3.77411 3.99425 3.8169C3.91478 3.85969 3.81392 3.92082 3.76807 3.95139C3.72528 3.98501 3.68248 4.00946 3.67331 4.00946C3.66414 4.00946 3.51743 4.09199 3.34932 4.19285C3.17816 4.29372 3.02533 4.37625 3.01005 4.37625C2.99171 4.37625 2.97948 4.38847 2.97948 4.40681C2.97948 4.42209 2.9642 4.43738 2.94586 4.43738C2.92752 4.43738 2.83582 4.48322 2.74107 4.5413C2.64326 4.59632 2.44764 4.71552 2.30093 4.8011C1.88218 5.05174 1.73241 5.22902 1.67434 5.55607C1.65906 5.6386 1.64683 7.67731 1.64989 10.092V14.4781L1.73853 14.6676C1.82411 14.8541 1.98916 15.0313 2.17867 15.1353C2.6616 15.4073 2.90612 15.551 2.91224 15.5693C2.91835 15.5815 2.93363 15.5937 2.94586 15.5937C2.96114 15.5937 3.08646 15.661 3.22706 15.7405C3.36766 15.823 3.76501 16.0522 4.1104 16.2509C4.45579 16.4496 4.78895 16.6452 4.85008 16.6849C4.91427 16.7216 4.96929 16.7552 4.97846 16.7552C4.98763 16.7552 5.51641 17.0639 5.6081 17.122C5.63256 17.1404 5.67535 17.1617 5.6998 17.174C5.72425 17.1862 5.92904 17.3023 6.15522 17.4338C6.37835 17.5652 6.56786 17.6722 6.57397 17.6722C6.58008 17.6722 6.72068 17.7547 6.88574 17.8556C7.05385 17.9564 7.20667 18.039 7.22501 18.039C7.24335 18.039 7.25864 18.0512 7.25864 18.0665C7.25864 18.0818 7.28309 18.1001 7.31365 18.1123C7.34116 18.1215 7.41452 18.1582 7.47259 18.1918C7.53067 18.2285 7.62848 18.2835 7.68655 18.3171C7.74462 18.3507 7.83632 18.4027 7.88523 18.4363C7.93719 18.4699 8.00749 18.5097 8.04722 18.528C8.0839 18.5433 8.19088 18.6075 8.28258 18.6656C8.37733 18.7236 8.4568 18.7725 8.46597 18.7725C8.47208 18.7725 8.59434 18.8398 8.73189 18.9223C9.67024 19.4725 9.72832 19.5 10.0156 19.5C10.2326 19.5 10.4099 19.4297 10.8134 19.1913C10.9448 19.1118 11.0671 19.0476 11.0824 19.0476C11.0976 19.0476 11.1099 19.0354 11.1099 19.0201C11.1099 19.0048 11.1343 18.9865 11.1649 18.9773C11.1924 18.9651 11.278 18.9223 11.3544 18.8765C11.4308 18.8306 11.547 18.7634 11.6142 18.7267C11.6814 18.687 11.9902 18.5097 12.3019 18.3293C12.6137 18.149 12.9224 17.9687 12.9896 17.932C13.0569 17.8923 13.3992 17.6966 13.7507 17.4919C14.1022 17.2871 14.3926 17.122 14.3987 17.122C14.4048 17.122 14.4843 17.0731 14.576 17.015C14.6677 16.957 14.7502 16.9081 14.7563 16.9081C14.7655 16.9081 14.8633 16.853 14.9733 16.7858C15.0834 16.7185 15.1842 16.6635 15.1965 16.6635C15.2056 16.6635 15.2393 16.6452 15.2637 16.6207C15.2912 16.5993 15.389 16.5382 15.4807 16.4893C15.5724 16.4373 15.7191 16.3548 15.8047 16.3059C15.8872 16.254 16.0187 16.1806 16.0951 16.1378C16.1684 16.095 16.3549 15.988 16.5047 15.8994C16.6575 15.8108 16.8256 15.7129 16.8806 15.6824C16.9876 15.6182 17.2168 15.4898 17.6784 15.2239C17.8343 15.1322 18.0177 15.0069 18.0818 14.9396C18.1949 14.8296 18.3111 14.6187 18.3416 14.4781C18.3692 14.3528 18.3569 5.54996 18.3294 5.46132C18.2622 5.23819 17.984 4.89586 17.874 4.89586C17.8526 4.89586 17.8343 4.88057 17.8343 4.86529C17.8343 4.84695 17.822 4.83473 17.8037 4.83473C17.7884 4.83473 17.66 4.76748 17.5225 4.68496C17.3819 4.60243 17.2199 4.50768 17.1618 4.47711C17.1037 4.44349 16.9326 4.34568 16.7828 4.25704C16.633 4.17146 16.4986 4.10116 16.4863 4.10116C16.471 4.10116 16.4588 4.08587 16.4588 4.07059C16.4588 4.05225 16.4466 4.04003 16.4313 4.04003C16.413 4.04003 16.2479 3.95139 16.0615 3.84135C15.875 3.73132 15.6641 3.60905 15.5938 3.56932C15.5235 3.52958 15.2943 3.39815 15.0834 3.27589C14.5852 2.98552 14.524 2.9519 14.3895 2.87548C14.3254 2.83881 14.1114 2.71654 13.9158 2.6004C13.7202 2.48425 13.5459 2.38949 13.5276 2.38949C13.5093 2.38949 13.494 2.37421 13.494 2.35893C13.494 2.34059 13.4817 2.32836 13.4634 2.32836C13.4481 2.32836 13.335 2.26723 13.2128 2.19388C12.898 2.00743 11.44 1.16382 11.2994 1.09047C11.2382 1.05684 11.1313 0.995713 11.064 0.955978C10.9968 0.913186 10.8806 0.845943 10.8042 0.806208C10.7278 0.766473 10.6453 0.714511 10.6208 0.693116C10.5628 0.647268 10.3916 0.570854 10.254 0.531119C10.0829 0.482214 9.8842 0.491384 9.70387 0.555571ZM10.2602 1.26774C10.4283 1.3625 10.7095 1.52144 10.9265 1.64676C10.9846 1.68038 11.5989 2.03494 12.2866 2.43534C12.9774 2.83269 13.6988 3.25144 13.8913 3.36147C14.0839 3.47151 14.2642 3.57849 14.2917 3.60294C14.3192 3.62434 14.3498 3.63351 14.359 3.62128C14.3712 3.61211 14.3804 3.61822 14.3804 3.63656C14.3804 3.65796 14.3957 3.67324 14.4109 3.67324C14.4293 3.67324 14.4996 3.70992 14.5668 3.75271C14.6769 3.81995 14.8266 3.90554 15.0375 4.02169C15.0711 4.04003 15.1201 4.07059 15.1445 4.08893C15.169 4.11033 15.2607 4.16229 15.3432 4.20814C15.4288 4.25093 15.5663 4.3304 15.6488 4.3793C15.7344 4.42821 15.8231 4.48017 15.8475 4.48934C15.872 4.50156 15.8995 4.51685 15.9086 4.52602C15.9239 4.54435 16.0217 4.59937 16.2143 4.70329C16.2724 4.73386 16.3274 4.76748 16.3366 4.77665C16.3457 4.78582 16.4558 4.85001 16.5811 4.92031C16.7064 4.99061 16.8745 5.08842 16.9509 5.13427C17.0304 5.18011 17.2077 5.28098 17.3483 5.36351C17.4919 5.44298 17.6234 5.53773 17.6448 5.57135C17.6784 5.62331 17.6845 6.46997 17.6814 9.99416C17.6814 13.7996 17.6753 14.362 17.6356 14.4231C17.6081 14.4598 17.4828 14.5545 17.3513 14.6279C17.223 14.7043 17.1007 14.7807 17.0793 14.799C17.0579 14.8143 17.0334 14.8296 17.0243 14.8296C17.0121 14.8296 16.8898 14.8969 16.7461 14.9824C16.6025 15.068 16.4741 15.1353 16.4619 15.1353C16.4466 15.1353 16.4283 15.1475 16.4221 15.1628C16.4191 15.1781 16.3457 15.2239 16.2601 15.2698C16.1776 15.3125 16.0523 15.3828 15.9851 15.4256C15.9178 15.4684 15.8353 15.5143 15.8017 15.5326C15.7191 15.5754 15.389 15.7619 14.9458 16.0217C14.5638 16.2448 14.4935 16.2876 14.197 16.4557C14.0533 16.5382 13.8974 16.6299 13.8455 16.6605C13.7966 16.691 13.6865 16.7522 13.601 16.798C13.5184 16.8469 13.4359 16.8958 13.4176 16.9081C13.4023 16.9203 13.3259 16.9661 13.2495 17.0059C13.173 17.0487 12.9896 17.1556 12.8368 17.2443C12.687 17.3329 12.5067 17.4338 12.4395 17.4735C12.3722 17.5102 11.9382 17.7608 11.4767 18.0298C11.0151 18.2957 10.5872 18.5433 10.5291 18.5739C10.4711 18.6075 10.413 18.6472 10.4008 18.6656C10.3885 18.6808 10.3763 18.687 10.3763 18.6747C10.3763 18.6625 10.3243 18.687 10.2632 18.7298C10.2021 18.7695 10.1196 18.8123 10.0768 18.8245C9.99729 18.8428 9.765 18.7787 9.765 18.7359C9.765 18.7236 9.74971 18.7114 9.73138 18.7114C9.71304 18.7114 9.61217 18.6595 9.50825 18.5983C9.28206 18.4577 9.10478 18.3569 9.00086 18.3049C8.95807 18.2866 8.89694 18.2438 8.86637 18.2163C8.83581 18.1857 8.79913 18.1704 8.7869 18.1765C8.77468 18.1857 8.74717 18.1704 8.72577 18.146C8.70438 18.1215 8.6677 18.1001 8.6463 18.1001C8.62185 18.1001 8.60351 18.0848 8.60351 18.0695C8.60351 18.0512 8.58823 18.039 8.56989 18.039C8.53321 18.039 8.12669 17.8067 8.04722 17.7394C8.01666 17.715 7.9922 17.7058 7.9922 17.718C7.9922 17.7303 7.96775 17.7211 7.94024 17.6966C7.90968 17.6691 7.82104 17.6141 7.74157 17.5683C7.36561 17.3604 7.29837 17.3237 7.22196 17.2718C7.17917 17.2382 7.13332 17.2137 7.12415 17.2137C7.11498 17.2137 6.98355 17.1373 6.82766 17.0456C6.67484 16.9539 6.5434 16.8775 6.53729 16.8775C6.53118 16.8775 6.43643 16.8225 6.32639 16.7552C6.21636 16.688 6.11243 16.633 6.09715 16.633C6.07881 16.633 6.06658 16.6177 6.06658 16.6024C6.06658 16.5841 6.0513 16.5718 6.03296 16.5718C6.01462 16.5718 5.88625 16.5015 5.74259 16.419C5.59893 16.3334 5.47056 16.2662 5.45528 16.2662C5.43694 16.2662 5.42471 16.2509 5.42471 16.2356C5.42471 16.2173 5.41249 16.2051 5.39415 16.2051C5.37886 16.2051 5.25966 16.1439 5.13128 16.0675C5.00597 15.9911 4.88676 15.93 4.87148 15.93C4.8562 15.93 4.84397 15.9147 4.84397 15.8994C4.84397 15.8811 4.83174 15.8688 4.81646 15.8688C4.80118 15.8688 4.42522 15.6579 3.98202 15.4012C3.54188 15.1444 3.00393 14.8357 2.79303 14.7135C2.51183 14.5545 2.39568 14.4689 2.36206 14.4047C2.30093 14.2733 2.30093 5.67833 2.36512 5.58052C2.40791 5.51633 2.65243 5.35434 2.70439 5.35434C2.72273 5.35434 2.73496 5.33905 2.73496 5.32377C2.73496 5.30543 2.75024 5.29321 2.76858 5.29321C2.78692 5.29321 2.91835 5.22291 3.06506 5.13427C3.32487 4.98144 3.57551 4.83473 3.82003 4.69718C3.88727 4.65745 4.24489 4.45266 4.61473 4.2387C4.98457 4.02474 5.3483 3.81384 5.42471 3.77105C5.50113 3.72826 5.66312 3.63351 5.78538 3.56015C5.9107 3.48679 6.01768 3.42872 6.02991 3.42872C6.03908 3.42872 6.06964 3.41038 6.09409 3.38593C6.1216 3.36147 6.2133 3.30646 6.29583 3.26061C6.38141 3.21782 6.49144 3.15669 6.54035 3.12612C6.59231 3.09556 6.69318 3.03748 6.76959 2.99469C6.846 2.9519 7.0783 2.81741 7.2892 2.69515C7.5001 2.57289 7.69878 2.45674 7.7324 2.4384C7.76296 2.42006 7.80881 2.38644 7.83326 2.36504C7.85466 2.3467 7.88523 2.32836 7.90051 2.32836C7.91579 2.32836 8.02888 2.26723 8.15114 2.19693C8.72883 1.85154 9.12924 1.62536 9.15369 1.62536C9.17203 1.62536 9.18425 1.61008 9.18425 1.59479C9.18425 1.57646 9.19648 1.56423 9.21176 1.56423C9.22705 1.56423 9.39516 1.47559 9.58466 1.36555C9.77722 1.25552 9.96673 1.16688 10.0095 1.16688C10.0523 1.16688 10.1654 1.21273 10.2602 1.26774Z" fill="url(#paint0_linear_4470_9047)"/>
<path d="M9.73355 3.17925C9.65713 3.20981 9.54099 3.27094 9.47374 3.31373C9.4065 3.35347 9.28424 3.42683 9.19865 3.47573C9.11613 3.52158 8.87466 3.65912 8.66376 3.78138C7.75597 4.31017 7.15994 4.6525 7.14772 4.6525C7.1416 4.6525 7.07742 4.68918 7.00406 4.73503C6.93376 4.78087 6.86651 4.8145 6.85429 4.81144C6.83901 4.80838 6.82984 4.81755 6.82984 4.83283C6.82984 4.84812 6.80538 4.86646 6.77787 4.87563C6.74731 4.8848 6.65867 4.9337 6.5792 4.97955C6.49973 5.0254 6.16351 5.22407 5.83035 5.41663C5.49718 5.6092 5.19764 5.78342 5.16402 5.80481C5.1304 5.82315 5.05399 5.86594 4.99591 5.89651C4.73611 6.03711 4.27151 6.31831 4.20427 6.37639C4.09423 6.4742 3.99031 6.65453 3.96892 6.78291C3.94141 6.9449 3.93529 9.26787 3.9628 9.26787C3.97503 9.26787 3.97503 9.29844 3.9628 9.33512C3.94141 9.3993 3.93835 9.54602 3.95669 9.61937C3.95975 9.63466 3.95975 9.66217 3.95669 9.68051C3.94141 9.75692 3.95058 10.2123 3.96892 10.2429C3.98114 10.2612 3.98114 10.2765 3.96586 10.2765C3.93835 10.2765 3.94141 11.2607 3.96892 11.331C3.97808 11.3555 3.97503 11.3769 3.9628 11.3769C3.95058 11.3769 3.94141 11.4533 3.94141 11.545C3.94141 11.6367 3.95058 11.7131 3.9628 11.7131C3.97503 11.7131 3.97503 11.7437 3.9628 11.7803C3.94141 11.8445 3.93835 11.9912 3.95669 12.0646C3.95975 12.0799 3.95975 12.1013 3.95669 12.1105C3.93835 12.1563 3.94446 12.4467 3.96586 12.4467C3.97808 12.4467 3.97808 12.4711 3.96586 12.4986C3.93529 12.5628 3.94141 13.0121 3.97197 13.1955C4.01171 13.4278 4.16453 13.6296 4.406 13.761C4.47019 13.7946 4.54354 13.8343 4.568 13.8496C4.85837 14.03 6.10544 14.7391 6.12989 14.7391C6.14517 14.7391 6.1574 14.7482 6.1574 14.7605C6.1574 14.7758 6.18796 14.8002 6.2277 14.8155C6.33468 14.8675 6.57003 14.9958 6.58531 15.0172C6.59448 15.0264 6.66173 15.0661 6.73814 15.1089C6.81455 15.1487 6.8818 15.1914 6.88485 15.2037C6.89097 15.219 6.90931 15.2281 6.92459 15.2281C6.93987 15.2281 7.15383 15.3443 7.39835 15.4879C7.64593 15.6316 7.85378 15.7477 7.86295 15.7477C7.87212 15.7477 7.90268 15.7661 7.92713 15.7905C7.95464 15.815 8.04634 15.87 8.12886 15.9128C8.21445 15.9586 8.30309 16.0075 8.32754 16.0228C8.51093 16.139 8.85326 16.3285 8.87772 16.3285C8.89606 16.3285 8.90828 16.3407 8.90828 16.359C8.90828 16.3743 8.92051 16.3896 8.93885 16.3896C8.9633 16.3896 9.33925 16.5975 9.48902 16.6953C9.8283 16.9123 10.1126 16.9306 10.4366 16.7503C10.6505 16.6341 10.9409 16.4691 11.0173 16.4202C11.0417 16.4049 11.2771 16.2704 11.5369 16.1206C11.7967 15.9709 12.2277 15.7202 12.4905 15.5674C12.7565 15.4146 12.9857 15.2893 13.004 15.2893C13.0193 15.2893 13.0346 15.2801 13.0346 15.2648C13.0346 15.2526 13.0988 15.2098 13.1813 15.167C13.2608 15.1242 13.4075 15.0417 13.5084 14.9805C13.6092 14.9194 13.7529 14.8369 13.8293 14.7941C13.9057 14.7513 14.2358 14.5618 14.5629 14.3723C14.8899 14.1797 15.1864 14.0086 15.22 13.9902C15.9964 13.5684 16.0698 13.4706 16.0759 12.844C16.0789 12.6331 16.0728 12.4497 16.0636 12.4344C16.0575 12.4161 16.0514 12.2877 16.0575 12.1441C16.0667 11.7712 16.0636 11.7651 16.0453 11.6917C16.0361 11.655 16.0422 11.6184 16.0575 11.6092C16.0698 11.6 16.0728 11.5389 16.0606 11.4747C16.0514 11.4105 16.0514 11.331 16.0606 11.2974C16.0728 11.2668 16.0759 11.2271 16.0667 11.2118C16.0392 11.166 16.0392 11.0376 16.0667 11.0223C16.082 11.0132 16.082 10.9918 16.0698 10.9704C16.0392 10.9215 16.0392 10.7931 16.0667 10.7778C16.082 10.7686 16.082 10.7472 16.0698 10.7258C16.0392 10.6769 16.0392 10.5486 16.0667 10.5333C16.082 10.5241 16.082 10.5027 16.0698 10.4813C16.0606 10.463 16.0514 10.3315 16.0575 10.1879C16.0667 9.81499 16.0636 9.80888 16.0453 9.73552C16.0361 9.69884 16.0422 9.66217 16.0575 9.653C16.0698 9.64383 16.0728 9.5827 16.0606 9.51851C16.0514 9.45432 16.0514 9.37485 16.0606 9.34123C16.0728 9.31066 16.0759 9.27093 16.0667 9.25565C16.0392 9.2098 16.0392 9.08142 16.0667 9.06614C16.082 9.05697 16.082 9.03558 16.0698 9.01418C16.0392 8.96528 16.0392 8.8369 16.0667 8.82162C16.082 8.81245 16.082 8.79105 16.0698 8.76966C16.0392 8.72075 16.0392 8.59238 16.0667 8.57709C16.082 8.56793 16.082 8.54653 16.0698 8.52513C16.0606 8.50679 16.0514 8.37536 16.0575 8.23171C16.0667 7.85881 16.0636 7.8527 16.0453 7.77934C16.0361 7.74266 16.0453 7.70292 16.0606 7.69376C16.0789 7.68153 16.085 7.66319 16.0789 7.65096C16.0606 7.62345 16.0575 7.51953 16.0606 7.14969C16.0667 6.74317 16.0239 6.60257 15.8375 6.41612C15.7549 6.3336 15.4401 6.11964 15.4034 6.11964C15.3973 6.11964 15.1069 5.95458 14.7616 5.75285C14.4131 5.55112 14.1166 5.38607 14.1013 5.38607C14.0861 5.38607 14.0738 5.37384 14.0738 5.35856C14.0738 5.34328 14.028 5.31577 13.976 5.29132C13.921 5.26992 13.869 5.24547 13.8599 5.23324C13.8507 5.22407 13.811 5.19962 13.7682 5.17822C13.7254 5.15683 13.652 5.11709 13.6001 5.08347C13.5512 5.05291 13.4534 4.99789 13.3861 4.95815C13.1935 4.85117 12.3224 4.34684 12.2705 4.31628C12.246 4.29794 12.1696 4.2582 12.1024 4.22153C12.0351 4.18485 11.9251 4.12066 11.8578 4.07481C11.7906 4.03202 11.7295 3.99534 11.7203 3.99534C11.7111 3.99534 11.6714 3.97089 11.6286 3.94338C11.5858 3.91893 11.3657 3.7875 11.1396 3.65912C10.7453 3.43294 10.678 3.3932 10.4152 3.24343C10.2012 3.12117 9.93834 3.09672 9.73355 3.17925ZM10.5894 4.04425C11.2221 4.41103 11.2924 4.45077 11.4238 4.52412C11.5828 4.61582 11.8548 4.77476 11.9037 4.80533C11.9281 4.82366 12.6098 5.2149 13.4167 5.68255C14.2236 6.14715 14.9663 6.57506 15.0672 6.63314C15.1681 6.69121 15.2873 6.75845 15.3331 6.78291C15.379 6.80736 15.4248 6.84098 15.437 6.85932C15.4615 6.896 15.4646 7.70292 15.4432 7.72738C15.434 7.73349 15.437 7.78545 15.4462 7.83741C15.4584 7.89243 15.4584 8.00858 15.4493 8.09722C15.4401 8.18891 15.437 8.26838 15.4462 8.2745C15.4523 8.28367 15.4554 8.39065 15.4523 8.50985C15.4493 8.63211 15.4493 8.75437 15.4493 8.77883C15.4493 8.80328 15.4493 8.90414 15.4493 9.00195C15.4493 9.09671 15.4462 9.1884 15.4462 9.20063C15.4432 9.21285 15.4462 9.23425 15.4493 9.25259C15.4523 9.26787 15.4523 9.37791 15.4523 9.49711C15.4493 9.61326 15.4493 9.73247 15.4493 9.75692C15.4493 9.78137 15.4493 9.88224 15.4493 9.98005C15.4493 10.0748 15.4462 10.1665 15.4462 10.1787C15.4432 10.1909 15.4462 10.2123 15.4493 10.2307C15.4523 10.246 15.4523 10.356 15.4523 10.4752C15.4493 10.5914 15.4493 10.7106 15.4493 10.735C15.4493 10.7595 15.4493 10.8603 15.4493 10.9581C15.4493 11.0529 15.4462 11.1446 15.4462 11.1568C15.4432 11.169 15.4462 11.1904 15.4493 11.2088C15.4523 11.2241 15.4523 11.3341 15.4523 11.4533C15.4493 11.5694 15.4493 11.6887 15.4493 11.7131C15.4493 11.7376 15.4493 11.8384 15.4493 11.9362C15.4493 12.031 15.4462 12.1227 15.4462 12.1349C15.4432 12.1471 15.4462 12.1685 15.4493 12.1869C15.4523 12.2021 15.4523 12.2725 15.4523 12.3397C15.4523 12.4069 15.4493 12.6087 15.4462 12.7859C15.4462 12.9632 15.434 13.1222 15.4248 13.1375C15.4065 13.165 14.9419 13.4553 14.9174 13.4553C14.9113 13.4553 14.7493 13.547 14.5598 13.6571C13.8415 14.0758 13.6979 14.1583 13.6734 14.1583C13.6581 14.1583 13.6459 14.1706 13.6459 14.1889C13.6459 14.2042 13.6337 14.2195 13.6184 14.2195C13.6031 14.2195 13.2883 14.3937 12.9215 14.6076C12.5547 14.8185 12.2002 15.0233 12.1329 15.06C12.0657 15.0997 11.5828 15.3779 11.057 15.6805C10.5344 15.9861 10.0728 16.2429 10.0331 16.2521C9.98113 16.2643 9.81302 16.1848 9.35759 15.9189C9.02443 15.7263 8.73406 15.5521 8.70961 15.5338C8.68515 15.5124 8.66376 15.5032 8.66376 15.5154C8.66376 15.5246 8.5904 15.4879 8.50482 15.4299C8.41618 15.3748 8.28169 15.2954 8.20528 15.2526C8.12886 15.2098 7.80793 15.0233 7.48699 14.8399C6.74425 14.4059 6.17574 14.0789 6.01985 13.9902C5.95261 13.9505 5.6439 13.7732 5.33213 13.5929C5.02036 13.4095 4.72999 13.2444 4.68415 13.22C4.63524 13.1955 4.58939 13.1405 4.57717 13.0947C4.5466 12.9693 4.55577 6.88377 4.58634 6.85321C4.6169 6.8257 5.9251 6.05851 6.24909 5.88123C6.30717 5.84761 6.60976 5.67338 6.92153 5.49305C7.2333 5.31271 7.5359 5.13849 7.59397 5.10487C7.65204 5.07124 7.92713 4.9123 8.20528 4.75031C8.48342 4.59137 8.76462 4.42937 8.83187 4.38964C8.89911 4.35296 9.18031 4.19096 9.45846 4.02896C9.7366 3.86697 9.98418 3.73554 10.0086 3.73554C10.0331 3.73554 10.296 3.87614 10.5894 4.04425Z" fill="url(#paint1_linear_4470_9047)"/>
<path d="M9.7249 5.83991C9.63626 5.88271 9.55985 5.9255 9.55068 5.93467C9.54151 5.94384 9.50178 5.96829 9.45899 5.98968C9.41619 6.00802 9.36118 6.03859 9.33672 6.05693C9.24197 6.11806 8.65817 6.45428 8.64595 6.45428C8.63983 6.45428 8.57565 6.49096 8.50229 6.5368C8.43199 6.5796 8.2975 6.65907 8.2058 6.70797C8.11411 6.75993 8.03158 6.80884 8.02241 6.81801C8.01324 6.82718 7.946 6.86997 7.86959 6.9097C7.79317 6.94944 7.60978 7.05336 7.45695 7.142C6.30769 7.81444 6.36271 7.77165 6.29547 7.97032C6.26796 8.05591 6.25879 8.52967 6.25879 10.0182C6.25879 11.7788 6.26185 11.9652 6.31075 12.0722C6.36577 12.1945 6.53082 12.3534 6.60418 12.3534C6.62863 12.3534 6.64697 12.3626 6.64697 12.3748C6.64697 12.3901 6.67753 12.4145 6.71727 12.4329C6.75395 12.4512 6.90678 12.5368 7.05349 12.6224C7.20326 12.711 7.33775 12.7813 7.35303 12.7813C7.36831 12.7813 7.38054 12.7935 7.38054 12.8119C7.38054 12.8272 7.39277 12.8424 7.40805 12.8424C7.42944 12.8424 7.80234 13.0503 7.96128 13.1481C8.14773 13.2673 9.49872 14.0345 9.52012 14.0345C9.53234 14.0345 9.55068 14.0437 9.55679 14.0559C9.58125 14.117 9.84717 14.2271 9.9786 14.2332C10.1498 14.2423 10.217 14.2087 10.9353 13.79C11.2073 13.631 11.458 13.4843 11.4916 13.466C11.6169 13.3987 12.8059 12.711 12.8365 12.6896C12.8548 12.6774 12.9282 12.6315 13.0046 12.5918C13.5334 12.2984 13.6098 12.2403 13.6953 12.0783C13.7473 11.9774 13.7534 11.8582 13.7534 10.0304C13.7565 8.74363 13.7473 8.05285 13.7259 7.98255C13.6892 7.86334 13.5242 7.68606 13.3866 7.61576C13.3347 7.59131 13.0993 7.45682 12.8609 7.31928C12.6225 7.17868 12.4116 7.06559 12.3963 7.06559C12.381 7.06559 12.3627 7.05642 12.3566 7.04113C12.3474 7.01668 11.8584 6.72937 11.8278 6.72937C11.8156 6.72937 11.7483 6.68658 11.675 6.63767C11.6016 6.58571 11.5283 6.54597 11.513 6.54597C11.4946 6.54597 11.4763 6.5368 11.4702 6.52152C11.4671 6.5093 11.4121 6.47567 11.354 6.44205C11.1829 6.35036 10.9964 6.24643 10.6174 6.02636C10.4218 5.91327 10.2292 5.80935 10.1895 5.79407C10.0458 5.74516 9.88384 5.76044 9.7249 5.83991ZM11.192 6.97695C11.8095 7.33456 12.3658 7.6555 12.4269 7.68912C12.488 7.7258 12.6194 7.79916 12.7173 7.85723C12.8181 7.9153 12.9404 7.98255 12.9893 8.01006C13.0412 8.03757 13.1115 8.08036 13.1513 8.10481L13.2185 8.15066V10.006C13.2185 11.8338 13.2185 11.8613 13.1574 11.8796C13.1238 11.8888 13.0963 11.9102 13.0963 11.9224C13.0963 11.9347 13.0474 11.9622 12.9893 11.9866C12.9312 12.0111 12.8823 12.0386 12.8823 12.0539C12.8823 12.0661 12.8701 12.0783 12.8548 12.0783C12.8151 12.0783 11.9531 12.5765 11.9409 12.604C11.9348 12.6193 11.9134 12.6285 11.895 12.6285C11.8737 12.6285 11.7728 12.6835 11.6658 12.7507C11.5619 12.818 11.4549 12.873 11.4305 12.873C11.406 12.873 11.3846 12.8852 11.3846 12.9005C11.3846 12.9158 11.3265 12.9555 11.2562 12.9922C11.1829 13.0289 11.0606 13.0961 10.9842 13.142C10.9078 13.1878 10.6541 13.3345 10.4249 13.466C10.0397 13.6891 9.99694 13.7044 9.93886 13.6677C9.82271 13.5944 9.56902 13.4538 9.48955 13.414C9.44676 13.3957 9.40702 13.3712 9.39785 13.359C9.38868 13.3498 9.34589 13.3223 9.30005 13.2979C9.2542 13.2734 9.10443 13.1909 8.96688 13.1084C8.82934 13.0289 8.70402 12.9647 8.69179 12.9647C8.67651 12.9647 8.66429 12.9494 8.66429 12.9341C8.66429 12.9158 8.65206 12.9036 8.63372 12.9036C8.61844 12.9036 8.50535 12.8455 8.38308 12.7721C8.26082 12.6988 8.13856 12.6315 8.11411 12.6193C8.07132 12.5979 8.03464 12.5796 7.86959 12.4726C7.82679 12.4451 7.69842 12.3717 7.57921 12.3076C7.46307 12.2434 7.33163 12.167 7.2919 12.1364C7.25216 12.1028 7.20937 12.0783 7.19409 12.0783C7.18186 12.0783 7.08711 12.0294 6.98625 11.9683L6.7998 11.8582V9.99986V8.14149L7.11462 7.96115C7.28579 7.86029 7.93683 7.48433 8.55731 7.12672C9.18084 6.7691 9.74936 6.43594 9.82577 6.39009C9.90218 6.34424 9.98777 6.30756 10.0153 6.31368C10.0428 6.31979 10.5716 6.61933 11.192 6.97695Z" fill="url(#paint2_linear_4470_9047)"/>
</g>
<defs>
<linearGradient id="paint0_linear_4470_9047" x1="-22.0609" y1="121.993" x2="2.89594" y2="127.358" gradientUnits="userSpaceOnUse">
<stop stop-color="#AB71D1"/>
<stop offset="0.21" stop-color="#927FEB"/>
<stop offset="0.29" stop-color="#848BF6"/>
<stop offset="0.38" stop-color="#7C8EF8"/>
<stop offset="0.47" stop-color="#709AF5"/>
<stop offset="0.58" stop-color="#78B3E3"/>
<stop offset="0.73" stop-color="#86C8CA"/>
</linearGradient>
<linearGradient id="paint1_linear_4470_9047" x1="-13.2865" y1="91.0027" x2="4.83974" y2="94.9173" gradientUnits="userSpaceOnUse">
<stop stop-color="#AB71D1"/>
<stop offset="0.21" stop-color="#927FEB"/>
<stop offset="0.29" stop-color="#848BF6"/>
<stop offset="0.38" stop-color="#7C8EF8"/>
<stop offset="0.47" stop-color="#709AF5"/>
<stop offset="0.58" stop-color="#78B3E3"/>
<stop offset="0.73" stop-color="#86C8CA"/>
</linearGradient>
<linearGradient id="paint2_linear_4470_9047" x1="-4.37784" y1="59.9151" x2="6.81151" y2="62.3362" gradientUnits="userSpaceOnUse">
<stop stop-color="#AB71D1"/>
<stop offset="0.21" stop-color="#927FEB"/>
<stop offset="0.29" stop-color="#848BF6"/>
<stop offset="0.38" stop-color="#7C8EF8"/>
<stop offset="0.47" stop-color="#709AF5"/>
<stop offset="0.58" stop-color="#78B3E3"/>
<stop offset="0.73" stop-color="#86C8CA"/>
</linearGradient>
<clipPath id="clip0_4470_9047">
<rect width="19" height="19" fill="white" transform="translate(0.5 0.5)"/>
</clipPath>
</defs>
</svg>
