<svg width="32" height="32" viewBox="0 0 32 32" fill="none" xmlns="http://www.w3.org/2000/svg">
<g clip-path="url(#clip0_6222_6)">
<path d="M16 0C12.8355 0 9.74207 0.938384 7.11088 2.69649C4.4797 4.45459 2.42894 6.95345 1.21793 9.87707C0.00693258 12.8007 -0.309921 16.0178 0.307443 19.1214C0.924806 22.2251 2.44866 25.0761 4.6863 27.3137C6.92394 29.5514 9.77487 31.0752 12.8786 31.6926C15.9823 32.3099 19.1993 31.9931 22.1229 30.7821C25.0466 29.5711 27.5454 27.5203 29.3035 24.8891C31.0616 22.2579 32 19.1645 32 16C31.9954 11.7579 30.3082 7.69095 27.3087 4.69136C24.3091 1.69177 20.2421 0.00458811 16 0ZM16 29.3333C13.3629 29.3333 10.7851 28.5513 8.5924 27.0863C6.39975 25.6212 4.69078 23.5388 3.68161 21.1024C2.67245 18.6661 2.4084 15.9852 2.92287 13.3988C3.43734 10.8124 4.70722 8.43661 6.57192 6.57191C8.43662 4.70721 10.8124 3.43733 13.3988 2.92286C15.9852 2.40839 18.6661 2.67244 21.1025 3.68161C23.5388 4.69078 25.6212 6.39974 27.0863 8.5924C28.5514 10.7851 29.3333 13.3629 29.3333 16C29.3295 19.535 27.9235 22.9242 25.4238 25.4238C22.9242 27.9234 19.535 29.3295 16 29.3333Z" fill="#26064F"/>
<path d="M15.9997 13.3335H14.6663C14.3127 13.3335 13.9736 13.474 13.7235 13.724C13.4735 13.9741 13.333 14.3132 13.333 14.6668C13.333 15.0205 13.4735 15.3596 13.7235 15.6096C13.9736 15.8597 14.3127 16.0002 14.6663 16.0002H15.9997V24.0002C15.9997 24.3538 16.1402 24.6929 16.3902 24.943C16.6402 25.193 16.9794 25.3335 17.333 25.3335C17.6866 25.3335 18.0258 25.193 18.2758 24.943C18.5259 24.6929 18.6663 24.3538 18.6663 24.0002V16.0002C18.6663 15.2929 18.3854 14.6146 17.8853 14.1145C17.3852 13.6144 16.7069 13.3335 15.9997 13.3335Z" fill="#26064F"/>
<path d="M16 10.6665C17.1046 10.6665 18 9.77107 18 8.6665C18 7.56193 17.1046 6.6665 16 6.6665C14.8954 6.6665 14 7.56193 14 8.6665C14 9.77107 14.8954 10.6665 16 10.6665Z" fill="#26064F"/>
</g>
<defs>
<clipPath id="clip0_6222_6">
<rect width="32" height="32" fill="white"/>
</clipPath>
</defs>
</svg>
