<svg width="30" height="26" viewBox="0 0 30 26" fill="none" xmlns="http://www.w3.org/2000/svg">
<g clip-path="url(#clip0_5684_235)">
<mask id="mask0_5684_235" style="mask-type:luminance" maskUnits="userSpaceOnUse" x="0" y="0" width="30" height="26">
<path d="M29.5993 0H0.399994V25.9894H29.5993V0Z" fill="white"/>
</mask>
<g mask="url(#mask0_5684_235)">
<path d="M10.6369 22.0142L11.7427 21.3859C11.8212 21.3413 11.9197 21.3536 11.9851 21.4161L13.3734 22.7456C13.3771 22.7489 13.38 22.7521 13.3832 22.7562C13.4486 22.8359 14.2536 23.7974 15.0001 23.8334V25.9899C15.0001 25.9899 13.3685 25.9077 13.2406 25.6301C13.1126 25.3525 12.389 23.938 11.1716 23.0174C10.8417 22.7092 10.659 22.4565 10.5629 22.2971C10.5036 22.199 10.5375 22.0711 10.6373 22.0146L10.6369 22.0142Z" fill="#26064F"/>
<path d="M5.12456 14.8323C5.12456 14.8323 5.87635 13.8086 6.34034 14.8323C6.58644 15.2799 7.23603 17.7438 9.51553 19.0761C9.61037 19.1317 9.58216 19.2768 9.47424 19.2993C9.12022 19.3729 8.53603 19.4718 8.19591 19.4072C7.1882 19.2151 6.85094 18.8565 6.3244 18.2715C6.1805 17.8558 4.40465 20.3671 1.44531 20.7947C1.44531 20.7947 0.75729 20.9108 0.533674 20.607C0.310058 20.3033 0.725812 20.5429 1.81323 19.5033C2.78905 18.4956 5.12456 14.8323 5.12456 14.8323Z" fill="#26064F"/>
<path d="M11.8257 11.1163C11.2219 10.3142 10.5057 9.36904 9.81273 8.45495C8.34594 6.51926 6.82927 4.51775 6.21566 3.66253C6.07585 3.46753 6.0971 3.2018 6.26594 3.03133C7.13343 2.15526 9.31481 0.531079 10.0621 0.072398C10.2502 -0.0428851 10.4938 -0.0183566 10.6545 0.132901C10.8135 0.282115 10.8544 0.519633 10.7554 0.713406L9.70522 2.83388L13.346 7.93372L12.6805 8.40875L8.75516 2.91032L9.46525 1.47665C8.65663 2.06655 7.64688 2.85514 7.04553 3.41479C7.73314 4.35709 9.11981 6.1869 10.4644 7.96152C11.1573 8.87602 11.8739 9.82158 12.4786 10.6245L11.8253 11.1163H11.8257Z" fill="#26064F"/>
<path d="M18.3519 4.05051C16.4852 2.79098 15.0119 2.92875 14.9935 2.93079C14.9751 2.92916 13.5018 2.79098 11.6352 4.05051C11.1593 4.37184 10.7125 4.71156 10.3013 5.08357C11.2591 6.50581 12.6159 8.39612 13.4454 9.40996C13.4744 9.38584 13.4748 9.38625 13.5042 9.36335C14.0071 8.97254 14.5688 8.77181 14.9935 8.73788C15.4183 8.77181 15.98 8.97254 16.4828 9.36335C16.5122 9.38625 16.5126 9.38543 16.5417 9.40996C17.3711 8.39612 18.728 6.50581 19.6858 5.08357C19.2749 4.71156 18.8281 4.37143 18.3519 4.05051Z" fill="#26064F"/>
<path d="M20.8084 6.31522C20.801 6.30541 20.7941 6.2956 20.7867 6.2862C20.7785 6.27516 17.4504 10.6146 17.4504 10.6146C17.625 11.0247 17.7272 11.5062 17.7174 12.0651C17.6148 14.103 15.8013 15.1201 14.9943 15.0792C14.9943 15.0792 14.9939 15.0792 14.9935 15.0792C14.9935 15.0792 14.9931 15.0792 14.9927 15.0792C14.1853 15.1205 12.3723 14.1034 12.2697 12.0655C12.2598 11.507 12.362 11.0251 12.5366 10.615C12.5366 10.615 9.20852 6.27557 9.20034 6.2866C9.19298 6.29642 9.18603 6.30623 9.17868 6.31563C8.15217 7.70679 7.53364 9.53374 7.52424 12.193C7.5083 16.5762 12.0673 19.0078 12.0673 19.0078C13.7994 22.5505 14.958 22.4822 14.9939 22.4794C15.0299 22.4822 16.1885 22.5505 17.9206 19.0078C17.9206 19.0078 22.4796 16.5762 22.4636 12.193C22.4538 9.53374 21.8357 7.70679 20.8092 6.31563L20.8084 6.31522Z" fill="#26064F"/>
<path d="M19.3501 22.0142L18.2443 21.3859C18.1658 21.3413 18.0673 21.3536 18.0019 21.4161L16.6136 22.7456C16.6099 22.7489 16.6071 22.7521 16.6038 22.7562C16.5384 22.8359 15.7334 23.7974 14.987 23.8334V25.9899C14.987 25.9899 16.6185 25.9077 16.7465 25.6301C16.8744 25.3529 17.598 23.938 18.8154 23.0174C19.1453 22.7092 19.3281 22.4565 19.4241 22.2971C19.4834 22.199 19.4495 22.0711 19.3497 22.0146L19.3501 22.0142Z" fill="#26064F"/>
<path d="M24.8625 14.8323C24.8625 14.8323 24.1107 13.8086 23.6467 14.8323C23.4006 15.2799 22.751 17.7438 20.4715 19.0761C20.3767 19.1317 20.4049 19.2768 20.5128 19.2993C20.8668 19.3729 21.451 19.4718 21.7911 19.4072C22.7988 19.2151 23.1361 18.8565 23.6626 18.2715C23.8065 17.8558 25.5824 20.3671 28.5417 20.7947C28.5417 20.7947 29.2297 20.9108 29.4534 20.607C29.677 20.3033 29.2612 20.5429 28.1738 19.5033C27.198 18.4956 24.8625 14.8323 24.8625 14.8323Z" fill="#26064F"/>
<path d="M18.1613 11.1163L17.5081 10.6245C18.1127 9.82158 18.8293 8.87602 19.5223 7.96152C20.8668 6.1869 22.2535 4.35709 22.9411 3.41479C22.3402 2.85514 21.3304 2.06696 20.5214 1.47665L21.2315 2.91032L17.3061 8.40875L16.6406 7.93372L20.2814 2.83388L19.2312 0.713406C19.1323 0.519633 19.1736 0.282115 19.3322 0.132901C19.4928 -0.0183566 19.7365 -0.0428851 19.9245 0.072398C20.6714 0.531079 22.8532 2.15526 23.7207 3.03133C23.8895 3.2018 23.9108 3.46753 23.771 3.66253C23.1574 4.51775 21.6403 6.51966 20.1735 8.45536C19.481 9.36944 18.7647 10.3146 18.1609 11.1163H18.1613Z" fill="#26064F"/>
</g>
</g>
<defs>
<clipPath id="clip0_5684_235">
<rect width="30" height="26" fill="white"/>
</clipPath>
</defs>
</svg>
