<svg width="24" height="24" viewBox="0 0 24 24" fill="none" xmlns="http://www.w3.org/2000/svg">
<path d="M6.76884 5.15625C10.5072 5.15625 13.5374 8.20768 13.5374 11.9715C13.5374 15.7354 10.5069 18.7866 6.76884 18.7866C3.03073 18.7866 0 15.7354 0 11.9715C0 8.20768 3.0305 5.15625 6.76884 5.15625ZM17.5782 5.55547C19.4474 5.55547 20.9626 8.42775 20.9626 11.9715C20.9626 15.5144 19.4476 18.3876 17.5784 18.3876C15.7092 18.3876 14.194 15.5144 14.194 11.9715C14.194 8.42867 15.709 5.55547 17.5782 5.55547ZM22.8097 6.22375C23.4669 6.22375 24 8.79708 24 11.9715C24 15.1451 23.4672 17.7193 22.8097 17.7193C22.1522 17.7193 21.6196 15.1458 21.6196 11.9715C21.6196 8.79731 22.1524 6.22375 22.8097 6.22375Z" fill="url(#paint0_linear_1055_267)"/>
<defs>
<linearGradient id="paint0_linear_1055_267" x1="-34.059" y1="-68.3706" x2="-2.4159" y2="-81.9916" gradientUnits="userSpaceOnUse">
<stop stop-color="#A15FCB"/>
<stop offset="0.21" stop-color="#7F69E7"/>
<stop offset="0.29" stop-color="#6A73F4"/>
<stop offset="0.38" stop-color="#6378F7"/>
<stop offset="0.47" stop-color="#598AF3"/>
<stop offset="0.58" stop-color="#62A7DE"/>
<stop offset="0.73" stop-color="#76C0C3"/>
</linearGradient>
</defs>
</svg>
