<svg width="30" height="26" viewBox="0 0 30 26" fill="none" xmlns="http://www.w3.org/2000/svg">
<mask id="mask0_5684_197" style="mask-type:luminance" maskUnits="userSpaceOnUse" x="6" y="0" width="18" height="26">
<path d="M23.6613 0H6.25V25.9948H23.6613V0Z" fill="white"/>
</mask>
<g mask="url(#mask0_5684_197)">
<path d="M16.2052 20.9178C16.6593 20.7788 18.2429 19.3273 18.6773 18.799C19.3027 18.0391 19.9197 17.1558 20.4158 16.4462C20.646 16.1168 20.845 15.8322 21.0152 15.601L21.0322 15.5754C21.3799 15.0027 21.39 14.4931 21.39 14.4369V13.5702C21.39 13.4694 21.3081 13.3879 21.2076 13.3879H20.879C20.7781 13.3879 20.6966 13.4697 20.6966 13.5702V14.4369C20.6966 14.4369 20.6883 14.794 20.4522 15.1944C20.4488 15.1999 20.4453 15.2055 20.4411 15.211C20.2692 15.4454 20.0733 15.7258 19.8473 16.0492C19.3581 16.7488 18.7497 17.6196 18.1417 18.3587C17.6782 18.9221 16.3473 20.082 16.0211 20.2456C16.009 20.2519 15.9965 20.2564 15.9833 20.2595C15.741 20.3198 15.3583 20.3334 15.1101 20.3334C15.0442 20.3334 14.8657 20.3334 14.7998 20.3334C14.5516 20.3334 14.1689 20.3198 13.9266 20.2595C13.9134 20.2564 13.9009 20.2515 13.8888 20.2456C13.5626 20.082 12.2317 18.9221 11.7682 18.3587C11.1602 17.62 10.5518 16.7492 10.0626 16.0492C9.8366 15.7258 9.64039 15.4454 9.46879 15.211C9.46497 15.2058 9.46116 15.2003 9.45769 15.1944C9.22161 14.794 9.21329 14.4379 9.21329 14.4369V13.5702C9.21329 13.4694 9.13148 13.3879 9.03095 13.3879H8.7023C8.60142 13.3879 8.51996 13.4697 8.51996 13.5702V14.4369C8.51996 14.4931 8.53001 15.0027 8.87772 15.5754L8.89471 15.601C9.06527 15.8326 9.26391 16.1168 9.49409 16.4462C9.99017 17.1558 10.6072 18.0391 11.2326 18.799C11.6673 19.3273 13.2506 20.7788 13.7047 20.9178L13.7137 20.9206C14.0431 21.0118 14.5083 21.0267 14.7818 21.0267C14.7919 21.0267 14.8016 21.0267 14.8113 21.0267C14.8695 21.0267 15.1163 21.0267 15.1264 21.0267C15.3999 21.0267 15.8655 21.0114 16.1945 20.9206L16.2035 20.9178H16.2052Z" fill="#26064F"/>
<path d="M14.284 21.9776C14.2791 21.8944 14.216 21.8265 14.1335 21.8157L13.4596 21.7277C13.4492 21.7263 13.4388 21.7242 13.4291 21.7207C12.8512 21.5211 10.3479 18.8424 9.68234 18.1223C9.60191 18.0353 9.46013 18.053 9.40327 18.1567L7.84882 20.9903C7.81034 21.0607 7.8249 21.1484 7.88453 21.2021L13.1234 25.9494C13.1552 25.9782 13.1968 25.9941 13.2398 25.9941H14.335C14.4348 25.9941 14.5138 25.9102 14.5079 25.8107L14.2843 21.9769L14.284 21.9776Z" fill="#26064F"/>
<path d="M23.6609 10.2156C23.6522 9.4952 23.7545 7.74661 22.7981 7.12955C22.4067 6.98013 21.9803 7.08483 21.7976 7.14411C21.7421 7.16213 21.7026 7.21136 21.6964 7.26925L21.618 8.01112C21.618 8.01112 21.4825 5.96267 20.8176 4.00539C19.4073 0.43368 15.5375 0.0416 14.9884 0.00381333V0C14.9884 0 14.9769 0.000346667 14.9554 0.00173333C14.9343 0.000346667 14.9225 0 14.9225 0V0.00381333C14.3737 0.0416 10.5035 0.43368 9.09329 4.00573C8.42873 5.96301 8.29283 8.01147 8.29283 8.01147L8.21449 7.2696C8.20825 7.21136 8.16873 7.16248 8.11326 7.14445C7.93057 7.08517 7.50417 6.98048 7.11278 7.12989C6.15667 7.74696 6.25894 9.4952 6.24993 10.2156C6.24542 10.5823 6.29881 11.5381 6.42777 11.8026C6.64894 12.3639 7.07465 12.8631 7.26427 12.8936C7.45043 12.9237 7.7451 12.9366 7.91393 12.8593C8.03387 12.7601 8.13198 12.6069 8.32646 12.2297H8.83502C8.83502 12.2297 9.29609 12.2245 10.1985 12.9969C11.1005 13.7693 11.8968 14.7482 12.3395 15.1417C12.761 15.6284 14.5557 15.6787 14.9218 15.6835V15.6842C14.9218 15.6842 14.9336 15.6842 14.9547 15.6842C14.9759 15.6842 14.9877 15.6842 14.9877 15.6842V15.6835C15.3541 15.6783 17.1484 15.6281 17.57 15.1417C18.0127 14.7482 18.809 13.7693 19.711 12.9969C20.613 12.2245 21.0744 12.2297 21.0744 12.2297H21.583C21.7775 12.6069 21.8756 12.7601 21.9955 12.8593C22.1644 12.9362 22.459 12.9237 22.6452 12.8936C22.8348 12.8627 23.2605 12.3639 23.4817 11.8026C23.6106 11.5381 23.664 10.5823 23.6595 10.2156H23.6609ZM14.9554 9.06395C14.5734 9.05389 10.9057 8.94192 9.50027 8.35952C9.50027 8.35952 9.9343 6.42408 10.4768 5.61045C10.4768 5.61045 10.8384 5.19445 12.1953 5.06792C12.7558 5.04989 13.0987 5.928 13.7327 6.4064C14.1501 6.72152 14.7294 6.88827 14.9225 6.93749V6.95344C14.9225 6.95344 14.9343 6.95101 14.9554 6.94581C14.9766 6.95101 14.9884 6.95344 14.9884 6.95344V6.93749C15.1814 6.88827 15.7607 6.72117 16.1781 6.4064C16.8122 5.928 17.1547 5.04989 17.7156 5.06792C19.0721 5.19445 19.434 5.61045 19.434 5.61045C19.9765 6.42443 20.4106 8.35952 20.4106 8.35952C19.0055 8.94227 15.3374 9.05389 14.9554 9.06395Z" fill="#26064F"/>
<path d="M20.5087 18.157C20.4519 18.0534 20.3101 18.0357 20.2297 18.1227C19.5641 18.8427 17.0608 21.5214 16.4829 21.7211C16.4728 21.7246 16.4628 21.7266 16.4524 21.728L15.7785 21.8161C15.696 21.8268 15.6325 21.8948 15.628 21.978L15.4044 25.8118C15.3985 25.9113 15.4779 25.9951 15.5774 25.9951H16.6725C16.7155 25.9951 16.7571 25.9792 16.789 25.9504L22.0278 21.2032C22.0871 21.1494 22.102 21.0617 22.0635 20.9914L20.5091 18.1577L20.5087 18.157Z" fill="#26064F"/>
</g>
</svg>
