<svg width="19" height="22" viewBox="0 0 19 22" fill="none" xmlns="http://www.w3.org/2000/svg">
<g clip-path="url(#clip0_3424_5039)">
<path d="M15.4639 19.6217V14.2705H17.8434V21.9998H0V14.2705H2.37949V19.6217H15.4639Z" fill="url(#paint0_linear_3424_5039)"/>
<path d="M13.6799 15.4595L14.1556 13.6754L4.5793 11.7142L4.16309 13.6754L13.6799 15.4595ZM5.4723 9.03804L14.3934 13.2002L15.2259 11.4161L6.30473 7.25505L5.4723 9.03804ZM7.9696 4.6383L15.4637 10.9409L16.7135 9.45492L9.1599 3.15229L7.91014 4.6383H7.9696ZM12.788 0.000976562L11.1815 1.19001L17.0702 9.09744L18.6756 7.90841L12.788 0.000976562ZM4.16309 17.8375H13.6799V16.0545H4.16309V17.8375Z" fill="url(#paint1_linear_3424_5039)"/>
</g>
<defs>
<linearGradient id="paint0_linear_3424_5039" x1="-25.322" y1="-27.4237" x2="-4.17321" y2="-39.3595" gradientUnits="userSpaceOnUse">
<stop stop-color="#AB71D1"/>
<stop offset="0.21" stop-color="#927FEB"/>
<stop offset="0.29" stop-color="#848BF6"/>
<stop offset="0.38" stop-color="#7C8EF8"/>
<stop offset="0.47" stop-color="#709AF5"/>
<stop offset="0.58" stop-color="#78B3E3"/>
<stop offset="0.73" stop-color="#86C8CA"/>
</linearGradient>
<linearGradient id="paint1_linear_3424_5039" x1="-16.432" y1="-96.2156" x2="5.38448" y2="-100.555" gradientUnits="userSpaceOnUse">
<stop stop-color="#AB71D1"/>
<stop offset="0.21" stop-color="#927FEB"/>
<stop offset="0.29" stop-color="#848BF6"/>
<stop offset="0.38" stop-color="#7C8EF8"/>
<stop offset="0.47" stop-color="#709AF5"/>
<stop offset="0.58" stop-color="#78B3E3"/>
<stop offset="0.73" stop-color="#86C8CA"/>
</linearGradient>
<clipPath id="clip0_3424_5039">
<rect width="18.6758" height="22" fill="white"/>
</clipPath>
</defs>
</svg>
