<svg width="24" height="24" viewBox="0 0 24 24" fill="none" xmlns="http://www.w3.org/2000/svg">
<g clip-path="url(#clip0_3084_5073)">
<path d="M6.3998 11.9998L11.1998 15.9998L17.5998 7.9998M11.9998 23.1998C10.529 23.1998 9.0726 22.9101 7.71375 22.3473C6.3549 21.7844 5.12022 20.9594 4.08021 19.9194C3.04019 18.8794 2.21521 17.6447 1.65235 16.2859C1.0895 14.927 0.799805 13.4706 0.799805 11.9998C0.799805 10.529 1.0895 9.0726 1.65235 7.71375C2.21521 6.3549 3.04019 5.12022 4.08021 4.08021C5.12022 3.04019 6.3549 2.21521 7.71375 1.65235C9.0726 1.0895 10.529 0.799805 11.9998 0.799805C14.9702 0.799805 17.819 1.9798 19.9194 4.08021C22.0198 6.18062 23.1998 9.02938 23.1998 11.9998C23.1998 14.9702 22.0198 17.819 19.9194 19.9194C17.819 22.0198 14.9702 23.1998 11.9998 23.1998Z" stroke="white" stroke-width="1.5"/>
</g>
<defs>
<clipPath id="clip0_3084_5073">
<rect width="24" height="24" fill="white"/>
</clipPath>
</defs>
</svg>
