<svg width="18" height="18" viewBox="0 0 18 18" fill="none" xmlns="http://www.w3.org/2000/svg">
<g clip-path="url(#clip0_3404_5178)">
<path d="M15.9649 8.53285L13.4793 11.0184C13.0528 11.445 12.5463 11.7834 11.989 12.0143C11.4316 12.2452 10.8342 12.364 10.2309 12.364C9.6276 12.364 9.03021 12.2452 8.47284 12.0143C7.91547 11.7834 7.40904 11.445 6.98246 11.0184C6.8773 10.9309 6.79153 10.8224 6.73065 10.6998C6.66977 10.5773 6.6351 10.4434 6.62886 10.3067C6.62263 10.17 6.64495 10.0335 6.69442 9.90596C6.74388 9.77838 6.8194 9.66252 6.91616 9.56577C7.01291 9.46901 7.12877 9.39349 7.25635 9.34403C7.38392 9.29456 7.52041 9.27223 7.6571 9.27847C7.79379 9.28471 7.92767 9.31938 8.05021 9.38026C8.17275 9.44114 8.28125 9.5269 8.36879 9.63207C8.86333 10.1215 9.53101 10.396 10.2268 10.396C10.9226 10.396 11.5903 10.1215 12.0848 9.63207L14.5703 7.14652C15.0631 6.65375 15.34 5.9854 15.34 5.28852C15.34 4.59163 15.0631 3.92328 14.5703 3.43051C14.0776 2.93773 13.4092 2.6609 12.7123 2.6609C12.0155 2.6609 11.3471 2.93773 10.8543 3.43051L10.0668 4.22621C9.88191 4.41114 9.63109 4.51503 9.36957 4.51503C9.10804 4.51503 8.85723 4.41114 8.6723 4.22621C8.48738 4.04128 8.38349 3.79047 8.38349 3.52894C8.38349 3.26742 8.48738 3.01661 8.6723 2.83168L9.46801 2.03598C10.3295 1.17444 11.498 0.69043 12.7164 0.69043C13.9348 0.69043 15.1033 1.17444 15.9649 2.03598C16.8264 2.89752 17.3104 4.06601 17.3104 5.28441C17.3104 6.50281 16.8264 7.67131 15.9649 8.53285ZM7.93402 13.7746L7.14652 14.5703C6.65375 15.0631 5.9854 15.34 5.28852 15.34C4.59163 15.34 3.92328 15.0631 3.43051 14.5703C2.93773 14.0776 2.6609 13.4092 2.6609 12.7123C2.6609 12.0155 2.93773 11.3471 3.43051 10.8543L5.91605 8.36879C6.4106 7.87937 7.07828 7.60484 7.77406 7.60484C8.46984 7.60484 9.13752 7.87937 9.63207 8.36879C9.82079 8.52588 10.0614 8.60676 10.3067 8.59557C10.552 8.58437 10.7843 8.4819 10.9579 8.30827C11.1315 8.13464 11.234 7.90239 11.2452 7.6571C11.2564 7.41181 11.1755 7.17118 11.0184 6.98246C10.5924 6.55486 10.0861 6.21558 9.52867 5.98408C8.97123 5.75258 8.37356 5.63341 7.76996 5.63341C7.16636 5.63341 6.56869 5.75258 6.01125 5.98408C5.4538 6.21558 4.94755 6.55486 4.52152 6.98246L2.03598 9.46801C1.17444 10.3295 0.69043 11.498 0.69043 12.7164C0.69043 13.9348 1.17444 15.1033 2.03598 15.9649C2.89752 16.8264 4.06601 17.3104 5.28441 17.3104C6.50281 17.3104 7.67131 16.8264 8.53285 15.9649L9.32855 15.1692C9.51348 14.9843 9.61737 14.7334 9.61737 14.4719C9.61737 14.2104 9.51348 13.9596 9.32855 13.7746C9.14363 13.5897 8.89281 13.4858 8.63129 13.4858C8.36976 13.4858 8.11895 13.5897 7.93402 13.7746Z" fill="url(#paint0_linear_3404_5178)"/>
</g>
<defs>
<linearGradient id="paint0_linear_3404_5178" x1="-22.8954" y1="-88.9636" x2="1.61296" y2="-94.9552" gradientUnits="userSpaceOnUse">
<stop stop-color="#AB71D1"/>
<stop offset="0.21" stop-color="#927FEB"/>
<stop offset="0.29" stop-color="#848BF6"/>
<stop offset="0.38" stop-color="#7C8EF8"/>
<stop offset="0.47" stop-color="#709AF5"/>
<stop offset="0.58" stop-color="#78B3E3"/>
<stop offset="0.73" stop-color="#86C8CA"/>
</linearGradient>
<clipPath id="clip0_3404_5178">
<rect width="18" height="18" fill="white"/>
</clipPath>
</defs>
</svg>
