<svg width="129" height="20" viewBox="0 0 129 20" fill="none" xmlns="http://www.w3.org/2000/svg">
<path d="M7.05078 3.21289L3.18359 15H0.0683594L5.35156 0.78125H7.33398L7.05078 3.21289ZM10.2637 15L6.38672 3.21289L6.07422 0.78125H8.07617L13.3887 15H10.2637ZM10.0879 9.70703V12.002H2.57812V9.70703H10.0879ZM17.6387 12.9492L19.9825 4.43359H22.9219L19.3575 15H17.5801L17.6387 12.9492ZM16.0274 4.43359L18.3809 12.959L18.4297 15H16.6426L13.0782 4.43359H16.0274ZM29.7306 12.6172V7.91016C29.7306 7.57161 29.6752 7.2819 29.5645 7.04102C29.4539 6.79362 29.2813 6.60156 29.047 6.46484C28.8191 6.32812 28.5229 6.25977 28.1583 6.25977C27.8458 6.25977 27.5756 6.3151 27.3477 6.42578C27.1199 6.52995 26.9441 6.68294 26.8204 6.88477C26.6967 7.08008 26.6349 7.3112 26.6349 7.57812H23.8224C23.8224 7.12891 23.9265 6.70247 24.1349 6.29883C24.3432 5.89518 24.6459 5.54036 25.0431 5.23438C25.4402 4.92188 25.9122 4.67773 26.4591 4.50195C27.0125 4.32617 27.631 4.23828 28.3145 4.23828C29.1349 4.23828 29.864 4.375 30.502 4.64844C31.1401 4.92188 31.6414 5.33203 32.006 5.87891C32.377 6.42578 32.5626 7.10938 32.5626 7.92969V12.4512C32.5626 13.0306 32.5984 13.5059 32.67 13.877C32.7416 14.2415 32.8458 14.5605 32.9825 14.834V15H30.1407C30.004 14.7135 29.8998 14.3555 29.8282 13.9258C29.7631 13.4896 29.7306 13.0534 29.7306 12.6172ZM30.1017 8.56445L30.1212 10.1562H28.5489C28.1778 10.1562 27.8556 10.1986 27.5821 10.2832C27.3087 10.3678 27.0841 10.4883 26.9083 10.6445C26.7325 10.7943 26.6023 10.9701 26.5177 11.1719C26.4395 11.3737 26.4005 11.5951 26.4005 11.8359C26.4005 12.0768 26.4558 12.2949 26.5665 12.4902C26.6772 12.679 26.8367 12.8288 27.045 12.9395C27.2533 13.0436 27.4975 13.0957 27.7774 13.0957C28.2006 13.0957 28.5685 13.0111 28.881 12.8418C29.1935 12.6725 29.4343 12.4642 29.6036 12.2168C29.7794 11.9694 29.8705 11.735 29.877 11.5137L30.6192 12.7051C30.5151 12.972 30.3718 13.2487 30.1895 13.5352C30.0138 13.8216 29.7892 14.0918 29.5157 14.3457C29.2423 14.5931 28.9135 14.7982 28.5294 14.9609C28.1453 15.1172 27.6895 15.1953 27.1622 15.1953C26.4916 15.1953 25.8829 15.0618 25.336 14.7949C24.7957 14.5215 24.366 14.1471 24.047 13.6719C23.7345 13.1901 23.5782 12.6432 23.5782 12.0312C23.5782 11.4779 23.6824 10.9863 23.8907 10.5566C24.0991 10.127 24.405 9.76562 24.8087 9.47266C25.2188 9.17318 25.7299 8.94857 26.3419 8.79883C26.9539 8.64258 27.6635 8.56445 28.4708 8.56445H30.1017ZM37.4865 6.68945V15H34.674V4.43359H37.3107L37.4865 6.68945ZM37.0763 9.3457H36.3146C36.3146 8.56445 36.4155 7.86133 36.6173 7.23633C36.8192 6.60482 37.1024 6.06771 37.4669 5.625C37.8315 5.17578 38.2645 4.83398 38.7658 4.59961C39.2736 4.35872 39.84 4.23828 40.465 4.23828C40.9598 4.23828 41.4123 4.3099 41.8224 4.45312C42.2326 4.59635 42.5841 4.82422 42.8771 5.13672C43.1766 5.44922 43.4044 5.86263 43.5607 6.37695C43.7234 6.89128 43.8048 7.51953 43.8048 8.26172V15H40.9728V8.25195C40.9728 7.7832 40.9077 7.41862 40.7775 7.1582C40.6473 6.89779 40.4552 6.71549 40.2013 6.61133C39.9539 6.50065 39.6479 6.44531 39.2833 6.44531C38.9057 6.44531 38.577 6.52018 38.297 6.66992C38.0236 6.81966 37.7957 7.02799 37.6134 7.29492C37.4376 7.55534 37.3042 7.86133 37.213 8.21289C37.1219 8.56445 37.0763 8.94206 37.0763 9.3457ZM52.635 4.43359H55.1838V14.6484C55.1838 15.612 54.9689 16.429 54.5392 17.0996C54.1161 17.7767 53.5236 18.2878 52.7619 18.6328C52.0002 18.9844 51.1148 19.1602 50.1057 19.1602C49.6629 19.1602 49.1942 19.1016 48.6994 18.9844C48.2111 18.8672 47.7424 18.6849 47.2932 18.4375C46.8504 18.1901 46.4794 17.8776 46.1799 17.5L47.4201 15.8398C47.7456 16.2174 48.1232 16.5104 48.5529 16.7188C48.9826 16.9336 49.4579 17.041 49.9787 17.041C50.4865 17.041 50.9162 16.9466 51.2678 16.7578C51.6193 16.5755 51.8895 16.3053 52.0783 15.9473C52.2671 15.5957 52.3615 15.1693 52.3615 14.668V6.875L52.635 4.43359ZM45.5256 9.84375V9.63867C45.5256 8.83138 45.6232 8.09896 45.8185 7.44141C46.0204 6.77734 46.3036 6.20768 46.6682 5.73242C47.0392 5.25716 47.4885 4.88932 48.0158 4.62891C48.5432 4.36849 49.1389 4.23828 49.8029 4.23828C50.506 4.23828 51.0952 4.36849 51.5705 4.62891C52.0458 4.88932 52.4364 5.26042 52.7424 5.74219C53.0484 6.21745 53.286 6.7806 53.4553 7.43164C53.631 8.07617 53.7678 8.78255 53.8654 9.55078V10C53.7678 10.7357 53.6213 11.4193 53.426 12.0508C53.2307 12.6823 52.9735 13.2357 52.6545 13.7109C52.3355 14.1797 51.9383 14.5443 51.4631 14.8047C50.9943 15.0651 50.4344 15.1953 49.7834 15.1953C49.1323 15.1953 48.5432 15.0618 48.0158 14.7949C47.495 14.528 47.049 14.1536 46.6779 13.6719C46.3068 13.1901 46.0204 12.6237 45.8185 11.9727C45.6232 11.3216 45.5256 10.612 45.5256 9.84375ZM48.3381 9.63867V9.84375C48.3381 10.2799 48.3804 10.6868 48.465 11.0645C48.5497 11.4421 48.6799 11.7773 48.8557 12.0703C49.0379 12.3568 49.2626 12.5814 49.5295 12.7441C49.8029 12.9004 50.1252 12.9785 50.4963 12.9785C51.0106 12.9785 51.4305 12.8711 51.756 12.6562C52.0816 12.4349 52.3257 12.1322 52.4885 11.748C52.6512 11.3639 52.7456 10.9212 52.7717 10.4199V9.14062C52.7587 8.73047 52.7033 8.36263 52.6057 8.03711C52.508 7.70508 52.3713 7.42188 52.1955 7.1875C52.0197 6.95312 51.7919 6.77083 51.5119 6.64062C51.232 6.51042 50.8999 6.44531 50.5158 6.44531C50.1447 6.44531 49.8225 6.52995 49.549 6.69922C49.2821 6.86198 49.0575 7.08659 48.8752 7.37305C48.6994 7.65951 48.5659 7.99805 48.4748 8.38867C48.3837 8.77279 48.3381 9.18945 48.3381 9.63867ZM62.2366 15.1953C61.4162 15.1953 60.6806 15.0651 60.0295 14.8047C59.3785 14.5378 58.8251 14.1699 58.3694 13.7012C57.9202 13.2324 57.5751 12.6888 57.3342 12.0703C57.0933 11.4453 56.9729 10.7812 56.9729 10.0781V9.6875C56.9729 8.88672 57.0868 8.1543 57.3147 7.49023C57.5426 6.82617 57.8681 6.25 58.2912 5.76172C58.7209 5.27344 59.2418 4.89909 59.8537 4.63867C60.4657 4.37174 61.1558 4.23828 61.9241 4.23828C62.6728 4.23828 63.3368 4.36198 63.9162 4.60938C64.4957 4.85677 64.9807 5.20833 65.3713 5.66406C65.7685 6.11979 66.0679 6.66667 66.2698 7.30469C66.4716 7.9362 66.5725 8.63932 66.5725 9.41406V10.5859H58.1741V8.71094H63.8088V8.49609C63.8088 8.10547 63.7372 7.75716 63.594 7.45117C63.4573 7.13867 63.2489 6.89128 62.969 6.70898C62.689 6.52669 62.331 6.43555 61.8948 6.43555C61.5237 6.43555 61.2047 6.51693 60.9377 6.67969C60.6708 6.84245 60.4527 7.07031 60.2834 7.36328C60.1207 7.65625 59.997 8.0013 59.9123 8.39844C59.8342 8.78906 59.7952 9.21875 59.7952 9.6875V10.0781C59.7952 10.5013 59.8537 10.8919 59.9709 11.25C60.0946 11.6081 60.2672 11.9173 60.4885 12.1777C60.7164 12.4382 60.9898 12.64 61.3088 12.7832C61.6343 12.9264 62.0022 12.998 62.4123 12.998C62.9202 12.998 63.3922 12.9004 63.8284 12.7051C64.2711 12.5033 64.6519 12.2005 64.9709 11.7969L66.3381 13.2812C66.1168 13.6003 65.814 13.9062 65.4299 14.1992C65.0523 14.4922 64.5966 14.7331 64.0627 14.9219C63.5289 15.1042 62.9202 15.1953 62.2366 15.1953ZM70.9886 6.73828V15H68.1761V4.43359H70.8225L70.9886 6.73828ZM74.1722 4.36523L74.1233 6.97266C73.9866 6.95312 73.8206 6.93685 73.6253 6.92383C73.4365 6.9043 73.264 6.89453 73.1077 6.89453C72.7106 6.89453 72.3655 6.94661 72.0725 7.05078C71.7861 7.14844 71.5452 7.29492 71.3499 7.49023C71.1611 7.68555 71.0179 7.92318 70.9202 8.20312C70.8291 8.48307 70.777 8.80208 70.764 9.16016L70.1975 8.98438C70.1975 8.30078 70.2659 7.67253 70.4026 7.09961C70.5393 6.52018 70.7379 6.01562 70.9983 5.58594C71.2653 5.15625 71.5908 4.82422 71.9749 4.58984C72.359 4.35547 72.7985 4.23828 73.2933 4.23828C73.4495 4.23828 73.609 4.2513 73.7718 4.27734C73.9345 4.29688 74.068 4.32617 74.1722 4.36523ZM92.2328 0.78125V15H89.3031L83.5902 5.46875V15H80.6605V0.78125H83.5902L89.3129 10.3223V0.78125H92.2328ZM99.4711 15.1953C98.6508 15.1953 97.9151 15.0651 97.2641 14.8047C96.613 14.5378 96.0597 14.1699 95.6039 13.7012C95.1547 13.2324 94.8097 12.6888 94.5688 12.0703C94.3279 11.4453 94.2075 10.7812 94.2075 10.0781V9.6875C94.2075 8.88672 94.3214 8.1543 94.5492 7.49023C94.7771 6.82617 95.1026 6.25 95.5258 5.76172C95.9555 5.27344 96.4763 4.89909 97.0883 4.63867C97.7003 4.37174 98.3904 4.23828 99.1586 4.23828C99.9073 4.23828 100.571 4.36198 101.151 4.60938C101.73 4.85677 102.215 5.20833 102.606 5.66406C103.003 6.11979 103.303 6.66667 103.504 7.30469C103.706 7.9362 103.807 8.63932 103.807 9.41406V10.5859H95.4086V8.71094H101.043V8.49609C101.043 8.10547 100.972 7.75716 100.829 7.45117C100.692 7.13867 100.483 6.89128 100.204 6.70898C99.9236 6.52669 99.5655 6.43555 99.1293 6.43555C98.7582 6.43555 98.4392 6.51693 98.1723 6.67969C97.9054 6.84245 97.6873 7.07031 97.518 7.36328C97.3552 7.65625 97.2315 8.0013 97.1469 8.39844C97.0688 8.78906 97.0297 9.21875 97.0297 9.6875V10.0781C97.0297 10.5013 97.0883 10.8919 97.2055 11.25C97.3292 11.6081 97.5017 11.9173 97.7231 12.1777C97.9509 12.4382 98.2244 12.64 98.5434 12.7832C98.8689 12.9264 99.2367 12.998 99.6469 12.998C100.155 12.998 100.627 12.9004 101.063 12.7051C101.506 12.5033 101.886 12.2005 102.205 11.7969L103.573 13.2812C103.351 13.6003 103.049 13.9062 102.664 14.1992C102.287 14.4922 101.831 14.7331 101.297 14.9219C100.763 15.1042 100.155 15.1953 99.4711 15.1953ZM108.428 12.2656L110.625 4.43359H112.413L111.836 7.50977L109.639 15H108.145L108.428 12.2656ZM107.315 4.43359L108.887 12.2559L109.034 15H107.276L104.6 4.43359H107.315ZM114.424 12.1289L115.957 4.43359H118.682L116.006 15H114.258L114.424 12.1289ZM112.657 4.43359L114.844 12.207L115.147 15H113.643L111.446 7.51953L110.889 4.43359H112.657ZM125.813 12.0801C125.813 11.8783 125.754 11.696 125.637 11.5332C125.52 11.3704 125.302 11.2207 124.983 11.084C124.67 10.9408 124.218 10.8105 123.626 10.6934C123.092 10.5762 122.594 10.4297 122.131 10.2539C121.676 10.0716 121.279 9.85352 120.94 9.59961C120.608 9.3457 120.348 9.04622 120.159 8.70117C119.97 8.34961 119.876 7.94922 119.876 7.5C119.876 7.05729 119.97 6.64062 120.159 6.25C120.354 5.85938 120.631 5.51432 120.989 5.21484C121.353 4.90885 121.796 4.67122 122.317 4.50195C122.844 4.32617 123.437 4.23828 124.094 4.23828C125.012 4.23828 125.8 4.38477 126.458 4.67773C127.122 4.9707 127.629 5.37435 127.981 5.88867C128.339 6.39648 128.518 6.97591 128.518 7.62695H125.706C125.706 7.35352 125.647 7.10938 125.53 6.89453C125.419 6.67318 125.243 6.50065 125.002 6.37695C124.768 6.24674 124.462 6.18164 124.085 6.18164C123.772 6.18164 123.502 6.23698 123.274 6.34766C123.046 6.45182 122.87 6.59505 122.747 6.77734C122.629 6.95312 122.571 7.14844 122.571 7.36328C122.571 7.52604 122.603 7.67253 122.668 7.80273C122.74 7.92643 122.854 8.04036 123.01 8.14453C123.167 8.2487 123.368 8.34635 123.616 8.4375C123.87 8.52214 124.182 8.60026 124.553 8.67188C125.315 8.82812 125.995 9.0332 126.594 9.28711C127.193 9.53451 127.668 9.87305 128.02 10.3027C128.372 10.7259 128.547 11.2826 128.547 11.9727C128.547 12.4414 128.443 12.8711 128.235 13.2617C128.027 13.6523 127.727 13.9941 127.336 14.2871C126.946 14.5736 126.477 14.7982 125.93 14.9609C125.39 15.1172 124.781 15.1953 124.104 15.1953C123.121 15.1953 122.288 15.0195 121.604 14.668C120.927 14.3164 120.413 13.8704 120.061 13.3301C119.716 12.7832 119.543 12.2233 119.543 11.6504H122.21C122.223 12.0345 122.32 12.3438 122.502 12.5781C122.691 12.8125 122.929 12.9818 123.215 13.0859C123.508 13.1901 123.824 13.2422 124.163 13.2422C124.527 13.2422 124.83 13.1934 125.071 13.0957C125.312 12.9915 125.494 12.8548 125.618 12.6855C125.748 12.5098 125.813 12.3079 125.813 12.0801Z" fill="#0B2761"/>
</svg>
