<svg width="135" height="21" viewBox="0 0 135 21" fill="none" xmlns="http://www.w3.org/2000/svg">
<g clip-path="url(#clip0_6366_324)">
<path d="M54.2949 1.258C54.2949 1.05697 54.3748 0.864166 54.5169 0.722014C54.6591 0.579861 54.8519 0.500001 55.0529 0.500001H57.9669C58.0666 0.499869 58.1653 0.519371 58.2575 0.557393C58.3496 0.595415 58.4333 0.651212 58.5039 0.721599C58.5745 0.791986 58.6305 0.875584 58.6688 0.96762C58.707 1.05966 58.7268 1.15833 58.7269 1.258V3.633C58.7269 3.8343 58.8069 4.02735 58.9492 4.16969C59.0916 4.31203 59.2846 4.392 59.4859 4.392H61.7829C61.9838 4.39253 62.1763 4.47256 62.3183 4.6146C62.4604 4.75664 62.5404 4.94913 62.5409 5.15V15.85C62.5412 15.9496 62.5218 16.0483 62.4838 16.1404C62.4458 16.2325 62.3899 16.3161 62.3195 16.3866C62.2491 16.457 62.1654 16.5128 62.0733 16.5508C61.9812 16.5888 61.8825 16.6083 61.7829 16.608H59.4859C59.3862 16.608 59.2874 16.6277 59.1952 16.6659C59.1031 16.7041 59.0194 16.7601 58.9489 16.8307C58.8784 16.9012 58.8225 16.985 58.7844 17.0772C58.7463 17.1694 58.7268 17.2682 58.7269 17.368V19.741C58.7271 19.8408 58.7075 19.9396 58.6693 20.0318C58.6312 20.1241 58.5752 20.2078 58.5046 20.2783C58.434 20.3489 58.3501 20.4047 58.2578 20.4428C58.1656 20.4808 58.0667 20.5003 57.9669 20.5H55.0529C54.9533 20.5 54.8547 20.4804 54.7626 20.4422C54.6706 20.404 54.587 20.3481 54.5166 20.2776C54.4462 20.2071 54.3904 20.1235 54.3523 20.0314C54.3143 19.9393 54.2948 19.8406 54.2949 19.741V16.825C54.2948 16.7254 54.3143 16.6267 54.3523 16.5346C54.3904 16.4425 54.4462 16.3589 54.5166 16.2884C54.587 16.2179 54.6706 16.162 54.7626 16.1238C54.8547 16.0856 54.9533 16.066 55.0529 16.066H57.3529C57.5541 16.066 57.747 15.9862 57.8893 15.844C58.0316 15.7019 58.1117 15.5091 58.1119 15.308V5.69C58.1123 5.59017 58.093 5.49125 58.055 5.39892C58.017 5.3066 57.9611 5.22271 57.8906 5.15207C57.82 5.08143 57.7362 5.02545 57.6439 4.98733C57.5517 4.94922 57.4528 4.92974 57.3529 4.93H55.0529C54.9533 4.93013 54.8546 4.91058 54.7625 4.87247C54.6704 4.83437 54.5867 4.77845 54.5163 4.70793C54.4459 4.63741 54.3901 4.55368 54.3521 4.46154C54.3141 4.3694 54.2947 4.27066 54.2949 4.171V1.258ZM33.1479 1.258C33.1479 1.15837 33.1283 1.05973 33.0901 0.967695C33.052 0.875665 32.9961 0.79206 32.9256 0.72166C32.8551 0.65126 32.7714 0.595447 32.6793 0.557413C32.5872 0.519378 32.4886 0.499869 32.3889 0.500001H29.4709C29.2701 0.500529 29.0776 0.580559 28.9355 0.722597C28.7935 0.864635 28.7135 1.05713 28.7129 1.258V3.633C28.7129 3.8343 28.633 4.02735 28.4906 4.16969C28.3483 4.31203 28.1552 4.392 27.9539 4.392H25.6569C25.4561 4.39253 25.2636 4.47256 25.1215 4.6146C24.9795 4.75664 24.8995 4.94913 24.8989 5.15V15.85C24.8987 15.9496 24.9181 16.0483 24.9561 16.1404C24.9941 16.2325 25.0499 16.3161 25.1204 16.3866C25.1908 16.457 25.2745 16.5128 25.3665 16.5508C25.4586 16.5888 25.5573 16.6083 25.6569 16.608H27.9539C28.0537 16.608 28.1525 16.6277 28.2446 16.6659C28.3368 16.7041 28.4205 16.7601 28.491 16.8307C28.5615 16.9012 28.6174 16.985 28.6554 17.0772C28.6935 17.1694 28.7131 17.2682 28.7129 17.368V19.741C28.7132 19.942 28.7931 20.1348 28.9352 20.2771C29.0772 20.4193 29.2699 20.4995 29.4709 20.5H32.3889C32.4886 20.5001 32.5874 20.4806 32.6795 20.4425C32.7717 20.4044 32.8554 20.3485 32.9259 20.278C32.9964 20.2075 33.0523 20.1238 33.0904 20.0316C33.1285 19.9395 33.1481 19.8407 33.1479 19.741V16.825C33.1481 16.7253 33.1285 16.6265 33.0904 16.5344C33.0523 16.4422 32.9964 16.3585 32.9259 16.288C32.8554 16.2175 32.7717 16.1616 32.6795 16.1235C32.5874 16.0854 32.4886 16.0659 32.3889 16.066H30.0909C29.8898 16.066 29.6969 15.9862 29.5546 15.844C29.4123 15.7019 29.3322 15.5091 29.3319 15.308V5.69C29.3318 5.59024 29.3513 5.49144 29.3894 5.39924C29.4275 5.30704 29.4834 5.22325 29.5539 5.15266C29.6244 5.08207 29.7081 5.02608 29.8002 4.98787C29.8924 4.94967 29.9912 4.93 30.0909 4.93H32.3889C32.4887 4.93026 32.5875 4.91081 32.6797 4.87276C32.7719 4.83471 32.8557 4.77882 32.9262 4.70828C32.9967 4.63775 33.0526 4.55397 33.0907 4.46177C33.1287 4.36956 33.1482 4.27075 33.1479 4.171V1.258ZM41.0199 5.747C41.0202 5.5792 41.087 5.41835 41.2056 5.29969C41.3243 5.18104 41.4851 5.11426 41.6529 5.114H48.0569C48.18 5.11461 48.3002 5.15106 48.4028 5.2189C48.5055 5.28675 48.5861 5.38304 48.6349 5.496L49.6729 7.894C49.7212 8.00738 49.8018 8.10409 49.9045 8.17217C50.0072 8.24025 50.1277 8.2767 50.2509 8.277H52.3979C52.481 8.27674 52.5632 8.29286 52.64 8.32446C52.7168 8.35605 52.7866 8.40249 52.8454 8.46111C52.9042 8.51973 52.9509 8.58938 52.9827 8.66607C53.0145 8.74275 53.0309 8.82497 53.0309 8.908V15.987C53.0309 16.1549 52.9642 16.3159 52.8455 16.4346C52.7268 16.5533 52.5658 16.62 52.3979 16.62H49.6809C49.513 16.62 49.352 16.5533 49.2333 16.4346C49.1146 16.3159 49.0479 16.1549 49.0479 15.987V9.414C49.0479 9.24646 48.9815 9.08576 48.8632 8.96711C48.745 8.84845 48.5845 8.78153 48.4169 8.781H45.6339C45.4664 8.78153 45.3059 8.84845 45.1876 8.96711C45.0693 9.08576 45.0029 9.24646 45.0029 9.414V15.987C45.0029 16.1549 44.9362 16.3159 44.8175 16.4346C44.6988 16.5533 44.5378 16.62 44.3699 16.62H41.6529C41.5698 16.62 41.4875 16.6036 41.4107 16.5718C41.3339 16.54 41.2641 16.4934 41.2053 16.4346C41.1466 16.3758 41.0999 16.306 41.0681 16.2292C41.0363 16.1524 41.0199 16.0701 41.0199 15.987V5.747Z" fill="#1760FA"/>
<path d="M34.5718 5.74701C34.5723 5.57929 34.6392 5.41859 34.7578 5.3C34.8764 5.1814 35.0371 5.11454 35.2048 5.11401H37.9228C38.0904 5.11454 38.251 5.18143 38.3694 5.30006C38.4879 5.41868 38.5545 5.57939 38.5548 5.74701V15.987C38.5548 16.1547 38.4882 16.3156 38.3697 16.4343C38.2512 16.5529 38.0905 16.6197 37.9228 16.62H35.2048C35.0369 16.62 34.8759 16.5533 34.7572 16.4346C34.6385 16.3159 34.5718 16.1549 34.5718 15.987V5.74701Z" fill="#1760FA"/>
<path d="M8.02 10.546V10.613C8.56 10.8 9.031 11.14 9.379 11.593C9.7434 12.0836 9.9306 12.6832 9.91 13.294C9.92151 13.7429 9.83537 14.1889 9.65752 14.6012C9.47968 15.0135 9.21439 15.3823 8.88 15.682C8.20122 16.3016 7.30877 16.6343 6.39 16.61H0V5.09998H6.183C7.157 5.09998 7.97 5.38098 8.622 5.94298C8.94071 6.21158 9.19445 6.54887 9.36418 6.92955C9.53391 7.31022 9.61522 7.72439 9.602 8.14098C9.60473 8.65516 9.45359 9.1584 9.168 9.58598C8.88346 10.0074 8.48494 10.3401 8.02 10.546ZM5.617 7.62598H2.834V9.67098H5.617C5.76047 9.67718 5.90362 9.65273 6.0369 9.59928C6.17019 9.54583 6.29056 9.46459 6.39 9.36098C6.584 9.17098 6.695 8.91098 6.699 8.63898C6.699 8.37498 6.595 8.12198 6.41 7.93398C6.30695 7.82978 6.18302 7.74855 6.04635 7.69564C5.90967 7.64273 5.76336 7.61833 5.617 7.62598ZM2.834 14.102H5.857C6.01092 14.1062 6.164 14.0778 6.30618 14.0187C6.44837 13.9596 6.57644 13.8711 6.682 13.759C6.888 13.554 7.006 13.276 7.008 12.985C7.00715 12.8538 6.97752 12.7243 6.92119 12.6058C6.86486 12.4872 6.78321 12.3825 6.682 12.299C6.45878 12.0907 6.16216 11.9792 5.857 11.989H2.834V14.102ZM20.225 16.61H11.255V5.09998H20.225V7.84498H14.088V9.49598H19.358V12.074H14.088V13.861H20.225V16.609V16.61ZM75.491 11.803H78.392C78.2753 13.2013 77.6211 14.4999 76.567 15.426C75.502 16.376 74.154 16.851 72.522 16.851C70.738 16.851 69.296 16.279 68.197 15.135C67.098 13.99 66.548 12.571 66.547 10.875C66.547 9.17298 67.097 7.74298 68.196 6.58498C69.295 5.42698 70.736 4.84398 72.522 4.83398C74.114 4.83398 75.442 5.30298 76.505 6.24098C77.5509 7.13343 78.2139 8.39358 78.357 9.76098H75.423C75.272 9.13778 74.9107 8.58573 74.4 8.19798C73.8519 7.78897 73.178 7.5845 72.495 7.61998C71.545 7.63098 70.795 7.94598 70.245 8.56498C69.7016 9.19878 69.4142 10.0125 69.439 10.847C69.4171 11.6896 69.711 12.51 70.263 13.147C70.806 13.761 71.559 14.069 72.523 14.069C73.2187 14.0912 73.9017 13.8796 74.463 13.468C74.9916 13.0515 75.3558 12.4613 75.491 11.802V11.803ZM82.161 16.592H79.328V5.09198H85.268C86.504 5.09198 87.488 5.37198 88.22 5.93198C88.952 6.49198 89.324 7.28198 89.335 8.30198C89.335 9.38898 88.958 10.202 88.203 10.74V10.808C89.187 11.048 89.679 11.786 89.679 13.021V16.592H86.846V13.52C86.846 13.096 86.629 12.885 86.195 12.886H82.16V16.593L82.161 16.592ZM82.161 7.83898V10.379H85.028C85.416 10.399 85.798 10.277 86.102 10.035C86.2403 9.91747 86.3495 9.76959 86.4211 9.60288C86.4928 9.43618 86.5249 9.25516 86.515 9.07398C86.5237 8.9005 86.4908 8.72746 86.4189 8.56931C86.3471 8.41117 86.2384 8.27253 86.102 8.16498C85.7958 7.93706 85.4203 7.8219 85.039 7.83898H82.161ZM97.645 5.09298H100.787L96.289 12.404V16.594H93.457V12.42L88.943 5.09198H92.153L94.897 9.72498L97.645 5.09298ZM107.371 5.09298C107.907 5.07949 108.439 5.17591 108.936 5.37628C109.433 5.57665 109.884 5.87672 110.26 6.25798C111.039 7.02398 111.428 7.98798 111.427 9.14798C111.427 10.338 111.032 11.318 110.243 12.085C109.867 12.46 109.42 12.755 108.927 12.9523C108.434 13.1496 107.907 13.2451 107.376 13.233H104.263V16.598H101.432V5.09298H107.371ZM104.263 10.549H107.114C107.487 10.559 107.849 10.424 108.125 10.172C108.263 10.0436 108.371 9.8866 108.443 9.71198C108.514 9.53737 108.546 9.34933 108.537 9.16098C108.542 8.9809 108.505 8.80213 108.43 8.63846C108.355 8.47478 108.243 8.33058 108.103 8.21698C107.833 7.96711 107.476 7.83194 107.108 7.83998H104.263V10.55V10.549ZM111.713 5.09298H121.997V7.83698H118.271V16.591H115.439V7.83898H111.713V5.09298ZM132.34 15.134C131.219 16.277 129.749 16.849 127.928 16.851C126.108 16.853 124.638 16.281 123.519 15.135C122.397 13.979 121.836 12.559 121.836 10.875C121.836 9.19198 122.397 7.76198 123.519 6.58498C124.639 5.41798 126.109 4.83398 127.928 4.83398C129.748 4.83398 131.218 5.41798 132.34 6.58398C133.461 7.75198 134.022 9.18198 134.022 10.876C134.022 12.569 133.461 13.988 132.34 15.134ZM127.928 14.07C128.902 14.07 129.68 13.755 130.263 13.125C130.842 12.5077 131.156 11.6881 131.138 10.842C131.149 10.4228 131.078 10.0055 130.928 9.61389C130.777 9.22233 130.552 8.8642 130.263 8.55998C129.691 7.92898 128.913 7.61398 127.928 7.61498C126.944 7.61498 126.16 7.93098 125.576 8.55998C125.003 9.17948 124.695 9.99848 124.718 10.842C124.699 11.6851 125.007 12.5029 125.576 13.125C126.16 13.755 126.944 14.07 127.928 14.07Z" fill="#0E1620"/>
</g>
<defs>
<clipPath id="clip0_6366_324">
<rect width="135" height="21" fill="white"/>
</clipPath>
</defs>
</svg>
