<?xml version="1.0" encoding="utf-8"?>
<!-- Generator: Adobe Illustrator 25.3.1, SVG Export Plug-In . SVG Version: 6.00 Build 0)  -->
<svg version="1.1" id="Слой_1" xmlns="http://www.w3.org/2000/svg" xmlns:xlink="http://www.w3.org/1999/xlink" x="0px" y="0px"
	 viewBox="0 0 1000 200" style="enable-background:new 0 0 1000 200;" xml:space="preserve">
<style type="text/css">
	.st0{fill:#FFFFFF;}
	.st1{fill:#F7A600;}
	.st2{fill:#996202;}
</style>
<g id="Слой_5__x28_копия3_x29_">
	<g>
		<path class="st0" d="M157.8,43.6h51.5c4.5,0,8.7,0.7,12.4,2.1c3.7,1.4,6.8,3.3,9.3,5.7c2.6,2.4,4.5,5.5,5.9,9
			c1.3,3.5,2,7.5,2,11.7s-0.6,7.8-1.7,10.8c-1.1,2.9-2.6,5.4-4.5,7.3c-1.9,1.9-4,3.4-6.4,4.3c-2.4,0.9-4.9,1.5-7.4,1.6V97
			c2.4,0,5.1,0.5,7.9,1.4c2.8,0.9,5.4,2.5,7.8,4.5s4.4,4.7,6,8c1.6,3.2,2.4,7.3,2.4,12c0,4.5-0.7,8.7-2.2,12.5
			c-1.4,3.9-3.4,7.3-6,10.1c-2.6,2.9-5.6,5.1-9.1,6.8c-3.5,1.6-7.3,2.5-11.5,2.5h-56.5V43.6H157.8z M178.9,90h26
			c3.8,0,6.8-1.1,8.9-3.1s3.2-5,3.2-8.7v-4.9c0-3.7-1.1-6.6-3.2-8.7c-2.1-2.1-5.1-3.1-8.9-3.1h-26L178.9,90L178.9,90z M178.9,137
			h29.3c4,0,7.2-1.1,9.4-3.1c2.2-2.1,3.4-5.1,3.4-9v-5.4c0-3.9-1.1-7-3.4-9.1c-2.2-2.1-5.4-3.2-9.4-3.2h-29.3
			C178.9,107.2,178.9,137,178.9,137z"/>
		<path class="st0" d="M252.9,154.9V138h14.7V60.5h-14.7V43.6h50.6v16.9h-14.8V138h14.8V155L252.9,154.9L252.9,154.9z"/>
		<path class="st0" d="M367.9,62.2v92.7h-21V62.2h-31.6V43.5h84.2v18.7H367.9z"/>
		<path class="st0" d="M436.2,154.9V43.6h73.4v18.7h-52.3v27h46.3v18.7h-46.3v28.4h52.3V155L436.2,154.9L436.2,154.9z"/>
		<path class="st0" d="M620.4,154.9h-24.6l-25.5-42.8h-0.5l-25.2,42.8h-22.9l36-57.1l-34.5-54.2h24.6l23.6,39.5h0.5l23.9-39.5h23
			L584,97.8L620.4,154.9z"/>
		<path class="st0" d="M632.4,154.9V43.6h50.1c5.1,0,9.7,0.8,13.8,2.5c4.1,1.7,7.6,4,10.5,7c2.9,3.1,5,6.7,6.5,11
			c1.5,4.2,2.2,8.9,2.2,14c0,5.2-0.7,9.9-2.2,14.1c-1.5,4.2-3.7,7.8-6.5,10.8c-2.9,3.1-6.4,5.4-10.5,7c-4.1,1.7-8.7,2.5-13.8,2.5
			h-29V155h-21.1V154.9z M653.4,94.3h27.1c4,0,7.2-1.1,9.6-3.3c2.4-2.2,3.5-5.3,3.5-9.3v-7.3c0-4-1.2-7.1-3.5-9.3
			c-2.4-2.1-5.5-3.2-9.6-3.2h-27.1V94.3z"/>
		<path class="st0" d="M727.1,154.9V43.6h73.4v18.7h-52.3v27h46.3v18.7h-46.3v28.4h52.3V155L727.1,154.9L727.1,154.9z"/>
		<path class="st0" d="M834.9,154.9h-21V43.6h50.2c5.1,0,9.6,0.8,13.7,2.4c4,1.6,7.5,3.9,10.3,6.9c2.8,3.1,5,6.7,6.5,11
			c1.6,4.2,2.3,9,2.3,14.2c0,7.7-1.7,14.3-5.2,19.8c-3.5,5.5-8.7,9.5-15.6,11.8L899,155h-23.5l-20.7-42.9h-19.9L834.9,154.9
			L834.9,154.9z M862,94.3c4,0,7.2-1.1,9.6-3.3c2.4-2.2,3.5-5.3,3.5-9.3v-7.3c0-4-1.2-7.1-3.5-9.3c-2.4-2.1-5.5-3.2-9.6-3.2h-27.1
			v32.4L862,94.3L862,94.3z"/>
		<path class="st0" d="M960.7,62.2v92.7h-21V62.2h-31.6V43.5h84.2v18.7H960.7z"/>
	</g>
</g>
<g id="Слой_4__x28_копия_x29_">
	<rect x="40.9" y="107.7" class="st1" width="67.4" height="21.2"/>
	<rect x="74.1" y="94.4" class="st2" width="21.2" height="46.9"/>
	<polygon class="st1" points="135.2,90.3 40.9,90.3 40.9,69.2 114,69.2 114,50.4 95.2,50.4 95.2,54 74.1,54 74.1,29.2 135.2,29.2 	
		"/>
	
		<rect x="7.9" y="69.1" transform="matrix(5.788513e-03 -1 1 5.788513e-03 -61.415 97.8788)" class="st1" width="21.2" height="21.5"/>
	<rect x="61.1" y="69.2" class="st2" width="46.9" height="21.2"/>
	<rect x="74.1" y="53.4" class="st1" width="21.2" height="41"/>
	<polygon class="st1" points="135.2,168.8 74.1,168.8 74.1,141.3 95.2,141.3 95.2,147.6 114,147.6 114,128.8 107.7,128.8 
		107.7,107.7 135.2,107.7 	"/>
	<rect x="40.9" y="107.7" class="st1" width="67" height="21.2"/>
</g>
</svg>
