<?xml version="1.0" encoding="utf-8"?>
<!-- Generator: Adobe Illustrator 26.4.1, SVG Export Plug-In . SVG Version: 6.00 Build 0)  -->
<svg version="1.1" id="Layer_1" xmlns="http://www.w3.org/2000/svg" xmlns:xlink="http://www.w3.org/1999/xlink" x="0px" y="0px"
	 viewBox="0 0 165.9 40" style="enable-background:new 0 0 165.9 40;" xml:space="preserve">
<style type="text/css">
	.st0{fill:#111111;}
	.st1{fill-rule:evenodd;clip-rule:evenodd;fill:#111111;}
</style>
<path class="st0" d="M57.8,16.1c-0.7-0.7-1.3-1.2-2.1-1.5C55,14.2,54.1,14,53.2,14c-1,0-1.8,0.2-2.5,0.5s-1.3,0.8-1.8,1.4
	c-0.5,0.6-0.8,1.3-1.1,2.1c-0.2,0.8-0.4,1.6-0.4,2.5s0.1,1.7,0.4,2.4s0.7,1.4,1.2,2s1.1,1,1.9,1.3c0.7,0.3,1.5,0.5,2.5,0.5
	s1.8-0.2,2.5-0.5c0.7-0.4,1.4-0.9,2-1.5l2.5,2.5c-0.9,1-2,1.7-3.2,2.2c-1.2,0.4-2.5,0.7-3.9,0.7s-2.7-0.2-3.9-0.7s-2.2-1.1-3.1-2
	c-0.9-0.8-1.5-1.9-2-3c-0.5-1.2-0.7-2.5-0.7-3.9s0.2-2.7,0.7-3.9s1.1-2.2,2-3.1c0.8-0.9,1.9-1.5,3-2c1.2-0.5,2.5-0.7,4-0.7
	c1.4,0,2.6,0.2,3.9,0.7c1.2,0.5,2.3,1.2,3.2,2.2L57.8,16.1L57.8,16.1z"/>
<path class="st0" d="M59.5,20.4c0-1.4,0.3-2.6,0.8-3.8s1.2-2.2,2.1-3.1c0.9-0.9,1.9-1.6,3.1-2.1c1.2-0.5,2.5-0.8,3.9-0.8
	s2.7,0.3,3.9,0.8c1.2,0.5,2.2,1.2,3.1,2.1c0.9,0.9,1.6,1.9,2.1,3.1s0.8,2.4,0.8,3.8S79,23,78.5,24.2s-1.2,2.2-2.1,3.1
	s-1.9,1.6-3.1,2.1s-2.5,0.8-3.9,0.8s-2.7-0.3-3.9-0.8c-1.2-0.5-2.2-1.2-3.1-2.1c-0.9-0.9-1.6-1.9-2.1-3.1
	C59.8,23,59.5,21.7,59.5,20.4z M63.3,20.4c0,0.9,0.1,1.8,0.4,2.6c0.3,0.8,0.7,1.5,1.2,2c0.5,0.6,1.2,1,1.9,1.3
	c0.8,0.3,1.6,0.5,2.5,0.5s1.8-0.2,2.5-0.5c0.8-0.3,1.4-0.8,1.9-1.3c0.5-0.6,0.9-1.2,1.2-2c0.3-0.8,0.4-1.7,0.4-2.6s-0.1-1.8-0.4-2.6
	c-0.3-0.8-0.7-1.5-1.2-2c-0.5-0.6-1.2-1-1.9-1.3C71,14.2,70.2,14,69.3,14s-1.8,0.2-2.5,0.5c-0.8,0.3-1.4,0.8-1.9,1.3
	c-0.5,0.6-0.9,1.2-1.2,2S63.3,19.5,63.3,20.4z"/>
<path class="st0" d="M81,11.1h3.5v18.5H81V11.1z"/>
<path class="st0" d="M87.1,11.1h3.5V14h0.1c0.4-1,1.2-1.8,2.3-2.4c1.1-0.6,2.4-0.9,3.8-0.9c0.9,0,1.7,0.1,2.6,0.4
	c0.8,0.3,1.5,0.7,2.2,1.3c0.6,0.6,1.1,1.3,1.5,2.2s0.5,2,0.5,3.2v11.9H100v-11c0-0.9-0.1-1.6-0.4-2.2c-0.2-0.6-0.5-1.1-0.9-1.5
	s-0.8-0.6-1.3-0.8s-1-0.3-1.6-0.3c-0.7,0-1.4,0.1-2,0.4c-0.6,0.2-1.2,0.6-1.6,1.1s-0.8,1.1-1.1,1.9c-0.3,0.8-0.4,1.7-0.4,2.8v9.5
	h-3.5L87.1,11.1L87.1,11.1z"/>
<path class="st0" d="M124.5,29.6H121V27h-0.1c-0.7,1-1.6,1.8-2.8,2.3c-1.2,0.5-2.4,0.8-3.7,0.8c-1.4,0-2.7-0.2-3.9-0.7
	c-1.2-0.5-2.2-1.2-3-2.1s-1.5-1.9-1.9-3.1s-0.7-2.4-0.7-3.8s0.2-2.7,0.7-3.8c0.4-1.2,1.1-2.2,1.9-3.1s1.8-1.6,3-2.1s2.5-0.7,3.9-0.7
	c1.3,0,2.6,0.3,3.8,0.8c1.2,0.6,2.1,1.3,2.7,2.3h0.1V0.1h3.5V29.6z M114.9,26.8c0.9,0,1.8-0.2,2.5-0.5c0.8-0.3,1.4-0.8,1.9-1.3
	c0.5-0.6,0.9-1.2,1.2-2c0.3-0.8,0.4-1.7,0.4-2.6s-0.1-1.8-0.4-2.6c-0.3-0.8-0.7-1.5-1.2-2c-0.5-0.6-1.2-1-1.9-1.3
	c-0.8-0.3-1.6-0.5-2.5-0.5s-1.8,0.2-2.5,0.5c-0.8,0.3-1.4,0.8-1.9,1.3c-0.5,0.6-0.9,1.2-1.2,2c-0.3,0.8-0.4,1.7-0.4,2.6
	s0.1,1.8,0.4,2.6c0.3,0.8,0.7,1.5,1.2,2c0.5,0.6,1.2,1,1.9,1.3C113.1,26.7,113.9,26.8,114.9,26.8z"/>
<path class="st0" d="M126,20.4c0-1.4,0.3-2.6,0.8-3.8s1.2-2.2,2.1-3.1c0.9-0.9,1.9-1.6,3.1-2.1s2.5-0.8,3.9-0.8s2.7,0.3,3.9,0.8
	s2.2,1.2,3.1,2.1c0.9,0.9,1.6,1.9,2.1,3.1s0.8,2.4,0.8,3.8s-0.3,2.6-0.8,3.8c-0.5,1.2-1.2,2.2-2.1,3.1c-0.9,0.9-1.9,1.6-3.1,2.1
	c-1.2,0.5-2.5,0.8-3.9,0.8s-2.7-0.3-3.9-0.8s-2.2-1.2-3.1-2.1c-0.9-0.9-1.6-1.9-2.1-3.1C126.2,23,126,21.7,126,20.4z M129.7,20.4
	c0,0.9,0.1,1.8,0.4,2.6s0.7,1.5,1.2,2c0.5,0.6,1.2,1,1.9,1.3c0.8,0.3,1.6,0.5,2.5,0.5s1.8-0.2,2.5-0.5c0.8-0.3,1.4-0.8,1.9-1.3
	c0.5-0.6,0.9-1.2,1.2-2s0.4-1.7,0.4-2.6s-0.1-1.8-0.4-2.6s-0.7-1.5-1.2-2c-0.5-0.6-1.2-1-1.9-1.3s-1.6-0.5-2.5-0.5s-1.8,0.2-2.5,0.5
	s-1.4,0.8-1.9,1.3c-0.5,0.6-0.9,1.2-1.2,2S129.7,19.5,129.7,20.4z"/>
<path class="st0" d="M146.2,20.4c0-1.4,0.3-2.6,0.8-3.8s1.2-2.2,2.1-3.1c0.9-0.9,1.9-1.6,3.1-2.1s2.5-0.8,3.9-0.8s2.7,0.3,3.9,0.8
	s2.2,1.2,3.1,2.1c0.9,0.9,1.6,1.9,2.1,3.1s0.8,2.4,0.8,3.8s-0.3,2.6-0.8,3.8c-0.5,1.2-1.2,2.2-2.1,3.1c-0.9,0.9-1.9,1.6-3.1,2.1
	c-1.2,0.5-2.5,0.8-3.9,0.8s-2.7-0.3-3.9-0.8s-2.2-1.2-3.1-2.1c-0.9-0.9-1.6-1.9-2.1-3.1C146.5,23,146.2,21.7,146.2,20.4z M150,20.4
	c0,0.9,0.1,1.8,0.4,2.6s0.7,1.5,1.2,2c0.5,0.6,1.2,1,1.9,1.3c0.8,0.3,1.6,0.5,2.5,0.5s1.8-0.2,2.5-0.5c0.8-0.3,1.4-0.8,1.9-1.3
	c0.5-0.6,0.9-1.2,1.2-2s0.4-1.7,0.4-2.6s-0.1-1.8-0.4-2.6c-0.3-0.8-0.7-1.5-1.2-2c-0.5-0.6-1.2-1-1.9-1.3c-0.8-0.3-1.6-0.5-2.5-0.5
	s-1.8,0.2-2.5,0.5c-0.8,0.3-1.4,0.8-1.9,1.3c-0.5,0.6-0.9,1.2-1.2,2S150,19.5,150,20.4z"/>
<path class="st0" d="M84.5,3H81v4h3.5V3z"/>
<path class="st1" d="M19.5,0v7L30,13.5v13L19.5,33v7l16-10V10L19.5,0z"/>
<path class="st1" d="M16,7V0L0,10v20l16,10v-7L5.5,26.5v-13L16,7z"/>
<path class="st1" d="M19.5,13.5V27l5-2.5V16L19.5,13.5z"/>
<path class="st1" d="M11,6v11l5-2.5V6H11z"/>
<path class="st1" d="M11,23.5v11h5V26L11,23.5z"/>
</svg>
