<svg version="1.2" xmlns="http://www.w3.org/2000/svg" viewBox="0 0 192 192" width="100" height="100"><style>.a{fill:#fff}.b{fill:#d09e59}.c{fill:#000f50}.d{fill:none}.e{fill:#373535}.f{fill:#d39f4c}</style><path class="a" d="m95.8 188c-51 0-92.2-41.2-92.2-92.2 0-51 41.2-92.2 92.2-92.2 51 0 92.2 41.2 92.2 92.2 0 51-41.2 92.2-92.2 92.2z"/><path fill-rule="evenodd" class="b" d="m95.8 188.9c-51.4 0-93.1-41.8-93.1-93.1 0-51.3 41.8-93.1 93.1-93.1 51.3 0 93.1 41.8 93.1 93.1 0 51.3-41.7 93.1-93.1 93.1zm0-184.4c-50.3 0-91.3 41-91.3 91.3 0 50.3 41 91.3 91.3 91.3 50.3 0 91.3-41 91.3-91.3 0-50.3-41-91.3-91.3-91.3z"/><path fill-rule="evenodd" class="b" d="m95.6 12.7c1.1-0.4 2.1-0.4 2.3 0 0.1 0.4-0.7 1-1.8 1.4-1.1 0.4-2.1 0.4-2.3 0-0.1-0.3 0.7-1 1.8-1.4zm0.4 2.5c1.1 0.5 1.9 1.1 1.7 1.5-0.2 0.4-1.2 0.3-2.3-0.2-1.1-0.5-1.9-1.1-1.7-1.5 0.2-0.4 1.2-0.3 2.3 0.2z"/><path fill-rule="evenodd" class="b" d="m89.4 13c1.1-0.5 2.1-0.6 2.3-0.2 0.2 0.4-0.6 1-1.7 1.5-1.1 0.5-2.1 0.6-2.3 0.2-0.1-0.4 0.6-1 1.7-1.5zm-1.6 2.4c-0.1 0.4 0.7 1 1.8 1.4 1.2 0.4 2.2 0.4 2.3 0 0.1-0.4-0.7-1-1.8-1.4-1.2-0.4-2.2-0.4-2.3 0z"/><path fill-rule="evenodd" class="b" d="m83.3 13.7c1-0.6 2-0.7 2.2-0.4 0.2 0.3-0.5 1.1-1.6 1.6-1 0.6-2 0.7-2.2 0.4-0.1-0.3 0.6-1.1 1.6-1.6zm-1.5 2.5c-0.1 0.4 0.8 0.9 1.9 1.2 1.2 0.3 2.2 0.2 2.3-0.2 0.1-0.4-0.8-0.9-1.9-1.2-1.1-0.3-2.1-0.2-2.3 0.2z"/><path fill-rule="evenodd" class="b" d="m77.3 14.8c1-0.6 2-0.9 2.2-0.5 0.2 0.3-0.4 1.1-1.4 1.8-1 0.6-2 0.9-2.2 0.5-0.2-0.4 0.4-1.1 1.4-1.8zm1 2.3c1.2 0.2 2.1 0.7 2 1.1-0.1 0.4-1.1 0.5-2.2 0.3-1.2-0.2-2.1-0.7-2-1.1 0-0.4 1-0.5 2.2-0.3z"/><path fill-rule="evenodd" class="b" d="m71.3 16.4c1-0.7 1.9-1 2.1-0.7 0.2 0.3-0.3 1.1-1.3 1.9-1 0.7-1.9 1-2.1 0.7-0.2-0.3 0.4-1.2 1.3-1.9zm-1 2.7c0 0.4 0.9 0.8 2.1 0.9 1.2 0.1 2.2-0.1 2.2-0.5 0-0.4-0.9-0.8-2.1-0.9-1.2-0.1-2.2 0.1-2.2 0.5z"/><path fill-rule="evenodd" class="b" d="m65.5 18.4c0.9-0.8 1.8-1.2 2.1-0.9 0.3 0.3-0.3 1.2-1.2 1.9-0.9 0.8-1.8 1.2-2.1 0.9-0.2-0.2 0.3-1.1 1.2-1.9zm-0.9 2.8c0 0.4 0.9 0.8 2.1 0.8 1.2 0 2.2-0.3 2.2-0.7 0-0.4-0.9-0.8-2.1-0.8-1.1 0-2.1 0.3-2.2 0.7z"/><path fill-rule="evenodd" class="b" d="m59.9 20.9c0.8-0.8 1.7-1.3 2-1 0.3 0.3-0.2 1.2-1 2-0.8 0.8-1.7 1.3-2 1-0.3-0.3 0.2-1.2 1-2zm-0.7 2.8c0 0.4 1 0.7 2.2 0.6 1.2 0 2.1-0.4 2.1-0.8 0-0.4-1-0.7-2.2-0.6-1.1 0-2.1 0.4-2.1 0.8z"/><path fill-rule="evenodd" class="b" d="m54.4 23.8c0.8-0.9 1.6-1.4 1.9-1.2 0.3 0.3-0.1 1.2-0.9 2.1-0.8 0.9-1.6 1.4-1.9 1.2-0.2-0.3 0.2-1.2 0.9-2.1zm-0.4 2.8c0.1 0.4 1 0.6 2.2 0.5 1.1-0.2 2-0.6 2-1 0-0.4-1-0.6-2.2-0.5-1.1 0.2-2 0.6-2 1z"/><path fill-rule="evenodd" class="b" d="m49.2 27c0.7-1 1.5-1.5 1.9-1.3 0.3 0.2 0 1.2-0.7 2.1-0.7 1-1.5 1.5-1.9 1.3-0.3-0.2 0-1.1 0.7-2.1zm1.8 1.8c1.2-0.2 2.2-0.1 2.2 0.3 0 0.4-0.8 0.9-2 1.1-1.2 0.2-2.2 0.1-2.2-0.3 0-0.4 0.8-0.9 2-1.1z"/><path fill-rule="evenodd" class="b" d="m44.3 30.7c0.6-1 1.4-1.6 1.7-1.4 0.3 0.2 0.1 1.2-0.5 2.2-0.6 1-1.4 1.6-1.7 1.4-0.4-0.3-0.2-1.2 0.5-2.2zm-0.1 2.9c0.1 0.4 1.2 0.4 2.3 0.1 1.2-0.4 2-0.9 1.9-1.3-0.1-0.4-1.2-0.4-2.3-0.1-1.1 0.3-2 0.8-1.9 1.3z"/><path fill-rule="evenodd" class="b" d="m39.6 34.6c0.6-1 1.3-1.7 1.6-1.6 0.3 0.2 0.2 1.2-0.4 2.2-0.6 1-1.3 1.7-1.6 1.6-0.3-0.1-0.2-1.1 0.4-2.2zm0.2 2.9c0.2 0.4 1.2 0.4 2.3 0 1.1-0.4 1.9-1 1.8-1.4-0.2-0.4-1.2-0.4-2.3 0-1.1 0.4-1.9 1-1.8 1.4z"/><path fill-rule="evenodd" class="b" d="m35.2 39c0.5-1.1 1.2-1.8 1.5-1.7 0.4 0.2 0.3 1.2-0.2 2.3-0.5 1.1-1.2 1.8-1.5 1.7-0.3-0.2-0.3-1.2 0.2-2.3zm0.4 2.8c0.2 0.4 1.2 0.3 2.3-0.2 1.1-0.5 1.9-1.1 1.7-1.5-0.2-0.4-1.2-0.3-2.3 0.2-1.1 0.5-1.8 1.2-1.7 1.5z"/><path fill-rule="evenodd" class="b" d="m31.2 43.6c0.4-1.1 1-1.9 1.4-1.8 0.4 0.1 0.4 1.1 0 2.3-0.4 1.1-1 1.9-1.4 1.8-0.4-0.2-0.4-1.2 0-2.3zm2.2 1.2c1-0.6 2-0.7 2.2-0.4 0.2 0.3-0.5 1.1-1.6 1.6-1 0.6-2 0.7-2.2 0.4-0.2-0.3 0.5-1.1 1.6-1.6z"/><path fill-rule="evenodd" class="b" d="m27.5 48.5c0.3-1.1 0.9-2 1.3-1.9 0.4 0.1 0.4 1.1 0.1 2.3-0.3 1.1-0.9 2-1.3 1.9-0.4-0.1-0.4-1.1-0.1-2.3zm0.8 2.8c0.2 0.4 1.2 0.1 2.2-0.5 1-0.7 1.6-1.5 1.4-1.8-0.2-0.4-1.2-0.1-2.2 0.5-1 0.7-1.6 1.4-1.4 1.8z"/><path fill-rule="evenodd" class="b" d="m24.2 53.7c0.2-1.2 0.7-2 1.1-2 0.4 0.1 0.5 1.1 0.3 2.2-0.2 1.2-0.7 2-1.1 2-0.4 0-0.5-1-0.3-2.2zm2.3 0.8c1-0.7 1.9-1 2.1-0.7 0.2 0.3-0.3 1.1-1.3 1.9-1 0.7-1.9 1-2.1 0.7-0.2-0.3 0.4-1.2 1.3-1.9z"/><path fill-rule="evenodd" class="b" d="m21.3 59.1c0.1-1.2 0.6-2.1 1-2 0.4 0 0.6 1 0.5 2.2-0.1 1.2-0.6 2.1-1 2-0.5 0-0.7-1-0.5-2.2zm2.3 0.7c0.9-0.8 1.8-1.2 2.1-0.9 0.3 0.3-0.3 1.2-1.2 1.9-0.9 0.7-1.8 1.2-2.1 0.9-0.2-0.3 0.3-1.1 1.2-1.9z"/><path fill-rule="evenodd" class="b" d="m18.8 64.7c0.1-1.2 0.4-2.1 0.8-2.1 0.4 0 0.7 1 0.6 2.2-0.1 1.2-0.4 2.1-0.8 2.1-0.4 0-0.7-1-0.6-2.2zm2.4 0.5c0.8-0.8 1.7-1.3 2-1 0.3 0.3-0.2 1.2-1 2-0.8 0.8-1.7 1.3-2 1-0.3-0.2 0.1-1.1 1-2z"/><path fill-rule="evenodd" class="b" d="m16.7 70.5c0-1.2 0.3-2.2 0.7-2.2 0.4 0 0.7 0.9 0.8 2.1 0 1.2-0.3 2.2-0.7 2.2-0.4 0.1-0.8-0.9-0.8-2.1zm2.4 0.3c0.8-0.9 1.6-1.4 1.9-1.2 0.3 0.2-0.1 1.2-0.9 2.1-0.8 0.9-1.6 1.4-1.9 1.2-0.2-0.2 0.1-1.2 0.9-2.1z"/><path fill-rule="evenodd" class="b" d="m15 76.4c-0.1-1.2 0.1-2.2 0.5-2.2 0.4 0 0.8 0.9 0.9 2.1 0.1 1.2-0.1 2.2-0.5 2.2-0.3 0-0.8-0.9-0.9-2.1zm1.8 2.4c0.3 0.2 1.1-0.3 1.8-1.3 0.7-1 1-2 0.7-2.2-0.3-0.2-1.1 0.3-1.8 1.3-0.7 0.9-1 1.9-0.7 2.2z"/><path fill-rule="evenodd" class="b" d="m13.8 82.5c-0.2-1.2-0.1-2.2 0.3-2.2 0.4-0.1 0.9 0.8 1.1 2 0.2 1.2 0.1 2.2-0.3 2.2-0.4 0-0.9-0.9-1.1-2zm2 2.1c0.3 0.2 1.1-0.4 1.7-1.4 0.6-1 0.8-2 0.5-2.2-0.3-0.2-1.1 0.4-1.7 1.4-0.7 1-0.9 2-0.5 2.2z"/><path fill-rule="evenodd" class="b" d="m13.1 88.6c-0.3-1.1-0.2-2.2 0.2-2.3 0.4-0.1 0.9 0.8 1.2 1.9 0.3 1.1 0.2 2.2-0.2 2.3-0.4 0.1-1-0.8-1.2-1.9zm2.4-0.3c0.6-1 1.3-1.7 1.6-1.6 0.3 0.2 0.2 1.2-0.4 2.2-0.6 1-1.3 1.7-1.6 1.6-0.3-0.1-0.2-1.1 0.4-2.2z"/><path fill-rule="evenodd" class="b" d="m12.7 94.7c-0.4-1.1-0.4-2.1 0-2.3 0.4-0.2 1 0.7 1.4 1.8 0.4 1.1 0.4 2.1 0 2.3-0.4 0.1-1-0.7-1.4-1.8zm2.5-0.4c0.5-1.1 1.2-1.8 1.5-1.7 0.4 0.2 0.3 1.2-0.2 2.3-0.5 1.1-1.2 1.8-1.5 1.6-0.4-0.1-0.3-1.1 0.2-2.2z"/><path fill-rule="evenodd" class="b" d="m12.9 100.9c-0.5-1.1-0.5-2.1-0.2-2.3 0.4-0.2 1 0.6 1.5 1.7 0.5 1.1 0.5 2.1 0.2 2.3-0.4 0.1-1-0.6-1.5-1.7zm2.4 1.7c0.4 0.1 1-0.7 1.4-1.8 0.4-1.2 0.4-2.2 0-2.3-0.4-0.1-1 0.7-1.4 1.8-0.4 1.1-0.4 2.2 0 2.3z"/><path fill-rule="evenodd" class="b" d="m13.5 107c-0.5-1.1-0.7-2.1-0.3-2.2 0.4-0.2 1.1 0.5 1.6 1.6 0.5 1.1 0.7 2.1 0.3 2.2-0.3 0.1-1.1-0.6-1.6-1.6zm2.4 1.5c0.4 0.1 1-0.8 1.3-1.9 0.3-1.2 0.3-2.2-0.1-2.3-0.4-0.1-1 0.8-1.3 1.9-0.3 1.2-0.2 2.2 0.1 2.3z"/><path fill-rule="evenodd" class="b" d="m14.5 113c-0.6-1-0.8-2-0.5-2.2 0.3-0.2 1.1 0.4 1.7 1.5 0.6 1 0.8 2 0.5 2.2-0.3 0.2-1-0.4-1.7-1.5zm2.6 1.3c0.4 0 0.9-0.8 1.1-2 0.2-1.1 0.1-2.1-0.3-2.2-0.4 0-0.9 0.8-1.1 2-0.2 1.2-0.1 2.2 0.3 2.2z"/><path fill-rule="evenodd" class="b" d="m16 119c-0.7-1-1-1.9-0.7-2.2 0.3-0.2 1.1 0.4 1.8 1.3 0.7 1 1 1.9 0.7 2.2-0.2 0.3-1.1-0.3-1.8-1.3zm2.7 1.1c0.4 0.1 0.9-0.8 1-2 0.1-1.2-0.1-2.2-0.5-2.2-0.4-0.1-0.9 0.8-1 2-0.1 1.2 0.1 2.2 0.5 2.2z"/><path fill-rule="evenodd" class="b" d="m18 124.8c-0.8-0.9-1.1-1.9-0.8-2.1 0.3-0.3 1.2 0.3 1.9 1.2 0.7 0.9 1.1 1.9 0.8 2.1-0.3 0.3-1.2-0.2-1.9-1.2zm2.1-1.2c0.1-1.2 0.4-2.1 0.8-2.1 0.4 0 0.7 1 0.6 2.2-0.1 1.2-0.4 2.1-0.8 2.1-0.4-0.1-0.7-1-0.6-2.2z"/><path fill-rule="evenodd" class="b" d="m20.3 130.5c-0.8-0.9-1.3-1.8-1-2 0.3-0.3 1.2 0.2 2 1 0.8 0.9 1.3 1.8 1 2-0.2 0.3-1.1-0.1-2-1zm2-1.4c0-1.2 0.3-2.2 0.6-2.2 0.4 0 0.7 0.9 0.8 2.1 0 1.2-0.3 2.2-0.6 2.2-0.4 0-0.7-0.9-0.8-2.1z"/><path fill-rule="evenodd" class="b" d="m23.1 136c-0.9-0.8-1.4-1.7-1.1-2 0.3-0.3 1.2 0.1 2.1 0.9 0.9 0.8 1.4 1.7 1.1 2-0.3 0.3-1.2-0.1-2.1-0.9zm1.9-1.6c-0.1-1.2 0.1-2.2 0.5-2.2 0.4 0 0.8 0.9 0.9 2.1 0.1 1.2-0.1 2.2-0.5 2.2-0.3 0-0.8-0.9-0.9-2.1z"/><path fill-rule="evenodd" class="b" d="m26.3 141.3c-0.9-0.7-1.5-1.6-1.3-1.9 0.2-0.3 1.2 0 2.1 0.7 0.9 0.7 1.5 1.6 1.3 1.9-0.2 0.3-1.2 0-2.1-0.7zm2.9 0.3c0.4 0 0.5-1 0.3-2.2-0.2-1.2-0.7-2.1-1.1-2-0.4 0-0.5 1-0.3 2.2 0.2 1.1 0.7 2 1.1 2z"/><path fill-rule="evenodd" class="b" d="m29.8 146.3c-1-0.6-1.6-1.4-1.4-1.8 0.2-0.3 1.2-0.1 2.2 0.6 1 0.6 1.6 1.4 1.4 1.8-0.2 0.3-1.2 0-2.2-0.6zm2.9 0.1c0.4-0.1 0.5-1.2 0.2-2.3-0.3-1.2-0.8-2-1.2-1.9-0.4 0.1-0.5 1.2-0.2 2.3 0.3 1.1 0.8 2 1.2 1.9z"/><path fill-rule="evenodd" class="b" d="m33.8 151c-1-0.6-1.7-1.3-1.5-1.7 0.2-0.3 1.2-0.2 2.2 0.4 1 0.6 1.7 1.3 1.5 1.7-0.2 0.4-1.2 0.2-2.2-0.4zm2.9-0.1c0.4-0.2 0.4-1.2 0-2.3-0.4-1.1-1-1.9-1.4-1.8-0.4 0.2-0.4 1.2 0 2.3 0.3 1.1 1 1.9 1.4 1.8z"/><path fill-rule="evenodd" class="b" d="m38 155.5c-1.1-0.5-1.8-1.2-1.7-1.5 0.2-0.4 1.2-0.2 2.2 0.2 1.1 0.5 1.8 1.2 1.7 1.5-0.1 0.4-1.1 0.3-2.2-0.2zm2.9-0.4c0.3-0.2 0.3-1.2-0.2-2.3-0.5-1.1-1.1-1.9-1.5-1.7-0.3 0.2-0.3 1.2 0.2 2.3 0.4 1.1 1.2 1.9 1.5 1.7z"/><path fill-rule="evenodd" class="b" d="m42.6 159.6c-1.1-0.4-1.9-1-1.8-1.4 0.1-0.4 1.1-0.3 2.3 0.1 1.1 0.4 1.9 1 1.8 1.4-0.2 0.3-1.2 0.3-2.3-0.1zm2.8-0.6c0.4-0.1 0.2-1.1-0.3-2.2-0.5-1.1-1.2-1.8-1.6-1.6-0.4 0.1-0.2 1.1 0.3 2.2 0.5 1.1 1.3 1.8 1.6 1.6z"/><path fill-rule="evenodd" class="b" d="m47.5 163.3c-1.1-0.3-2-0.9-1.9-1.3 0.1-0.4 1.1-0.4 2.3-0.1 1.1 0.3 2 0.9 1.9 1.3-0.2 0.4-1.2 0.5-2.3 0.1zm1-2.2c-0.6-1-0.8-2-0.5-2.2 0.3-0.2 1.1 0.4 1.7 1.5 0.6 1 0.8 2 0.5 2.2-0.3 0.2-1.1-0.5-1.7-1.5z"/><path fill-rule="evenodd" class="b" d="m52.6 166.7c-1.2-0.2-2-0.8-2-1.1 0.1-0.4 1.1-0.5 2.2-0.3 1.2 0.2 2 0.8 2 1.1-0.1 0.5-1.1 0.6-2.2 0.3zm0.8-2.3c-0.7-1-1-1.9-0.7-2.2 0.3-0.2 1.1 0.4 1.8 1.3 0.7 1 1 1.9 0.7 2.2-0.2 0.3-1.1-0.3-1.8-1.3z"/><path fill-rule="evenodd" class="b" d="m58 169.7c-1.2-0.2-2.1-0.6-2-1 0.1-0.4 1-0.6 2.2-0.4 1.2 0.2 2.1 0.6 2 1-0.1 0.4-1.1 0.6-2.2 0.4zm2.5-1.1c0.3-0.3 0-1.2-0.8-2.1-0.7-0.9-1.6-1.5-1.9-1.2-0.3 0.3 0 1.2 0.8 2.1 0.8 0.9 1.7 1.4 1.9 1.2z"/><path fill-rule="evenodd" class="b" d="m63.5 172.3c-1.2-0.1-2.1-0.4-2.1-0.8 0-0.4 1-0.7 2.2-0.6 1.2 0.1 2.1 0.4 2.1 0.8 0 0.5-1 0.7-2.2 0.6zm0.5-2.4c-0.8-0.8-1.3-1.8-1-2 0.3-0.3 1.2 0.2 2 1 0.8 0.8 1.3 1.8 1 2-0.2 0.3-1.1-0.1-2-1z"/><path fill-rule="evenodd" class="b" d="m69.3 174.5c-1.2 0-2.1-0.3-2.2-0.7 0-0.4 1-0.7 2.1-0.7 1.2 0 2.1 0.3 2.2 0.7 0 0.4-0.9 0.7-2.1 0.7zm2.4-1.5c0.3-0.3-0.2-1.2-1.1-2-0.9-0.8-1.8-1.2-2.1-0.9-0.3 0.3 0.2 1.2 1.1 2 0.9 0.8 1.8 1.2 2.1 0.9z"/><path fill-rule="evenodd" class="b" d="m75.2 176.3c-1.2 0.1-2.2-0.1-2.2-0.5 0-0.4 0.9-0.8 2.1-0.9 1.2-0.1 2.2 0.1 2.2 0.5 0 0.4-0.9 0.8-2.1 0.9zm0.1-2.5c-0.9-0.7-1.5-1.6-1.3-1.9 0.2-0.3 1.2 0 2.1 0.7 0.9 0.7 1.5 1.6 1.3 1.9-0.2 0.4-1.1 0-2.1-0.7z"/><path fill-rule="evenodd" class="b" d="m81.2 177.6c-1.2 0.2-2.2 0-2.2-0.4-0.1-0.4 0.8-0.9 2-1.1 1.2-0.2 2.2 0 2.2 0.4 0 0.4-0.9 0.9-2 1.1zm0-2.5c-1-0.6-1.6-1.4-1.4-1.8 0.2-0.3 1.2-0.1 2.2 0.6 1 0.6 1.6 1.4 1.4 1.8-0.3 0.3-1.3 0.1-2.2-0.6z"/><path fill-rule="evenodd" class="b" d="m87.3 178.4c-1.2 0.3-2.2 0.2-2.3-0.2-0.1-0.4 0.8-0.9 1.9-1.2 1.2-0.3 2.2-0.2 2.3 0.2 0.1 0.4-0.8 1-1.9 1.2zm-0.2-2.4c-1-0.6-1.7-1.3-1.5-1.7 0.2-0.3 1.2-0.2 2.2 0.4 1 0.6 1.7 1.3 1.5 1.7-0.2 0.3-1.2 0.1-2.2-0.4z"/><path fill-rule="evenodd" class="b" d="m93.4 178.8c-1.1 0.4-2.1 0.3-2.3 0-0.1-0.4 0.7-1 1.8-1.3 1.1-0.4 2.1-0.3 2.3 0 0.1 0.4-0.7 1-1.8 1.3zm-0.4-2.4c-1.1-0.5-1.8-1.2-1.7-1.5 0.2-0.4 1.2-0.3 2.2 0.2 1.1 0.5 1.8 1.2 1.7 1.5-0.1 0.4-1.1 0.3-2.2-0.2z"/><path fill-rule="evenodd" class="b" d="m99.6 178.8c-1.1 0.4-2.1 0.5-2.3 0.1-0.1-0.4 0.6-1 1.7-1.5 1.1-0.5 2.1-0.5 2.3-0.1 0.1 0.4-0.6 1-1.7 1.5zm-0.6-2.4c-1.1-0.4-1.9-1-1.8-1.4 0.1-0.4 1.1-0.3 2.3 0.1 1.1 0.4 1.9 1 1.8 1.4-0.2 0.3-1.2 0.3-2.3-0.1z"/><path fill-rule="evenodd" class="b" d="m105.7 178.3c-1.1 0.5-2.1 0.7-2.2 0.3-0.2-0.4 0.5-1.1 1.6-1.6 1.1-0.5 2.1-0.7 2.2-0.3 0.2 0.3-0.6 1.1-1.6 1.6zm1.5-2.5c0.1-0.4-0.8-1-1.9-1.3-1.2-0.3-2.2-0.3-2.3 0.1-0.1 0.4 0.8 1 1.9 1.3 1.2 0.4 2.2 0.3 2.3-0.1z"/><path fill-rule="evenodd" class="b" d="m111.8 177.3c-1 0.6-2 0.8-2.2 0.5-0.2-0.3 0.5-1.1 1.5-1.7 1-0.6 2-0.8 2.2-0.5 0.1 0.4-0.5 1.1-1.5 1.7zm1.2-2.6c0-0.3-0.8-0.9-2-1.1-1.1-0.2-2.1-0.1-2.2 0.3 0 0.3 0.8 0.9 2 1.1 1.2 0.3 2.2 0.2 2.2-0.3z"/><path fill-rule="evenodd" class="b" d="m117.7 175.9c-1 0.7-1.9 1-2.2 0.6-0.2-0.3 0.4-1.1 1.4-1.8 1-0.7 1.9-1 2.2-0.6 0.2 0.3-0.4 1.1-1.4 1.8zm-1-2.2c-1.2-0.2-2.1-0.6-2-1 0.1-0.4 1-0.6 2.2-0.4 1.2 0.2 2.1 0.6 2 1-0.1 0.4-1.1 0.6-2.2 0.4z"/><path fill-rule="evenodd" class="b" d="m123.6 174.1c-0.9 0.7-1.9 1.1-2.1 0.8-0.2-0.3 0.3-1.2 1.2-1.9 0.9-0.7 1.9-1.1 2.1-0.8 0.3 0.3-0.3 1.1-1.2 1.9zm1-2.7c0-0.4-0.9-0.7-2.1-0.8-1.2-0.1-2.2 0.2-2.2 0.6 0 0.4 0.9 0.7 2.1 0.8 1.2 0 2.1-0.2 2.2-0.6z"/><path fill-rule="evenodd" class="b" d="m129.3 171.8c-0.9 0.8-1.8 1.2-2.1 0.9-0.3-0.3 0.2-1.2 1.1-2 0.9-0.8 1.8-1.2 2.1-0.9 0.3 0.3-0.2 1.2-1.1 2zm-1.4-2c-1.2 0-2.1-0.3-2.2-0.7 0-0.4 0.9-0.7 2.1-0.7 1.2 0 2.2 0.3 2.2 0.7 0.1 0.3-0.9 0.7-2.1 0.7z"/><path fill-rule="evenodd" class="b" d="m134.9 169.1c-0.8 0.9-1.7 1.4-2 1.1-0.3-0.3 0.1-1.2 0.9-2.1 0.8-0.9 1.7-1.4 2-1.1 0.3 0.3-0.1 1.2-0.9 2.1zm-1.6-1.9c-1.2 0.1-2.2-0.1-2.2-0.5 0-0.4 0.9-0.8 2.1-0.9 1.2-0.1 2.2 0.1 2.2 0.5 0 0.4-0.9 0.8-2.1 0.9z"/><path fill-rule="evenodd" class="b" d="m140.2 166c-0.7 0.9-1.6 1.5-1.9 1.2-0.3-0.2 0-1.2 0.8-2.1 0.7-0.9 1.6-1.5 1.9-1.2 0.2 0.2-0.1 1.2-0.8 2.1zm0.3-2.9c0-0.4-1-0.6-2.2-0.4-1.2 0.2-2.1 0.7-2 1.1 0 0.4 1 0.6 2.2 0.4 1.2-0.2 2.1-0.6 2-1.1z"/><path fill-rule="evenodd" class="b" d="m145.2 162.6c-0.7 1-1.5 1.6-1.8 1.4-0.3-0.2-0.1-1.2 0.6-2.2 0.7-1 1.5-1.6 1.8-1.4 0.4 0.2 0.1 1.2-0.6 2.2zm0.1-2.9c-0.1-0.4-1.1-0.5-2.3-0.2-1.1 0.3-2 0.8-1.9 1.2 0.1 0.4 1.1 0.5 2.3 0.2 1.2-0.3 2-0.8 1.9-1.2z"/><path fill-rule="evenodd" class="b" d="m150 158.7c-0.6 1-1.3 1.7-1.7 1.5-0.3-0.2-0.1-1.2 0.4-2.2 0.6-1 1.3-1.7 1.7-1.5 0.4 0.2 0.2 1.2-0.4 2.2zm-1.9-1.5c-1.1 0.4-2.1 0.4-2.3 0-0.1-0.4 0.7-1 1.8-1.3 1.1-0.4 2.1-0.4 2.3 0 0.2 0.3-0.7 0.9-1.8 1.3z"/><path fill-rule="evenodd" class="b" d="m154.6 154.5c-0.5 1.1-1.2 1.8-1.6 1.6-0.4-0.2-0.2-1.2 0.3-2.2 0.5-1.1 1.2-1.8 1.6-1.6 0.3 0.2 0.2 1.2-0.3 2.2zm-0.4-2.9c-0.2-0.4-1.2-0.3-2.3 0.1-1.1 0.5-1.8 1.1-1.7 1.5 0.2 0.4 1.2 0.3 2.3-0.1 1.1-0.4 1.9-1.1 1.7-1.5z"/><path fill-rule="evenodd" class="b" d="m158.7 150c-0.4 1.1-1.1 1.9-1.4 1.7-0.4-0.1-0.3-1.2 0.1-2.3 0.4-1.1 1.1-1.9 1.4-1.7 0.4 0.2 0.4 1.2-0.1 2.3zm-0.5-2.8c-0.1-0.4-1.1-0.2-2.2 0.3-1.1 0.5-1.8 1.2-1.6 1.6 0.1 0.4 1.1 0.2 2.2-0.3 1.1-0.5 1.8-1.2 1.6-1.6z"/><path fill-rule="evenodd" class="b" d="m162.6 145.2c-0.3 1.1-0.9 2-1.3 1.8-0.4-0.2-0.4-1.1-0.1-2.3 0.3-1.1 0.9-2 1.3-1.8 0.4 0.2 0.4 1.2 0.1 2.3zm-2.2-1.1c-1 0.6-2 0.8-2.2 0.5-0.2-0.3 0.5-1.1 1.5-1.7 1-0.6 2-0.8 2.2-0.5 0.1 0.4-0.5 1.1-1.5 1.7z"/><path fill-rule="evenodd" class="b" d="m166 140.1c-0.3 1.2-0.8 2-1.2 1.9-0.4-0.1-0.5-1.1-0.2-2.3 0.3-1.2 0.8-2 1.2-1.9 0.4 0.2 0.5 1.2 0.2 2.3zm-2.2-0.9c-1 0.7-1.9 1-2.2 0.6-0.2-0.3 0.4-1.1 1.4-1.8 1-0.7 1.9-1 2.2-0.6 0.1 0.3-0.5 1.2-1.4 1.8z"/><path fill-rule="evenodd" class="b" d="m169.1 134.8c-0.2 1.2-0.6 2.1-1 2-0.4-0.1-0.6-1.1-0.4-2.2 0.2-1.2 0.6-2.1 1-2 0.4 0.1 0.6 1.1 0.4 2.2zm-2.3-0.7c-0.9 0.7-1.9 1.1-2.1 0.8-0.2-0.3 0.3-1.2 1.2-1.9 0.9-0.7 1.9-1.1 2.1-0.8 0.2 0.3-0.3 1.1-1.2 1.9z"/><path fill-rule="evenodd" class="b" d="m171.8 129.3c-0.1 1.2-0.5 2.1-0.9 2.1-0.4 0-0.6-1-0.5-2.2 0.1-1.2 0.5-2.1 0.9-2.1 0.4 0 0.6 1 0.5 2.2zm-1.3-2.6c-0.3-0.2-1.2 0.2-2.1 1-0.9 0.8-1.4 1.7-1.1 2 0.3 0.2 1.2-0.2 2.1-1 0.9-0.8 1.4-1.7 1.1-2z"/><path fill-rule="evenodd" class="b" d="m174.1 123.6c0 1.2-0.3 2.1-0.7 2.1-0.4 0-0.7-1-0.7-2.1 0-1.2 0.3-2.1 0.7-2.1 0.4-0.1 0.7 0.9 0.7 2.1zm-1.5-2.5c-0.3-0.3-1.2 0.2-2 1.1-0.8 0.9-1.2 1.8-0.9 2.1 0.3 0.3 1.2-0.2 2-1.1 0.8-0.9 1.2-1.8 0.9-2.1z"/><path fill-rule="evenodd" class="b" d="m175.9 117.7c0.1 1.2-0.2 2.2-0.6 2.2-0.4 0-0.8-0.9-0.9-2.1-0.1-1.2 0.2-2.2 0.6-2.2 0.5 0 0.8 0.9 0.9 2.1zm-2.4-0.2c-0.7 0.9-1.6 1.5-1.9 1.2-0.3-0.2 0-1.2 0.8-2.1 0.7-0.9 1.6-1.5 1.9-1.2 0.3 0.2-0.1 1.2-0.8 2.1z"/><path fill-rule="evenodd" class="b" d="m177.3 111.7c0.2 1.2 0 2.2-0.4 2.2-0.4 0.1-0.8-0.8-1-2-0.2-1.2 0-2.2 0.4-2.2 0.4-0.1 0.9 0.8 1 2zm-2.4 0c-0.7 1-1.5 1.6-1.8 1.4-0.3-0.2-0.1-1.2 0.6-2.2 0.7-1 1.5-1.6 1.8-1.4 0.3 0.2 0 1.2-0.6 2.2z"/><path fill-rule="evenodd" class="b" d="m178.3 105.6c0.3 1.2 0.2 2.2-0.2 2.2-0.4 0.1-0.9-0.8-1.2-1.9-0.3-1.2-0.2-2.2 0.2-2.2 0.4-0.1 0.9 0.8 1.2 1.9zm-2.1-2c-0.4-0.2-1.1 0.5-1.7 1.5-0.5 1-0.7 2-0.4 2.2 0.4 0.2 1.1-0.5 1.7-1.5 0.6-1 0.8-2 0.4-2.2z"/><path fill-rule="evenodd" class="b" d="m178.8 99.5c0.3 1.1 0.3 2.1-0.1 2.3-0.4 0.1-1-0.7-1.3-1.8-0.3-1.1-0.3-2.1 0.1-2.3 0.4-0.1 0.9 0.7 1.3 1.8zm-2.4 0.4c-0.5 1.1-1.2 1.8-1.6 1.6-0.4-0.2-0.2-1.2 0.3-2.2 0.5-1.1 1.2-1.8 1.6-1.6 0.3 0.1 0.2 1.1-0.3 2.2z"/><path fill-rule="evenodd" class="b" d="m178.8 93.4c0.4 1.1 0.5 2.1 0.1 2.3-0.4 0.1-1-0.6-1.4-1.7-0.4-1.1-0.5-2.1-0.1-2.3 0.4-0.2 1 0.6 1.4 1.7zm-2.3-1.8c-0.3-0.2-1 0.6-1.4 1.7-0.4 1.1-0.5 2.2-0.1 2.3 0.3 0.2 1-0.6 1.4-1.7 0.5-1.1 0.5-2.1 0.1-2.3z"/><path fill-rule="evenodd" class="b" d="m178.4 87.2c0.5 1.1 0.6 2.1 0.3 2.2-0.4 0.2-1.1-0.6-1.6-1.6-0.5-1.1-0.6-2.1-0.3-2.2 0.3-0.1 1.1 0.6 1.6 1.6zm-2.4-1.6c-0.4-0.2-1 0.7-1.3 1.8-0.3 1.2-0.3 2.2 0.1 2.3 0.4 0.2 1-0.7 1.3-1.8 0.3-1.1 0.3-2.1-0.1-2.3z"/><path fill-rule="evenodd" class="b" d="m177.6 81.1c0.6 1 0.8 2 0.4 2.2-0.3 0.2-1.1-0.5-1.7-1.5-0.6-1-0.8-2-0.4-2.2 0.3-0.2 1.1 0.5 1.7 1.5zm-2.3 0.9c-0.3 1.2-0.8 2-1.2 1.9-0.4-0.1-0.5-1.1-0.2-2.3 0.3-1.2 0.8-2 1.2-1.9 0.3 0.2 0.4 1.2 0.2 2.3z"/><path fill-rule="evenodd" class="b" d="m176.3 75.1c0.7 1 0.9 2 0.6 2.2-0.3 0.2-1.1-0.4-1.8-1.4-0.7-1-0.9-2-0.6-2.2 0.3-0.2 1.1 0.4 1.8 1.4zm-2.3 1.1c-0.2 1.2-0.6 2.1-1 2-0.4-0.1-0.6-1.1-0.4-2.2 0.2-1.2 0.6-2.1 1-2 0.4 0 0.6 1 0.4 2.2z"/><path fill-rule="evenodd" class="b" d="m174.5 69.2c0.7 0.9 1.1 1.9 0.8 2.1-0.3 0.2-1.2-0.3-1.9-1.2-0.7-0.9-1.1-1.9-0.8-2.1 0.3-0.3 1.2 0.3 1.9 1.2zm-2.7-1c-0.4 0-0.8 0.9-0.9 2.1 0 1.2 0.2 2.2 0.6 2.2 0.4 0 0.8-0.9 0.9-2.1 0.1-1.1-0.2-2.1-0.6-2.2z"/><path fill-rule="evenodd" class="b" d="m172.3 63.5c0.8 0.9 1.2 1.8 0.9 2.1-0.3 0.3-1.2-0.2-2-1.1-0.8-0.9-1.2-1.8-0.9-2.1 0.3-0.3 1.2 0.2 2 1.1zm-2 1.4c0 1.2-0.3 2.1-0.7 2.1-0.4 0-0.7-1-0.7-2.1 0-1.2 0.3-2.1 0.7-2.1 0.4-0.1 0.7 0.9 0.7 2.1z"/><path fill-rule="evenodd" class="b" d="m169.7 57.9c0.9 0.8 1.3 1.7 1.1 2-0.3 0.3-1.2-0.1-2-1-0.9-0.8-1.3-1.7-1.1-2 0.2-0.2 1.2 0.2 2 1zm-2.8-0.6c-0.4 0-0.7 1-0.6 2.2 0.1 1.2 0.5 2.1 0.9 2.1 0.4 0 0.7-1 0.6-2.2-0.1-1.2-0.5-2.1-0.9-2.1z"/><path fill-rule="evenodd" class="b" d="m166.7 52.6c0.9 0.7 1.5 1.6 1.2 1.9-0.2 0.3-1.2-0.1-2.1-0.8-0.9-0.7-1.5-1.6-1.2-1.9 0.3-0.3 1.2 0 2.1 0.8zm-1.8 1.6c0.2 1.2 0 2.2-0.4 2.2-0.4 0.1-0.8-0.8-1-2-0.2-1.2 0-2.2 0.4-2.2 0.4-0.1 0.8 0.8 1 2z"/><path fill-rule="evenodd" class="b" d="m163.3 47.4c1 0.7 1.6 1.5 1.3 1.8-0.2 0.3-1.2 0-2.2-0.6-1-0.7-1.6-1.5-1.3-1.8 0.3-0.3 1.3-0.1 2.2 0.6zm-1.7 1.8c0.3 1.2 0.2 2.2-0.2 2.3-0.4 0.1-0.9-0.8-1.2-1.9-0.3-1.2-0.2-2.2 0.2-2.2 0.4-0.2 1 0.6 1.2 1.8z"/><path fill-rule="evenodd" class="b" d="m159.6 42.6c1 0.6 1.7 1.4 1.5 1.7-0.2 0.3-1.2 0.1-2.2-0.5-1-0.6-1.7-1.4-1.5-1.7 0.2-0.4 1.1-0.1 2.2 0.5zm-2.9 0.1c-0.4 0.2-0.4 1.2-0.1 2.3 0.3 1.1 0.9 1.9 1.3 1.8 0.4-0.2 0.4-1.2 0.1-2.3-0.3-1.2-0.9-2-1.3-1.8z"/><path fill-rule="evenodd" class="b" d="m155.4 38c1.1 0.5 1.8 1.2 1.6 1.6-0.2 0.4-1.2 0.2-2.2-0.3-1.1-0.5-1.8-1.2-1.6-1.6 0.2-0.4 1.2-0.2 2.2 0.3zm-1.4 2c0.4 1.1 0.5 2.1 0.1 2.3-0.4 0.1-1-0.6-1.4-1.7-0.4-1.1-0.5-2.1-0.1-2.3 0.4-0.2 1 0.6 1.4 1.7z"/><path fill-rule="evenodd" class="b" d="m151 33.7c1.1 0.4 1.9 1.1 1.7 1.5-0.1 0.4-1.2 0.3-2.3-0.1-1.1-0.4-1.9-1.1-1.7-1.5 0.2-0.4 1.2-0.3 2.3 0.1zm-1.3 2.1c0.5 1.1 0.6 2.1 0.3 2.2-0.4 0.2-1.1-0.6-1.6-1.6-0.5-1.1-0.6-2.1-0.3-2.2 0.4-0.2 1.1 0.6 1.6 1.6z"/><path fill-rule="evenodd" class="b" d="m146.3 29.8c1.1 0.4 1.9 1 1.8 1.3-0.1 0.3-1.1 0.4-2.3 0-1.1-0.4-1.9-1-1.8-1.3 0.1-0.3 1.1-0.3 2.3 0zm-2.8 0.7c-0.4 0.2-0.2 1.2 0.4 2.2 0.6 1 1.4 1.7 1.7 1.5 0.4-0.2 0.2-1.2-0.4-2.2-0.6-1-1.4-1.7-1.7-1.5z"/><path fill-rule="evenodd" class="b" d="m141.2 26.3c1.2 0.3 2 0.8 1.9 1.2-0.1 0.4-1.1 0.5-2.3 0.2-1.2-0.3-2-0.8-1.9-1.2 0.2-0.4 1.2-0.5 2.3-0.2zm-0.9 2.2c0.7 1 0.9 2 0.6 2.2-0.3 0.2-1.1-0.4-1.8-1.4-0.7-1-0.9-2-0.6-2.2 0.3-0.2 1.1 0.5 1.8 1.4z"/><path fill-rule="evenodd" class="b" d="m136 23.1c1.2 0.2 2.1 0.7 2 1.1-0.1 0.4-1.1 0.5-2.2 0.4-1.2-0.2-2.1-0.7-2-1.1 0-0.4 1-0.6 2.2-0.4zm-0.8 2.3c0.7 0.9 1.1 1.9 0.8 2.1-0.3 0.2-1.2-0.3-1.9-1.2-0.7-0.9-1.1-1.9-0.8-2.1 0.3-0.3 1.2 0.3 1.9 1.2z"/><path fill-rule="evenodd" class="b" d="m130.5 20.3c1.2 0.1 2.1 0.5 2.1 0.9 0 0.4-1 0.6-2.2 0.5-1.2-0.1-2.1-0.5-2.1-0.9 0-0.4 1-0.6 2.2-0.5zm-2.6 1.3c-0.3 0.3 0.1 1.2 0.9 2.1 0.8 0.9 1.7 1.4 2 1.1 0.3-0.3-0.1-1.2-0.9-2.1-0.8-0.9-1.7-1.4-2-1.1z"/><path fill-rule="evenodd" class="b" d="m124.8 18c1.2 0 2.1 0.4 2.1 0.8 0 0.4-1 0.7-2.2 0.7-1.2 0-2.1-0.4-2.1-0.8 0.1-0.5 1-0.8 2.2-0.7zm-0.4 2.4c0.9 0.8 1.3 1.7 1.1 2-0.3 0.3-1.2-0.1-2.1-1-0.9-0.8-1.3-1.7-1.1-2 0.3-0.2 1.2 0.2 2.1 1z"/><path fill-rule="evenodd" class="b" d="m119 16c1.2-0.1 2.2 0.2 2.2 0.6 0 0.4-0.9 0.8-2.1 0.8-1.2 0-2.2-0.2-2.2-0.6-0.1-0.3 0.9-0.7 2.1-0.8zm-2.4 1.7c-0.3 0.3 0.3 1.2 1.2 1.9 0.9 0.7 1.9 1.1 2.1 0.8 0.3-0.3-0.3-1.2-1.2-1.9-0.9-0.8-1.8-1.1-2.1-0.8z"/><path fill-rule="evenodd" class="b" d="m113 14.5c1.2-0.2 2.2 0 2.2 0.4 0.1 0.4-0.9 0.8-2 1-1.2 0.2-2.2 0-2.2-0.4-0.1-0.4 0.8-0.8 2-1zm-2.2 1.9c-0.2 0.3 0.4 1.1 1.4 1.8 1 0.6 2 0.9 2.2 0.6 0.2-0.3-0.4-1.1-1.4-1.8-1-0.7-2-1-2.2-0.6z"/><path fill-rule="evenodd" class="b" d="m107 13.5c1.2-0.2 2.2-0.1 2.2 0.3 0.1 0.4-0.8 0.9-2 1.1-1.2 0.2-2.2 0.1-2.2-0.3-0.1-0.4 0.8-0.9 2-1.1zm0.1 2.4c1 0.6 1.7 1.4 1.5 1.7-0.2 0.3-1.2 0.1-2.2-0.5-1-0.6-1.7-1.4-1.5-1.7 0.2-0.3 1.2-0.1 2.2 0.5z"/><path fill-rule="evenodd" class="b" d="m100.8 12.9c1.1-0.3 2.2-0.3 2.3 0.1 0.1 0.4-0.7 1-1.9 1.3-1.1 0.3-2.2 0.3-2.3-0.1 0-0.4 0.8-1 1.9-1.3zm0.3 2.4c1.1 0.5 1.8 1.2 1.6 1.6-0.2 0.4-1.2 0.2-2.2-0.3-1.1-0.5-1.8-1.2-1.6-1.6 0.2-0.3 1.2-0.2 2.2 0.3z"/><path class="a" d="m95.6 151.1c-31 0-56.1-25.1-56.1-56.1 0-31 25.1-56.1 56.1-56.1 31 0 56.1 25.1 56.1 56.1 0 31-25.1 56.1-56.1 56.1z"/><path fill-rule="evenodd" class="c" d="m42.9 63.8l2-2c1.1 1.1 1.8 2.2 2 3.4 0.2 1.2 0 2.4-0.7 3.8-0.8 1.6-2.1 2.7-3.7 3.2-1.6 0.5-3.4 0.2-5.4-0.8-2-1-3.4-2.4-3.9-4-0.6-1.6-0.4-3.3 0.4-5 0.8-1.5 1.8-2.5 3.2-3 0.8-0.3 1.8-0.3 2.9-0.1l-0.7 2.7c-0.7-0.2-1.4-0.1-2 0.1-0.6 0.3-1.1 0.7-1.4 1.4-0.5 0.9-0.5 1.8-0.2 2.7 0.4 0.9 1.3 1.7 2.7 2.5 1.5 0.8 2.8 1.1 3.7 0.9 0.9-0.2 1.6-0.8 2.1-1.7 0.3-0.7 0.4-1.3 0.2-2 0-0.7-0.5-1.4-1.2-2.1zm1.7-6.4c-1-1-1.7-1.9-2.1-2.9-0.3-0.7-0.5-1.5-0.5-2.2q0-1.2 0.3-2.1c0.3-0.9 0.9-1.7 1.7-2.5 1.4-1.5 3-2.2 4.7-2.2 1.8 0 3.4 0.7 5.1 2.3 1.6 1.5 2.4 3.2 2.5 4.9 0.1 1.7-0.6 3.3-2 4.8-1.4 1.5-3 2.2-4.7 2.2-1.8-0.1-3.4-0.8-5-2.3zm1.9-2.2c1.1 1.1 2.2 1.6 3.3 1.7 1.1 0 2-0.4 2.8-1.2 0.8-0.8 1.1-1.7 1-2.8-0.1-1.1-0.7-2.1-1.9-3.2-1.1-1.1-2.2-1.6-3.3-1.7-1 0-2 0.4-2.7 1.2-0.8 0.8-1.1 1.8-1 2.8 0 1.1 0.7 2.1 1.8 3.2zm14-4l-8.5-10.8 2.2-1.7 8.5 10.8zm4.3-3.4l-6.3-12.2 2.4-1.2 9.2 5.6-4.2-8.2 2.3-1.2 6.3 12.2-2.5 1.3-9-5.5 4.1 8zm23.3-13.5l-0.2-2.3 5.9-0.8 0.7 5.4c-0.5 0.6-1.3 1.2-2.3 1.8-1 0.6-2.1 0.9-3.3 1.1-1.4 0.2-2.7 0-3.9-0.4-1.1-0.5-2-1.2-2.7-2.3-0.7-1.1-1.1-2.2-1.3-3.5-0.2-1.4 0-2.7 0.4-3.9 0.5-1.2 1.2-2.1 2.3-2.9 0.8-0.6 1.9-0.9 3.2-1.1 1.7-0.2 3.1 0 4.1 0.6 1 0.6 1.8 1.5 2.2 2.7l-2.7 0.9c-0.3-0.6-0.7-1.1-1.3-1.5q-0.9-0.4-2.1-0.3-1.8 0.3-2.7 1.5c-0.6 0.9-0.8 2-0.6 3.5 0.2 1.6 0.7 2.8 1.5 3.5q1.2 1.1 3 0.9c0.6-0.1 1.1-0.3 1.7-0.6 0.6-0.3 1-0.6 1.4-1l-0.2-1.7c-0.1 0-3.1 0.4-3.1 0.4zm3.1-0.4q0 0 0 0zm18.5 6.4l-3-0.4-0.8-3.3-5.5-0.7-1.5 3-2.9-0.4 7.1-13 2.9 0.4c-0.1 0 3.7 14.4 3.7 14.4zm-4.4-6.1l-1.2-5.3-2.5 4.8c-0.1 0 3.7 0.5 3.7 0.5zm10.9-6.2l5.1 2c1 0.4 1.8 0.7 2.2 1 0.5 0.3 0.8 0.6 1.1 1.1q0.4 0.6 0.6 1.5c0.1 0.5 0 1.1-0.2 1.7-0.2 0.6-0.6 1.1-1.1 1.5q-0.8 0.6-1.8 0.6c0.7 0.5 1.1 1.2 1.3 1.9 0.2 0.7 0.2 1.4-0.1 2.2-0.2 0.6-0.6 1.1-1.1 1.5-0.5 0.4-1 0.7-1.6 0.9-0.6 0.1-1.3 0.1-2-0.1-0.5-0.1-1.5-0.5-3.2-1.1l-4.4-1.7zm1.7 3.2l-1.2 3 1.7 0.7c1 0.4 1.6 0.6 1.9 0.7q0.7 0.1 1.2 0c0.4-0.2 0.6-0.4 0.8-0.9 0.2-0.4 0.2-0.8 0.1-1.1-0.1-0.3-0.4-0.6-0.8-0.8-0.2-0.1-1-0.4-2.2-0.9 0-0.1-1.5-0.7-1.5-0.7zm-2 5.1l-1.3 3.4 2.4 0.9q1.3 0.6 1.8 0.6c0.4 0.1 0.8 0 1.1-0.1 0.3-0.2 0.6-0.5 0.8-0.9 0.2-0.4 0.2-0.7 0.1-1.1q-0.2-0.5-0.6-0.9c-0.3-0.3-1-0.6-2.2-1.1 0 0-2.1-0.8-2.1-0.8zm16-1.2l4.5 3.2c0.9 0.6 1.5 1.1 1.9 1.5 0.4 0.4 0.7 0.8 0.8 1.3 0.2 0.5 0.2 1 0.2 1.5 0 0.6-0.2 1.1-0.6 1.6-0.4 0.5-0.9 0.9-1.5 1.1-0.6 0.2-1.2 0.3-1.9 0.2q0.7 1 0.9 2.1c0 0.7-0.2 1.4-0.7 2.1-0.4 0.5-0.8 0.9-1.4 1.2-0.6 0.3-1.2 0.5-1.8 0.5-0.6 0-1.2-0.2-1.9-0.5-0.4-0.2-1.3-0.9-2.8-1.9l-3.8-2.7c0.1 0 8.1-11.2 8.1-11.2zm0.9 3.5l-1.8 2.6 1.5 1.1c0.9 0.6 1.4 1 1.7 1.1q0.6 0.3 1.2 0.3c0.4-0.1 0.7-0.3 1-0.6 0.2-0.3 0.4-0.7 0.3-1 0-0.4-0.2-0.7-0.6-1-0.2-0.2-0.8-0.7-1.9-1.4-0.1-0.2-1.4-1.1-1.4-1.1zm-3.2 4.4l-2.1 3 2.1 1.5c0.8 0.6 1.4 0.9 1.6 1 0.4 0.2 0.8 0.2 1.1 0.1 0.4-0.1 0.7-0.3 1-0.7 0.2-0.3 0.4-0.7 0.4-1 0-0.3-0.1-0.7-0.3-1-0.2-0.3-0.9-0.9-1.9-1.6 0 0-1.9-1.3-1.9-1.3zm13.5 21.1l-2-2.3 1.6-3-3.6-4.2-3.1 1.2-1.9-2.2 13.9-4.9 1.9 2.2c0 0.1-6.8 13.2-6.8 13.2zm0.7-7.4l2.6-4.8-5.1 1.9zm-0.2 8.9l12.2-6.3 2.7 5.2c0.7 1.3 1 2.3 1.1 3 0.1 0.7-0.1 1.4-0.4 2-0.4 0.6-0.9 1.2-1.7 1.5-0.9 0.5-1.8 0.6-2.7 0.4-0.9-0.2-1.7-0.9-2.4-1.8 0 0.7-0.2 1.3-0.3 1.9-0.2 0.5-0.6 1.3-1.3 2.4l-1.6 2.7-1.5-3 1.7-3.2c0.6-1.1 1-1.9 1.1-2.2 0.1-0.4 0.2-0.7 0.1-1 0-0.3-0.2-0.7-0.5-1.3l-0.3-0.5-5.1 2.6c0-0.2-1.1-2.4-1.1-2.4zm1.1 2.4q0 0 0 0zm7.2-3.5l0.9 1.8c0.6 1.2 1 1.9 1.3 2.2 0.3 0.2 0.5 0.4 0.9 0.4 0.3 0 0.7 0 1-0.2 0.4-0.2 0.7-0.5 0.8-0.8 0.1-0.4 0.1-0.7 0-1.2q-0.2-0.3-0.9-1.8l-1-1.9c0.1-0.1-3 1.5-3 1.5z"/><path class="d" d="m95.6 165.3c-38.9 0-70.3-31.4-70.3-70.3 0-38.9 31.4-70.3 70.3-70.3 38.9 0 70.3 31.4 70.3 70.3 0 38.9-31.4 70.3-70.3 70.3z"/><path class="e" d="m40.8 130.7l0.5 0.8q0.4 0.6 0.8 0.7 0.4 0.2 0.9-0.2 0.5-0.3 0.6-0.7 0-0.4-0.4-1l-0.5-0.8zm-0.9 1.4l-0.4-0.5-2.8 1.8-1.2-1.9 7.3-4.8 1.9 2.9q1 1.5 0.9 2.4 0 1-1.1 1.7-0.7 0.5-1.4 0.4-0.7 0-1.4-0.6 0.2 0.5 0.1 1-0.2 0.5-0.6 1.2l-1.4 2.4-1.3-2 1.2-2.1q0.4-0.6 0.4-1 0.1-0.4-0.2-0.9z"/><path class="e" d="m47.3 141.5l-0.5 0.4-3.2-3.7q-0.5 0.5-0.5 1.1 0 0.6 0.6 1.2 0.4 0.5 1 0.9 0.6 0.4 1.4 0.7l-1.2 1.1q-0.7-0.4-1.3-0.9-0.6-0.4-1.1-1-1.2-1.3-1.1-2.7 0-1.3 1.2-2.4 1.3-1 2.6-0.9 1.3 0.1 2.4 1.4 1 1.2 0.9 2.5 0 1.3-1.2 2.3zm-2.7-4.1l1.8 2q0.4-0.4 0.5-0.9 0-0.5-0.3-0.9-0.4-0.5-0.9-0.5-0.5-0.1-1.1 0.3z"/><path class="e" d="m53.1 142.9l-1.1 1.1q-0.3-0.7-0.6-1.2-0.4-0.5-0.8-0.9-0.4-0.4-0.7-0.5-0.4-0.1-0.6 0.1-0.1 0.2-0.1 0.4 0.1 0.3 0.4 0.7l0.3 0.3q1 1.3 1.1 2 0 0.7-0.7 1.4-0.7 0.8-1.6 0.6-0.9-0.1-2-1.2-0.5-0.4-0.9-1-0.5-0.6-0.8-1.2l1.1-1.2q0.2 0.7 0.6 1.3 0.3 0.5 0.8 1 0.5 0.4 0.8 0.5 0.4 0.1 0.6-0.1 0.2-0.2 0.1-0.5 0-0.2-0.4-0.7l-0.3-0.3q-0.9-1.1-0.9-1.8-0.1-0.8 0.6-1.5 0.7-0.7 1.6-0.6 0.8 0.2 1.9 1.2 0.4 0.4 0.8 0.9 0.4 0.5 0.8 1.2z"/><path class="e" d="m57.2 149.9l-0.4 0.5-3.9-3q-0.4 0.6-0.2 1.2 0.1 0.6 0.8 1.1 0.5 0.4 1.1 0.7 0.7 0.2 1.5 0.4l-1 1.2q-0.7-0.2-1.4-0.5-0.7-0.4-1.3-0.8-1.4-1.1-1.6-2.5-0.2-1.3 0.8-2.6 1-1.2 2.3-1.4 1.4-0.1 2.7 0.9 1.2 1 1.4 2.3 0.1 1.3-0.8 2.5zm-3.5-3.5l2.2 1.7q0.4-0.5 0.3-1 0-0.5-0.5-0.9-0.5-0.3-1-0.3-0.5 0-1 0.5z"/><path class="e" d="m60.4 152.4l-1-0.6q-0.5-0.3-0.9-0.3-0.4 0-0.6 0.3-0.3 0.4-0.2 0.7 0.1 0.3 0.5 0.6 0.5 0.3 1.1 0.2 0.6-0.1 0.9-0.7zm2.2 0.5l-2 3.2-1.8-1.2 0.5-0.8q-0.6 0.3-1.2 0.2-0.6-0.1-1.2-0.5-0.9-0.5-1.1-1.4-0.2-0.8 0.3-1.6 0.6-1 1.6-1 0.9 0 2.4 0.9l1 0.7 0.1-0.2q0.3-0.4 0.1-0.8-0.2-0.4-0.9-0.8-0.6-0.4-1.2-0.6-0.5-0.2-1.1-0.3l0.9-1.3q0.6 0.2 1.3 0.5 0.6 0.3 1.1 0.7 1.5 1 1.8 2 0.3 1-0.6 2.3z"/><path class="e" d="m68.6 152.6l-0.9 1.7q-0.2-0.2-0.4-0.4-0.2-0.2-0.5-0.3-0.7-0.4-1.3-0.1-0.6 0.3-1.1 1.1l-1.3 2.7-1.9-0.9 3-5.9 1.8 1-0.4 0.9q0.6-0.4 1.2-0.4 0.6 0 1.3 0.3 0.1 0.1 0.2 0.1 0.1 0.1 0.3 0.2z"/><path class="e" d="m72.9 154.8l-0.7 1.6q-0.3-0.4-0.6-0.7-0.4-0.3-0.8-0.5-0.8-0.4-1.4-0.1-0.7 0.2-1.1 1.1-0.3 0.8-0.1 1.5 0.2 0.7 1 1 0.5 0.2 0.9 0.3 0.5 0 1-0.1l-0.7 1.6q-0.5-0.1-1.1-0.2-0.4-0.1-0.9-0.3-1.6-0.7-2.2-2-0.5-1.2 0.1-2.7 0.7-1.5 2-1.9 1.3-0.4 2.9 0.3 0.5 0.2 0.9 0.5 0.4 0.3 0.8 0.6z"/><path class="e" d="m79.3 159.5l-1.3 3.8-2-0.7 0.2-0.6 0.8-2.3q0.3-0.8 0.3-1.1 0.1-0.3 0.1-0.5-0.1-0.3-0.2-0.4-0.2-0.2-0.5-0.3-0.6-0.2-1.1 0.2-0.5 0.3-0.8 1.2l-1.1 3-1.9-0.7 2.9-8.6 2 0.7-1.1 3.3q0.6-0.4 1.2-0.5 0.6 0 1.2 0.2 1.1 0.3 1.4 1.2 0.3 0.8-0.1 2.1z"/><path class="e" d="m95.4 156.8v1.8q-0.8-0.3-1.4-0.5-0.7-0.1-1.3-0.2-0.8 0-1.2 0.2-0.4 0.3-0.4 0.7 0 0.4 0.2 0.6 0.3 0.2 1 0.3l0.9 0.2q1.5 0.4 2.1 1 0.6 0.6 0.6 1.7-0.1 1.4-0.9 2.1-0.9 0.7-2.7 0.7-0.8 0-1.6-0.2-0.9-0.2-1.7-0.5v-1.9q0.9 0.5 1.6 0.7 0.8 0.2 1.5 0.2 0.8 0.1 1.2-0.2 0.4-0.2 0.4-0.7 0-0.4-0.3-0.6-0.2-0.2-1-0.4l-0.9-0.2q-1.3-0.3-1.9-1-0.6-0.6-0.6-1.6 0-1.3 0.9-2 0.9-0.7 2.4-0.7 0.8 0 1.5 0.1 0.8 0.2 1.6 0.4z"/><path class="e" d="m103.6 161.7v0.6l-4.9 0.3q0.1 0.7 0.6 1.1 0.5 0.3 1.3 0.2 0.7 0 1.4-0.2 0.6-0.3 1.3-0.7l0.2 1.6q-0.8 0.3-1.5 0.5-0.7 0.2-1.5 0.2-1.7 0.2-2.8-0.7-1-0.8-1.2-2.4-0.1-1.6 0.8-2.6 0.9-1 2.6-1.1 1.6-0.1 2.6 0.7 1 0.9 1.1 2.5zm-4.9-0.4l2.7-0.2q-0.1-0.6-0.4-0.9-0.4-0.4-1-0.3-0.6 0-0.9 0.4-0.4 0.4-0.4 1z"/><path class="e" d="m104 164.8l-1.1-9.1 2.1-0.2 1.1 9z"/><path class="e" d="m113.1 159.7l0.1 0.6-4.7 1.1q0.2 0.7 0.7 1 0.6 0.2 1.4 0.1 0.6-0.2 1.2-0.5 0.7-0.4 1.3-0.9l0.4 1.5q-0.7 0.5-1.4 0.8-0.7 0.3-1.4 0.5-1.7 0.4-2.9-0.3-1.2-0.7-1.5-2.3-0.4-1.5 0.3-2.6 0.8-1.1 2.4-1.5 1.5-0.4 2.6 0.3 1.2 0.7 1.5 2.2zm-4.9 0.5l2.7-0.7q-0.2-0.5-0.6-0.8-0.4-0.3-1-0.2-0.6 0.2-0.9 0.6-0.3 0.4-0.2 1.1z"/><path class="e" d="m117.5 155.3l0.4 1.6q-0.5-0.2-0.9-0.2-0.5 0-0.9 0.1-0.9 0.3-1.2 0.9-0.3 0.6-0.1 1.5 0.3 0.9 0.9 1.3 0.6 0.3 1.5 0.1 0.4-0.2 0.8-0.4 0.4-0.3 0.7-0.7l0.4 1.7q-0.4 0.3-0.8 0.5-0.5 0.2-1 0.4-1.7 0.5-2.9-0.1-1.2-0.6-1.7-2.2-0.4-1.5 0.3-2.7 0.7-1.1 2.4-1.6 0.5-0.2 1-0.2 0.5-0.1 1.1 0z"/><path class="e" d="m117.6 152.8l1.9-0.8 0.7 1.8 2-0.9 0.6 1.4-2 0.8 1 2.6q0.2 0.4 0.4 0.5 0.3 0.1 0.8-0.1l1-0.4 0.5 1.4-1.6 0.7q-1.2 0.4-1.9 0.2-0.6-0.3-1.1-1.5l-1-2.6-1 0.4-0.6-1.4 1-0.4z"/><path class="e" d="m133.4 154.2l-4.7-7.3 1.9-1.3 4.7 7.4z"/><path class="e" d="m139 145.2l2.4 3.2-1.6 1.3-0.4-0.6-1.5-1.8q-0.5-0.7-0.8-0.9-0.2-0.3-0.4-0.3-0.2-0.1-0.4-0.1-0.3 0.1-0.5 0.2-0.5 0.4-0.5 1.1 0.1 0.6 0.6 1.3l2 2.5-1.7 1.3-4-5.1 1.7-1.3 0.5 0.7q0.1-0.7 0.3-1.3 0.3-0.5 0.8-0.9 0.9-0.7 1.8-0.5 0.9 0.2 1.7 1.2z"/><path class="e" d="m143.4 146.5l-6.4-2.9 1.5-1.4 4.3 2.1-2-4.4 1.6-1.5 2.7 6.5z"/><path class="e" d="m148.8 135.9l0.5 0.3-3.2 3.7q0.6 0.5 1.2 0.4 0.5-0.1 1.1-0.8 0.4-0.5 0.7-1.1 0.3-0.7 0.5-1.5l1.2 1.1q-0.3 0.7-0.6 1.4-0.4 0.6-0.9 1.2-1.2 1.4-2.5 1.5-1.3 0.2-2.6-0.9-1.2-1.1-1.2-2.4-0.1-1.3 1-2.6 1-1.2 2.3-1.3 1.4-0.1 2.5 1zm-3.7 3.2l1.8-2.1q-0.5-0.4-1-0.3-0.5 0-0.8 0.4-0.4 0.5-0.4 1 0 0.5 0.4 1z"/><path class="e" d="m149.2 129.9l1.3 0.9q-0.7 0.4-1.1 0.8-0.5 0.5-0.8 0.9-0.4 0.5-0.4 0.8-0.1 0.4 0.2 0.5 0.2 0.2 0.4 0.1 0.3-0.1 0.7-0.5l0.2-0.3q1.1-1.2 1.8-1.4 0.7-0.2 1.5 0.4 0.9 0.6 0.9 1.5 0 1-0.9 2.2-0.4 0.5-0.9 1.1-0.5 0.5-1 0.9l-1.3-0.9q0.6-0.3 1.1-0.8 0.5-0.4 0.9-1 0.3-0.5 0.4-0.8 0-0.4-0.3-0.6-0.2-0.1-0.4 0-0.3 0.1-0.7 0.5l-0.3 0.3q-0.9 1.1-1.6 1.3-0.7 0.1-1.5-0.4-0.9-0.6-0.9-1.5 0-0.9 0.9-2.1 0.3-0.4 0.7-0.9 0.5-0.5 1.1-1z"/><path class="e" d="m148.1 127.7l1.1-1.8 1.6 1 1.1-1.9 1.3 0.7-1.1 1.9 2.4 1.4q0.4 0.2 0.6 0.2 0.3-0.1 0.5-0.6l0.6-0.9 1.3 0.7-0.9 1.6q-0.7 1.1-1.4 1.3-0.7 0.1-1.7-0.5l-2.5-1.4-0.5 0.9-1.3-0.7 0.5-0.9z"/><path fill-rule="evenodd" class="f" d="m33.4 119.9c1.2-1.2 1.6-1.2 2.1-3.3 0.4-2.1 3.4-2.9 4.9-1 1 1.3 1.4 1.6 3.3 2.2 2.5 1.2 0.4 5-2 3.9-1.4-0.7-3.3-0.4-4.5 1-1.9 2-5.4-0.5-3.8-2.8z"/><path fill-rule="evenodd" class="f" d="m30.8 114.4c-0.5-0.6-0.8-2-0.2-2.4 0.2 0.5 0.2 0.9 0.5 1.4 1.9-0.2 4.3 1.8 3.2 4.2-2.2 0.9-3.5-2.1-3.5-3.2z"/><path fill-rule="evenodd" class="f" d="m41.9 115.9c-2-1.7-0.7-4.6 1.2-5.1 0.1-0.6-0.1-0.9-0.1-1.5 0.7 0.2 1 1.6 0.8 2.2 0.4 1 0.5 4.4-1.9 4.4z"/><path fill-rule="evenodd" class="f" d="m36.8 113.1q-0.3 0.3-0.6 0.6c-0.5 0.3-1 0.5-1.8 0-1.9-1.4-0.6-6-0.5-7 0.1 1.5 4.4 3.5 2.9 6.4z"/><path fill-rule="evenodd" class="f" d="m38 105.8c0.5 0.9 3.6 4.5 2.5 6.6-0.5 0.8-1.1 0.8-1.6 0.7-0.3-0.1-0.5-0.2-0.8-0.3-2.6-1.9 0.4-5.6-0.1-7z"/><path fill-rule="evenodd" class="f" d="m154.9 122.9c-1.2-1.4-3.1-1.7-4.5-1-2.4 1.1-4.5-2.7-2-3.9 1.9-0.6 2.3-0.9 3.3-2.2 1.5-1.9 4.5-1.1 4.9 1 0.5 2.1 0.9 2.1 2.1 3.3 1.7 2.3-1.9 4.8-3.8 2.8z"/><path fill-rule="evenodd" class="f" d="m157.9 117.7c-1.1-2.4 1.3-4.4 3.2-4.2 0.3-0.5 0.3-0.9 0.5-1.4 0.6 0.4 0.3 1.8-0.2 2.4 0 1.2-1.4 4.2-3.5 3.2z"/><path fill-rule="evenodd" class="f" d="m148.3 111.7c-0.2-0.6 0.1-2 0.8-2.2 0 0.6-0.2 0.9-0.1 1.5 1.9 0.5 3.2 3.4 1.2 5.1-2.3 0-2.3-3.4-1.9-4.4z"/><path fill-rule="evenodd" class="f" d="m158.2 106.9c0.1 1 1.4 5.6-0.5 7-0.8 0.5-1.3 0.3-1.8 0q-0.3-0.3-0.6-0.6c-1.4-2.9 2.8-4.9 2.9-6.4z"/><path fill-rule="evenodd" class="f" d="m154.1 113c-0.3 0.1-0.5 0.2-0.8 0.3-0.5 0.1-1.1 0.1-1.6-0.7-1.1-2.1 2-5.7 2.5-6.6-0.5 1.4 2.5 5-0.1 7z"/><path class="e" d="m83 163.1c-1 0-1.8-0.8-1.8-1.8 0-1 0.8-1.8 1.8-1.8 1 0 1.8 0.8 1.8 1.8 0 1-0.8 1.8-1.8 1.8z"/><path class="e" d="m126.4 155.7c-1 0-1.8-0.8-1.8-1.8 0-1 0.8-1.8 1.8-1.8 1 0 1.8 0.8 1.8 1.8 0 1-0.8 1.8-1.8 1.8z"/><path fill-rule="evenodd" class="f" d="m70.2 67.1c4.4-1.6 11.4-6 16-2.8-10 0.6-9 4.1-14.3 6.3-4 1.6-7.1 1.8-10.3 4.9-0.9 0.9-1.6 1.9-2.3 2.5 1.3-8.3 5.8-9.1 10.9-10.9zm2.9 10.2c-0.4 1-2.6 3.2-3.6 4-3.7 3-6.9 2.5-8.8 10.7l-0.8 2.8c-0.1-0.1-0.1 0.2-0.2 0.3-1.4-11.7 3.4-12.1 13.4-17.8z"/><path fill-rule="evenodd" class="f" d="m103.1 97.6l1.1-0.8c-3.6-2.1-4 0.6-8.3 0.5-4.3 0-4.4-2.4-8-0.5 0.9 1.1-0.1 0.2 1.2 0.9 1.1 0.5 0.4-0.2 1.5 0.7 0.6 0.6 0.9 1.5 1.6 2.3 2.5 3.1 3.6 1.8 2.6 5.3-3.3 0.5-8.6 0.7-11-1.1l-0.1-0.9q0-0.1 0-0.2 0.4-0.1 1.2-0.5l-3.1-1.4c1.7-0.5 1.3-0.2 3.1-0.2-6.7-2.7-3.7-4.8-1.1-9.4-3.4 1.2-3.9 4.1-6.7 4.4-1.6-1.8-3.8-8.7-3.7-11.8 0.1-2.7 4.5-8 5.7-10.1-0.2 0-0.7-0.2-0.8-0.2-0.9-0.5-0.1 0.1-0.8-0.6 3.6-14.3 12.4-7.5 18.2-7.4 5 0.1 15.1-7.1 18.4 7.4-0.6 0.4 0.6 0.6-1.6 0.6 1 1.8 5.5 7.8 5.7 9.9 0.4 3.9-1.8 10.2-3.8 12.3-3.1-0.9-2.4-2.4-6.3-4.3 1.3 2.5 3.1 3.9 2.5 7.3-1 0.7-2.4 1.2-3.7 1.9l3-0.2c-2 1.7-2.5 0.9-2.5 1.9 0 3.4 1-2.3 0.9 1.4-3 1.7-7.3 1.7-11.2 1.2-1.1-3.6 0.6-2.8 2.5-5.1 2.9-3.4 0-1.5 3.5-3.3zm-24.1-16.3l3.2 2.8c1.5 1.1 2.5 0.9 4.6 1l1.4 3.8 1.4-8.9c-1.3 0.8-0.3 2.2-4.9 0.7-3.3-1.1-3.1-0.2-5.7 0.6zm33.9 0.1c-2.2-0.8-2.5-1.7-5.3-0.8-2.1 0.7-2.9 1.3-4.3 0.3l0.3 7.7 1.4-3.5c4.5-0.2 3.5-0.3 6-2.3zm-44 33.7c-0.2-1.4-1-2.3-1.4-3.5 1.4 0.8 1.1 0.9 2.2 2.1-1-6.7-15.8-18.3-0.2-29-4.4 4.6-3.5 13.8-0.2 19.3 6.3 10.5 0.5 9.4 3.6 21.6-4.7-5.3-3.2-6.8-4-10.5zm58.8-16c-1.4 6-6.4 9.7-7 15 0.6-1.3 0.6-1.8 2.3-2.5-2.8 4.9-1 10.1-5.5 13.8 2.8-11.8-2.5-11.6 3.3-21.1 1.7-2.9 3-5.8 3.2-9.9 0.2-3.4-1.2-8.4-3-9.8 3.3 2.2 8.4 7.3 6.7 14.5zm-22.5 17.4l0.1 2.5-2.1 1.2q0 0 0 0c0.1 0.2 1.3-0.1 2 0.4-1.6 8.2-4.5 2.4-10 2.6 1.3 0.8 1.9 0.6 3.1 1.7-1.9-0.1-3.2-0.5-5.1-0.3-3.6 0.4-5.5 3-6.9-4.1l0.6-0.1q0.2 0 0.3 0l1.4-0.1c-2-1-2.6-1.2-2.4-4 3.7 3.3 0.1 2.3 9.5 2.3 1.9-0.1 4.3 0.2 6.1 0.1 2.7-0.1 2.1-0.9 3.4-2.2zm-2.2 3.8l0.2-0.1c0-0.1-0.2 0-0.2 0.1zm4.9 16.6l-9.6 5.7c1.6-3.7 6.5-7.4 9.2-10.4 1.3-1.6 1.5-2.6 2.5-4.3l0.2 6.7c0-0.1 0.1-0.4 0.1-0.3l1.2-2.4c1.5-4.5 0.7-7 0.4-11 4.8 8 2 16.4-5.3 19.1zm-29.9-78.8c2.8-0.6 4.7-1.5 7.7-1.4 5.3 0.2 10.4 2.2 11.1 6.9-4.9-2.6-6.2-3.4-13.6-2.9-4.2 0.3-10.8 0.7-13.6-2 3-0.1 5.6-0.1 8.4-0.6zm22.3 5.3c-1-2.4-0.8-8-8.1-10.3-6.7-2.2-10 0.1-14.9 2.1 5.5-9 29.5-6.9 23 8.2zm31.2 14.2c0 0-0.1-0.1-0.2-0.2 0 0-0.1-0.1-0.2-0.2-5.6-4.9-10-1.3-15.6-7.4l-4.1-4.1c3.3 0 4.3 0.9 6.3 2.4 7.7 5.8 13.4 1.6 14.7 10.3-0.7-0.5-0.1-0.1-0.9-0.8zm-50.3 45.7c2.9 10.9 2.1 5.3 9.2 12.7 0.7 0.7 1.1 1.3 1.8 2.5 1.2 2 1.9 4.3 1.7 7.2-3-4.5 0.5-4.3-8-10.1-3.3-2.3-6.8-6.7-4.7-12.3zm52.2-26.3c0-0.1-0.1-0.3-0.1-0.4 0-0.1-0.1-0.3-0.1-0.4-3-9.7-10.6-9.3-12.5-16.4 1.8 2.8 6.2 4.3 8.9 6.5 3.4 2.7 4.9 5.2 3.9 11 0-0.2-0.1-0.3-0.1-0.3zm-19.6 19.6l-1.3-4.7c-0.2-2.5 0-5.1 0.8-7.3 1.5-4 5.4-6 5.7-10.3 0.2 2.1 0.2 4-0.5 5.9-1.7 4.7-5.9 3.3-4 17.4-0.4-0.4-0.4-0.2-0.7-1zm-36-3.9c-0.5 3.2-1.5 3.8-2.3 5.9 4.4-16-6.1-14.3-3.9-24.4 0.2 6.2 8.1 7.4 6.2 18.5zm37-52.6c4.4 1.6 5.2 1.4 10 1.8-7 4.7-9.3-3-17.7 0.8 1.3-3.2 3.8-4 7.7-2.6zm-12.9 53.8v3.2c-0.8 0.3-11.4 0.4-12.2 0l-0.1-3.2 1 1q0.5 0.6 0.9 1.2c0.8-1 0.5-1 4.3-1 3.6 0 3.4 0 4.2 1zm0.9-65.7c1.4 1.3 3.3 3 3.7 5.9 0.5 3.1-1.2 6-2.9 6.9 1.5-5.5 1.6-8.2-0.8-12.8zm13.8 6.7l7.4 4.2c-4.8-0.7-11-6.3-15-1.4 0.6-3 4.1-4.4 7.6-2.8zm-38.5 69.8c-0.1 9 0.8 6.8 3 11.2-7.2-4.1-3.9-9-3-11.2zm46.5-44.9c4.2-0.6 6.2 1.9 6.7 5.6-2.2-2.4-3.2-3.7-6.7-5.6zm-38.9 27.4l2.2 1.1 0.2 3.9c-1.1-0.6-2.5-2.7-2.4-5zm18.3 0.8l1.6-0.8c0 2.3-1.1 4.3-2.4 5 0.2-2.1 0-3.8 0.8-4.2z"/><path fill-rule="evenodd" class="c" d="m83.1 81.1c1.5 0.9 0 0.1 1.3 1.5 1.7-0.7 0.2-1 1.7-0.3-0.4 1.3-0.2 1.4-2.4 1.1-0.8-1-1.2-0.9-0.6-2.3zm25.7 0.2c0.7 2.3-2.7 3.5-3 0.7 1.5 0.4 0.2 0.2 1.7 0.6 0.7-0.7 0-0.7 1.3-1.3z"/></svg>