<svg width="194" height="46" fill="black" xmlns="http://www.w3.org/2000/svg" class="NavbarLogostyles__Logo-sc-7tonie-1 heXAsV"><path d="M43.89 35.05V42h-1.14v-6.95h1.14zm4.277 1.35c.433 0 .82.09 1.16.27.346.18.616.447.81.8.193.353.29.78.29 1.28V42h-1.13v-3.08c0-.493-.124-.87-.37-1.13-.247-.267-.584-.4-1.01-.4-.427 0-.767.133-1.02.4-.247.26-.37.637-.37 1.13V42h-1.14v-5.51h1.14v.63c.186-.227.423-.403.71-.53a2.32 2.32 0 01.93-.19zm6.024 1.02h-1.02V42h-1.15v-4.58h-.65v-.93h.65v-.39c0-.633.166-1.093.5-1.38.34-.293.87-.44 1.59-.44v.95c-.347 0-.59.067-.73.2-.14.127-.21.35-.21.67v.39h1.02v.93zm3.4 4.67c-.52 0-.99-.117-1.41-.35-.42-.24-.75-.573-.99-1-.24-.433-.36-.933-.36-1.5 0-.56.123-1.057.37-1.49a2.555 2.555 0 011.01-1 2.93 2.93 0 011.43-.35c.527 0 1.004.117 1.43.35.427.233.764.567 1.01 1 .247.433.37.93.37 1.49 0 .56-.127 1.057-.38 1.49-.253.433-.6.77-1.04 1.01-.433.233-.913.35-1.44.35zm0-.99c.294 0 .567-.07.82-.21.26-.14.47-.35.63-.63.16-.28.24-.62.24-1.02s-.076-.737-.23-1.01a1.546 1.546 0 00-.61-.63 1.668 1.668 0 00-.82-.21c-.293 0-.567.07-.82.21-.247.14-.443.35-.59.63-.146.273-.22.61-.22 1.01 0 .593.15 1.053.45 1.38.307.32.69.48 1.15.48zm5.127-3.81c.167-.28.387-.497.66-.65.28-.16.61-.24.99-.24v1.18h-.29c-.447 0-.787.113-1.02.34-.227.227-.34.62-.34 1.18V42h-1.14v-5.51h1.14v.8zm9.368-.89c.433 0 .82.09 1.16.27.347.18.617.447.81.8.2.353.3.78.3 1.28V42h-1.13v-3.08c0-.493-.123-.87-.37-1.13-.247-.267-.583-.4-1.01-.4-.427 0-.767.133-1.02.4-.247.26-.37.637-.37 1.13V42h-1.13v-3.08c0-.493-.123-.87-.37-1.13-.247-.267-.583-.4-1.01-.4-.427 0-.767.133-1.02.4-.247.26-.37.637-.37 1.13V42h-1.14v-5.51h1.14v.63c.187-.227.423-.403.71-.53a2.25 2.25 0 01.92-.19c.44 0 .833.093 1.18.28.347.187.613.457.8.81a1.82 1.82 0 01.78-.79c.353-.2.733-.3 1.14-.3zm3.34 2.82c0-.553.114-1.043.34-1.47a2.54 2.54 0 012.26-1.35c.434 0 .81.087 1.13.26.327.167.587.377.78.63v-.8h1.15V42h-1.15v-.82c-.193.26-.456.477-.79.65-.333.173-.713.26-1.14.26-.473 0-.906-.12-1.3-.36a2.673 2.673 0 01-.94-1.02 3.207 3.207 0 01-.34-1.49zm4.51.02c0-.38-.08-.71-.24-.99a1.615 1.615 0 00-.61-.64 1.608 1.608 0 00-.82-.22c-.293 0-.566.073-.82.22-.253.14-.46.35-.62.63-.153.273-.23.6-.23.98s.077.713.23 1c.16.287.367.507.62.66a1.645 1.645 0 001.64 0c.254-.147.457-.36.61-.64.16-.287.24-.62.24-1zm3.978-1.82v3.05c0 .207.047.357.14.45.1.087.267.13.5.13h.7V42h-.9c-.513 0-.907-.12-1.18-.36-.273-.24-.41-.63-.41-1.17v-3.05h-.65v-.93h.65v-1.37h1.15v1.37h1.34v.93h-1.34zm2.97-1.66a.706.706 0 01-.52-.21.706.706 0 01-.21-.52c0-.207.07-.38.21-.52.14-.14.314-.21.52-.21.2 0 .37.07.51.21.14.14.21.313.21.52 0 .207-.07.38-.21.52-.14.14-.31.21-.51.21zm.56.73V42h-1.14v-5.51h1.14zm3.887 5.6c-.52 0-.99-.117-1.41-.35-.42-.24-.75-.573-.99-1-.24-.433-.36-.933-.36-1.5 0-.56.124-1.057.37-1.49a2.556 2.556 0 011.01-1c.427-.233.904-.35 1.43-.35.527 0 1.004.117 1.43.35.427.233.764.567 1.01 1 .247.433.37.93.37 1.49 0 .56-.126 1.057-.38 1.49-.253.433-.6.77-1.04 1.01-.433.233-.913.35-1.44.35zm0-.99c.294 0 .567-.07.82-.21.26-.14.47-.35.63-.63.16-.28.24-.62.24-1.02s-.076-.737-.23-1.01a1.545 1.545 0 00-.61-.63 1.668 1.668 0 00-.82-.21c-.293 0-.566.07-.82.21-.246.14-.443.35-.59.63-.146.273-.22.61-.22 1.01 0 .593.15 1.053.45 1.38.307.32.69.48 1.15.48zm6.767-4.7c.434 0 .82.09 1.16.27.347.18.617.447.81.8.194.353.29.78.29 1.28V42h-1.13v-3.08c0-.493-.123-.87-.37-1.13-.246-.267-.583-.4-1.01-.4-.426 0-.766.133-1.02.4-.246.26-.37.637-.37 1.13V42h-1.14v-5.51h1.14v.63c.187-.227.424-.403.71-.53a2.32 2.32 0 01.93-.19zm6.892-.64a.706.706 0 01-.52-.21.706.706 0 01-.21-.52c0-.207.07-.38.21-.52.14-.14.313-.21.52-.21.2 0 .37.07.51.21.14.14.21.313.21.52 0 .207-.07.38-.21.52-.14.14-.31.21-.51.21zm.56.73V42h-1.14v-5.51h1.14zm3.497 5.6c-.433 0-.823-.077-1.17-.23-.34-.16-.61-.373-.81-.64a1.617 1.617 0 01-.32-.91h1.18c.02.233.13.43.33.59.207.153.463.23.77.23.32 0 .567-.06.74-.18.18-.127.27-.287.27-.48 0-.207-.1-.36-.3-.46-.193-.1-.503-.21-.93-.33a9.033 9.033 0 01-1.01-.33 1.81 1.81 0 01-.68-.49c-.187-.22-.28-.51-.28-.87 0-.293.087-.56.26-.8.173-.247.42-.44.74-.58.327-.14.7-.21 1.12-.21.627 0 1.13.16 1.51.48.387.313.593.743.62 1.29h-1.14a.812.812 0 00-.3-.59c-.18-.147-.423-.22-.73-.22-.3 0-.53.057-.69.17a.526.526 0 00-.24.45c0 .147.053.27.16.37.107.1.237.18.39.24.153.053.38.123.68.21.4.107.727.217.98.33.26.107.483.267.67.48.187.213.283.497.29.85 0 .313-.087.593-.26.84-.173.247-.42.44-.74.58-.313.14-.683.21-1.11.21zm7.269-4.67v3.05c0 .207.047.357.14.45.1.087.267.13.5.13h.7V42h-.9c-.513 0-.906-.12-1.18-.36-.273-.24-.41-.63-.41-1.17v-3.05h-.65v-.93h.65v-1.37h1.15v1.37h1.34v.93h-1.34zm5.241-1.02c.42 0 .793.09 1.12.27.333.18.593.447.78.8.193.353.29.78.29 1.28V42h-1.13v-3.08c0-.493-.123-.87-.37-1.13-.247-.267-.583-.4-1.01-.4-.427 0-.767.133-1.02.4-.247.26-.37.637-.37 1.13V42h-1.14v-7.4h1.14v2.53a1.92 1.92 0 01.73-.54c.3-.127.627-.19.98-.19zm8.694 2.71c0 .207-.013.393-.04.56h-4.21c.034.44.197.793.49 1.06.294.267.654.4 1.08.4.614 0 1.047-.257 1.3-.77h1.23c-.166.507-.47.923-.91 1.25-.433.32-.973.48-1.62.48-.526 0-1-.117-1.42-.35a2.618 2.618 0 01-.98-1c-.233-.433-.35-.933-.35-1.5s.114-1.063.34-1.49c.234-.433.557-.767.97-1 .42-.233.9-.35 1.44-.35.52 0 .984.113 1.39.34.407.227.724.547.95.96.227.407.34.877.34 1.41zm-1.19-.36c-.006-.42-.156-.757-.45-1.01-.293-.253-.656-.38-1.09-.38-.393 0-.73.127-1.01.38-.28.247-.446.583-.5 1.01h3.05zm4.53.47c0-.553.113-1.043.34-1.47a2.532 2.532 0 012.26-1.35c.433 0 .81.087 1.13.26.326.167.586.377.78.63v-.8h1.15V42h-1.15v-.82c-.194.26-.457.477-.79.65-.334.173-.714.26-1.14.26-.474 0-.907-.12-1.3-.36a2.665 2.665 0 01-.94-1.02 3.202 3.202 0 01-.34-1.49zm4.51.02c0-.38-.08-.71-.24-.99a1.622 1.622 0 00-.61-.64 1.611 1.611 0 00-.82-.22c-.294 0-.567.073-.82.22-.254.14-.46.35-.62.63-.154.273-.23.6-.23.98s.076.713.23 1c.16.287.366.507.62.66a1.644 1.644 0 001.64 0c.253-.147.456-.36.61-.64.16-.287.24-.62.24-1zm4.647 2.85c-.433 0-.823-.077-1.17-.23-.34-.16-.61-.373-.81-.64a1.617 1.617 0 01-.32-.91h1.18c.02.233.13.43.33.59.207.153.463.23.77.23.32 0 .567-.06.74-.18.18-.127.27-.287.27-.48 0-.207-.1-.36-.3-.46-.193-.1-.503-.21-.93-.33a9.033 9.033 0 01-1.01-.33 1.81 1.81 0 01-.68-.49c-.187-.22-.28-.51-.28-.87 0-.293.087-.56.26-.8.173-.247.42-.44.74-.58.327-.14.7-.21 1.12-.21.627 0 1.13.16 1.51.48.387.313.593.743.62 1.29h-1.14a.812.812 0 00-.3-.59c-.18-.147-.423-.22-.73-.22-.3 0-.53.057-.69.17a.526.526 0 00-.24.45c0 .147.053.27.16.37.107.1.237.18.39.24.153.053.38.123.68.21.4.107.727.217.98.33.26.107.483.267.67.48.187.213.283.497.29.85 0 .313-.087.593-.26.84-.173.247-.42.44-.74.58-.313.14-.683.21-1.11.21zm5.342 0c-.433 0-.823-.077-1.17-.23-.34-.16-.61-.373-.81-.64a1.617 1.617 0 01-.32-.91h1.18c.02.233.13.43.33.59.207.153.463.23.77.23.32 0 .567-.06.74-.18.18-.127.27-.287.27-.48 0-.207-.1-.36-.3-.46-.193-.1-.503-.21-.93-.33a9.033 9.033 0 01-1.01-.33 1.81 1.81 0 01-.68-.49c-.187-.22-.28-.51-.28-.87 0-.293.087-.56.26-.8.173-.247.42-.44.74-.58.327-.14.7-.21 1.12-.21.627 0 1.13.16 1.51.48.387.313.593.743.62 1.29h-1.14a.812.812 0 00-.3-.59c-.18-.147-.423-.22-.73-.22-.3 0-.53.057-.69.17a.526.526 0 00-.24.45c0 .147.053.27.16.37.107.1.237.18.39.24.153.053.38.123.68.21.4.107.727.217.98.33.26.107.483.267.67.48.187.213.283.497.29.85 0 .313-.087.593-.26.84-.173.247-.42.44-.74.58-.313.14-.683.21-1.11.21zm8.392-2.98c0 .207-.014.393-.04.56h-4.21c.033.44.196.793.49 1.06.293.267.653.4 1.08.4.613 0 1.046-.257 1.3-.77h1.23a2.5 2.5 0 01-.91 1.25c-.434.32-.974.48-1.62.48-.527 0-1-.117-1.42-.35a2.61 2.61 0 01-.98-1c-.234-.433-.35-.933-.35-1.5s.113-1.063.34-1.49c.233-.433.556-.767.97-1 .42-.233.9-.35 1.44-.35.52 0 .983.113 1.39.34a2.4 2.4 0 01.95.96c.226.407.34.877.34 1.41zm-1.19-.36c-.007-.42-.157-.757-.45-1.01-.294-.253-.657-.38-1.09-.38-.394 0-.73.127-1.01.38-.28.247-.447.583-.5 1.01h3.05zm3.642-1.33v3.05c0 .207.046.357.14.45.1.087.266.13.5.13h.7V42h-.9c-.514 0-.907-.12-1.18-.36-.274-.24-.41-.63-.41-1.17v-3.05h-.65v-.93h.65v-1.37h1.15v1.37h1.34v.93h-1.34zM81.918 0c.844 0 1.57.302 2.18.905.609.58.913 1.276.913 2.089 0 .789-.304 1.485-.914 2.088-.609.604-1.335.905-2.179.905-.843 0-1.57-.301-2.179-.905-.586-.603-.879-1.3-.879-2.088 0-.813.293-1.509.88-2.089C80.347.302 81.074 0 81.917 0zM84.52 9.155v17.58h-4.465v-13.82h-2.847v-3.76h7.311zM54.548 9.33c-.844-.419-1.922-.627-3.234-.627-1.336 0-2.577.255-3.726.765a9.453 9.453 0 00-2.952 2.09 9.366 9.366 0 00-1.968 2.958A9.385 9.385 0 0042 18.032c0 1.648.398 3.18 1.195 4.595a9.742 9.742 0 003.304 3.376c1.406.836 3.01 1.254 4.815 1.254 1.312 0 2.39-.186 3.234-.557.843-.395 1.51-.801 2.003-1.219v-4.038c-.61.441-1.3.813-2.074 1.114-.75.279-1.675.418-2.776.418-1.43 0-2.613-.464-3.55-1.393-.938-.928-1.406-2.111-1.406-3.55 0-.952.223-1.799.668-2.541a5.03 5.03 0 011.792-1.776 4.955 4.955 0 012.496-.661c1.1 0 2.026.15 2.776.452a9.258 9.258 0 012.074 1.114v-4.072c-.492-.395-1.16-.801-2.003-1.219z" fill="#fff"></path><path fill-rule="evenodd" clip-rule="evenodd" d="M71.66 9.956c-1.43-.836-3.012-1.253-4.746-1.253-1.71 0-3.292.417-4.745 1.253a9.464 9.464 0 00-3.444 3.342c-.867 1.392-1.3 2.958-1.3 4.699 0 1.74.433 3.307 1.3 4.7a9.85 9.85 0 003.444 3.341c1.453.812 3.035 1.219 4.745 1.219 1.734 0 3.316-.407 4.745-1.219a9.85 9.85 0 003.445-3.342c.89-1.392 1.335-2.959 1.335-4.699 0-1.74-.445-3.307-1.335-4.7a9.464 9.464 0 00-3.445-3.341zm-7.1 3.62a4.857 4.857 0 012.354-.592c.844 0 1.629.198 2.355.592a4.57 4.57 0 011.758 1.706c.445.742.667 1.648.667 2.715s-.222 1.973-.667 2.715a4.57 4.57 0 01-1.758 1.706 5.1 5.1 0 01-2.355.557 5.1 5.1 0 01-2.355-.557 4.57 4.57 0 01-1.757-1.706c-.422-.742-.633-1.648-.633-2.715s.211-1.973.633-2.715a4.57 4.57 0 011.758-1.706z" fill="#fff"></path><path d="M90.883 11.662V9.155h-4.464v17.58h4.464v-11.14a8.092 8.092 0 011.757-1.81c.703-.51 1.453-.766 2.25-.766 1.007 0 1.792.29 2.354.87.586.58.88 1.462.88 2.646l.034 10.2h4.464V15.942c0-2.413-.609-4.223-1.828-5.43-1.218-1.207-2.73-1.81-4.534-1.81-1.195 0-2.26.313-3.198.94-.914.626-1.64 1.3-2.18 2.018z" fill="#fff"></path><path fill-rule="evenodd" clip-rule="evenodd" d="M115.086 8.703c1.406 0 2.706.36 3.901 1.079 1.219.696 2.191 1.729 2.918 3.098.749 1.346 1.124 2.994 1.124 4.943 0 1.95-.375 3.632-1.124 5.047-.727 1.416-1.723 2.507-2.988 3.273-1.242.742-2.624 1.114-4.147 1.114-.984 0-1.968-.233-2.953-.697-.96-.487-1.769-1.09-2.425-1.81v6.338h-4.463V9.155h4.463v2.959c.516-.952 1.266-1.752 2.25-2.402.984-.673 2.132-1.01 3.444-1.01zm-1.125 4.42c-.796 0-1.546.21-2.249.627-.703.395-1.277.963-1.722 1.706-.422.742-.621 1.636-.598 2.68v2.541c.633.65 1.312 1.196 2.039 1.637.75.417 1.558.626 2.425.626.914 0 1.71-.244 2.39-.73a4.954 4.954 0 001.582-1.88 5.766 5.766 0 00.562-2.507c0-1.323-.41-2.437-1.23-3.342-.797-.905-1.863-1.357-3.199-1.357zM149.085 31.088V24.75c.656.72 1.464 1.323 2.425 1.81.984.465 1.968.697 2.952.697 1.523 0 2.906-.372 4.148-1.114 1.265-.766 2.261-1.857 2.987-3.273.75-1.415 1.125-3.098 1.125-5.047 0-1.95-.375-3.597-1.125-4.943-.726-1.37-1.698-2.402-2.917-3.098a7.425 7.425 0 00-3.901-1.08c-1.312 0-2.461.337-3.445 1.01-.984.65-1.734 1.45-2.249 2.402V9.155h-4.464V31.09h4.464zm4.569-17.965c-.797 0-1.546.21-2.249.627-.703.395-1.277.963-1.723 1.706-.421.742-.621 1.636-.597 2.68v2.541c.633.65 1.312 1.196 2.038 1.637.75.417 1.559.626 2.426.626.913 0 1.71-.244 2.39-.73a4.96 4.96 0 001.581-1.88 5.767 5.767 0 00.563-2.507c0-1.323-.41-2.437-1.231-3.342-.796-.905-1.862-1.357-3.198-1.357zM135.441 9.364c-.984-.44-1.956-.661-2.917-.661-1.523 0-2.917.383-4.182 1.148-1.242.743-2.238 1.81-2.988 3.203-.726 1.392-1.089 3.063-1.089 5.013 0 1.949.363 3.608 1.089 4.977.727 1.37 1.687 2.414 2.882 3.133a7.676 7.676 0 003.972 1.08c1.312 0 2.46-.337 3.444-1.01.984-.696 1.734-1.52 2.25-2.471v2.958h4.463V9.155h-4.463v1.984c-.656-.742-1.476-1.334-2.461-1.775zm-4.428 4.386c.679-.487 1.488-.73 2.425-.73.867 0 1.664.196 2.39.59a7.89 7.89 0 012.074 1.602v2.506c0 1.068-.223 1.985-.668 2.75a4.657 4.657 0 01-1.687 1.741 4.152 4.152 0 01-2.214.627c-1.336 0-2.414-.464-3.234-1.393-.797-.928-1.195-2.054-1.195-3.376 0-.882.187-1.706.562-2.472a4.798 4.798 0 011.547-1.845zM177.419 9.817c-1.242-.743-2.73-1.114-4.464-1.114-1.734 0-3.281.44-4.64 1.322a9.167 9.167 0 00-3.198 3.412c-.773 1.415-1.16 2.982-1.16 4.7 0 1.763.422 3.33 1.266 4.699a9.364 9.364 0 003.444 3.237c1.453.79 3.058 1.184 4.815 1.184 1.336 0 2.554-.244 3.655-.731 1.125-.511 1.969-1.01 2.531-1.497l.035-4.108c-.632.534-1.476 1.056-2.53 1.567-1.055.51-2.226.765-3.515.765-1.359 0-2.507-.36-3.445-1.079-.937-.72-1.523-1.67-1.757-2.854h12.864v-1.88c0-1.717-.34-3.226-1.019-4.525a7.254 7.254 0 00-2.882-3.098zm-7.346 3.76c.75-.674 1.675-1.01 2.776-1.01 1.008 0 1.934.313 2.777.94.844.603 1.312 1.531 1.406 2.784h-8.506c.282-1.137.797-2.042 1.547-2.715z" fill="#fff"></path><path d="M193.845 14.098a4.767 4.767 0 00-2.354-.626c-1.031 0-1.887.336-2.566 1.01-.68.649-1.277 1.461-1.793 2.436v9.816h-4.463V9.155h4.463v3.307c.609-1.044 1.324-1.914 2.144-2.61.844-.697 1.793-1.045 2.847-1.045.633 0 1.207.104 1.722.313v4.978zM17.996 41.646V6C8.058 6 0 13.98 0 23.823s8.058 17.823 17.996 17.823zM20.566 35.331c7.838 0 14.19-6.292 14.19-14.054 0-7.762-6.352-14.055-14.19-14.055V6c8.52 0 15.425 6.84 15.425 15.277s-6.906 15.277-15.425 15.277V35.33z" fill="#fff"></path><path d="M20.566 24.285v-1.223c1.023 0 1.852-.82 1.852-1.833a1.842 1.842 0 00-1.851-1.833v-1.222c1.703 0 3.085 1.368 3.085 3.055 0 1.688-1.382 3.056-3.086 3.056z" fill="#fff"></path><path d="M25.502 21.182c0 2.7-2.21 4.889-4.936 4.889v1.222c3.408 0 6.17-2.736 6.17-6.11 0-3.375-2.762-6.111-6.17-6.111v1.222c2.726 0 4.936 2.189 4.936 4.888z" fill="#fff"></path><path d="M20.566 29.316c4.43 0 8.021-3.557 8.021-7.944 0-4.387-3.59-7.944-8.02-7.944v-1.222c5.11 0 9.254 4.104 9.254 9.166s-4.143 9.166-9.255 9.166v-1.222z" fill="#fff"></path><path d="M31.676 21.324c0 6.075-4.972 11-11.106 11v1.222c6.815 0 12.34-5.472 12.34-12.222 0-6.75-5.525-12.221-12.34-12.221v1.222c6.134 0 11.106 4.925 11.106 11z" fill="#fff"></path></svg>