<?xml version="1.0" encoding="utf-8"?>
<!-- Generator: Adobe Illustrator 19.0.0, SVG Export Plug-In . SVG Version: 6.00 Build 0)  -->
<svg version="1.1" id="Layer_1" xmlns="http://www.w3.org/2000/svg" xmlns:xlink="http://www.w3.org/1999/xlink" x="0px" y="0px"
	 viewBox="0 0 215 49.8" style="enable-background:new 0 0 215 49.8;" xml:space="preserve">
<style type="text/css">
	.st0{fill:#1E396B;}
	.st1{fill:#875F27;}
	.st2{fill:#F8B828;}
	.st3{fill:#B28445;}
	.st4{fill:#F6E245;}
	.st5{fill:#F8B218;}
	.st6{fill:#4B351A;}
</style>
<g id="XMLID_849_">
	<path id="XMLID_860_" class="st0" d="M40,20.9c0-3.4,1.1-6.2,3.1-8.4c2.1-2.2,4.7-3.2,8-3.2c2.8,0,5.2,0.8,7.1,2.4s3.1,3.7,3.5,6.3
		h-4.9c-0.6-2.8-2.9-4.3-5.9-4.3c-4,0-6.3,2.8-6.3,7.1c0,4.3,2.4,7.1,6.3,7.1c3,0,5.2-1.5,5.9-4.3h5.1c-0.4,2.7-1.5,4.7-3.5,6.3
		c-2,1.5-4.3,2.4-7.1,2.4c-3.2,0-5.9-1.1-8-3.2C41.1,27.1,40,24.3,40,20.9z"/>
	<path id="XMLID_859_" class="st0" d="M72.5,32.4c-2.6,0-4.6-0.8-6.2-2.5c-1.6-1.7-2.4-3.6-2.4-6.1c0-2.5,0.8-4.4,2.4-6.1
		c1.5-1.7,3.6-2.5,6.2-2.5c2.6,0,4.6,0.8,6.2,2.5c1.5,1.7,2.4,3.7,2.4,6.1s-0.8,4.4-2.4,6.1C77.1,31.5,75,32.4,72.5,32.4z M68.4,24
		c0,1.4,0.4,2.6,1.1,3.4c0.8,0.8,1.8,1.2,3,1.2s2.2-0.4,3-1.2c0.8-0.8,1.1-2,1.1-3.4c0-1.4-0.4-2.6-1.1-3.4c-0.7-0.8-1.8-1.2-3-1.2
		s-2.2,0.4-3,1.2C68.7,21.3,68.4,22.5,68.4,24z"/>
	<path id="XMLID_858_" class="st0" d="M84.1,32.1V15.8h4.4v16.3H84.1z M86.3,13.6c-0.8,0-1.4-0.2-2-0.7c-0.4-0.5-0.7-1.1-0.7-2
		c0-0.8,0.2-1.4,0.7-2c0.5-0.5,1.1-0.7,2-0.7s1.4,0.2,2,0.7c0.5,0.6,0.7,1.2,0.7,2c0,0.8-0.2,1.4-0.7,1.8
		C87.7,13.4,87.1,13.6,86.3,13.6z"/>
	<path id="XMLID_857_" class="st0" d="M96.7,15.7v2c0.8-1.5,2.5-2.4,4.9-2.4c3.8,0,6,2.5,6,6.5V32h-4.4v-9.7c0-2.2-0.9-3.2-2.8-3.2
		c-2.2,0-3.3,1.4-3.3,3.5V32h-4.4V15.7H96.7L96.7,15.7z"/>
	<path id="XMLID_856_" class="st0" d="M117.4,26.7l4-11.1h4.6l-6.6,16.3h-4.1l-6.5-16.3h4.7L117.4,26.7z"/>
	<path id="XMLID_855_" class="st0" d="M142.5,25.1h-11.9c0.3,2.3,1.8,3.5,3.9,3.5c1.4,0,2.7-0.6,3.1-1.8h4.4c-0.5,1.7-1.4,3-2.8,4
		c-1.4,1.1-3.1,1.5-5,1.5c-2.4,0-4.4-0.8-5.9-2.4c-1.5-1.5-2.3-3.6-2.3-6.2c0-2.5,0.8-4.4,2.3-6.1c1.4-1.7,3.5-2.5,5.9-2.5
		c2.4,0,4.3,0.8,5.9,2.4c1.4,1.7,2.3,3.6,2.3,6.1V25.1L142.5,25.1z M130.6,21.9h7.5c-0.3-1.8-1.7-3.1-3.7-3.1
		C132.4,18.8,131.1,20.1,130.6,21.9z"/>
	<path id="XMLID_854_" class="st0" d="M144.3,26.7h4.4c0.1,1.2,0.9,2.2,2.7,2.2c1.7,0,2.6-0.6,2.6-1.4c0-1.1-1.4-1.4-3.2-1.7
		c-0.9-0.2-1.8-0.3-2.7-0.6c-1.8-0.5-3.2-2-3.2-4.3c0-1.5,0.6-2.8,1.8-3.8s2.8-1.5,4.7-1.5c2.2,0,3.8,0.5,5,1.7
		c1.1,1.1,1.7,2.4,1.8,3.8h-4.3c-0.1-1.1-0.9-2-2.5-2c-1.4,0-2.3,0.7-2.3,1.5c0,1.1,1.4,1.4,3.2,1.7c0.8,0.2,1.8,0.3,2.7,0.6
		c1.8,0.5,3.2,2,3.2,4.4c0,1.5-0.6,2.8-1.8,3.7c-1.2,1.1-2.9,1.4-5.1,1.4C146.9,32.4,144.5,30.5,144.3,26.7z"/>
	<path id="XMLID_853_" class="st0" d="M168.8,28.1v3.8c-0.5,0.1-1.1,0.2-2.1,0.2c-3.3,0-5.1-1.7-5.1-5v-8.1h-2.2v-3.5h2.2v-4h4.4v4
		h2.7v3.5h-2.5v7.5c0,1.1,0.5,1.5,1.7,1.5H168.8L168.8,28.1z"/>
	<path id="XMLID_852_" class="st0" d="M170.8,27.5c0-2.9,2-4.6,6.3-5.2l4.3-0.6v-0.3c0-1.5-0.9-2.4-2.9-2.4c-1.8,0-2.8,0.6-3,2h-4.3
		c0.2-1.5,0.8-2.9,2-4c1.1-1.1,3-1.7,5.4-1.7c4.7,0,7.1,2.2,7.1,6.1v7.7c0,1.2,0.2,2.2,0.5,2.9H182c0,0-0.2-0.8-0.2-1.8
		c-1.1,1.4-2.8,2.2-5.2,2.2C172.8,32.4,170.8,30.4,170.8,27.5z M181.4,24.6l-3.9,0.6c-1.7,0.3-2.5,0.9-2.5,2c0,1.1,0.8,1.8,2.5,1.8
		c2.5,0,3.9-1.4,3.9-3.6V24.6z"/>
	<path id="XMLID_851_" class="st0" d="M188.3,26.7h4.4c0.1,1.2,0.9,2.2,2.7,2.2c1.7,0,2.6-0.6,2.6-1.4c0-1.1-1.4-1.4-3.2-1.7
		c-0.9-0.2-1.8-0.3-2.7-0.6c-1.8-0.5-3.2-2-3.2-4.3c0-1.5,0.6-2.8,1.8-3.8c1.2-1.1,2.8-1.5,4.7-1.5c2.2,0,3.8,0.5,5,1.7
		c1.1,1.1,1.7,2.4,1.8,3.8H198c-0.1-1.1-0.9-2-2.5-2c-1.4,0-2.3,0.7-2.3,1.5c0,1.1,1.4,1.4,3.2,1.7c0.8,0.2,1.8,0.3,2.7,0.6
		c1.8,0.5,3.2,2,3.2,4.4c0,1.5-0.6,2.8-1.8,3.7c-1.2,1.1-2.9,1.4-5.1,1.4C190.9,32.4,188.6,30.5,188.3,26.7z"/>
	<path id="XMLID_850_" class="st0" d="M205.2,32.1V15.8h4.4v16.3H205.2z M207.4,13.6c-0.8,0-1.4-0.2-2-0.7s-0.7-1.1-0.7-1.8
		c0-0.8,0.2-1.4,0.7-2c0.5-0.5,1.1-0.7,2-0.7c0.8,0,1.4,0.2,2,0.7c0.5,0.5,0.7,1.1,0.7,2c0,0.8-0.2,1.4-0.7,1.8
		C208.9,13.4,208.2,13.6,207.4,13.6z"/>
</g>
<g id="XMLID_601_">
	<g id="XMLID_834_">
		<g id="XMLID_847_">
			<path id="XMLID_848_" class="st1" d="M17.4,3L17.4,3h-3.8c-3.1,0-6,1.7-8.1,4.9C3.4,10.9,2.3,15,2.3,19.3c0,4.5,1.2,8.6,3.4,11.7
				c2.1,3,4.9,4.6,7.8,4.6h3.8l0,0c2.8-0.2,5.4-1.9,7.3-4.9c2.1-3.1,3.2-7.1,3.2-11.4c0-4.1-1.1-8.2-3.1-11.2
				C22.9,5.1,20.2,3.4,17.4,3z"/>
		</g>
		<g id="XMLID_835_">
			<g id="XMLID_844_">
				<path id="XMLID_846_" class="st2" d="M24,19.4c0-4.3-1.2-7.9-3-10.8c-1.3-1.9-2.8-3.4-4.6-4.1V3.7h-3.1c-5.8,0-10.6,7-10.6,15.6
					c0,4.5,1.3,8.5,3.3,11.4c1.9,2.6,4.5,4.3,7.3,4.3h3.1v-0.7C20.9,32.2,24,26.4,24,19.4z"/>
				<path id="XMLID_845_" class="st3" d="M16.6,35.1h-3.3c-2.8,0-5.4-1.6-7.4-4.5c-2.1-3-3.3-7-3.3-11.4c0-8.7,4.9-15.8,10.8-15.8
					h3.3v0.7c1.7,0.9,3.3,2.2,4.5,4.1c1.9,3,3,6.8,3,10.9c0,6.9-3,12.9-7.4,15L16.6,35.1L16.6,35.1z M13.4,3.8
					C7.7,3.8,3,10.7,3,19.3c0,4.3,1.2,8.3,3.2,11.2c1.9,2.8,4.5,4.3,7.2,4.3h3v-0.7h0.1c2.1-1,3.9-2.9,5.3-5.5
					c1.4-2.6,2.1-6,2.1-9.3c0-4-1.1-7.8-2.9-10.7c-1.4-1.9-3-3.3-4.6-4h-0.1V3.8L13.4,3.8L13.4,3.8z"/>
			</g>
			<g id="XMLID_836_">
				<g id="XMLID_841_">
					<path id="XMLID_843_" class="st4" d="M24.3,8.5c-1.9-3-4.6-4.9-7.6-4.9C10.8,3.7,6,10.7,6,19.2c0,4.5,1.3,8.5,3.3,11.4
						c1.9,2.6,4.5,4.3,7.3,4.3c5.8,0,10.6-7,10.6-15.6C27.1,15.2,26.1,11.4,24.3,8.5z M17.2,31.1c-0.2,0-0.3,0-0.5,0
						c-2.1,0-4-1.3-5.5-3.2c-1.5-2-2.5-4.9-2.5-8.1c0-0.2,0-0.3,0-0.5c0-6.4,3.6-11.8,7.9-11.8c0.2,0,0.3,0,0.5,0
						c4.1,0.4,7.4,5.5,7.4,11.8c0,0.2,0,0.3,0,0.5C24.4,25.9,21.2,30.7,17.2,31.1z"/>
					<path id="XMLID_842_" class="st3" d="M16.6,35.1c-2.8,0-5.4-1.6-7.4-4.5c-2.1-3-3.3-7-3.3-11.4c0-8.7,4.8-15.8,10.7-15.8
						c3,0,5.7,1.7,7.7,4.9l0,0c1.9,3,3,6.8,3,10.9C27.2,28,22.4,35.1,16.6,35.1z M16.6,3.8c-5.7,0-10.4,6.9-10.4,15.5
						c0,4.3,1.2,8.3,3.2,11.2c1.9,2.8,4.5,4.3,7.2,4.3c5.7,0,10.4-6.9,10.4-15.5c0-4-1.1-7.8-2.9-10.7C22.1,5.5,19.5,3.8,16.6,3.8z
						 M16.6,31.3c-2.1,0-4.1-1.2-5.6-3.3c-1.6-2.1-2.5-5.1-2.5-8.2c0-0.2,0-0.3,0-0.5c0-6.6,3.6-12,8.2-12c0.2,0,0.3,0,0.5,0
						c4.3,0.4,7.6,5.6,7.6,12c0,0.2,0,0.3,0,0.5c-0.2,6.1-3.4,11.1-7.6,11.4l0,0C16.9,31.3,16.8,31.3,16.6,31.3z M16.6,7.7
						c-4.3,0-7.8,5.2-7.8,11.7c0,0.2,0,0.3,0,0.5c0.1,3.1,1,6,2.5,7.9c1.5,2,3.4,3.2,5.3,3.2c0.2,0,0.3,0,0.5,0
						c4-0.4,7.1-5.2,7.3-11.1c0-0.2,0-0.3,0-0.5c0-6.1-3.2-11.2-7.3-11.7C16.9,7.7,16.6,7.7,16.6,7.7z"/>
				</g>
				<g id="XMLID_837_">
					<g id="XMLID_838_">
						<path id="XMLID_840_" class="st5" d="M17.2,7.6c-0.2,0-0.3,0-0.5,0c-0.1,0-0.3,0-0.4,0h0.1c4.1,0.4,7.4,5.5,7.4,11.8
							c0,0.2,0,0.3,0,0.5c-0.2,6.1-3.4,10.9-7.4,11.2h-0.1c0.1,0,0.3,0,0.4,0c0.2,0,0.3,0,0.5,0c4-0.4,7.3-5.3,7.4-11.2
							c0-0.2,0-0.3,0-0.5C24.6,13.1,21.3,8,17.2,7.6z"/>
						<path id="XMLID_839_" class="st3" d="M16.6,31.3c-0.1,0-0.3,0-0.4,0V31h0.1c4-0.4,7.1-5.2,7.3-11.1c0-0.2,0-0.3,0-0.5
							c0-6.1-3.2-11.2-7.3-11.7h-0.1V7.4c0.3,0,0.6,0,1.1,0l0,0c4.3,0.4,7.6,5.6,7.6,12c0,0.2,0,0.3,0,0.5
							c-0.2,6.1-3.4,11.1-7.6,11.4C16.9,31.3,16.8,31.3,16.6,31.3z M18.2,8c3.3,1.6,5.6,6.1,5.6,11.4c0,0.2,0,0.3,0,0.5
							c-0.1,5.1-2.5,9.3-5.6,10.9c3.4-1.1,6.1-5.5,6.1-10.9c0-0.2,0-0.3,0-0.5C24.4,13.9,21.8,9.1,18.2,8z"/>
					</g>
				</g>
			</g>
		</g>
	</g>
	<g id="XMLID_819_">
		<g id="XMLID_832_">
			<path id="XMLID_833_" class="st1" d="M21.1,3L21.1,3h-3.8c-3.1,0-6,1.7-8.1,4.9C7.1,10.9,6,15,6,19.3c0,4.5,1.2,8.6,3.4,11.7
				c2.1,3,4.9,4.6,7.8,4.6h3.8l0,0c2.8-0.2,5.4-1.9,7.3-4.9c2.1-3.1,3.2-7.1,3.2-11.4c0-4.1-1.1-8.2-3.1-11.2
				C26.6,5.1,24,3.4,21.1,3z"/>
		</g>
		<g id="XMLID_820_">
			<g id="XMLID_829_">
				<path id="XMLID_831_" class="st2" d="M27.7,19.4c0-4.3-1.2-7.9-3-10.8c-1.3-1.9-2.8-3.4-4.6-4.1V3.7h-3.1
					c-5.8,0-10.6,7-10.6,15.6c0,4.5,1.3,8.5,3.3,11.4c1.9,2.6,4.5,4.3,7.3,4.3h3.1v-0.7C24.6,32.2,27.7,26.4,27.7,19.4z"/>
				<path id="XMLID_830_" class="st3" d="M20.5,35.1h-3.3c-2.8,0-5.4-1.6-7.4-4.5c-2.1-3-3.3-7.1-3.3-11.4c0-8.7,4.8-15.8,10.7-15.8
					h3.3v0.7c1.7,0.9,3.3,2.2,4.5,4.1c1.9,3,3,6.8,3,10.9c0,3.4-0.7,6.7-2.1,9.4c-1.4,2.6-3.2,4.6-5.3,5.6L20.5,35.1L20.5,35.1
					L20.5,35.1z M17.2,3.8c-5.7,0-10.4,6.9-10.4,15.5c0,4.3,1.2,8.3,3.2,11.2c1.9,2.8,4.5,4.3,7.2,4.3h3v-0.7h0.1
					c2.1-1,3.9-2.9,5.3-5.5c1.4-2.6,2.1-6,2.1-9.3c0-4-1.1-7.8-2.9-10.7c-1.4-1.9-3-3.3-4.6-4h-0.1V3.8L17.2,3.8L17.2,3.8z"/>
			</g>
			<g id="XMLID_821_">
				<g id="XMLID_826_">
					<path id="XMLID_828_" class="st4" d="M27.9,8.5c-1.9-3-4.6-4.9-7.6-4.9c-5.8,0-10.6,7-10.6,15.6c0,4.5,1.3,8.5,3.3,11.4
						c1.9,2.6,4.5,4.3,7.3,4.3c5.8,0,10.6-7,10.6-15.6C31,15.2,29.7,11.4,27.9,8.5z M20.9,31.1c-0.2,0-0.3,0-0.5,0
						c-2.1,0-4-1.3-5.5-3.2c-1.5-2-2.5-4.9-2.5-8.1c0-0.2,0-0.3,0-0.5c0-6.4,3.6-11.8,7.9-11.8c0.2,0,0.3,0,0.5,0
						c4.1,0.4,7.4,5.5,7.4,11.8c0,0.2,0,0.3,0,0.5C28.2,25.9,24.9,30.7,20.9,31.1z"/>
					<path id="XMLID_827_" class="st3" d="M20.3,35.1c-2.8,0-5.4-1.6-7.4-4.5c-2.1-3-3.3-7.1-3.3-11.4c0-8.7,4.8-15.8,10.7-15.8
						c3,0,5.7,1.7,7.7,4.9l0,0c1.9,3,3,6.8,3,10.9C31,28,26.2,35.1,20.3,35.1z M20.3,3.8c-5.7,0-10.4,6.9-10.4,15.5
						c0,4.3,1.2,8.3,3.2,11.2c1.9,2.8,4.5,4.3,7.2,4.3c5.7,0,10.4-6.9,10.4-15.5c0-4-1.1-7.8-2.9-10.7l0,0
						C25.8,5.5,23.2,3.8,20.3,3.8z M20.3,31.3c-2.1,0-4.1-1.2-5.6-3.3c-1.6-2.1-2.5-5.1-2.5-8.2c0-0.2,0-0.3,0-0.5
						c0-6.6,3.6-12,8.2-12c0.2,0,0.3,0,0.5,0c4.3,0.4,7.6,5.6,7.6,12c0,0.2,0,0.3,0,0.5c-0.2,6.1-3.4,11.1-7.6,11.4l0,0
						C20.8,31.3,20.5,31.3,20.3,31.3z M20.3,7.7c-4.3,0-7.8,5.2-7.8,11.7c0,0.2,0,0.3,0,0.5c0.1,3.1,1,6,2.5,7.9
						c1.5,2,3.4,3.2,5.3,3.2c0.2,0,0.3,0,0.5,0c4-0.4,7.1-5.2,7.3-11.1c0-0.2,0-0.3,0-0.5c0-6.1-3.2-11.2-7.3-11.7
						C20.7,7.7,20.5,7.7,20.3,7.7z"/>
				</g>
				<g id="XMLID_822_">
					<g id="XMLID_823_">
						<path id="XMLID_825_" class="st5" d="M20.9,7.6c-0.2,0-0.3,0-0.5,0c-0.1,0-0.3,0-0.4,0h0.1c4.1,0.4,7.4,5.5,7.4,11.8
							c0,0.2,0,0.3,0,0.5c-0.2,6.1-3.4,10.9-7.4,11.2h-0.1c0.1,0,0.3,0,0.4,0c0.2,0,0.3,0,0.5,0c4-0.4,7.3-5.3,7.4-11.2
							c0-0.2,0-0.3,0-0.5C28.3,13.1,25,8,20.9,7.6z"/>
						<path id="XMLID_824_" class="st3" d="M20.3,31.3c-0.1,0-0.3,0-0.4,0V31H20c3.9-0.4,7.1-5.2,7.2-11.1c0-0.2,0-0.3,0-0.5
							c0-6.1-3.2-11.2-7.3-11.7h-0.1V7.4c0.3,0,0.6,0,1.1,0l0,0c4.3,0.4,7.6,5.6,7.6,12c0,0.2,0,0.3,0,0.5
							c-0.2,6.1-3.4,11.1-7.6,11.4C20.8,31.3,20.5,31.3,20.3,31.3z M21.9,8c3.3,1.6,5.6,6.1,5.6,11.4c0,0.2,0,0.3,0,0.5
							c-0.1,5.1-2.5,9.3-5.6,10.9c3.4-1.1,6.1-5.5,6.1-10.9c0-0.2,0-0.3,0-0.5C28.2,13.9,25.5,9.1,21.9,8z"/>
					</g>
				</g>
			</g>
		</g>
	</g>
	<g id="XMLID_804_">
		<g id="XMLID_817_">
			<path id="XMLID_818_" class="st1" d="M24.6,3L24.6,3h-3.8c-3.1,0-6,1.7-8.1,4.9c-2.1,3.1-3.2,7.1-3.2,11.4
				c0,4.5,1.2,8.6,3.4,11.7c2.1,3,4.9,4.6,7.8,4.6h3.8l0,0c2.8-0.2,5.4-1.9,7.3-4.9c2.1-3.1,3.2-7.1,3.2-11.4
				c0-4.1-1.1-8.2-3.1-11.2C30.2,5.1,27.5,3.4,24.6,3z"/>
		</g>
		<g id="XMLID_805_">
			<g id="XMLID_814_">
				<path id="XMLID_816_" class="st2" d="M31.3,19.4c0-4.3-1.2-7.9-3-10.8c-1.3-1.9-2.8-3.4-4.6-4.1V3.7h-3.1
					c-5.8,0-10.6,7-10.6,15.6c0,4.5,1.3,8.5,3.3,11.4c1.9,2.6,4.5,4.3,7.3,4.3h3.2v-0.7C28.2,32.2,31.3,26.4,31.3,19.4z"/>
				<path id="XMLID_815_" class="st3" d="M24,35.1h-3.3c-2.8,0-5.4-1.6-7.4-4.5c-2.1-3-3.3-7.1-3.3-11.4c0-8.7,4.9-15.8,10.7-15.8
					H24v0.7c1.7,0.9,3.3,2.2,4.5,4.1c1.9,3,3,6.8,3,10.9c0,6.9-3,12.9-7.4,15L24,35.1L24,35.1z M20.8,3.8c-5.7,0-10.4,6.9-10.4,15.5
					c0,4.3,1.2,8.3,3.2,11.2c1.9,2.8,4.5,4.3,7.2,4.3h3v-0.7h0.1c2.1-1,3.9-2.9,5.3-5.5c1.4-2.6,2.1-6,2.1-9.3c0-4-1.1-7.8-2.9-10.7
					c-1.3-1.9-2.9-3.3-4.6-4h-0.1V3.8L20.8,3.8L20.8,3.8z"/>
			</g>
			<g id="XMLID_806_">
				<g id="XMLID_811_">
					<path id="XMLID_813_" class="st4" d="M31.5,8.5c-1.9-3-4.6-4.9-7.6-4.9c-5.8,0-10.6,7-10.6,15.6c0,4.5,1.3,8.5,3.3,11.4
						c1.9,2.6,4.5,4.3,7.3,4.3c5.8,0,10.6-7,10.6-15.6C34.5,15.2,33.4,11.4,31.5,8.5z M24.4,31.1c-0.2,0-0.3,0-0.5,0
						c-2.1,0-4-1.3-5.5-3.2c-1.5-2-2.5-4.9-2.5-8.1c0-0.2,0-0.3,0-0.5c0-6.4,3.6-11.8,7.9-11.8c0.2,0,0.3,0,0.5,0
						c4.1,0.4,7.4,5.5,7.4,11.8c0,0.2,0,0.3,0,0.5C31.7,25.9,28.5,30.7,24.4,31.1z"/>
					<path id="XMLID_812_" class="st3" d="M24,35.1c-2.8,0-5.4-1.6-7.4-4.5c-2.1-3-3.3-7.1-3.3-11.4C13.3,10.6,18,3.5,24,3.5
						c3,0,5.7,1.7,7.7,4.9l0,0c1.9,3,3,6.8,3,10.9C34.6,28,29.9,35.1,24,35.1z M24,3.8c-5.7,0-10.4,6.9-10.4,15.5
						c0,4.3,1.2,8.3,3.2,11.2c1.9,2.8,4.5,4.3,7.2,4.3c5.7,0,10.4-6.9,10.4-15.5c0-4-1.1-7.8-2.9-10.7C29.4,5.5,26.7,3.8,24,3.8z
						 M24,31.3c-2.1,0-4.1-1.2-5.6-3.3c-1.6-2.1-2.5-5.1-2.5-8.2c0-0.2,0-0.3,0-0.5c0-6.6,3.6-12,8.2-12c0.2,0,0.3,0,0.5,0
						c4.3,0.4,7.6,5.6,7.6,12c0,0.2,0,0.3,0,0.5c-0.2,6.1-3.4,11.1-7.6,11.4l0,0C24.3,31.3,24,31.3,24,31.3z M24,7.7
						c-4.3,0-7.8,5.2-7.8,11.7c0,0.2,0,0.3,0,0.5c0.1,3.1,1,6,2.5,7.9c1.5,2,3.4,3.2,5.3,3.2c0.2,0,0.3,0,0.5,0
						c4-0.4,7.1-5.2,7.3-11.1c0-0.2,0-0.3,0-0.5c0-6.1-3.2-11.2-7.3-11.7C24.3,7.7,24,7.7,24,7.7z"/>
				</g>
				<g id="XMLID_807_">
					<g id="XMLID_808_">
						<path id="XMLID_810_" class="st5" d="M24.4,7.6c-0.2,0-0.3,0-0.5,0c-0.1,0-0.3,0-0.4,0h0.1C27.7,8,31,13.1,31,19.4
							c0,0.2,0,0.3,0,0.5c-0.2,6.1-3.4,10.9-7.4,11.2h-0.1c0.1,0,0.3,0,0.4,0c0.2,0,0.3,0,0.5,0c4-0.4,7.3-5.3,7.4-11.2
							c0-0.2,0-0.3,0-0.5C31.9,13.1,28.6,8,24.4,7.6z"/>
						<path id="XMLID_809_" class="st3" d="M24,31.3c-0.1,0-0.3,0-0.4,0V31h0.1c4-0.4,7.1-5.2,7.3-11.1c0-0.2,0-0.3,0-0.5
							c0-6.1-3.2-11.2-7.3-11.7h-0.1V7.4c0.3,0,0.6,0,1.1,0l0,0c4.3,0.4,7.6,5.6,7.6,12c0,0.2,0,0.3,0,0.5
							C32,26,28.8,30.9,24.6,31.3C24.3,31.3,24,31.3,24,31.3z M25.5,8c3.3,1.6,5.6,6.1,5.6,11.4c0,0.2,0,0.3,0,0.5
							c-0.1,5.1-2.5,9.3-5.6,10.9c3.4-1.1,6.1-5.5,6.1-10.9c0-0.2,0-0.3,0-0.5C31.7,13.9,29.1,9.1,25.5,8z"/>
					</g>
				</g>
			</g>
		</g>
	</g>
	<g id="XMLID_801_">
		<g id="XMLID_802_">
			<polygon id="XMLID_803_" class="st4" points="21.6,22.7 21.6,26.5 20.5,26.5 20.5,24.9 			"/>
		</g>
	</g>
	<g id="XMLID_798_">
		<g id="XMLID_799_">
			<polygon id="XMLID_800_" class="st4" points="22.9,20.2 23.4,21.1 23.4,21.2 23.4,26.5 22.3,26.5 22.3,21.3 			"/>
		</g>
	</g>
	<g id="XMLID_795_">
		<g id="XMLID_796_">
			<polygon id="XMLID_797_" class="st4" points="25.1,20.6 25.1,26.5 24,26.5 24,22.9 24.3,22.7 25,21.1 			"/>
		</g>
	</g>
	<g id="XMLID_792_">
		<g id="XMLID_793_">
			<polygon id="XMLID_794_" class="st4" points="27,17 27,26.5 25.9,26.5 25.9,19.2 			"/>
		</g>
	</g>
	<g id="XMLID_789_">
		<g id="XMLID_790_">
			<polygon id="XMLID_791_" class="st6" points="26.4,11.8 25.9,11.8 27.2,11.8 27.7,11.8 			"/>
		</g>
	</g>
	<g id="XMLID_609_">
		<g id="XMLID_787_">
			<polygon id="XMLID_788_" class="st1" points="24,21 23.7,21 22.9,19.4 23.4,19.4 			"/>
		</g>
		<g id="XMLID_784_">
			<g id="XMLID_785_">
				<rect id="XMLID_786_" x="20" y="24.9" class="st1" width="0.5" height="1.7"/>
			</g>
		</g>
		<g id="XMLID_781_">
			<g id="XMLID_782_">
				<polygon id="XMLID_783_" class="st1" points="20.5,24.9 20,24.9 21.1,22.7 21.6,22.7 				"/>
			</g>
		</g>
		<g id="XMLID_778_">
			<g id="XMLID_779_">
				<rect id="XMLID_780_" x="21.9" y="21.3" class="st1" width="0.5" height="5.2"/>
			</g>
		</g>
		<g id="XMLID_775_">
			<g id="XMLID_776_">
				<polygon id="XMLID_777_" class="st1" points="22.3,21.3 21.9,21.3 22.4,20.2 22.9,20.2 				"/>
			</g>
		</g>
		<g id="XMLID_760_">
			<g id="XMLID_772_">
				<polygon id="XMLID_774_" class="st1" points="25,21.1 24.4,21.1 24.7,20.6 25.1,20.6 				"/>
			</g>
		</g>
		<g id="XMLID_745_">
			<g id="XMLID_757_">
				<polygon id="XMLID_759_" class="st1" points="24.3,22.7 23.7,22.7 24.4,21.1 25,21.1 				"/>
			</g>
		</g>
		<g id="XMLID_730_">
			<g id="XMLID_742_">
				<polygon id="XMLID_744_" class="st1" points="24,22.9 23.7,22.9 23.7,22.7 24.3,22.7 				"/>
			</g>
		</g>
		<g id="XMLID_726_">
			<g id="XMLID_727_">
				<rect id="XMLID_729_" x="23.7" y="22.9" class="st1" width="0.5" height="3.8"/>
			</g>
		</g>
		<g id="XMLID_721_">
			<g id="XMLID_723_">
				<rect id="XMLID_724_" x="25.5" y="19.2" class="st1" width="0.5" height="7.3"/>
			</g>
		</g>
		<g id="XMLID_717_">
			<g id="XMLID_718_">
				<polygon id="XMLID_720_" class="st1" points="25.9,19.2 25.5,19.2 26.6,17 27,17 				"/>
			</g>
		</g>
		<g id="XMLID_712_">
			<g id="XMLID_714_">
				<polygon id="XMLID_715_" class="st1" points="27.7,14.8 27.2,14.8 27,14 27.5,14 				"/>
			</g>
		</g>
		<g id="XMLID_703_">
			<g id="XMLID_706_">
				<polygon id="XMLID_709_" class="st1" points="26.7,12.4 26.2,12.4 25.9,11.8 26.4,11.8 				"/>
			</g>
		</g>
		<g id="XMLID_694_">
			<g id="XMLID_697_">
				<polygon id="XMLID_700_" class="st1" points="24,17.7 23.7,17.7 26.2,12.4 26.7,12.4 				"/>
			</g>
		</g>
		<g id="XMLID_678_">
			<g id="XMLID_682_">
				<polygon id="XMLID_685_" class="st1" points="23.4,19.4 22.9,19.4 22.4,18.4 23,18.4 				"/>
			</g>
		</g>
		<g id="XMLID_661_">
			<g id="XMLID_666_">
				<polygon id="XMLID_670_" class="st1" points="22.2,16.8 21.7,16.8 22.4,15.3 23,15.3 				"/>
			</g>
		</g>
		<g id="XMLID_637_">
			<g id="XMLID_651_">
				<polygon id="XMLID_657_" class="st1" points="19.6,22.4 19,22.4 21.7,16.8 22.2,16.8 				"/>
			</g>
		</g>
		<g id="XMLID_615_">
			<g id="XMLID_627_">
				<polygon id="XMLID_633_" class="st1" points="20.3,23.8 19.8,23.8 19,22.4 19.6,22.4 				"/>
			</g>
		</g>
	</g>
	<g id="XMLID_602_">
		<g id="XMLID_606_">
			<polygon id="XMLID_608_" class="st4" points="26.4,11.8 27.7,11.8 27.7,14.8 27.5,14 24.9,19.4 24,21 23.4,19.4 23,18.4 
				20.3,23.8 19.6,22.4 22.2,16.8 23,15.3 23.7,16.8 24,17.7 26.7,12.4 			"/>
		</g>
	</g>
</g>
<g id="XMLID_1_">
	<path id="XMLID_195_" class="st0" d="M41.3,45.4h-1.4l2.4-6.3h1.4l2.4,6.3h-1.4l-0.4-1.1h-2.6L41.3,45.4z M43,40.7L43,40.7
		l-0.9,2.5h1.8L43,40.7z"/>
	<path id="XMLID_193_" class="st0" d="M47.2,43.9h1.3c0,0.4,0.3,0.6,0.8,0.6c0.5,0,0.7-0.2,0.7-0.4s-0.4-0.4-0.9-0.5
		c-0.3,0-0.5-0.1-0.7-0.2c-0.5-0.1-0.9-0.6-0.9-1.2c0-0.4,0.2-0.8,0.5-1.1s0.8-0.4,1.4-0.4c0.6,0,1.1,0.2,1.4,0.5
		c0.3,0.3,0.5,0.7,0.5,1.1H50c0-0.3-0.3-0.6-0.7-0.6c-0.4,0-0.7,0.2-0.7,0.4s0.4,0.4,0.9,0.5c0.3,0,0.5,0.1,0.7,0.2
		c0.5,0.1,0.9,0.6,0.9,1.3c0,0.4-0.2,0.8-0.5,1.1c-0.4,0.3-0.8,0.4-1.4,0.4C48,45.5,47.3,45,47.2,43.9z"/>
	<path id="XMLID_190_" class="st0" d="M57.4,43.5H54c0.1,0.7,0.5,1,1.1,1c0.4,0,0.7-0.2,0.9-0.5h1.3c-0.1,0.5-0.4,0.8-0.8,1.1
		c-0.4,0.3-0.9,0.4-1.4,0.4c-0.7,0-1.3-0.2-1.7-0.7c-0.4-0.4-0.7-1.1-0.7-1.8c0-0.7,0.2-1.3,0.7-1.7c0.4-0.5,1-0.7,1.7-0.7
		c0.7,0,1.2,0.2,1.7,0.7c0.4,0.5,0.7,1.1,0.7,1.8L57.4,43.5z M54.1,42.5h2.1c-0.1-0.5-0.5-0.9-1.1-0.9S54.2,42,54.1,42.5z"/>
	<path id="XMLID_188_" class="st0" d="M61.5,44.3v1.1c-0.1,0-0.4,0-0.6,0c-1,0-1.4-0.5-1.4-1.4v-2.3h-0.6v-1h0.6v-1.1h1.3v1.1h0.8v1
		h-0.7v2.1c0,0.3,0.2,0.4,0.5,0.4L61.5,44.3z"/>
	<path id="XMLID_186_" class="st0" d="M70.8,45.4h-1.3v-2.8c0-0.6-0.3-0.9-0.7-0.9c-0.6,0-0.9,0.4-0.9,1v2.7h-1.3v-4.6h1.2v0.6
		c0.2-0.4,0.7-0.7,1.4-0.7c0.6,0,1.1,0.2,1.4,0.7c0.4-0.4,0.9-0.7,1.5-0.7c1.1,0,1.7,0.7,1.7,1.8v2.9h-1.3v-2.8
		c0-0.6-0.3-0.9-0.7-0.9c-0.6,0-0.9,0.4-0.9,1L70.8,45.4L70.8,45.4z"/>
	<path id="XMLID_183_" class="st0" d="M75.6,44c0-0.8,0.6-1.3,1.8-1.5l1.2-0.2v0c0-0.4-0.3-0.7-0.8-0.7c-0.5,0-0.8,0.2-0.9,0.6h-1.2
		c0-0.4,0.2-0.8,0.6-1.1c0.4-0.3,0.8-0.5,1.5-0.5c1.4,0,2.1,0.6,2.1,1.7v2.2c0,0.4,0,0.6,0.1,0.8h-1.2c0,0,0-0.2,0-0.5
		c-0.3,0.4-0.8,0.6-1.5,0.6C76.2,45.5,75.6,44.9,75.6,44z M78.6,43.3l-1.1,0.2c-0.5,0.1-0.7,0.3-0.7,0.6s0.2,0.5,0.7,0.5
		c0.7,0,1.1-0.4,1.1-1.1V43.3z"/>
	<path id="XMLID_181_" class="st0" d="M81.6,43.9h1.3c0,0.4,0.3,0.6,0.8,0.6c0.5,0,0.7-0.2,0.7-0.4s-0.4-0.4-0.9-0.5
		c-0.3,0-0.5-0.1-0.7-0.2c-0.5-0.1-0.9-0.6-0.9-1.2c0-0.4,0.2-0.8,0.5-1.1c0.4-0.3,0.8-0.4,1.4-0.4c0.6,0,1.1,0.2,1.4,0.5
		c0.3,0.3,0.5,0.7,0.5,1.1h-1.2c0-0.3-0.3-0.6-0.7-0.6c-0.4,0-0.7,0.2-0.7,0.4s0.4,0.4,0.9,0.5c0.3,0,0.5,0.1,0.7,0.2
		c0.5,0.1,0.9,0.6,0.9,1.3c0,0.4-0.2,0.8-0.5,1.1c-0.4,0.3-0.8,0.4-1.4,0.4C82.4,45.5,81.7,45,81.6,43.9z"/>
	<path id="XMLID_178_" class="st0" d="M87.2,44c0-0.8,0.6-1.3,1.8-1.5l1.2-0.2v0c0-0.4-0.3-0.7-0.8-0.7c-0.5,0-0.8,0.2-0.9,0.6h-1.2
		c0-0.4,0.2-0.8,0.6-1.1c0.4-0.3,0.8-0.5,1.5-0.5c1.4,0,2.1,0.6,2.1,1.7v2.2c0,0.4,0,0.6,0.1,0.8h-1.2c0,0,0-0.2,0-0.5
		c-0.3,0.4-0.8,0.6-1.5,0.6C87.8,45.5,87.2,44.9,87.2,44z M90.3,43.3l-1.1,0.2c-0.5,0.1-0.7,0.3-0.7,0.6s0.2,0.5,0.7,0.5
		c0.7,0,1.1-0.4,1.1-1.1V43.3z"/>
	<path id="XMLID_176_" class="st0" d="M99.9,40.8h1.6l-1.8,2l1.9,2.7h-1.5l-1.2-1.8l-0.7,0.8v1.1h-1.3v-6.7h1.3v4.1L99.9,40.8z"/>
	<path id="XMLID_173_" class="st0" d="M103.6,40.2c-0.2,0-0.4-0.1-0.6-0.2c-0.1-0.1-0.2-0.3-0.2-0.5s0.1-0.4,0.2-0.6
		c0.1-0.1,0.3-0.2,0.6-0.2c0.2,0,0.4,0.1,0.6,0.2c0.1,0.1,0.2,0.3,0.2,0.6c0,0.2-0.1,0.4-0.2,0.5C104.1,40.1,103.9,40.2,103.6,40.2z
		 M103,45.4v-4.6h1.3v4.6H103z"/>
	<path id="XMLID_171_" class="st0" d="M107.6,40.8v0.6c0.2-0.4,0.7-0.7,1.4-0.7c1.1,0,1.7,0.7,1.7,1.8v2.9h-1.3v-2.8
		c0-0.6-0.3-0.9-0.8-0.9c-0.6,0-1,0.4-1,1v2.7h-1.3v-4.6H107.6z"/>
	<path id="XMLID_168_" class="st0" d="M113.5,40.2c-0.2,0-0.4-0.1-0.6-0.2c-0.1-0.1-0.2-0.3-0.2-0.5s0.1-0.4,0.2-0.6
		c0.1-0.1,0.3-0.2,0.6-0.2c0.2,0,0.4,0.1,0.6,0.2c0.1,0.1,0.2,0.3,0.2,0.6c0,0.2-0.1,0.4-0.2,0.5C113.9,40.1,113.7,40.2,113.5,40.2z
		 M112.8,45.4v-4.6h1.3v4.6H112.8z"/>
	<path id="XMLID_166_" class="st0" d="M116.3,44h1.4l-0.8,2.7h-1.1L116.3,44z"/>
	<path id="XMLID_164_" class="st0" d="M125.9,40.8h1.6l-1.8,2l1.9,2.7h-1.5l-1.2-1.8l-0.7,0.8v1.1h-1.3v-6.7h1.3v4.1L125.9,40.8z"/>
	<path id="XMLID_161_" class="st0" d="M128.7,44c0-0.8,0.6-1.3,1.8-1.5l1.2-0.2v0c0-0.4-0.3-0.7-0.8-0.7c-0.5,0-0.8,0.2-0.9,0.6
		h-1.2c0-0.4,0.2-0.8,0.6-1.1c0.4-0.3,0.8-0.5,1.5-0.5c1.4,0,2.1,0.6,2.1,1.7v2.2c0,0.4,0,0.6,0.1,0.8h-1.2c0,0,0-0.2,0-0.5
		c-0.3,0.4-0.8,0.6-1.5,0.6C129.3,45.5,128.7,44.9,128.7,44z M131.7,43.3l-1.1,0.2c-0.5,0.1-0.7,0.3-0.7,0.6s0.2,0.5,0.7,0.5
		c0.7,0,1.1-0.4,1.1-1.1V43.3z"/>
	<path id="XMLID_159_" class="st0" d="M135.3,47.3l0.8-1.9l-1.8-4.6h1.4l1.1,3.1l1.1-3.1h1.3l-2.6,6.5L135.3,47.3L135.3,47.3z"/>
	<path id="XMLID_156_" class="st0" d="M140.3,44c0-0.8,0.6-1.3,1.8-1.5l1.2-0.2v0c0-0.4-0.3-0.7-0.8-0.7c-0.5,0-0.8,0.2-0.9,0.6
		h-1.2c0-0.4,0.2-0.8,0.6-1.1c0.4-0.3,0.8-0.5,1.5-0.5c1.4,0,2.1,0.6,2.1,1.7v2.2c0,0.4,0,0.6,0.1,0.8h-1.2c0,0,0-0.2,0-0.5
		c-0.3,0.4-0.8,0.6-1.5,0.6C140.9,45.5,140.3,44.9,140.3,44z M143.4,43.3l-1.1,0.2c-0.5,0.1-0.7,0.3-0.7,0.6s0.2,0.5,0.7,0.5
		c0.7,0,1.1-0.4,1.1-1.1V43.3z"/>
	<path id="XMLID_154_" class="st0" d="M154.2,45.4H153v-2.8c0-0.6-0.3-0.9-0.7-0.9c-0.6,0-0.9,0.4-0.9,1v2.7H150v-4.6h1.2v0.6
		c0.2-0.4,0.7-0.7,1.4-0.7c0.6,0,1.1,0.2,1.4,0.7c0.4-0.4,0.9-0.7,1.5-0.7c1.1,0,1.7,0.7,1.7,1.8v2.9h-1.2v-2.8
		c0-0.6-0.3-0.9-0.7-0.9c-0.6,0-0.9,0.4-0.9,1V45.4L154.2,45.4z"/>
	<path id="XMLID_151_" class="st0" d="M159.1,44c0-0.8,0.6-1.3,1.8-1.5l1.2-0.2v0c0-0.4-0.3-0.7-0.8-0.7c-0.5,0-0.8,0.2-0.9,0.6
		h-1.2c0-0.4,0.2-0.8,0.6-1.1c0.4-0.3,0.8-0.5,1.5-0.5c1.4,0,2.1,0.6,2.1,1.7v2.2c0,0.4,0,0.6,0.1,0.8h-1.2c0,0,0-0.2,0-0.5
		c-0.3,0.4-0.8,0.6-1.5,0.6C159.6,45.5,159.1,44.9,159.1,44z M162.1,43.3l-1.1,0.2c-0.5,0.1-0.7,0.3-0.7,0.6s0.2,0.5,0.7,0.5
		c0.7,0,1.1-0.4,1.1-1.1V43.3z"/>
	<path id="XMLID_149_" class="st0" d="M165.1,43.9h1.3c0,0.4,0.3,0.6,0.8,0.6c0.5,0,0.7-0.2,0.7-0.4s-0.4-0.4-0.9-0.5
		c-0.3,0-0.5-0.1-0.7-0.2c-0.5-0.1-0.9-0.6-0.9-1.2c0-0.4,0.2-0.8,0.5-1.1s0.8-0.4,1.4-0.4c0.6,0,1.1,0.2,1.4,0.5
		c0.3,0.3,0.5,0.7,0.5,1.1h-1.2c0-0.3-0.3-0.6-0.7-0.6c-0.4,0-0.7,0.2-0.7,0.4s0.4,0.4,0.9,0.5c0.3,0,0.5,0.1,0.7,0.2
		c0.5,0.1,0.9,0.6,0.9,1.3c0,0.4-0.2,0.8-0.5,1.1c-0.4,0.3-0.8,0.4-1.4,0.4C165.8,45.5,165.2,45,165.1,43.9z"/>
	<path id="XMLID_146_" class="st0" d="M170.7,44c0-0.8,0.6-1.3,1.8-1.5l1.2-0.2v0c0-0.4-0.3-0.7-0.8-0.7c-0.5,0-0.8,0.2-0.9,0.6
		h-1.2c0-0.4,0.2-0.8,0.6-1.1c0.4-0.3,0.8-0.5,1.5-0.5c1.4,0,2.1,0.6,2.1,1.7v2.2c0,0.4,0,0.6,0.1,0.8h-1.2c0,0,0-0.2,0-0.5
		c-0.3,0.4-0.8,0.6-1.5,0.6C171.2,45.5,170.7,44.9,170.7,44z M173.7,43.3l-1.1,0.2c-0.5,0.1-0.7,0.3-0.7,0.6s0.2,0.5,0.7,0.5
		c0.7,0,1.1-0.4,1.1-1.1V43.3z"/>
	<path id="XMLID_13_" class="st0" d="M183.6,38.7h1.3v6.7h-1.2v-0.5c-0.3,0.4-0.8,0.7-1.5,0.7c-0.7,0-1.2-0.2-1.6-0.7
		c-0.4-0.5-0.6-1.1-0.6-1.8c0-0.7,0.2-1.3,0.6-1.8c0.4-0.5,0.9-0.7,1.6-0.7c0.6,0,1.1,0.3,1.4,0.6L183.6,38.7L183.6,38.7z
		 M183.7,43.1c0-0.4-0.1-0.7-0.3-1c-0.2-0.3-0.5-0.4-0.8-0.4s-0.6,0.1-0.8,0.4c-0.2,0.3-0.3,0.6-0.3,1s0.1,0.7,0.3,1
		c0.2,0.3,0.5,0.4,0.8,0.4s0.6-0.1,0.8-0.4C183.5,43.8,183.7,43.5,183.7,43.1z"/>
	<path id="XMLID_10_" class="st0" d="M191.4,43.5H188c0.1,0.7,0.5,1,1.1,1c0.4,0,0.7-0.2,0.9-0.5h1.3c-0.1,0.5-0.4,0.8-0.8,1.1
		c-0.4,0.3-0.9,0.4-1.4,0.4c-0.7,0-1.3-0.2-1.7-0.7c-0.4-0.4-0.7-1.1-0.7-1.8c0-0.7,0.2-1.3,0.7-1.7c0.4-0.5,1-0.7,1.7-0.7
		c0.7,0,1.2,0.2,1.7,0.7s0.7,1.1,0.7,1.8L191.4,43.5z M188,42.5h2.1c-0.1-0.5-0.5-0.9-1.1-0.9C188.5,41.6,188.1,42,188,42.5z"/>
	<path id="XMLID_7_" class="st0" d="M194.5,47.3h-1.3v-6.5h1.2v0.6c0.3-0.4,0.8-0.7,1.5-0.7c0.7,0,1.2,0.2,1.6,0.7
		c0.4,0.5,0.6,1.1,0.6,1.8c0,0.7-0.2,1.3-0.6,1.8c-0.4,0.5-0.9,0.7-1.6,0.7c-0.6,0-1.1-0.3-1.4-0.6L194.5,47.3L194.5,47.3
		L194.5,47.3z M194.5,43.1c0,0.4,0.1,0.7,0.3,1c0.2,0.3,0.5,0.4,0.8,0.4c0.4,0,0.6-0.1,0.8-0.4c0.2-0.3,0.3-0.6,0.3-1
		s-0.1-0.7-0.3-1c-0.2-0.3-0.5-0.4-0.8-0.4c-0.4,0-0.6,0.1-0.8,0.4C194.6,42.4,194.5,42.7,194.5,43.1z"/>
	<path id="XMLID_4_" class="st0" d="M199.7,44c0-0.8,0.6-1.3,1.8-1.5l1.2-0.2v0c0-0.4-0.3-0.7-0.8-0.7c-0.5,0-0.8,0.2-0.9,0.6h-1.2
		c0-0.4,0.2-0.8,0.6-1.1c0.4-0.3,0.8-0.5,1.5-0.5c1.4,0,2.1,0.6,2.1,1.7v2.2c0,0.4,0,0.6,0.1,0.8h-1.2c0,0,0-0.2,0-0.5
		c-0.3,0.4-0.8,0.6-1.5,0.6C200.3,45.5,199.7,44.9,199.7,44z M202.7,43.3l-1.1,0.2c-0.5,0.1-0.7,0.3-0.7,0.6s0.2,0.5,0.7,0.5
		c0.7,0,1.1-0.4,1.1-1.1V43.3z"/>
	<path id="XMLID_2_" class="st0" d="M207.2,40.8v0.6c0.2-0.4,0.7-0.7,1.4-0.7c1.1,0,1.7,0.7,1.7,1.8v2.9h-1.3v-2.8
		c0-0.6-0.3-0.9-0.8-0.9c-0.6,0-1,0.4-1,1v2.7h-1.3v-4.6H207.2z"/>
</g>
</svg>
