<svg width="161" height="28" viewBox="0 0 161 28" fill="none" xmlns="http://www.w3.org/2000/svg">
<g clip-path="url(#clip0_4094_5647)">
<path d="M66.2268 25.0901C64.7847 25.0901 63.5029 24.7431 62.3546 24.0758C61.2063 23.3818 60.2717 22.4743 59.5773 21.2999C58.883 20.1254 58.5625 18.8175 58.5625 17.3761C58.5625 15.9347 58.9097 14.6535 59.5773 13.5058C60.2717 12.358 61.1796 11.4505 62.3546 10.7565C63.5029 10.0625 64.8115 9.74219 66.2268 9.74219C67.6689 9.74219 68.9774 10.0892 70.1524 10.7565C71.3274 11.4238 72.2621 12.358 72.9297 13.5058C73.624 14.6535 73.9445 15.9614 73.9445 17.3761C73.9445 18.8175 73.5973 20.1254 72.9297 21.2999C72.2354 22.4743 71.3274 23.4085 70.1524 24.0758C69.0041 24.7431 67.6956 25.0901 66.2268 25.0901ZM66.2268 22.3942C67.1882 22.3942 68.016 22.1807 68.737 21.7536C69.4581 21.3265 70.0189 20.7126 70.4461 19.9652C70.8734 19.2179 71.0604 18.337 71.0604 17.3761C71.0604 16.4152 70.8467 15.5877 70.4194 14.8404C69.9922 14.093 69.4314 13.5058 68.7103 13.0787C67.9893 12.6516 67.1615 12.4381 66.2001 12.4381C65.2921 12.4381 64.4643 12.6516 63.7433 13.0787C63.0222 13.5058 62.4614 14.093 62.0342 14.8404C61.6069 15.5877 61.42 16.4419 61.42 17.3761C61.42 18.337 61.6336 19.2179 62.0342 19.9652C62.4614 20.7126 63.0222 21.3265 63.7433 21.7536C64.5177 22.1807 65.3188 22.3942 66.2268 22.3942Z" fill="black"/>
<path d="M78.5079 7.07349C78.0006 7.07349 77.5734 6.91333 77.2262 6.56634C76.9058 6.21934 76.7188 5.79226 76.7188 5.28512C76.7188 4.77797 76.8791 4.37758 77.2262 4.03059C77.5467 3.68359 77.9739 3.52344 78.5079 3.52344C79.042 3.52344 79.4426 3.68359 79.7898 4.03059C80.1102 4.37758 80.2972 4.77797 80.2972 5.28512C80.2972 5.79226 80.1369 6.21934 79.7898 6.56634C79.4426 6.91333 79.0153 7.07349 78.5079 7.07349ZM77.0926 10.0363H79.9233V24.797H77.0926V10.0363Z" fill="black"/>
<path d="M84.0391 10.0364H86.8431V24.7971H84.0391V10.0364ZM94.454 24.7704V16.1756C94.454 15.0545 94.1068 14.147 93.4125 13.3996C92.7181 12.6789 91.8102 12.3052 90.6886 12.3052C89.9409 12.3052 89.2732 12.4654 88.7124 12.8124C88.1249 13.1327 87.671 13.5865 87.3505 14.1737C87.03 14.7609 86.8431 15.4282 86.8431 16.1489L85.6948 15.5083C85.6948 14.3872 85.9351 13.3996 86.4425 12.5188C86.9499 11.6379 87.6442 10.9706 88.5255 10.4635C89.4068 9.95637 90.4215 9.68945 91.5431 9.68945C92.6647 9.68945 93.6528 9.95637 94.5074 10.5169C95.3619 11.0774 96.0562 11.7981 96.5369 12.7056C97.0443 13.6131 97.2846 14.5741 97.2846 15.5884V24.7437H94.454V24.7704Z" fill="black"/>
<path d="M104.84 24.771L97.8164 3.23047H100.754L106.335 20.7938H105.507L111.009 3.23047H113.118L118.619 20.7938H117.792L123.4 3.23047H126.284L119.26 24.771H117.177L111.649 7.26097H112.451L106.949 24.771H104.84Z" fill="black"/>
<path d="M129.891 7.07349C129.383 7.07349 128.956 6.91333 128.609 6.56634C128.289 6.21934 128.102 5.79226 128.102 5.28512C128.102 4.77797 128.262 4.37758 128.609 4.03059C128.929 3.68359 129.357 3.52344 129.891 3.52344C130.398 3.52344 130.825 3.68359 131.173 4.03059C131.493 4.37758 131.68 4.77797 131.68 5.28512C131.68 5.79226 131.52 6.21934 131.173 6.56634C130.825 6.91333 130.398 7.07349 129.891 7.07349ZM128.449 10.0363H131.279V24.797H128.449V10.0363Z" fill="black"/>
<path d="M135.418 10.0364H138.222V24.7971H135.418V10.0364ZM138.222 16.3891L137.154 15.882C137.154 13.9868 137.581 12.4921 138.462 11.371C139.344 10.2499 140.599 9.68945 142.228 9.68945C142.975 9.68945 143.643 9.82291 144.257 10.0898C144.845 10.3567 145.406 10.7838 145.94 11.371L144.097 13.2661C143.777 12.9458 143.456 12.7056 143.082 12.5455C142.708 12.412 142.281 12.3319 141.774 12.3319C140.732 12.3319 139.878 12.6522 139.237 13.3195C138.542 14.0135 138.222 15.0278 138.222 16.3891Z" fill="black"/>
<path d="M154.243 25.0907C152.747 25.0907 151.412 24.7437 150.237 24.0764C149.062 23.4091 148.127 22.4749 147.46 21.3272C146.765 20.1794 146.445 18.8448 146.445 17.3767C146.445 15.9354 146.792 14.6274 147.46 13.453C148.127 12.3052 149.035 11.371 150.183 10.7037C151.332 10.0364 152.614 9.68945 154.056 9.68945C155.391 9.68945 156.593 10.0097 157.661 10.6236C158.729 11.2375 159.53 12.0917 160.118 13.2128C160.705 14.3071 160.999 15.5617 160.999 16.9763C160.999 17.1899 160.999 17.4034 160.972 17.6437C160.945 17.8839 160.919 18.1508 160.839 18.4444H148.368V16.1222H159.343L158.328 17.0297C158.328 16.0421 158.141 15.188 157.794 14.494C157.447 13.8 156.94 13.2661 156.299 12.8925C155.658 12.5188 154.883 12.3052 153.976 12.3052C153.014 12.3052 152.186 12.5188 151.465 12.9192C150.744 13.3462 150.183 13.9068 149.783 14.6541C149.382 15.4015 149.195 16.2824 149.195 17.2967C149.195 18.3376 149.409 19.2452 149.81 20.0192C150.237 20.7933 150.824 21.4072 151.572 21.8076C152.347 22.2347 153.228 22.4482 154.216 22.4482C155.044 22.4482 155.818 22.3148 156.512 22.0212C157.207 21.7275 157.794 21.3005 158.302 20.7132L160.091 22.555C159.37 23.3824 158.489 24.0231 157.474 24.4501C156.486 24.8772 155.391 25.0907 154.243 25.0907Z" fill="black"/>
<path d="M48.8676 22.288C44.2744 22.288 40.5625 18.5778 40.5625 13.9867C40.5625 9.39568 44.2744 5.68548 48.8676 5.68548C51.1643 5.68548 53.2205 6.6197 54.7427 8.11446L56.7188 6.13925C54.716 4.13734 51.9387 2.88281 48.8676 2.88281C42.7523 2.88281 37.7852 7.84754 37.7852 13.96C37.7852 20.0725 42.7523 25.0372 48.8676 25.0372C51.9387 25.0372 54.716 23.8094 56.7188 21.7808L54.7427 19.8056C53.2472 21.3804 51.1643 22.288 48.8676 22.288Z" fill="black"/>
</g>
<g clip-path="url(#clip1_4094_5647)">
<path d="M24.0602 13.9333C24.0602 15.9352 23.4727 17.8036 22.4312 19.3785L25.3954 22.3413C27.1312 19.9924 28.1727 17.0829 28.1727 13.9333C28.1727 6.85987 22.9386 0.987607 16.1289 0V4.16397C20.6687 5.12488 24.0602 9.12869 24.0602 13.9333Z" fill="#0057FF"/>
<path d="M14.0734 23.8894C8.57222 23.8894 4.08582 19.4318 4.08582 13.9066C4.08582 9.102 7.47733 5.09819 12.0171 4.16397V0C5.23413 0.987607 0 6.85987 0 13.9333C0 21.7007 6.30232 28 14.0734 28C17.2246 28 20.1354 26.959 22.4854 25.224L19.5212 22.2879C17.9723 23.3022 16.103 23.8894 14.0734 23.8894Z" fill="#0057FF"/>
</g>
<defs>
<clipPath id="clip0_4094_5647">
<rect width="124" height="24" fill="white" transform="translate(37 2)"/>
</clipPath>
<clipPath id="clip1_4094_5647">
<rect width="29" height="28" fill="white"/>
</clipPath>
</defs>
</svg>
