<svg width="168" height="36" viewBox="0 0 168 36" fill="none" xmlns="http://www.w3.org/2000/svg">
    <path d="M50.3981 24.3238C49.3102 23.7492 48.4295 22.9134 47.8078 21.8165C47.1861 20.7718 46.8752 19.5703 46.8752 18.2122C46.8752 16.8541 47.1861 15.6527 47.8078 14.608C48.4295 13.5633 49.3102 12.7275 50.3981 12.1007C51.4861 11.5261 52.7294 11.2126 54.1282 11.2126C55.268 11.2126 56.3559 11.4216 57.2885 11.8395C58.221 12.2574 58.9981 12.832 59.6716 13.6155L57.7029 15.4437C56.8222 14.399 55.6824 13.8767 54.3355 13.8767C53.5065 13.8767 52.7812 14.0856 52.1078 14.4513C51.4343 14.8169 50.968 15.3393 50.6054 15.9661C50.2427 16.6452 50.0355 17.3765 50.0355 18.2122C50.0355 19.048 50.2427 19.7793 50.6054 20.4584C50.968 21.1374 51.4861 21.6075 52.1078 21.9732C52.7812 22.3388 53.5065 22.5478 54.3355 22.5478C55.6824 22.5478 56.8222 22.0254 57.7029 20.9285L59.6716 22.7567C59.0499 23.5403 58.221 24.1148 57.2885 24.5327C56.3559 24.9506 55.268 25.1596 54.1282 25.1596C52.7812 25.2118 51.5379 24.8984 50.3981 24.3238Z" fill="#2F3C42"/>
    <path d="M65.3705 14.8169C65.9921 14.5558 66.6656 14.4513 67.4427 14.4513V17.2198C67.1319 17.2198 66.8729 17.1675 66.7692 17.1675C65.8885 17.1675 65.2668 17.4287 64.7488 17.8988C64.2825 18.369 64.0235 19.1003 64.0235 20.0927V25.0029H61.0187V14.608H63.8681V15.9661C64.2825 15.4438 64.7488 15.0781 65.3705 14.8169Z" fill="#2F3C42"/>
    <path d="M79.3059 14.608L74.6433 25.6298C74.1771 26.8312 73.6072 27.6669 72.8819 28.1371C72.2084 28.6072 71.3277 28.8684 70.3433 28.8684C69.8253 28.8684 69.2554 28.7639 68.7373 28.6072C68.2192 28.4505 67.8048 28.1893 67.4421 27.9281L68.5301 25.7865C68.7373 25.9954 69.0482 26.1521 69.3072 26.2566C69.618 26.3611 69.9289 26.4133 70.1879 26.4133C70.6024 26.4133 70.9132 26.3088 71.1722 26.0999C71.4313 25.8909 71.6385 25.5775 71.8457 25.1074L72.053 25.0552L67.5976 14.608H70.6542L73.5554 21.6598L76.4566 14.608H79.3059Z" fill="#2F3C42"/>
    <path d="M88.7872 15.0781C89.5643 15.5482 90.186 16.1228 90.6523 16.9586C91.1185 17.7421 91.3257 18.6824 91.3257 19.7793C91.3257 20.8763 91.1185 21.7643 90.6523 22.6001C90.186 23.3836 89.6161 24.0104 88.7872 24.4805C88.0101 24.8984 87.1294 25.1596 86.1969 25.1596C84.9017 25.1596 83.8655 24.7417 83.0884 23.9059V28.7116H80.0836V14.608H82.933V15.8094C83.6583 14.9214 84.7463 14.4513 86.145 14.4513C87.1294 14.4513 87.9583 14.6602 88.7872 15.0781ZM87.5438 21.8688C88.0101 21.3464 88.2691 20.6673 88.2691 19.7793C88.2691 18.8913 88.0101 18.2123 87.5438 17.6899C87.0776 17.1675 86.4041 16.9064 85.6788 16.9064C84.9017 16.9064 84.28 17.1675 83.8137 17.6899C83.3475 18.2123 83.0884 18.8913 83.0884 19.7793C83.0884 20.6673 83.3475 21.3464 83.8137 21.8688C84.28 22.3911 84.9535 22.6523 85.6788 22.6523C86.4041 22.6523 87.0258 22.3911 87.5438 21.8688Z" fill="#2F3C42"/>
    <path d="M99.4594 24.4805C99.1485 24.6895 98.7859 24.8462 98.3714 24.9507C97.957 25.0551 97.4907 25.1074 97.0245 25.1074C95.7811 25.1074 94.8486 24.794 94.1751 24.1671C93.5016 23.5403 93.1907 22.6001 93.1907 21.3986V17.1153H91.5847V14.8169H93.1907V12.3096H96.1955V14.8169H98.7341V17.1153H96.1955V21.3464C96.1955 21.7643 96.2992 22.1299 96.5064 22.3389C96.7136 22.6001 97.0245 22.7045 97.4389 22.7045C97.9052 22.7045 98.3196 22.6001 98.6305 22.3389L99.4594 24.4805Z" fill="#2F3C42"/>
    <path d="M102.308 24.4283C101.428 23.9582 100.754 23.3314 100.288 22.5478C99.8217 21.712 99.5626 20.824 99.5626 19.7793C99.5626 18.7346 99.8217 17.8466 100.288 17.0108C100.754 16.1751 101.428 15.5482 102.308 15.1304C103.189 14.6602 104.122 14.4513 105.21 14.4513C106.298 14.4513 107.282 14.6602 108.111 15.1304C108.991 15.6005 109.613 16.2273 110.131 17.0108C110.598 17.8466 110.857 18.7346 110.857 19.7793C110.857 20.824 110.598 21.712 110.131 22.5478C109.665 23.3836 108.991 24.0104 108.111 24.4283C107.282 24.8984 106.298 25.1074 105.21 25.1074C104.122 25.1074 103.137 24.8984 102.308 24.4283ZM107.075 21.8688C107.541 21.3464 107.8 20.6673 107.8 19.7793C107.8 18.8913 107.541 18.2123 107.075 17.6899C106.608 17.1675 105.935 16.9064 105.21 16.9064C104.432 16.9064 103.811 17.1675 103.293 17.6899C102.775 18.2123 102.567 18.8913 102.567 19.7793C102.567 20.6673 102.826 21.3464 103.293 21.8688C103.811 22.3911 104.432 22.6523 105.21 22.6523C105.987 22.6523 106.608 22.3911 107.075 21.8688Z" fill="#2F3C42"/>
    <path d="M128.471 11.4738V25.0028H125.932L119.249 16.8018V25.0028H116.193V11.4738H118.731L125.414 19.6748V11.4738H128.471Z" fill="#2F3C42"/>
    <path d="M141.008 20.6151H133.237C133.393 21.2419 133.704 21.7643 134.222 22.1299C134.74 22.4956 135.413 22.7045 136.19 22.7045C136.708 22.7045 137.226 22.6 137.641 22.4433C138.055 22.2866 138.418 22.0254 138.781 21.6598L140.387 23.3836C139.402 24.4805 138.004 25.0551 136.138 25.0551C134.999 25.0551 133.963 24.8462 133.082 24.376C132.201 23.9059 131.476 23.2791 131.01 22.4956C130.543 21.6598 130.284 20.7718 130.284 19.7271C130.284 18.7346 130.543 17.7944 131.01 16.9586C131.476 16.1228 132.149 15.496 132.978 15.0259C133.807 14.5557 134.74 14.3468 135.776 14.3468C136.76 14.3468 137.693 14.5557 138.522 15.0259C139.351 15.4437 139.972 16.0706 140.438 16.9063C140.905 17.7421 141.112 18.6824 141.112 19.7271C141.06 19.8838 141.06 20.145 141.008 20.6151ZM134.014 17.272C133.548 17.6376 133.289 18.16 133.185 18.8391H138.263C138.159 18.16 137.9 17.6376 137.434 17.272C136.967 16.9063 136.398 16.6974 135.724 16.6974C135.051 16.6974 134.481 16.9063 134.014 17.272Z" fill="#2F3C42"/>
    <path d="M158.934 14.608L155.204 25.0029H152.354L150.023 18.5779L147.64 25.0029H144.79L141.008 14.608H143.806L146.241 21.6076L148.779 14.608H151.318L153.753 21.6076L156.24 14.608H158.934Z" fill="#2F3C42"/>
    <path d="M160.643 24.7939C159.814 24.585 159.193 24.3238 158.675 24.0104L159.659 21.8688C160.125 22.1822 160.695 22.3911 161.317 22.6001C161.99 22.809 162.612 22.8612 163.234 22.8612C164.477 22.8612 165.151 22.5478 165.151 21.921C165.151 21.6076 164.995 21.3986 164.632 21.2942C164.27 21.1897 163.752 21.033 163.026 20.9807C162.198 20.8763 161.472 20.7196 160.954 20.5106C160.384 20.3539 159.918 20.0405 159.504 19.6226C159.089 19.2047 158.882 18.5779 158.882 17.7944C158.882 17.1153 159.089 16.5407 159.452 16.0706C159.814 15.6005 160.384 15.1826 161.11 14.8692C161.835 14.608 162.664 14.4513 163.648 14.4513C164.373 14.4513 165.099 14.5558 165.824 14.7125C166.549 14.8692 167.119 15.0781 167.637 15.3915L166.653 17.5332C165.772 17.0108 164.736 16.7497 163.7 16.7497C163.078 16.7497 162.56 16.8541 162.249 17.0108C161.939 17.1675 161.783 17.4287 161.783 17.6899C161.783 18.0033 161.939 18.2123 162.301 18.369C162.664 18.4734 163.182 18.6301 163.959 18.7346C164.788 18.8913 165.513 19.048 166.031 19.2047C166.549 19.3614 167.016 19.6749 167.43 20.0927C167.845 20.5106 168 21.0852 168 21.8688C168 22.4956 167.793 23.0702 167.43 23.5925C167.067 24.1149 166.498 24.4805 165.772 24.7417C165.047 25.0029 164.166 25.1596 163.182 25.1596C162.301 25.1074 161.472 25.0029 160.643 24.7939Z" fill="#2F3C42"/>
    <g clip-path="url(#clip0_5805_4930)">
        <path d="M3.35401 8.19489C3.01922 8.38818 2.74124 8.66624 2.54806 9.0011C2.35487 9.33595 2.25329 9.71579 2.25354 10.1024V23.5024L8.60691 19.8342V13.7706C8.60666 13.384 8.70824 13.0042 8.90143 12.6693C9.09461 12.3345 9.37259 12.0564 9.70738 11.8631L14.9566 8.82948V1.49303L3.35401 8.19489Z" fill="#FEC40E"/>
        <path d="M21.3102 1.49296V8.82942L19.2339 7.62993C18.8994 7.43675 18.5198 7.33506 18.1335 7.33506C17.7471 7.33506 17.3676 7.43675 17.033 7.62993L14.9568 8.82942V1.49296L17.033 0.293468C17.3676 0.100296 17.7471 -0.00139618 18.1335 -0.00139618C18.5198 -0.00139618 18.8994 0.100296 19.2339 0.293468L21.3102 1.49296Z" fill="url(#paint0_linear_5805_4930)"/>
        <path d="M34.0168 8.82948V8.83315L27.6634 12.4977L21.3101 8.82948V1.49303L34.0168 8.82948Z" fill="#FED504"/>
        <path d="M18.1334 18.0037V25.3402L11.78 21.672V14.3355L18.1334 18.0037Z" fill="#FED504"/>
        <path d="M24.4868 14.3354L18.1334 18.0037L11.78 14.3354L18.1334 10.6635L24.4868 14.3354Z" fill="#FFE600"/>
        <path d="M27.6634 23.506L19.2265 28.3738C18.8919 28.5669 18.5124 28.6686 18.126 28.6686C17.7397 28.6686 17.3602 28.5669 17.0256 28.3738L11.78 25.3401L5.42664 29.0084L17.0329 35.7102C17.3675 35.9034 17.747 36.0051 18.1334 36.0051C18.5197 36.0051 18.8993 35.9034 19.2338 35.7102L34.0168 27.1742L27.6634 23.506Z" fill="#FFE600"/>
        <path d="M24.4868 14.3355V21.672L18.1334 25.3402V18.0037L24.4868 14.3355Z" fill="#FEC40E"/>
        <path d="M11.7801 25.3365L8.60337 27.1706L5.42669 29.0047L3.35047 27.8052C3.01622 27.6122 2.73859 27.3347 2.54543 27.0006C2.35228 26.6664 2.2504 26.2873 2.25 25.9014V23.5024L5.42669 21.6682L8.60337 19.8341V22.2295C8.60312 22.6161 8.7047 22.9959 8.89789 23.3308C9.09107 23.6656 9.36905 23.9437 9.70384 24.137L11.7801 25.3365Z" fill="url(#paint1_linear_5805_4930)"/>
    </g>
    <defs>
        <linearGradient id="paint0_linear_5805_4930" x1="14.9568" y1="4.41288" x2="21.3102" y2="4.41288" gradientUnits="userSpaceOnUse">
            <stop stop-color="#FEC40E"/>
            <stop offset="1" stop-color="#FED504"/>
        </linearGradient>
        <linearGradient id="paint1_linear_5805_4930" x1="7.96143" y1="27.5484" x2="4.78108" y2="22.0424" gradientUnits="userSpaceOnUse">
            <stop stop-color="#FFE600"/>
            <stop offset="1" stop-color="#FEC40E"/>
        </linearGradient>
        <clipPath id="clip0_5805_4930">
            <rect width="36" height="36" fill="white"/>
        </clipPath>
    </defs>
</svg>