<svg width="141" height="38" viewBox="0 0 141 38" fill="none" xmlns="http://www.w3.org/2000/svg">
<g clip-path="url(#clip0_6133_953)">
<path d="M50.0436 15.2238C49.895 13.2675 48.2854 10.5312 44.311 10.5312C40.8938 10.5312 38.207 12.8961 38.207 17.5391C38.207 22.1202 40.7452 24.5098 44.2739 24.5098C47.6045 24.5098 49.4864 22.4916 50.0436 19.6068H47.2702C46.9359 21.2411 45.8711 22.1078 44.3358 22.1078C41.9833 22.1078 41.0424 19.9658 41.0424 17.5762C41.0424 13.8247 42.9986 12.9332 44.3358 12.9332C46.6263 12.9332 47.0473 14.4314 47.2702 15.2238H50.0436ZM92.5735 19.2353C92.5735 15.6819 90.1839 14.0599 87.5467 14.0599C84.9095 14.0599 82.5199 15.6819 82.5199 19.2353C82.5199 22.7888 84.9095 24.4107 87.5467 24.4107C90.1963 24.4107 92.5735 22.7764 92.5735 19.2353ZM89.9115 19.2353C89.9115 20.4859 89.5401 22.2316 87.5467 22.2316C85.5533 22.2316 85.1819 20.4982 85.1819 19.2353C85.1819 17.9724 85.5533 16.2391 87.5467 16.2391C89.5525 16.2391 89.9115 17.9724 89.9115 19.2353ZM80.7122 11.6456H78.1245V14.3076H76.7997V16.1524H78.1245V22.1202C78.1245 23.3955 78.5331 24.2498 80.7617 24.2498H81.096C81.5046 24.2498 81.9132 24.2374 82.3218 24.2126V22.2564C82.136 22.2688 81.9503 22.2935 81.7894 22.2935C80.7369 22.2935 80.7122 22.0707 80.7122 21.5011V16.1524H82.3218V14.3076H80.7122V11.6456ZM50.7989 24.1507H53.3866V19.0249C53.3866 17.9353 53.758 16.6724 55.7762 16.6724C56.0114 16.6724 56.2962 16.6724 56.519 16.7095V14.0847C56.3581 14.0723 56.1847 14.0476 56.0238 14.0476C54.4514 14.0476 53.857 15.0133 53.3247 16.0038H53.2875V14.3076H50.8112V24.1507H50.7989Z" fill="#4BA565"/>
<path d="M66.6592 14.3198H63.9229L61.9048 21.5629H61.8676L59.7628 14.3198H56.8779L60.5057 24.5592C60.258 25.9088 59.7504 26.045 58.8094 26.045C58.5866 26.045 58.4256 26.0202 58.3142 26.0078V28.0755C58.6856 28.0879 59.1313 28.1126 59.478 28.1126C61.7314 28.1126 62.0657 27.6298 63.2915 23.9897L66.6592 14.3198Z" fill="#4BA565"/>
<path d="M69.656 19.4583C69.656 17.8859 70.0769 16.3011 71.8598 16.3011C73.5066 16.3011 74.0637 17.7621 74.0637 19.3097C74.0637 20.4736 73.6056 22.2813 71.9341 22.2813C70.275 22.2813 69.656 20.9069 69.656 19.4583ZM69.656 14.3201H67.1797V28.0015H69.755V22.9003H69.7921C70.1017 23.4327 70.7579 24.4109 72.5656 24.4109C75.4876 24.4109 76.7009 21.8232 76.7009 19.124C76.7009 15.7192 74.7818 14.0601 72.6151 14.0601C70.8817 14.0601 70.1512 14.9639 69.6683 15.7439H69.6312V14.3201H69.656Z" fill="#4BA565"/>
<path d="M6.53613 22.69C9.28479 28.4102 13.8906 32.0132 18.1375 34.2666C18.1498 34.279 18.5089 34.4647 18.5089 34.4647C18.5089 34.4647 18.868 34.279 18.8803 34.2666C26.0739 30.4779 34.2827 22.7767 32.7722 7.58478L29.6026 6.21045C29.0083 10.9154 26.111 14.8774 22.0747 17.7499C21.5299 18.1337 20.9604 18.5051 20.3661 18.8518L20.9356 23.1357C21.0099 23.7053 20.4651 24.1882 19.8956 24.1882H17.0108C16.4412 24.1882 15.884 23.7053 15.9707 23.1357L16.2679 20.8328C13.4944 21.8976 10.5105 22.5291 7.5514 22.6776C7.20473 22.6776 6.87043 22.69 6.53613 22.69Z" fill="#4BA565"/>
<path d="M4.24525 7.58434C3.70047 13.1436 4.44335 17.6999 5.97863 21.4391C6.48627 21.4514 6.98152 21.4391 7.48916 21.4143C10.5474 21.2657 13.6303 20.56 16.4656 19.3961L16.7009 17.5885C15.8094 16.9942 15.2151 15.9789 15.2151 14.8274C15.2151 13.0074 16.7009 11.5216 18.5209 11.5216C20.341 11.5216 21.8268 13.0074 21.8268 14.8274C21.8268 15.6075 21.5544 16.338 21.0839 16.9075C21.1705 16.8456 21.2572 16.7837 21.3439 16.7218C25.0583 14.0845 27.7327 10.4692 28.3393 6.23477C24.8602 7.15099 21.6906 5.95001 19.7343 3.3623H18.5828H18.4714H17.3199C15.2151 6.14811 11.7112 7.32433 7.93489 5.99953L4.24525 7.58434Z" fill="white"/>
<path d="M31.0753 1.71582C31.2857 1.71582 31.4838 1.80249 31.62 1.93869C31.7562 2.07488 31.8429 2.27298 31.8429 2.48347C31.8429 2.69395 31.7562 2.89205 31.62 3.02824C31.4838 3.16444 31.2857 3.25111 31.0753 3.25111C30.8648 3.25111 30.6667 3.16444 30.5305 3.02824C30.3943 2.89205 30.3076 2.69395 30.3076 2.48347C30.3076 2.27298 30.3943 2.07488 30.5305 1.93869C30.6667 1.81487 30.8648 1.71582 31.0753 1.71582ZM30.7905 2.97872V1.97583H31.1495C31.2238 1.97583 31.2734 1.98821 31.3229 2.00059C31.36 2.01297 31.3848 2.05012 31.4096 2.08726C31.4343 2.13679 31.4467 2.18631 31.4467 2.23584C31.4467 2.31013 31.4219 2.37203 31.3848 2.42156C31.3476 2.47108 31.2857 2.49584 31.2115 2.50823C31.2486 2.52061 31.2734 2.54537 31.2857 2.55775C31.3229 2.5949 31.3476 2.64442 31.3724 2.68157L31.521 2.96634C31.5334 2.95396 31.5457 2.95395 31.5581 2.94157C31.6819 2.81776 31.7562 2.6568 31.7562 2.47108C31.7562 2.28536 31.6819 2.12441 31.5581 2.00059C31.4343 1.87678 31.2734 1.80249 31.0876 1.80249C30.9019 1.80249 30.741 1.87678 30.6172 2.00059C30.4933 2.12441 30.419 2.28536 30.419 2.47108C30.419 2.6568 30.4933 2.81776 30.6172 2.94157C30.741 3.06539 30.9019 3.13967 31.0876 3.13967C31.2115 3.13967 31.3229 3.10253 31.4219 3.05301L31.2734 2.75585C31.2362 2.66918 31.1991 2.61966 31.1743 2.5949C31.1495 2.57013 31.1372 2.54537 31.1124 2.53299C31.0876 2.52061 31.0629 2.52061 31.0257 2.52061H30.9019V2.96634H30.7905V2.97872ZM30.8895 2.42156H31.1248C31.1743 2.42156 31.2115 2.40918 31.2362 2.40918C31.261 2.3968 31.2857 2.37203 31.2981 2.34727C31.3105 2.32251 31.3229 2.28536 31.3229 2.2606C31.3229 2.21107 31.3105 2.17393 31.2734 2.14917C31.2486 2.11202 31.1991 2.09964 31.1495 2.09964H30.8895V2.42156Z" fill="white"/>
<path d="M93.7744 24.1507H99.5194C103.902 24.1507 105.029 20.0525 105.029 17.1924C105.029 14.679 104.1 10.8655 99.6308 10.8655H93.7744V24.1507ZM132.664 14.3199H129.928L127.91 21.563H127.873L125.768 14.3199H122.883L126.511 24.5593C126.275 25.9088 125.755 26.045 124.814 26.045C124.592 26.045 124.431 26.0203 124.307 26.0079V28.0756C124.678 28.088 125.124 28.1127 125.471 28.1127C127.724 28.1127 128.058 27.6299 129.284 23.9897L132.664 14.3199ZM122.016 10.8779H119.429V24.1507H122.016V10.8779ZM115.281 14.3199V24.1507H117.869V14.3199H115.281ZM117.869 10.7417H115.281V13.1437H117.869V10.7417ZM113.894 16.8952C113.894 14.4685 111.356 14.0475 109.969 14.0475C107.951 14.0475 105.871 14.4685 105.574 17.4895H108.075C108.149 16.92 108.372 16.1152 109.66 16.1152C110.328 16.1152 111.356 16.1771 111.356 17.2543C111.356 17.8114 110.861 17.9724 110.452 18.0343L108.124 18.381C106.478 18.6162 105.264 19.6067 105.264 21.5259C105.264 23.5564 106.775 24.3983 108.261 24.3983C110.019 24.3983 110.848 23.5812 111.443 22.9745C111.504 23.5316 111.542 23.6802 111.69 24.1383H114.476V23.7669C114.166 23.6554 113.906 23.3954 113.906 22.2316V16.8952H113.894ZM111.356 20.622C111.356 21.823 110.192 22.5659 109.041 22.5659C108.545 22.5659 107.84 22.2935 107.84 21.3773C107.84 20.3001 108.632 20.0649 109.598 19.9039C110.663 19.7306 111.096 19.5696 111.356 19.3715V20.622ZM96.4859 13.1684H99.1479C100.337 13.1684 102.194 13.4904 102.194 17.4029C102.194 19.582 101.438 21.8601 99.1851 21.8601H96.4859V13.1684Z" fill="white"/>
<path d="M134.274 9.65233V10.7295C134.274 10.7543 134.262 10.779 134.249 10.8038C134.237 10.8286 134.212 10.8286 134.187 10.8286H134.014C133.989 10.8286 133.964 10.8162 133.94 10.8038C133.915 10.7914 133.915 10.7666 133.915 10.7295V7.96846C133.915 7.9437 133.927 7.91894 133.94 7.89417C133.952 7.86941 133.977 7.86941 134.014 7.86941H135.004C135.277 7.86941 135.512 7.9437 135.685 8.09228C135.834 8.24085 135.933 8.45134 135.933 8.72373V8.78563C135.933 8.98373 135.884 9.15707 135.76 9.30565C135.661 9.42946 135.512 9.52851 135.326 9.59042L135.896 10.68C135.908 10.6924 135.908 10.7047 135.921 10.7171C135.921 10.7295 135.921 10.7419 135.921 10.7543C135.921 10.779 135.908 10.7914 135.896 10.8038C135.884 10.8162 135.859 10.8286 135.846 10.8286H135.611C135.586 10.8286 135.562 10.8162 135.549 10.8038C135.537 10.7914 135.524 10.779 135.512 10.7543L134.943 9.65233H134.274ZM134.819 6.87891C135.512 6.87891 136.144 7.16368 136.602 7.62179C137.06 8.0799 137.345 8.71134 137.345 9.4047C137.345 10.0981 137.06 10.7295 136.602 11.1876C136.144 11.6457 135.512 11.9305 134.819 11.9305C134.125 11.9305 133.494 11.6457 133.036 11.1876C132.578 10.7295 132.293 10.0981 132.293 9.4047C132.293 8.71134 132.578 8.0799 133.036 7.62179C133.482 7.16368 134.125 6.87891 134.819 6.87891ZM136.354 7.85703C135.958 7.46083 135.413 7.2132 134.806 7.2132C134.2 7.2132 133.655 7.46083 133.259 7.85703C132.863 8.25323 132.615 8.79801 132.615 9.4047C132.615 10.0114 132.863 10.5562 133.259 10.9524C133.655 11.3486 134.2 11.5962 134.806 11.5962C135.413 11.5962 135.958 11.3486 136.354 10.9524C136.75 10.5562 136.998 10.0114 136.998 9.4047C136.998 8.79801 136.75 8.25323 136.354 7.85703ZM134.274 8.22847V9.30565H134.98C135.141 9.30565 135.289 9.25612 135.401 9.16946C135.487 9.08279 135.549 8.97135 135.549 8.8104V8.73611C135.549 8.56277 135.487 8.43896 135.401 8.35229C135.289 8.25323 135.141 8.21609 134.98 8.21609H134.274V8.22847Z" fill="white"/>
</g>
<defs>
<clipPath id="clip0_6133_953">
<rect width="141" height="38" fill="white"/>
</clipPath>
</defs>
</svg>
