<?xml version="1.0" encoding="utf-8"?>
<!-- Generator: Adobe Illustrator 25.2.3, SVG Export Plug-In . SVG Version: 6.00 Build 0)  -->
<svg version="1.1" id="Layer_1" xmlns="http://www.w3.org/2000/svg" xmlns:xlink="http://www.w3.org/1999/xlink" x="0px" y="0px"
	 width="1000px" height="108px" viewBox="0 0 1000 108" style="enable-background:new 0 0 1000 108;" xml:space="preserve">
<style type="text/css">
	.st0{fill:#FFFFFF;}
</style>
<path class="st0" d="M122.2,90.1l10.6,16.2H32.4c-1.9,0-3.8-0.2-5.6-0.5c-1.8-0.3-3.5-0.8-5.2-1.3c-6.2-2.2-11.5-6.1-15.4-11.2
	c-1.1-1.5-2.1-3.1-3-4.7C1,84.1-0.3,79-0.3,73.6v-39c0-18,14.7-32.7,32.7-32.7h40.8c-0.3,0.3-0.5,0.5-0.8,0.8
	c-0.5,0.5-1,1.1-1.4,1.6C71,4.3,71,4.3,71,4.4c-0.1,0.2-0.3,0.4-0.4,0.6c-0.1,0.1-0.1,0.2-0.2,0.2L60.2,20.8H32.4
	c-7.6,0-13.7,6.2-13.7,13.7v39c0,0.2,0,0.4,0,0.7c0.1,2.5,0.9,4.8,2.2,6.8c0.8,1.3,1.8,2.4,3,3.3l0.3,0.3c0.3,0.3,0.7,0.5,1,0.7
	c0.2,0.1,0.4,0.3,0.6,0.4c0.6,0.3,1.3,0.6,1.9,0.8c0.2,0.1,0.4,0.1,0.6,0.2c0.9,0.3,1.8,0.4,2.7,0.5c0.1,0,0.2,0,0.3,0
	c0.3,0,0.6,0,0.9,0h88L122.2,90.1z M161.5,106.3L97.3,8C94.8,4.1,90.6,1.8,86,1.8c-3.3,0-6.4,1.2-8.8,3.2l-0.5,0.5
	c-0.2,0.2-0.4,0.4-0.5,0.5c-0.4,0.4-0.7,0.8-1,1.2C75,7.5,74.8,7.7,74.6,8L27.3,80.6c1.4,1.1,3.2,1.7,5.1,1.7h16.4L86,25.4l8.6,47.7
	l8.6-21.4l35.7,54.6H161.5z M560.8,66.5h-40.4l-6.5,16.7h-13.2L533.7,3h13.6l33.1,80.2h-13.2L560.8,66.5z M523.8,56.2h33.3
	l-16.5-39.3L523.8,56.2z M576.8,54.6c0-17.4,12.3-29.2,28.5-29.2c9.6,0,16,3.5,20.2,8.9V0.1h11.7v83.1h-11.7v-7.7
	c-4.2,5.4-10.6,8.9-20.2,8.9C589.1,84.4,576.8,72,576.8,54.6z M606.7,35.8c-10.9,0-18.2,8.3-18.2,18.7s7.3,19.3,18.2,19.3
	s18.7-8.9,18.7-19.3S617.5,35.8,606.7,35.8z M685.3,26.5h12.6l-22.3,56.7h-13.9l-22.3-56.7h12.6l16.7,45.2L685.3,26.5z M748.2,78.8
	c-6.6,3.7-13.7,5.6-21.6,5.6c-19.1,0-32.2-12-32.2-29.5c0-16.9,12.2-29.5,29.2-29.5c18.4,0,30.3,15.4,26.9,33.8h-44.1
	c2.1,9.3,9.3,14.4,20.3,14.4c6.6,0,12.3-1.7,19.8-5.3L748.2,78.8z M739.9,49.8c-0.8-8.2-6.7-13.8-16-13.8s-16.3,5.6-17.2,13.8H739.9
	z M809.1,48.8v34.4h-11.7V51.3c0-9.4-5.1-14.8-13.9-14.8c-8.6,0-15.6,5.4-15.6,14.8v31.9h-11.7V26.5h11.8v7.1
	c1.9-2.9,7.3-8.3,17.4-8.3C800.9,25.3,809.1,35,809.1,48.8z M832.2,36.4v28.3c0,6,3.5,9,9.3,9c2.7,0,6.4-0.5,9.2-1.4l1.5,10
	c-2.8,1.1-7.9,1.9-12.4,1.9c-11.9,0-19.3-6.7-19.3-18.2V36.4h-10.1v-9.9h10.3V8.3H832v18.2h16.8v9.9H832.2z M893.4,26.5H905v33.7
	c-0.1,14.3-10.6,24.2-25.8,24.2c-15.4,0-25.9-9.7-25.9-23.9v-34h11.8v32c0,8.7,5.7,14.9,14.1,14.9c8.4,0,14.2-6.1,14.2-14.9V26.5z
	 M924.9,34.3c3.2-6.2,8.6-8.9,14.8-8.9c4.4,0,7.8,1.4,7.8,1.4l-1.2,10.7c-0.6-0.2-3.2-1.3-6.9-1.3c-6.3,0-14.4,3.3-14.4,16.1v30.9
	h-11.8V26.5h11.8V34.3z M997.2,78.8c-6.6,3.7-13.7,5.6-21.6,5.6c-19.1,0-32.2-12-32.2-29.5c0-16.9,12.2-29.5,29.2-29.5
	c18.4,0,30.3,15.4,26.9,33.8h-44.1c2.1,9.3,9.3,14.4,20.3,14.4c6.6,0,12.3-1.7,19.8-5.3L997.2,78.8z M988.9,49.8
	c-0.8-8.2-6.7-13.8-16-13.8s-16.3,5.6-17.2,13.8H988.9z"/>
<g>
	<path class="st0" d="M233.8,79.1c-4.4,1.9-11.8,5.3-25.8,5.3c-27.3,0-45.9-16.8-45.9-41.3c0-24.4,18.5-41.2,45.8-41.2
		c10.7,0,20.4,2.9,25,5.1l-1.2,11.7c-4.3-2.1-13-5-23.7-5c-19.3,0-32.4,11.9-32.4,29.4c0,17.5,13.8,29.6,34,29.6
		c9.5,0,18-2.7,22.7-5.3L233.8,79.1z"/>
	<path class="st0" d="M249.5,34.3c3.2-6.2,8.6-8.9,14.8-8.9c4.4,0,7.8,1.4,7.8,1.4l-1.2,10.7c-0.6-0.2-3.2-1.3-6.9-1.3
		c-6.3,0-14.4,3.3-14.4,16.1v30.9h-11.8V26.5h11.8V34.3z"/>
	<path class="st0" d="M314.6,26.5h12.9l-27.2,63.9c-4.5,10.5-9.4,17.6-23.3,17.6c-5,0-8.4-1.5-9.4-2.1l1.2-9.7
		c1.6,0.7,4.7,1.5,7.6,1.5c7.6,0,10.7-3.8,13.2-10.5l1.2-3.2l-24.4-57.5h12.9L297,71.2L314.6,26.5z"/>
	<path class="st0" d="M389.4,55.2c0,17.4-12.3,29.2-28.5,29.2c-9.6,0-16-3.5-20.2-8.9v31.4h-11.7V26.5h11.7v7.7
		c4.2-5.4,10.6-8.9,20.2-8.9C377.1,25.3,389.4,37.7,389.4,55.2z M359.5,73.9c10.9,0,18.2-8.3,18.2-18.7s-7.3-19.3-18.2-19.3
		s-18.7,8.9-18.7,19.3S348.7,73.9,359.5,73.9z"/>
	<path class="st0" d="M409,36.4v28.3c0,6,3.5,9,9.3,9c2.7,0,6.4-0.5,9.2-1.4l1.5,10c-2.8,1.1-7.9,1.9-12.4,1.9
		c-11.9,0-19.3-6.7-19.3-18.2V36.4h-10.1v-9.9h10.3V8.3h11.4v18.2h16.8v9.9H409z"/>
	<path class="st0" d="M456.5,25.3c17.2,0,30.1,12.9,30.1,29.5s-12.9,29.5-30.1,29.5s-30.1-12.9-30.1-29.5S439.2,25.3,456.5,25.3z
		 M456.5,73.4c10.7,0,18.4-8.1,18.4-18.5s-7.7-18.5-18.4-18.5c-10.7,0-18.4,8.1-18.4,18.5S445.8,73.4,456.5,73.4z"/>
</g>
</svg>
