<svg width="1225" height="245" viewBox="0 0 1225 245" fill="none" xmlns="http://www.w3.org/2000/svg">
<path fill-rule="evenodd" clip-rule="evenodd" d="M812.43 140.5C805.41 140.5 799.71 146.18 799.7 153.2C799.7 160.22 805.4 165.9 812.43 165.9C819.45 165.91 825.15 160.23 825.16 153.2C825.16 146.17 819.46 140.49 812.43 140.49V140.5ZM1222.96 130.83C1221.61 127.83 1219.63 125.16 1217.15 123C1214.45 120.68 1211.4 118.82 1208.11 117.48C1204.6 116.01 1200.64 114.78 1196.21 113.8C1189.07 112.08 1183.81 110.45 1180.43 108.92C1177.05 107.39 1175.36 105.26 1175.36 102.56C1175.36 100.35 1176.38 98.4801 1178.4 96.9401C1180.43 95.4101 1184.03 94.6401 1189.19 94.6401C1194.35 94.6401 1198.84 95.3501 1202.66 96.7701C1206.47 98.1801 1209.55 99.7501 1211.88 101.46L1223.14 86.1801C1218.77 82.9601 1213.87 80.5301 1208.65 79.0001C1203.3 77.4101 1196.81 76.61 1189.18 76.61C1184.87 76.61 1180.61 77.2201 1176.36 78.4501C1172.12 79.6801 1168.3 81.4301 1164.92 83.7001C1161.54 85.9701 1158.8 88.8001 1156.71 92.1701C1154.62 95.5401 1153.57 99.3801 1153.57 103.68C1153.57 107.98 1154.46 111.45 1156.25 114.45C1158.03 117.46 1160.31 120.04 1163.08 122.19C1165.85 124.33 1168.83 126.02 1172.02 127.25C1175.22 128.48 1178.3 129.46 1181.25 130.2C1186.05 131.3 1189.86 132.35 1192.69 133.33C1195.51 134.31 1197.73 135.3 1199.33 136.28C1200.92 137.27 1201.97 138.28 1202.47 139.32C1202.96 140.36 1203.2 141.5 1203.2 142.73C1203.2 145.55 1201.79 147.57 1198.96 148.81C1196.13 150.04 1192.38 150.65 1187.7 150.65C1182.41 150.65 1177.7 149.76 1173.59 147.98C1169.47 146.2 1166.06 143.96 1163.35 141.26L1150.25 155.44C1154.18 159.86 1159.41 163.2 1165.93 165.47C1172.45 167.74 1179.77 168.88 1187.88 168.88C1192.92 168.88 1197.69 168.24 1202.18 166.94C1206.39 165.78 1210.37 163.95 1213.99 161.51C1217.37 159.18 1220.04 156.32 1222.01 152.95C1223.97 149.58 1224.96 145.8 1224.96 141.62C1224.96 137.44 1224.29 133.86 1222.93 130.85L1222.96 130.83ZM1128.5 79.55L1112.09 139.58L1093.64 79.55H1075.38L1057.12 139.58L1040.52 79.55H1016.53L1045.87 165.9H1066.16L1083.32 113.79L1101.03 165.9H1122.06L1151.4 79.55H1128.52H1128.5ZM995.66 113.61C995.61 108.92 993.8 104.41 990.59 100.99C988.78 99.1101 986.61 97.61 984.22 96.58C981.64 95.42 978.69 94.83 975.36 94.83C971.8 94.83 968.63 95.41 965.87 96.58C963.31 97.62 960.96 99.1101 958.95 101C957.16 102.7 955.72 104.73 954.71 106.98C953.72 109.19 953.23 111.4 953.23 113.61H995.66ZM1015.77 108.09C1017.25 113.98 1017.99 120 1017.99 126.13V129.26H953.41C953.41 132.45 954.11 135.34 955.53 137.91C956.94 140.49 958.79 142.7 961.07 144.54C963.34 146.38 965.93 147.79 968.82 148.78C971.71 149.76 974.57 150.25 977.39 150.25C981.57 150.25 985.23 149.85 988.37 149.06C991.51 148.26 994.18 147.34 996.39 146.3C998.61 145.26 1000.42 144.16 1001.84 142.98C1003.25 141.82 1004.33 140.87 1005.06 140.13L1016.87 153.38L1013.83 156.42C1012.18 158.07 1009.77 159.83 1006.63 161.67C1003.49 163.51 999.49 165.17 994.64 166.64C989.78 168.11 983.97 168.85 977.21 168.85C970.45 168.85 964.04 167.69 958.39 165.36C952.94 163.17 948.01 159.88 943.9 155.68C939.82 151.44 936.68 146.39 934.68 140.86C932.53 135.09 931.45 128.71 931.45 121.71C931.45 115.33 932.53 109.41 934.68 103.95C936.73 98.6501 939.8 93.8001 943.72 89.6801C947.65 85.5901 952.35 82.34 957.56 80.11C962.91 77.78 968.84 76.61 975.36 76.61C983.23 76.61 989.91 78.0501 995.38 80.9301C1000.85 83.8101 1005.25 87.5901 1008.57 92.2601C1011.94 97.0401 1014.38 102.41 1015.76 108.09H1015.77ZM888.65 77.7101C885.21 77.7101 882.13 78.0801 879.43 78.8101C876.73 79.5401 874.29 80.5001 872.14 81.6601C869.98 82.8301 868.14 84.0901 866.6 85.4401C865.07 86.7901 863.75 88.07 862.64 89.3L862.09 79.55H841.24V165.9H863.01V119.14C863.01 115.95 863.53 112.97 864.58 110.21C865.62 107.45 867.07 105.03 868.92 102.93C870.76 100.85 872.98 99.22 875.56 98.05C878.17 96.88 881 96.28 883.87 96.3C888.67 96.3 892.57 97.8101 895.58 100.81C898.6 103.82 900.11 108.08 900.11 113.61V165.89H921.88V113.42C921.88 102.5 919.05 93.81 913.4 87.36C907.74 80.92 899.5 77.6901 888.67 77.6901L888.65 77.7101ZM768.54 122.64C768.54 119.58 768.05 116.41 767.07 113.16C766.11 109.96 764.58 106.97 762.55 104.32C760.48 101.65 757.87 99.4601 754.89 97.8801C751.81 96.2301 748.18 95.3901 744 95.3901C739.82 95.3901 736.19 96.2201 733.12 97.8801C730.05 99.5301 727.49 101.68 725.46 104.32C723.43 106.97 721.9 109.96 720.94 113.16C719.98 116.23 719.49 119.43 719.46 122.64C719.46 125.83 719.95 129.02 720.94 132.21C721.92 135.4 723.45 138.39 725.46 141.05C727.49 143.75 730.04 145.93 733.12 147.59C736.19 149.24 739.82 150.08 744 150.08C748.18 150.08 751.81 149.25 754.89 147.59C757.96 145.94 760.51 143.76 762.55 141.05C764.57 138.35 766.08 135.4 767.07 132.21C768.05 129.02 768.54 125.83 768.54 122.64ZM787.09 104.88C789.36 110.46 790.5 116.38 790.5 122.64C790.5 128.9 789.36 134.83 787.09 140.4C784.89 145.87 781.67 150.87 777.59 155.13C773.43 159.44 768.44 162.86 762.92 165.17C757.2 167.62 750.9 168.85 744.01 168.85C737.12 168.85 730.82 167.62 725.1 165.17C719.58 162.85 714.59 159.43 710.43 155.13C706.35 150.87 703.13 145.87 700.93 140.41C698.64 134.77 697.48 128.73 697.51 122.64C697.51 116.38 698.65 110.46 700.93 104.88C703.12 99.4301 706.34 94.4601 710.43 90.2401C714.61 85.9801 719.6 82.6001 725.1 80.2901C730.82 77.8401 737.12 76.61 744.01 76.61C750.9 76.61 757.2 77.8301 762.92 80.2901C768.42 82.6001 773.41 85.9801 777.59 90.2401C781.67 94.4601 784.9 99.4301 787.08 104.88H787.09ZM681.59 148.79C679.56 149.77 676.82 150.26 673.38 150.26C669.69 150.26 667.01 148.94 665.36 146.3C663.69 143.67 662.87 139.89 662.87 134.97V97.2301H686.11V79.55H662.87V51.5601H641.1V79.55H626.34V97.2301H641.1V136.45C641.1 141.23 641.59 145.63 642.58 149.61C643.56 153.6 645.2 157 647.47 159.83C649.75 162.65 652.73 164.83 656.42 166.37C660.11 167.9 664.6 168.67 669.89 168.67C675.18 168.67 679.73 167.9 683.91 166.37C688.09 164.83 692.33 162.28 696.64 158.73L687.42 145.29C685.59 146.63 683.65 147.81 681.61 148.79H681.59ZM600.32 123.19C600.32 119.51 599.92 116.07 599.12 112.88C598.4 109.86 597.08 107.01 595.25 104.5C593.43 102.08 591.06 100.12 588.33 98.7901C585.5 97.3801 582 96.6701 577.81 96.6701C574.49 96.6701 571.48 97.3801 568.77 98.7901C566.06 100.2 563.76 102.01 561.85 104.22C559.95 106.43 558.47 108.86 557.43 111.49C556.38 114.14 555.86 116.68 555.86 119.13V144.72C560.16 148.28 566.68 150.06 575.42 150.06C579.35 150.06 582.86 149.29 585.94 147.76C588.94 146.28 591.6 144.22 593.78 141.68C595.93 139.16 597.59 136.25 598.67 133.12C599.78 129.92 600.34 126.56 600.33 123.18L600.32 123.19ZM619.88 106.44C621.48 111.84 622.28 117.42 622.28 123.19C622.28 129.94 621.29 135.71 619.33 140.5C617.52 145.02 615.03 149.24 611.95 153.02C607.03 158.91 601.65 163.02 595.8 165.36C590.08 167.67 583.98 168.85 577.81 168.86C574.98 168.86 572.55 168.74 570.52 168.49C567.04 168.1 563.63 167.26 560.37 166L555.86 164.25V202.73H534.27V79.5601H555.3L555.85 89.3201C556.96 88.1001 558.34 86.8101 560 85.4601C561.66 84.1101 563.63 82.8801 565.9 81.7801C568.17 80.6801 570.76 79.7501 573.65 79.0201C576.54 78.2901 579.77 77.9201 583.34 77.9201C589.98 77.9201 595.73 79.2101 600.59 81.7801C605.45 84.3601 609.47 87.7601 612.67 92.0001C615.92 96.3401 618.36 101.24 619.87 106.45L619.88 106.44ZM482.62 138.66L457.89 79.55H432.8L471.73 165.18L468.96 172.17C466.87 177.33 464.87 181.13 462.96 183.59C461.05 186.04 458.62 187.27 455.67 187.27C453.46 187.27 451.62 186.81 450.13 185.89C448.72 185.02 447.37 184.07 446.08 183.04L436.3 198.32C438.75 200.4 441.62 202.03 444.88 203.2C448.14 204.36 452.23 204.95 457.15 204.95C462.81 204.95 467.48 203.72 471.18 201.27C474.9 198.78 478.07 195.55 480.49 191.79C483.06 187.82 485.2 183.59 486.86 179.17C488.57 174.63 490.3 170.22 492.03 165.92L528.19 79.5701H504.39L482.62 138.68V138.66ZM418.78 77.8901C415.21 77.8901 412.04 78.3201 409.28 79.1801C406.51 80.0401 404.08 81.0901 401.99 82.3201C399.9 83.5401 398.08 84.8901 396.55 86.3701C395.01 87.8401 393.74 89.1901 392.76 90.4201L392.21 79.5601H371.36V165.91H393.13V119.33C393.13 116.14 393.71 113.25 394.88 110.68C396.04 108.11 397.62 105.9 399.59 104.05C401.55 102.21 403.89 100.8 406.6 99.8201C409.31 98.8401 412.14 98.3401 415.09 98.3401C417.17 98.3401 418.99 98.4601 420.53 98.7101C422.06 98.9601 423.57 99.3801 425.05 100L429.48 79.5701C427.76 78.9601 426.07 78.5301 424.41 78.2801C422.55 78.0201 420.66 77.9001 418.78 77.9101V77.8901ZM306.43 112.51C305.45 115.8 304.95 119.21 304.95 122.63C304.95 125.94 305.44 129.2 306.42 132.39C307.41 135.59 308.91 138.47 310.95 141.04C312.98 143.61 315.53 145.71 318.61 147.3C321.69 148.89 325.31 149.69 329.49 149.69C333.67 149.69 337.73 148.86 341.3 147.21C344.76 145.64 347.84 143.35 350.34 140.49L363.26 154.48C359.16 158.8 354.28 162.31 348.87 164.79C343.33 167.36 336.88 168.65 329.5 168.65C322.12 168.65 315.54 167.55 309.76 165.34C303.98 163.12 299.12 159.99 295.18 155.94C291.18 151.78 288.09 146.82 286.14 141.39C284.05 135.75 283 129.49 283 122.61C283 116.35 284.14 110.43 286.41 104.85C288.6 99.4001 291.83 94.4301 295.92 90.2101C300.1 85.9501 305.09 82.5701 310.59 80.2601C316.31 77.8101 322.61 76.58 329.5 76.58C336.39 76.58 342.91 77.8401 348.69 80.3501C354.25 82.7201 359.28 86.1901 363.45 90.5701L349.61 104.57C347.21 101.79 344.26 99.5401 340.94 97.9401C337.61 96.3501 333.8 95.55 329.5 95.55C325.2 95.55 321.69 96.3201 318.62 97.8501C315.55 99.3801 312.99 101.38 310.96 103.83C308.88 106.38 307.34 109.32 306.44 112.48L306.43 112.51Z" fill="white"/>
<path fill-rule="evenodd" clip-rule="evenodd" d="M245.5 122.5C245.5 54.84 190.55 0 122.75 0C54.95 0 0 54.84 0 122.5C0 190.16 54.96 245 122.75 245C190.54 245 245.5 190.16 245.5 122.5Z" fill="#0080C9"/>
<path fill-rule="evenodd" clip-rule="evenodd" d="M54.7998 150.38C50.5198 150.38 47.0498 153.84 47.0498 158.12C47.0498 162.4 50.5198 165.86 54.7998 165.86C59.0798 165.86 62.5498 162.4 62.5498 158.12C62.5498 153.84 59.0798 150.38 54.7998 150.38ZM195.75 195.37C215.17 176.11 226.06 149.87 225.99 122.51C225.99 95.17 214.79 68.44 195.27 49.19C193.75 47.69 191.3 47.7 189.79 49.22C188.29 50.73 188.3 53.18 189.81 54.68H189.82C207.93 72.62 218.16 97.02 218.24 122.51C218.3 147.81 208.23 172.08 190.27 189.89C172.39 207.83 148.08 217.88 122.75 217.8C97.4198 217.87 73.1198 207.83 55.2298 189.89C37.2698 172.08 27.1998 147.81 27.2598 122.51C27.1998 97.21 37.2698 72.94 55.2298 55.13C78.7498 31.66 111.31 22.36 144.56 29.6C146.63 30.13 148.74 28.88 149.27 26.81C149.8 24.74 148.55 22.63 146.48 22.1C146.39 22.08 146.3 22.06 146.21 22.04C110.32 14.22 75.1598 24.28 49.7398 49.66C30.3198 68.92 19.4298 95.16 19.4998 122.51C19.4998 150.02 30.2398 175.9 49.7398 195.36C69.0698 214.75 95.3498 225.61 122.74 225.53C150.32 225.53 176.24 214.81 195.74 195.36M170.63 27.86C166.34 27.86 162.87 31.33 162.87 35.6C162.87 39.87 166.34 43.34 170.62 43.34C174.89 43.51 178.49 40.18 178.66 35.91C178.83 31.64 175.5 28.04 171.23 27.87C171.02 27.87 170.82 27.87 170.61 27.87M179.72 179.38C211.14 148.02 211.14 97.0001 179.72 65.6401C148.3 34.2801 97.1599 34.2801 65.7299 65.6401C46.3999 84.8701 38.1698 112.6 43.8898 139.26C44.4698 141.33 46.6098 142.53 48.6698 141.96C50.5498 141.43 51.7498 139.59 51.4698 137.66C46.2998 113.56 53.7298 88.49 71.1998 71.11C99.5998 42.76 145.81 42.76 174.22 71.11C202.62 99.45 202.62 145.57 174.22 173.91C160.59 187.6 142.05 195.26 122.73 195.2H122.07C102.52 195.09 83.8398 187.08 70.2898 172.98C68.7298 171.51 66.2798 171.59 64.8098 173.15C63.4398 174.6 63.3998 176.86 64.7198 178.36C79.7098 193.95 100.38 202.81 122.01 202.93H122.73C144.25 202.93 164.47 194.58 179.7 179.37M122.71 177.38C92.3898 177.38 67.7198 152.76 67.7198 122.5C67.7198 92.24 92.3898 67.62 122.71 67.62C140.9 67.62 157.92 76.6 168.18 91.62C171 95.74 169.93 101.36 165.8 104.16C161.67 106.97 156.05 105.9 153.23 101.78C146.35 91.69 134.92 85.66 122.71 85.66C102.36 85.66 85.8098 102.19 85.8098 122.49C85.8098 142.79 102.37 159.32 122.71 159.32C134.92 159.32 146.35 153.29 153.23 143.2C156.05 139.08 161.67 138.01 165.8 140.82C169.93 143.63 170.99 149.24 168.18 153.36C157.92 168.38 140.91 177.37 122.71 177.36" fill="white"/>
</svg>
