<?xml version="1.0" encoding="UTF-8" standalone="no"?>
<!-- Generator: Adobe Illustrator 23.0.5, SVG Export Plug-In . SVG Version: 6.00 Build 0)  -->

<svg
   xmlns:dc="http://purl.org/dc/elements/1.1/"
   xmlns:cc="http://creativecommons.org/ns#"
   xmlns:rdf="http://www.w3.org/1999/02/22-rdf-syntax-ns#"
   xmlns:svg="http://www.w3.org/2000/svg"
   xmlns="http://www.w3.org/2000/svg"
   xmlns:sodipodi="http://sodipodi.sourceforge.net/DTD/sodipodi-0.dtd"
   xmlns:inkscape="http://www.inkscape.org/namespaces/inkscape"
   version="1.1"
   id="Layer_1"
   x="0px"
   y="0px"
   viewBox="0 0 237 53"
   xml:space="preserve"
   sodipodi:docname="CryptocurrencyInsiderToday-logo-b16-SVG_cropped.html"
   width="237"
   height="53"
   inkscape:version="0.92.3 (2405546, 2018-03-11)"><metadata
   id="metadata71"><rdf:RDF><cc:Work
       rdf:about=""><dc:format>image/svg+xml</dc:format><dc:type
         rdf:resource="http://purl.org/dc/dcmitype/StillImage" /></cc:Work></rdf:RDF></metadata><defs
   id="defs69" /><sodipodi:namedview
   pagecolor="#ffffff"
   bordercolor="#666666"
   borderopacity="1"
   objecttolerance="10"
   gridtolerance="10"
   guidetolerance="10"
   inkscape:pageopacity="0"
   inkscape:pageshadow="2"
   inkscape:window-width="640"
   inkscape:window-height="480"
   id="namedview67"
   showgrid="false"
   inkscape:zoom="0.835"
   inkscape:cx="127.7"
   inkscape:cy="20.2"
   inkscape:window-x="0"
   inkscape:window-y="0"
   inkscape:window-maximized="0"
   inkscape:current-layer="Layer_1" />
<style
   type="text/css"
   id="style2">
	.st0{fill:#4C4B4B;}
	.st1{enable-background:new    ;}
</style>
<g
   id="g8"
   transform="translate(-72.3,-79.7)">
	<path
   class="st0"
   d="m 287.8,117.7 c -6.1,-1 -10.7,-6.5 -10.3,-12.9 0.4,-5.7 4.7,-10.5 10.3,-11.4 v -4.8 0 -7.1 c 0,-1 -0.8,-1.8 -1.8,-1.8 -1,0 -1.8,0.8 -1.8,1.8 v 5 c -8.1,2.4 -14,9.9 -14,18.8 0,8.9 5.9,16.4 14,18.8 v 6.7 c 0,1 0.8,1.8 1.8,1.8 1,0 1.8,-0.8 1.8,-1.8 v -7.1 0 z"
   id="path4"
   inkscape:connector-curvature="0"
   style="fill:#4c4b4b" />
	<path
   class="st0"
   d="m 309.3,105.3 c 0,-8.9 -6,-16.5 -14.2,-18.8 v -5 c 0,-1 -0.8,-1.8 -1.8,-1.8 v 0 c -1,0 -1.8,0.8 -1.8,1.8 v 7.1 0 4.8 c 3.4,0.5 6.4,2.4 8.3,5.1 0.7,1 0.8,2.4 0.1,3.4 -1.6,2.4 -5.4,0.4 -5.4,0.4 v 0 c -1.1,-1.5 -2.8,-2.6 -4.8,-2.6 -3.4,0 -6.2,3 -5.8,6.5 0.3,2.7 2.5,4.9 5.2,5.1 2.5,0.3 4.7,-1.1 5.8,-3.1 v 0 c 2.8,-1.1 4.3,-0.5 5.1,0.4 0.8,0.9 0.9,2.3 0.2,3.4 -1.9,3 -5,5.2 -8.7,5.7 v 6.1 0 7.1 c 0,1 0.8,1.8 1.8,1.8 v 0 c 1,0 1.8,-0.8 1.8,-1.8 v -6.7 c 8.2,-2.4 14.2,-10 14.2,-18.9 z"
   id="path6"
   inkscape:connector-curvature="0"
   style="fill:#4c4b4b" />
</g>
<g
   class="st1"
   id="g38"
   style="enable-background:new"
   transform="translate(-72.3,-79.7)">
	<path
   class="st0"
   d="m 75.8,103.2 c -1.1,-0.6 -2,-1.4 -2.6,-2.5 -0.6,-1.1 -0.9,-2.2 -0.9,-3.6 0,-1.4 0.3,-2.5 0.9,-3.6 0.6,-1.1 1.5,-1.9 2.6,-2.5 1.1,-0.6 2.3,-0.9 3.7,-0.9 1.2,0 2.2,0.2 3.1,0.6 0.9,0.4 1.7,1 2.4,1.8 l -2,1.8 c -0.9,-1 -2,-1.6 -3.4,-1.6 -0.8,0 -1.6,0.2 -2.2,0.5 -0.7,0.4 -1.2,0.9 -1.5,1.5 -0.4,0.7 -0.5,1.4 -0.5,2.2 0,0.8 0.2,1.6 0.5,2.2 0.4,0.7 0.9,1.2 1.5,1.5 0.7,0.4 1.4,0.5 2.2,0.5 1.3,0 2.5,-0.5 3.4,-1.6 l 2,1.8 c -0.6,0.8 -1.4,1.4 -2.4,1.8 -0.9,0.4 -2,0.6 -3.2,0.6 -1.3,0.4 -2.5,0.1 -3.6,-0.5 z"
   id="path10"
   inkscape:connector-curvature="0"
   style="fill:#4c4b4b" />
	<path
   class="st0"
   d="M 95.6,103.8 93,100.1 h -0.2 -2.7 v 3.7 H 87 V 90.4 h 5.8 c 1.2,0 2.2,0.2 3.1,0.6 0.9,0.4 1.5,1 2,1.7 0.5,0.7 0.7,1.6 0.7,2.6 0,1 -0.2,1.9 -0.7,2.6 -0.5,0.7 -1.2,1.3 -2,1.7 l 3,4.3 H 95.6 Z M 94.8,93.6 C 94.3,93.2 93.6,93 92.7,93 h -2.5 v 4.7 h 2.5 c 0.9,0 1.6,-0.2 2.1,-0.6 0.5,-0.4 0.7,-1 0.7,-1.7 0.1,-0.8 -0.2,-1.4 -0.7,-1.8 z"
   id="path12"
   inkscape:connector-curvature="0"
   style="fill:#4c4b4b" />
	<path
   class="st0"
   d="m 107.4,99.1 v 4.7 h -3.1 V 99 l -5.2,-8.6 h 3.3 l 3.6,6 3.6,-6 h 3 z"
   id="path14"
   inkscape:connector-curvature="0"
   style="fill:#4c4b4b" />
	<path
   class="st0"
   d="m 122.6,91 c 0.9,0.4 1.5,1 2,1.7 0.5,0.7 0.7,1.6 0.7,2.6 0,1 -0.2,1.8 -0.7,2.6 -0.5,0.7 -1.1,1.3 -2,1.7 -0.9,0.4 -1.9,0.6 -3.1,0.6 h -2.7 v 3.7 h -3.1 V 90.4 h 5.8 c 1.2,0 2.3,0.2 3.1,0.6 z m -1.1,6 c 0.5,-0.4 0.7,-1 0.7,-1.7 0,-0.8 -0.2,-1.3 -0.7,-1.7 C 121,93.2 120.3,93 119.4,93 h -2.5 v 4.7 h 2.5 c 0.9,-0.1 1.6,-0.3 2.1,-0.7 z"
   id="path16"
   inkscape:connector-curvature="0"
   style="fill:#4c4b4b" />
	<path
   class="st0"
   d="m 130,93 h -4.3 v -2.5 h 11.7 V 93 h -4.3 v 10.9 H 130 Z"
   id="path18"
   inkscape:connector-curvature="0"
   style="fill:#4c4b4b" />
	<path
   class="st0"
   d="m 141.6,103.2 c -1.1,-0.6 -2,-1.4 -2.6,-2.5 -0.6,-1.1 -0.9,-2.2 -0.9,-3.5 0,-1.3 0.3,-2.5 0.9,-3.5 0.6,-1.1 1.5,-1.9 2.6,-2.5 1.1,-0.6 2.4,-0.9 3.8,-0.9 1.4,0 2.6,0.3 3.8,0.9 1.1,0.6 2,1.4 2.6,2.5 0.6,1.1 1,2.2 1,3.5 0,1.3 -0.3,2.5 -1,3.5 -0.6,1.1 -1.5,1.9 -2.6,2.5 -1.1,0.6 -2.4,0.9 -3.8,0.9 -1.5,0 -2.7,-0.3 -3.8,-0.9 z m 5.9,-2.3 c 0.6,-0.4 1.1,-0.9 1.5,-1.5 0.4,-0.7 0.5,-1.4 0.5,-2.2 0,-0.8 -0.2,-1.6 -0.5,-2.2 -0.4,-0.7 -0.9,-1.2 -1.5,-1.5 -0.6,-0.4 -1.4,-0.5 -2.1,-0.5 -0.7,0 -1.5,0.2 -2.1,0.5 -0.6,0.4 -1.1,0.9 -1.5,1.5 -0.4,0.7 -0.5,1.4 -0.5,2.2 0,0.8 0.2,1.6 0.5,2.2 0.4,0.7 0.9,1.2 1.5,1.5 0.6,0.4 1.4,0.5 2.1,0.5 0.7,0 1.4,-0.2 2.1,-0.5 z"
   id="path20"
   inkscape:connector-curvature="0"
   style="fill:#4c4b4b" />
	<path
   class="st0"
   d="m 157.7,103.2 c -1.1,-0.6 -2,-1.4 -2.6,-2.5 -0.6,-1.1 -0.9,-2.2 -0.9,-3.6 0,-1.4 0.3,-2.5 0.9,-3.6 0.6,-1.1 1.5,-1.9 2.6,-2.5 1.1,-0.6 2.3,-0.9 3.7,-0.9 1.2,0 2.2,0.2 3.1,0.6 0.9,0.4 1.7,1 2.4,1.8 l -2,1.8 c -0.9,-1 -2,-1.6 -3.4,-1.6 -0.8,0 -1.6,0.2 -2.2,0.5 -0.7,0.4 -1.2,0.9 -1.5,1.5 -0.4,0.7 -0.5,1.4 -0.5,2.2 0,0.8 0.2,1.6 0.5,2.2 0.4,0.7 0.9,1.2 1.5,1.5 0.7,0.4 1.4,0.5 2.2,0.5 1.3,0 2.5,-0.5 3.4,-1.6 l 2,1.8 c -0.6,0.8 -1.4,1.4 -2.4,1.8 -0.9,0.4 -2,0.6 -3.2,0.6 -1.3,0.4 -2.5,0.1 -3.6,-0.5 z"
   id="path22"
   inkscape:connector-curvature="0"
   style="fill:#4c4b4b" />
	<path
   class="st0"
   d="m 170.4,102.5 c -1.1,-1.1 -1.6,-2.6 -1.6,-4.5 v -7.5 h 3.1 v 7.4 c 0,2.4 1,3.6 3,3.6 1,0 1.7,-0.3 2.2,-0.9 0.5,-0.6 0.8,-1.5 0.8,-2.7 V 90.5 H 181 V 98 c 0,2 -0.5,3.5 -1.6,4.5 -1.1,1.1 -2.6,1.6 -4.5,1.6 -1.9,0 -3.5,-0.6 -4.5,-1.6 z"
   id="path24"
   inkscape:connector-curvature="0"
   style="fill:#4c4b4b" />
	<path
   class="st0"
   d="m 192.5,103.8 -2.6,-3.7 h -0.2 -2.7 v 3.7 h -3 V 90.4 h 5.8 c 1.2,0 2.2,0.2 3.1,0.6 0.9,0.4 1.5,1 2,1.7 0.5,0.7 0.7,1.6 0.7,2.6 0,1 -0.2,1.9 -0.7,2.6 -0.5,0.7 -1.2,1.3 -2,1.7 l 3,4.3 h -3.4 z M 191.7,93.6 C 191.2,93.2 190.5,93 189.6,93 h -2.5 v 4.7 h 2.5 c 0.9,0 1.6,-0.2 2.1,-0.6 0.5,-0.4 0.7,-1 0.7,-1.7 0.1,-0.8 -0.2,-1.4 -0.7,-1.8 z"
   id="path26"
   inkscape:connector-curvature="0"
   style="fill:#4c4b4b" />
	<path
   class="st0"
   d="m 206.6,103.8 -2.6,-3.7 h -0.2 -2.7 v 3.7 H 198 V 90.4 h 5.8 c 1.2,0 2.2,0.2 3.1,0.6 0.9,0.4 1.5,1 2,1.7 0.5,0.7 0.7,1.6 0.7,2.6 0,1 -0.2,1.9 -0.7,2.6 -0.5,0.7 -1.2,1.3 -2,1.7 l 3,4.3 h -3.3 z M 205.8,93.6 C 205.3,93.2 204.6,93 203.7,93 h -2.5 v 4.7 h 2.5 c 0.9,0 1.6,-0.2 2.1,-0.6 0.5,-0.4 0.7,-1 0.7,-1.7 0,-0.8 -0.2,-1.4 -0.7,-1.8 z"
   id="path28"
   inkscape:connector-curvature="0"
   style="fill:#4c4b4b" />
	<path
   class="st0"
   d="m 222.5,101.4 v 2.5 H 212.1 V 90.4 h 10.1 v 2.5 h -7 v 2.9 h 6.2 v 2.4 h -6.2 v 3.1 h 7.3 z"
   id="path30"
   inkscape:connector-curvature="0"
   style="fill:#4c4b4b" />
	<path
   class="st0"
   d="m 237.2,90.4 v 13.4 h -2.5 L 228,95.7 v 8.1 h -3.1 V 90.4 h 2.6 l 6.7,8.1 v -8.1 z"
   id="path32"
   inkscape:connector-curvature="0"
   style="fill:#4c4b4b" />
	<path
   class="st0"
   d="m 243.1,103.2 c -1.1,-0.6 -2,-1.4 -2.6,-2.5 -0.6,-1.1 -0.9,-2.2 -0.9,-3.6 0,-1.4 0.3,-2.5 0.9,-3.6 0.6,-1.1 1.5,-1.9 2.6,-2.5 1.1,-0.6 2.3,-0.9 3.7,-0.9 1.2,0 2.2,0.2 3.1,0.6 0.9,0.4 1.7,1 2.4,1.8 l -2,1.8 c -0.9,-1 -2,-1.6 -3.4,-1.6 -0.8,0 -1.6,0.2 -2.2,0.5 -0.6,0.3 -1.2,0.9 -1.5,1.5 -0.4,0.7 -0.5,1.4 -0.5,2.2 0,0.8 0.2,1.6 0.5,2.2 0.4,0.7 0.9,1.2 1.5,1.5 0.7,0.4 1.4,0.5 2.2,0.5 1.3,0 2.5,-0.5 3.4,-1.6 l 2,1.8 c -0.6,0.8 -1.4,1.4 -2.4,1.8 -1,0.4 -2,0.6 -3.2,0.6 -1.2,0.4 -2.5,0.1 -3.6,-0.5 z"
   id="path34"
   inkscape:connector-curvature="0"
   style="fill:#4c4b4b" />
	<path
   class="st0"
   d="m 260.7,99.1 v 4.7 h -3.1 V 99 l -5.2,-8.6 h 3.3 l 3.6,6 3.6,-6 h 3 z"
   id="path36"
   inkscape:connector-curvature="0"
   style="fill:#4c4b4b" />
</g>
<g
   class="st1"
   id="g64"
   style="enable-background:new"
   transform="translate(-72.3,-79.7)">
	<path
   class="st0"
   d="m 108.9,113.4 h 3.1 v 13.4 h -3.1 z"
   id="path40"
   inkscape:connector-curvature="0"
   style="fill:#4c4b4b" />
	<path
   class="st0"
   d="m 127.4,113.4 v 13.4 h -2.5 l -6.7,-8.1 v 8.1 h -3.1 v -13.4 h 2.6 l 6.7,8.1 v -8.1 z"
   id="path42"
   inkscape:connector-curvature="0"
   style="fill:#4c4b4b" />
	<path
   class="st0"
   d="m 131.9,126.6 c -1,-0.3 -1.8,-0.7 -2.4,-1.1 l 1.1,-2.3 c 0.6,0.4 1.3,0.8 2,1 0.7,0.2 1.6,0.4 2.4,0.4 0.9,0 1.5,-0.1 2,-0.4 0.4,-0.3 0.6,-0.6 0.6,-1 0,-0.3 -0.1,-0.6 -0.4,-0.8 -0.2,-0.2 -0.6,-0.4 -1,-0.5 -0.4,-0.1 -0.9,-0.3 -1.6,-0.4 -1,-0.2 -1.9,-0.5 -2.5,-0.7 -0.7,-0.2 -1.2,-0.6 -1.7,-1.2 -0.5,-0.5 -0.7,-1.3 -0.7,-2.1 0,-0.8 0.2,-1.5 0.6,-2.1 0.4,-0.6 1.1,-1.1 1.9,-1.5 0.8,-0.4 1.9,-0.6 3.1,-0.6 0.9,0 1.7,0.1 2.5,0.3 0.8,0.2 1.5,0.5 2.1,0.9 l -1,2.4 c -1.2,-0.7 -2.5,-1.1 -3.7,-1.1 -0.9,0 -1.5,0.1 -1.9,0.4 -0.4,0.3 -0.6,0.7 -0.6,1.1 0,0.5 0.2,0.8 0.7,1 0.5,0.2 1.2,0.4 2.2,0.7 1,0.2 1.9,0.5 2.5,0.7 0.7,0.2 1.2,0.6 1.7,1.1 0.5,0.5 0.7,1.2 0.7,2.1 0,0.8 -0.2,1.5 -0.6,2.1 -0.4,0.6 -1.1,1.1 -1.9,1.5 -0.8,0.4 -1.9,0.6 -3.1,0.6 -1,0 -2,-0.2 -3,-0.5 z"
   id="path44"
   inkscape:connector-curvature="0"
   style="fill:#4c4b4b" />
	<path
   class="st0"
   d="m 142.8,113.4 h 3.1 v 13.4 h -3.1 z"
   id="path46"
   inkscape:connector-curvature="0"
   style="fill:#4c4b4b" />
	<path
   class="st0"
   d="m 149.1,113.4 h 6.1 c 1.5,0 2.7,0.3 3.9,0.8 1.1,0.6 2,1.3 2.6,2.3 0.6,1 0.9,2.2 0.9,3.5 0,1.3 -0.3,2.5 -0.9,3.5 -0.6,1 -1.5,1.8 -2.6,2.3 -1.1,0.6 -2.4,0.8 -3.9,0.8 h -6.1 z m 5.9,10.9 c 1.3,0 2.4,-0.4 3.2,-1.1 0.8,-0.7 1.2,-1.8 1.2,-3 0,-1.2 -0.4,-2.3 -1.2,-3 -0.8,-0.7 -1.9,-1.1 -3.2,-1.1 h -2.8 v 8.3 h 2.8 z"
   id="path48"
   inkscape:connector-curvature="0"
   style="fill:#4c4b4b" />
	<path
   class="st0"
   d="m 175.2,124.4 v 2.5 H 164.8 V 113.5 H 175 v 2.5 h -7 v 2.9 h 6.2 v 2.4 H 168 v 3.1 z"
   id="path50"
   inkscape:connector-curvature="0"
   style="fill:#4c4b4b" />
	<path
   class="st0"
   d="m 186.3,126.8 -2.6,-3.7 h -0.2 -2.7 v 3.7 h -3.1 v -13.4 h 5.8 c 1.2,0 2.2,0.2 3.1,0.6 0.9,0.4 1.5,1 2,1.7 0.5,0.7 0.7,1.6 0.7,2.6 0,1 -0.2,1.9 -0.7,2.6 -0.5,0.7 -1.2,1.3 -2,1.7 l 3,4.3 h -3.3 z m -0.8,-10.2 c -0.5,-0.4 -1.2,-0.6 -2.1,-0.6 h -2.5 v 4.7 h 2.5 c 0.9,0 1.6,-0.2 2.1,-0.6 0.5,-0.4 0.7,-1 0.7,-1.7 0,-0.8 -0.2,-1.4 -0.7,-1.8 z"
   id="path52"
   inkscape:connector-curvature="0"
   style="fill:#4c4b4b" />
	<path
   class="st0"
   d="m 200,116 h -4.3 v -2.5 h 11.7 v 2.5 h -4.3 v 10.9 H 200 Z"
   id="path54"
   inkscape:connector-curvature="0"
   style="fill:#4c4b4b" />
	<path
   class="st0"
   d="m 211.6,126.2 c -1.1,-0.6 -2,-1.4 -2.6,-2.5 -0.6,-1.1 -0.9,-2.2 -0.9,-3.5 0,-1.3 0.3,-2.5 0.9,-3.5 0.6,-1.1 1.5,-1.9 2.6,-2.5 1.1,-0.6 2.4,-0.9 3.8,-0.9 1.4,0 2.6,0.3 3.8,0.9 1.1,0.6 2,1.4 2.6,2.5 0.6,1.1 1,2.2 1,3.5 0,1.3 -0.3,2.5 -1,3.5 -0.6,1.1 -1.5,1.9 -2.6,2.5 -1.1,0.6 -2.4,0.9 -3.8,0.9 -1.4,0 -2.7,-0.3 -3.8,-0.9 z m 5.9,-2.3 c 0.6,-0.4 1.1,-0.9 1.5,-1.5 0.4,-0.6 0.5,-1.4 0.5,-2.2 0,-0.8 -0.2,-1.6 -0.5,-2.2 -0.3,-0.6 -0.9,-1.2 -1.5,-1.5 -0.6,-0.4 -1.4,-0.5 -2.1,-0.5 -0.7,0 -1.5,0.2 -2.1,0.5 -0.6,0.4 -1.1,0.9 -1.5,1.5 -0.4,0.7 -0.5,1.4 -0.5,2.2 0,0.8 0.2,1.6 0.5,2.2 0.4,0.7 0.9,1.2 1.5,1.5 0.6,0.4 1.4,0.5 2.1,0.5 0.7,0 1.4,-0.2 2.1,-0.5 z"
   id="path56"
   inkscape:connector-curvature="0"
   style="fill:#4c4b4b" />
	<path
   class="st0"
   d="m 225,113.4 h 6.1 c 1.5,0 2.7,0.3 3.9,0.8 1.1,0.6 2,1.3 2.6,2.3 0.6,1 0.9,2.2 0.9,3.5 0,1.3 -0.3,2.5 -0.9,3.5 -0.6,1 -1.5,1.8 -2.6,2.3 -1.1,0.6 -2.4,0.8 -3.9,0.8 H 225 Z m 5.9,10.9 c 1.3,0 2.4,-0.4 3.2,-1.1 0.8,-0.7 1.2,-1.8 1.2,-3 0,-1.2 -0.4,-2.3 -1.2,-3 -0.8,-0.7 -1.9,-1.1 -3.2,-1.1 h -2.8 v 8.3 h 2.8 z"
   id="path58"
   inkscape:connector-curvature="0"
   style="fill:#4c4b4b" />
	<path
   class="st0"
   d="m 249.4,124 h -6.2 l -1.2,2.9 h -3.2 l 6,-13.4 h 3.1 l 6,13.4 h -3.3 z m -1,-2.4 -2.1,-5.1 -2.1,5.1 z"
   id="path60"
   inkscape:connector-curvature="0"
   style="fill:#4c4b4b" />
	<path
   class="st0"
   d="m 260.9,122.1 v 4.7 h -3.1 V 122 l -5.2,-8.6 h 3.3 l 3.6,6 3.6,-6 h 3 z"
   id="path62"
   inkscape:connector-curvature="0"
   style="fill:#4c4b4b" />
</g>
</svg>