<svg xmlns="http://www.w3.org/2000/svg" width="1563" height="147" viewBox="0 0 1563 147" fill="none"><path d="M104.791 33.9066V3.86277H0V143.352H104.791V113.523H33.4301V88.6292H89.7899V58.8H33.4301V33.9066H104.791Z" fill="url(#paint0_linear)"></path><path d="M189.858 109.874V3.86277H156.427V143.352H277.076V109.874H189.858Z" fill="url(#paint1_linear)"></path><path d="M437.585 33.9066V3.86277H332.794V143.352H437.585V113.523H366.224V88.6292H422.584V58.8H366.224V33.9066H437.585Z" fill="url(#paint2_linear)"></path><path d="M587.024 3.86277L548.88 89.273L510.521 3.86277H472.376L532.165 143.352H565.595L625.169 3.86277H587.024Z" fill="url(#paint3_linear)"></path><path d="M769.124 33.9066V3.86277H664.333V143.352H769.124V113.523H697.763V88.6292H754.123V58.8H697.763V33.9066H769.124Z" fill="url(#paint4_linear)"></path><path d="M934.123 3.86277V90.7752L864.691 3.86277H831.261V143.352H864.691V59.873L934.123 143.352H967.553V3.86277H934.123Z" fill="url(#paint5_linear)"></path><path d="M1127.66 33.9066V3.86277H1022.87V143.352H1127.66V113.523H1056.3V88.6292H1112.66V58.8H1056.3V33.9066H1127.66Z" fill="url(#paint6_linear)"></path><path d="M1373.08 3.86277L1334.93 89.273L1305.14 3.86277H1272.14L1242.57 89.273L1204.21 3.86277H1166.07L1225.85 143.352H1262.71L1288.64 65.8817L1314.57 143.352H1351.43L1411.22 3.86277H1373.08Z" fill="url(#paint7_linear)"></path><path d="M1501.5 147C1534.71 147 1563 126.828 1563 102.793C1563 65.8818 1526.36 61.1606 1506.85 57.5124C1499.14 56.2248 1477.5 56.2248 1477.5 44.8511C1477.5 35.4088 1487.57 27.8978 1499.78 27.8978C1518 27.8978 1523.78 35.1942 1523.78 38.6277H1558.29C1558.29 19.9577 1539 0 1499.78 0C1467.64 0 1441.28 20.1723 1441.28 44.8511C1441.28 71.2467 1468.92 78.5431 1485.21 81.762C1494.43 83.6934 1526.78 84.981 1526.78 102.793C1526.78 111.377 1514.78 119.317 1501.5 119.317C1476.85 119.317 1475.35 100.432 1475.35 100.218H1439.14C1439.14 119.102 1458.85 147 1501.5 147Z" fill="url(#paint8_linear)"></path><defs><linearGradient id="paint0_linear" x1="-14.7865" y1="89.702" x2="1576.8" y2="89.702" gradientUnits="userSpaceOnUse"><stop stop-color="#00D1F7"></stop><stop offset="1" stop-color="#06E6B6"></stop></linearGradient><linearGradient id="paint1_linear" x1="-14.7865" y1="89.702" x2="1576.8" y2="89.702" gradientUnits="userSpaceOnUse"><stop stop-color="#00D1F7"></stop><stop offset="1" stop-color="#06E6B6"></stop></linearGradient><linearGradient id="paint2_linear" x1="-14.7865" y1="89.702" x2="1576.8" y2="89.702" gradientUnits="userSpaceOnUse"><stop stop-color="#00D1F7"></stop><stop offset="1" stop-color="#06E6B6"></stop></linearGradient><linearGradient id="paint3_linear" x1="-14.7865" y1="89.702" x2="1576.8" y2="89.702" gradientUnits="userSpaceOnUse"><stop stop-color="#00D1F7"></stop><stop offset="1" stop-color="#06E6B6"></stop></linearGradient><linearGradient id="paint4_linear" x1="-14.7865" y1="89.702" x2="1576.8" y2="89.702" gradientUnits="userSpaceOnUse"><stop stop-color="#00D1F7"></stop><stop offset="1" stop-color="#06E6B6"></stop></linearGradient><linearGradient id="paint5_linear" x1="-14.7865" y1="89.702" x2="1576.8" y2="89.702" gradientUnits="userSpaceOnUse"><stop stop-color="#00D1F7"></stop><stop offset="1" stop-color="#06E6B6"></stop></linearGradient><linearGradient id="paint6_linear" x1="-14.7865" y1="89.702" x2="1576.8" y2="89.702" gradientUnits="userSpaceOnUse"><stop stop-color="#00D1F7"></stop><stop offset="1" stop-color="#06E6B6"></stop></linearGradient><linearGradient id="paint7_linear" x1="-14.7865" y1="89.702" x2="1576.8" y2="89.702" gradientUnits="userSpaceOnUse"><stop stop-color="#00D1F7"></stop><stop offset="1" stop-color="#06E6B6"></stop></linearGradient><linearGradient id="paint8_linear" x1="-14.7865" y1="89.702" x2="1576.8" y2="89.702" gradientUnits="userSpaceOnUse"><stop stop-color="#00D1F7"></stop><stop offset="1" stop-color="#06E6B6"></stop></linearGradient></defs></svg>