<svg width="277" height="31" viewBox="0 0 277 31" fill="none" xmlns="http://www.w3.org/2000/svg">
<path d="M15.84 30.4C13.6533 30.4 11.64 30.0533 9.8 29.36C7.98667 28.64 6.4 27.64 5.04 26.36C3.68 25.0533 2.62667 23.52 1.88 21.76C1.13333 20 0.76 18.08 0.76 16C0.76 13.92 1.13333 12 1.88 10.24C2.62667 8.48 3.68 6.96 5.04 5.68C6.42667 4.37333 8.04 3.37333 9.88 2.68C11.72 1.96 13.7333 1.6 15.92 1.6C18.2933 1.6 20.4267 1.98666 22.32 2.76C24.24 3.53333 25.8533 4.66667 27.16 6.16L23.88 9.36C22.7867 8.26667 21.6 7.46667 20.32 6.96C19.0667 6.42667 17.68 6.16 16.16 6.16C14.6933 6.16 13.3333 6.4 12.08 6.88C10.8267 7.36 9.74667 8.04 8.84 8.92C7.93333 9.8 7.22667 10.84 6.72 12.04C6.24 13.24 6 14.56 6 16C6 17.4133 6.24 18.72 6.72 19.92C7.22667 21.12 7.93333 22.1733 8.84 23.08C9.74667 23.96 10.8133 24.64 12.04 25.12C13.2667 25.6 14.6267 25.84 16.12 25.84C17.5067 25.84 18.84 25.6267 20.12 25.2C21.4267 24.7467 22.6667 24 23.84 22.96L26.8 26.84C25.3333 28.0133 23.6267 28.9067 21.68 29.52C19.76 30.1067 17.8133 30.4 15.84 30.4ZM21.88 26.16V15.68H26.8V26.84L21.88 26.16ZM46.5384 30V25.68L46.2584 24.76V17.2C46.2584 15.7333 45.8184 14.6 44.9384 13.8C44.0584 12.9733 42.7251 12.56 40.9384 12.56C39.7384 12.56 38.5518 12.7467 37.3784 13.12C36.2318 13.4933 35.2584 14.0133 34.4584 14.68L32.4984 11.04C33.6451 10.16 35.0051 9.50667 36.5784 9.08C38.1784 8.62667 39.8318 8.4 41.5384 8.4C44.6318 8.4 47.0184 9.14667 48.6984 10.64C50.4051 12.1067 51.2584 14.3867 51.2584 17.48V30H46.5384ZM39.8184 30.28C38.2184 30.28 36.8184 30.0133 35.6184 29.48C34.4184 28.92 33.4851 28.16 32.8184 27.2C32.1784 26.2133 31.8584 25.1067 31.8584 23.88C31.8584 22.68 32.1384 21.6 32.6984 20.64C33.2851 19.68 34.2318 18.92 35.5384 18.36C36.8451 17.8 38.5784 17.52 40.7384 17.52H46.9384V20.84H41.0984C39.3918 20.84 38.2451 21.12 37.6584 21.68C37.0718 22.2133 36.7784 22.88 36.7784 23.68C36.7784 24.5867 37.1384 25.3067 37.8584 25.84C38.5784 26.3733 39.5784 26.64 40.8584 26.64C42.0851 26.64 43.1784 26.36 44.1384 25.8C45.1251 25.24 45.8318 24.4133 46.2584 23.32L47.0984 26.32C46.6184 27.5733 45.7518 28.5467 44.4984 29.24C43.2718 29.9333 41.7118 30.28 39.8184 30.28ZM84.8353 8.4C86.542 8.4 88.0486 8.73333 89.3553 9.4C90.6886 10.0667 91.7286 11.0933 92.4753 12.48C93.222 13.84 93.5953 15.6 93.5953 17.76V30H88.5953V18.4C88.5953 16.5067 88.182 15.0933 87.3553 14.16C86.5286 13.2267 85.342 12.76 83.7953 12.76C82.702 12.76 81.7286 13 80.8753 13.48C80.0486 13.96 79.3953 14.6667 78.9153 15.6C78.462 16.5333 78.2353 17.72 78.2353 19.16V30H73.2353V18.4C73.2353 16.5067 72.822 15.0933 71.9953 14.16C71.1686 13.2267 69.982 12.76 68.4353 12.76C67.342 12.76 66.3686 13 65.5153 13.48C64.6886 13.96 64.0353 14.6667 63.5553 15.6C63.102 16.5333 62.8753 17.72 62.8753 19.16V30H57.8753V8.64H62.6353V14.32L61.7953 12.64C62.5153 11.2533 63.5553 10.2 64.9153 9.48C66.302 8.76 67.8753 8.4 69.6353 8.4C71.6353 8.4 73.3686 8.89333 74.8353 9.88C76.3286 10.8667 77.3153 12.36 77.7953 14.36L75.8353 13.68C76.5286 12.08 77.6753 10.8 79.2753 9.84C80.8753 8.88 82.7286 8.4 84.8353 8.4ZM110.264 30.28C107.89 30.28 105.81 29.8133 104.024 28.88C102.264 27.92 100.89 26.6133 99.9037 24.96C98.9437 23.3067 98.4637 21.4267 98.4637 19.32C98.4637 17.1867 98.9304 15.3067 99.8637 13.68C100.824 12.0267 102.13 10.7333 103.784 9.8C105.464 8.86667 107.37 8.4 109.504 8.4C111.584 8.4 113.437 8.85333 115.064 9.76C116.69 10.6667 117.97 11.9467 118.904 13.6C119.837 15.2533 120.304 17.2 120.304 19.44C120.304 19.6533 120.29 19.8933 120.264 20.16C120.264 20.4267 120.25 20.68 120.224 20.92H102.424V17.6H117.584L115.624 18.64C115.65 17.4133 115.397 16.3333 114.864 15.4C114.33 14.4667 113.597 13.7333 112.664 13.2C111.757 12.6667 110.704 12.4 109.504 12.4C108.277 12.4 107.197 12.6667 106.264 13.2C105.357 13.7333 104.637 14.48 104.104 15.44C103.597 16.3733 103.344 17.48 103.344 18.76V19.56C103.344 20.84 103.637 21.9733 104.224 22.96C104.81 23.9467 105.637 24.7067 106.704 25.24C107.77 25.7733 108.997 26.04 110.384 26.04C111.584 26.04 112.664 25.8533 113.624 25.48C114.584 25.1067 115.437 24.52 116.184 23.72L118.864 26.8C117.904 27.92 116.69 28.7867 115.224 29.4C113.784 29.9867 112.13 30.28 110.264 30.28ZM137.041 30V2H142.241V30H137.041ZM156.135 30.28C154.348 30.28 152.628 30.0533 150.975 29.6C149.348 29.12 148.055 28.5467 147.095 27.88L149.015 24.08C149.975 24.6933 151.121 25.2 152.455 25.6C153.788 26 155.121 26.2 156.455 26.2C158.028 26.2 159.161 25.9867 159.855 25.56C160.575 25.1333 160.935 24.56 160.935 23.84C160.935 23.2533 160.695 22.8133 160.215 22.52C159.735 22.2 159.108 21.96 158.335 21.8C157.561 21.64 156.695 21.4933 155.735 21.36C154.801 21.2267 153.855 21.0533 152.895 20.84C151.961 20.6 151.108 20.2667 150.335 19.84C149.561 19.3867 148.935 18.7867 148.455 18.04C147.975 17.2933 147.735 16.3067 147.735 15.08C147.735 13.72 148.121 12.5467 148.895 11.56C149.668 10.5467 150.748 9.77333 152.135 9.24C153.548 8.68 155.215 8.4 157.135 8.4C158.575 8.4 160.028 8.56 161.495 8.88C162.961 9.2 164.175 9.65333 165.135 10.24L163.215 14.04C162.201 13.4267 161.175 13.0133 160.135 12.8C159.121 12.56 158.108 12.44 157.095 12.44C155.575 12.44 154.441 12.6667 153.695 13.12C152.975 13.5733 152.615 14.1467 152.615 14.84C152.615 15.48 152.855 15.96 153.335 16.28C153.815 16.6 154.441 16.8533 155.215 17.04C155.988 17.2267 156.841 17.3867 157.775 17.52C158.735 17.6267 159.681 17.8 160.615 18.04C161.548 18.28 162.401 18.6133 163.175 19.04C163.975 19.44 164.615 20.0133 165.095 20.76C165.575 21.5067 165.815 22.48 165.815 23.68C165.815 25.0133 165.415 26.1733 164.615 27.16C163.841 28.1467 162.735 28.92 161.295 29.48C159.855 30.0133 158.135 30.28 156.135 30.28ZM201.735 2H206.935V30H201.735V2ZM187.255 30H182.055V2H187.255V30ZM202.135 18H186.815V13.56H202.135V18ZM227.318 30V25.68L227.038 24.76V17.2C227.038 15.7333 226.598 14.6 225.718 13.8C224.838 12.9733 223.505 12.56 221.718 12.56C220.518 12.56 219.331 12.7467 218.158 13.12C217.011 13.4933 216.038 14.0133 215.238 14.68L213.278 11.04C214.425 10.16 215.785 9.50667 217.358 9.08C218.958 8.62667 220.611 8.4 222.318 8.4C225.411 8.4 227.798 9.14667 229.478 10.64C231.185 12.1067 232.038 14.3867 232.038 17.48V30H227.318ZM220.598 30.28C218.998 30.28 217.598 30.0133 216.398 29.48C215.198 28.92 214.265 28.16 213.598 27.2C212.958 26.2133 212.638 25.1067 212.638 23.88C212.638 22.68 212.918 21.6 213.478 20.64C214.065 19.68 215.011 18.92 216.318 18.36C217.625 17.8 219.358 17.52 221.518 17.52H227.718V20.84H221.878C220.171 20.84 219.025 21.12 218.438 21.68C217.851 22.2133 217.558 22.88 217.558 23.68C217.558 24.5867 217.918 25.3067 218.638 25.84C219.358 26.3733 220.358 26.64 221.638 26.64C222.865 26.64 223.958 26.36 224.918 25.8C225.905 25.24 226.611 24.4133 227.038 23.32L227.878 26.32C227.398 27.5733 226.531 28.5467 225.278 29.24C224.051 29.9333 222.491 30.28 220.598 30.28ZM238.655 30V8.64H243.415V14.52L242.855 12.8C243.495 11.36 244.495 10.2667 245.855 9.52C247.242 8.77333 248.962 8.4 251.015 8.4V13.16C250.802 13.1067 250.602 13.08 250.415 13.08C250.228 13.0533 250.042 13.04 249.855 13.04C247.962 13.04 246.455 13.6 245.335 14.72C244.215 15.8133 243.655 17.4533 243.655 19.64V30H238.655ZM264.301 30.28C262.248 30.28 260.395 29.8267 258.741 28.92C257.115 27.9867 255.835 26.7067 254.901 25.08C253.968 23.4533 253.501 21.5333 253.501 19.32C253.501 17.1067 253.968 15.1867 254.901 13.56C255.835 11.9333 257.115 10.6667 258.741 9.76C260.395 8.85333 262.248 8.4 264.301 8.4C266.088 8.4 267.688 8.8 269.101 9.6C270.515 10.3733 271.635 11.56 272.461 13.16C273.288 14.76 273.701 16.8133 273.701 19.32C273.701 21.8 273.301 23.8533 272.501 25.48C271.701 27.08 270.595 28.28 269.181 29.08C267.768 29.88 266.141 30.28 264.301 30.28ZM264.901 26C266.101 26 267.168 25.7333 268.101 25.2C269.061 24.6667 269.821 23.8933 270.381 22.88C270.968 21.8667 271.261 20.68 271.261 19.32C271.261 17.9333 270.968 16.7467 270.381 15.76C269.821 14.7467 269.061 13.9733 268.101 13.44C267.168 12.9067 266.101 12.64 264.901 12.64C263.701 12.64 262.621 12.9067 261.661 13.44C260.728 13.9733 259.968 14.7467 259.381 15.76C258.821 16.7467 258.541 17.9333 258.541 19.32C258.541 20.68 258.821 21.8667 259.381 22.88C259.968 23.8933 260.728 24.6667 261.661 25.2C262.621 25.7333 263.701 26 264.901 26ZM271.381 30V24.96L271.581 19.28L271.181 13.6V0.319998H276.141V30H271.381Z" fill="white"/>
</svg>
