<?xml version="1.0" encoding="UTF-8"?> <svg xmlns="http://www.w3.org/2000/svg" width="186" height="32" viewBox="0 0 186 32" fill="none"><g clip-path="url(#clip0_2:965)"><path fill-rule="evenodd" clip-rule="evenodd" d="M24.6644 27H5.2265L11 17L13.4797 21.295L17.5 14L19.753 18.088L25 9L27 12.4642V25.5H23.8378L24.6644 27Z" fill="#FF007F"></path><path d="M29.4646 27.3474V25.2972C30.6647 25.1945 31.6193 24.2162 31.6193 22.9905C31.6193 21.7648 30.6647 20.7865 29.4646 20.6838V18.6278C30.6647 18.5252 31.6193 17.5466 31.6193 16.321C31.6193 15.0954 30.6647 14.1169 29.4646 14.0146V11.9112C30.6647 11.8087 31.6193 10.8304 31.6193 9.60447C31.6193 8.37845 30.6647 7.40052 29.4646 7.29764V4.65181C30.6647 4.55113 31.6205 3.57113 31.6205 2.34511C31.6205 1.0516 30.5689 0 29.276 0C27.9831 0 26.9315 1.05154 26.9315 2.34511C26.9315 2.52931 26.9958 2.69164 27.0367 2.86355H25.0152C25.056 2.69196 25.1203 2.52931 25.1203 2.34511C25.1203 1.0516 24.0687 0 22.7758 0C21.4828 0 20.4313 1.05154 20.4313 2.34511C20.4313 2.52931 20.4956 2.69164 20.5364 2.86355H18.3463C18.3865 2.69196 18.451 2.52931 18.451 2.34511C18.451 1.0516 17.3992 0 16.1066 0C14.8136 0 13.7621 1.05154 13.7621 2.34511C13.7621 2.52931 13.8261 2.69164 13.8669 2.86355H11.6295C11.6697 2.69196 11.7342 2.52931 11.7342 2.34511C11.7342 1.0516 10.6827 0 9.38978 0C8.0962 0 7.04531 1.05154 7.04531 2.34511C7.04531 2.52931 7.10926 2.69164 7.15005 2.86355H4.96495C5.00535 2.69196 5.06962 2.52931 5.06962 2.34511C5.06962 1.0516 4.01835 6.43378e-05 2.72509 6.43378e-05C1.43216 6.43378e-05 0.380881 1.0516 0.380881 2.34518C0.380881 3.59269 1.36666 4.59436 2.59751 4.66359V7.28522C1.36673 7.35432 0.379272 8.35677 0.379272 9.60421C0.379272 10.8515 1.36641 11.8534 2.59751 11.9224V14.0016C1.36673 14.0718 0.379272 15.0731 0.379272 16.3206C0.379272 17.5683 1.36641 18.5699 2.59751 18.639V20.6706C1.36673 20.7409 0.379272 21.7422 0.379272 22.9899C0.379272 24.2375 1.36641 25.2389 2.59751 25.3092V27.3342C1.36673 27.4042 0.380881 28.4056 0.380881 29.6535C0.380881 30.9465 1.43216 31.9974 2.72509 31.9974C3.99029 31.9974 5.01153 30.9855 5.05386 29.731H7.06011C7.10257 30.9855 8.12335 32.0001 9.38984 32.0001C10.6564 32.0001 11.6769 30.9855 11.7194 29.731H13.777C13.8195 30.9855 14.8402 32.0001 16.1068 32.0001C17.3733 32.0001 18.3937 30.9855 18.4362 29.731H20.4463C20.4889 30.9855 21.5092 32.0001 22.7758 32.0001C24.0423 32.0001 25.0629 30.9855 25.1058 29.731H26.9474C26.9897 30.9855 28.0106 31.9974 29.2763 31.9974C30.5689 31.9974 31.6207 30.9465 31.6207 29.6535C31.6205 28.428 30.6644 27.4477 29.4646 27.3474ZM24.8013 25.0654H7.26129V7.52964H24.802V25.0654H24.8013Z" fill="black"></path></g><path d="M48.02 22.68H48.38V9.99997H51.02V24H45.86L44.22 11.32H43.86V24H41.22V9.99997H46.38L48.02 22.68Z" fill="black"></path><path d="M54.0061 9.99997H62.9661V12.52H56.6461V15.72H62.8461V18.24H56.6461V24H54.0061V9.99997Z" fill="black"></path><path d="M65.5722 9.99997H75.6522V12.52H71.9322V24H69.2922V12.52H65.5722V9.99997Z" fill="black"></path><path d="M77.1782 9.99997H81.8183L82.6183 20.52V22.56H83.0983V20.52L83.8983 9.99997H88.5382V24H86.1383V14.64L86.3783 11.44H85.8983L84.8582 24H80.8983L79.8183 11.44H79.3382L79.5783 14.64V24H77.1782V9.99997Z" fill="black"></path><path d="M97.4843 21H92.7243L92.0443 24H89.2843L92.6243 9.99997H97.5843L100.924 24H98.1643L97.4843 21ZM93.2843 18.48H96.9043L95.2843 11.32H94.9243L93.2843 18.48Z" fill="black"></path><path d="M112.09 24H109.45V19.8C109.45 19.48 109.364 19.22 109.19 19.02C109.03 18.82 108.757 18.72 108.37 18.72H105.33V24H102.69V9.99997H108.05C108.77 9.99997 109.404 10.1 109.95 10.3C110.497 10.5 110.95 10.78 111.31 11.14C111.684 11.4866 111.964 11.8933 112.15 12.36C112.35 12.8266 112.45 13.3266 112.45 13.86V14.34C112.45 14.9133 112.297 15.4533 111.99 15.96C111.684 16.4533 111.21 16.8333 110.57 17.1V17.46C111.037 17.5133 111.404 17.6933 111.67 18C111.95 18.3066 112.09 18.6933 112.09 19.16V24ZM105.33 16.2H107.85C108.49 16.2 108.977 16.0533 109.31 15.76C109.644 15.4533 109.81 15.0266 109.81 14.48V14.24C109.81 13.7733 109.644 13.3733 109.31 13.04C108.977 12.6933 108.49 12.52 107.85 12.52H105.33V16.2Z" fill="black"></path><path d="M117.657 24H115.017V9.99997H117.657V15.74H118.237L121.937 9.99997H124.917V10.12L120.597 16.82V17.18L125.157 23.88V24H122.057L118.237 18.26H117.657V24Z" fill="black"></path><path d="M127.363 9.99997H136.203V12.52H130.003V15.72H135.963V18.24H130.003V21.48H136.443V24H127.363V9.99997Z" fill="black"></path><path d="M139.049 9.99997H149.129V12.52H145.409V24H142.769V12.52H139.049V9.99997Z" fill="black"></path><path d="M156.375 21.88C156.881 21.88 157.295 21.8066 157.615 21.66C157.948 21.5 158.201 21.2933 158.375 21.04C158.561 20.7733 158.688 20.4733 158.755 20.14C158.821 19.7933 158.855 19.44 158.855 19.08V18.72H161.495V19.08C161.495 20.7466 161.055 22.0333 160.175 22.94C159.308 23.8333 158.041 24.28 156.375 24.28C154.775 24.28 153.508 23.7933 152.575 22.82C151.641 21.8466 151.175 20.4266 151.175 18.56V15.44C151.175 14.5466 151.295 13.7466 151.535 13.04C151.775 12.32 152.121 11.72 152.575 11.24C153.028 10.7466 153.575 10.3733 154.215 10.12C154.855 9.8533 155.575 9.71997 156.375 9.71997C157.201 9.71997 157.935 9.83997 158.575 10.08C159.215 10.32 159.748 10.6666 160.175 11.12C160.615 11.5733 160.941 12.12 161.155 12.76C161.381 13.4 161.495 14.12 161.495 14.92V15.28H158.855V14.92C158.855 14.5866 158.815 14.2533 158.735 13.92C158.655 13.5866 158.521 13.2866 158.335 13.02C158.148 12.7533 157.895 12.54 157.575 12.38C157.255 12.2066 156.855 12.12 156.375 12.12C155.935 12.12 155.555 12.2066 155.235 12.38C154.915 12.54 154.648 12.7666 154.435 13.06C154.221 13.34 154.061 13.6733 153.955 14.06C153.861 14.4333 153.815 14.8266 153.815 15.24V18.76C153.815 19.2133 153.861 19.6333 153.955 20.02C154.048 20.3933 154.195 20.72 154.395 21C154.595 21.28 154.855 21.5 155.175 21.66C155.508 21.8066 155.908 21.88 156.375 21.88Z" fill="black"></path><path d="M170.961 21H166.201L165.521 24H162.761L166.101 9.99997H171.061L174.401 24H171.641L170.961 21ZM166.761 18.48H170.381L168.761 11.32H168.401L166.761 18.48Z" fill="black"></path><path d="M178.787 18.72V24H176.147V9.99997H181.627C182.347 9.99997 182.974 10.12 183.507 10.36C184.04 10.5866 184.48 10.8933 184.827 11.28C185.187 11.6533 185.454 12.0866 185.627 12.58C185.814 13.06 185.907 13.5533 185.907 14.06V14.54C185.907 15.06 185.814 15.5733 185.627 16.08C185.454 16.5733 185.187 17.02 184.827 17.42C184.48 17.8066 184.04 18.12 183.507 18.36C182.974 18.6 182.347 18.72 181.627 18.72H178.787ZM178.787 16.2H181.367C181.954 16.2 182.414 16.04 182.747 15.72C183.094 15.4 183.267 14.9866 183.267 14.48V14.24C183.267 13.7333 183.094 13.32 182.747 13C182.414 12.68 181.954 12.52 181.367 12.52H178.787V16.2Z" fill="black"></path><defs><clipPath id="clip0_2:965"><rect width="32" height="32" fill="white"></rect></clipPath></defs></svg> 