<svg id="Layer_1" data-name="Layer 1" xmlns="http://www.w3.org/2000/svg" width="1286.22" height="243.95" viewBox="0 0 1286.22 243.95"><defs><style>.cls-1{fill:#ff8c34;}.cls-2{opacity:0.73;}.cls-2,.cls-4{isolation:isolate;}.cls-3{fill:#011c74;}.cls-5{fill:#282746;}</style></defs><g id="Group_2" data-name="Group 2"><g id="Group_1" data-name="Group 1"><g id="Path_2" data-name="Path 2"><path class="cls-1" d="M134.85,201.19,17.71,243.83C5.64,248.22-19.64,133.11,94.9,91.42a58.41,58.41,0,0,1,39.95,109.77Z"/></g><g id="Path_1" data-name="Path 1" class="cls-2"><path class="cls-3" d="M38.45,42.76,155.6.12c12.06-4.39,37.34,110.72-77.2,152.41A58.41,58.41,0,0,1,38.45,42.76Z"/></g></g><g id="Stelareum" class="cls-4"><g class="cls-4"><path class="cls-5" d="M307.93,74.6a19.45,19.45,0,0,0-8-14.5q-7.05-5.16-19-5.17-12.27,0-18.82,5t-6.55,12.64a13.66,13.66,0,0,0,7.28,12.84,63,63,0,0,0,17.7,6.75l14.19,3.39a92.77,92.77,0,0,1,24.4,9A46.62,46.62,0,0,1,336,119.59q6.14,9.22,6.13,22.4-.07,21.67-16.23,34.51t-45.07,12.84q-28.76,0-45.88-13.11t-17.73-38.71h32.3q.86,11.88,9.37,17.85t21.56,6q12.72,0,20.31-5.4t7.68-14a13.89,13.89,0,0,0-7-12.34q-6.94-4.32-19.82-7.41l-17.19-4.31q-20-4.78-31.54-15.19T221.34,74.83A41.46,41.46,0,0,1,229,49.73,50.79,50.79,0,0,1,250.33,33q13.57-6,30.85-6,17.58,0,30.73,6a48.61,48.61,0,0,1,20.47,16.73,44.24,44.24,0,0,1,7.55,24.83Z"/><path class="cls-5" d="M426.84,68.66V93.34H404.55v57.37q0,6.78,3.08,9.17a12.69,12.69,0,0,0,8,2.39,25.8,25.8,0,0,0,4.63-.42l3.55-.66L429,185.64c-1.64.51-3.95,1.12-6.94,1.81a57.92,57.92,0,0,1-10.87,1.27q-17.9.76-28.72-7.75T371.7,155V93.34H355.51V68.66H371.7V40.28h32.85V68.66Z"/><path class="cls-5" d="M500.94,189.42q-18.19,0-31.39-7.45a50.28,50.28,0,0,1-20.28-21.12q-7.09-13.69-7.09-32.43,0-18.27,7.09-32.08a52.36,52.36,0,0,1,20-21.51q12.92-7.71,30.35-7.71a59.81,59.81,0,0,1,28.26,6.63,48.46,48.46,0,0,1,20,20q7.4,13.38,7.4,33.5v9H474.64v.07q0,13.27,7.25,20.9t19.59,7.63a28,28,0,0,0,14.26-3.47,18.9,18.9,0,0,0,8.49-10.25l30.38,2A41.74,41.74,0,0,1,537,179.55Q522.92,189.42,500.94,189.42Zm-26.3-73.49h49.74q-.07-10.56-6.79-17.43t-17.42-6.86q-10.95,0-18,7.09A25.59,25.59,0,0,0,474.64,115.93Z"/><path class="cls-5" d="M609.59,29.18V187.1H576.74V29.18Z"/><path class="cls-5" d="M669.57,189.34q-17,0-28.14-8.87T630.25,154q0-13.26,6.24-20.82a36,36,0,0,1,16.39-11.06,92.62,92.62,0,0,1,21.86-4.59q15.42-1.55,22-3.24t6.64-7.4v-.47q0-7.32-4.59-11.33t-13-4Q677,91.1,671.73,95a18.1,18.1,0,0,0-6.94,9.79l-30.38-2.47A40.54,40.54,0,0,1,651.26,76.6q13.46-9.48,34.74-9.48a72,72,0,0,1,24.67,4.16,41.06,41.06,0,0,1,18.55,13q7,8.82,7,22.94V187.1H705.12V170.68h-.92a34.13,34.13,0,0,1-12.92,13.45Q682.69,189.33,669.57,189.34ZM679,166.67q10.8,0,17.74-6.29a20.22,20.22,0,0,0,6.94-15.61V132.2a19.19,19.19,0,0,1-6,2.31q-4,1-8.64,1.74t-8.21,1.27q-8.62,1.23-13.92,4.86t-5.28,10.56c0,4.53,1.63,7.94,4.9,10.26S673.94,166.67,679,166.67Z"/><path class="cls-5" d="M761.8,187.1V68.66h31.84V89.33h1.24q3.24-11,10.83-16.7A28.65,28.65,0,0,1,823.33,67a32.53,32.53,0,0,1,8.87,1.16,28.9,28.9,0,0,1,7.32,3.16l-9.87,27.14a30.67,30.67,0,0,0-5-2,21.56,21.56,0,0,0-6.13-.81,23.14,23.14,0,0,0-16.85,6.78q-6.9,6.79-7,17.66v67Z"/><path class="cls-5" d="M903.3,189.42q-18.21,0-31.39-7.45a50.28,50.28,0,0,1-20.28-21.12q-7.1-13.69-7.09-32.43,0-18.27,7.09-32.08a52.36,52.36,0,0,1,20-21.51q12.92-7.71,30.34-7.71a59.82,59.82,0,0,1,28.27,6.63,48.46,48.46,0,0,1,20,20q7.4,13.38,7.4,33.5v9H877v.07q0,13.27,7.25,20.9t19.59,7.63a28,28,0,0,0,14.26-3.47,18.84,18.84,0,0,0,8.48-10.25l30.38,2a41.66,41.66,0,0,1-17.58,26.38Q925.27,189.42,903.3,189.42ZM877,115.93h49.74q-.09-10.56-6.79-17.43t-17.43-6.86q-10.95,0-18,7.09A25.59,25.59,0,0,0,877,115.93Z"/><path class="cls-5" d="M1055.05,136.67v-68h32.85V187.1h-31.54V165.59h-1.23a35,35,0,0,1-13.31,16.73q-9.28,6.33-22.63,6.32-17.9,0-29-11.91t-11.15-32.66V68.66h32.85v69.55q.07,10.5,5.63,16.58t14.88,6.09a22.94,22.94,0,0,0,15.77-6.17Q1055.12,148.54,1055.05,136.67Z"/><path class="cls-5" d="M1114.11,187.1V68.66h31.31v20.9h1.39a32.57,32.57,0,0,1,12.37-16.47q8.68-6,20.63-6,12.18,0,20.74,6A28.91,28.91,0,0,1,1212,89.56h1.23a31.61,31.61,0,0,1,13.15-16.31q9.51-6.14,22.55-6.13,16.57,0,26.95,10.52t10.37,29.81V187.1h-32.77V113.92q0-9.87-5.24-14.8a18.4,18.4,0,0,0-13.11-4.94q-9,0-14,5.71t-5,14.88V187.1h-31.85V113.23q0-8.72-5-13.88t-13.07-5.17a18,18,0,0,0-13.73,6q-5.55,6-5.55,15.85V187.1Z"/></g></g></g></svg>