<?xml version="1.0" encoding="utf-8"?>
<!-- Generator: Adobe Illustrator 23.0.5, SVG Export Plug-In . SVG Version: 6.00 Build 0)  -->
<svg version="1.1" xmlns="http://www.w3.org/2000/svg" xmlns:xlink="http://www.w3.org/1999/xlink" x="0px" y="0px"
	 viewBox="0 0 252.7 71.78" enable-background="new 0 0 252.7 71.78" xml:space="preserve">
<g id="BACKGROUND" display="none">
	<rect x="-255" y="-149.22" display="inline" fill="#282727" width="887" height="637"/>
</g>
<g id="OBJECTS">
	<g id="logo_tttb">
		<g>
			<g>
				<path fill="#FFFFFF" d="M215.16,52.39c-0.21-0.18-0.32-0.42-0.32-0.72c0-0.26,0.07-0.49,0.21-0.71c0.14-0.22,0.33-0.4,0.58-0.53
					c0.25-0.13,0.52-0.2,0.83-0.2c0.36,0,0.65,0.09,0.86,0.28c0.21,0.19,0.32,0.43,0.32,0.73c0,0.4-0.15,0.74-0.46,1.01
					c-0.31,0.28-0.69,0.41-1.15,0.41C215.66,52.67,215.37,52.58,215.16,52.39z"/>
				<path fill="#FFFFFF" d="M220.79,46.1c0.46-0.65,1.05-1.16,1.75-1.52s1.47-0.55,2.3-0.55c0.7,0,1.3,0.13,1.82,0.38
					c0.52,0.26,0.92,0.62,1.21,1.09c0.29,0.47,0.44,1.03,0.47,1.67h-2.53c-0.1-0.31-0.26-0.55-0.5-0.72
					c-0.24-0.17-0.54-0.25-0.89-0.25c-0.54,0-1.01,0.19-1.4,0.58c-0.39,0.38-0.64,0.9-0.76,1.55c-0.03,0.17-0.05,0.35-0.05,0.54
					c0,0.5,0.13,0.89,0.39,1.17c0.26,0.28,0.62,0.43,1.07,0.43c0.35,0,0.68-0.08,0.98-0.25c0.3-0.17,0.55-0.41,0.75-0.72h2.54
					c-0.38,0.97-0.99,1.73-1.81,2.3c-0.82,0.56-1.76,0.85-2.82,0.85c-0.73,0-1.36-0.14-1.89-0.42c-0.53-0.28-0.94-0.68-1.22-1.19
					s-0.42-1.1-0.42-1.78c0-0.31,0.03-0.62,0.08-0.92C220.03,47.49,220.33,46.75,220.79,46.1z"/>
				<path fill="#FFFFFF" d="M231.62,52.21c-0.54-0.3-0.96-0.71-1.26-1.25c-0.3-0.54-0.44-1.15-0.44-1.85c0-1,0.21-1.89,0.63-2.67
					s1.01-1.39,1.76-1.82c0.76-0.43,1.62-0.65,2.6-0.65c0.73,0,1.37,0.15,1.91,0.44c0.55,0.29,0.97,0.7,1.27,1.24
					s0.44,1.15,0.44,1.84c0,0.99-0.21,1.88-0.64,2.66s-1.02,1.4-1.78,1.84c-0.76,0.44-1.63,0.66-2.62,0.66
					C232.79,52.66,232.16,52.51,231.62,52.21z M235.1,50.1c0.36-0.25,0.63-0.58,0.82-0.99c0.19-0.41,0.28-0.86,0.28-1.34
					c0-0.51-0.14-0.91-0.41-1.19c-0.28-0.28-0.67-0.43-1.18-0.43c-0.47,0-0.89,0.12-1.25,0.37c-0.36,0.24-0.64,0.57-0.83,0.98
					c-0.19,0.41-0.29,0.86-0.29,1.34c0,0.5,0.14,0.9,0.42,1.19c0.28,0.29,0.68,0.44,1.2,0.44C234.33,50.47,234.75,50.35,235.1,50.1z
					"/>
				<path fill="#FFFFFF" d="M251.13,44.11l-1.5,8.46h-2.34l0.83-4.68l-2.44,4.68h-1.97l-0.77-4.7l-0.83,4.7h-2.36l1.5-8.46h2.84
					l1.16,5.48l3.04-5.48H251.13z"/>
			</g>
		</g>
		<linearGradient id="SVGID_1_" gradientUnits="userSpaceOnUse" x1="36" y1="71.7753" x2="36" y2="-0.2247">
			<stop  offset="1.692840e-03" style="stop-color:#ED9A21"/>
			<stop  offset="1" style="stop-color:#FCDA4F"/>
		</linearGradient>
		<path fill="url(#SVGID_1_)" d="M15,71.78h42c8.28,0,15-6.72,15-15v-42c0-8.28-6.72-15-15-15H15c-8.28,0-15,6.72-15,15v42
			C0,65.06,6.72,71.78,15,71.78z"/>
		<g>
			<g>
				<linearGradient id="SVGID_2_" gradientUnits="userSpaceOnUse" x1="149.523" y1="63.9853" x2="149.523" y2="42.2949">
					<stop  offset="1.692840e-03" style="stop-color:#ED9A21"/>
					<stop  offset="1" style="stop-color:#FCDA4F"/>
				</linearGradient>
				<path fill="url(#SVGID_2_)" d="M104.63,51.22c-0.81,0.83-1.77,1.39-2.9,1.69c1.02,0.24,1.81,0.73,2.39,1.47
					c0.57,0.74,0.85,1.62,0.85,2.64c0,0.32-0.03,0.65-0.09,0.99c-0.3,1.8-1.16,3.21-2.58,4.23c-1.42,1.02-3.26,1.53-5.52,1.53H86.31
					l3.75-21.15h10.14c1.92,0,3.41,0.39,4.47,1.16c1.06,0.77,1.59,1.87,1.59,3.29c0,0.34-0.03,0.69-0.09,1.05
					C105.95,49.36,105.44,50.39,104.63,51.22z M99.06,56.76c0-0.5-0.17-0.89-0.5-1.16c-0.33-0.27-0.81-0.41-1.45-0.41h-3.39
					l-0.66,3.87h3.42c1.46,0,2.31-0.63,2.55-1.89C99.05,57.08,99.06,56.94,99.06,56.76z M99.99,48.75c0-0.96-0.63-1.44-1.89-1.44
					h-2.97l-0.66,3.75h2.97c1.46,0,2.3-0.62,2.52-1.86C99.98,49.1,99.99,48.95,99.99,48.75z"/>
				<linearGradient id="SVGID_3_" gradientUnits="userSpaceOnUse" x1="149.523" y1="63.9853" x2="149.523" y2="42.2949">
					<stop  offset="1.692840e-03" style="stop-color:#ED9A21"/>
					<stop  offset="1" style="stop-color:#FCDA4F"/>
				</linearGradient>
				<path fill="url(#SVGID_3_)" d="M116.07,42.62l-3.72,21.15h-5.91l3.75-21.15H116.07z"/>
				<linearGradient id="SVGID_4_" gradientUnits="userSpaceOnUse" x1="149.523" y1="63.9853" x2="149.523" y2="42.2949">
					<stop  offset="1.692840e-03" style="stop-color:#ED9A21"/>
					<stop  offset="1" style="stop-color:#FCDA4F"/>
				</linearGradient>
				<path fill="url(#SVGID_4_)" d="M135.36,42.62l-0.84,4.68h-5.61L126,63.78h-5.91L123,47.31h-5.58l0.84-4.68H135.36z"/>
				<linearGradient id="SVGID_5_" gradientUnits="userSpaceOnUse" x1="149.523" y1="63.9853" x2="149.523" y2="42.2949">
					<stop  offset="1.692840e-03" style="stop-color:#ED9A21"/>
					<stop  offset="1" style="stop-color:#FCDA4F"/>
				</linearGradient>
				<path fill="url(#SVGID_5_)" d="M137.25,47.59c1.16-1.63,2.62-2.9,4.38-3.81c1.76-0.91,3.68-1.37,5.76-1.37
					c1.74,0,3.26,0.32,4.56,0.96c1.3,0.64,2.31,1.55,3.03,2.73c0.72,1.18,1.11,2.57,1.17,4.17h-6.33c-0.24-0.78-0.66-1.38-1.26-1.8
					c-0.6-0.42-1.34-0.63-2.22-0.63c-1.36,0-2.53,0.48-3.51,1.44c-0.98,0.96-1.61,2.25-1.89,3.87c-0.08,0.42-0.12,0.87-0.12,1.35
					c0,1.24,0.32,2.21,0.98,2.92c0.65,0.71,1.54,1.06,2.69,1.06c0.88,0,1.69-0.21,2.44-0.63s1.38-1.02,1.88-1.8h6.36
					c-0.96,2.42-2.47,4.33-4.53,5.75c-2.06,1.41-4.41,2.12-7.05,2.12c-1.82,0-3.4-0.35-4.73-1.05c-1.33-0.7-2.35-1.69-3.04-2.97
					c-0.7-1.28-1.05-2.76-1.05-4.44c0-0.78,0.07-1.55,0.21-2.31C135.33,51.08,136.09,49.22,137.25,47.59z"/>
				<linearGradient id="SVGID_6_" gradientUnits="userSpaceOnUse" x1="149.523" y1="63.9853" x2="149.523" y2="42.2949">
					<stop  offset="1.692840e-03" style="stop-color:#ED9A21"/>
					<stop  offset="1" style="stop-color:#FCDA4F"/>
				</linearGradient>
				<path fill="url(#SVGID_6_)" d="M162.06,62.87c-1.36-0.74-2.41-1.78-3.15-3.12c-0.74-1.34-1.11-2.88-1.11-4.62
					c0-2.5,0.52-4.73,1.57-6.68c1.05-1.95,2.52-3.46,4.41-4.54s4.05-1.62,6.5-1.62c1.82,0,3.41,0.37,4.78,1.1s2.42,1.76,3.17,3.09
					c0.74,1.33,1.11,2.87,1.11,4.6c0,2.48-0.53,4.7-1.59,6.66c-1.06,1.96-2.54,3.49-4.44,4.59c-1.9,1.1-4.08,1.65-6.54,1.65
					C164.99,63.99,163.42,63.62,162.06,62.87z M170.78,57.6c0.89-0.62,1.57-1.45,2.04-2.48c0.47-1.03,0.71-2.14,0.71-3.34
					c0-1.28-0.34-2.27-1.03-2.99c-0.69-0.71-1.68-1.06-2.96-1.06c-1.18,0-2.22,0.3-3.12,0.92s-1.59,1.42-2.07,2.44
					c-0.48,1.02-0.72,2.14-0.72,3.36c0,1.26,0.35,2.25,1.05,2.99s1.7,1.09,3,1.09C168.85,58.53,169.89,58.22,170.78,57.6z"/>
				<linearGradient id="SVGID_7_" gradientUnits="userSpaceOnUse" x1="149.523" y1="63.9853" x2="149.523" y2="42.2949">
					<stop  offset="1.692840e-03" style="stop-color:#ED9A21"/>
					<stop  offset="1" style="stop-color:#FCDA4F"/>
				</linearGradient>
				<path fill="url(#SVGID_7_)" d="M189.78,42.62l-3.72,21.15h-5.91l3.75-21.15H189.78z"/>
				<linearGradient id="SVGID_8_" gradientUnits="userSpaceOnUse" x1="149.523" y1="63.9853" x2="149.523" y2="42.2949">
					<stop  offset="1.692840e-03" style="stop-color:#ED9A21"/>
					<stop  offset="1" style="stop-color:#FCDA4F"/>
				</linearGradient>
				<path fill="url(#SVGID_8_)" d="M209.01,63.78h-5.91l-5.7-11.82l-2.1,11.82h-5.91l3.75-21.15h5.88l5.73,11.97l2.1-11.97h5.88
					L209.01,63.78z"/>
			</g>
		</g>
		<g>
			<g>
				<linearGradient id="SVGID_9_" gradientUnits="userSpaceOnUse" x1="169.0186" y1="34.0273" x2="169.0186" y2="8.1435">
					<stop  offset="1.692840e-03" style="stop-color:#ED9A21"/>
					<stop  offset="1" style="stop-color:#FCDA4F"/>
				</linearGradient>
				<path fill="url(#SVGID_9_)" d="M107.73,8.4l-1.01,5.62h-6.73L96.5,33.78h-7.09l3.49-19.76h-6.7l1.01-5.62H107.73z"/>
				<linearGradient id="SVGID_10_" gradientUnits="userSpaceOnUse" x1="169.0186" y1="34.0273" x2="169.0186" y2="8.1435">
					<stop  offset="1.692840e-03" style="stop-color:#ED9A21"/>
					<stop  offset="1" style="stop-color:#FCDA4F"/>
				</linearGradient>
				<path fill="url(#SVGID_10_)" d="M121.73,8.4l-4.46,25.38h-7.09l4.5-25.38H121.73z"/>
				<linearGradient id="SVGID_11_" gradientUnits="userSpaceOnUse" x1="169.0186" y1="34.0273" x2="169.0186" y2="8.1435">
					<stop  offset="1.692840e-03" style="stop-color:#ED9A21"/>
					<stop  offset="1" style="stop-color:#FCDA4F"/>
				</linearGradient>
				<path fill="url(#SVGID_11_)" d="M149.13,33.78h-7.09l-6.84-14.18l-2.52,14.18h-7.09l4.5-25.38h7.06l6.88,14.36l2.52-14.36h7.06
					L149.13,33.78z"/>
				<linearGradient id="SVGID_12_" gradientUnits="userSpaceOnUse" x1="169.0186" y1="34.0273" x2="169.0186" y2="8.1435">
					<stop  offset="1.692840e-03" style="stop-color:#ED9A21"/>
					<stop  offset="1" style="stop-color:#FCDA4F"/>
				</linearGradient>
				<path fill="url(#SVGID_12_)" d="M192.62,8.4l-1.01,5.62h-6.73l-3.49,19.76h-7.09l3.49-19.76h-6.7l1.01-5.62H192.62z"/>
				<linearGradient id="SVGID_13_" gradientUnits="userSpaceOnUse" x1="169.0186" y1="34.0273" x2="169.0186" y2="8.1435">
					<stop  offset="1.692840e-03" style="stop-color:#ED9A21"/>
					<stop  offset="1" style="stop-color:#FCDA4F"/>
				</linearGradient>
				<path fill="url(#SVGID_13_)" d="M206.48,8.4l-2.56,14.72c-0.07,0.43-0.11,0.84-0.11,1.22c0,0.96,0.26,1.7,0.77,2.23
					c0.52,0.53,1.31,0.79,2.39,0.79c1.3,0,2.34-0.37,3.13-1.12c0.79-0.74,1.31-1.79,1.55-3.13l2.59-14.72h7.06l-2.59,14.72
					c-0.41,2.4-1.24,4.42-2.48,6.05c-1.25,1.63-2.77,2.85-4.57,3.65c-1.8,0.8-3.77,1.21-5.9,1.21c-2.76,0-4.97-0.72-6.64-2.16
					c-1.67-1.44-2.5-3.5-2.5-6.19c0-0.86,0.08-1.72,0.25-2.56l2.59-14.72H206.48z"/>
				<linearGradient id="SVGID_14_" gradientUnits="userSpaceOnUse" x1="169.0186" y1="34.0273" x2="169.0186" y2="8.1435">
					<stop  offset="1.692840e-03" style="stop-color:#ED9A21"/>
					<stop  offset="1" style="stop-color:#FCDA4F"/>
				</linearGradient>
				<path fill="url(#SVGID_14_)" d="M229.16,14.35c1.39-1.96,3.14-3.48,5.26-4.57c2.11-1.09,4.42-1.64,6.91-1.64
					c2.09,0,3.91,0.38,5.47,1.15c1.56,0.77,2.77,1.86,3.64,3.28s1.33,3.08,1.4,5h-7.6c-0.29-0.94-0.79-1.66-1.51-2.16
					s-1.61-0.76-2.66-0.76c-1.63,0-3.04,0.58-4.21,1.73c-1.18,1.15-1.93,2.7-2.27,4.64c-0.1,0.5-0.14,1.04-0.14,1.62
					c0,1.49,0.39,2.66,1.17,3.51c0.78,0.85,1.85,1.28,3.22,1.28c1.06,0,2.03-0.25,2.93-0.76s1.65-1.22,2.25-2.16h7.63
					c-1.15,2.9-2.96,5.2-5.44,6.89c-2.47,1.69-5.29,2.54-8.46,2.54c-2.18,0-4.07-0.42-5.67-1.26c-1.6-0.84-2.81-2.03-3.65-3.56
					c-0.84-1.54-1.26-3.31-1.26-5.33c0-0.94,0.08-1.86,0.25-2.77C226.85,18.54,227.76,16.31,229.16,14.35z"/>
			</g>
		</g>
		<g id="bitcoin_2_">
			<path fill="#272525" d="M50.58,34.86c1.45-1.87,1.8-6.77,1.8-6.77v-0.62c0-5.65-4.43-10.28-10-10.61v-4.33h-7v4h-4v-4h-7v4h-1h-4
				v7h4v9.59v7v8.41h-4v7h3.57h1.43v3h7v-3h4v3h7v-3h0.39c0,0,11.51-5.25,11.61-11.6V43.3C54.29,39.96,52.85,36.96,50.58,34.86z
				 M30.38,23.53h1.55h9.75c2.04,0,3.7,1.65,3.7,3.7v0.61c0,2.04-1.66,3.7-3.7,3.7h-11.3V23.53z M47.38,44.41
				c0,2.28-1.84,4.12-4.12,4.12H32h-1.61v-9h11.79h1.09c2.28,0,4.12,1.84,4.12,4.12V44.41z"/>
		</g>
	</g>
	<g display="none">
		<g display="inline">
			<g>
				<linearGradient id="SVGID_15_" gradientUnits="userSpaceOnUse" x1="78.0435" y1="258.4614" x2="78.0435" y2="238.7749">
					<stop  offset="1.692840e-03" style="stop-color:#ED9A21"/>
					<stop  offset="1" style="stop-color:#FCDA4F"/>
				</linearGradient>
				<path fill="url(#SVGID_15_)" d="M-3.32,246.88c-0.73,0.75-1.61,1.27-2.63,1.54c0.93,0.22,1.65,0.66,2.16,1.33
					c0.52,0.67,0.78,1.47,0.78,2.4c0,0.29-0.03,0.59-0.08,0.9c-0.27,1.63-1.05,2.91-2.34,3.84s-2.96,1.39-5.01,1.39h-9.5l3.4-19.2
					h9.2c1.74,0,3.09,0.35,4.06,1.05c0.96,0.7,1.44,1.69,1.44,2.98c0,0.31-0.03,0.63-0.08,0.95
					C-2.11,245.18-2.58,246.12-3.32,246.88z M-8.37,251.9c0-0.45-0.15-0.8-0.45-1.05c-0.3-0.25-0.74-0.37-1.32-0.37h-3.08l-0.6,3.51
					h3.1c1.32,0,2.1-0.57,2.31-1.71C-8.38,252.19-8.37,252.06-8.37,251.9z M-7.52,244.63c0-0.87-0.57-1.31-1.72-1.31h-2.7l-0.6,3.4
					h2.7c1.32,0,2.09-0.56,2.29-1.69C-7.53,244.95-7.52,244.81-7.52,244.63z"/>
				<linearGradient id="SVGID_16_" gradientUnits="userSpaceOnUse" x1="78.0435" y1="258.4614" x2="78.0435" y2="238.7749">
					<stop  offset="1.692840e-03" style="stop-color:#ED9A21"/>
					<stop  offset="1" style="stop-color:#FCDA4F"/>
				</linearGradient>
				<path fill="url(#SVGID_16_)" d="M7.07,239.07l-3.38,19.2h-5.36l3.4-19.2H7.07z"/>
				<linearGradient id="SVGID_17_" gradientUnits="userSpaceOnUse" x1="78.0435" y1="258.4614" x2="78.0435" y2="238.7749">
					<stop  offset="1.692840e-03" style="stop-color:#ED9A21"/>
					<stop  offset="1" style="stop-color:#FCDA4F"/>
				</linearGradient>
				<path fill="url(#SVGID_17_)" d="M24.58,239.07l-0.76,4.25h-5.09l-2.64,14.95h-5.36l2.64-14.95H8.3l0.76-4.25H24.58z"/>
				<linearGradient id="SVGID_18_" gradientUnits="userSpaceOnUse" x1="78.0435" y1="258.4614" x2="78.0435" y2="238.7749">
					<stop  offset="1.692840e-03" style="stop-color:#ED9A21"/>
					<stop  offset="1" style="stop-color:#FCDA4F"/>
				</linearGradient>
				<path fill="url(#SVGID_18_)" d="M26.3,243.58c1.05-1.48,2.38-2.63,3.98-3.46c1.6-0.83,3.34-1.24,5.23-1.24
					c1.58,0,2.96,0.29,4.14,0.87c1.18,0.58,2.1,1.41,2.75,2.48c0.65,1.07,1.01,2.33,1.06,3.79H37.7c-0.22-0.71-0.6-1.25-1.14-1.63
					s-1.22-0.57-2.01-0.57c-1.23,0-2.3,0.44-3.19,1.31c-0.89,0.87-1.46,2.04-1.72,3.51c-0.07,0.38-0.11,0.79-0.11,1.22
					c0,1.13,0.29,2.01,0.88,2.66s1.4,0.97,2.44,0.97c0.8,0,1.54-0.19,2.22-0.57c0.68-0.38,1.25-0.93,1.7-1.63h5.77
					c-0.87,2.2-2.24,3.93-4.11,5.21c-1.87,1.28-4,1.92-6.4,1.92c-1.65,0-3.08-0.32-4.29-0.95c-1.21-0.64-2.13-1.53-2.76-2.7
					c-0.64-1.16-0.95-2.5-0.95-4.03c0-0.71,0.06-1.41,0.19-2.1C24.55,246.74,25.24,245.06,26.3,243.58z"/>
				<linearGradient id="SVGID_19_" gradientUnits="userSpaceOnUse" x1="78.0435" y1="258.4614" x2="78.0435" y2="238.7749">
					<stop  offset="1.692840e-03" style="stop-color:#ED9A21"/>
					<stop  offset="1" style="stop-color:#FCDA4F"/>
				</linearGradient>
				<path fill="url(#SVGID_19_)" d="M48.81,257.45c-1.23-0.67-2.19-1.62-2.86-2.83c-0.67-1.22-1.01-2.61-1.01-4.19
					c0-2.27,0.48-4.29,1.43-6.06c0.95-1.77,2.29-3.14,4-4.13s3.68-1.47,5.9-1.47c1.65,0,3.1,0.33,4.34,0.99
					c1.24,0.66,2.2,1.6,2.87,2.8c0.67,1.21,1.01,2.6,1.01,4.18c0,2.25-0.48,4.27-1.44,6.04c-0.96,1.78-2.31,3.17-4.03,4.17
					s-3.7,1.5-5.94,1.5C51.47,258.46,50.05,258.13,48.81,257.45z M56.72,252.66c0.81-0.56,1.42-1.31,1.85-2.25
					c0.43-0.93,0.64-1.95,0.64-3.04c0-1.16-0.31-2.06-0.94-2.71c-0.63-0.64-1.52-0.97-2.68-0.97c-1.07,0-2.02,0.28-2.83,0.83
					c-0.82,0.55-1.44,1.29-1.88,2.22c-0.44,0.93-0.65,1.94-0.65,3.05c0,1.14,0.32,2.05,0.95,2.71c0.64,0.66,1.54,0.99,2.72,0.99
					C54.98,253.51,55.92,253.23,56.72,252.66z"/>
				<linearGradient id="SVGID_20_" gradientUnits="userSpaceOnUse" x1="78.0435" y1="258.4614" x2="78.0435" y2="238.7749">
					<stop  offset="1.692840e-03" style="stop-color:#ED9A21"/>
					<stop  offset="1" style="stop-color:#FCDA4F"/>
				</linearGradient>
				<path fill="url(#SVGID_20_)" d="M73.97,239.07l-3.38,19.2h-5.36l3.4-19.2H73.97z"/>
				<linearGradient id="SVGID_21_" gradientUnits="userSpaceOnUse" x1="78.0435" y1="258.4614" x2="78.0435" y2="238.7749">
					<stop  offset="1.692840e-03" style="stop-color:#ED9A21"/>
					<stop  offset="1" style="stop-color:#FCDA4F"/>
				</linearGradient>
				<path fill="url(#SVGID_21_)" d="M91.43,258.27h-5.36l-5.17-10.73l-1.91,10.73h-5.36l3.4-19.2h5.34l5.2,10.86l1.91-10.86h5.34
					L91.43,258.27z"/>
				<linearGradient id="SVGID_22_" gradientUnits="userSpaceOnUse" x1="78.0435" y1="258.4614" x2="78.0435" y2="238.7749">
					<stop  offset="1.692840e-03" style="stop-color:#ED9A21"/>
					<stop  offset="1" style="stop-color:#FCDA4F"/>
				</linearGradient>
				<path fill="url(#SVGID_22_)" d="M106.02,254.21h5.96l-0.74,4.06H99.92l3.4-19.2h5.34L106.02,254.21z"/>
				<linearGradient id="SVGID_23_" gradientUnits="userSpaceOnUse" x1="78.0435" y1="258.4614" x2="78.0435" y2="238.7749">
					<stop  offset="1.692840e-03" style="stop-color:#ED9A21"/>
					<stop  offset="1" style="stop-color:#FCDA4F"/>
				</linearGradient>
				<path fill="url(#SVGID_23_)" d="M118.3,257.45c-1.23-0.67-2.19-1.62-2.86-2.83c-0.67-1.22-1.01-2.61-1.01-4.19
					c0-2.27,0.48-4.29,1.43-6.06c0.95-1.77,2.29-3.14,4-4.13s3.68-1.47,5.9-1.47c1.65,0,3.1,0.33,4.34,0.99
					c1.24,0.66,2.2,1.6,2.87,2.8c0.67,1.21,1.01,2.6,1.01,4.18c0,2.25-0.48,4.27-1.44,6.04c-0.96,1.78-2.31,3.17-4.03,4.17
					s-3.7,1.5-5.94,1.5C120.96,258.46,119.54,258.13,118.3,257.45z M126.21,252.66c0.81-0.56,1.42-1.31,1.85-2.25
					c0.43-0.93,0.64-1.95,0.64-3.04c0-1.16-0.31-2.06-0.94-2.71c-0.63-0.64-1.52-0.97-2.68-0.97c-1.07,0-2.02,0.28-2.83,0.83
					c-0.82,0.55-1.44,1.29-1.88,2.22c-0.44,0.93-0.65,1.94-0.65,3.05c0,1.14,0.32,2.05,0.95,2.71c0.64,0.66,1.54,0.99,2.72,0.99
					C124.46,253.51,125.4,253.23,126.21,252.66z"/>
				<linearGradient id="SVGID_24_" gradientUnits="userSpaceOnUse" x1="78.0435" y1="258.4614" x2="78.0435" y2="238.7749">
					<stop  offset="1.692840e-03" style="stop-color:#ED9A21"/>
					<stop  offset="1" style="stop-color:#FCDA4F"/>
				</linearGradient>
				<path fill="url(#SVGID_24_)" d="M137.88,243.58c1.07-1.48,2.41-2.63,4.03-3.46c1.62-0.83,3.39-1.24,5.31-1.24
					c2.41,0,4.31,0.58,5.68,1.74c1.37,1.16,2.07,2.75,2.11,4.77h-5.75c-0.2-0.51-0.54-0.9-1.03-1.17c-0.49-0.27-1.11-0.41-1.85-0.41
					c-1.33,0-2.46,0.44-3.39,1.31s-1.53,2.04-1.78,3.51c-0.09,0.54-0.14,1-0.14,1.36c0,1.22,0.34,2.14,1.03,2.76
					s1.71,0.94,3.05,0.94c1.87,0,3.36-0.84,4.47-2.53h-5.36l0.68-3.84h9.97l-0.93,5.17c-0.94,1.62-2.3,3-4.06,4.17
					c-1.76,1.16-3.79,1.74-6.1,1.74c-1.71,0-3.18-0.32-4.41-0.97s-2.18-1.55-2.83-2.71c-0.65-1.16-0.98-2.5-0.98-4.03
					c0-0.73,0.06-1.42,0.19-2.07C136.11,246.74,136.81,245.06,137.88,243.58z"/>
				<linearGradient id="SVGID_25_" gradientUnits="userSpaceOnUse" x1="78.0435" y1="258.4614" x2="78.0435" y2="238.7749">
					<stop  offset="1.692840e-03" style="stop-color:#ED9A21"/>
					<stop  offset="1" style="stop-color:#FCDA4F"/>
				</linearGradient>
				<path fill="url(#SVGID_25_)" d="M160.34,257.45c-1.23-0.67-2.19-1.62-2.86-2.83c-0.67-1.22-1.01-2.61-1.01-4.19
					c0-2.27,0.48-4.29,1.43-6.06c0.95-1.77,2.29-3.14,4-4.13s3.68-1.47,5.9-1.47c1.65,0,3.1,0.33,4.34,0.99
					c1.24,0.66,2.2,1.6,2.87,2.8c0.67,1.21,1.01,2.6,1.01,4.18c0,2.25-0.48,4.27-1.44,6.04c-0.96,1.78-2.31,3.17-4.03,4.17
					s-3.7,1.5-5.94,1.5C163,258.46,161.58,258.13,160.34,257.45z M168.25,252.66c0.81-0.56,1.42-1.31,1.85-2.25
					c0.43-0.93,0.64-1.95,0.64-3.04c0-1.16-0.31-2.06-0.94-2.71c-0.63-0.64-1.52-0.97-2.68-0.97c-1.07,0-2.02,0.28-2.83,0.83
					c-0.82,0.55-1.44,1.29-1.88,2.22c-0.44,0.93-0.65,1.94-0.65,3.05c0,1.14,0.32,2.05,0.95,2.71c0.64,0.66,1.54,0.99,2.72,0.99
					C166.5,253.51,167.44,253.23,168.25,252.66z"/>
			</g>
		</g>
		<g display="inline">
			<path fill="#FFFFFF" d="M24.36,266.73l-2.1,4.04v2.3h-1.04v-2.3l-2.11-4.04h1.16l1.47,3.11l1.47-3.11H24.36z"/>
			<path fill="#FFFFFF" d="M28.27,272.71c-0.5-0.28-0.89-0.66-1.18-1.16c-0.29-0.5-0.43-1.05-0.43-1.67s0.14-1.18,0.43-1.67
				c0.29-0.49,0.68-0.88,1.18-1.15c0.5-0.28,1.04-0.42,1.63-0.42c0.6,0,1.14,0.14,1.64,0.42c0.5,0.28,0.89,0.66,1.17,1.15
				c0.29,0.49,0.43,1.05,0.43,1.67s-0.14,1.18-0.43,1.67c-0.29,0.5-0.68,0.88-1.17,1.16c-0.5,0.28-1.04,0.42-1.64,0.42
				C29.31,273.13,28.77,272.99,28.27,272.71z M31.02,271.94c0.33-0.19,0.58-0.47,0.77-0.82s0.28-0.77,0.28-1.24
				c0-0.47-0.09-0.88-0.28-1.23s-0.44-0.62-0.77-0.81s-0.7-0.28-1.12-0.28c-0.42,0-0.79,0.09-1.12,0.28
				c-0.33,0.19-0.58,0.46-0.77,0.81s-0.28,0.76-0.28,1.23c0,0.47,0.09,0.88,0.28,1.24s0.44,0.63,0.77,0.82
				c0.33,0.19,0.7,0.29,1.12,0.29C30.32,272.22,30.69,272.13,31.02,271.94z"/>
			<path fill="#FFFFFF" d="M37.01,266.73v4.04c0,0.48,0.13,0.84,0.38,1.08c0.25,0.24,0.6,0.36,1.05,0.36c0.46,0,0.81-0.12,1.06-0.36
				c0.25-0.24,0.38-0.6,0.38-1.08v-4.04h1.04v4.02c0,0.52-0.11,0.95-0.34,1.31c-0.23,0.36-0.53,0.63-0.9,0.8
				c-0.38,0.18-0.79,0.26-1.25,0.26s-0.87-0.09-1.24-0.26c-0.37-0.18-0.67-0.44-0.89-0.8c-0.22-0.36-0.33-0.8-0.33-1.31v-4.02H37.01
				z"/>
			<path fill="#FFFFFF" d="M47.39,273.06l-1.46-2.54h-0.79v2.54H44.1v-6.34h2.19c0.49,0,0.9,0.08,1.24,0.25s0.59,0.4,0.76,0.68
				c0.17,0.29,0.25,0.61,0.25,0.96c0,0.41-0.12,0.79-0.36,1.13c-0.24,0.34-0.61,0.57-1.11,0.69l1.57,2.63H47.39z M45.14,269.7h1.15
				c0.39,0,0.68-0.1,0.88-0.29c0.2-0.19,0.3-0.46,0.3-0.78s-0.1-0.58-0.29-0.77c-0.19-0.19-0.49-0.28-0.88-0.28h-1.15V269.7z"/>
			<path fill="#FFFFFF" d="M59.98,266.73v0.85h-1.69v5.49h-1.04v-5.49h-1.7v-0.85H59.98z"/>
			<path fill="#FFFFFF" d="M66.67,271.77h-2.65l-0.46,1.29h-1.09l2.27-6.35h1.2l2.27,6.35h-1.09L66.67,271.77z M66.38,270.92
				l-1.03-2.95l-1.04,2.95H66.38z"/>
			<path fill="#FFFFFF" d="M75.62,268.55c-0.16-0.32-0.39-0.55-0.68-0.72s-0.63-0.24-1.01-0.24c-0.42,0-0.79,0.09-1.12,0.28
				c-0.33,0.19-0.58,0.46-0.77,0.8s-0.28,0.75-0.28,1.2s0.09,0.86,0.28,1.21s0.44,0.62,0.77,0.81c0.33,0.19,0.7,0.28,1.12,0.28
				c0.57,0,1.02-0.16,1.38-0.47c0.35-0.32,0.57-0.75,0.65-1.29h-2.38v-0.83h3.49v0.81c-0.07,0.49-0.24,0.95-0.52,1.36
				c-0.28,0.41-0.65,0.74-1.1,0.99c-0.45,0.25-0.96,0.37-1.51,0.37c-0.6,0-1.14-0.14-1.63-0.42c-0.49-0.28-0.88-0.66-1.17-1.15
				c-0.29-0.49-0.43-1.05-0.43-1.67s0.14-1.18,0.43-1.67c0.29-0.49,0.68-0.88,1.18-1.15c0.5-0.28,1.04-0.42,1.63-0.42
				c0.67,0,1.27,0.17,1.8,0.5c0.53,0.33,0.91,0.8,1.14,1.41H75.62z"/>
			<path fill="#FFFFFF" d="M80.94,272.22h2.14v0.84H79.9v-6.34h1.04V272.22z"/>
			<path fill="#FFFFFF" d="M86.82,266.73v6.34h-1.04v-6.34H86.82z"/>
			<path fill="#FFFFFF" d="M95.21,273.06h-1.04l-3.13-4.73v4.73h-1.04v-6.35h1.04l3.13,4.72v-4.72h1.04V273.06z"/>
			<path fill="#FFFFFF" d="M99.45,267.56v1.86h2.19v0.85h-2.19v1.94h2.46v0.85h-3.5v-6.35h3.5v0.85H99.45z"/>
			<path fill="#FFFFFF" d="M114.27,266.73v6.34h-1.04v-2.77h-2.98v2.77h-1.04v-6.34h1.04v2.72h2.98v-2.72H114.27z"/>
			<path fill="#FFFFFF" d="M118.5,267.56v1.86h2.19v0.85h-2.19v1.94h2.46v0.85h-3.5v-6.35h3.5v0.85H118.5z"/>
			<path fill="#FFFFFF" d="M127.35,273.06l-1.46-2.54h-0.79v2.54h-1.04v-6.34h2.19c0.49,0,0.9,0.08,1.24,0.25s0.59,0.4,0.76,0.68
				c0.17,0.29,0.25,0.61,0.25,0.96c0,0.41-0.12,0.79-0.36,1.13c-0.24,0.34-0.61,0.57-1.11,0.69l1.57,2.63H127.35z M125.1,269.7h1.15
				c0.39,0,0.68-0.1,0.88-0.29c0.2-0.19,0.3-0.46,0.3-0.78s-0.1-0.58-0.29-0.77c-0.19-0.19-0.49-0.28-0.88-0.28h-1.15V269.7z"/>
			<path fill="#FFFFFF" d="M132.69,267.56v1.86h2.19v0.85h-2.19v1.94h2.46v0.85h-3.5v-6.35h3.5v0.85H132.69z"/>
		</g>
		<g display="inline">
			<g>
				<linearGradient id="SVGID_26_" gradientUnits="userSpaceOnUse" x1="78.2747" y1="230.1445" x2="78.2747" y2="161.4063">
					<stop  offset="0" style="stop-color:#BBBCBF"/>
					<stop  offset="1" style="stop-color:#FFFFFF"/>
				</linearGradient>
				<path fill="url(#SVGID_26_)" d="M81.16,219.03v-4.85h2.28c5.84,0,10.59-4.75,10.59-10.59c0-3.94-2.17-7.39-5.37-9.21
					c1.36-1.78,2.17-4.01,2.17-6.42c0-5.53-4.26-10.08-9.67-10.55v-4.89h-4.57v4.85h-2.63v-4.85h-4.57v4.85H68.4h-2.28h-3.59v5.56
					h3.59V193v5.56v10.07h-3.59v5.56h3.59h2.28h0.99v4.85h4.57v-4.85h2.63v4.85H81.16z M71.67,182.93h8.56
					c2.78,0,5.03,2.26,5.03,5.03S83.01,193,80.23,193h-8.56V182.93z M71.67,208.62v-10.07h8.56h3.2c2.78,0,5.03,2.26,5.03,5.03
					c0,2.78-2.26,5.03-5.03,5.03H71.67z"/>
				<linearGradient id="SVGID_27_" gradientUnits="userSpaceOnUse" x1="78.2747" y1="230.1445" x2="78.2747" y2="161.4063">
					<stop  offset="0" style="stop-color:#BBBCBF"/>
					<stop  offset="1" style="stop-color:#FFFFFF"/>
				</linearGradient>
				<path fill="url(#SVGID_27_)" d="M101.4,189.69c-0.27-0.57-0.84-0.96-1.51-0.96c-0.92,0-1.67,0.75-1.67,1.67
					c0,0.92,0.75,1.67,1.67,1.67c0.67,0,1.24-0.39,1.51-0.96h6.92c0.19,0,0.37-0.08,0.5-0.21l5.04-5.04h12.17
					c0.32,1.3,1.49,2.28,2.89,2.28c1.65,0,2.99-1.34,2.99-2.99c0-1.65-1.34-2.99-2.99-2.99c-1.4,0-2.57,0.97-2.89,2.28h-12.46
					c-0.19,0-0.37,0.08-0.5,0.21l-5.04,5.04H101.4z M128.92,183.58c0.86,0,1.57,0.7,1.57,1.57c0,0.86-0.7,1.57-1.57,1.57
					s-1.57-0.7-1.57-1.57C127.36,184.29,128.06,183.58,128.92,183.58z"/>
				<linearGradient id="SVGID_28_" gradientUnits="userSpaceOnUse" x1="78.2747" y1="230.1445" x2="78.2747" y2="161.4063">
					<stop  offset="0" style="stop-color:#BBBCBF"/>
					<stop  offset="1" style="stop-color:#FFFFFF"/>
				</linearGradient>
				<path fill="url(#SVGID_28_)" d="M117.35,195.06H101.4c-0.27-0.57-0.84-0.96-1.51-0.96c-0.92,0-1.67,0.75-1.67,1.67
					c0,0.92,0.75,1.67,1.67,1.67c0.67,0,1.24-0.39,1.51-0.96h15.94c0.32,1.3,1.49,2.28,2.89,2.28c1.65,0,2.99-1.34,2.99-2.99
					c0-1.65-1.34-2.99-2.99-2.99C118.84,192.79,117.67,193.76,117.35,195.06z M121.81,195.78c0,0.86-0.7,1.57-1.57,1.57
					c-0.86,0-1.57-0.7-1.57-1.57c0-0.86,0.7-1.57,1.57-1.57C121.1,194.21,121.81,194.91,121.81,195.78z"/>
				<linearGradient id="SVGID_29_" gradientUnits="userSpaceOnUse" x1="78.2747" y1="230.1445" x2="78.2747" y2="161.4063">
					<stop  offset="0" style="stop-color:#BBBCBF"/>
					<stop  offset="1" style="stop-color:#FFFFFF"/>
				</linearGradient>
				<path fill="url(#SVGID_29_)" d="M128.92,203.41c-1.4,0-2.57,0.97-2.89,2.28h-7.37l-5.04-5.04c-0.13-0.13-0.31-0.21-0.5-0.21
					H101.4c-0.27-0.57-0.84-0.96-1.51-0.96c-0.92,0-1.67,0.75-1.67,1.67c0,0.92,0.75,1.67,1.67,1.67c0.67,0,1.24-0.39,1.51-0.96
					h11.41l5.04,5.04c0.13,0.13,0.31,0.21,0.5,0.21h7.67c0.32,1.3,1.49,2.28,2.89,2.28c1.65,0,2.99-1.34,2.99-2.99
					C131.91,204.75,130.57,203.41,128.92,203.41z M128.92,207.97c-0.86,0-1.57-0.7-1.57-1.57s0.7-1.57,1.57-1.57s1.57,0.7,1.57,1.57
					S129.79,207.97,128.92,207.97z"/>
				<linearGradient id="SVGID_30_" gradientUnits="userSpaceOnUse" x1="78.2747" y1="230.1445" x2="78.2747" y2="161.4063">
					<stop  offset="0" style="stop-color:#BBBCBF"/>
					<stop  offset="1" style="stop-color:#FFFFFF"/>
				</linearGradient>
				<path fill="url(#SVGID_30_)" d="M27.63,188.14c1.4,0,2.57-0.97,2.89-2.28h12.17l5.04,5.04c0.13,0.13,0.31,0.21,0.5,0.21h6.92
					c0.27,0.57,0.84,0.96,1.51,0.96c0.92,0,1.67-0.75,1.67-1.67c0-0.92-0.75-1.67-1.67-1.67c-0.67,0-1.24,0.39-1.51,0.96h-6.62
					l-5.04-5.04c-0.13-0.13-0.31-0.21-0.5-0.21H30.52c-0.32-1.3-1.49-2.28-2.89-2.28c-1.65,0-2.99,1.34-2.99,2.99
					C24.64,186.8,25.98,188.14,27.63,188.14z M27.63,183.58c0.86,0,1.57,0.7,1.57,1.57c0,0.86-0.7,1.57-1.57,1.57
					c-0.86,0-1.57-0.7-1.57-1.57C26.06,184.29,26.76,183.58,27.63,183.58z"/>
				<linearGradient id="SVGID_31_" gradientUnits="userSpaceOnUse" x1="78.2747" y1="230.1445" x2="78.2747" y2="161.4063">
					<stop  offset="0" style="stop-color:#BBBCBF"/>
					<stop  offset="1" style="stop-color:#FFFFFF"/>
				</linearGradient>
				<path fill="url(#SVGID_31_)" d="M56.65,194.1c-0.67,0-1.24,0.39-1.51,0.96H39.2c-0.32-1.3-1.49-2.28-2.89-2.28
					c-1.65,0-2.99,1.34-2.99,2.99c0,1.65,1.34,2.99,2.99,2.99c1.4,0,2.57-0.97,2.89-2.28h15.94c0.27,0.57,0.84,0.96,1.51,0.96
					c0.92,0,1.67-0.75,1.67-1.67C58.32,194.85,57.57,194.1,56.65,194.1z M36.31,197.34c-0.86,0-1.57-0.7-1.57-1.57
					c0-0.86,0.7-1.57,1.57-1.57c0.86,0,1.57,0.7,1.57,1.57C37.88,196.64,37.17,197.34,36.31,197.34z"/>
				<linearGradient id="SVGID_32_" gradientUnits="userSpaceOnUse" x1="78.2747" y1="230.1445" x2="78.2747" y2="161.4063">
					<stop  offset="0" style="stop-color:#BBBCBF"/>
					<stop  offset="1" style="stop-color:#FFFFFF"/>
				</linearGradient>
				<path fill="url(#SVGID_32_)" d="M56.65,202.82c0.92,0,1.67-0.75,1.67-1.67c0-0.92-0.75-1.67-1.67-1.67
					c-0.67,0-1.24,0.39-1.51,0.96H43.44c-0.19,0-0.37,0.08-0.5,0.21l-5.04,5.04h-7.37c-0.32-1.3-1.49-2.28-2.89-2.28
					c-1.65,0-2.99,1.34-2.99,2.99c0,1.65,1.34,2.99,2.99,2.99c1.4,0,2.57-0.97,2.89-2.28h7.67c0.19,0,0.37-0.08,0.5-0.21l5.04-5.04
					h11.42C55.41,202.43,55.98,202.82,56.65,202.82z M27.63,207.97c-0.86,0-1.57-0.7-1.57-1.57s0.7-1.57,1.57-1.57
					c0.86,0,1.57,0.7,1.57,1.57S28.49,207.97,27.63,207.97z"/>
				<linearGradient id="SVGID_33_" gradientUnits="userSpaceOnUse" x1="78.2747" y1="230.1445" x2="78.2747" y2="161.4063">
					<stop  offset="0" style="stop-color:#BBBCBF"/>
					<stop  offset="1" style="stop-color:#FFFFFF"/>
				</linearGradient>
				<path fill="url(#SVGID_33_)" d="M47.85,181.35c0.1,0.05,0.21,0.08,0.32,0.08c0.26,0,0.51-0.14,0.64-0.39
					c5.63-11.23,16.92-18.21,29.47-18.21c12.55,0,23.85,6.98,29.47,18.21c0.18,0.35,0.6,0.49,0.95,0.32
					c0.35-0.18,0.49-0.6,0.32-0.95c-5.87-11.71-17.65-18.99-30.74-18.99c-13.09,0-24.87,7.28-30.74,18.99
					C47.35,180.75,47.5,181.17,47.85,181.35z"/>
				<linearGradient id="SVGID_34_" gradientUnits="userSpaceOnUse" x1="78.2747" y1="230.1445" x2="78.2747" y2="161.4063">
					<stop  offset="0" style="stop-color:#BBBCBF"/>
					<stop  offset="1" style="stop-color:#FFFFFF"/>
				</linearGradient>
				<path fill="url(#SVGID_34_)" d="M108.7,210.21c-0.35-0.18-0.78-0.03-0.95,0.32c-5.63,11.23-16.92,18.2-29.47,18.2
					c-12.55,0-23.84-6.97-29.47-18.2c-0.18-0.35-0.6-0.49-0.95-0.32c-0.35,0.18-0.49,0.6-0.32,0.95
					c5.87,11.71,17.65,18.98,30.74,18.98c13.09,0,24.87-7.27,30.74-18.98C109.19,210.81,109.05,210.38,108.7,210.21z"/>
			</g>
		</g>
	</g>
	<g display="none">
		<g display="inline">
			<g>
				<linearGradient id="SVGID_35_" gradientUnits="userSpaceOnUse" x1="284.263" y1="143.6562" x2="284.263" y2="134.8424">
					<stop  offset="0" style="stop-color:#BBBCBF"/>
					<stop  offset="1" style="stop-color:#FFFFFF"/>
				</linearGradient>
				<path fill="url(#SVGID_35_)" d="M202.9,140.32c-0.74,0.75-1.61,1.27-2.63,1.54c0.93,0.22,1.65,0.66,2.17,1.33
					c0.52,0.67,0.78,1.47,0.78,2.4c0,0.29-0.03,0.59-0.08,0.9c-0.27,1.63-1.05,2.91-2.34,3.84c-1.29,0.93-2.96,1.39-5.01,1.39h-9.5
					l3.4-19.2h9.2c1.74,0,3.09,0.35,4.06,1.05c0.96,0.7,1.44,1.69,1.44,2.98c0,0.31-0.03,0.63-0.08,0.95
					C204.11,138.63,203.64,139.57,202.9,140.32z M197.85,145.34c0-0.45-0.15-0.8-0.45-1.05c-0.3-0.25-0.74-0.37-1.32-0.37h-3.08
					l-0.6,3.51h3.1c1.32,0,2.1-0.57,2.31-1.71C197.84,145.63,197.85,145.51,197.85,145.34z M198.7,138.07
					c0-0.87-0.57-1.31-1.72-1.31h-2.7l-0.6,3.4h2.7c1.33,0,2.09-0.56,2.29-1.69C198.69,138.39,198.7,138.26,198.7,138.07z"/>
				<linearGradient id="SVGID_36_" gradientUnits="userSpaceOnUse" x1="284.263" y1="143.6562" x2="284.263" y2="134.8424">
					<stop  offset="0" style="stop-color:#BBBCBF"/>
					<stop  offset="1" style="stop-color:#FFFFFF"/>
				</linearGradient>
				<path fill="url(#SVGID_36_)" d="M213.29,132.52l-3.38,19.2h-5.36l3.4-19.2H213.29z"/>
				<linearGradient id="SVGID_37_" gradientUnits="userSpaceOnUse" x1="284.263" y1="143.6562" x2="284.263" y2="134.8424">
					<stop  offset="0" style="stop-color:#BBBCBF"/>
					<stop  offset="1" style="stop-color:#FFFFFF"/>
				</linearGradient>
				<path fill="url(#SVGID_37_)" d="M230.8,132.52l-0.76,4.25h-5.09l-2.64,14.95h-5.36l2.64-14.95h-5.06l0.76-4.25H230.8z"/>
				<linearGradient id="SVGID_38_" gradientUnits="userSpaceOnUse" x1="284.263" y1="143.6562" x2="284.263" y2="134.8424">
					<stop  offset="0" style="stop-color:#BBBCBF"/>
					<stop  offset="1" style="stop-color:#FFFFFF"/>
				</linearGradient>
				<path fill="url(#SVGID_38_)" d="M232.51,137.02c1.05-1.48,2.38-2.63,3.98-3.46c1.6-0.83,3.34-1.24,5.23-1.24
					c1.58,0,2.96,0.29,4.14,0.87s2.1,1.41,2.75,2.48c0.65,1.07,1.01,2.33,1.06,3.79h-5.75c-0.22-0.71-0.6-1.25-1.14-1.63
					c-0.54-0.38-1.22-0.57-2.02-0.57c-1.23,0-2.3,0.44-3.19,1.31s-1.46,2.04-1.72,3.51c-0.07,0.38-0.11,0.79-0.11,1.22
					c0,1.13,0.29,2.01,0.88,2.66s1.4,0.97,2.44,0.97c0.8,0,1.54-0.19,2.22-0.57c0.68-0.38,1.25-0.93,1.7-1.63h5.77
					c-0.87,2.2-2.24,3.93-4.11,5.21c-1.87,1.28-4,1.92-6.4,1.92c-1.65,0-3.08-0.32-4.29-0.95c-1.21-0.64-2.13-1.53-2.76-2.7
					c-0.64-1.16-0.95-2.5-0.95-4.03c0-0.71,0.06-1.41,0.19-2.1C230.77,140.19,231.46,138.51,232.51,137.02z"/>
				<linearGradient id="SVGID_39_" gradientUnits="userSpaceOnUse" x1="284.263" y1="143.6562" x2="284.263" y2="134.8424">
					<stop  offset="0" style="stop-color:#BBBCBF"/>
					<stop  offset="1" style="stop-color:#FFFFFF"/>
				</linearGradient>
				<path fill="url(#SVGID_39_)" d="M255.03,150.9c-1.24-0.67-2.19-1.62-2.86-2.83s-1.01-2.61-1.01-4.19c0-2.27,0.48-4.29,1.43-6.06
					s2.29-3.14,4-4.13s3.68-1.47,5.9-1.47c1.65,0,3.1,0.33,4.34,0.99c1.24,0.66,2.2,1.6,2.87,2.8s1.01,2.6,1.01,4.18
					c0,2.25-0.48,4.27-1.44,6.04s-2.31,3.17-4.03,4.17c-1.72,1-3.7,1.5-5.94,1.5C257.69,151.91,256.27,151.57,255.03,150.9z
					 M262.94,146.11c0.81-0.56,1.42-1.31,1.85-2.25c0.43-0.93,0.64-1.95,0.64-3.04c0-1.16-0.31-2.06-0.94-2.71s-1.52-0.97-2.68-0.97
					c-1.07,0-2.02,0.28-2.83,0.83c-0.82,0.55-1.44,1.29-1.88,2.22s-0.65,1.94-0.65,3.05c0,1.14,0.32,2.05,0.95,2.71
					c0.63,0.66,1.54,0.99,2.72,0.99C261.2,146.95,262.13,146.67,262.94,146.11z"/>
				<linearGradient id="SVGID_40_" gradientUnits="userSpaceOnUse" x1="284.263" y1="143.6562" x2="284.263" y2="134.8424">
					<stop  offset="0" style="stop-color:#BBBCBF"/>
					<stop  offset="1" style="stop-color:#FFFFFF"/>
				</linearGradient>
				<path fill="url(#SVGID_40_)" d="M280.19,132.52l-3.38,19.2h-5.36l3.4-19.2H280.19z"/>
				<linearGradient id="SVGID_41_" gradientUnits="userSpaceOnUse" x1="284.263" y1="143.6562" x2="284.263" y2="134.8424">
					<stop  offset="0" style="stop-color:#BBBCBF"/>
					<stop  offset="1" style="stop-color:#FFFFFF"/>
				</linearGradient>
				<path fill="url(#SVGID_41_)" d="M297.65,151.72h-5.36l-5.17-10.73l-1.91,10.73h-5.36l3.4-19.2h5.34l5.2,10.86l1.91-10.86h5.34
					L297.65,151.72z"/>
				<linearGradient id="SVGID_42_" gradientUnits="userSpaceOnUse" x1="284.263" y1="143.6562" x2="284.263" y2="134.8424">
					<stop  offset="0" style="stop-color:#BBBCBF"/>
					<stop  offset="1" style="stop-color:#FFFFFF"/>
				</linearGradient>
				<path fill="url(#SVGID_42_)" d="M312.24,147.66h5.96l-0.73,4.06h-11.33l3.4-19.2h5.34L312.24,147.66z"/>
				<linearGradient id="SVGID_43_" gradientUnits="userSpaceOnUse" x1="284.263" y1="143.6562" x2="284.263" y2="134.8424">
					<stop  offset="0" style="stop-color:#BBBCBF"/>
					<stop  offset="1" style="stop-color:#FFFFFF"/>
				</linearGradient>
				<path fill="url(#SVGID_43_)" d="M324.52,150.9c-1.24-0.67-2.19-1.62-2.86-2.83s-1.01-2.61-1.01-4.19c0-2.27,0.48-4.29,1.43-6.06
					s2.29-3.14,4-4.13s3.68-1.47,5.9-1.47c1.65,0,3.1,0.33,4.34,0.99c1.24,0.66,2.2,1.6,2.87,2.8s1.01,2.6,1.01,4.18
					c0,2.25-0.48,4.27-1.44,6.04s-2.31,3.17-4.03,4.17c-1.72,1-3.7,1.5-5.94,1.5C327.18,151.91,325.75,151.57,324.52,150.9z
					 M332.43,146.11c0.81-0.56,1.42-1.31,1.85-2.25c0.43-0.93,0.64-1.95,0.64-3.04c0-1.16-0.31-2.06-0.94-2.71s-1.52-0.97-2.68-0.97
					c-1.07,0-2.02,0.28-2.83,0.83c-0.82,0.55-1.44,1.29-1.88,2.22s-0.65,1.94-0.65,3.05c0,1.14,0.32,2.05,0.95,2.71
					c0.63,0.66,1.54,0.99,2.72,0.99C330.68,146.95,331.62,146.67,332.43,146.11z"/>
				<linearGradient id="SVGID_44_" gradientUnits="userSpaceOnUse" x1="284.263" y1="143.6562" x2="284.263" y2="134.8424">
					<stop  offset="0" style="stop-color:#BBBCBF"/>
					<stop  offset="1" style="stop-color:#FFFFFF"/>
				</linearGradient>
				<path fill="url(#SVGID_44_)" d="M344.1,137.02c1.07-1.48,2.41-2.63,4.03-3.46c1.62-0.83,3.39-1.24,5.31-1.24
					c2.41,0,4.31,0.58,5.68,1.74c1.37,1.16,2.07,2.75,2.11,4.77h-5.75c-0.2-0.51-0.54-0.9-1.04-1.17c-0.49-0.27-1.11-0.41-1.85-0.41
					c-1.33,0-2.46,0.44-3.39,1.31c-0.94,0.87-1.53,2.04-1.78,3.51c-0.09,0.54-0.14,1-0.14,1.36c0,1.22,0.34,2.14,1.04,2.76
					c0.69,0.63,1.71,0.94,3.05,0.94c1.87,0,3.36-0.84,4.47-2.53h-5.36l0.68-3.84h9.97l-0.93,5.17c-0.94,1.62-2.3,3-4.06,4.17
					c-1.76,1.16-3.79,1.74-6.1,1.74c-1.71,0-3.18-0.32-4.41-0.97s-2.18-1.55-2.83-2.71c-0.65-1.16-0.98-2.5-0.98-4.03
					c0-0.73,0.06-1.42,0.19-2.07C342.33,140.19,343.03,138.51,344.1,137.02z"/>
				<linearGradient id="SVGID_45_" gradientUnits="userSpaceOnUse" x1="284.263" y1="143.6562" x2="284.263" y2="134.8424">
					<stop  offset="0" style="stop-color:#BBBCBF"/>
					<stop  offset="1" style="stop-color:#FFFFFF"/>
				</linearGradient>
				<path fill="url(#SVGID_45_)" d="M366.56,150.9c-1.24-0.67-2.19-1.62-2.86-2.83s-1.01-2.61-1.01-4.19c0-2.27,0.48-4.29,1.43-6.06
					s2.29-3.14,4-4.13s3.68-1.47,5.9-1.47c1.65,0,3.1,0.33,4.34,0.99c1.24,0.66,2.2,1.6,2.87,2.8s1.01,2.6,1.01,4.18
					c0,2.25-0.48,4.27-1.44,6.04s-2.31,3.17-4.03,4.17c-1.72,1-3.7,1.5-5.94,1.5C369.22,151.91,367.8,151.57,366.56,150.9z
					 M374.47,146.11c0.81-0.56,1.42-1.31,1.85-2.25c0.43-0.93,0.64-1.95,0.64-3.04c0-1.16-0.31-2.06-0.94-2.71s-1.52-0.97-2.68-0.97
					c-1.07,0-2.02,0.28-2.83,0.83c-0.82,0.55-1.44,1.29-1.88,2.22s-0.65,1.94-0.65,3.05c0,1.14,0.32,2.05,0.95,2.71
					c0.63,0.66,1.54,0.99,2.72,0.99C372.72,146.95,373.66,146.67,374.47,146.11z"/>
			</g>
		</g>
		<g display="inline">
			<path fill="#FCDA4F" d="M230.58,160.17l-2.1,4.04v2.3h-1.04v-2.3l-2.11-4.04h1.16l1.47,3.11l1.47-3.11H230.58z"/>
			<path fill="#FCDA4F" d="M234.49,166.16c-0.5-0.28-0.89-0.66-1.18-1.16c-0.29-0.5-0.43-1.05-0.43-1.67s0.14-1.18,0.43-1.67
				c0.29-0.49,0.68-0.88,1.18-1.15c0.5-0.28,1.04-0.42,1.63-0.42c0.6,0,1.14,0.14,1.64,0.42c0.5,0.28,0.89,0.66,1.17,1.15
				c0.29,0.49,0.43,1.05,0.43,1.67s-0.14,1.18-0.43,1.67c-0.29,0.5-0.68,0.88-1.17,1.16c-0.5,0.28-1.04,0.42-1.64,0.42
				C235.53,166.57,234.99,166.43,234.49,166.16z M237.24,165.38c0.33-0.19,0.59-0.47,0.77-0.82c0.18-0.36,0.28-0.77,0.28-1.24
				c0-0.47-0.09-0.88-0.28-1.23c-0.19-0.35-0.44-0.62-0.77-0.81c-0.33-0.19-0.7-0.28-1.12-0.28c-0.42,0-0.79,0.09-1.12,0.28
				s-0.58,0.46-0.77,0.81s-0.28,0.76-0.28,1.23c0,0.47,0.09,0.88,0.28,1.24s0.44,0.63,0.77,0.82s0.7,0.29,1.12,0.29
				C236.54,165.67,236.91,165.57,237.24,165.38z"/>
			<path fill="#FCDA4F" d="M243.23,160.17v4.04c0,0.48,0.13,0.84,0.38,1.08c0.25,0.24,0.6,0.36,1.05,0.36
				c0.46,0,0.81-0.12,1.06-0.36c0.25-0.24,0.38-0.6,0.38-1.08v-4.04h1.04v4.02c0,0.52-0.11,0.95-0.34,1.31
				c-0.22,0.36-0.53,0.63-0.9,0.8c-0.38,0.18-0.79,0.26-1.25,0.26c-0.46,0-0.87-0.09-1.25-0.26c-0.37-0.18-0.67-0.44-0.89-0.8
				c-0.22-0.36-0.33-0.8-0.33-1.31v-4.02H243.23z"/>
			<path fill="#FCDA4F" d="M253.61,166.51l-1.46-2.54h-0.79v2.54h-1.04v-6.34h2.19c0.49,0,0.9,0.08,1.24,0.25
				c0.34,0.17,0.59,0.4,0.76,0.68c0.17,0.29,0.25,0.61,0.25,0.96c0,0.41-0.12,0.79-0.36,1.13c-0.24,0.34-0.61,0.57-1.11,0.69
				l1.57,2.63H253.61z M251.36,163.14h1.15c0.39,0,0.68-0.1,0.88-0.29s0.3-0.46,0.3-0.78s-0.1-0.58-0.29-0.77
				c-0.2-0.19-0.49-0.28-0.88-0.28h-1.15V163.14z"/>
			<path fill="#FCDA4F" d="M266.2,160.17v0.85h-1.69v5.49h-1.04v-5.49h-1.7v-0.85H266.2z"/>
			<path fill="#FCDA4F" d="M272.89,165.21h-2.65l-0.46,1.29h-1.08l2.27-6.35h1.2l2.27,6.35h-1.09L272.89,165.21z M272.6,164.36
				l-1.03-2.95l-1.04,2.95H272.6z"/>
			<path fill="#FCDA4F" d="M281.84,161.99c-0.16-0.32-0.39-0.55-0.68-0.72c-0.29-0.16-0.63-0.24-1.01-0.24
				c-0.42,0-0.79,0.09-1.12,0.28s-0.58,0.46-0.77,0.8s-0.28,0.75-0.28,1.2s0.09,0.86,0.28,1.21s0.44,0.62,0.77,0.81
				s0.7,0.28,1.12,0.28c0.57,0,1.02-0.16,1.38-0.47c0.35-0.32,0.57-0.75,0.65-1.29h-2.38v-0.83h3.49v0.81
				c-0.07,0.49-0.24,0.95-0.52,1.36c-0.28,0.41-0.65,0.74-1.1,0.99s-0.96,0.37-1.51,0.37c-0.6,0-1.14-0.14-1.63-0.42
				s-0.88-0.66-1.17-1.15c-0.29-0.49-0.43-1.05-0.43-1.67s0.14-1.18,0.43-1.67c0.29-0.49,0.68-0.88,1.18-1.15
				c0.5-0.28,1.04-0.42,1.63-0.42c0.67,0,1.28,0.17,1.8,0.5c0.53,0.33,0.91,0.8,1.14,1.41H281.84z"/>
			<path fill="#FCDA4F" d="M287.16,165.67h2.14v0.84h-3.18v-6.34h1.04V165.67z"/>
			<path fill="#FCDA4F" d="M293.04,160.17v6.34h-1.04v-6.34H293.04z"/>
			<path fill="#FCDA4F" d="M301.43,166.51h-1.04l-3.13-4.73v4.73h-1.04v-6.35h1.04l3.13,4.72v-4.72h1.04V166.51z"/>
			<path fill="#FCDA4F" d="M305.67,161.01v1.86h2.19v0.85h-2.19v1.94h2.46v0.85h-3.5v-6.35h3.5v0.85H305.67z"/>
			<path fill="#FCDA4F" d="M320.49,160.17v6.34h-1.04v-2.77h-2.98v2.77h-1.04v-6.34h1.04v2.72h2.98v-2.72H320.49z"/>
			<path fill="#FCDA4F" d="M324.72,161.01v1.86h2.19v0.85h-2.19v1.94h2.46v0.85h-3.5v-6.35h3.5v0.85H324.72z"/>
			<path fill="#FCDA4F" d="M333.57,166.51l-1.46-2.54h-0.79v2.54h-1.04v-6.34h2.19c0.49,0,0.9,0.08,1.24,0.25
				c0.34,0.17,0.59,0.4,0.76,0.68c0.17,0.29,0.25,0.61,0.25,0.96c0,0.41-0.12,0.79-0.36,1.13c-0.24,0.34-0.61,0.57-1.11,0.69
				l1.57,2.63H333.57z M331.32,163.14h1.15c0.39,0,0.68-0.1,0.88-0.29s0.3-0.46,0.3-0.78s-0.1-0.58-0.29-0.77
				c-0.2-0.19-0.49-0.28-0.88-0.28h-1.15V163.14z"/>
			<path fill="#FCDA4F" d="M338.91,161.01v1.86h2.19v0.85h-2.19v1.94h2.46v0.85h-3.5v-6.35h3.5v0.85H338.91z"/>
		</g>
		<g display="inline">
			<g>
				<linearGradient id="SVGID_46_" gradientUnits="userSpaceOnUse" x1="284.4948" y1="122.7049" x2="284.4948" y2="35.8054">
					<stop  offset="1.692840e-03" style="stop-color:#ED9A21"/>
					<stop  offset="1" style="stop-color:#FCDA4F"/>
				</linearGradient>
				<path fill="url(#SVGID_46_)" d="M292.82,78.27c0.96-1.26,1.53-2.82,1.53-4.52c0-3.9-3-7.11-6.82-7.44v-3.45h-3.22v3.42h-1.86
					v-3.42h-3.22v3.42h-0.7h-1.61h-2.53v3.92h2.53v7.1v3.92v7.1h-2.53v3.92h2.53h1.61h0.7v3.42h3.22v-3.42h1.86v3.42h3.22v-3.42
					h1.61c4.12,0,7.47-3.35,7.47-7.47C296.6,81.98,295.08,79.55,292.82,78.27z M280.85,70.2h6.03c1.96,0,3.55,1.59,3.55,3.55
					c0,1.96-1.59,3.55-3.55,3.55h-6.03V70.2z M289.14,88.31h-8.29v-7.1h6.03h2.26c1.96,0,3.55,1.59,3.55,3.55
					C292.69,86.72,291.09,88.31,289.14,88.31z"/>
				<linearGradient id="SVGID_47_" gradientUnits="userSpaceOnUse" x1="284.4948" y1="122.7049" x2="284.4948" y2="35.8054">
					<stop  offset="1.692840e-03" style="stop-color:#ED9A21"/>
					<stop  offset="1" style="stop-color:#FCDA4F"/>
				</linearGradient>
				<path fill="url(#SVGID_47_)" d="M273.04,99.62c-3.24-1.85-6.02-4.48-8.06-7.61c-0.25-0.38-0.75-0.48-1.13-0.24
					c-0.38,0.25-0.48,0.75-0.24,1.13c2.18,3.34,5.16,6.15,8.62,8.13c0.13,0.07,0.27,0.11,0.4,0.11c0.28,0,0.56-0.15,0.71-0.41
					C273.56,100.34,273.43,99.85,273.04,99.62z"/>
				<linearGradient id="SVGID_48_" gradientUnits="userSpaceOnUse" x1="284.4948" y1="122.7049" x2="284.4948" y2="35.8054">
					<stop  offset="1.692840e-03" style="stop-color:#ED9A21"/>
					<stop  offset="1" style="stop-color:#FCDA4F"/>
				</linearGradient>
				<path fill="url(#SVGID_48_)" d="M292.82,55.95c-0.42-0.15-0.89,0.06-1.04,0.48c-0.16,0.42,0.06,0.89,0.48,1.05
					c6.28,2.3,11.31,7.19,13.8,13.41c0.13,0.32,0.43,0.51,0.76,0.51c0.1,0,0.2-0.02,0.3-0.06c0.42-0.17,0.62-0.64,0.45-1.06
					C304.91,63.64,299.53,58.42,292.82,55.95z"/>
				<linearGradient id="SVGID_49_" gradientUnits="userSpaceOnUse" x1="284.4948" y1="122.7049" x2="284.4948" y2="35.8054">
					<stop  offset="1.692840e-03" style="stop-color:#ED9A21"/>
					<stop  offset="1" style="stop-color:#FCDA4F"/>
				</linearGradient>
				<path fill="url(#SVGID_49_)" d="M325.12,76.43c-1.27,0-2.34,0.85-2.69,2.01h-9.27c-0.1-3.45-0.8-6.75-2.02-9.79l2.7-1.17
					c0.3,0.35,0.67,0.64,1.11,0.81c0.34,0.13,0.69,0.2,1.04,0.2c0.38,0,0.76-0.08,1.12-0.23c0.69-0.3,1.23-0.85,1.51-1.55
					c0.28-0.7,0.27-1.47-0.03-2.16c-0.3-0.69-0.85-1.23-1.55-1.51c-0.7-0.28-1.47-0.27-2.16,0.03c-0.69,0.3-1.23,0.85-1.51,1.55
					c-0.17,0.44-0.22,0.91-0.17,1.36l-2.7,1.17c-1.31-2.8-3.06-5.36-5.16-7.58l4.26-4.26c0.41,0.22,0.86,0.35,1.33,0.35
					c0.75,0,1.47-0.29,2-0.83c1.1-1.1,1.1-2.9,0-4c-1.1-1.1-2.9-1.1-4,0c-0.53,0.53-0.83,1.24-0.83,2c0,0.47,0.13,0.92,0.35,1.33
					l-4.26,4.26c-2.42-2.29-5.24-4.17-8.34-5.51l0.53-1.35c0.08,0.01,0.16,0.02,0.24,0.02c0.38,0,0.76-0.08,1.12-0.23
					c0.69-0.3,1.23-0.85,1.51-1.55c0.28-0.7,0.27-1.47-0.03-2.16c-0.3-0.69-0.85-1.23-1.55-1.51c-1.45-0.58-3.1,0.13-3.67,1.58
					c-0.28,0.7-0.27,1.47,0.03,2.16c0.19,0.43,0.48,0.8,0.84,1.08l-0.53,1.34c-2.82-1.03-5.85-1.62-9.01-1.71v-9.27
					c1.16-0.35,2.01-1.42,2.01-2.69c0-1.56-1.27-2.83-2.83-2.83c-1.56,0-2.83,1.27-2.83,2.83c0,1.27,0.85,2.34,2.01,2.69v9.27
					c-3.45,0.1-6.75,0.8-9.79,2.02l-1.17-2.7c0.35-0.3,0.64-0.67,0.81-1.11c0.28-0.7,0.27-1.47-0.03-2.16
					c-0.3-0.69-0.85-1.23-1.55-1.51c-0.7-0.28-1.47-0.27-2.16,0.03c-0.69,0.3-1.23,0.85-1.51,1.55c-0.28,0.7-0.27,1.47,0.03,2.16
					c0.3,0.69,0.85,1.23,1.55,1.51c0.34,0.13,0.69,0.2,1.04,0.2c0.11,0,0.21-0.02,0.32-0.03l1.17,2.7c-2.8,1.31-5.36,3.06-7.58,5.16
					l-4.26-4.26c0.57-1.07,0.42-2.43-0.48-3.33c-1.1-1.1-2.9-1.1-4,0c-1.1,1.1-1.1,2.9,0,4c0.53,0.53,1.24,0.83,2,0.83
					c0.47,0,0.92-0.13,1.33-0.35l4.26,4.26c-2.29,2.42-4.17,5.24-5.51,8.34l-1.35-0.54c0.04-0.46-0.02-0.92-0.21-1.36
					c-0.3-0.69-0.85-1.23-1.55-1.51v0c-0.7-0.28-1.47-0.27-2.16,0.03c-0.69,0.3-1.23,0.85-1.51,1.55c-0.58,1.45,0.14,3.1,1.58,3.67
					c0.34,0.14,0.69,0.2,1.04,0.2c0.86,0,1.68-0.39,2.22-1.07l1.33,0.53c-1.03,2.82-1.62,5.85-1.71,9.01h-9.27
					c-0.35-1.16-1.42-2.01-2.69-2.01c-1.56,0-2.83,1.27-2.83,2.83s1.27,2.83,2.83,2.83c1.27,0,2.34-0.85,2.69-2.01h9.27
					c0.1,3.45,0.8,6.75,2.02,9.79l-2.7,1.17c-0.78-0.93-2.1-1.29-3.27-0.78c-0.69,0.3-1.23,0.85-1.51,1.55
					c-0.28,0.7-0.27,1.47,0.03,2.16c0.46,1.07,1.51,1.71,2.6,1.71c0.37,0,0.75-0.07,1.12-0.23c0.69-0.3,1.23-0.85,1.51-1.55
					c0.18-0.44,0.22-0.91,0.17-1.36l2.7-1.17c1.31,2.8,3.06,5.36,5.16,7.58l-4.27,4.27c-1.06-0.54-2.45-0.39-3.32,0.47
					c-1.1,1.1-1.1,2.9,0,4c0.55,0.55,1.28,0.83,2,0.83c0.72,0,1.45-0.28,2-0.83c0.9-0.9,1.05-2.26,0.48-3.33l4.26-4.26
					c2.42,2.29,5.24,4.17,8.34,5.51l-0.53,1.35c-0.46-0.04-0.92,0.02-1.36,0.21c-0.69,0.3-1.23,0.85-1.51,1.55
					c-0.28,0.7-0.27,1.47,0.03,2.16c0.3,0.69,0.85,1.23,1.55,1.51c0.34,0.14,0.69,0.2,1.04,0.2c1.12,0,2.19-0.68,2.63-1.78
					c0.47-1.18,0.07-2.49-0.88-3.25l0.53-1.34c2.82,1.03,5.85,1.62,9.01,1.71v9.27c-1.16,0.35-2.01,1.42-2.01,2.69
					c0,1.56,1.27,2.83,2.83,2.83c1.56,0,2.83-1.27,2.83-2.83c0-1.27-0.85-2.34-2.01-2.69v-9.27c3.45-0.1,6.75-0.8,9.79-2.02
					l1.17,2.7c-0.35,0.3-0.64,0.67-0.81,1.11c-0.28,0.7-0.27,1.47,0.03,2.16c0.46,1.07,1.51,1.71,2.6,1.71
					c0.37,0,0.75-0.07,1.12-0.23c0.69-0.3,1.23-0.85,1.51-1.55c0.28-0.7,0.27-1.47-0.03-2.16c-0.51-1.17-1.71-1.81-2.92-1.68
					l-1.17-2.7c2.8-1.31,5.36-3.06,7.58-5.16l4.26,4.26c-0.22,0.41-0.35,0.86-0.35,1.33c0,0.76,0.29,1.47,0.83,2
					c0.55,0.55,1.28,0.83,2,0.83c0.72,0,1.45-0.28,2-0.83c1.1-1.1,1.1-2.9,0-4c-0.87-0.87-2.26-1.02-3.32-0.47l-4.27-4.27
					c2.29-2.42,4.17-5.24,5.51-8.34l1.35,0.54c-0.04,0.46,0.02,0.92,0.21,1.36c0.3,0.69,0.85,1.23,1.55,1.51v0
					c0.34,0.14,0.69,0.2,1.04,0.2c1.13,0,2.19-0.68,2.63-1.78c0.28-0.7,0.27-1.47-0.03-2.16c-0.3-0.69-0.85-1.23-1.55-1.51
					c-1.18-0.47-2.49-0.07-3.25,0.88l-1.34-0.53c1.03-2.82,1.62-5.85,1.71-9.01h9.27c0.35,1.16,1.42,2.01,2.69,2.01
					c1.56,0,2.83-1.27,2.83-2.83S326.68,76.43,325.12,76.43z M314.87,65.22c0.12-0.3,0.34-0.53,0.64-0.66
					c0.15-0.07,0.31-0.1,0.47-0.1c0.15,0,0.3,0.03,0.44,0.09c0.3,0.12,0.53,0.34,0.66,0.64c0.13,0.29,0.13,0.62,0.01,0.92
					c-0.12,0.3-0.35,0.53-0.64,0.66c0,0,0,0,0,0c-0.29,0.13-0.62,0.13-0.92,0.01c-0.3-0.12-0.53-0.35-0.66-0.64
					C314.76,65.85,314.76,65.52,314.87,65.22z M295.49,48.32c0.19-0.47,0.64-0.76,1.12-0.76c0.15,0,0.3,0.03,0.44,0.08
					c0.3,0.12,0.53,0.34,0.66,0.64c0.13,0.29,0.13,0.62,0.01,0.92v0c-0.12,0.3-0.34,0.53-0.64,0.66c-0.29,0.13-0.62,0.13-0.92,0.01
					c-0.3-0.12-0.53-0.35-0.66-0.64C295.38,48.94,295.37,48.62,295.49,48.32z M269.8,48.24c-0.13-0.29-0.13-0.62-0.01-0.92
					c0.12-0.3,0.34-0.53,0.64-0.66c0.15-0.07,0.31-0.1,0.47-0.1c0.15,0,0.3,0.03,0.44,0.09c0.3,0.12,0.53,0.34,0.66,0.64
					c0,0,0,0,0,0c0.13,0.29,0.13,0.62,0.01,0.92c-0.12,0.3-0.35,0.53-0.64,0.66c-0.3,0.13-0.62,0.13-0.92,0.01
					C270.17,48.76,269.93,48.53,269.8,48.24z M253.56,68.26c-0.61-0.24-0.91-0.94-0.67-1.56c0.12-0.3,0.34-0.53,0.64-0.66
					c0.15-0.07,0.31-0.1,0.47-0.1c0.15,0,0.3,0.03,0.44,0.09c0.3,0.12,0.53,0.35,0.66,0.64c0.13,0.29,0.13,0.62,0.01,0.92
					C254.87,68.2,254.17,68.5,253.56,68.26z M254.11,93.29c-0.12,0.3-0.35,0.53-0.64,0.66c-0.61,0.26-1.31-0.02-1.57-0.63
					c-0.13-0.29-0.13-0.62-0.01-0.92c0.12-0.3,0.35-0.53,0.64-0.66c0.15-0.07,0.31-0.1,0.47-0.1c0.15,0,0.3,0.03,0.44,0.09
					c0.3,0.12,0.53,0.35,0.66,0.64C254.23,92.66,254.23,92.99,254.11,93.29z M273.5,110.19c-0.24,0.61-0.94,0.92-1.56,0.67
					c-0.3-0.12-0.53-0.34-0.66-0.64c-0.13-0.29-0.13-0.62-0.01-0.92c0.12-0.3,0.35-0.53,0.64-0.66c0.15-0.07,0.31-0.1,0.47-0.1
					c0.15,0,0.3,0.03,0.44,0.09C273.44,108.88,273.74,109.58,273.5,110.19z M299.18,110.27c0.13,0.29,0.13,0.62,0.01,0.92
					c-0.12,0.3-0.35,0.53-0.64,0.66c-0.29,0.13-0.62,0.13-0.92,0.01c-0.3-0.12-0.53-0.35-0.66-0.64c-0.13-0.29-0.13-0.62-0.01-0.92
					c0.12-0.3,0.35-0.53,0.64-0.66C298.22,109.39,298.92,109.67,299.18,110.27z M315.43,90.25c0.3,0.12,0.53,0.35,0.66,0.64
					c0.13,0.29,0.13,0.62,0.01,0.92c-0.24,0.61-0.94,0.91-1.56,0.67c-0.3-0.12-0.53-0.35-0.66-0.64c-0.13-0.29-0.13-0.62-0.01-0.92
					C314.12,90.31,314.82,90.01,315.43,90.25z M310.07,51.99c0.23-0.23,0.54-0.35,0.85-0.35c0.31,0,0.61,0.12,0.85,0.35
					c0.47,0.47,0.47,1.23,0,1.69c-0.45,0.45-1.24,0.45-1.69,0c-0.23-0.23-0.35-0.53-0.35-0.85
					C309.72,52.51,309.84,52.21,310.07,51.99z M283.3,38.63c0-0.66,0.54-1.2,1.2-1.2c0.66,0,1.2,0.54,1.2,1.2
					c0,0.66-0.54,1.2-1.2,1.2C283.83,39.83,283.3,39.29,283.3,38.63z M257.23,53.68c-0.47-0.47-0.47-1.23,0-1.69
					c0.23-0.23,0.54-0.35,0.85-0.35c0.31,0,0.61,0.12,0.85,0.35c0.47,0.47,0.47,1.23,0,1.69C258.47,54.13,257.68,54.13,257.23,53.68
					z M243.87,80.45c-0.66,0-1.2-0.54-1.2-1.2c0-0.66,0.54-1.2,1.2-1.2c0.66,0,1.2,0.54,1.2,1.2
					C245.07,79.92,244.53,80.45,243.87,80.45z M258.92,106.52c-0.47,0.47-1.23,0.47-1.7,0c-0.47-0.47-0.47-1.23,0-1.69
					c0.23-0.23,0.53-0.35,0.85-0.35c0.32,0,0.62,0.12,0.85,0.35C259.39,105.3,259.39,106.06,258.92,106.52z M285.69,119.88
					c0,0.66-0.54,1.2-1.2,1.2c-0.66,0-1.2-0.54-1.2-1.2c0-0.66,0.54-1.2,1.2-1.2C285.15,118.68,285.69,119.22,285.69,119.88z
					 M311.76,104.83c0.47,0.47,0.47,1.23,0,1.69c-0.47,0.47-1.23,0.47-1.69,0c0,0,0,0,0,0c-0.23-0.23-0.35-0.53-0.35-0.85
					c0-0.32,0.12-0.62,0.35-0.85c0.23-0.23,0.53-0.35,0.85-0.35C311.23,104.48,311.54,104.6,311.76,104.83z M284.49,106.31
					c-14.92,0-27.05-12.14-27.05-27.05s12.14-27.05,27.05-27.05c14.92,0,27.05,12.14,27.05,27.05S299.41,106.31,284.49,106.31z
					 M325.12,80.45c-0.66,0-1.2-0.54-1.2-1.2c0-0.66,0.54-1.2,1.2-1.2c0.66,0,1.2,0.54,1.2,1.2
					C326.32,79.92,325.78,80.45,325.12,80.45z"/>
			</g>
		</g>
	</g>
	<g display="none">
		<g display="inline">
			<g>
				<linearGradient id="SVGID_50_" gradientUnits="userSpaceOnUse" x1="284.263" y1="337.3579" x2="284.263" y2="317.6714">
					<stop  offset="0" style="stop-color:#BBBCBF"/>
					<stop  offset="1" style="stop-color:#FFFFFF"/>
				</linearGradient>
				<path fill="url(#SVGID_50_)" d="M202.9,325.77c-0.74,0.75-1.61,1.27-2.63,1.54c0.93,0.22,1.65,0.66,2.17,1.33
					c0.52,0.67,0.78,1.47,0.78,2.4c0,0.29-0.03,0.59-0.08,0.9c-0.27,1.63-1.05,2.91-2.34,3.84c-1.29,0.93-2.96,1.39-5.01,1.39h-9.5
					l3.4-19.2h9.2c1.74,0,3.09,0.35,4.06,1.05c0.96,0.7,1.44,1.69,1.44,2.98c0,0.31-0.03,0.63-0.08,0.95
					C204.11,324.08,203.64,325.02,202.9,325.77z M197.85,330.8c0-0.45-0.15-0.8-0.45-1.05c-0.3-0.25-0.74-0.37-1.32-0.37h-3.08
					l-0.6,3.51h3.1c1.32,0,2.1-0.57,2.31-1.71C197.84,331.09,197.85,330.96,197.85,330.8z M198.7,323.53c0-0.87-0.57-1.31-1.72-1.31
					h-2.7l-0.6,3.4h2.7c1.33,0,2.09-0.56,2.29-1.69C198.69,323.84,198.7,323.71,198.7,323.53z"/>
				<linearGradient id="SVGID_51_" gradientUnits="userSpaceOnUse" x1="284.263" y1="337.3579" x2="284.263" y2="317.6714">
					<stop  offset="0" style="stop-color:#BBBCBF"/>
					<stop  offset="1" style="stop-color:#FFFFFF"/>
				</linearGradient>
				<path fill="url(#SVGID_51_)" d="M213.29,317.97l-3.38,19.2h-5.36l3.4-19.2H213.29z"/>
				<linearGradient id="SVGID_52_" gradientUnits="userSpaceOnUse" x1="284.263" y1="337.3579" x2="284.263" y2="317.6714">
					<stop  offset="0" style="stop-color:#BBBCBF"/>
					<stop  offset="1" style="stop-color:#FFFFFF"/>
				</linearGradient>
				<path fill="url(#SVGID_52_)" d="M230.8,317.97l-0.76,4.25h-5.09l-2.64,14.95h-5.36l2.64-14.95h-5.06l0.76-4.25H230.8z"/>
				<linearGradient id="SVGID_53_" gradientUnits="userSpaceOnUse" x1="284.263" y1="337.3579" x2="284.263" y2="317.6714">
					<stop  offset="0" style="stop-color:#BBBCBF"/>
					<stop  offset="1" style="stop-color:#FFFFFF"/>
				</linearGradient>
				<path fill="url(#SVGID_53_)" d="M232.51,322.48c1.05-1.48,2.38-2.63,3.98-3.46c1.6-0.83,3.34-1.24,5.23-1.24
					c1.58,0,2.96,0.29,4.14,0.87s2.1,1.41,2.75,2.48c0.65,1.07,1.01,2.33,1.06,3.79h-5.75c-0.22-0.71-0.6-1.25-1.14-1.63
					c-0.54-0.38-1.22-0.57-2.02-0.57c-1.23,0-2.3,0.44-3.19,1.31s-1.46,2.04-1.72,3.51c-0.07,0.38-0.11,0.79-0.11,1.22
					c0,1.13,0.29,2.01,0.88,2.66s1.4,0.97,2.44,0.97c0.8,0,1.54-0.19,2.22-0.57c0.68-0.38,1.25-0.93,1.7-1.63h5.77
					c-0.87,2.2-2.24,3.93-4.11,5.21c-1.87,1.28-4,1.92-6.4,1.92c-1.65,0-3.08-0.32-4.29-0.95c-1.21-0.64-2.13-1.53-2.76-2.7
					c-0.64-1.16-0.95-2.5-0.95-4.03c0-0.71,0.06-1.41,0.19-2.1C230.77,325.64,231.46,323.96,232.51,322.48z"/>
				<linearGradient id="SVGID_54_" gradientUnits="userSpaceOnUse" x1="284.263" y1="337.3579" x2="284.263" y2="317.6714">
					<stop  offset="0" style="stop-color:#BBBCBF"/>
					<stop  offset="1" style="stop-color:#FFFFFF"/>
				</linearGradient>
				<path fill="url(#SVGID_54_)" d="M255.03,336.35c-1.24-0.67-2.19-1.62-2.86-2.83s-1.01-2.61-1.01-4.19
					c0-2.27,0.48-4.29,1.43-6.06s2.29-3.14,4-4.13s3.68-1.47,5.9-1.47c1.65,0,3.1,0.33,4.34,0.99c1.24,0.66,2.2,1.6,2.87,2.8
					s1.01,2.6,1.01,4.18c0,2.25-0.48,4.27-1.44,6.04s-2.31,3.17-4.03,4.17c-1.72,1-3.7,1.5-5.94,1.5
					C257.69,337.36,256.27,337.02,255.03,336.35z M262.94,331.56c0.81-0.56,1.42-1.31,1.85-2.25c0.43-0.93,0.64-1.95,0.64-3.04
					c0-1.16-0.31-2.06-0.94-2.71s-1.52-0.97-2.68-0.97c-1.07,0-2.02,0.28-2.83,0.83c-0.82,0.55-1.44,1.29-1.88,2.22
					s-0.65,1.94-0.65,3.05c0,1.14,0.32,2.05,0.95,2.71c0.63,0.66,1.54,0.99,2.72,0.99C261.2,332.4,262.13,332.12,262.94,331.56z"/>
				<linearGradient id="SVGID_55_" gradientUnits="userSpaceOnUse" x1="284.263" y1="337.3579" x2="284.263" y2="317.6714">
					<stop  offset="0" style="stop-color:#BBBCBF"/>
					<stop  offset="1" style="stop-color:#FFFFFF"/>
				</linearGradient>
				<path fill="url(#SVGID_55_)" d="M280.19,317.97l-3.38,19.2h-5.36l3.4-19.2H280.19z"/>
				<linearGradient id="SVGID_56_" gradientUnits="userSpaceOnUse" x1="284.263" y1="337.3579" x2="284.263" y2="317.6714">
					<stop  offset="0" style="stop-color:#BBBCBF"/>
					<stop  offset="1" style="stop-color:#FFFFFF"/>
				</linearGradient>
				<path fill="url(#SVGID_56_)" d="M297.65,337.17h-5.36l-5.17-10.73l-1.91,10.73h-5.36l3.4-19.2h5.34l5.2,10.86l1.91-10.86h5.34
					L297.65,337.17z"/>
				<linearGradient id="SVGID_57_" gradientUnits="userSpaceOnUse" x1="284.263" y1="337.3579" x2="284.263" y2="317.6714">
					<stop  offset="0" style="stop-color:#BBBCBF"/>
					<stop  offset="1" style="stop-color:#FFFFFF"/>
				</linearGradient>
				<path fill="url(#SVGID_57_)" d="M312.24,333.11h5.96l-0.73,4.06h-11.33l3.4-19.2h5.34L312.24,333.11z"/>
				<linearGradient id="SVGID_58_" gradientUnits="userSpaceOnUse" x1="284.263" y1="337.3579" x2="284.263" y2="317.6714">
					<stop  offset="0" style="stop-color:#BBBCBF"/>
					<stop  offset="1" style="stop-color:#FFFFFF"/>
				</linearGradient>
				<path fill="url(#SVGID_58_)" d="M324.52,336.35c-1.24-0.67-2.19-1.62-2.86-2.83s-1.01-2.61-1.01-4.19
					c0-2.27,0.48-4.29,1.43-6.06s2.29-3.14,4-4.13s3.68-1.47,5.9-1.47c1.65,0,3.1,0.33,4.34,0.99c1.24,0.66,2.2,1.6,2.87,2.8
					s1.01,2.6,1.01,4.18c0,2.25-0.48,4.27-1.44,6.04s-2.31,3.17-4.03,4.17c-1.72,1-3.7,1.5-5.94,1.5
					C327.18,337.36,325.75,337.02,324.52,336.35z M332.43,331.56c0.81-0.56,1.42-1.31,1.85-2.25c0.43-0.93,0.64-1.95,0.64-3.04
					c0-1.16-0.31-2.06-0.94-2.71s-1.52-0.97-2.68-0.97c-1.07,0-2.02,0.28-2.83,0.83c-0.82,0.55-1.44,1.29-1.88,2.22
					s-0.65,1.94-0.65,3.05c0,1.14,0.32,2.05,0.95,2.71c0.63,0.66,1.54,0.99,2.72,0.99C330.68,332.4,331.62,332.12,332.43,331.56z"/>
				<linearGradient id="SVGID_59_" gradientUnits="userSpaceOnUse" x1="284.263" y1="337.3579" x2="284.263" y2="317.6714">
					<stop  offset="0" style="stop-color:#BBBCBF"/>
					<stop  offset="1" style="stop-color:#FFFFFF"/>
				</linearGradient>
				<path fill="url(#SVGID_59_)" d="M344.1,322.48c1.07-1.48,2.41-2.63,4.03-3.46c1.62-0.83,3.39-1.24,5.31-1.24
					c2.41,0,4.31,0.58,5.68,1.74c1.37,1.16,2.07,2.75,2.11,4.77h-5.75c-0.2-0.51-0.54-0.9-1.04-1.17c-0.49-0.27-1.11-0.41-1.85-0.41
					c-1.33,0-2.46,0.44-3.39,1.31c-0.94,0.87-1.53,2.04-1.78,3.51c-0.09,0.54-0.14,1-0.14,1.36c0,1.22,0.34,2.14,1.04,2.76
					c0.69,0.63,1.71,0.94,3.05,0.94c1.87,0,3.36-0.84,4.47-2.53h-5.36l0.68-3.84h9.97l-0.93,5.17c-0.94,1.62-2.3,3-4.06,4.17
					c-1.76,1.16-3.79,1.74-6.1,1.74c-1.71,0-3.18-0.32-4.41-0.97s-2.18-1.55-2.83-2.71c-0.65-1.16-0.98-2.5-0.98-4.03
					c0-0.73,0.06-1.42,0.19-2.07C342.33,325.64,343.03,323.96,344.1,322.48z"/>
				<linearGradient id="SVGID_60_" gradientUnits="userSpaceOnUse" x1="284.263" y1="337.3579" x2="284.263" y2="317.6714">
					<stop  offset="0" style="stop-color:#BBBCBF"/>
					<stop  offset="1" style="stop-color:#FFFFFF"/>
				</linearGradient>
				<path fill="url(#SVGID_60_)" d="M366.56,336.35c-1.24-0.67-2.19-1.62-2.86-2.83s-1.01-2.61-1.01-4.19
					c0-2.27,0.48-4.29,1.43-6.06s2.29-3.14,4-4.13s3.68-1.47,5.9-1.47c1.65,0,3.1,0.33,4.34,0.99c1.24,0.66,2.2,1.6,2.87,2.8
					s1.01,2.6,1.01,4.18c0,2.25-0.48,4.27-1.44,6.04s-2.31,3.17-4.03,4.17c-1.72,1-3.7,1.5-5.94,1.5
					C369.22,337.36,367.8,337.02,366.56,336.35z M374.47,331.56c0.81-0.56,1.42-1.31,1.85-2.25c0.43-0.93,0.64-1.95,0.64-3.04
					c0-1.16-0.31-2.06-0.94-2.71s-1.52-0.97-2.68-0.97c-1.07,0-2.02,0.28-2.83,0.83c-0.82,0.55-1.44,1.29-1.88,2.22
					s-0.65,1.94-0.65,3.05c0,1.14,0.32,2.05,0.95,2.71c0.63,0.66,1.54,0.99,2.72,0.99C372.72,332.4,373.66,332.12,374.47,331.56z"/>
			</g>
		</g>
		<g display="inline">
			<path fill="#FCDA4F" d="M230.58,345.62l-2.1,4.04v2.3h-1.04v-2.3l-2.11-4.04h1.16l1.47,3.11l1.47-3.11H230.58z"/>
			<path fill="#FCDA4F" d="M234.49,351.61c-0.5-0.28-0.89-0.66-1.18-1.16c-0.29-0.5-0.43-1.05-0.43-1.67s0.14-1.18,0.43-1.67
				c0.29-0.49,0.68-0.88,1.18-1.15c0.5-0.28,1.04-0.42,1.63-0.42c0.6,0,1.14,0.14,1.64,0.42c0.5,0.28,0.89,0.66,1.17,1.15
				c0.29,0.49,0.43,1.05,0.43,1.67s-0.14,1.18-0.43,1.67c-0.29,0.5-0.68,0.88-1.17,1.16c-0.5,0.28-1.04,0.42-1.64,0.42
				C235.53,352.02,234.99,351.89,234.49,351.61z M237.24,350.83c0.33-0.19,0.59-0.47,0.77-0.82c0.18-0.36,0.28-0.77,0.28-1.24
				c0-0.47-0.09-0.88-0.28-1.23c-0.19-0.35-0.44-0.62-0.77-0.81c-0.33-0.19-0.7-0.28-1.12-0.28c-0.42,0-0.79,0.09-1.12,0.28
				s-0.58,0.46-0.77,0.81s-0.28,0.76-0.28,1.23c0,0.47,0.09,0.88,0.28,1.24s0.44,0.63,0.77,0.82s0.7,0.29,1.12,0.29
				C236.54,351.12,236.91,351.02,237.24,350.83z"/>
			<path fill="#FCDA4F" d="M243.23,345.62v4.04c0,0.48,0.13,0.84,0.38,1.08c0.25,0.24,0.6,0.36,1.05,0.36
				c0.46,0,0.81-0.12,1.06-0.36c0.25-0.24,0.38-0.6,0.38-1.08v-4.04h1.04v4.02c0,0.52-0.11,0.95-0.34,1.31
				c-0.22,0.36-0.53,0.63-0.9,0.8c-0.38,0.18-0.79,0.26-1.25,0.26c-0.46,0-0.87-0.09-1.25-0.26c-0.37-0.18-0.67-0.44-0.89-0.8
				c-0.22-0.36-0.33-0.8-0.33-1.31v-4.02H243.23z"/>
			<path fill="#FCDA4F" d="M253.61,351.96l-1.46-2.54h-0.79v2.54h-1.04v-6.34h2.19c0.49,0,0.9,0.08,1.24,0.25
				c0.34,0.17,0.59,0.4,0.76,0.68c0.17,0.29,0.25,0.61,0.25,0.96c0,0.41-0.12,0.79-0.36,1.13c-0.24,0.34-0.61,0.57-1.11,0.69
				l1.57,2.63H253.61z M251.36,348.59h1.15c0.39,0,0.68-0.1,0.88-0.29s0.3-0.46,0.3-0.78s-0.1-0.58-0.29-0.77
				c-0.2-0.19-0.49-0.28-0.88-0.28h-1.15V348.59z"/>
			<path fill="#FCDA4F" d="M266.2,345.62v0.85h-1.69v5.49h-1.04v-5.49h-1.7v-0.85H266.2z"/>
			<path fill="#FCDA4F" d="M272.89,350.66h-2.65l-0.46,1.29h-1.08l2.27-6.35h1.2l2.27,6.35h-1.09L272.89,350.66z M272.6,349.82
				l-1.03-2.95l-1.04,2.95H272.6z"/>
			<path fill="#FCDA4F" d="M281.84,347.44c-0.16-0.32-0.39-0.55-0.68-0.72c-0.29-0.16-0.63-0.24-1.01-0.24
				c-0.42,0-0.79,0.09-1.12,0.28s-0.58,0.46-0.77,0.8s-0.28,0.75-0.28,1.2s0.09,0.86,0.28,1.21s0.44,0.62,0.77,0.81
				s0.7,0.28,1.12,0.28c0.57,0,1.02-0.16,1.38-0.47c0.35-0.32,0.57-0.75,0.65-1.29h-2.38v-0.83h3.49v0.81
				c-0.07,0.49-0.24,0.95-0.52,1.36c-0.28,0.41-0.65,0.74-1.1,0.99s-0.96,0.37-1.51,0.37c-0.6,0-1.14-0.14-1.63-0.42
				s-0.88-0.66-1.17-1.15c-0.29-0.49-0.43-1.05-0.43-1.67s0.14-1.18,0.43-1.67c0.29-0.49,0.68-0.88,1.18-1.15
				c0.5-0.28,1.04-0.42,1.63-0.42c0.67,0,1.28,0.17,1.8,0.5c0.53,0.33,0.91,0.8,1.14,1.41H281.84z"/>
			<path fill="#FCDA4F" d="M287.16,351.12h2.14v0.84h-3.18v-6.34h1.04V351.12z"/>
			<path fill="#FCDA4F" d="M293.04,345.62v6.34h-1.04v-6.34H293.04z"/>
			<path fill="#FCDA4F" d="M301.43,351.96h-1.04l-3.13-4.73v4.73h-1.04v-6.35h1.04l3.13,4.72v-4.72h1.04V351.96z"/>
			<path fill="#FCDA4F" d="M305.67,346.46v1.86h2.19v0.85h-2.19v1.94h2.46v0.85h-3.5v-6.35h3.5v0.85H305.67z"/>
			<path fill="#FCDA4F" d="M320.49,345.62v6.34h-1.04v-2.77h-2.98v2.77h-1.04v-6.34h1.04v2.72h2.98v-2.72H320.49z"/>
			<path fill="#FCDA4F" d="M324.72,346.46v1.86h2.19v0.85h-2.19v1.94h2.46v0.85h-3.5v-6.35h3.5v0.85H324.72z"/>
			<path fill="#FCDA4F" d="M333.57,351.96l-1.46-2.54h-0.79v2.54h-1.04v-6.34h2.19c0.49,0,0.9,0.08,1.24,0.25
				c0.34,0.17,0.59,0.4,0.76,0.68c0.17,0.29,0.25,0.61,0.25,0.96c0,0.41-0.12,0.79-0.36,1.13c-0.24,0.34-0.61,0.57-1.11,0.69
				l1.57,2.63H333.57z M331.32,348.59h1.15c0.39,0,0.68-0.1,0.88-0.29s0.3-0.46,0.3-0.78s-0.1-0.58-0.29-0.77
				c-0.2-0.19-0.49-0.28-0.88-0.28h-1.15V348.59z"/>
			<path fill="#FCDA4F" d="M338.91,346.46v1.86h2.19v0.85h-2.19v1.94h2.46v0.85h-3.5v-6.35h3.5v0.85H338.91z"/>
		</g>
		<g display="inline">
			<g>
				<linearGradient id="SVGID_61_" gradientUnits="userSpaceOnUse" x1="284.4957" y1="309.277" x2="284.4957" y2="234.6202">
					<stop  offset="1.692840e-03" style="stop-color:#ED9A21"/>
					<stop  offset="1" style="stop-color:#FCDA4F"/>
				</linearGradient>
				<path fill="url(#SVGID_61_)" d="M295.48,253.49h-3.53v3.75h-2.03v-3.75h-3.53v3.75h-0.77h-1.76h-2.77v4.29h2.77v7.78v4.29v7.78
					h-2.77v4.29h2.77h1.76h0.77v3.75h3.53v-3.75h2.03v3.75h3.53v-3.75h1.76c4.51,0,8.18-3.67,8.18-8.18c0-3.05-1.67-5.71-4.15-7.11
					c1.05-1.38,1.68-3.09,1.68-4.95c0-4.27-3.29-7.79-7.47-8.15V253.49z M301.12,277.49c0,2.14-1.74,3.89-3.89,3.89h-9.08v-7.78
					h6.61h2.47C299.38,273.6,301.12,275.35,301.12,277.49z M298.65,265.42c0,2.14-1.74,3.89-3.89,3.89h-6.61v-7.78h6.61
					C296.91,261.53,298.65,263.28,298.65,265.42z"/>
				<g>
					<linearGradient id="SVGID_62_" gradientUnits="userSpaceOnUse" x1="284.4957" y1="309.277" x2="284.4957" y2="234.6202">
						<stop  offset="1.692840e-03" style="stop-color:#ED9A21"/>
						<stop  offset="1" style="stop-color:#FCDA4F"/>
					</linearGradient>
					<path fill="url(#SVGID_62_)" d="M305.42,298.1c-0.83,0-1.51,0.61-1.61,1.42c-3.38,1.27-6.93,1.92-10.56,1.92
						c-16.53,0-29.99-13.45-29.99-29.99c0-11.13,6.1-21.26,15.93-26.48c0.5,0.52,1.17,0.82,1.89,0.82c1.44,0,2.61-1.17,2.61-2.61
						c0-1.44-1.17-2.61-2.61-2.61c-1.44,0-2.61,1.17-2.61,2.61c0,0.13,0.01,0.25,0.03,0.38c-10.37,5.49-16.81,16.16-16.81,27.89
						c0,17.4,14.16,31.56,31.56,31.56c3.83,0,7.58-0.68,11.14-2.03c0.29,0.24,0.65,0.37,1.03,0.37c0.9,0,1.62-0.73,1.62-1.62
						C307.04,298.83,306.31,298.1,305.42,298.1z M280.04,243.18c0-0.57,0.47-1.04,1.04-1.04c0.57,0,1.04,0.47,1.04,1.04
						c0,0.57-0.47,1.04-1.04,1.04C280.51,244.22,280.04,243.76,280.04,243.18z"/>
					<linearGradient id="SVGID_63_" gradientUnits="userSpaceOnUse" x1="284.4957" y1="309.277" x2="284.4957" y2="234.6202">
						<stop  offset="1.692840e-03" style="stop-color:#ED9A21"/>
						<stop  offset="1" style="stop-color:#FCDA4F"/>
					</linearGradient>
					<path fill="url(#SVGID_63_)" d="M298.65,304.06c-1.25,0-2.31,0.89-2.55,2.11c-1.01,0.08-1.95,0.12-2.85,0.12
						c-19.21,0-34.83-15.63-34.83-34.83c0-19.21,15.63-34.83,34.83-34.83c1.29,0,2.6,0.07,3.9,0.22c0.24,0.61,0.84,1.03,1.5,1.03
						c0.9,0,1.62-0.73,1.62-1.62s-0.73-1.62-1.62-1.62c-0.52,0-1,0.24-1.3,0.66c-1.36-0.15-2.74-0.23-4.1-0.23
						c-20.07,0-36.4,16.33-36.4,36.4c0,20.07,16.33,36.4,36.4,36.4c0.95,0,1.97-0.04,3.02-0.13c0.42,0.94,1.35,1.55,2.38,1.55
						c1.44,0,2.61-1.17,2.61-2.61C301.26,305.23,300.09,304.06,298.65,304.06z M299.69,306.67c0,0.57-0.47,1.04-1.04,1.04
						c-0.57,0-1.04-0.47-1.04-1.04c0-0.57,0.47-1.04,1.04-1.04C299.23,305.62,299.69,306.09,299.69,306.67z"/>
					<linearGradient id="SVGID_64_" gradientUnits="userSpaceOnUse" x1="284.4957" y1="309.277" x2="284.4957" y2="234.6202">
						<stop  offset="1.692840e-03" style="stop-color:#ED9A21"/>
						<stop  offset="1" style="stop-color:#FCDA4F"/>
					</linearGradient>
					<path fill="url(#SVGID_64_)" d="M309.53,289.02c-1.44,0-2.61,1.17-2.61,2.61c0,0.28,0.04,0.56,0.13,0.82
						c-4.11,2.71-8.88,4.14-13.8,4.14c-13.86,0-25.14-11.28-25.14-25.14c0-13.37,10.42-24.37,23.75-25.1
						c0.29,0.49,0.82,0.8,1.39,0.8c0.9,0,1.62-0.73,1.62-1.62c0-0.89-0.73-1.62-1.62-1.62c-0.61,0-1.16,0.34-1.44,0.88
						c-14.18,0.76-25.27,12.44-25.27,26.67c0,14.73,11.98,26.71,26.71,26.71c5.26,0,10.35-1.54,14.73-4.44
						c0.46,0.34,0.99,0.52,1.55,0.52c1.44,0,2.61-1.17,2.61-2.61C312.14,290.19,310.97,289.02,309.53,289.02z M310.57,291.63
						c0,0.57-0.47,1.04-1.04,1.04c-0.57,0-1.04-0.47-1.04-1.04c0-0.57,0.47-1.04,1.04-1.04
						C310.11,290.59,310.57,291.06,310.57,291.63z"/>
				</g>
			</g>
		</g>
	</g>
	<g display="none">
		<path display="inline" d="M226.52,109.97h1.04v7.21h3.45v0.88h-4.5V109.97z"/>
		<path display="inline" d="M237.24,115.1c0,2.15-1.49,3.08-2.89,3.08c-1.57,0-2.78-1.15-2.78-2.99c0-1.94,1.27-3.08,2.88-3.08
			C236.11,112.12,237.24,113.33,237.24,115.1z M232.63,115.16c0,1.27,0.73,2.23,1.76,2.23c1.01,0,1.76-0.95,1.76-2.25
			c0-0.98-0.49-2.23-1.74-2.23C233.17,112.91,232.63,114.06,232.63,115.16z"/>
		<path display="inline" d="M238.57,114.06c0-0.68-0.01-1.27-0.05-1.81h0.92l0.04,1.14h0.05c0.26-0.78,0.9-1.27,1.61-1.27
			c0.12,0,0.2,0.01,0.3,0.04v1c-0.11-0.02-0.22-0.04-0.36-0.04c-0.74,0-1.27,0.56-1.42,1.36c-0.02,0.14-0.05,0.31-0.05,0.49v3.09
			h-1.04V114.06z"/>
		<path display="inline" d="M242.96,115.34c0.02,1.43,0.94,2.01,1.99,2.01c0.76,0,1.21-0.13,1.61-0.3l0.18,0.76
			c-0.37,0.17-1.01,0.36-1.93,0.36c-1.79,0-2.85-1.18-2.85-2.93s1.03-3.13,2.72-3.13c1.89,0,2.4,1.67,2.4,2.73
			c0,0.22-0.02,0.38-0.04,0.49H242.96z M246.06,114.59c0.01-0.67-0.28-1.71-1.46-1.71c-1.07,0-1.54,0.98-1.62,1.71H246.06z"/>
		<path display="inline" d="M248.39,113.82c0-0.6-0.01-1.09-0.05-1.57h0.92l0.05,0.94h0.04c0.32-0.55,0.86-1.07,1.82-1.07
			c0.79,0,1.39,0.48,1.64,1.16h0.02c0.18-0.32,0.41-0.58,0.65-0.76c0.35-0.26,0.73-0.41,1.28-0.41c0.77,0,1.91,0.5,1.91,2.52v3.42
			h-1.03v-3.29c0-1.12-0.41-1.79-1.26-1.79c-0.6,0-1.07,0.44-1.25,0.96c-0.05,0.14-0.08,0.34-0.08,0.53v3.59h-1.03v-3.48
			c0-0.92-0.41-1.6-1.21-1.6c-0.66,0-1.14,0.53-1.31,1.06c-0.06,0.16-0.08,0.34-0.08,0.52v3.5h-1.03V113.82z"/>
		<path display="inline" d="M262.11,110.62c0.01,0.36-0.25,0.65-0.67,0.65c-0.37,0-0.64-0.29-0.64-0.65c0-0.37,0.28-0.66,0.66-0.66
			C261.86,109.96,262.11,110.25,262.11,110.62z M260.94,118.06v-5.8h1.05v5.8H260.94z"/>
		<path display="inline" d="M263.75,114.15c0-0.74-0.02-1.34-0.05-1.9h0.95l0.05,1h0.02c0.43-0.71,1.12-1.13,2.06-1.13
			c1.4,0,2.46,1.19,2.46,2.95c0,2.09-1.27,3.12-2.64,3.12c-0.77,0-1.44-0.34-1.79-0.91h-0.02v3.15h-1.04V114.15z M264.79,115.69
			c0,0.16,0.02,0.3,0.05,0.43c0.19,0.73,0.83,1.24,1.58,1.24c1.12,0,1.76-0.91,1.76-2.24c0-1.16-0.61-2.16-1.73-2.16
			c-0.72,0-1.39,0.52-1.59,1.31c-0.04,0.13-0.07,0.29-0.07,0.43V115.69z"/>
		<path display="inline" d="M270.43,116.98c0.31,0.2,0.86,0.42,1.39,0.42c0.77,0,1.13-0.38,1.13-0.86c0-0.5-0.3-0.78-1.08-1.07
			c-1.04-0.37-1.54-0.95-1.54-1.64c0-0.94,0.76-1.7,2-1.7c0.59,0,1.1,0.17,1.43,0.36l-0.26,0.77c-0.23-0.14-0.65-0.34-1.19-0.34
			c-0.62,0-0.97,0.36-0.97,0.79c0,0.48,0.35,0.7,1.1,0.98c1.01,0.38,1.52,0.89,1.52,1.75c0,1.02-0.79,1.74-2.17,1.74
			c-0.64,0-1.22-0.16-1.63-0.4L270.43,116.98z"/>
		<path display="inline" d="M280.18,116.47c0,0.6,0.01,1.13,0.05,1.58h-0.94l-0.06-0.95h-0.02c-0.28,0.47-0.89,1.08-1.92,1.08
			c-0.91,0-2-0.5-2-2.54v-3.39h1.05v3.21c0,1.1,0.34,1.85,1.3,1.85c0.71,0,1.2-0.49,1.39-0.96c0.06-0.16,0.1-0.35,0.1-0.54v-3.56
			h1.05V116.47z"/>
		<path display="inline" d="M281.94,113.82c0-0.6-0.01-1.09-0.05-1.57h0.92l0.05,0.94h0.04c0.32-0.55,0.86-1.07,1.82-1.07
			c0.79,0,1.39,0.48,1.64,1.16h0.02c0.18-0.32,0.41-0.58,0.65-0.76c0.35-0.26,0.73-0.41,1.28-0.41c0.77,0,1.91,0.5,1.91,2.52v3.42
			h-1.03v-3.29c0-1.12-0.41-1.79-1.26-1.79c-0.6,0-1.07,0.44-1.25,0.96c-0.05,0.14-0.08,0.34-0.08,0.53v3.59h-1.03v-3.48
			c0-0.92-0.41-1.6-1.21-1.6c-0.66,0-1.14,0.53-1.31,1.06c-0.06,0.16-0.08,0.34-0.08,0.52v3.5h-1.03V113.82z"/>
	</g>
	<g display="none">
		<linearGradient id="SVGID_65_" gradientUnits="userSpaceOnUse" x1="508.3036" y1="131.8906" x2="148.2201" y2="491.9741">
			<stop  offset="0" style="stop-color:#FFFFFF"/>
			<stop  offset="0.8394" style="stop-color:#F5F6F7"/>
			<stop  offset="1" style="stop-color:#F2F4F5"/>
		</linearGradient>
		
			<rect x="143.38" y="208.81" display="inline" fill-rule="evenodd" clip-rule="evenodd" fill="url(#SVGID_65_)" width="288" height="288"/>
		<g display="inline">
			<radialGradient id="SVGID_66_" cx="247.1554" cy="240.4573" r="117.5382" gradientUnits="userSpaceOnUse">
				<stop  offset="0.1774" style="stop-color:#E3AE30"/>
				<stop  offset="1" style="stop-color:#D55013"/>
			</radialGradient>
			<path display="none" fill="url(#SVGID_66_)" d="M220.06,239.83c0,0,7.56,9.17,25.27,11.84c16.96,2.56,22.07-3.2,22.07-3.2
				s12.76,62.13-47.34,91.34c-60.1-29.21-47.34-91.34-47.34-91.34s5.12,5.76,22.07,3.2C212.51,248.99,220.06,239.83,220.06,239.83z"
				/>
			<radialGradient id="SVGID_67_" cx="241.097" cy="229.9047" r="185.0846" gradientUnits="userSpaceOnUse">
				<stop  offset="0.1774" style="stop-color:#E3AE30"/>
				<stop  offset="1" style="stop-color:#D55013"/>
			</radialGradient>
			<path display="none" fill="url(#SVGID_67_)" d="M267.41,248.46c0,0-5.12,5.76-22.07,3.2c-17.71-2.67-25.27-11.84-25.27-11.84
				v99.97C280.16,310.59,267.41,248.46,267.41,248.46z"/>
		</g>
		<g>
			<radialGradient id="SVGID_68_" cx="377.342" cy="240.4573" r="117.5382" gradientUnits="userSpaceOnUse">
				<stop  offset="0.1774" style="stop-color:#75CEFC"/>
				<stop  offset="1" style="stop-color:#3E6EFA"/>
			</radialGradient>
			<path display="inline" fill="url(#SVGID_68_)" d="M350.25,239.83c0,0,7.56,9.17,25.27,11.84c16.96,2.56,22.07-3.2,22.07-3.2
				s12.76,62.13-47.34,91.34c-60.1-29.21-47.35-91.34-47.35-91.34s5.12,5.76,22.07,3.2C342.69,248.99,350.25,239.83,350.25,239.83z"
				/>
			<radialGradient id="SVGID_69_" cx="371.2841" cy="229.9047" r="185.0844" gradientUnits="userSpaceOnUse">
				<stop  offset="0.1774" style="stop-color:#75CEFC"/>
				<stop  offset="1" style="stop-color:#3E6EFA"/>
			</radialGradient>
			<path display="inline" fill="url(#SVGID_69_)" d="M397.59,248.46c0,0-5.12,5.76-22.07,3.2c-17.71-2.67-25.27-11.84-25.27-11.84
				v99.97C410.35,310.59,397.59,248.46,397.59,248.46z"/>
			<g display="inline">
				<path fill="#FFFFFF" d="M368.12,287.97c1.74-2.24,2.78-5.04,2.78-8.09v-0.72c0-7.03-5.51-12.79-12.45-13.21v-5.01h-8.83v4.97
					h-3.62v-4.97h-8.83v4.97h-2.06h-4.38v8.83h4.38v9.56v8.83v10.61h-4.38v8.83h4.38h2.06v4.06h8.83v-4.06h3.62v4.06h8.83v-4.06
					h0.34c7.59,0,13.76-6.17,13.76-13.76v-0.77C372.55,294.07,370.84,290.48,368.12,287.97z M343.95,274.74h1.88h11.83
					c2.43,0,4.42,1.98,4.42,4.42v0.72c0,2.44-1.98,4.42-4.42,4.42h-13.71V274.74z M363.72,298.82c0,2.71-2.21,4.92-4.92,4.92h-12.97
					h-1.88v-10.61h13.71h1.14c2.71,0,4.92,2.21,4.92,4.92V298.82z"/>
			</g>
		</g>
		<g>
			<radialGradient id="SVGID_70_" cx="247.1554" cy="370.5296" r="117.5393" gradientUnits="userSpaceOnUse">
				<stop  offset="0.1774" style="stop-color:#E07132"/>
				<stop  offset="1" style="stop-color:#DA010A"/>
			</radialGradient>
			<path display="inline" fill="url(#SVGID_70_)" d="M220.06,369.9c0,0,7.56,9.17,25.27,11.84c16.96,2.56,22.07-3.2,22.07-3.2
				s12.76,62.13-47.34,91.34c-60.1-29.21-47.34-91.34-47.34-91.34s5.12,5.76,22.07,3.2C212.51,379.06,220.06,369.9,220.06,369.9z"/>
			<radialGradient id="SVGID_71_" cx="241.097" cy="359.977" r="185.0863" gradientUnits="userSpaceOnUse">
				<stop  offset="0.1774" style="stop-color:#E07132"/>
				<stop  offset="1" style="stop-color:#DA010A"/>
			</radialGradient>
			<path display="inline" fill="url(#SVGID_71_)" d="M267.41,378.54c0,0-5.12,5.76-22.07,3.2c-17.71-2.67-25.27-11.84-25.27-11.84
				v99.97C280.16,440.67,267.41,378.54,267.41,378.54z"/>
			<g display="inline">
				<path fill="#FFFFFF" d="M237.94,418.04c1.74-2.24,2.78-5.04,2.78-8.09v-0.72c0-7.03-5.51-12.79-12.45-13.21v-5.01h-8.83v4.97
					h-3.62v-4.97h-8.83v4.97h-2.06h-4.38v8.83h4.38v9.56v8.83v10.61h-4.38v8.83h4.38h2.06v4.06h8.83v-4.06h3.62v4.06h8.83v-4.06
					h0.34c7.59,0,13.76-6.17,13.76-13.75v-0.77C242.36,424.14,240.65,420.56,237.94,418.04z M213.76,404.81h1.88h11.83
					c2.44,0,4.42,1.98,4.42,4.42v0.72c0,2.44-1.98,4.42-4.42,4.42h-13.71V404.81z M233.53,428.89c0,2.71-2.21,4.92-4.92,4.92h-12.97
					h-1.88V423.2h13.71h1.14c2.71,0,4.92,2.21,4.92,4.92V428.89z"/>
			</g>
		</g>
		<g>
			<radialGradient id="SVGID_72_" cx="377.342" cy="370.5296" r="117.5393" gradientUnits="userSpaceOnUse">
				<stop  offset="0" style="stop-color:#7F7F7F"/>
				<stop  offset="1" style="stop-color:#000000"/>
			</radialGradient>
			<path display="inline" fill="url(#SVGID_72_)" d="M350.25,369.9c0,0,7.56,9.17,25.27,11.84c16.96,2.56,22.07-3.2,22.07-3.2
				s12.76,62.13-47.34,91.34c-60.1-29.21-47.35-91.34-47.35-91.34s5.12,5.76,22.07,3.2C342.69,379.06,350.25,369.9,350.25,369.9z"/>
			<radialGradient id="SVGID_73_" cx="371.2841" cy="359.977" r="185.0861" gradientUnits="userSpaceOnUse">
				<stop  offset="0" style="stop-color:#7F7F7F"/>
				<stop  offset="1" style="stop-color:#000000"/>
			</radialGradient>
			<path display="inline" fill="url(#SVGID_73_)" d="M397.59,378.54c0,0-5.12,5.76-22.07,3.2c-17.71-2.67-25.27-11.84-25.27-11.84
				v99.97C410.35,440.67,397.59,378.54,397.59,378.54z"/>
			<g display="inline">
				<path fill="#FFFFFF" d="M368.12,418.04c1.74-2.24,2.78-5.04,2.78-8.09v-0.72c0-7.03-5.51-12.79-12.45-13.21v-5.01h-8.83v4.97
					h-3.62v-4.97h-8.83v4.97h-2.06h-4.38v8.83h4.38v9.56v8.83v10.61h-4.38v8.83h4.38h2.06v4.06h8.83v-4.06h3.62v4.06h8.83v-4.06
					h0.34c7.59,0,13.76-6.17,13.76-13.75v-0.77C372.55,424.14,370.84,420.56,368.12,418.04z M343.95,404.81h1.88h11.83
					c2.43,0,4.42,1.98,4.42,4.42v0.72c0,2.44-1.98,4.42-4.42,4.42h-13.71V404.81z M363.72,428.89c0,2.71-2.21,4.92-4.92,4.92h-12.97
					h-1.88V423.2h13.71h1.14c2.71,0,4.92,2.21,4.92,4.92V428.89z"/>
			</g>
		</g>
	</g>
	
		<image display="none" overflow="visible" width="898" height="273" xlink:href="../../0c1bf7fe-06dd-407f-9f77-97fb20502d2a.html"  transform="matrix(0.2637 0 0 0.2637 -164.8352 247.728)">
	</image>
	<linearGradient id="SVGID_74_" gradientUnits="userSpaceOnUse" x1="36" y1="-24.0355" x2="36" y2="-96.0355">
		<stop  offset="1.692840e-03" style="stop-color:#ED9A21"/>
		<stop  offset="1" style="stop-color:#FCDA4F"/>
	</linearGradient>
	<path display="none" fill="url(#SVGID_74_)" d="M15-24.04h42c8.28,0,15-6.72,15-15v-42c0-8.28-6.72-15-15-15H15
		c-8.28,0-15,6.72-15,15v42C0-30.75,6.72-24.04,15-24.04z"/>
	<g display="none">
		<g display="inline">
			<linearGradient id="SVGID_75_" gradientUnits="userSpaceOnUse" x1="142.9195" y1="-31.8257" x2="142.9195" y2="-53.5161">
				<stop  offset="1.692840e-03" style="stop-color:#ED9A21"/>
				<stop  offset="1" style="stop-color:#FCDA4F"/>
			</linearGradient>
			<path fill="url(#SVGID_75_)" d="M98.03-44.59c-0.81,0.83-1.77,1.39-2.9,1.69c1.02,0.24,1.81,0.73,2.39,1.47
				c0.57,0.74,0.85,1.62,0.85,2.64c0,0.32-0.03,0.65-0.09,0.99c-0.3,1.8-1.16,3.21-2.58,4.23c-1.42,1.02-3.26,1.53-5.52,1.53H79.71
				l3.75-21.15H93.6c1.92,0,3.41,0.39,4.47,1.16c1.06,0.77,1.59,1.87,1.59,3.29c0,0.34-0.03,0.69-0.09,1.05
				C99.35-46.46,98.84-45.42,98.03-44.59z M92.46-39.06c0-0.5-0.17-0.89-0.5-1.16c-0.33-0.27-0.81-0.41-1.45-0.41h-3.39l-0.66,3.87
				h3.42c1.46,0,2.31-0.63,2.55-1.89C92.45-38.74,92.46-38.88,92.46-39.06z M93.39-47.07c0-0.96-0.63-1.44-1.89-1.44h-2.97
				l-0.66,3.75h2.97c1.46,0,2.3-0.62,2.52-1.86C93.38-46.72,93.39-46.87,93.39-47.07z"/>
			<linearGradient id="SVGID_76_" gradientUnits="userSpaceOnUse" x1="142.9195" y1="-31.8257" x2="142.9195" y2="-53.5161">
				<stop  offset="1.692840e-03" style="stop-color:#ED9A21"/>
				<stop  offset="1" style="stop-color:#FCDA4F"/>
			</linearGradient>
			<path fill="url(#SVGID_76_)" d="M109.47-53.19l-3.72,21.15h-5.91l3.75-21.15H109.47z"/>
			<linearGradient id="SVGID_77_" gradientUnits="userSpaceOnUse" x1="142.9195" y1="-31.8257" x2="142.9195" y2="-53.5161">
				<stop  offset="1.692840e-03" style="stop-color:#ED9A21"/>
				<stop  offset="1" style="stop-color:#FCDA4F"/>
			</linearGradient>
			<path fill="url(#SVGID_77_)" d="M128.76-53.19l-0.84,4.68h-5.61l-2.91,16.47h-5.91l2.91-16.47h-5.58l0.84-4.68H128.76z"/>
			<linearGradient id="SVGID_78_" gradientUnits="userSpaceOnUse" x1="142.9195" y1="-31.8257" x2="142.9195" y2="-53.5161">
				<stop  offset="1.692840e-03" style="stop-color:#ED9A21"/>
				<stop  offset="1" style="stop-color:#FCDA4F"/>
			</linearGradient>
			<path fill="url(#SVGID_78_)" d="M130.65-48.22c1.16-1.63,2.62-2.9,4.38-3.81c1.76-0.91,3.68-1.37,5.76-1.37
				c1.74,0,3.26,0.32,4.56,0.96c1.3,0.64,2.31,1.55,3.03,2.73c0.72,1.18,1.11,2.57,1.17,4.17h-6.33c-0.24-0.78-0.66-1.38-1.26-1.8
				c-0.6-0.42-1.34-0.63-2.22-0.63c-1.36,0-2.53,0.48-3.51,1.44c-0.98,0.96-1.61,2.25-1.89,3.87c-0.08,0.42-0.12,0.87-0.12,1.35
				c0,1.24,0.32,2.21,0.98,2.92c0.65,0.71,1.54,1.06,2.69,1.06c0.88,0,1.69-0.21,2.44-0.63s1.38-1.02,1.88-1.8h6.36
				c-0.96,2.42-2.47,4.33-4.53,5.75c-2.06,1.41-4.41,2.12-7.05,2.12c-1.82,0-3.4-0.35-4.73-1.05c-1.33-0.7-2.35-1.69-3.04-2.97
				c-0.7-1.28-1.05-2.76-1.05-4.44c0-0.78,0.07-1.55,0.21-2.31C128.73-44.74,129.49-46.59,130.65-48.22z"/>
			<linearGradient id="SVGID_79_" gradientUnits="userSpaceOnUse" x1="142.9195" y1="-31.8257" x2="142.9195" y2="-53.5161">
				<stop  offset="1.692840e-03" style="stop-color:#ED9A21"/>
				<stop  offset="1" style="stop-color:#FCDA4F"/>
			</linearGradient>
			<path fill="url(#SVGID_79_)" d="M155.46-32.94c-1.36-0.74-2.41-1.78-3.15-3.12c-0.74-1.34-1.11-2.88-1.11-4.62
				c0-2.5,0.52-4.73,1.57-6.68c1.05-1.95,2.52-3.46,4.41-4.54s4.05-1.62,6.5-1.62c1.82,0,3.41,0.37,4.78,1.1s2.42,1.76,3.17,3.09
				c0.74,1.33,1.11,2.87,1.11,4.6c0,2.48-0.53,4.7-1.59,6.66c-1.06,1.96-2.54,3.49-4.44,4.59c-1.9,1.1-4.08,1.65-6.54,1.65
				C158.39-31.83,156.82-32.2,155.46-32.94z M164.17-38.22c0.89-0.62,1.57-1.45,2.04-2.48c0.47-1.03,0.71-2.14,0.71-3.34
				c0-1.28-0.34-2.27-1.03-2.99c-0.69-0.71-1.68-1.06-2.96-1.06c-1.18,0-2.22,0.3-3.12,0.92s-1.59,1.42-2.07,2.44
				c-0.48,1.02-0.72,2.14-0.72,3.36c0,1.26,0.35,2.25,1.05,2.99s1.7,1.09,3,1.09C162.25-37.29,163.28-37.6,164.17-38.22z"/>
			<linearGradient id="SVGID_80_" gradientUnits="userSpaceOnUse" x1="142.9195" y1="-31.8257" x2="142.9195" y2="-53.5161">
				<stop  offset="1.692840e-03" style="stop-color:#ED9A21"/>
				<stop  offset="1" style="stop-color:#FCDA4F"/>
			</linearGradient>
			<path fill="url(#SVGID_80_)" d="M183.18-53.19l-3.72,21.15h-5.91l3.75-21.15H183.18z"/>
			<linearGradient id="SVGID_81_" gradientUnits="userSpaceOnUse" x1="142.9195" y1="-31.8257" x2="142.9195" y2="-53.5161">
				<stop  offset="1.692840e-03" style="stop-color:#ED9A21"/>
				<stop  offset="1" style="stop-color:#FCDA4F"/>
			</linearGradient>
			<path fill="url(#SVGID_81_)" d="M202.41-32.04h-5.91l-5.7-11.82l-2.1,11.82h-5.91l3.75-21.15h5.88l5.73,11.97l2.1-11.97h5.88
				L202.41-32.04z"/>
		</g>
	</g>
	<g display="none">
		<path display="inline" fill="#FFFFFF" d="M206.54-44.21c-0.21-0.18-0.32-0.42-0.32-0.72c0-0.26,0.07-0.49,0.21-0.71
			c0.14-0.22,0.33-0.4,0.58-0.53c0.25-0.13,0.52-0.2,0.83-0.2c0.36,0,0.65,0.09,0.86,0.28c0.21,0.19,0.32,0.43,0.32,0.73
			c0,0.4-0.15,0.74-0.46,1.01c-0.31,0.28-0.69,0.41-1.15,0.41C207.04-43.94,206.75-44.03,206.54-44.21z"/>
		<path display="inline" fill="#FFFFFF" d="M213.67-50.51c0.46-0.65,1.05-1.16,1.75-1.52s1.47-0.55,2.3-0.55
			c0.7,0,1.3,0.13,1.82,0.38c0.52,0.26,0.92,0.62,1.21,1.09c0.29,0.47,0.44,1.03,0.47,1.67h-2.53c-0.1-0.31-0.26-0.55-0.5-0.72
			s-0.54-0.25-0.89-0.25c-0.54,0-1.01,0.19-1.4,0.58c-0.39,0.38-0.64,0.9-0.76,1.55c-0.03,0.17-0.05,0.35-0.05,0.54
			c0,0.5,0.13,0.89,0.39,1.17s0.62,0.43,1.07,0.43c0.35,0,0.68-0.08,0.98-0.25s0.55-0.41,0.75-0.72h2.54
			c-0.38,0.97-0.99,1.73-1.81,2.3c-0.82,0.56-1.76,0.85-2.82,0.85c-0.73,0-1.36-0.14-1.89-0.42c-0.53-0.28-0.94-0.68-1.22-1.19
			c-0.28-0.51-0.42-1.1-0.42-1.78c0-0.31,0.03-0.62,0.08-0.92C212.9-49.12,213.2-49.86,213.67-50.51z"/>
		<path display="inline" fill="#FFFFFF" d="M225.99-44.4c-0.54-0.3-0.96-0.71-1.26-1.25c-0.3-0.54-0.44-1.15-0.44-1.85
			c0-1,0.21-1.89,0.63-2.67s1.01-1.39,1.76-1.82c0.76-0.43,1.62-0.65,2.6-0.65c0.73,0,1.37,0.15,1.91,0.44s0.97,0.7,1.27,1.24
			s0.44,1.15,0.44,1.84c0,0.99-0.21,1.88-0.64,2.66s-1.02,1.4-1.78,1.84c-0.76,0.44-1.63,0.66-2.62,0.66
			C227.16-43.95,226.54-44.1,225.99-44.4z M229.48-46.51c0.36-0.25,0.63-0.58,0.82-0.99c0.19-0.41,0.28-0.86,0.28-1.34
			c0-0.51-0.14-0.91-0.41-1.19c-0.28-0.28-0.67-0.43-1.18-0.43c-0.47,0-0.89,0.12-1.25,0.37s-0.64,0.57-0.83,0.98
			s-0.29,0.86-0.29,1.34c0,0.5,0.14,0.9,0.42,1.19s0.68,0.44,1.2,0.44C228.71-46.13,229.12-46.26,229.48-46.51z"/>
		<path display="inline" fill="#FFFFFF" d="M247-52.5l-1.5,8.46h-2.34l0.83-4.68l-2.44,4.68h-1.97l-0.77-4.7l-0.83,4.7h-2.36
			l1.5-8.46h2.84l1.16,5.48l3.04-5.48H247z"/>
	</g>
	<g display="none">
		<g display="inline">
			<linearGradient id="SVGID_82_" gradientUnits="userSpaceOnUse" x1="165.6102" y1="-63.7837" x2="165.6102" y2="-89.6675">
				<stop  offset="1.692840e-03" style="stop-color:#ED9A21"/>
				<stop  offset="1" style="stop-color:#FCDA4F"/>
			</linearGradient>
			<path fill="url(#SVGID_82_)" d="M104.32-89.42l-1.01,5.62h-6.73l-3.49,19.76H86l3.49-19.76h-6.7l1.01-5.62H104.32z"/>
			<linearGradient id="SVGID_83_" gradientUnits="userSpaceOnUse" x1="165.6102" y1="-63.7837" x2="165.6102" y2="-89.6675">
				<stop  offset="1.692840e-03" style="stop-color:#ED9A21"/>
				<stop  offset="1" style="stop-color:#FCDA4F"/>
			</linearGradient>
			<path fill="url(#SVGID_83_)" d="M118.32-89.42l-4.46,25.38h-7.09l4.5-25.38H118.32z"/>
			<linearGradient id="SVGID_84_" gradientUnits="userSpaceOnUse" x1="165.6102" y1="-63.7837" x2="165.6102" y2="-89.6675">
				<stop  offset="1.692840e-03" style="stop-color:#ED9A21"/>
				<stop  offset="1" style="stop-color:#FCDA4F"/>
			</linearGradient>
			<path fill="url(#SVGID_84_)" d="M145.72-64.04h-7.09l-6.84-14.18l-2.52,14.18h-7.09l4.5-25.38h7.06l6.88,14.36l2.52-14.36h7.06
				L145.72-64.04z"/>
			<linearGradient id="SVGID_85_" gradientUnits="userSpaceOnUse" x1="165.6102" y1="-63.7837" x2="165.6102" y2="-89.6675">
				<stop  offset="1.692840e-03" style="stop-color:#ED9A21"/>
				<stop  offset="1" style="stop-color:#FCDA4F"/>
			</linearGradient>
			<path fill="url(#SVGID_85_)" d="M189.21-89.42l-1.01,5.62h-6.73l-3.49,19.76h-7.09l3.49-19.76h-6.7l1.01-5.62H189.21z"/>
			<linearGradient id="SVGID_86_" gradientUnits="userSpaceOnUse" x1="165.6102" y1="-63.7837" x2="165.6102" y2="-89.6675">
				<stop  offset="1.692840e-03" style="stop-color:#ED9A21"/>
				<stop  offset="1" style="stop-color:#FCDA4F"/>
			</linearGradient>
			<path fill="url(#SVGID_86_)" d="M203.07-89.42l-2.56,14.72c-0.07,0.43-0.11,0.84-0.11,1.22c0,0.96,0.26,1.7,0.77,2.23
				c0.52,0.53,1.31,0.79,2.39,0.79c1.3,0,2.34-0.37,3.13-1.12c0.79-0.74,1.31-1.79,1.55-3.13l2.59-14.72h7.06l-2.59,14.72
				c-0.41,2.4-1.24,4.42-2.48,6.05c-1.25,1.63-2.77,2.85-4.57,3.65c-1.8,0.8-3.77,1.21-5.9,1.21c-2.76,0-4.97-0.72-6.64-2.16
				c-1.67-1.44-2.5-3.5-2.5-6.19c0-0.86,0.08-1.72,0.25-2.56l2.59-14.72H203.07z"/>
			<linearGradient id="SVGID_87_" gradientUnits="userSpaceOnUse" x1="165.6102" y1="-63.7837" x2="165.6102" y2="-89.6675">
				<stop  offset="1.692840e-03" style="stop-color:#ED9A21"/>
				<stop  offset="1" style="stop-color:#FCDA4F"/>
			</linearGradient>
			<path fill="url(#SVGID_87_)" d="M225.75-83.46c1.39-1.96,3.14-3.48,5.26-4.57c2.11-1.09,4.42-1.64,6.91-1.64
				c2.09,0,3.91,0.38,5.47,1.15c1.56,0.77,2.77,1.86,3.64,3.28s1.33,3.08,1.4,5h-7.6c-0.29-0.94-0.79-1.66-1.51-2.16
				s-1.61-0.76-2.66-0.76c-1.63,0-3.04,0.58-4.21,1.73c-1.18,1.15-1.93,2.7-2.27,4.64c-0.1,0.5-0.14,1.04-0.14,1.62
				c0,1.49,0.39,2.66,1.17,3.51c0.78,0.85,1.85,1.28,3.22,1.28c1.06,0,2.03-0.25,2.93-0.76s1.65-1.22,2.25-2.16h7.63
				c-1.15,2.9-2.96,5.2-5.44,6.89c-2.47,1.69-5.29,2.54-8.46,2.54c-2.18,0-4.07-0.42-5.67-1.26c-1.6-0.84-2.81-2.03-3.65-3.56
				c-0.84-1.54-1.26-3.31-1.26-5.33c0-0.94,0.08-1.86,0.25-2.77C223.44-79.28,224.36-81.5,225.75-83.46z"/>
		</g>
	</g>
	<g id="bitcoin_3_" display="none">
		<path display="inline" fill="#272525" d="M50.58-61.14c1.45-1.87,1.8-6.77,1.8-6.77v-0.43c0-5.65-4.43-10.28-10-10.61v-4.51h-7v4
			h-4v-4h-7v4h-1h-4v7h4v9.59v7v8.41h-4v7h3.57h1.43v3h7v-3h4v3h7v-3h0.39c0,0,11.51-5.25,11.61-11.6v-0.64
			C54.29-56.04,52.85-59.04,50.58-61.14z M30.38-72.47h1.55h9.75c2.04,0,3.7,1.65,3.7,3.7v0.61c0,2.04-1.66,3.7-3.7,3.7h-11.3
			V-72.47z M47.38-51.59c0,2.28-1.84,4.12-4.12,4.12H32h-1.61v-9h11.79h1.09c2.28,0,4.12,1.84,4.12,4.12V-51.59z"/>
	</g>
	<g>
	</g>
	<g>
	</g>
	<g>
	</g>
	<g>
	</g>
	<g>
	</g>
	<g>
	</g>
</g>
</svg>
