<svg width="772" height="100" fill="none" xmlns="http://www.w3.org/2000/svg"><path d="M473.75 54.2c0 18.1-10.4 28.9-27.5 28.9s-27.5-10.8-27.5-28.9c0-18.1 10.5-28.9 27.5-28.9 17.1 0 27.5 10.8 27.5 28.9Zm-40.1 0c0 11.5 4.4 17.4 12.6 17.4s12.5-6 12.5-17.4c0-11.4-4.4-17.4-12.5-17.4s-12.6 5.9-12.6 17.4Zm107 28h-16.2l-17.4-30.3-4.2-8.5h-.1l.3 10.5v28.3h-12.9V26.1h12.8c2.1 0 4.1 1.2 5.2 3l15.7 27.3 4.2 8.5h.1l-.3-10.5V26.1h12.9l-.1 56.1Zm63.5-11.3v11.3h-42.8V26.1h14.6v44.8h28.2Zm31.3 11.3h-14.6V26.1h14.6v56.1Zm70.7 0h-16.2l-17.4-30.3-4.2-8.5h-.1l.3 10.5v28.3h-12.9V26.1h12.7c2.1 0 4.1 1.2 5.2 3l15.7 27.3 4.2 8.5h.1l-.3-10.5V26.1h12.9v56.1Zm64.8-11.3v11.3h-44.8V26.1h43.7v11.3h-29.1v11.4h23.1v10.6h-23.1v11.5h30.2Z" fill="#002328"/><path fill-rule="evenodd" clip-rule="evenodd" d="M98.1 58.5c-1.6.1-2.8.6-3.8 1.5-1 .8-1.7 1.9-2.1 3.5-.4 1.5-.5 3.3-.5 5.5 0 1.8.1 3.2.4 4.5.2 1.2.6 2.2 1 2.8.4.4 1.1.7 1.9.7 1.2 0 2.2-.5 3.1-1.5.9-1 1.5-2.4 2-4.2.5-1.8.7-3.9.7-6.3v-6.8l-2.7.3ZM300 45.2c-.4-2.2-.9-4-1.6-5.2-.7-1.2-1.7-1.8-2.8-1.8-1.1 0-2.2.6-3.2 1.8-.9 1.2-1.6 2.8-2.2 5.1-.5 2.2-.8 4.9-.8 8.2h11.1c.1-3.2-.1-5.8-.5-8.1Zm41 0c-.4-2.2-.9-4-1.6-5.2-.7-1.2-1.7-1.8-2.8-1.8-1.1 0-2.2.6-3.2 1.8-.9 1.2-1.6 2.8-2.2 5.1-.5 2.2-.8 4.9-.8 8.2h11.1c.1-3.2-.1-5.8-.5-8.1ZM0 0v100h400V0H0Zm75 38.9c-.6.4-1.2 1.1-1.6 2.1-.5 1-1 2.5-1.5 4.5l-9.8 36.8H53l-7.2-30.2-7.6 30.2H29l-9.5-39c-.3-1.3-.7-2.3-1.2-3-.4-.7-1-1.1-1.6-1.4-.7-.3-1.5-.5-2.5-.5H14v-4.8h23.6v4.8h-.9c-1.5 0-2.6.3-3.4.8-.7.5-1.1 1.5-1.1 3 0 .5.1 1.1.2 1.9.2.7.3 1.4.5 2.1l2.2 11.7c.3 1.5.6 2.9.8 4.5.3 1.5.5 3 .7 4.4.2 1.3.4 2.5.5 3.4h.3c.1-1 .3-2 .5-3.2.2-1.2.5-2.4.8-3.6.3-1.2.6-2.3.8-3.4L47 34.1h5l7 26.8c.2.7.4 1.4.5 2.3.2.8.3 1.7.5 2.6.1.8.2 1.7.3 2.5.1.7.2 1.4.3 2h.3c.1-1 .2-1.9.4-2.9s.4-2 .5-3.1c.2-1.2.4-2.3.7-3.5l3.1-13.3c.2-.8.3-1.6.5-2.5.1-.9.2-1.6.2-2.1 0-1.6-.4-2.7-1.3-3.4-.8-.7-2-1.1-3.6-1.1h-.5v-4.8h17.6v4.8h-1c-1 0-1.8.2-2.5.5Zm41.7 43.6h-13.4l-1.7-6.3h-.7c-1.2 1.6-2.2 3-3.2 4.1-1 1-2.1 1.8-3.3 2.3-1.3.4-2.8.7-4.6.7-2.2 0-4.2-.5-6-1.5-1.8-1.1-3.2-2.7-4.3-4.9-1-2.2-1.5-5-1.5-8.4 0-5 1.4-8.6 4.1-10.9 2.8-2.4 7-3.7 12.5-3.9l6.2-.3v-5c0-2.2-.2-4.1-.5-5.6-.3-1.6-.8-2.8-1.5-3.5-.6-.8-1.4-1.2-2.5-1.2-1 0-1.9.4-2.5 1.2-.6.7-1.1 1.8-1.5 3.4-.3 1.5-.5 3.2-.5 5.3-3.7 0-6.5-.5-8.3-1.5-1.8-1-2.6-2.5-2.6-4.6 0-2.1.7-3.8 2.2-5.2 1.5-1.4 3.5-2.4 6-3.1 2.5-.7 5.2-1 8.3-1 5.5 0 9.7 1.2 12.5 3.5 2.8 2.3 4.3 6.3 4.3 12v23.2c0 1.7.1 3 .4 3.9.3.9.8 1.6 1.5 2l.6.3v5Zm55.2-.2H120v-4.7h1c.9 0 1.7-.2 2.5-.5s1.3-1 1.7-1.9c.4-1 .6-2.3.6-4.1V23.7c0-1.6-.3-2.8-.9-3.6-.6-.8-1.3-1.3-2.1-1.5-.7-.2-1.4-.4-1.9-.4h-.9v-4.8h19.3V71c0 1.8.2 3.1.6 4.1.4.9 1 1.5 1.7 1.9.8.4 1.7.5 2.6.5h3.8c.9 0 1.7-.2 2.5-.5s1.3-1 1.7-1.9c.4-1 .6-2.3.6-4.1V23.7c0-1.6-.3-2.8-.9-3.6-.6-.8-1.3-1.3-2.1-1.5-.7-.2-1.4-.4-1.9-.4h-.9v-4.8h19.3V71c0 1.8.2 3.1.6 4.1.4.9 1 1.5 1.7 1.9.8.4 1.7.5 2.6.5h.7v4.8Zm30.4-3.1c-2.7 2.8-6.9 4.2-12.5 4.2-3.9 0-7.1-.4-9.5-1.3-2.3-.9-3.9-2.1-4.9-3.6-1-1.5-1.5-3.3-1.5-5.4 0-1.6.3-2.9 1-3.8.7-1 1.5-1.7 2.6-2.1 1.2-.4 2.4-.6 3.7-.6 0 2.5.4 4.6 1.1 6.3.7 1.7 1.7 3 3 3.8 1.3.8 2.8 1.3 4.5 1.3 2.5 0 4.2-.6 5.3-1.8 1-1.2 1.5-2.7 1.5-4.5 0-1.3-.3-2.5-1-3.4-.6-.9-1.5-1.8-2.8-2.5-1.3-.8-2.9-1.7-5-2.5-3-1.3-5.5-2.6-7.5-3.9-1.9-1.4-3.4-3-4.5-4.9-1-1.9-1.5-4.4-1.5-7.3 0-4.8 1.5-8.5 4.6-10.8 3.2-2.4 7.3-3.6 12.4-3.6 3.3 0 5.9.4 7.9 1.3 2 .8 3.5 1.8 4.4 3.2 1 1.3 1.5 2.7 1.5 4.2 0 2-.6 3.5-1.8 4.5-1.2 1-3.2 1.5-5.8 1.5 0-3-.7-5.3-2.1-6.9-1.4-1.6-3.1-2.4-5.2-2.4-1.1 0-2.1.2-2.9.6-.8.4-1.5 1.1-2 1.9-.4.8-.6 1.8-.6 2.9 0 1.4.2 2.5.7 3.5.5.9 1.5 1.8 2.7 2.5 1.3.8 3.2 1.7 5.5 2.6 2.7 1.1 5 2.3 7 3.6 2 1.3 3.5 2.9 4.5 4.8 1.1 1.9 1.6 4.3 1.6 7.3 0 4.7-1.5 8.4-4.4 11.3Zm70.9-32.4c-1.9 1.3-4.5 1.9-7.7 1.9 0-1.7-.1-3.1-.3-4.2-.1-1.1-.4-1.9-.9-2.5-.5-.6-1.2-.9-2.2-.9-.9 0-1.7.5-2.5 1.5-.7.9-1.2 2.2-1.7 3.7s-.8 3.2-1.1 5.2c-.2 1.9-.4 3.8-.4 5.6v14.3c0 1.8.2 3.1.5 4 .4.8 1 1.4 1.6 1.7.7.2 1.6.4 2.5.4h2.5v4.8h-25.6v-4.7c.9 0 1.6-.2 2.3-.5.8-.3 1.5-.9 1.9-1.8.5-1 .7-2.4.7-4.3V45.5c0-1.8-.2-3.2-.6-4-.4-.9-.9-1.5-1.6-1.7-.7-.3-1.6-.5-2.7-.5h-11v28.5c0 2.7.3 4.7.9 6 .7 1.2 1.9 1.8 3.6 1.8.5 0 1.1 0 1.6-.1v6.8c-.1 0-.2.1-.3.1-1.8.6-4.2.9-7.1.9-3.8 0-6.8-1.1-9-3.2s-3.3-5.8-3.3-11.2V39.4h-5.5v-4.3c2-.1 3.7-.6 5-1.4 1.3-.8 2.4-1.8 3.1-2.7.7-.8 1.3-2 1.9-3.4.6-1.4 1.1-3.2 1.5-5.3h7.6v11.3h27.3l1.5 9h.5c.8-2.2 1.7-4 2.7-5.5 1.1-1.5 2.4-2.6 3.8-3.4 1.5-.8 3.2-1.2 5.2-1.2 2.8 0 4.9.8 6.2 2.3 1.3 1.5 1.9 3.5 1.9 5.9 0 2.7-.9 4.8-2.8 6.1ZM313.8 59h-24.5c.1 4.1.5 7.4 1.3 10.1.8 2.6 1.9 4.5 3.5 5.8 1.5 1.3 3.4 1.9 5.5 1.9 1.8 0 3.2-.3 4.5-1 1.2-.7 2.3-1.7 3.2-2.9.9-1.2 1.6-2.5 2.2-4 .8.2 1.5.7 2.1 1.4.6.7.9 1.5.9 2.6 0 1.5-.5 3.1-1.6 4.7s-2.8 3-5.2 4.1c-2.5 1.1-5.6 1.6-9.5 1.6-6.8 0-12-2.2-15.4-6.5-3.4-4.4-5.1-10.6-5.1-18.5 0-8.5 1.7-15 5.1-19.3 3.5-4.4 8.3-6.5 14.5-6.5 5.8 0 10.3 1.9 13.5 5.6 3.3 3.7 5 9.2 5 16.4V59Zm40.9 0h-24.5c.1 4.1.5 7.4 1.3 10.1.8 2.6 1.9 4.5 3.5 5.8 1.5 1.3 3.4 1.9 5.5 1.9 1.8 0 3.2-.3 4.5-1 1.2-.7 2.3-1.7 3.2-2.9.9-1.2 1.6-2.5 2.2-4 .8.2 1.5.7 2.1 1.4.6.7.9 1.5.9 2.6 0 1.5-.5 3.1-1.6 4.7s-2.8 3-5.2 4.1c-2.5 1.1-5.6 1.6-9.5 1.6-6.8 0-12-2.2-15.4-6.5-3.4-4.4-5.1-10.6-5.1-18.5 0-8.5 1.7-15 5.1-19.3 3.5-4.4 8.3-6.5 14.5-6.5 5.8 0 10.3 1.9 13.5 5.6 3.3 3.7 5 9.2 5 16.4V59Zm29.2 21.9c-.9.4-2.3.9-4.3 1.5-1.8.6-4.2.9-7.1.9-3.8 0-6.8-1.1-9-3.2s-3.3-5.8-3.3-11.2V39.4h-5.5v-4.3c2-.1 3.7-.6 5-1.4 1.3-.8 2.4-1.8 3.1-2.7.7-.8 1.3-2 1.9-3.4.6-1.4 1.1-3.2 1.5-5.3h7.6v11.3h9.5v5.7h-9.5v28.5c0 2.7.3 4.7.9 6 .7 1.2 1.9 1.8 3.6 1.8 1 0 2-.1 3-.2 1-.2 1.8-.4 2.6-.6v6.1Z" fill="#002328"/></svg>