<svg width="230" height="118" viewBox="0 0 230 118" fill="none" xmlns="http://www.w3.org/2000/svg">
<path d="M21.0212 116.204C8.12859 116.204 1.63074 111.377 1.68003 102.209C1.63049 95.088 7.01275 91.3237 14.5637 89.8673L22.6121 88.2452C25.4532 87.5681 28.5408 87.1513 28.5408 83.9206C28.5408 81.2676 26.4077 79.6098 21.0212 79.6277C16.7013 79.6277 10.2437 81.2676 3.79519 83.9206L5.95523 73.1747C11.3283 71.0417 17.7947 69.9347 23.1678 69.9347C34.9849 69.9347 40.8956 74.2322 40.8956 82.8408V112.435C36.0917 114.568 26.9544 116.204 21.0212 116.204ZM28.5677 94.1469L19.9591 96.2891C16.6026 97.1084 13.4838 98.189 13.4838 101.953C13.4838 105.198 16.1725 107.053 21.0212 107.053C23.71 107.053 26.6811 106.52 28.5677 105.7V94.1469ZM50.0553 115.142V53.8065L62.3923 55.9218L62.4418 115.142H50.0553ZM71.5834 112.435L71.5694 53.8065L83.9512 55.9218V72.6368C86.4965 71.1402 89.8485 69.9436 94.1371 69.9436C107.617 69.9436 115.118 77.9696 115.118 91.4313C115.163 106.502 106.048 116.168 89.8844 116.204C84.471 116.204 76.4187 114.568 71.5834 112.435ZM83.9512 82.1731V104.606C85.8333 105.57 87.8454 105.982 90.3997 105.982C97.3905 105.982 102.226 101.657 102.226 92.5111C102.226 84.9781 99.0217 80.1745 91.4573 80.1745C88.2711 80.1745 85.8019 80.9493 83.9512 82.1731ZM160.343 102.738L157.61 113.461C154.397 115.088 149.019 116.137 144.717 116.137C127.514 116.162 119.452 106.502 119.452 93.049C119.452 78.5342 129.629 69.9347 144.188 69.9347C150.068 69.9093 157.605 71.5166 163.019 74.7341C161.934 91.0146 149.709 98.0187 134.244 100.447C136.391 104.203 140.317 105.933 145.784 105.933C150.117 105.933 156.014 104.876 160.343 102.738ZM132.349 92.7846C141.495 91.4134 148.607 87.2413 150.65 81.214C148.473 80.147 146.299 79.5963 143.664 79.5963C137.166 79.5963 132.344 83.8758 132.349 91.4133V92.7846ZM197.968 71.5165L196.346 79.0272C195.808 81.9937 194.468 82.7958 190.964 82.7958H189.897C184.502 82.7958 181.271 86.5825 181.271 94.0976L181.298 115.088H168.934L168.902 72.0453L181.261 69.9124L181.27 79.5785C182.893 74.2189 186.639 71.5165 192.594 71.5165H197.968ZM224.847 79.0272C224.188 82.2805 222.705 82.7958 219.487 82.7958H213.03V94.0976C213.03 102.737 215.19 105.933 223.789 105.919C224.291 105.919 225.945 105.919 227.576 105.391L225.411 115.057C224.327 115.631 222.18 116.137 219.487 116.137C208.199 116.137 200.657 110.199 200.657 97.3511V55.9218L213.03 53.7617V71.5165H226.473L224.847 79.0272Z" fill="#26064F"/>
<path d="M93.4375 49.1383C98.6851 54.2649 114.042 58.7507 134.827 58.7507L135.974 58.7462C155.127 58.6116 172.469 54.4216 178.147 48.5781C179.37 47.3142 179.971 46.0373 179.944 44.7781C179.836 38.7642 164.622 32.3604 141.643 31.5089C141.374 31.5044 141.091 31.4962 140.814 31.4835C139.447 31.4454 138.049 31.4199 136.615 31.4199L135.396 31.429C134.616 31.4335 133.827 31.4544 133.052 31.4798C114.885 31.9498 98.7343 36.0328 93.2761 41.6299C93.191 41.7188 93.1238 41.8141 93.0432 41.9119C92.8416 42.1266 92.6399 42.3463 92.4741 42.5661C91.7885 43.5112 91.4479 44.4616 91.4613 45.3983C91.4613 45.4491 91.4931 45.4872 91.4931 45.5507C91.5109 45.8682 91.5642 46.196 91.6678 46.5187C91.7085 46.6457 91.7708 46.76 91.8202 46.8858C91.932 47.1462 92.0577 47.4105 92.2235 47.6696C92.2946 47.7966 92.3803 47.916 92.4745 48.0329C92.6716 48.311 92.9048 48.584 93.1602 48.8533C93.2504 48.955 93.3389 49.0443 93.4375 49.1383Z" fill="#26064F"/>
<path d="M89.7206 43.0474C89.7383 43.0092 89.7612 42.9711 89.779 42.933C89.9224 42.5875 90.1107 42.2345 90.3168 41.8941C90.4019 41.7505 90.4691 41.5942 90.5588 41.4595C90.8859 40.9984 91.2533 40.5144 91.688 40.0703C91.7058 40.0576 91.7109 39.9943 91.7198 39.9816C97.6978 33.8691 114.193 29.5267 133.203 29.0965C133.92 29.0838 141.408 29.32 141.731 29.3289C142.107 29.3379 142.466 29.3416 142.842 29.3543C150.46 23.6676 155.381 17.7389 155.995 13.437C156.192 12.0567 155.936 10.878 155.224 9.93255C153.835 8.10855 150.787 7.14062 146.414 7.14062C137.949 7.14062 126.064 10.7212 114.641 16.7172C114.323 16.8785 114.037 17.0538 113.714 17.224C112.916 17.6496 112.136 18.0801 111.379 18.5056C110.908 18.7838 110.465 19.0608 110.003 19.3352C109.439 19.6757 108.861 20.016 108.318 20.3615C107.848 20.6575 107.409 20.9484 106.952 21.2495C106.454 21.581 105.97 21.9037 105.486 22.2314C105.042 22.5363 104.63 22.8451 104.209 23.155C103.765 23.4688 103.313 23.7914 102.9 24.1141C102.497 24.4228 102.094 24.7365 101.708 25.0464C101.314 25.364 100.924 25.6778 100.543 25.9915C100.171 26.3053 99.8173 26.619 99.4678 26.9277C99.1093 27.2415 98.7597 27.5501 98.4236 27.8689C98.0919 28.1776 97.7738 28.4876 97.4556 28.7962C97.133 29.11 96.8373 29.4148 96.537 29.7235C96.2501 30.0284 95.9544 30.3334 95.681 30.6332C95.3988 30.9469 95.1343 31.2517 94.8834 31.5566C94.6324 31.8525 94.3816 32.1486 94.1396 32.4344C93.8931 32.7482 93.6645 33.0568 93.445 33.3617C93.2434 33.6399 93.0237 33.9219 92.8355 34.2039C92.607 34.5176 92.4142 34.8352 92.2215 35.149C92.0602 35.3992 91.8899 35.6507 91.751 35.9022C91.5269 36.2871 91.3477 36.6592 91.1594 37.0365C91.0743 37.2016 90.9668 37.3821 90.8906 37.5472C90.6442 38.0808 90.438 38.5914 90.2722 39.1068C90.2138 39.2681 90.1782 39.4333 90.1378 39.5908C90.0349 39.9363 89.9406 40.2767 89.8778 40.6032C89.8283 40.7823 89.8246 40.9613 89.7877 41.1366C89.7521 41.4326 89.7026 41.7235 89.6937 42.0016C89.6797 42.1808 89.6937 42.3473 89.6937 42.5213C89.6982 42.6953 89.7079 42.8721 89.7206 43.0474Z" fill="#26064F"/>
<path d="M90.159 34.3321C90.4592 33.8342 90.7908 33.3234 91.1539 32.8173C91.253 32.6789 91.351 32.5393 91.4496 32.3958C91.8798 31.8127 92.3279 31.2219 92.8298 30.6255C92.8565 30.5874 92.8883 30.5493 92.9201 30.5112C93.4668 29.8519 94.0583 29.1938 94.6856 28.5351C94.7568 28.4589 94.8335 28.3827 94.9007 28.3116C95.4384 27.7514 96.003 27.1963 96.5901 26.64C96.747 26.4838 96.9172 26.3261 97.0831 26.1736C97.6254 25.6719 98.1855 25.174 98.7636 24.6815C98.9384 24.5342 99.1086 24.3855 99.2789 24.2419C100.798 22.9742 102.429 21.7191 104.19 20.4958C104.356 20.3815 104.527 20.2671 104.688 20.1502C105.405 19.6573 106.135 19.1733 106.884 18.6938C107.135 18.5324 107.386 18.38 107.641 18.2187C108.363 17.7576 109.12 17.313 109.877 16.8609C110.106 16.7313 110.33 16.5878 110.567 16.462C111.553 15.8878 112.575 15.3239 113.624 14.7726C113.628 14.7681 113.638 14.7635 113.65 14.7598C115.537 13.769 117.437 12.8732 119.337 12.0173C120.229 9.41818 120.247 7.07904 119.323 5.23269C118.584 3.71356 117.239 2.62465 115.442 2.07792C114.833 1.88992 114.17 1.7959 113.453 1.7959C107.013 1.7959 98.158 9.09595 92.3995 19.1609C89.9079 23.6242 88.223 28.1637 87.506 32.282C87.0892 34.7423 87.2057 37.2831 87.7928 39.7029C87.8779 39.3574 87.999 39.0043 88.1155 38.6499C88.1384 38.5737 88.1561 38.4975 88.1828 38.4175C88.3889 37.8128 88.6354 37.1892 88.9267 36.5534C88.9312 36.5488 88.9356 36.5406 88.9406 36.5406C89.2229 35.9487 89.5546 35.3441 89.9176 34.7347C89.9939 34.6051 90.0783 34.4668 90.159 34.3321Z" fill="#26064F"/>
</svg>
