<svg width="496" height="100" viewBox="0 0 496 100" fill="none" xmlns="http://www.w3.org/2000/svg">
<path d="M35.2492 80.5355C45.702 74.9829 47.886 54.6486 38.7491 47.9505C35.2872 45.4127 35.2767 45.3749 37.6262 43.9412C42.6478 40.8768 43.6312 31.2918 39.6176 24.5299C36.753 19.7038 31.8454 18.5 15.0352 18.5H0V50.5V82.5L15.7825 82.4963C29.4246 82.4931 32.0647 82.2271 35.2492 80.5355ZM13.7739 50.5V27.5H19.8573C23.2032 27.5 26.5606 28.04 27.3182 28.7C28.0757 29.36 28.6955 31.8246 28.6955 34.1769C28.6955 37.6322 28.1458 38.7677 25.8343 40.0872C24.0415 41.1106 21.8986 41.4855 20.0952 41.0912C17.3096 40.4821 17.2173 40.6227 17.2173 45.4809V50.5H21.7266C29.1982 50.5 31.6823 54.2254 30.749 64.0307C30.0356 71.5255 27.7753 73.5 19.909 73.5H13.7739V50.5Z" fill="#26064F"/>
<path d="M89.8755 76.295C90.2315 73.9823 90.269 71.7323 89.9589 71.295C89.6486 70.8578 84.5184 70.5 78.5583 70.5H67.7217V60.5V50.5H75.1052C82.9916 50.5 82.619 50.7539 84.2803 44.25L84.9828 41.5H76.3523H67.7217V36V30.5H77.4009C87.929 30.5 87.3205 30.8553 88.9619 23.75L89.7127 20.5H72.4042H55.0957V50.5V80.5H72.1619H89.2281L89.8755 76.295Z" fill="#26064F"/>
<path d="M129.274 79.0096C134.253 76.1675 136.582 71.6254 136.587 64.7497L136.591 58.4997H130.278H123.965V63.0654C123.965 69.098 122.385 71.4997 118.415 71.4997C112.762 71.4997 112.487 70.5253 112.487 50.4997C112.487 31.0223 112.861 29.4842 117.595 29.515C121.565 29.5408 122.924 30.9925 123.757 36.0964L124.557 40.9997L130.574 41.3019L136.591 41.6042V36.2863C136.591 25.4414 128.322 18.852 115.998 19.8758C109.423 20.422 105.589 22.2943 101.653 26.8813C99.4969 29.3945 99.2538 31.2986 98.9154 48.3195C98.4374 72.3643 100.012 76.9198 109.913 80.136C115.184 81.8481 125.336 81.2575 129.274 79.0096Z" fill="#26064F"/>
<path d="M161.843 65.5V50.5H168.156H174.469V65.5V80.5H180.782H187.095V50.5V20.5H180.782H174.469V31V41.5H168.156H161.843V31V20.5H155.53H149.217L149.026 38.25C148.921 48.0125 148.732 58.025 148.606 60.5C148.481 62.975 148.634 68.4875 148.946 72.75L149.513 80.5H155.678H161.843V65.5Z" fill="#26064F"/>
<path d="M234.748 76.4041C235.202 74.0623 235.06 71.8881 234.416 71.3271C233.792 70.7831 228.879 70.4917 223.39 70.673L213.489 71L213.492 60.75L213.495 50.5H220.314C224.064 50.5 227.354 50.1625 227.624 49.75C227.894 49.3375 228.464 47.3125 228.891 45.25L229.668 41.5H221.773C217.43 41.5 213.662 41.3127 213.399 41.0838C213.136 40.8549 213.1 38.3799 213.318 35.5838L213.716 30.5H222.72C227.672 30.5 231.953 30.1625 232.233 29.75C232.514 29.3375 233.106 27.0875 233.55 24.75L234.357 20.5H217.039H199.721V50.5V80.5H216.837H233.954L234.748 76.4041Z" fill="#26064F"/>
<path d="M259.407 66V51.5H262.088C264.572 51.5 265.082 52.5441 269.025 65.7107C271.366 73.5266 273.459 80.0756 273.675 80.264C273.891 80.4524 276.902 80.4701 280.365 80.3033L286.662 80L281.558 65.1462L276.454 50.2923L278.841 48.8355C282.664 46.5023 284.659 42.0318 284.657 35.7997C284.655 28.1294 281.93 23.3828 276.624 21.8064C274.414 21.15 266.538 20.5875 259.12 20.5564L245.633 20.5V50.5V80.5H252.52H259.407V66ZM259.407 36V29.5L263.711 29.5153C269.416 29.5356 270.837 30.4699 271.629 34.7183C272.495 39.3691 269.194 42.5 263.424 42.5H259.407V36Z" fill="#26064F"/>
<path d="M326.948 78.7688C328.548 77.7278 330.922 75.6334 332.224 74.1145C334.437 71.5319 334.591 70.0017 334.591 50.4996C334.591 27.5665 334.467 27.1215 326.688 22.0614C322.16 19.1162 309.143 19.1162 304.615 22.0614C296.984 27.0253 296.746 27.8028 296.358 49.0417C296.039 66.4405 296.231 68.8938 298.216 72.8023C301.33 78.9367 307.893 81.8111 317.262 81.144C321.387 80.8503 325.176 79.9211 326.948 78.7688ZM310.609 69.9178C309.231 66.7899 309.836 31.9664 311.29 30.6996C313.065 29.1527 318.238 29.1527 320.013 30.6996C321.955 32.3912 321.955 68.6081 320.013 70.2996C317.975 72.0754 311.443 71.8102 310.609 69.9178Z" fill="#26064F"/>
<path d="M375.676 58.75C378.703 46.7875 382.133 33.2875 383.299 28.75L385.419 20.5H378.894H372.368L368.598 38.25C366.524 48.0125 364.524 56.9 364.152 58C363.772 59.1233 361.643 51.4518 359.295 40.5L355.115 21L348.583 20.7001C344.99 20.5351 342.051 20.6079 342.051 20.8617C342.051 21.3505 355.485 74.4159 356.579 78.25C357.15 80.2513 357.937 80.5 363.697 80.5H370.173L375.676 58.75Z" fill="#26064F"/>
<path d="M407.477 69.9503C407.477 62.084 407.961 58.5867 409.379 56.2003L411.28 53L416.299 66.75L421.319 80.5H427.598C431.051 80.5 433.886 80.1625 433.897 79.75C433.908 79.3375 430.723 70.9569 426.819 61.1264L419.721 43.2529L425.917 32.6264C429.325 26.7819 432.295 21.6625 432.517 21.25C432.739 20.8375 429.907 20.5063 426.225 20.514L419.529 20.5279L413.79 30.54L408.051 40.5521L407.724 30.526L407.397 20.5H400.55H393.703V50.5V80.5H400.59H407.477V69.9503Z" fill="#26064F"/>
<path d="M454.006 74L454.805 67.5H461.458H468.111L469.072 73.75L470.033 80L476.73 80.3024C482.727 80.5733 483.362 80.4167 482.81 78.8024C482.471 77.8111 479.562 65.075 476.346 50.5C473.13 35.925 470.23 23.2125 469.902 22.25C469.408 20.8039 467.937 20.5 461.428 20.5H453.552L452.361 25.75C445.974 53.8988 440.764 77.839 440.764 79.0358C440.764 80.1413 442.288 80.5 446.985 80.5H453.207L454.006 74ZM457.166 56.1857C457.485 55.4628 458.387 51.3003 459.171 46.9357C459.955 42.5711 460.947 38.414 461.377 37.6978C461.806 36.9815 462.801 40.1315 463.59 44.6978C464.378 49.264 465.302 54.0125 465.643 55.25C466.213 57.3131 465.863 57.5 461.426 57.5C457.901 57.5 456.745 57.1433 457.166 56.1857Z" fill="#26064F"/>
<path d="M483.436 29.7265C486.96 29.7265 489.816 27.2381 489.816 24.1684C489.816 21.0988 486.96 18.6104 483.436 18.6104C479.913 18.6104 477.057 21.0988 477.057 24.1684C477.057 27.2381 479.913 29.7265 483.436 29.7265Z" stroke="#26064F" stroke-linecap="round" stroke-linejoin="round"/>
<path d="M480.385 28V20.2424H483.006C483.612 20.2424 484.109 20.3459 484.498 20.553C484.887 20.7576 485.175 21.0391 485.362 21.3977C485.549 21.7563 485.642 22.1641 485.642 22.6212C485.642 23.0783 485.549 23.4836 485.362 23.8371C485.175 24.1906 484.889 24.4684 484.502 24.6704C484.116 24.8699 483.622 24.9697 483.021 24.9697H480.9V24.1212H482.991C483.405 24.1212 483.738 24.0606 483.991 23.9394C484.246 23.8182 484.43 23.6465 484.544 23.4242C484.66 23.1995 484.718 22.9318 484.718 22.6212C484.718 22.3106 484.66 22.0391 484.544 21.8068C484.428 21.5745 484.242 21.3952 483.987 21.2689C483.732 21.1401 483.395 21.0757 482.976 21.0757H481.324V28H480.385ZM484.036 24.5151L485.945 28H484.854L482.976 24.5151H484.036Z" fill="#26064F"/>
</svg>
