<svg width="255" height="118" viewBox="0 0 255 118" fill="none" xmlns="http://www.w3.org/2000/svg">
<g clip-path="url(#clip0_5251_4170)">
<path d="M75.8222 27.6828V27.6595C75.8154 27.5575 75.7884 27.4578 75.7429 27.3663C75.6974 27.2748 75.6342 27.1931 75.557 27.126C75.4799 27.059 75.3902 27.0078 75.2932 26.9755C75.1962 26.9432 75.0938 26.9304 74.9919 26.9377L67.7435 27.7138L64.0106 16.4609C63.963 16.317 63.8731 16.1908 63.7527 16.0988C63.6322 16.0068 63.4868 15.9533 63.3354 15.9454C63.184 15.9374 63.0338 15.9753 62.9043 16.0542C62.7749 16.133 62.6722 16.2491 62.6098 16.3872L57.1502 28.6063L46.3087 30.4805C46.1575 30.5072 46.0182 30.5795 45.9093 30.6877C45.8004 30.7959 45.7272 30.9348 45.6995 31.0858C45.6722 31.2361 45.6918 31.3912 45.7557 31.5301C45.8195 31.6689 45.9245 31.7847 46.0564 31.8618L55.2799 37.3331L52.1757 51.1702C52.1438 51.3319 52.1642 51.4995 52.234 51.6488C52.3038 51.7981 52.4193 51.9213 52.5637 52.0006C52.7094 52.0767 52.8762 52.1028 53.0382 52.0747C53.2001 52.0467 53.3484 51.9661 53.4601 51.8454L62.862 41.6635L70.8205 44.7483C70.9468 44.7965 71.0837 44.8097 71.2169 44.7867C71.35 44.7637 71.4745 44.7053 71.5773 44.6176C71.6801 44.5299 71.7574 44.4161 71.8011 44.2882C71.8448 44.1603 71.8532 44.0231 71.8255 43.8908L69.7612 34.4112L75.6205 28.226C75.6894 28.1538 75.7431 28.0686 75.7784 27.9752C75.8137 27.8819 75.83 27.7825 75.8261 27.6828" fill="#26064F"/>
<path fill-rule="evenodd" clip-rule="evenodd" d="M125.834 55.3915C124.461 57.1066 126.428 58.1543 127.724 59.0467C129.852 60.5511 132.159 61.7843 134.592 62.7175C140.025 64.712 146.939 64.8827 152.5 63.5401C157.715 62.2829 162.759 59.8771 166.469 55.9192C169.868 52.2834 171.288 46.3 170.656 41.4573C169.996 36.3897 166.775 33.2272 162.682 30.4877C158.375 27.6163 154.021 24.807 149.725 21.9045C146.695 19.8596 142.19 16.538 145.62 12.6306C148.682 9.13829 153.955 8.64161 158.301 8.28075C160.909 8.0719 163.533 8.30809 166.061 8.9792C167.053 9.24648 168.008 9.63759 168.902 10.1433C169.593 10.5313 170.795 11.6062 171.653 11.2608C172.976 10.737 174.07 7.99748 174.734 6.83339C175.588 5.34336 174.28 4.32284 173.131 3.57394C164.358 -2.13011 150.238 -0.612907 141.918 5.29291C138.511 7.71422 136.012 11.2686 135.489 15.4981C134.934 19.9488 137.848 23.9843 141.189 26.5841C145.573 29.991 150.637 32.49 155.158 35.6951C158.514 38.0698 161.82 41.8376 160.493 46.3194C157.882 55.147 145.81 56.4508 138.352 54.1382C136.867 53.6284 135.451 52.9377 134.134 52.0816C133.296 51.5772 131.744 50.1414 130.692 50.1414C129.753 50.1414 128.539 52.1941 128.003 52.8344L125.846 55.3837" fill="#26064F"/>
<path d="M254.16 25.2723C253.636 24.7213 252.111 25.0123 250.808 25.1093C249.504 25.2063 243.703 25.2219 242.907 25.0783C242.112 24.9347 241.867 24.6204 240.11 24.6553C238.352 24.6903 237.836 26.8671 237.781 28.33C237.727 29.7929 237.747 33.0445 237.747 33.0445C237.397 32.5603 236.951 32.1542 236.436 31.8523C235.92 31.5503 235.348 31.359 234.755 31.2906C232.741 31.0617 231.146 33.1416 230.432 33.9254C229.718 34.7092 226.855 37.9221 225.485 39.6139C224.115 41.3057 221.325 44.7243 220.642 45.2753C220.259 45.5977 219.802 45.8203 219.311 45.9233C219.311 45.9233 221.779 36.3971 222.171 34.8993C222.563 33.4015 222.427 32.7535 222.105 31.9697C221.783 31.1859 220.708 30.6698 220.285 30.5417C219.862 30.4137 219.241 29.6609 218.954 29.044C218.198 27.6967 217.02 26.6349 215.602 26.0212C213.662 25.1753 211.333 24.6864 207.632 26.0833C203.93 27.4802 201.062 30.2662 198.105 34.7364C196.224 37.6172 195.022 40.8878 194.59 44.3013C194.584 44.4707 194.533 44.6355 194.441 44.7782C194.35 44.9209 194.221 45.0363 194.07 45.1123C193.876 45.2403 191.699 46.6101 190.302 47.3861C188.905 48.1622 182.949 51.2276 182.328 51.4566C181.707 51.6855 181.94 50.9056 182.006 50.4477C182.072 49.9898 185.161 36.6571 185.161 36.6571C185.161 36.6571 189.429 36.0363 190.364 35.9431C190.712 35.9284 191.048 35.8127 191.331 35.6101C191.615 35.4075 191.833 35.1268 191.959 34.8023C192.056 34.3794 193.096 30.8056 193.29 29.9558C193.484 29.106 192.316 28.59 191.567 28.6559C190.818 28.7219 186.643 29.3078 186.643 29.3078L188.657 20.7207C188.657 20.7207 184.889 21.1087 183.387 21.3377C181.886 21.5666 181.405 22.1836 181.18 23.1886C180.954 24.1936 179.36 30.1188 179.36 30.1188C179.36 30.1188 175.712 30.6077 174.187 30.8328C172.662 31.0578 172.2 31.5817 172.041 32.3267C171.882 33.0717 171.618 34.2668 171.292 36.1682C170.967 38.0695 171.941 38.345 172.98 38.2519C174.02 38.1588 177.354 37.6388 177.354 37.6388C177.354 37.6388 174.067 51.9959 173.745 53.7692C173.423 55.5425 172.969 57.4478 175.111 58.9106C177.253 60.3735 179.402 59.7565 181.517 59.3336C183.632 58.9106 187.469 57.2848 189.712 55.981C191.955 54.6772 195.471 52.4887 195.471 52.4887C196.352 53.9806 197.622 55.2051 199.145 56.0315C201.811 57.5603 204.741 56.9744 207.829 55.6085C210.755 54.3164 213.293 51.1229 213.293 51.1229C213.25 51.5444 213.239 51.9685 213.258 52.3917C213.303 52.9186 213.465 53.4287 213.734 53.8841C214.003 54.3395 214.371 54.7286 214.81 55.0226C215.947 55.7986 217.379 55.6745 218.648 55.3136C219.917 54.9527 221.833 53.1988 223.525 51.5109C225.217 49.823 232.667 40.809 233.121 40.2929C233.575 39.7769 234.223 39.0862 234.91 39.0862C235.597 39.0862 235.818 39.7381 235.721 40.324C235.624 40.9099 233.393 50.1761 233.055 51.9339C232.718 53.6916 233.967 53.9477 234.58 53.9477C235.193 53.9477 238.422 53.8197 239.299 53.6567C239.677 53.604 240.031 53.4396 240.315 53.1845C240.599 52.9294 240.8 52.5952 240.893 52.2249C241.153 51.4488 242.387 45.5896 243.074 42.3379C243.761 39.0862 244.665 32.7768 244.665 32.7768C244.665 32.7768 245.348 32.8428 246.066 32.8738C246.784 32.9049 252.014 32.7458 252.926 32.6138C253.268 32.5944 253.591 32.4522 253.837 32.2134C254.082 31.9745 254.233 31.6551 254.261 31.3139C254.358 30.697 254.583 28.8111 254.684 27.4763C254.785 26.1415 254.649 25.8155 254.133 25.2645M214.104 36.9481C213.941 38.0191 212.637 43.3235 210.821 45.5702C209.005 47.8169 206.107 50.3158 203.6 49.7958C201.093 49.2759 201.225 44.8833 201.974 42.3806C202.723 39.8778 204.869 36.1371 206.398 34.4143C207.926 32.6914 209.583 31.7485 211.504 31.9076C214.263 32.1404 214.267 35.8772 214.104 36.952" fill="#26064F"/>
<path fill-rule="evenodd" clip-rule="evenodd" d="M0 117.054C0 116.243 0.225058 111.559 0.225058 110.977C0.225058 110.395 0.422953 109.84 2.08372 109.285C3.74449 108.731 22.3117 102.875 30.2664 100.403C38.221 97.9317 49.4894 94.583 60.6452 91.4283C71.8011 88.2736 86.2087 84.4671 98.6295 81.5374C111.05 78.6078 131.938 74.3511 143.711 72.3372C155.484 70.3234 175.619 67.2618 183.422 66.1288C191.225 64.9957 189.7 64.8638 213.025 62.943C236.349 61.0223 245.705 61.5422 246.551 61.6082C247.396 61.6742 248.491 61.8682 248.246 62.978C248.002 64.0877 247.039 67.3355 246.876 67.9176C246.713 68.4996 246.519 68.9265 245.611 68.9265C244.703 68.9265 231.642 68.9265 217.44 70.1953C203.239 71.4642 192.238 72.4731 176.333 74.5839C160.427 76.6948 146.637 79.3024 137.471 81.0252C128.306 82.7481 110.86 86.1977 100.356 88.7354C89.8523 91.2731 69.2634 96.7676 61.2312 99.0764C53.1989 101.385 33.3357 107.136 24.9775 109.836C16.6193 112.537 4.52443 116.961 3.05768 117.543C1.59092 118.125 1.00888 118.063 0.554883 117.838C0.412827 117.755 0.28993 117.643 0.194289 117.509C0.0986467 117.375 0.0324301 117.223 0 117.062" fill="#26064F"/>
<path d="M125.147 62.6133C124.177 61.6354 123.13 60.7313 122.113 59.8039C120.949 58.7485 120.72 58.5661 119.463 59.575C117.949 60.7856 109.331 67.7236 107.783 64.1072C112.827 61.5733 119.005 58.1199 122.066 53.1919C123.704 50.5494 123.118 46.4479 120.953 44.2672C118.45 41.7334 114.096 41.6519 110.973 42.9091C104.617 45.4623 101.272 52.4701 100.108 58.8183C99.8826 60.0523 99.8826 61.9226 99.8011 62.0002C98.9242 62.7103 97.9308 63.2613 96.9918 63.886C95.1912 65.062 93.3214 66.1284 91.3925 67.0795C91.9008 63.7075 92.5178 60.3084 92.7817 56.9053C92.9252 55.0777 92.8127 53.0522 91.7029 51.5156C90.2284 49.4707 87.1669 48.9119 84.8852 49.7462C81.393 51.0344 79.8409 54.8876 78.1413 57.8948C76.4417 60.902 74.4046 65.0656 72.7089 68.1155C73.1939 64.9182 74.1252 59.0279 73.8147 56.5406C73.2909 52.2723 67.9128 52.4313 65.2781 55.7645C62.0592 59.852 59.0532 64.1027 56.2719 68.4997C55.395 69.8694 50.2419 79.1395 48.7557 76.2603C47.8594 74.5103 48.7557 72.0502 49.2408 70.304C49.916 67.9758 50.7929 65.6787 51.3633 63.3195C51.8445 61.3405 51.6699 59.3654 49.4697 58.6631C47.2696 57.9608 45.345 59.2296 44.2701 61.1349C40.2307 68.1815 36.6919 76.0546 30.5765 81.6849C26.9795 84.9832 21.0504 88.8713 16.2194 85.7127C12.4749 83.272 10.8918 78.0879 10.787 73.8467C10.6135 64.2357 13.9351 54.8885 20.1346 47.5422C21.9539 45.4211 24.0037 43.5093 26.2461 41.842C27.7594 40.709 29.6065 39.3508 31.5427 39.1258C34.3986 38.7921 37.4214 41.3647 39.8039 38.5903C41.4918 36.6191 41.744 33.1579 39.6875 31.3768C35.9546 28.1601 29.5987 29.848 25.7184 31.7649C18.2061 35.4511 12.2305 42.327 7.91169 49.3543C2.21928 58.5933 0.659403 70.8628 3.17384 81.3086C4.1469 85.5746 6.49456 89.4029 9.85572 92.2044C13.348 95.1845 17.8259 96.2128 22.23 95.4911C30.3515 94.1601 36.2573 88.1185 40.9913 81.7936C41.3793 81.2853 41.744 80.7731 42.0894 80.2415C42.427 82.7365 43.6415 85.4915 45.9192 86.7759C50.4553 89.3369 54.2541 84.9638 56.559 81.5685C59.8146 76.7725 62.8374 71.8096 65.9222 66.9049C65.3751 70.1837 64.7116 73.8894 64.8202 77.2265C64.9987 82.9965 69.7676 82.6861 72.9688 79.5547C75.7083 76.8889 77.5243 73.1793 79.4451 69.916C81.1136 67.0795 83.0693 63.401 84.7766 60.6033C84.6757 62.2601 83.8725 65.2014 83.5892 66.6294C83.1663 68.7519 82.6774 70.8977 82.4251 73.0435C82.2971 74.227 82.0876 75.946 83.1003 76.8346C84.2644 77.8551 86.3598 77.3895 87.6829 77.0131C91.1364 76.0313 94.6442 74.1028 97.6747 72.1782C98.6526 71.5574 99.5606 70.8123 100.476 70.0945C101.33 69.4232 101.38 69.3844 101.962 69.9082C104.364 72.0734 107.864 72.4188 110.957 72.054C114.76 71.6078 118.167 69.4504 121.236 67.2774C122.012 66.7264 126.393 63.8821 125.116 62.621M107.589 54.193C108.365 51.6087 110.639 48.8925 113.153 47.9302C114.085 47.5732 116.032 46.9485 116.743 48.0194C117.286 48.8304 116.743 49.6686 116.219 50.3011C113.696 53.3238 109.971 55.555 106.743 57.7435C106.958 56.545 107.24 55.3596 107.589 54.193Z" fill="#26064F"/>
</g>
<defs>
<clipPath id="clip0_5251_4170">
<rect width="254.722" height="118" fill="white"/>
</clipPath>
</defs>
</svg>
