<svg width="814" height="166" viewBox="0 0 814 166" fill="none" xmlns="http://www.w3.org/2000/svg">
<g clip-path="url(#clip0_5251_3887)">
<path d="M43.9811 25.5474C55.6208 24.6247 68.2174 24.17 78.4395 24.0074V39.1448C73.5917 39.3183 68.1842 39.6434 63.1089 40.1836C45.2561 42.092 41.9222 45.962 39.7608 63.1167C38.8594 70.265 38.5931 77.8463 38.5931 83.0128C38.5931 88.1617 38.8594 95.7569 39.7608 102.883C41.9222 120.029 45.2561 123.903 63.1089 125.811C68.1842 126.356 73.5917 126.681 78.4395 126.854V142C68.2174 141.837 55.6208 141.38 43.9811 140.453C11.9546 137.893 5.97943 132.687 2.09331 109.691C0.473946 100.11 0 89.9214 0 83.0008C0 76.0782 0.473946 65.8911 2.09331 56.3099C5.97943 33.3117 11.9546 28.1127 43.9811 25.5474Z" fill="#26064F"/>
<path d="M174.416 83.0008C174.416 89.9214 173.939 100.11 172.322 109.691C168.439 132.687 162.463 137.893 130.435 140.453C118.799 141.378 106.203 141.837 95.9805 142V126.854C100.824 126.681 106.234 126.356 111.304 125.811C129.163 123.903 132.493 120.029 134.651 102.883C135.553 95.7569 135.823 88.1617 135.823 83.0128C135.823 77.8463 135.553 70.265 134.651 63.1167C132.493 45.962 129.163 42.092 111.304 40.1836C106.234 39.6434 100.824 39.3183 95.9805 39.1448V24.0074C106.203 24.17 118.799 24.623 130.435 25.5474C162.463 28.1127 168.439 33.3117 172.322 56.3099C173.939 65.8911 174.416 76.0782 174.416 83.0008Z" fill="#26064F"/>
<path d="M791.992 64.1866C775.88 64.1866 767.308 74.9249 767.308 88.4351C767.308 105.41 779.085 112.685 793.028 112.685C799.263 112.685 806.109 111.386 811.824 109.306L810.697 99.1738C805.153 100.473 800.129 101.339 795.629 101.339C788.528 101.339 783.504 99.0022 781.772 93.3714H813.471C816.67 79.4289 810.093 64.1866 791.992 64.1866ZM799.873 83.0645H781.942C783.414 78.2154 786.882 74.5774 791.901 74.5774C796.58 74.5774 799.873 77.1765 799.873 83.0645ZM721.339 111.386H762.565V100.994H739.523V100.646L761.698 75.8781V65.4838H722.204V75.8781H743.597V76.2233L721.339 101.079V111.386ZM712.967 54.2272C712.967 49.551 710.976 47.1258 704.57 47.1258C698.158 47.1258 696.166 49.551 696.166 54.2272C696.166 58.8173 698.158 61.2419 704.57 61.2419C710.976 61.2419 712.967 58.8173 712.967 54.2272ZM674.826 111.386L692.232 65.4838H677.338L666.423 97.0106H666.077L655.164 65.4838H639.923L657.416 111.386H674.826ZM637.098 93.3714C640.3 79.4289 633.72 64.1866 615.618 64.1866C599.509 64.1866 590.936 74.9249 590.936 88.4351C590.936 105.41 602.716 112.685 616.659 112.685C622.895 112.685 629.737 111.386 635.452 109.306L634.325 99.1738C628.784 100.473 623.761 101.339 619.256 101.339C612.154 101.339 607.131 99.0022 605.398 93.3714H637.098ZM623.501 83.0645H605.574C607.045 78.2154 610.509 74.5774 615.533 74.5774C620.208 74.5774 623.501 77.1765 623.501 83.0645ZM567.789 111.386H581.99V49.2035H567.789V111.386ZM558.437 93.3714C561.639 79.4289 555.058 64.1866 536.957 64.1866C520.847 64.1866 512.273 74.9249 512.273 88.4351C512.273 105.41 524.055 112.685 537.998 112.685C544.234 112.685 551.074 111.386 556.789 109.306L555.664 99.1738C550.123 100.473 545.099 101.339 540.594 101.339C533.493 101.339 528.469 99.0022 526.737 93.3714H558.437ZM544.838 83.0645H526.912C528.382 78.2154 531.846 74.5774 536.871 74.5774C541.545 74.5774 544.838 77.1765 544.838 83.0645ZM496.964 96.6625V75.8781H507.355V65.4838H496.964V54.4007H484.404L482.763 65.4838L475.831 66.3493V75.8781H482.763V98.1367C482.763 113.464 496.1 114.503 508.22 110.607L507.095 100.561C499.823 101.772 496.964 100.733 496.964 96.6625ZM437.94 111.386H451.278V80.2068C451.278 68.3415 441.493 64.1866 430.669 64.1866C423.567 64.1866 416.034 65.9162 410.664 68.7737L411.876 78.8212C417.937 76.484 424.083 75.7036 428.417 75.7036C433.696 75.7036 437.075 77.4367 437.075 81.6787V83.4124C421.487 80.0346 407.63 84.797 407.63 98.4812C407.63 106.969 414.298 112.685 422.611 112.685C428.417 112.685 433.181 110.953 437.075 107.402L437.94 111.386ZM437.075 98.3084C435.171 100.561 431.534 102.379 428.502 102.379C425.037 102.379 422.266 100.733 422.266 97.5285C422.266 92.8504 427.116 90.2536 437.075 92.5916V98.3084ZM434.392 61.5894L446.168 47.6444H430.233L422.958 61.5894H434.392ZM388.167 86.703V86.3555L404.533 65.4838H388.427L372.146 87.3089L389.206 111.386H406.268L388.167 86.703ZM356.817 111.386H371.02V49.2035H356.817V111.386ZM322.157 78.3027C322.157 75.963 323.543 74.6646 328.824 74.6646C332.463 74.6646 338.005 75.3578 345.021 77.3493L346.233 67.6488C340.777 65.3984 334.194 64.1866 328.132 64.1866C317.481 64.1866 308.041 67.8235 308.041 78.7358C308.041 97.6157 334.282 92.2452 334.282 98.6547C334.282 101.166 332.375 102.205 327.44 102.205C322.417 102.205 316.787 101.599 309.6 99.52L308.474 109.221C314.017 111.558 321.378 112.685 328.219 112.685C339.044 112.685 348.399 108.441 348.399 98.221C348.399 79.2542 322.157 84.7108 322.157 78.3027ZM301.03 93.3714C304.232 79.4289 297.65 64.1866 279.551 64.1866C263.44 64.1866 254.869 74.9249 254.869 88.4351C254.869 105.41 266.646 112.685 280.588 112.685C286.825 112.685 293.668 111.386 299.383 109.306L298.256 99.1738C292.715 100.473 287.693 101.339 283.188 101.339C276.087 101.339 271.062 99.0022 269.331 93.3714H301.03ZM287.432 83.0645H269.504C270.978 78.2154 274.44 74.5774 279.465 74.5774C284.142 74.5774 287.432 77.1765 287.432 83.0645ZM218.595 82.7193C218.595 71.8921 224.829 64.9635 236.002 64.9635C241.544 64.9635 245.702 66.1771 249.946 66.9575L251.158 55.6991C245.875 53.7948 240.073 52.7542 234.098 52.7542C213.832 52.7542 203.266 66.1771 203.266 82.8049C203.266 100.128 213.832 112.685 234.098 112.685C240.073 112.685 245.875 111.646 251.158 109.654L249.946 98.4812C245.702 99.261 241.632 100.386 236.002 100.386C224.917 100.386 218.595 94.3247 218.595 82.7193ZM241.199 49.9839L250.464 37.079H236.956L232.972 43.5746L228.989 37.079H215.389L224.656 49.9839H241.199ZM711.671 65.4838H697.467V111.386H711.671V65.4838Z" fill="#26064F"/>
</g>
<defs>
<clipPath id="clip0_5251_3887">
<rect width="814" height="166" fill="white"/>
</clipPath>
</defs>
</svg>
