<svg width="242" height="118" viewBox="0 0 242 118" fill="none" xmlns="http://www.w3.org/2000/svg">
<g clip-path="url(#clip0_5251_4115)">
<path d="M241.9 118H123.9V0H241.9V118ZM125.036 116.866H240.766V1.13562H125.036V116.866Z" fill="#26064F"/>
<path d="M118 118H0V0H118V118ZM1.13562 116.866H116.866V1.13562H1.13562V116.866Z" fill="#26064F"/>
<path d="M19.2554 51.9149C20.1546 52.4061 21.2153 52.7325 22.4408 52.9773L23.5023 57.8778L18.6018 78.9501L16.3964 80.502L10.272 106.801L5.28906 110.639L19.2554 51.9149ZM23.3392 51.9973C18.7659 51.9149 15.0901 48.3215 15.0901 43.8298C15.0901 39.0109 18.8483 35.5807 23.5848 35.5807C25.7902 35.5807 27.7501 36.5598 29.0572 38.1942C27.179 37.9494 25.3823 39.2565 24.8103 40.7268C24.3199 40.5637 23.9111 40.5637 23.5848 40.5637C21.7065 40.5637 20.237 42.034 20.237 43.8307C20.237 45.6273 21.7073 47.1792 23.5848 47.1792C25.4639 47.1792 26.607 45.7081 26.607 43.8307C26.607 43.7482 26.607 43.5859 26.607 43.5035C26.6894 43.4219 26.8518 43.4219 27.0974 43.4219C27.4237 43.4219 27.7501 43.5859 27.7501 44.157C27.7501 44.8106 27.5045 46.0353 27.5045 47.2608C27.5045 48.404 27.7501 49.2207 28.0773 50.0375L30.8539 61.6351C30.4451 61.9623 30.0372 62.3695 29.71 62.8615C28.1581 63.1879 26.8509 64.1678 26.2798 65.5565L23.3392 51.9973ZM40.4093 59.6744C38.0407 59.6744 36.5703 59.8376 34.9368 59.8376C32.4042 59.8376 30.5267 58.7753 29.9556 56.7338C30.9355 56.7338 31.6707 55.9171 31.6707 54.9371C31.6707 52.9773 28.6493 51.0166 28.6493 47.26C28.6493 46.0345 28.8116 44.8922 28.8116 43.993C28.8116 43.0122 27.9957 42.3595 27.0974 42.3595C26.3622 42.3595 25.7087 42.6859 25.3823 43.0122C25.2183 40.7252 27.0974 39.0109 29.4652 39.1741C29.7924 38.4389 31.0171 37.5406 32.405 37.5406C33.3858 37.5406 33.8761 37.7862 34.3649 38.1126C34.7737 37.9494 35.264 37.8678 35.9168 37.8678C37.7959 37.8678 39.8373 39.4197 39.8373 41.7875C39.8373 43.993 38.531 45.0545 37.2239 45.9529C36.5703 46.4424 36.4072 46.9328 36.4888 47.6671C36.5703 48.5663 37.0607 50.119 37.3047 50.9341C37.5494 51.6701 38.1223 51.9965 39.0198 51.9141C43.5115 51.5877 49.9647 51.0981 53.8853 50.9341C57.5594 50.7718 60.1737 50.6894 63.1967 50.5262C57.4787 51.9141 54.2116 55.7539 53.3125 61.2272L50.699 62.6142C50.1287 60.4096 47.1881 59.6744 40.4093 59.6744ZM36.7335 81.8083C37.7143 81.5643 38.2038 80.8284 38.2038 80.1756C38.2038 79.1957 37.631 78.5413 36.8975 78.0517C35.672 77.3166 34.3649 76.6638 33.2218 75.6822C31.9962 74.6216 31.2619 73.7224 30.5267 72.7424C29.9556 72.0897 29.4644 71.8433 28.7292 71.8433C27.8309 71.8433 27.1773 72.4968 27.1773 73.2328C27.1773 73.6416 27.2597 73.9672 27.4229 74.2128C26.1974 73.8048 25.463 72.4968 25.463 71.1081C25.463 69.8026 26.2798 68.821 27.0965 68.3323C27.0149 68.0867 26.9325 67.7604 26.9325 67.3516C26.9325 65.6365 28.3213 64.003 30.5259 63.8398C30.9347 62.6958 32.1586 61.7983 33.7929 61.7983C35.7528 61.7983 37.7951 63.2686 37.7951 65.8821C37.7951 67.1875 37.4687 67.5147 37.4687 68.4955C37.4687 69.0675 37.631 69.5554 38.4486 70.3738C39.4294 71.3546 39.9181 71.9265 40.4909 71.9265C41.0629 71.9265 41.3901 71.6793 42.0428 71.1889C45.7178 68.0859 48.9032 64.8197 53.3133 62.4511C53.3957 66.2892 54.8661 69.3939 58.0506 71.7608L55.2732 73.8856C54.7845 73.3952 54.2932 73.2328 53.6397 73.2328C52.579 73.2328 51.5175 73.6416 49.8831 74.7031C48.004 75.9295 44.901 79.1141 42.6964 81.2371C41.4708 82.4619 40.1637 83.1171 38.9382 83.1171C37.9582 83.1163 37.1432 82.7075 36.7335 81.8083ZM29.7916 66.7804C28.73 66.7804 27.9957 67.3524 27.8317 68.006C28.1589 67.9244 28.5669 67.8436 29.0572 67.8436C30.2836 67.8436 31.3443 68.4156 31.8339 69.3947C32.0778 67.8428 31.1803 66.7804 29.7916 66.7804ZM37.4695 106.8L31.3435 80.5012L29.138 78.9492L28.0765 73.8856C27.9125 73.2328 28.2397 72.9048 28.7292 72.9048C29.0564 72.9048 29.302 73.0696 29.6284 73.3952C30.6899 74.6216 31.3435 75.355 32.4874 76.3358C33.141 76.9086 33.9577 77.3973 34.7745 77.8053L39.8382 99.7768C39.0214 100.511 38.4503 101.655 38.4503 102.88C38.4503 103.78 38.6951 104.596 39.1039 105.331C38.9398 105.739 38.8582 106.148 38.8582 106.638C38.8582 107.127 38.9398 107.618 39.1854 108.107L37.4695 106.8ZM33.4665 41.4612C33.4665 40.0733 32.3226 39.1741 31.2619 39.1741C30.7715 39.1741 30.4451 39.3373 30.2004 39.4189C31.5891 39.9908 32.5699 41.2156 32.4874 43.5026C33.2218 43.0131 33.4665 42.1963 33.4665 41.4612ZM34.7737 65.5557C34.7737 64.4933 33.8753 63.5143 32.7314 63.5143C32.0778 63.5143 31.6707 63.7582 31.4251 63.9214C32.977 64.2486 34.2017 65.5557 34.2841 67.1884C34.5289 66.7804 34.7737 66.3716 34.7737 65.5557ZM37.3871 40.9708C37.3871 39.7452 36.3247 38.8469 35.1 38.8469C35.5896 39.2557 36.08 40.2356 36.08 41.298C36.08 41.7867 35.9975 42.4403 35.6712 43.1754C36.6519 42.8499 37.3871 42.1139 37.3871 40.9708ZM40.0005 106.638C40.0005 106.066 40.0821 105.739 40.3277 105.166C39.9181 104.677 39.5917 103.861 39.5917 102.879C39.5917 101.9 40.0821 100.837 41.1436 100.185C40.8173 97.7353 42.7771 96.101 44.9826 96.101C47.432 96.101 48.6576 97.8169 49.0655 99.532C49.3927 100.757 49.8823 101.166 50.4543 101.246C51.5166 101.411 53.2309 101.246 53.8853 101.086C54.6196 100.921 54.946 100.512 54.946 99.2872C55.0284 90.7118 53.966 85.2393 53.966 82.1363C53.966 78.7877 55.8443 77.3174 57.805 76.6647C60.4201 75.7655 65.5646 75.0303 68.0956 75.1119C69.2387 75.1119 69.8123 75.8471 70.301 76.5839C71.2002 77.971 71.9345 79.4413 72.8321 81.3196C72.1793 81.6476 71.853 82.2187 71.853 83.0347C71.853 84.1786 72.5065 85.1594 73.4057 85.6506L63.8486 85.8945C63.767 86.4665 63.767 87.0377 63.767 87.5272C63.767 88.5887 64.5014 89.3247 65.483 89.3247C66.219 89.3247 66.8717 89.0791 67.442 88.5887C67.7709 91.9373 65.7269 93.0005 63.6047 93.0813C63.6863 96.1027 63.8495 98.3065 63.8495 103.781C63.8495 107.701 61.8896 110.07 59.1122 110.07C59.2753 109.907 59.3578 109.662 59.3578 109.416C59.3578 107.866 57.6418 107.129 56.4171 107.129C53.9669 107.129 52.6597 109.09 49.9647 109.09C47.5969 109.09 46.617 107.129 44.8194 107.129C43.6763 107.129 42.8596 107.866 42.8596 108.845C42.8596 109.335 43.0236 109.743 43.35 110.153C41.798 110.151 40.0005 108.679 40.0005 106.638ZM43.1859 102.226C41.6349 102.226 40.8181 103.452 40.9813 104.432C41.3085 104.025 41.9621 103.451 43.2684 103.451C44.3307 103.451 45.1466 103.941 45.637 104.512C45.6362 103.37 44.8194 102.226 43.1859 102.226ZM43.9211 98.4688C42.614 98.4688 41.9612 99.2048 41.878 99.8576C42.2052 99.6944 42.6956 99.5312 43.4307 99.5312C44.737 99.5312 45.7985 100.266 46.1257 101.002C46.2906 99.6944 45.4722 98.4688 43.9211 98.4688ZM54.5388 62.5327C54.5388 57.1418 58.6226 52.3237 64.9118 50.8534C67.2805 50.2814 69.3211 49.9542 72.0986 49.2199C77.3263 47.8311 78.9606 45.5441 78.9606 42.5227C78.9606 41.7059 78.7958 41.0524 78.3878 40.3996C78.4694 40.8892 78.4694 41.2988 78.4694 41.7875C78.4694 45.0545 75.448 47.9952 71.0362 48.4031C68.6675 48.5663 66.1365 48.8927 63.6863 49.1391C63.1135 49.2207 62.8704 48.9751 62.8704 48.4855L62.7871 44.5658C62.7871 44.4018 62.8704 44.2386 63.1143 44.2386C63.28 44.2386 63.3599 44.3202 63.4415 44.4834C63.9336 45.2194 64.9127 45.9537 66.3006 45.9537C67.4437 45.9537 68.0972 45.3001 68.0972 44.5658C68.0972 43.7482 67.3621 43.0131 65.8934 43.0131C62.7072 43.0131 61.0754 45.2185 57.5611 45.2185C53.7238 45.2185 52.4158 43.3394 52.4158 41.5428C52.4158 40.0724 53.2325 39.1741 54.2941 38.6845C53.9677 39.0925 53.8869 39.4197 53.8869 39.9917C53.8869 41.2164 55.3564 42.1963 57.9699 42.1963C60.421 42.1963 61.972 41.6252 63.8503 41.6252C66.2997 41.6252 67.7717 42.4411 68.4244 43.3394C68.3428 41.4612 66.9541 39.8277 65.1574 39.8277C63.9327 39.8277 63.4407 40.5637 63.28 40.89C63.1967 41.1348 63.0327 41.2172 62.8704 41.2172C62.7064 41.2172 62.5423 41.1356 62.5423 40.9724L62.1344 36.8887C62.0528 36.3991 62.2984 36.1535 62.9511 36.0728L67.1165 35.7456C67.8525 37.787 68.3428 38.931 69.4035 38.931C69.9747 38.931 70.2203 38.2774 70.2203 37.7063C71.1186 37.4607 72.0161 37.4607 72.9145 37.5423C71.8538 36.8079 68.342 37.2151 67.2788 35.7464C68.9947 35.664 70.301 35.5824 71.6881 35.5824C73.0785 35.5824 74.3032 35.5824 75.4472 35.7464C76.7535 35.9088 78.0606 36.6447 78.0606 38.0335C78.0606 38.9318 77.5702 39.5845 76.6727 39.5845C76.3447 39.5845 76.0999 39.503 75.7735 39.2582C75.8551 39.9109 76.5079 40.3205 77.1614 40.3205C78.2229 40.3205 78.9598 39.667 78.9598 38.2783C78.9598 37.5431 78.7949 36.7272 78.2229 36.0736C79.9389 37.4615 81.0004 39.9109 81.0004 42.77C81.0004 47.7521 79.2045 50.3663 73.6505 52.3262C70.7914 53.3061 68.5044 53.9597 65.6462 55.0212C60.9921 56.7363 58.2138 59.9217 58.2138 64.4143C58.2138 67.5181 59.7657 71.029 63.0327 72.6634C58.0506 72.0081 54.5388 67.5156 54.5388 62.5327ZM59.4394 64.6557C59.4394 60.2464 61.8896 57.6322 66.6269 55.8355C69.2395 54.8555 71.773 54.1204 74.1409 53.386C79.9389 51.3438 81.982 48.3215 81.982 42.9315C81.982 40.6444 81.3284 38.4389 80.2661 37.1326C82.0627 38.6845 83.5322 41.0524 83.5322 45.1361C83.5322 49.3831 82.3067 53.7124 76.4263 55.9171C73.6505 56.9794 72.0977 57.5506 69.1579 58.7753C64.5855 60.7368 63.1135 63.3502 63.1135 66.8612C63.1135 70.2106 64.911 72.0889 66.2989 73.232C62.9511 72.6609 59.4394 69.2298 59.4394 64.6557ZM64.3399 66.9428C64.3399 63.6766 65.8918 61.4711 69.8931 59.5929C72.4266 58.4481 74.304 58.0409 77.2447 56.8162C83.0419 54.5292 84.513 50.2006 84.513 45.2185C84.513 43.5026 84.2674 41.4612 83.3699 39.7461C84.5946 41.2164 86.0641 43.5035 86.0641 47.9952C86.0641 52.6509 84.513 56.9794 79.3669 59.5113C76.9175 60.6552 75.2831 61.3088 72.5074 62.6151C69.3203 64.2494 67.5253 66.5365 67.5253 69.2307C67.5253 71.3554 68.5052 72.9897 69.4035 73.8864C66.2997 72.9889 64.3399 70.0491 64.3399 66.9428ZM71.773 34.6824C70.1395 34.6824 68.5052 34.7648 66.7901 34.9272L64.5863 30.5986H68.3437C68.3437 31.5786 69.078 32.3137 69.9755 32.3137C70.8747 32.3137 71.609 31.5786 71.609 30.5986H74.9584C74.9584 31.6593 75.6112 32.3137 76.5919 32.3137C77.4903 32.3137 78.2246 31.4154 78.2246 30.5986H81.9837L79.4502 35.0912C77.4079 34.8464 74.7953 34.6824 71.773 34.6824ZM68.7508 69.3114C68.7508 67.0244 70.3019 65.1478 73.0793 63.6766C75.0392 62.6958 76.6727 62.0423 79.9389 60.4088C85.085 57.8769 87.044 53.7124 87.044 48.0768C87.044 46.6064 86.8001 45.3809 86.5545 43.9114C87.4528 45.7081 88.188 47.8311 88.188 50.5262C88.188 55.9171 86.3097 61.1456 80.9196 63.9214C78.6326 65.0645 77.3263 65.8013 75.6103 66.6164C72.9977 67.7604 71.773 69.5554 71.773 71.6793C71.773 73.3136 72.1802 74.2119 72.5889 74.9479C70.2211 74.2952 68.7508 72.1713 68.7508 69.3114ZM72.9153 83.197C72.9153 82.3803 73.1609 81.8899 74.1417 81.7267C72.9986 79.1957 72.0986 77.5614 71.4458 76.4998C71.2019 76.0902 71.4458 75.8463 71.7739 75.8463C72.2626 75.8463 72.6714 76.0086 72.9994 76.4998C73.5697 77.2358 74.3049 78.3773 74.8777 79.4396C75.9392 81.3179 76.5928 83.1163 76.6744 85.7297H75.8568C74.1417 85.7297 72.9153 84.5041 72.9153 83.197ZM78.7142 106.638C78.7142 106.066 78.7957 105.739 79.0422 105.166C78.6334 104.677 78.307 103.861 78.307 102.879C78.307 101.9 78.7957 100.837 79.8581 100.185C79.5317 97.7353 81.4924 96.101 83.6963 96.101C86.1473 96.101 87.372 97.8169 87.7808 99.532C88.1072 100.757 88.5959 101.166 89.1687 101.246C90.2294 101.411 91.9445 101.246 92.5981 101.086C93.3341 100.921 93.6596 100.512 93.6596 99.2872C93.6596 97.2458 93.0876 94.5516 92.5981 92.2637C91.3742 92.4269 88.3511 92.5901 86.0641 92.5901C81.0004 92.5901 78.1413 90.3047 77.6526 85.3217C77.4886 83.2794 77.0798 81.3187 75.8543 79.1149C74.9568 77.399 72.9145 75.1119 72.9145 72.1721C72.9145 69.9667 73.7312 68.6595 76.2622 67.4357C78.0598 66.6189 80.1836 65.639 81.9812 64.5758C81.8987 67.4356 83.613 71.2746 85.8185 72.9065C88.2687 74.704 90.5558 75.1944 93.9044 75.1944C97.7425 75.1944 101.418 74.0496 103.377 71.7625C102.234 72.4985 100.683 72.9065 98.7216 72.9065C92.6797 72.9065 88.8407 68.2507 88.8407 63.2703C88.8407 59.6761 90.8006 56.4899 94.0676 53.7957C96.7618 51.5902 99.2145 50.2023 101.092 48.3232C102.316 47.0977 103.377 45.6282 103.377 43.9131C103.377 41.8708 101.99 39.9101 100.52 39.3389C101.336 38.359 102.968 37.4607 104.44 37.4607C106.889 37.4607 109.176 39.2574 109.176 41.626C109.176 43.4227 108.115 44.8106 106.727 45.4642C106.808 46.8529 105.909 48.6487 104.848 49.7927C102.807 51.9973 99.0488 54.3668 96.5986 56.3267C94.1492 58.2865 92.8429 60.3288 92.8429 63.1063C92.8429 66.7812 95.781 69.4763 99.5392 69.4763C103.051 69.4763 106.074 66.7812 106.074 63.0247C106.074 59.5937 103.624 57.061 99.8672 55.3467L102.969 53.1413C106.318 55.1011 109.995 57.7962 109.995 63.5967C109.995 71.5993 103.542 78.6254 93.0868 78.6254C89.8198 78.6254 88.9215 78.2158 86.88 77.399C88.1863 78.6254 89.5742 80.4212 89.6558 82.625C91.2901 83.1171 92.4341 83.3619 95.9458 83.3619C97.4986 83.3619 99.6208 83.1171 101.337 82.625C102.562 82.2987 103.297 81.8091 103.706 81.2371C104.114 81.8899 104.359 82.625 104.359 83.2786C104.359 85.1577 102.969 86.6272 101.5 86.9544C102.072 92.7524 102.561 98.5513 102.561 103.78C102.561 107.7 100.602 110.068 97.8241 110.068C97.9873 109.905 98.0689 109.66 98.0689 109.415C98.0689 107.864 96.3546 107.128 95.1291 107.128C92.6805 107.128 91.3734 109.088 88.6775 109.088C86.3089 109.088 85.3281 107.128 83.5314 107.128C82.3875 107.128 81.5715 107.864 81.5715 108.843C81.5715 109.333 81.7339 109.742 82.0619 110.151C80.5108 110.151 78.7142 108.679 78.7142 106.638ZM81.9004 102.226C80.3485 102.226 79.5317 103.452 79.6958 104.432C80.0213 104.025 80.674 103.451 81.9828 103.451C83.0419 103.451 83.8611 103.941 84.3498 104.512C84.3498 103.37 83.5331 102.226 81.9004 102.226ZM82.6356 98.4688C81.3293 98.4688 80.674 99.2048 80.5941 99.8576C80.9205 99.6944 81.4092 99.5312 82.1452 99.5312C83.4515 99.5312 84.5138 100.266 84.841 101.002C85.0026 99.6944 84.1875 98.4688 82.6356 98.4688ZM92.8454 45.2993C91.619 44.6466 90.5583 43.2578 90.5583 41.6243C90.5583 39.2557 92.5989 37.459 95.0492 37.459C96.9299 37.459 98.2354 38.3582 99.0522 39.3373C97.5019 40.1532 96.2764 42.1131 96.2764 43.9114C96.2764 46.2801 97.5019 47.7496 98.6434 48.9751L95.6228 51.1806C93.906 49.6278 92.8454 47.5864 92.8454 45.2993Z" fill="#26064F"/>
<path d="M132.906 80.0816C132.906 77.7812 134.72 76.3809 136.851 76.3809C137.699 76.3809 138.23 76.5291 138.652 76.7197V78.5114C138.251 78.3108 137.794 78.1626 137.137 78.1626C136.173 78.1626 135.176 78.777 135.176 80.0816C135.176 81.3846 136.268 81.9582 137.022 81.9582C137.774 81.9582 138.252 81.7676 138.664 81.5445V83.357C138.231 83.5801 137.51 83.8024 136.651 83.8024C134.529 83.8015 132.906 82.3812 132.906 80.0816Z" fill="#26064F"/>
<path d="M139.688 82.0946L142.699 78.1615H139.752V76.4756H145.296V77.9909L142.231 81.998H145.349V83.6831H139.688L139.688 82.0946Z" fill="#26064F"/>
<path d="M146.926 76.4756H151.897V78.1191H149.002V79.2755H151.802V80.8765H149.002V82.0421H151.897V83.6848H146.926V76.4756Z" fill="#26064F"/>
<path d="M153.387 80.0816C153.387 77.7812 155.199 76.3809 157.33 76.3809C158.179 76.3809 158.71 76.5291 159.133 76.7197V78.5114C158.73 78.3108 158.275 78.1626 157.617 78.1626C156.653 78.1626 155.656 78.777 155.656 80.0816C155.656 81.3846 156.748 81.9582 157.5 81.9582C158.254 81.9582 158.731 81.7676 159.145 81.5445V83.357C158.711 83.5801 157.988 83.8024 157.13 83.8024C155.009 83.8015 153.387 82.3812 153.387 80.0816Z" fill="#26064F"/>
<path d="M162.79 76.4756V79.2322H164.92V76.4756H166.999V83.684H164.92V80.8641H162.79V83.684H160.711V76.4756H162.79Z" fill="#26064F"/>
<path d="M172.506 78.1625H170.703V76.4766H176.375V78.1625H174.585V83.6849H172.506V78.1625Z" fill="#26064F"/>
<path d="M177.719 76.4756H182.69V78.1191H179.797V79.2755H182.595V80.8765H179.797V82.0421H182.69V83.6848H177.719V76.4756Z" fill="#26064F"/>
<path d="M184.18 80.0816C184.18 77.7812 185.993 76.3809 188.124 76.3809C188.971 76.3809 189.501 76.5291 189.926 76.7197V78.5114C189.523 78.3108 189.067 78.1626 188.41 78.1626C187.447 78.1626 186.45 78.777 186.45 80.0816C186.45 81.3846 187.542 81.9582 188.294 81.9582C189.046 81.9582 189.524 81.7676 189.938 81.5445V83.357C189.503 83.5801 188.78 83.8024 187.922 83.8024C185.801 83.8015 184.18 82.3812 184.18 80.0816Z" fill="#26064F"/>
<path d="M193.58 76.4756V79.2322H195.711V76.4756H197.791V83.684H195.711V80.8641H193.58V83.684H191.504V76.4756H193.58Z" fill="#26064F"/>
<path d="M199.906 76.4756H202.462L204.624 80.78H204.655V76.4756H206.733V83.684H204.2L202.016 79.3596H201.983V83.684H199.906V76.4756Z" fill="#26064F"/>
<path d="M208.85 76.4756H210.927V83.684H208.85V76.4756Z" fill="#26064F"/>
<path d="M212.621 80.0816C212.621 77.7812 214.434 76.3809 216.564 76.3809C217.413 76.3809 217.943 76.5291 218.368 76.7197V78.5114C217.965 78.3108 217.508 78.1626 216.851 78.1626C215.887 78.1626 214.891 78.777 214.891 80.0816C214.891 81.3846 215.982 81.9582 216.735 81.9582C217.488 81.9582 217.965 81.7676 218.379 81.5445V83.357C217.945 83.5801 217.224 83.8024 216.366 83.8024C214.244 83.8015 212.621 82.3812 212.621 80.0816Z" fill="#26064F"/>
<path d="M224.098 82.1905H221.799L221.405 83.6849H219.273L221.426 76.4766H224.469L226.632 83.6849H224.501L224.098 82.1905ZM223.705 80.7168L222.996 78.0551H222.901L222.19 80.7168H223.705Z" fill="#26064F"/>
<path d="M227.732 76.4756H229.811V81.9789H232.386V83.684H227.732V76.4756Z" fill="#26064F"/>
<path d="M133.277 93.889V89.3398H135.355V93.6992C135.355 94.5134 135.8 94.8748 136.383 94.8748C136.966 94.8748 137.41 94.5126 137.41 93.6992V89.3398H139.489V93.889C139.489 95.903 138.079 96.7189 136.383 96.7189C134.687 96.7189 133.277 95.9022 133.277 93.889Z" fill="#26064F"/>
<path d="M141.543 89.3398H144.099L146.261 93.6451H146.292V89.3398H148.371V96.5491H145.837L143.653 92.2247H143.62V96.5491H141.543V89.3398Z" fill="#26064F"/>
<path d="M150.484 89.3398H152.562V96.5491H150.484V89.3398Z" fill="#26064F"/>
<path d="M153.674 89.3398H156.008L157.237 94.7357H157.281L158.51 89.3398H160.841L158.679 96.5491H155.838L153.674 89.3398Z" fill="#26064F"/>
<path d="M162.162 89.3398H167.132V90.9842H164.239V92.1406H167.038V93.74H164.239V94.9056H167.132V96.5499H162.162V89.3398Z" fill="#26064F"/>
<path d="M169.027 89.3398H172.336C174.022 89.3398 175.05 90.4213 175.05 91.7152C175.05 92.9457 174.15 93.486 173.512 93.7733L173.502 93.8149C173.596 93.879 173.765 94.0905 173.904 94.3228L175.229 96.5499H172.887L171.635 94.0172H171.106V96.5499H169.027V89.3398ZM171.943 92.6693C172.505 92.6693 172.831 92.2247 172.831 91.7684C172.831 91.3122 172.504 90.8776 171.943 90.8776H171.105V92.6693H171.943Z" fill="#26064F"/>
<path d="M176.464 96.1684V94.2801C176.932 94.609 177.896 95.0227 178.851 95.0227C179.549 95.0227 179.931 94.8204 179.931 94.4608C179.931 94.1735 179.668 94.047 179.274 93.9529C178.807 93.8347 178.522 93.7722 177.98 93.6332C177.005 93.3901 176.379 92.6899 176.379 91.5776C176.379 90.1123 177.705 89.1689 179.498 89.1689C180.344 89.1689 181.109 89.3388 181.574 89.5403V91.332C181.214 91.1305 180.482 90.8549 179.603 90.8549C178.797 90.8549 178.437 91.0572 178.437 91.3744C178.437 91.65 178.649 91.7882 179.138 91.8939C179.499 91.9672 179.762 92.0122 180.239 92.1271C181.416 92.4143 182.021 93.1028 182.021 94.2793C182.021 95.4773 180.93 96.7178 178.957 96.7178C177.875 96.7187 177.047 96.4956 176.464 96.1684Z" fill="#26064F"/>
<path d="M183.682 89.3398H185.761V96.5491H183.682V89.3398Z" fill="#26064F"/>
<path d="M188.948 91.025H187.146V89.3398H192.818V91.025H191.027V96.5491H188.948V91.025Z" fill="#26064F"/>
<path d="M195.605 93.9081L193.164 89.3398H195.52L196.653 91.9175H196.696L197.874 89.3398H200.174L197.682 93.9081V96.5491H195.605V93.9081Z" fill="#26064F"/>
<path d="M133.332 102.204H135.411V109.414H133.332V102.204Z" fill="#26064F"/>
<path d="M137.527 102.204H140.083L142.246 106.508H142.278V102.204H144.356V109.414H141.821L139.639 105.087H139.605V109.414H137.527V102.204Z" fill="#26064F"/>
<path d="M149.129 102.203H152.269C153.953 102.203 155.004 103.36 155.004 104.683C155.004 106.01 153.953 107.08 152.269 107.08H151.207V109.413H149.13L149.129 102.203ZM152.025 105.533C152.48 105.533 152.892 105.161 152.892 104.643C152.892 104.135 152.48 103.751 152.025 103.751H151.207V105.533H152.025V105.533Z" fill="#26064F"/>
<path d="M156.525 102.203H159.833C161.52 102.203 162.547 103.285 162.547 104.578C162.547 105.809 161.647 106.349 161.01 106.637L160.999 106.677C161.095 106.741 161.264 106.954 161.402 107.187L162.726 109.414H160.384L159.133 106.879H158.603V109.414H156.525V102.203ZM159.441 105.533C160.003 105.533 160.332 105.086 160.332 104.631C160.332 104.175 160.002 103.741 159.441 103.741H158.603V105.533H159.441Z" fill="#26064F"/>
<path d="M167.971 107.918H165.671L165.277 109.413H163.146L165.299 102.203H168.341L170.506 109.413H168.374L167.971 107.918ZM167.578 106.443L166.87 103.784H166.773L166.062 106.443H167.578Z" fill="#26064F"/>
<path d="M171.285 105.808C171.285 103.455 172.929 101.939 175.377 101.939C176.331 101.939 177.032 102.203 177.456 102.394V104.09C177.062 103.88 176.427 103.624 175.685 103.624C174.337 103.624 173.554 104.346 173.554 105.808C173.554 107.165 174.445 107.78 175.25 107.78C175.409 107.78 175.568 107.758 175.716 107.727V105.776H177.741V108.967C177.306 109.19 176.416 109.582 175.132 109.582C173.12 109.582 171.285 108.16 171.285 105.808Z" fill="#26064F"/>
<path d="M179.508 106.752V102.204H181.585V106.562C181.585 107.377 182.031 107.737 182.612 107.737C183.197 107.737 183.642 107.377 183.642 106.562V102.204H185.719V106.752C185.719 108.767 184.31 109.583 182.612 109.583C180.917 109.583 179.508 108.767 179.508 106.752Z" fill="#26064F"/>
<path d="M187.783 102.204H192.756V103.848H189.861V105.003H192.66V106.604H189.861V107.771H192.756V109.415H187.783V102.204Z" fill="#26064F"/>
<path d="M162.366 17.0483V35.6645H170.07V17.0483H176.713V11.366H155.683V17.0483H162.366ZM186.935 11.366H179.229V26.6953C179.229 33.484 184.458 36.2348 190.746 36.2348C197.036 36.2348 202.263 33.484 202.263 26.6953V11.366H194.559V26.0517C194.559 28.8033 192.907 30.0189 190.746 30.0189C188.584 30.0189 186.935 28.8042 186.935 26.0517V11.366ZM131.91 23.5149C131.91 31.2686 137.924 36.0567 145.785 36.0567C148.968 36.0567 151.641 35.3065 153.252 34.5564V28.4453C151.719 29.1963 149.95 29.8399 147.16 29.8399C144.37 29.8399 140.322 27.9092 140.322 23.514C140.322 19.1197 144.017 17.0466 147.593 17.0466C150.03 17.0466 151.719 17.547 153.214 18.2255V12.1869C151.641 11.5433 149.676 11.043 146.531 11.043C138.633 11.0446 131.91 15.7611 131.91 23.5149Z" fill="#26064F"/>
</g>
<defs>
<clipPath id="clip0_5251_4115">
<rect width="241.9" height="118" fill="white"/>
</clipPath>
</defs>
</svg>
