<svg width="535" height="118" viewBox="0 0 535 118" fill="none" xmlns="http://www.w3.org/2000/svg">
<g clip-path="url(#clip0_5251_3924)">
<path d="M94.0232 21.1937L76.9414 44.4024C76.9414 44.4024 165.499 44.4024 170.041 44.4024C174.747 44.4024 174.685 46.1906 172.385 49.3061C170.05 52.4703 166.14 57.9708 163.761 61.1829C162.553 62.8142 160.37 65.7842 167.605 65.7842C175.254 65.7842 205.676 65.7842 205.676 65.7842C205.676 65.7842 211.813 57.4337 216.957 50.4526C223.956 40.9561 217.563 21.1937 192.546 21.1937C170.154 21.1937 94.0232 21.1937 94.0232 21.1937Z" fill="#26064F"/>
<path d="M70.0312 96.8037L104.342 50.1828C104.342 50.1828 142.378 50.1832 146.921 50.1832C151.626 50.1832 151.564 51.9714 149.265 55.0876C146.929 58.2518 142.955 63.6937 140.575 66.9072C139.367 68.5374 137.185 71.5129 144.418 71.5129C152.068 71.5129 201.459 71.5129 201.459 71.5129C196.715 78.0114 181.328 96.8037 153.698 96.8037C131.305 96.8037 70.0312 96.8037 70.0312 96.8037Z" fill="#26064F"/>
<path d="M266.531 71.5074L247.925 96.8037H198.844C198.844 96.8037 217.44 71.5129 217.457 71.5129L266.531 71.5074Z" fill="#26064F"/>
<path d="M341.721 65.7842H221.672L254.5 21.1937H303.566L284.751 46.7624H306.653L325.476 21.1937H374.538L341.721 65.7842Z" fill="#26064F"/>
<path d="M337.506 71.5129L318.892 96.8037H269.828C269.828 96.8037 288.425 71.5129 288.442 71.5129H337.506Z" fill="#26064F"/>
<path d="M0 81.4852H72.3033L68.353 86.8594H0V81.4852Z" fill="#26064F"/>
<path d="M0 71.5132H79.6491L75.6918 76.8789H0V71.5132Z" fill="#26064F"/>
<path d="M0 91.4646H64.9612L61.0304 96.8037H0V91.4646Z" fill="#26064F"/>
<path d="M534.668 86.8594H462.641L466.593 81.4859H534.668V86.8594Z" fill="#26064F"/>
<path d="M534.669 96.804L455.32 96.8096L459.251 91.4649H534.669V96.804Z" fill="#26064F"/>
<path d="M473.931 71.5134H534.669V76.8821L469.984 76.8857L473.931 71.5134Z" fill="#26064F"/>
<path d="M442.489 21.1937L409.666 65.7842H357.676C357.676 65.7842 390.505 21.1937 390.522 21.1937H442.489Z" fill="#26064F"/>
<path d="M353.466 71.5129C353.466 71.5129 349.88 76.4145 348.138 78.7703C341.974 87.0991 347.423 96.8037 367.535 96.8037C390.763 96.8037 446.334 96.8037 446.334 96.8037L464.947 71.5129H353.466Z" fill="#26064F"/>
</g>
<defs>
<clipPath id="clip0_5251_3924">
<rect width="534.669" height="118" fill="white"/>
</clipPath>
</defs>
</svg>
