<svg width="906" height="172" viewBox="0 0 906 172" fill="none" xmlns="http://www.w3.org/2000/svg">
<g clip-path="url(#clip0_5251_3878)">
<path d="M-1.36133 142.669V31.2607H87.1661V58.8206H27.2002V73.8533H73.6373V101.583H27.2002V142.669H-1.36133Z" fill="#26064F"/>
<path d="M301.59 78.8641H329.987C336.002 78.8641 341.515 75.1897 341.515 68.8424C341.515 62.1603 336.337 58.6532 329.987 58.6532H301.59V78.8641ZM273.363 142.669V31.2607H332.66C352.876 31.2607 370.077 46.126 370.077 68.8424C370.077 84.2126 360.055 97.9088 348.197 102.085C350.867 106.597 369.912 138.997 372.247 142.669H337.001C335 139.33 318.631 110.269 316.126 105.922H301.59V142.669H273.363Z" fill="#26064F"/>
<path d="M431.254 142.669V58.8206H404.023V31.2607H487.211V58.8206H459.986V142.669H431.254Z" fill="#26064F"/>
<path d="M529.076 31.2607H557.64V102.253C557.64 109.602 563.653 116.948 572.84 116.948C581.191 116.948 588.04 110.601 588.04 102.253V31.2607H616.105V100.25C616.105 125.304 597.231 144.675 572.84 144.675C548.118 144.675 529.076 125.803 529.076 100.25V31.2607Z" fill="#26064F"/>
<path d="M670.021 142.67V29.0879C674.538 33.0971 725.481 78.8647 730.992 83.5435V31.2613H758.889V144.849C753.376 140.002 702.762 94.5697 698.089 90.3958V142.672L670.021 142.67Z" fill="#26064F"/>
<path d="M850.487 72.685C849.821 74.6883 842.804 95.0694 842.304 96.5704H859.173C858.671 95.2367 851.154 74.5236 850.487 72.685ZM826.27 142.67H795.867C796.704 140.332 835.287 33.4294 835.957 31.2588H865.021C865.687 33.0974 905.945 140 906.946 142.67H876.211C875.38 140.332 870.032 125.804 869.362 123.966H832.782C832.28 125.472 826.769 141.169 826.27 142.67Z" fill="#26064F"/>
<path d="M234.155 86.4639C234.155 53.9289 207.778 27.5518 175.24 27.5518C142.708 27.5518 116.328 53.9261 116.328 86.4639C116.328 119.002 142.708 145.379 175.24 145.379C207.778 145.379 234.155 119.002 234.155 86.4639ZM206.137 86.7466C206.137 103.651 192.433 117.355 175.528 117.355C158.624 117.355 144.914 103.651 144.914 86.7466C144.914 69.8424 158.624 56.1379 175.528 56.1379C192.433 56.1379 206.137 69.8424 206.137 86.7466Z" fill="#26064F"/>
</g>
<defs>
<clipPath id="clip0_5251_3878">
<rect width="906" height="172" fill="white"/>
</clipPath>
</defs>
</svg>
