<svg width="286" height="186" viewBox="0 0 286 186" fill="none" xmlns="http://www.w3.org/2000/svg">
<g clip-path="url(#clip0_5251_3995)">
<path fill-rule="evenodd" clip-rule="evenodd" d="M227.947 115.841C240.425 115.841 250.993 105.543 250.993 92.6743C250.993 79.804 240.426 69.6369 227.947 69.6369C215.086 69.6369 204.78 79.804 204.78 92.674C204.78 105.543 215.086 115.841 227.947 115.841M198.601 92.674C198.601 76.459 211.732 63.337 227.947 63.337C244.171 63.337 257.284 76.4587 257.284 92.674C257.284 109.011 244.171 122.15 227.947 122.15C211.732 122.15 198.601 109.011 198.601 92.674ZM157.437 92.674C161.157 92.41 167.213 88.1729 169.525 85.6005C168.621 88.6851 168.621 98.4616 169.525 101.555C166.953 97.8271 161.156 93.3174 157.437 92.674ZM136.329 61.6686C140.961 61.6686 144.689 66.17 144.689 71.3228C144.689 76.4587 140.961 80.9776 136.329 80.9776H120.357V61.6683L136.329 61.6686ZM136.329 105.022C140.961 105.022 144.689 109.533 144.689 114.677C144.689 120.09 140.961 124.583 136.329 124.583H120.357V105.022H136.329ZM227.947 152C260.117 152 286.369 125.235 286.369 92.674C286.369 59.6004 260.117 34 227.947 34C195.395 34 178.918 57.6711 174.938 67.3253C174.938 53.0391 160.644 35.929 144.046 35.929H90.386V151.488H140.309C160.644 151.488 174.938 134.108 174.938 118.926C179.44 128.321 195.395 152 227.947 152M83.9642 151.485H52.5587V106.697H32.2157V151.485H0.0371094V35.927H32.2157V79.0289H52.5587V35.9273H83.9642V151.485Z" fill="#26064F"/>
</g>
<defs>
<clipPath id="clip0_5251_3995">
<rect width="286" height="186" fill="white"/>
</clipPath>
</defs>
</svg>
