<svg width="295" height="152" viewBox="0 0 295 152" fill="none" xmlns="http://www.w3.org/2000/svg">
<path d="M0 17V25.0733H57.4212V17H0ZM65.5567 17V25.0733H147.385C147.385 25.0733 139.026 17 127.956 17H65.5567ZM163.437 17V25.0733H212.941L210.003 17H163.437ZM248.434 17L245.495 25.0733H294.55V17H248.434ZM0 32.7005V40.7738H57.4212V32.7005H0ZM65.5567 32.712V40.774H156.88C156.88 40.774 155.813 34.5605 153.953 32.712H65.5567ZM163.437 32.712V40.774H218.369L215.649 32.712H163.437ZM242.557 32.712L239.837 40.774H294.55V32.712H242.557ZM16.5014 48.401V56.4858H41.369V48.401H16.5014ZM82.0584 48.401V56.4858H106.926V48.401H82.0584ZM131.114 48.401V56.4858H155.981C155.981 56.4858 157.56 52.2162 157.56 48.401H131.114ZM179.938 48.401V56.4858H224.027L221.089 48.401H179.938ZM237.141 48.401L234.191 56.4858H278.498V48.401H237.141ZM16.5014 64.1133V72.1865H41.369V64.1133H16.5014ZM82.0584 64.1133V72.1865H145.575C145.575 72.1865 150.889 68.0441 152.582 64.1133H82.0584ZM179.938 64.1133V72.1865H204.806V67.6925L206.385 72.1865H251.937L253.631 67.6925V72.1865H278.499V64.1133H231.817L229.339 70.9514L226.85 64.1133H179.938ZM16.5014 79.8138V87.887H41.369V79.8138H16.5014ZM82.0584 79.8138V87.887H152.582C150.889 83.9691 145.575 79.8138 145.575 79.8138H82.0584ZM179.938 79.8138V87.887H204.806V79.8138H179.938ZM209.323 79.8138L212.331 87.887H246.486L249.344 79.8138H209.323ZM253.631 79.8138V87.887H278.498V79.8138H253.631ZM16.5014 95.5142V103.587H41.369V95.5142H16.5014ZM82.0584 95.5142V103.587H106.926V95.5142H82.0584ZM131.114 95.5142V103.587H157.56C157.56 99.7773 155.981 95.5142 155.981 95.5142H131.114ZM179.938 95.5142V103.587H204.806V95.5142H179.938ZM214.97 95.5142L217.885 103.587H240.782L243.721 95.5142H214.97ZM253.631 95.5142V103.587H278.498V95.5142H253.631ZM0.449285 111.215V119.3H57.8704V111.215H0.449285ZM65.5567 111.215V119.3H153.953C155.813 117.448 156.88 111.215 156.88 111.215H65.5567ZM163.886 111.215V119.3H204.806V111.215H163.886ZM220.628 111.215L223.624 119.3H235.274L238.085 111.215H220.628ZM253.631 111.215V119.3H295V111.215H253.631ZM0.449285 126.927V135H57.8704V126.927H0.449285ZM65.5567 126.927V134.988H127.956C139.026 134.988 147.385 126.927 147.385 126.927H65.5567ZM163.886 126.927V135H204.806V126.927H163.886ZM226.309 126.927L229.19 134.977L229.685 134.988L232.612 126.927H226.309ZM253.631 126.927V135H295V126.927H253.631Z" fill="#26064F"/>
</svg>
