<svg width="336" height="118" viewBox="0 0 336 118" fill="none" xmlns="http://www.w3.org/2000/svg">
<path d="M77.9722 17.4454C56.4083 8.19049 37.2506 3.70186 16.0106 4.11833C10.2263 4.25715 4.71964 9.67127 4.25689 15.5944C2.91493 35.1223 5.83023 54.1873 12.9565 72.836C15.2702 78.5277 20.7769 83.4791 24.7102 83.5717C37.9447 83.803 51.1792 81.2117 64.3675 75.7513C68.3008 73.9928 73.3447 68.9952 75.1957 65.1081C81.2114 51.3183 83.8953 41.1379 83.8953 28.2273C83.8953 25.5897 85.2836 20.5921 77.9722 17.4454Z" fill="#26064F"/>
<path d="M48.588 23.7852L40.166 34.8448L40.4899 51.2722L47.8013 37.9452L48.588 23.7852Z" fill="white"/>
<path d="M38.1294 60.8975L35.4455 35.1226L24.8949 26.0991L24.7561 44.5163L35.8619 63.9053L27.44 68.4865L19.8047 67.7461L20.8227 74.0395L29.1059 73.4842L38.731 66.2653L59.1843 65.1548L74.2698 51.5038L54.1404 53.2159L43.4047 60.5273L59.647 39.4724L53.3537 19.4355L50.7623 39.7038L38.1294 60.8975Z" fill="white"/>
<path d="M172.697 77.4637C168.486 81.6746 163.766 83.757 158.444 83.757C153.215 83.8033 149.051 81.7209 145.904 77.5099C142.804 73.299 141.878 66.728 143.081 57.7044C144.284 48.6809 147.015 42.0637 151.226 37.8527C155.483 33.5954 160.203 31.4668 165.478 31.4668C170.753 31.4668 174.964 33.5954 178.065 37.8064C181.119 42.0174 182.044 48.6346 180.888 57.6582C179.638 66.6817 176.954 73.2527 172.697 77.4637ZM166.913 43.4056C166.866 39.4723 166.126 37.4825 164.645 37.4825C163.303 37.4825 162.054 39.4723 160.989 43.4056C159.879 47.339 158.907 52.1052 158.167 57.6582C157.426 63.2574 157.102 67.9774 157.149 71.8644C157.195 75.7978 157.889 77.7413 159.231 77.7413C160.712 77.7413 161.961 75.7978 163.026 71.8644C164.09 67.9774 165.015 63.2111 165.756 57.6582C166.542 52.1052 166.913 47.3852 166.913 43.4056Z" fill="#26064F"/>
<path d="M238.591 77.9265C234.38 82.1375 229.614 84.2199 224.339 84.2199C219.11 84.2199 214.945 82.1838 211.799 77.9728C208.698 73.8081 207.773 67.1909 208.976 58.1211C210.133 49.1438 212.863 42.5265 217.12 38.2693C221.331 34.0583 226.097 31.976 231.326 31.9297C236.602 31.9297 240.813 34.012 243.913 38.2693C247.013 42.4803 247.893 49.0975 246.689 58.1211C245.486 67.1446 242.756 73.7156 238.591 77.9265ZM232.715 43.8685C232.668 39.9352 231.974 37.9454 230.447 37.9454C229.105 37.9454 227.902 39.9352 226.791 43.8685C225.681 47.8018 224.755 52.5681 224.015 58.0748C223.275 63.674 222.904 68.394 222.997 72.2811C223.043 76.1681 223.737 78.1579 225.079 78.1579C226.56 78.1579 227.81 76.2144 228.874 72.2811C229.938 68.3477 230.864 63.6277 231.604 58.0748C232.391 52.5681 232.761 47.8018 232.715 43.8685Z" fill="#26064F"/>
<path d="M247.984 83.618L257.332 13.9748H254.787L255.666 7.21875H272.973L263.579 77.3709L267.049 77.1858L266.217 83.3866L247.984 83.618Z" fill="#26064F"/>
<path d="M289.217 83.5717L289.726 79.8698L285.098 83.7568L283.802 83.8031L282.599 83.8494C279.036 83.8031 276.075 82.6463 273.668 80.4251C271.216 78.2039 269.92 74.9647 269.781 70.7537C269.781 70.0133 269.781 69.3192 269.828 68.6251C269.874 67.9772 269.966 67.3294 270.059 66.6815C270.707 61.5451 272.743 57.4266 276.028 54.28C279.36 51.1796 282.831 49.1435 286.533 47.8941C287.689 47.4776 288.8 47.1537 289.911 46.9223C291.021 46.7372 292.086 46.5984 293.104 46.5059C293.474 43.5443 293.381 41.3231 292.78 40.12C292.132 38.9168 290.882 38.269 289.031 38.3153H288.384L287.643 38.4078L286.162 42.2949H279.314L280.424 33.6415C282.044 32.9937 283.71 32.4847 285.561 32.1145C287.412 31.7443 289.217 31.6055 291.114 31.6055H291.484H291.947C296.435 31.7443 300.276 33.2713 303.654 36.1866C306.986 39.1019 308.189 44.1459 307.264 51.1796L303.747 77.2321H306.569L305.783 83.4792L289.217 83.5717ZM292.271 52.9843C290.882 53.447 289.54 54.5576 288.291 56.3161C287.042 58.0282 286.07 60.1106 285.376 62.887C285.052 63.8588 284.82 64.8306 284.682 65.8023C284.543 66.7741 284.404 67.6533 284.265 68.4863C283.988 70.5223 283.988 72.2345 284.265 73.6227C284.589 75.3349 285.977 76.2604 286.255 76.3066L288.291 75.1498C288.8 74.5945 289.217 73.7615 289.679 72.6972L292.271 52.9843Z" fill="#26064F"/>
<path d="M209.438 14.9927C210.873 14.1135 212.539 13.6508 214.343 13.697H216.657L217.536 7.35742H210.225C205.69 7.35742 201.618 8.83821 197.962 11.7535C194.353 14.6688 192.039 19.9904 190.975 27.7645L190.327 32.6233L187.782 32.577L186.949 39.1943H189.448L187.088 56.7323L182.136 94.4923C181.766 97.1762 180.887 98.981 179.406 99.8602C177.972 100.739 176.306 101.156 174.501 101.156H172.141L171.262 107.542H178.573C183.108 107.542 187.226 106.061 190.836 103.099C194.445 100.184 196.759 94.8162 197.823 87.0884L199.628 72.5119L204.117 39.1017H212.4L213.279 32.5308H205.042L206.708 20.268C207.078 17.6766 208.004 15.8719 209.438 14.9927Z" fill="#26064F"/>
<path d="M122.489 83.3863C122.627 79.2216 122.118 75.4271 121.1 71.9102C120.082 68.4396 118.601 65.5243 116.658 63.0718L113.928 83.3863H96.6211L97.5466 76.5839H100.092L108.467 13.6506H105.922L106.848 6.89453H124.108L118 53.2153L132.715 32.253L142.849 32.2992L141.924 39.0553L140.258 38.9628L129.661 53.9557C131.003 55.1588 133.27 58.5369 135.029 62.7479C136.741 66.9126 137.805 71.4938 138.176 76.5839H140.628L139.703 83.34L122.489 83.3863Z" fill="#26064F"/>
<path d="M319.664 37.7139C318.785 38.5468 317.767 39.0096 316.564 39.0096C315.361 39.0096 314.297 38.5468 313.464 37.7139C312.631 36.8809 312.168 35.8166 312.168 34.6135C312.168 33.4566 312.584 32.3923 313.464 31.5594C314.297 30.6801 315.361 30.2637 316.564 30.2637C317.767 30.2637 318.832 30.6801 319.664 31.5594C320.497 32.3923 320.914 33.4103 320.914 34.6135C320.914 35.8166 320.497 36.8347 319.664 37.7139ZM313.88 31.9758C313.14 32.7162 312.77 33.5954 312.77 34.6135C312.77 35.6315 313.14 36.5107 313.88 37.2511C314.621 37.9915 315.5 38.3617 316.564 38.3617C317.628 38.3617 318.508 37.9915 319.248 37.2511C319.988 36.5107 320.359 35.6315 320.359 34.6135C320.359 33.5492 319.988 32.6699 319.248 31.9758C318.508 31.2817 317.582 30.8652 316.564 30.8652C315.546 30.8652 314.621 31.2817 313.88 31.9758ZM316.472 32.2535C317.073 32.2535 317.49 32.2997 317.767 32.4386L318.554 33.6417L318.091 34.5672L317.397 34.7986L318.184 35.2613L318.461 36.0017V36.3256V36.6958L318.508 36.9272L318.554 36.9735H317.767L317.721 36.9272V36.8809V36.7421V36.3256L317.258 35.215L316.286 35.0762H315.592V36.9735H314.759V32.2535H316.472ZM317.397 32.9939L316.333 32.8088H315.592V34.5209H316.379L317.212 34.4284L317.721 33.688L317.397 32.9939Z" fill="#26064F"/>
<path fill-rule="evenodd" clip-rule="evenodd" d="M236.554 93.5203C236.323 96.6207 236.693 100.647 236.74 104.21C237.295 104.117 237.619 104.256 238.128 104.117C239.1 103.007 239.285 101.294 240.071 99.8137C240.627 99.7674 240.951 99.9062 241.321 100.045C240.812 101.85 240.256 103.562 239.331 104.95C240.488 106.385 241.367 108.051 242.107 109.855C241.783 110.04 241.321 110.133 240.858 110.179C240.071 108.467 239.146 106.894 238.081 105.505C237.665 105.505 237.249 105.505 236.832 105.505C236.786 106.755 236.925 108.745 236.74 110.133C236.323 110.04 235.86 109.902 235.583 109.67C235.49 104.349 234.842 98.7493 235.351 93.5666C235.583 93.2889 236.092 93.4741 236.554 93.5203Z" fill="#26064F"/>
<path fill-rule="evenodd" clip-rule="evenodd" d="M316.471 93.4285C316.333 96.4363 316.703 100.416 316.61 104.025C317.027 104.118 317.536 104.118 318.091 104.025C318.97 102.822 319.248 101.249 319.942 99.7218C320.497 99.6756 320.821 99.8144 321.191 99.9532C320.729 101.804 320.127 103.516 319.202 104.858C320.359 106.247 321.284 107.912 321.978 109.763C321.654 109.948 321.284 110.041 320.821 110.087C319.896 108.468 319.109 106.802 317.952 105.414C317.536 105.414 317.119 105.414 316.703 105.414C316.657 106.663 316.795 108.653 316.61 110.041C316.194 109.902 315.731 109.81 315.453 109.578C315.315 104.257 314.898 98.6112 315.222 93.4748C315.5 93.2434 316.055 93.4285 316.471 93.4285Z" fill="#26064F"/>
<path fill-rule="evenodd" clip-rule="evenodd" d="M213.557 93.0115C214.205 92.5951 214.575 91.9472 215.315 91.6233C215.454 91.9472 215.824 92.0398 215.871 92.4563C214.991 92.919 214.482 93.7519 213.788 94.3998C212.909 93.7519 212.215 92.919 211.475 92.0861C212.076 90.7904 213.094 92.41 213.557 93.0115Z" fill="#26064F"/>
<path fill-rule="evenodd" clip-rule="evenodd" d="M265.384 94.8624C265.43 97.4538 265.245 100.739 265.384 103.793C265.43 105.043 265.477 106.153 265.523 107.495C265.615 109.115 266.633 110.133 268.299 109.855C268.438 110.226 268.346 110.688 268.299 111.105C267.189 111.429 266.356 110.781 265.523 110.549C264.181 109.254 264.135 106.662 263.996 104.395C263.811 101.804 263.996 97.9628 264.135 94.8624C264.505 94.7236 264.968 94.8161 265.384 94.8624Z" fill="#26064F"/>
<path fill-rule="evenodd" clip-rule="evenodd" d="M217.767 99.9061C217.536 99.9986 217.027 100.045 216.842 99.8135C216.564 99.2582 216.703 98.7029 216.518 98.2865C215.777 96.2041 212.168 96.2041 210.965 97.7312C210.224 98.9806 210.039 100.97 209.947 103.284C209.808 106.755 210.132 111.521 211.705 112.909C212.816 113.881 215.453 113.187 216.332 112.215C216.888 111.104 217.165 109.716 217.258 108.143C217.721 108.328 218.091 108.652 218.415 108.976C218.6 111.428 217.397 113.464 215.962 114.112C213.186 115.362 210.733 114.344 209.669 112.169C209.021 110.919 208.697 108.791 208.605 106.847C208.42 104.024 208.558 100.785 209.114 98.7029C209.345 97.7774 209.808 96.8057 210.409 96.2504C212.908 93.9829 218.924 95.7414 217.767 99.9061Z" fill="#26064F"/>
<path fill-rule="evenodd" clip-rule="evenodd" d="M246.179 99.6752C246.549 99.5826 247.289 99.7677 247.891 99.7677C248.122 99.7677 248.354 99.6289 248.585 99.6289C250.806 99.7215 251.917 100.693 252.195 102.452C252.426 103.747 252.518 105.182 252.426 106.755C252.38 107.449 252.333 108.652 252.148 109.161C251.732 110.133 250.112 110.874 248.863 111.012C246.364 111.244 244.096 110.55 243.541 108.467C243.125 106.894 243.217 104.21 243.449 102.776C243.634 101.295 244.605 99.9528 246.179 99.6752ZM250.806 108.421C251.084 106.894 251.547 102.544 250.482 101.48C249.464 100.462 244.791 100.416 244.883 102.405C244.837 104.118 244.143 107.681 245.346 108.93C246.41 110.087 249.973 109.717 250.806 108.467C250.806 108.606 250.899 108.514 250.806 108.421Z" fill="#26064F"/>
<path fill-rule="evenodd" clip-rule="evenodd" d="M277.46 100.925C277.923 102.406 278.062 104.303 278.016 106.524C277.969 107.403 278.016 108.421 277.784 108.977C277.09 110.642 273.666 111.337 271.63 110.735C269.594 110.18 269.177 108.977 268.992 106.339C268.807 103.331 268.992 99.953 271.907 99.4903C272.185 99.444 272.833 99.4903 273.296 99.4903C274.684 99.5828 276.627 99.8605 277.46 100.925ZM276.165 101.573C274.962 100.323 271.306 100.693 270.704 101.804C270.195 102.776 270.057 107.403 270.704 108.56C271.491 110.041 275.424 109.902 276.489 108.468C276.535 106.802 277.229 102.683 276.165 101.573Z" fill="#26064F"/>
<path fill-rule="evenodd" clip-rule="evenodd" d="M326.095 99.5823C326.419 99.2584 327.298 99.6749 327.807 99.6749C328.085 99.6749 328.27 99.4898 328.501 99.5361C329.89 99.5823 331.046 100.184 331.787 101.017C332.435 103.192 332.573 106.894 331.926 109.254C330.491 111.336 325.123 111.799 323.781 109.346C322.948 107.865 322.995 104.626 323.319 102.822C323.596 101.202 324.568 99.9063 326.095 99.5823ZM325.123 101.572C324.846 101.989 324.707 102.96 324.66 103.701C324.522 105.737 324.475 107.773 325.216 108.698C326.002 109.716 329.38 109.855 330.445 108.837C331.555 107.819 331.139 102.498 330.445 101.294C328.733 100.785 326.095 100.091 325.123 101.572Z" fill="#26064F"/>
<path fill-rule="evenodd" clip-rule="evenodd" d="M232.298 104.071C231.928 104.163 231.465 103.7 231.141 103.469C231.187 102.59 231.095 102.173 230.91 101.479C230.354 101.479 229.66 101.387 229.383 101.618C229.105 103.284 229.244 104.348 230.308 104.996C230.725 105.274 231.28 105.32 231.696 105.598C231.835 105.737 231.974 106.014 232.159 106.153C232.483 106.431 232.899 106.616 233.085 106.986C233.779 108.42 233.501 111.521 232.252 112.215C230.817 113.048 228.226 112.308 227.809 110.688C227.532 109.624 227.485 107.865 228.966 108.513C229.105 109.3 228.688 110.133 229.198 110.734C229.66 111.29 231.141 111.336 231.65 110.873C232.39 110.225 231.881 108.374 231.743 107.495C230.91 106.431 228.688 106.06 228.133 104.58C227.67 103.377 228.041 101.34 228.688 100.415C229.614 100.23 230.725 99.8597 231.604 100.276C232.668 100.785 232.39 102.914 232.298 104.071Z" fill="#26064F"/>
<path d="M260.804 113.372C260.248 113.696 259.508 113.881 258.768 113.881C256.963 113.881 254.788 112.956 254.325 111.198C254.048 110.133 254.001 108.791 254.372 108.282C254.464 108.143 254.649 108.051 254.834 108.051C254.973 108.051 255.158 108.097 255.39 108.143C255.436 108.514 255.39 108.93 255.39 109.3C255.297 110.087 255.251 110.92 255.806 111.66C256.315 112.308 257.379 112.493 258.212 112.493C259.045 112.493 259.786 112.308 260.248 111.938C261.405 110.966 260.943 108.652 260.619 107.033C260.572 106.755 260.526 106.478 260.48 106.246L260.387 106.061C259.786 105.274 258.814 104.719 257.75 104.164C256.5 103.47 255.158 102.729 254.695 101.572C254.001 99.8603 254.557 96.8987 255.436 95.5105C255.621 95.4642 255.852 95.4179 256.084 95.3717C257.379 95.094 258.768 94.8626 259.693 95.2791C261.035 95.8807 260.85 98.4258 260.711 100.138V100.462C260.387 100.369 260.017 100.045 259.739 99.814L259.647 99.7215C259.693 98.4721 259.601 97.7779 259.277 96.6211L259.184 96.2972H258.86C258.768 96.2972 258.675 96.2972 258.536 96.2972H257.703C257.148 96.2972 256.593 96.3434 256.223 96.6211L256.084 96.7136L256.037 96.8525C255.621 99.4438 255.76 101.434 257.703 102.59C258.027 102.776 258.397 102.914 258.768 103.053C259.184 103.192 259.554 103.331 259.878 103.562C259.971 103.655 260.063 103.794 260.202 103.932C260.341 104.118 260.48 104.256 260.619 104.395C260.757 104.534 260.943 104.627 261.128 104.765C261.498 105.043 261.822 105.274 262.007 105.598C263.025 107.727 262.562 112.354 260.804 113.372Z" fill="#26064F"/>
<path fill-rule="evenodd" clip-rule="evenodd" d="M311.613 100.23C312.492 100.785 312.585 102.868 312.4 103.978C311.937 104.164 311.613 103.516 311.15 103.423C311.104 102.59 311.196 102.127 311.011 101.433C310.641 101.295 309.716 101.295 309.484 101.526C309.345 102.174 309.16 103.099 309.345 103.747C309.484 104.349 310.178 104.487 310.364 104.904C311.243 104.95 311.705 105.644 312.307 106.153C312.538 106.338 312.77 106.385 312.909 106.524C313.88 107.68 313.834 111.151 312.353 112.076C311.058 112.863 308.929 112.447 308.05 111.244C307.772 110.087 307.263 107.912 308.975 108.467C308.975 109.207 308.883 110.503 309.438 110.92C310.178 111.012 311.011 111.244 311.613 110.92C312.353 110.457 312.261 108.236 311.752 107.449C310.965 106.246 308.651 105.968 308.142 104.441C307.957 103.192 307.911 101.295 308.605 100.462C309.345 99.9988 310.502 100.091 311.613 100.23Z" fill="#26064F"/>
<path fill-rule="evenodd" clip-rule="evenodd" d="M300.461 101.526C300.507 101.943 300.322 102.174 300.368 102.59C301.803 102.498 304.163 102.128 305.088 103.423C305.32 103.747 305.505 104.441 305.643 104.858C306.014 106.57 305.69 109.069 305.643 111.012C305.227 111.151 304.81 111.012 304.394 110.92C304.209 108.884 304.718 106.57 304.163 104.812C303.7 103.423 302.173 103.794 300.553 103.84C300.414 105.876 300.461 108.838 300.414 111.151C300.044 111.105 299.443 111.244 299.165 111.059C299.211 107.727 298.841 104.349 299.304 101.434C299.767 101.434 299.952 101.526 300.461 101.526Z" fill="#26064F"/>
<path fill-rule="evenodd" clip-rule="evenodd" d="M284.913 109.393C285.838 108.745 286.255 107.635 287.088 106.848C288.013 105.182 288.846 103.377 290.234 102.174C290.327 102.591 290.604 102.868 290.79 103.239C288.8 106.061 287.597 109.162 285.005 111.383C284.496 111.013 284.033 110.642 283.756 109.995C283.756 109.856 283.478 109.948 283.432 109.856C282.784 108.236 281.812 106.94 281.072 105.46C280.47 104.303 279.221 103.424 279.313 101.85C279.545 101.711 279.869 101.665 280.1 101.526C281.673 104.164 283.524 106.57 284.913 109.393Z" fill="#26064F"/>
<path fill-rule="evenodd" clip-rule="evenodd" d="M221.932 108.745C221.747 110.827 224.662 110.087 225.773 110.041C225.912 110.365 225.588 110.874 225.634 111.336C223.644 111.614 221.469 111.568 220.775 110.041C220.451 107.542 220.22 104.488 221.747 103.192C222.904 102.729 224.708 102.637 225.68 103.192C226.652 103.747 226.652 105.552 226.235 106.755C225.68 108.236 223.783 108.699 221.932 108.745ZM222.533 104.442C221.978 105.089 221.886 106.246 221.839 107.449C224.153 107.727 225.31 106.524 224.986 104.442C224.153 104.349 223.181 104.071 222.533 104.442Z" fill="#26064F"/>
<path fill-rule="evenodd" clip-rule="evenodd" d="M293.009 108.699C292.824 110.782 295.74 110.041 296.85 109.995C296.989 110.319 296.665 110.828 296.711 111.291C294.722 111.568 292.547 111.522 291.853 109.995C291.529 107.496 291.251 104.442 292.824 103.146C293.935 102.683 295.786 102.591 296.758 103.146C297.729 103.702 297.729 105.506 297.313 106.663C296.758 108.19 294.86 108.653 293.009 108.699ZM293.611 104.396C293.056 105.043 292.963 106.2 292.917 107.403C295.231 107.681 296.387 106.478 296.064 104.396C295.231 104.303 294.259 104.025 293.611 104.396Z" fill="#26064F"/>
</svg>
