<svg width="590" height="118" viewBox="0 0 590 118" fill="none" xmlns="http://www.w3.org/2000/svg">
<path fill-rule="evenodd" clip-rule="evenodd" d="M68.8061 58.6728L71.4415 57.1638L104.425 79.7775L68.8061 58.6728ZM66.9114 57.4668L64.4597 56.0558L67.193 12.8945L66.9114 57.4668ZM63.9577 57.3199L53.0273 66.3648L66.1248 58.6392L63.9577 57.3199Z" fill="#26064F"/>
<path fill-rule="evenodd" clip-rule="evenodd" d="M67.5779 0.0996094C35.0501 0.0996094 8.67773 26.4689 8.67773 58.9998C8.67773 91.5307 35.0501 117.9 67.5779 117.9C100.109 117.9 126.481 91.5307 126.481 58.9998C126.481 26.4689 100.109 0.0996094 67.5779 0.0996094ZM67.5841 114.76C54.1254 114.76 41.53 110.272 32.1454 102.036C23.0148 94.0161 15.9228 81.2737 14.172 67.7294C18.3225 93.4866 40.6576 113.162 67.5841 113.162C97.4642 113.162 121.688 88.9381 121.688 59.058C121.688 46.6615 117.057 34.5221 110.041 25.4007C117.149 30.8827 123.286 46.4962 123.286 59.058C123.286 89.8197 98.3458 114.76 67.5841 114.76ZM62.4694 54.8034L67.2321 5.96729L67.5779 5.96423H67.7004L68.1687 57.3561L76.3657 52.4557L68.1197 5.97035C97.1612 6.26113 120.62 29.8879 120.62 58.9998C120.62 68.3538 118.195 77.1385 113.947 84.7662L77.134 53.9647L73.6476 55.942L113.696 85.2069L113.39 85.7334L68.3523 59.8232V68.9629L113.081 86.2507C103.809 101.696 86.9012 112.035 67.5749 112.035C48.27 112.035 31.374 101.717 22.0996 86.2966L66.8005 68.868V59.7314L21.7109 85.6416L21.414 85.1274L61.3215 55.942L57.8352 53.9647L21.1232 84.6039C16.7933 76.7656 14.5286 67.9546 14.5424 58.9998C14.5424 30.1175 37.6305 6.62843 66.3567 5.97646L59.1728 52.8261L62.4694 54.8034ZM67.5779 3.26453C36.8132 3.26453 11.8763 28.2044 11.8763 58.9661C11.8763 71.4606 16.4095 83.2786 23.324 93.4866C25.6686 97.8728 28.206 100.588 31.5914 104.172C18.3256 93.5753 9.74292 77.264 9.74292 58.9631C9.74292 27.023 35.6348 1.12806 67.5779 1.12806C99.5211 1.12806 125.906 28.1494 124.957 58.9631C124.155 28.8993 97.8346 3.26453 67.5779 3.26453ZM326.31 62.8994C326.31 52.5689 321.743 44.1944 311.716 44.1944C302.407 44.1944 297.115 52.5689 297.115 62.8994C297.115 73.2298 301.538 81.6043 311.716 81.6043C321.599 81.6043 324.504 76.7069 326.022 68.8742L322.615 68.8619C322.328 71.7667 320.433 78.3108 313.169 78.4547C304.884 78.623 304.305 67.9896 304.446 62.9024L304.59 59.9946C304.59 56.7991 304.302 47.3502 312.003 47.3502C318.107 47.3502 318.979 55.2013 318.979 59.9946H304.59L304.446 62.9024L326.31 62.8994ZM154.369 31.3235L154.222 33.6497H156.401C157.999 33.6497 160.037 33.7936 160.037 35.8291L159.312 75.2224C159.312 76.6763 158.584 78.2741 155.676 78.2741H153.496L153.349 80.6003H168.029V78.2741H165.559C163.668 78.2741 162.361 77.6925 162.361 75.2224L163.086 37.4299L178.785 78.1272H180.383L196.226 36.9922L196.955 75.2224C196.955 76.5294 195.645 78.2741 193.609 78.2741H190.557V80.6003H209.017V78.2741H206.838C205.24 78.2741 203.349 77.4017 203.349 75.3663L202.62 36.4106C202.62 35.1006 204.074 33.6497 205.528 33.6497H208.289V31.3235H195.06L181.396 67.0805L167.732 31.3235H154.369ZM256.62 80.6309V78.7424H255.166C253.859 78.7424 251.533 78.3047 251.533 75.6877V56.646C251.533 50.6865 254.585 48.5072 257.636 48.5072C258.799 48.5072 259.528 49.0887 259.234 51.2681C258.943 53.4474 260.832 54.9013 262.433 54.7574C264.033 54.6136 266.069 54.3197 265.775 50.2519C265.481 46.184 263.161 44.2924 259.09 44.2924C255.892 44.2924 253.274 46.3278 252.549 47.3471C251.704 48.5317 250.657 48.0725 250.514 46.7655C250.37 45.4585 249.788 44.1516 248.334 44.5862C245.553 45.4752 242.672 46.012 239.758 46.184V47.6379C245.861 47.3471 245.283 50.3988 245.283 51.8527V75.6907C245.283 78.3078 242.956 78.7455 241.646 78.7455H239.611V80.634L256.62 80.6309ZM289.001 46.5054C286.858 44.9413 284.165 44.0444 280.887 44.0444C271.585 44.0444 266.289 52.4189 266.289 62.7524C266.289 73.0828 270.709 81.4084 280.887 81.4574C289.898 81.5033 292.08 76.4161 293.595 68.5803L290.189 68.565C289.898 71.4698 288.882 78.1578 282.34 78.3047C274.058 78.4914 273.476 67.8365 273.62 62.7524C273.62 59.5538 274.058 46.7594 281.033 46.7594C286.99 46.7594 290.626 50.9773 290.626 55.7737H292.515V43.5639H290.917L289.001 46.5054ZM499.285 78.4516C491 78.62 490.421 67.9865 490.562 62.8994H512.426C512.426 52.5689 507.865 44.1944 497.831 44.1944C488.529 44.1944 483.237 52.5689 483.237 62.8994C483.237 73.2298 487.654 81.6043 497.831 81.6043C507.715 81.6043 510.626 76.7069 512.138 68.8742L508.737 68.8589C508.443 71.7667 506.555 78.3108 499.285 78.4516ZM498.125 47.3471C504.229 47.3471 505.101 55.1982 505.101 59.9915H490.712C490.712 56.796 490.421 47.3471 498.125 47.3471ZM379.786 78.4516C371.5 78.62 370.922 67.9865 371.063 62.8994H392.926C392.926 52.5689 388.36 44.1944 378.332 44.1944C369.03 44.1944 363.732 52.5689 363.732 62.8994C363.732 73.2298 368.155 81.6043 378.332 81.6043C388.216 81.6043 391.12 76.7069 392.639 68.8742L389.232 68.8589C388.944 71.7667 387.056 78.3108 379.786 78.4516ZM378.62 47.3471C384.729 47.3471 385.596 55.1982 385.596 59.9915H371.207C371.207 56.796 370.922 47.3471 378.62 47.3471ZM225.516 78.4516C217.233 78.62 216.651 67.9865 216.795 62.8994H238.659C238.659 52.5689 234.092 44.1944 224.065 44.1944C214.76 44.1944 209.467 52.5689 209.467 62.8994C209.467 73.2298 213.887 81.6043 224.065 81.6043C233.948 81.6043 236.856 76.7069 238.371 68.8742L234.964 68.8619C234.674 71.7667 232.785 78.3108 225.516 78.4516ZM224.352 47.3471C230.459 47.3471 231.328 55.1982 231.328 59.9915H216.939C216.939 56.796 216.651 47.3471 224.352 47.3471ZM357.965 73.04V32.4835C357.965 30.8123 357.099 29.4288 355.639 29.8665C352.859 30.7565 349.979 31.2933 347.065 31.4643V32.9182C351.28 32.6274 351.718 33.9375 351.718 35.3914V47.8919C349.829 46.1472 347.647 44.4026 343.726 44.4026C338.783 44.4026 329.625 48.3266 329.625 62.1341C329.625 80.3065 340.237 81.4666 343.435 81.4666C346.634 81.4666 350.849 78.8526 351.721 77.4691C351.791 77.1783 352.229 76.8141 352.373 77.4691C352.523 78.7791 353.466 80.7381 354.92 80.3034C357.7 79.415 360.58 78.8782 363.493 78.7057V77.2518C357.387 77.5456 357.965 74.4908 357.965 73.04ZM351.718 68.6783C351.574 76.6702 347.359 79.1434 343.87 79.1434C336.022 78.9995 336.6 67.0805 336.6 61.9903C336.6 56.9001 336.894 46.8727 344.014 47.745C351.139 48.6174 351.721 56.1746 351.721 60.6802L351.718 68.6783ZM443.293 59.8232V56.4807H424.11V59.8232H443.293ZM397.68 68.2742V80.6279H399.275L400.729 77.4293C402.182 78.7393 405.237 80.9187 409.158 80.9187C413.085 80.9187 418.61 78.7393 420.793 74.6714C422.969 70.6005 421.953 63.9125 417.009 61.877C412.681 60.0956 408.886 57.9622 405.963 56.4991C405.053 56.0658 404.308 55.3509 403.837 54.4604C403.366 53.5699 403.195 52.5513 403.349 51.5558C403.786 49.2295 405.819 46.7594 410.468 46.6125C415.121 46.4686 417.444 50.3927 418.032 54.8983H419.626V43.2731H418.172L416.572 46.034C413.523 43.9985 412.213 43.7078 409.452 43.7078C406.691 43.7078 402.039 45.1616 399.422 49.2326C396.808 53.3035 397.533 59.6946 403.786 62.3147C410.034 64.9287 412.944 66.5295 414.686 67.4019C416.431 68.2742 417.447 71.7636 416.287 73.7991C415.121 75.8315 412.944 78.1608 409.455 78.1608C405.966 78.1608 400.447 75.6876 399.137 68.2773L397.68 68.2742ZM470.614 53.9984C474.107 53.126 477.596 46.8757 477.596 42.6609C477.596 38.4461 475.995 31.3235 465.818 31.3235H444.015V33.212C446.198 33.212 449.975 33.6497 449.975 37.283V73.1869C449.975 75.2224 449.831 78.5649 444.015 78.5649V80.6003H461.897C467.272 80.6003 479.628 80.1626 479.922 65.9204C479.922 61.121 477.596 55.4523 470.614 53.9984ZM456.225 33.6497H463.495C468.876 33.6497 471.052 37.5707 471.052 42.6609C471.052 48.9112 469.163 53.7076 463.495 53.7076H456.225V33.6497ZM463.639 78.2741H456.225V56.0338H464.511C469.31 56.0338 473.525 59.3763 473.525 66.6428C473.525 73.9123 469.16 78.2741 463.639 78.2741ZM539.288 54.1759V75.6877C539.288 78.3047 536.961 78.7424 535.651 78.7424H534.779V80.6309H550.622V78.7424H549.168C547.858 78.7424 545.532 78.3047 545.532 75.6877V54.3228C545.388 44.5831 536.668 44.2924 533.616 44.2924C530.417 44.2924 526.925 46.3278 526.203 47.3471C525.355 48.5317 524.308 48.0725 524.164 46.7655C524.02 45.4585 523.442 44.1516 521.982 44.5862C519.202 45.4752 516.322 46.012 513.408 46.184V47.6379C519.512 47.3471 518.933 50.3988 518.933 51.8527V75.6907C518.933 78.3078 516.607 78.7455 515.297 78.7455H513.264V80.634H530.267V78.7455H528.813C527.503 78.7455 525.177 78.3078 525.177 75.6907V56.6491C525.177 53.4535 526.343 48.3633 532.303 47.9256C538.268 47.491 539.288 51.415 539.288 54.1759ZM553.992 54.9044L556.609 45.0208H581.323L560.099 78.5985H571.433C574.05 78.5985 576.085 77.5793 578.846 70.8913H580.013L577.686 80.6309H552.391L573.471 47.0563H564.02C561.693 47.0563 559.082 47.0563 555.446 54.9044H553.992Z" fill="#26064F"/>
</svg>
