<svg width="450" height="118" viewBox="0 0 450 118" fill="none" xmlns="http://www.w3.org/2000/svg">
<g clip-path="url(#clip0_5251_3981)">
<path fill-rule="evenodd" clip-rule="evenodd" d="M397.146 34.7849C397.146 32.6722 395.445 30.9613 393.33 30.9613H387.677C385.562 30.9613 383.861 32.6794 383.861 34.7922V93.9328C383.861 96.0479 385.567 97.7589 387.677 97.7589H393.335C395.445 97.7589 397.146 96.0383 397.146 93.928V34.7849ZM404.353 36.3563V39.1693C404.353 40.3291 405.304 41.27 406.468 41.27H445.468C447.248 41.27 448.692 39.8334 448.692 38.0552V33.2954C448.692 31.5147 447.231 29.9049 445.468 30.0805C445.468 30.0805 407.76 33.7815 406.552 33.9163C405.945 33.9697 405.381 34.2511 404.973 34.7038C404.565 35.1565 404.344 35.7469 404.353 36.3563ZM372.778 97.7613C363.075 97.7613 356.967 90.4003 356.967 82.2091L356.962 58.5451H354.186C353.835 58.5455 353.487 58.4766 353.162 58.3424C352.837 58.2082 352.542 58.0114 352.294 57.7631C352.045 57.5149 351.848 57.2201 351.713 56.8955C351.578 56.571 351.509 56.2231 351.508 55.8717V51.9109C351.508 50.431 352.711 49.2398 354.196 49.2398L356.962 49.2446L356.957 34.6959C356.957 32.6361 358.615 30.9661 360.679 30.9661H366.196C368.25 30.9661 369.917 32.6481 369.917 34.7079V49.247L378.511 49.2446C379.99 49.2446 381.198 50.4334 381.198 51.9157V55.8765C381.198 57.3588 379.995 58.55 378.52 58.55L369.917 58.5476L369.927 80.4356C369.927 84.7309 372.53 87.6643 377.178 87.6643H377.962C379.569 87.6643 380.876 88.9565 380.876 90.5639V94.8592C380.876 96.4715 379.574 97.7637 377.967 97.7637L372.778 97.7613ZM281.917 47.5385C266.231 47.5385 257.436 59.8157 257.436 72.7546C257.436 86.5429 266.857 98.6781 282.02 98.6781C292.399 98.6781 302.628 93.2085 304.56 84.2304C304.822 83.0176 304.006 81.4294 302.301 81.4198L294.881 81.4246C293.537 81.4246 292.437 82.0695 291.775 83.0417C289.651 86.1531 286.545 87.8062 281.95 87.8062C275.452 87.8062 270.951 82.6879 270.612 77.0114H302.144C305.048 77.0114 306.35 75.4328 306.35 72.7522C306.35 60.1405 298.88 47.5385 281.917 47.5385ZM281.917 57.6644C287.705 57.6644 292.704 61.7841 293.212 67.3596H270.706C271.213 61.7841 276.128 57.6644 281.917 57.6644ZM425.616 47.5385C409.928 47.5385 401.13 59.8157 401.13 72.7546C401.13 86.5429 410.551 98.6781 425.714 98.6781C436.093 98.6781 446.322 93.2085 448.254 84.2304C448.516 83.0176 447.701 81.4294 445.995 81.4198L438.58 81.4246C437.231 81.4246 436.131 82.0695 435.47 83.0417C433.345 86.1531 430.239 87.8062 425.644 87.8062C419.146 87.8062 414.645 82.6879 414.306 77.0114H445.838C448.742 77.0114 450.044 75.4328 450.044 72.7522C450.044 60.1405 442.571 47.5385 425.616 47.5385ZM425.616 57.6644C431.399 57.6644 436.403 61.7841 436.906 67.3596H414.4C414.905 61.7841 419.82 57.6644 425.616 57.6644Z" fill="#26064F"/>
<path fill-rule="evenodd" clip-rule="evenodd" d="M346.357 31.6237H244.21C241.888 31.6237 240.014 33.5103 240.014 35.8324L240.363 75.9581C240.363 75.9581 218.355 36.1885 217.208 34.1624C216.127 32.2542 213.811 30.4951 210.601 30.4951H202.203C199.879 30.4951 198 32.3817 198 34.7038L198.005 93.5509C198.005 95.873 199.881 97.7571 202.205 97.7571H207.592C208.708 97.7546 209.777 97.3091 210.564 96.5186C211.352 95.7281 211.794 94.6573 211.792 93.5412L211.453 52.2893C211.453 52.2893 233.675 92.4511 234.625 94.0345C235.908 96.1738 238.08 97.7571 241.222 97.7571H248.937C251.264 97.7571 253.138 95.873 253.138 93.5509L253.133 41.598H346.361C346.738 41.5989 347.111 41.5256 347.459 41.3821C347.807 41.2386 348.124 41.0278 348.39 40.7618C348.657 40.4958 348.868 40.1798 349.013 39.8319C349.157 39.484 349.231 39.1111 349.231 38.7344V34.4872C349.229 33.7263 348.926 32.9972 348.387 32.4603C347.847 31.9233 347.117 31.6224 346.357 31.6237Z" fill="#26064F"/>
<path fill-rule="evenodd" clip-rule="evenodd" d="M329.821 57.1739C334.262 57.1739 337.584 58.7862 338.782 61.5703C339.355 62.9107 340.469 63.1681 341.997 63.1681H348.105C349.12 63.1681 350.27 62.2994 350.27 60.9784C350.27 53.8748 341.806 47.5341 329.816 47.5341C317.412 47.5341 309.268 53.4465 309.268 62.8577C309.268 70.0623 314.953 74.348 321.949 76.1768C325.139 77.0142 330.586 78.357 333.235 79.0524C336.093 79.8032 338.648 80.6743 338.648 83.1263C338.648 86.9885 334.57 88.3048 330.129 88.3048C325.914 88.3048 321.718 86.4206 320.515 83.4175C319.815 81.6729 318.598 81.4202 316.748 81.4202H310.536C309.451 81.4202 308.205 82.3515 308.205 83.7664V84.5653C308.205 91.4402 317.424 98.6376 330.138 98.6376C339.155 98.6376 351.721 94.8909 351.721 82.7942C351.721 75.787 347.037 70.9358 339.41 69.0011C336.427 68.2455 329.26 66.4215 327.701 66.0172C324.92 65.2977 322.332 64.3905 322.332 62.0083C322.332 58.4012 325.664 57.1739 329.821 57.1739ZM103.708 18.0276C104.251 18.0276 104.771 17.8118 105.155 17.4278C105.539 17.0438 105.755 16.5229 105.755 15.9798C105.755 15.4367 105.539 14.9158 105.155 14.5318C104.771 14.1478 104.251 13.932 103.708 13.932C103.165 13.932 102.644 14.1478 102.26 14.5318C101.876 14.9158 101.66 15.4367 101.66 15.9798C101.66 16.5229 101.876 17.0438 102.26 17.4278C102.644 17.8118 103.165 18.0276 103.708 18.0276ZM76.2144 14.4012C76.6713 14.4012 77.1094 14.2197 77.4324 13.8966C77.7555 13.5735 77.937 13.1353 77.937 12.6783C77.937 12.2213 77.7555 11.7831 77.4324 11.46C77.1094 11.1369 76.6713 10.9554 76.2144 10.9554C75.7576 10.9554 75.3195 11.1369 74.9964 11.46C74.6734 11.7831 74.4919 12.2213 74.4919 12.6783C74.4919 13.1353 74.6734 13.5735 74.9964 13.8966C75.3195 14.2197 75.7576 14.4012 76.2144 14.4012ZM55.6042 56.5314L54.7646 55.6315C57.103 53.4585 59.5785 49.9934 59.9803 47.9601C60.3532 46.0687 63.0717 46.3695 62.5545 48.4269C61.8977 51.057 58.6788 54.2334 55.6042 56.5314ZM38.16 15.1183C33.8561 16.9808 33.2258 21.3941 36.245 24.0434C39.8849 27.2343 45.8873 24.4549 45.3099 19.5701C50.1912 19.8203 53.3404 14.7766 52.5633 11.2345C54.7357 9.3744 54.9523 5.39913 52.3468 3.83742C49.5537 2.16501 46.9242 2.80508 45.2498 6.03199C40.7775 5.70713 36.4928 9.2252 38.16 15.1183L36.0886 14.2135C33.3581 8.50089 38.1407 2.66553 44.006 4.01067C44.4309 3.09035 45.0496 2.27266 45.8195 1.61351C46.5895 0.954359 47.4927 0.469292 48.4674 0.191464C49.4421 -0.0863649 50.4653 -0.150394 51.467 0.00374358C52.4687 0.157881 53.4253 0.526545 54.2714 1.08455C58.0365 3.36576 58.8328 9.25167 54.8296 12.1056C56.7181 17.5993 52.9531 22.0871 47.2249 21.5745C46.5537 28.6396 39.8897 29.5516 35.5858 26.1971C33.156 24.3033 32.1624 21.678 31.6933 19.6976C31.2001 17.6017 31.2001 15.7247 29.1311 13.5662C27.5746 11.9372 24.7863 11.9925 24.7863 11.9925C24.7863 6.85978 19.9868 2.1626 14.0277 4.4366C11.9155 2.6174 9.3052 2.43692 7.43592 4.68685C6.34851 5.99349 5.74948 9.42734 9.10071 11.0011C8.9275 15.679 12.4928 18.6653 17.7061 18.2514C17.9106 20.7371 20.6652 23.0472 23.1071 23.3769L23.0854 24.6258C20.48 24.3755 19.0702 25.2851 17.3333 27.4388C11.2058 27.15 6.91387 29.8764 7.0919 34.2728C2.78557 35.091 1.97964 39.6004 4.42149 42.002C6.86335 44.4035 10.4431 43.4626 11.6629 40.5942C16.0077 41.422 19.8449 38.3082 20.0205 34.7156C24.079 34.7156 25.8545 33.1105 26.5185 29.3783L28.0509 29.5034C28.5032 33.522 26.6436 37.3361 21.8008 36.8813C21.6757 41.6795 17.0205 44.3626 12.6781 42.7046C10.65 46.5139 6.00449 48.0371 2.10474 44.3193C-1.6627 40.729 -0.286596 34.5808 4.63801 33.0913C4.75108 28.3869 8.22501 23.9183 14.9732 25.6413C14.9732 25.6413 15.8417 23.5405 17.9539 23.4154C16.5466 22.8379 15.4808 22.0606 15.1897 20.612C10.0991 21.6973 5.77594 17.0097 6.93311 12.2909C2.3405 9.87252 2.26592 5.33416 4.54419 2.63665C6.91868 -0.171548 10.8738 -0.792383 14.4126 2.23479C20.4054 -1.08596 27.1801 2.98075 26.7663 9.80994C30.9571 9.5308 33.5024 13.1957 33.0357 17.0121C33.7262 15.3301 34.5345 14.5504 36.0838 14.2135L38.16 15.1183Z" fill="#26064F"/>
<path fill-rule="evenodd" clip-rule="evenodd" d="M48.4556 6.92188L49.4685 7.64619C47.5029 11.7947 44.0242 16.2007 41.0459 18.6239L39.9079 17.7672C42.0202 14.331 46.5527 8.65925 48.4556 6.92188ZM19.1341 29.7075L19.8174 30.7206C17.3346 33.2665 12.7396 36.6618 10.3001 37.8409L9.34745 36.8062C11.7075 34.2603 16.2159 30.9275 19.1341 29.7075ZM25.0716 17.3798L23.8735 18.8621C20.6233 16.7301 14.2095 10.9982 12.7636 8.93117L13.7741 7.89884C16.8799 9.47259 22.94 14.8772 25.0716 17.3798ZM19.0427 71.7727C19.4132 73.6328 19.1028 75.6927 20.7797 77.7044C21.3715 78.4094 24.6265 82.6951 26.9865 84.9089C23.7797 86.1723 17.3659 88.7808 12.7492 89.3607C11.8254 89.4786 10.7861 90.1259 9.91521 90.624C9.33783 91.6106 8.7412 93.3744 8.491 95.3669C8.31297 96.7914 8.33703 98.3748 8.33703 99.9919C8.33703 101.416 9.09003 105.895 10.6827 108.903C12.2777 111.91 13.8077 113.256 15.6915 114.134C16.0644 113.97 16.8847 113.848 18.1646 113.819C21.6505 113.739 24.3787 115.667 25.5816 117.32C26.0411 117.955 26.9649 118.08 28.1798 118.08C30.9921 118.08 34.086 117.154 37.0234 116.035C37.6513 115.518 39.422 114.338 41.1613 112.972C42.8983 111.61 52.5815 103.394 56.8662 101.32C59.1228 102.543 62.8277 104.116 66.6529 104.116C66.8742 104.116 67.6103 104.126 68.3922 103.953C69.5879 103.681 71.1204 103.149 73.0474 102.769C76.4997 102.097 80.5486 101.505 81.7298 101.522C84.9054 101.573 94.2133 101.813 96.4194 101.813C98.7338 101.813 102.034 101.611 103.295 101.489C105.244 100.844 109.586 99.6406 113.746 97.7203C117.896 95.8819 126.633 89.8155 128.062 88.4294C128.758 87.8086 129.374 87.1276 129.828 86.5212C129.999 86.2854 130.062 86.1915 130.062 86.0038L130.014 79.8749C130.014 79.8749 132.102 77.5576 132.901 76.7539C132.977 76.6793 132.982 76.571 132.97 76.4964C132.612 75.3077 132.253 71.6091 132.458 67.8576L130.343 66.871C130.248 70.8114 129.079 74.6511 126.963 77.9763C123.819 78.4744 117.819 80.3345 115.658 82.7938L116.847 83.1331C118.875 82.0141 121.047 81.2296 123.53 81.2296C125.724 81.2296 126.691 81.8072 126.691 82.4232C126.691 82.8563 126.277 83.8935 126.119 84.2231C125.929 84.5985 125.803 85.0774 125.435 85.4768C122.437 88.7676 118.924 91.5487 115.033 93.7113C112.276 95.2538 109.675 96.2909 105.609 97.4436C104.392 97.7877 102.723 98.281 101.638 98.6564C100.105 98.6082 92.0987 98.3748 87.4219 98.3748C82.7474 98.3748 73.1051 99.0558 70.0402 99.8307C68.6496 100.182 68.3032 100.743 66.6865 100.743C63.6673 100.743 59.705 99.2098 57.2728 98.0307C56.9215 98.1342 56.041 98.524 55.1629 98.962C53.4356 99.821 49.596 105.151 47.3634 103.539C46.2231 105.875 41.3009 108.089 39.6168 110.512C39.8021 109.244 41.7892 101.015 41.9769 99.3686C42.0106 99.0775 42.0346 98.8417 41.8494 98.5312C40.0523 95.5281 35.029 93.6199 32.1974 93.0664C31.365 92.9028 30.9561 92.7897 30.3979 92.6622L25.9304 91.3122L21.7853 92.6622L26.5679 93.579L20.4982 97.6024C21.5519 97.1981 28.0932 95.3838 28.5768 95.2394C29.1108 95.0806 29.8253 94.9241 30.6048 95.196C31.495 95.5065 34.0186 96.084 35.5198 96.6062C36.4027 96.9118 37.8486 98.5336 38.2215 99.3975C38.373 99.7585 38.4308 100.516 38.5294 102.194C38.5896 103.25 38.3201 104.718 38.0651 105.859C37.3963 108.842 36.0395 111.174 35.6112 112.007C35.0194 113.155 34.2014 113.525 33.3955 113.905C32.0723 114.526 30.4557 114.916 28.6586 114.94C27.4244 114.955 26.5992 114.89 26.0724 114.175C24.4148 111.937 20.3202 109.766 16.1389 110.575C13.5744 109.023 11.0315 104.013 11.0315 100.023C11.0315 97.6313 12.2392 93.8605 12.8887 91.9667C17.0652 91.4085 25.418 88.2249 29.4813 86.3792C30.333 86.3359 32.669 85.5105 34.9015 85.5105C40.365 85.5105 45.7852 90.2895 49.0763 93.5188C49.6152 92.6309 50.628 91.2857 53.4211 91.2857C57.2896 91.2857 59.5029 94.8014 60.612 98.4205L62.628 96.9551C62.2261 94.7057 61.1603 92.6281 59.5679 90.9898C58.2327 89.6542 55.6898 88.5449 53.7002 88.5449C52.5045 88.5449 51.2607 88.812 50.4765 88.812C47.7122 88.812 46.5863 87.58 44.5462 86.1747C42.3426 84.6515 38.2431 82.4425 35.3177 82.4425C33.434 82.4425 32.5872 83.1812 31.033 83.186C28.7476 83.2004 27.8983 82.2499 26.8037 80.8879C26.325 80.2912 24.0106 78.2362 23.3923 77.4108C23.0363 76.9367 22.406 74.9948 22.1774 74.0227L19.0427 71.7727Z" fill="#26064F"/>
<path fill-rule="evenodd" clip-rule="evenodd" d="M22.1866 74.023C22.8506 74.7329 23.4905 75.5174 24.3205 76.1526C25.1216 76.759 26.1345 77.286 27.0847 77.8251C28.4272 78.5855 29.95 79.4566 31.4608 79.9354C32.784 80.3349 34.5017 80.4985 36.1136 80.4985C38.4111 80.4985 41.1224 80.0245 43.367 81.0712C44.873 81.7763 44.974 83.3645 46.1697 83.8289C48.0318 84.5532 53.2066 84.7216 56.0742 84.7216C61.7543 84.7216 67.8986 84.0021 71.5289 83.1334L69.7583 81.1819C67.2466 81.5814 59.8754 82.3851 56.4929 82.3851C51.727 82.3851 47.2258 81.6247 47.2258 79.6491C47.2258 78.2871 48.6934 76.3163 51.4865 76.3163C54.4864 76.3163 59.0213 78.1307 59.8585 78.3785C60.6981 78.6288 61.0398 78.5614 61.5666 78.3184L63.3228 77.4112C60.9916 76.3259 52.877 73.5346 50.0502 73.5346C48.7126 73.5346 47.9885 73.7271 47.12 74.846C46.035 76.2417 43.1384 77.5146 38.5121 77.5146C35.9765 77.5146 32.3486 77.0623 31.5523 76.735C30.1593 76.1623 27.4312 74.5789 25.687 73.318C23.4376 71.6961 21.4793 69.8962 20.1321 67.7954C19.7431 67.1934 19.5382 66.4909 19.5427 65.7741C19.5475 65.2279 19.7014 64.7201 19.7568 64.3183C20.1585 64.8765 20.594 65.2808 21.1497 65.803C23.5916 68.1805 27.1954 69.966 30.9003 70.6758C31.9564 70.878 32.8947 71.0368 33.9388 71.0368C35.5194 71.0368 36.9797 70.1897 37.9083 69.3596L36.4528 67.6679C35.9837 67.8099 35.0117 67.8099 34.3718 67.8099C28.9925 67.8099 22.1649 64.2894 20.594 60.2203C20.4376 59.8208 20.25 59.5994 20.4063 59.2289C20.5627 58.8535 20.7576 58.0618 20.8706 57.3327C21.1858 57.6936 21.8354 58.2399 22.6605 58.7717C24.6597 60.0542 28.4729 61.8301 29.2187 62.297C31.1409 61.7435 32.5867 61.0986 33.7295 60.5066C35.0932 59.7904 36.6087 59.4117 38.1489 59.4021C42.0799 59.4021 46.5979 61.6448 50.8417 63.7359L53.7383 62.5929C49.9732 59.946 41.7792 56.2402 37.2251 56.2402C34.5378 56.2402 32.0118 58.2062 30.2122 58.2062C28.0037 58.2062 21.6766 55.1212 21.6766 52.5489C21.6766 50.5708 25.7712 49.4495 32.3558 48.6386C31.2101 50.3324 30.1323 52.0711 29.1248 53.8507L30.8017 54.7819C41.1152 39.8434 51.8425 30.1434 60.8665 24.2335C64.1432 22.0846 64.8914 20.8309 66.0365 18.4871C68.832 12.7721 71.4688 8.37809 76.0542 8.37809C78.1953 8.37809 79.9443 9.57885 81.1448 11.0708L84.4647 12.0622L81.1039 14.3386L84.5393 15.703C80.0574 16.9615 73.9323 21.3218 71.4543 27.7202C66.6765 27.9753 64.3717 31.8423 62.8104 35.0837C61.7567 37.2686 60.0823 38.1421 57.6404 39.7953L38.1104 53.4127L40.7976 53.7833L58.8409 41.6987C62.399 39.2972 64.0927 37.5261 64.9443 35.82C66.6187 32.4728 68.4207 29.9846 71.9595 29.9846C73.6989 29.9846 75.561 30.7306 77.0501 32.1359L80.2137 33.1706L76.759 35.2834L79.6556 37.0617C71.3798 39.6557 66.2482 45.5873 63.2675 56.9284L65.464 57.4265C66.5634 53.6702 67.646 50.2267 69.585 47.1875C74.3821 47.1322 79.237 46.9565 84.0028 46.9565C96.7197 46.9565 107.276 47.4931 112.973 49.1704L110.957 45.6691C104.861 44.6344 96.0172 44.0978 84.0028 44.0978C79.9732 44.0978 75.893 44.247 71.8393 44.2903C74.4543 41.5206 78.2218 39.1913 84.0221 37.3913L79.9058 35.1246L84.4768 32.5883L78.2482 30.271C77.1584 29.2916 75.804 28.394 74.1007 27.9657C76.0926 21.8343 82.8889 18.2513 89.4014 15.7824L84.84 13.9223L89.4423 11.4029L82.3573 9.14089C80.5072 6.96796 78.7246 5.97656 75.9916 5.97656C69.4215 5.97656 66.6596 11.6844 64.0542 16.7425C62.6829 19.4063 61.8144 20.5277 59.4832 22.0557C54.4311 25.362 47.9885 30.4178 41.8393 36.8932C38.6252 34.5759 32.0623 27.8021 30.2772 24.1059C29.5747 24.9746 28.8794 26.8684 28.8794 26.8684C29.5507 27.5783 37.2852 35.3917 40.1577 38.7028L39.5081 39.4295C36.4456 40.0383 28.4849 40.8035 25.776 40.4354L24.2556 43.1353C26.2788 42.9355 34.1866 42.0043 37.468 41.8118C36.4624 43.0304 35.4885 44.2749 34.5474 45.544C24.3758 46.6991 17.5844 48.7853 17.5844 52.5441C17.5844 53.1625 17.8322 53.8651 17.8322 54.5293C17.8322 56.103 17.2451 56.6806 16.1265 57.3856C15.3975 57.8428 15.3518 58.1629 15.6622 58.596C15.9749 59.0364 17.5435 61.3561 17.5435 61.8133C17.5435 62.564 16.7953 63.3221 16.1914 63.9934C15.6622 64.5854 15.6838 64.7418 16.0976 65.4877L19.0471 71.7563L22.1866 74.023ZM148.109 39.1263C147.46 39.8097 146.887 40.5388 146.406 41.3137L144.768 39.0132C150.238 31.722 164.685 28.3002 173.161 27.6986V23.7883C172.085 24.1204 170.926 24.4933 169.853 24.7484C168.332 25.1142 166.937 25.4535 165.753 25.4222C164.57 25.3933 163.61 24.9193 163.167 24.2864C162.029 22.6621 163.085 20.2077 166.809 17.912L163.872 15.4696C161.606 18.4101 159.373 21.6539 157.102 23.591C155.038 25.3524 152.875 26.2307 151.129 24.9265C150.188 24.2238 149.834 23.9038 149.74 22.0702C149.866 19.3775 151.504 15.2626 152.947 12.6132L149.471 12.2042C148.853 16.2613 147.19 19.7216 145.41 22.5755C143.192 26.1369 140.331 28.6347 137.387 30.68L135.455 28.7766C137.832 27.3737 140.808 25.0925 142.855 21.9474C145.23 18.2946 147.157 13.7779 147.159 9.6751L157.215 10.628C155.803 12.4231 153.472 16.5187 152.586 19.4593C152.127 20.9945 152.149 22.2145 152.704 22.6308C153.77 23.4297 155.637 22.1544 157.449 20.2125C160.003 17.4668 162.505 13.3255 163.61 11.848L170.882 17.8831C167.649 19.5964 164.517 21.5528 165.14 22.6525C165.71 23.6535 167.781 23.3527 170.05 22.6573C171.929 22.077 173.738 21.2901 175.444 20.3111V30.1434C171.938 30.0953 166.001 30.7498 160.283 32.4848C161.642 34.4051 165.546 35.1101 168.027 35.4518L166.783 43.4312C160.523 40.8011 155.695 39.2707 148.109 39.1263L150.619 36.9702C156.21 37.0857 161.813 38.71 164.988 40.3078L165.443 37.2879C162.582 36.9101 158.979 35.2834 157.453 33.4401C154.963 34.3762 152.606 35.5433 150.619 36.9702L148.109 39.1263Z" fill="#26064F"/>
<path fill-rule="evenodd" clip-rule="evenodd" d="M118.143 64.4769L120.472 59.4476C117.734 56.2072 115.229 52.7768 112.976 49.1822L110.959 45.681C106.302 36.8328 107.998 32.6049 105.513 28.7114C103.458 25.4942 93.4792 27.4962 91.824 27.8428L94.7109 23.0614L89.0213 23.5137L93.8425 17.7842C94.3693 17.0383 94.6171 16.3573 95.1753 14.3697C96.0269 11.3497 98.6203 6.19531 106.215 6.19531C114.645 6.19531 117.258 13.0173 120.934 15.9819C125.953 20.0368 130.796 24.3048 135.45 28.774L137.382 30.6774C139.872 33.2233 142.42 35.8414 144.768 39.0106L146.406 41.311C156.554 56.1293 169.162 84.4543 174.736 97.4269C175.275 98.6806 175.66 99.956 175.995 100.923C171.787 98.5791 167.698 96.0268 163.744 93.2759L161.242 91.5145C159.673 90.3831 158.121 89.2271 156.587 88.047L154.016 86.0256C152.468 84.7875 150.944 83.5216 149.442 82.2284L154.516 111.786C154.889 113.525 156.376 113.239 157.576 111.706C158.777 110.173 159.231 109.755 158.777 107.731L154.016 86.0256L156.587 88.047L161.151 106.489C161.594 108.152 162.296 108.679 164.24 108.763C166.186 108.847 166.6 108.101 166.186 106.821L161.242 91.5145L163.744 93.2759L168.424 107.023C169.624 110.544 168.424 110.958 166.314 110.958C164.204 110.958 162.301 110.46 161.141 111.208C159.984 111.952 158.531 113.985 156.794 115.768C155.259 117.337 153.029 116.928 152.574 113.982L146.967 80.0483C143.362 76.8234 139.943 73.3961 136.728 69.7829C135.295 69.1657 133.873 68.5231 132.462 67.8554L130.348 66.8688C129.848 66.6288 129.34 66.4096 128.822 66.2118C127.271 68.0768 125.781 70.1558 124.044 71.6454C123.121 72.4395 122.49 72.8918 121.126 72.8918C120.705 72.8918 120.183 72.887 119.697 72.6103C119.178 72.3191 118.689 71.732 118.146 70.9042C117.734 70.2737 117.125 69.47 116.594 68.5773C115.485 66.7172 114.289 64.3806 113.211 62.4916C112.004 60.3668 110.964 58.7835 110.822 58.5212C110.606 58.1169 110.016 57.6188 110.016 57.6188C109.425 58.5837 108.989 60.4438 108.989 61.4689L106.879 60.7543C107.158 59.3586 107.719 57.5562 108.027 56.6875C108.027 55.9416 107.19 54.9478 106.506 54.9478C105.544 54.9478 104.553 56.0041 104.055 58.0231L101.914 58.9543C102.164 55.6937 103.278 52.1251 106.506 52.1251C109.114 52.1251 110.729 54.1128 111.97 55.9753C113.209 57.833 117.277 63.3916 118.143 64.4769L119.757 66.5223C120.039 67.8 120.58 68.5388 120.842 68.9479C121.403 69.8165 122.024 69.7564 122.861 68.9767C123.243 68.6254 124.473 67.6244 125.664 66.3827C126.698 65.3022 127.704 63.9908 128.108 63.3266C129.291 63.8584 131.498 64.9148 133.273 65.6945C125.654 56.3049 118.36 44.9085 115.196 37.1577C113.887 33.9549 116.445 32.8816 117.679 36.0387C121.032 44.6077 130.838 59.758 138.039 67.7014C146.363 76.8888 161.627 90.1814 171.558 95.5211C170.12 92.7105 168.217 88.6774 166.023 84.0019C153.943 77.1679 141.734 64.6188 136.044 53.8384L138.546 54.1272C143.844 63.4951 156.493 75.9912 163.968 79.6248C157.136 65.1218 148.242 46.7397 141.301 38.8325C132.691 29.0267 123.289 21.4419 118.797 17.4955C114.371 13.6044 112.547 8.72198 106.174 8.72198C100.918 8.72198 98.156 12.5071 97.1023 16.3284C96.8833 17.0744 96.7606 17.5388 96.2338 18.3136L93.751 21.2951L99.1183 20.643L96.0125 24.9888C96.0125 24.9888 104.428 23.0999 107.375 27.0992C110.546 31.4114 108.498 36.2529 113.704 45.6641C115.995 49.8006 121.533 57.2386 123.385 58.8893L119.757 66.5223L118.143 64.4769ZM35.4328 65.7787L34.1602 64.9148C35.2293 64.0569 36.4081 63.3456 37.6654 62.7997C38.342 62.5222 39.0635 62.3706 39.7945 62.3521C41.2211 62.3521 42.4504 62.9489 43.6509 63.5889C45.5491 64.5996 47.6806 65.7883 49.3141 65.7883C49.9348 65.7883 50.5362 65.6415 51.2387 65.6415C52.8554 65.6415 54.4071 66.3659 55.2948 66.3659C55.8337 66.3659 56.2066 65.8822 56.5603 65.3744C57.4504 64.0919 58.6797 63.1413 60.2507 62.4844C61.9372 61.7794 63.9652 61.4978 66.1713 61.4978C67.9083 61.4978 69.5755 61.7481 70.4439 61.9358C70.4439 61.9358 69.1184 63.5336 68.7864 63.8873C67.0326 63.8873 63.691 63.8272 61.545 64.6959C60.2267 65.2277 59.7551 65.9929 59.7551 67.0877C59.7551 68.6663 61.521 69.2871 63.4889 69.8839C64.6485 70.2352 65.95 70.3219 67.047 70.3219C68.399 70.3219 70.9901 69.8141 73.5498 69.251C76.6412 68.5701 79.5137 67.7567 80.3533 67.4463L81.4696 69.4532C78.0293 70.6178 74.5121 71.7224 71.2475 72.3865C69.4023 72.7619 67.6436 72.9929 66.0751 72.9929C63.4552 72.9929 60.6116 71.8932 58.2732 70.7791C56.3004 69.8382 54.5418 68.9094 52.9685 68.9094C51.2002 68.9094 49.5378 69.5206 47.8995 70.4566C47.0984 70.9162 44.6806 72.5814 42.5274 73.426C40.8747 74.083 39.5274 74.4463 37.853 74.4463C36.3614 74.4463 35.4713 74.2346 34.699 73.633L37.2925 72.0448C37.6269 72.3745 38.2259 72.4346 38.5964 72.4346C38.9693 72.4346 39.4144 72.3865 40.432 71.9654C41.0142 71.7199 41.861 71.2002 42.3566 70.8801C43.3815 70.2184 43.7207 69.831 44.1248 69.5133C44.9091 68.8925 45.1978 68.0695 44.197 67.1768C43.7071 66.7143 43.1737 66.3001 42.6044 65.9399C41.7071 65.4033 41.0599 64.8787 39.4384 64.8787C37.5234 64.8715 36.1738 65.3985 35.4328 65.7787Z" fill="#26064F"/>
<path fill-rule="evenodd" clip-rule="evenodd" d="M71.5594 66.8085C71.5594 66.8085 70.0173 66.3801 69.4784 66.3392C70.4491 65.0514 71.6233 63.9306 72.9548 63.0209C75.0598 61.5963 77.2635 60.8167 80.5979 60.6145C81.5049 60.5592 83.3525 60.3835 84.3846 60.4268C85.3156 60.4702 86.889 60.5303 88.3372 60.7974C89.3621 60.9899 90.3172 61.2763 91.1111 61.399C91.5946 61.4736 93.2763 61.4495 93.8609 61.3557C96.2209 60.9851 99.0549 60.0731 100.547 59.2598L101.167 61.5289C97.9796 63.1556 94.3781 64.7246 91.0822 64.7246C89.403 64.7246 87.6203 64.597 85.9579 64.443C83.0277 64.1615 80.492 63.7717 79.6187 63.7717C77.2467 63.7717 73.8329 64.8762 71.5594 66.8085ZM69.2066 79.4273L66.209 78.0557C70.3662 75.9501 76.7174 73.8398 79.3228 73.4211C81.9307 73.012 84.9114 72.6968 86.6267 72.1193C87.4134 74.1069 88.9676 76.2317 91.2025 76.2317C92.0181 76.2317 93.3581 75.6157 94.7053 75.0189C96.2185 74.3523 97.739 73.6232 98.5257 73.2695C99.3773 72.8941 102.139 71.6813 104.48 70.6369C105.651 70.1045 106.815 69.5558 107.971 68.991L109.544 69.8429C109.073 71.9099 108.286 74.4534 107.401 76.2726C107.054 76.9873 106.708 77.5744 106.335 77.9979C105.652 78.768 104.547 79.7931 103.106 80.8134C101.533 81.9323 99.6155 83.0777 97.5802 84.2448C95.9948 85.1616 94.3998 86.0881 92.7831 86.8292L91.9435 85.306C94.4359 83.8959 96.9691 82.1104 99.1969 80.4596C100.251 79.68 101.271 78.8907 102 78.2217C102.541 77.7284 102.88 77.3193 103.15 76.9199C103.811 75.9477 104.889 74.0443 105.219 73.1323C104.29 73.5871 100.773 75.2475 99.1993 76.0705C97.4238 77.0065 94.5441 78.472 92.9299 79.2372C91.6596 79.834 90.5265 80.1636 89.7133 80.1636C87.9114 80.1636 87.0935 78.8666 86.6508 78.0822C85.5129 76.0512 84.2931 75.8635 81.0838 75.8226C77.3597 75.7769 72.2499 77.3169 69.2066 79.4273ZM86.7013 70.0666C86.7013 70.0666 86.2659 68.2956 86.059 67.6507C86.059 67.6507 86.5762 67.4822 87.2595 67.4822C88.3757 67.4822 91.1351 67.7926 92.2803 67.7926C96.5914 67.7926 98.1816 66.4355 99.4471 65.2925C100.527 64.3203 101.636 63.5262 104.569 63.5262C107.155 63.5262 110.124 64.5706 110.973 64.982L110.788 67.3379C109.391 66.5911 107.837 66.1885 106.253 66.1636C105.185 66.1636 104.223 66.2478 103.544 66.6015C102.781 66.9962 102.317 67.5881 101.6 68.1753C100.84 68.8009 99.7983 69.4073 98.4343 69.9102C97.0702 70.4132 95.3813 70.7573 92.8625 70.7573C89.5377 70.7524 87.7358 70.1966 86.7013 70.0666Z" fill="#26064F"/>
<path fill-rule="evenodd" clip-rule="evenodd" d="M59.3984 87.8496L61.3856 87.0266C63.2068 87.7317 65.8387 88.5306 67.6695 88.5306C68.7713 88.5306 69.6807 88.1359 70.4289 87.8014C71.0159 87.5391 77.6366 84.2906 80.9229 83.097C81.967 82.7216 83.0279 82.5099 83.5427 82.5099C84.3294 82.5099 84.3751 82.8612 84.5965 83.2246C85.2171 84.216 90.1057 91.1944 90.6013 91.731C94.7464 90.458 98.9926 88.5907 101.442 86.2421C103.994 83.7804 106.114 80.9313 108.161 78.7271C108.95 77.8753 109.927 77.1052 110.41 76.8478C112.53 75.7192 119.122 75.6253 121.893 75.7481L120.25 78.075C115.366 78.075 112.633 78.5779 111.404 79.5044C110.884 79.8942 110.1 80.6835 109.352 81.658C107.685 83.8334 105.863 86.81 105.135 87.3924C106.564 88.3838 108.127 89.2524 110.608 89.2524C114.746 89.2524 117.709 86.6632 119.333 85.2002L120.724 86.028C119.697 87.3635 118.52 88.7303 117.021 89.7506C115.359 90.8791 113.264 91.6107 112.025 91.9548C109.624 91.5 104.336 90.4316 103.097 90.1837C98.5235 92.0486 91.0752 95.0614 88.5732 95.8145C88.02 95.9529 87.4556 96.0422 86.8868 96.0817C84.9092 96.1899 82.1594 96.1755 79.655 96.1466C77.8771 96.1226 76.1955 96.1322 75.3511 95.9782L73.145 93.6753C75.0913 94.0459 75.8491 94.159 77.6678 94.159C81.9718 94.159 84.7408 93.4395 85.655 93.2061C86.4224 93.0088 86.5499 92.566 86.3214 91.8706C85.9581 90.766 85.3206 89.7169 84.3511 88.5955C83.6889 87.8741 82.9617 87.2152 82.1787 86.6271C81.5868 86.2229 81.0095 86.1194 79.3856 86.6753C77.8796 87.1878 73.2075 89.7169 71.1939 90.7877C70.1979 91.3195 69.4233 91.4735 67.6358 91.05C65.7424 90.6048 61.2148 88.9492 59.3984 87.8496ZM72.3535 35.9857C72.8033 35.9857 73.2347 35.807 73.5528 35.4888C73.8709 35.1707 74.0496 34.7392 74.0496 34.2892C74.0496 33.8393 73.8709 33.4078 73.5528 33.0897C73.2347 32.7715 72.8033 32.5928 72.3535 32.5928C71.9037 32.5928 71.4723 32.7715 71.1542 33.0897C70.8361 33.4078 70.6574 33.8393 70.6574 34.2892C70.6574 34.7392 70.8361 35.1707 71.1542 35.4888C71.4723 35.807 71.9037 35.9857 72.3535 35.9857Z" fill="#26064F"/>
</g>
<defs>
<clipPath id="clip0_5251_3981">
<rect width="450" height="118" fill="white"/>
</clipPath>
</defs>
</svg>
