<svg width="109" height="110" viewBox="0 0 109 110" fill="none" xmlns="http://www.w3.org/2000/svg">
<path fill-rule="evenodd" clip-rule="evenodd" d="M54.5482 1.56641C70.291 1.56641 86.6312 2.9104 103.217 5.77293C103.464 12.4218 103.745 22.6991 103.273 31.42C102.216 50.8641 97.937 65.956 89.8013 78.9157C81.6912 91.8377 69.1329 102.949 54.5482 109.548C39.9635 102.949 27.4041 91.8377 19.294 78.9157C11.1595 65.956 6.87899 50.8641 5.82303 31.42C5.3489 22.6991 5.63094 12.4218 5.87855 5.77293C22.4641 2.9104 38.8054 1.56641 54.5482 1.56641ZM54.5482 3.43955C39.0286 3.43955 23.2725 4.7591 7.694 7.36372C7.35201 17.2275 7.35201 25.0758 7.69178 31.3189C8.72886 50.4317 12.9194 65.2401 20.8785 77.9197C28.8365 90.5982 40.7696 101.071 54.5482 107.488C68.3257 101.071 80.2599 90.5982 88.2179 77.9197C96.177 65.2401 100.366 50.4317 101.405 31.3189C101.744 25.0758 101.744 17.2275 101.402 7.36372C85.824 4.7591 70.0667 3.43955 54.5482 3.43955ZM54.4125 60.2188C54.4125 60.2188 54.719 62.0386 54.8123 62.5667C54.8644 62.8657 54.8755 62.9457 54.8 63.2392C54.5552 64.1829 53.4237 69.1571 52.518 74.2489L52.3771 75.0533C52.007 77.1979 51.6874 79.3269 51.5011 81.1481C51.3957 82.183 51.4301 82.4309 51.7032 83.3491C52.4772 85.9438 55.3397 92.7227 55.8893 93.9588C55.9504 94.0956 55.987 94.239 56.0048 94.3868L56.2113 95.9854C55.2942 94.5992 50.3108 85.4313 48.3532 80.3543C48.1223 79.7563 48.0779 79.4617 48.3333 78.3622C49.6946 72.5294 53.3777 62.6178 54.4125 60.2188ZM47.1452 46.1285C47.1452 46.1285 47.5281 47.3701 47.8974 48.7183L48.0265 49.1968C48.2598 50.0753 48.4678 50.9425 48.5431 51.4912C48.6153 52.0192 48.6031 52.1615 48.4154 52.6673C47.9604 53.8789 47.123 55.8278 46.2298 57.8201L45.8445 58.6746C44.7485 61.0917 43.6389 63.4268 43.1001 64.4376C42.8347 64.9356 42.5849 65.2602 42.0852 65.7682C40.9449 66.9299 38.7619 69.1255 37.4106 70.3538C36.9198 70.8007 36.7876 71.182 36.6877 71.7601C36.5267 72.6883 36.3668 74.2724 36.3224 75.0906C36.2835 75.8099 36.4001 76.1467 36.801 76.8593C39.1827 81.1114 47.1341 90.894 49.3992 92.9483C49.5635 93.0973 49.6835 93.1974 50.0299 93.4275C50.363 93.6498 51.449 94.3546 51.449 94.3546C51.4923 94.3846 51.5289 94.4246 51.5567 94.4702L51.9497 95.1628C51.9497 95.1628 51.913 95.1445 51.8468 95.1116L51.677 95.0272C51.5405 94.9592 51.36 94.8692 51.1526 94.7655L50.6478 94.5126C49.874 94.124 48.9515 93.6565 48.4665 93.3952C48.2666 93.2874 48.079 93.1607 47.9047 93.015C45.252 90.8095 37.123 81.2881 34.7324 77.3128C34.1361 76.3201 34.075 75.9989 34.155 75.0595C34.3049 73.3109 34.5369 71.112 34.7401 70.1482C34.8634 69.5668 34.9911 69.2255 35.4363 68.7119C36.9326 66.988 38.7577 64.7121 40.5361 62.3769L41.1612 61.551C43.8564 57.9685 46.3392 54.3828 47.2662 52.5562C47.4783 52.1404 47.496 51.9959 47.5005 51.6035C47.5127 50.4651 47.1496 48.2485 47.0541 47.6882C47.0397 47.6004 47.0352 47.5114 47.043 47.4225L47.1452 46.1285ZM69.3308 43.992L70.0181 44.2911C70.2213 44.3789 70.4067 44.5078 70.5599 44.6679C74.7738 49.0701 78.1438 53.6346 78.8189 54.8374C78.9488 55.0686 79.0376 55.2998 79.0698 55.5644C79.8271 61.9843 79.1764 68.7854 77.6297 74.7017C77.4898 75.2352 77.3332 75.5087 76.8202 75.8945C75.1689 77.1378 72.7039 79.1202 70.2524 81.1415L69.4797 81.7802C66.5268 84.2275 63.7213 86.6235 62.5309 87.7259C62.2322 88.0038 61.9712 88.3173 61.7581 88.6652C61.1998 89.5735 60.3474 91.1365 59.9289 91.9123L59.812 92.1294C59.7281 92.2857 59.6794 92.3771 59.6794 92.3771C59.1243 91.1642 57.914 88.205 57.4987 87.0089C57.3632 86.6187 57.3388 86.4141 57.482 85.8916C58.1594 83.4115 61.3605 76.2013 61.9835 74.8973L61.9846 75.4309C61.9846 75.5087 61.9724 75.5854 61.9479 75.6588C61.667 76.5114 59.9459 82.1943 59.5962 84.6588C59.5184 85.2068 59.5251 85.3547 59.5962 85.8927C59.7494 87.0433 60.4367 89.1532 60.4367 89.1532C60.4367 89.1532 60.8442 88.3017 61.224 87.7259C61.4105 87.4435 61.5227 87.3079 61.8269 87.0055C63.3659 85.4818 65.9914 83.1268 68.7261 80.7585L69.6942 79.9234C71.7948 78.1186 73.892 76.3624 75.5488 75.0207C75.9796 74.6716 76.1407 74.4382 76.2361 73.7756C76.7114 70.5118 76.8491 64.6534 76.5626 60.3901C76.5082 59.5853 76.2472 58.8071 75.7942 58.139C74.7549 56.6016 73.5124 55.1464 71.6281 53.2777C71.3594 53.0098 71.1762 52.6674 71.1074 52.2939C70.5577 49.3591 69.3308 43.992 69.3308 43.992ZM33.6966 50.7821C33.9587 50.6976 34.2374 50.6876 34.5038 50.752C35.7053 51.0411 38.248 51.6647 40.1701 52.1572C40.4399 52.2261 40.7763 52.4785 40.9196 52.7175L41.3382 53.4145C41.4847 53.659 41.4947 53.9592 41.3648 54.2126C41.0154 54.8907 40.5171 55.8087 39.9903 56.7554L39.5917 57.4674C38.8581 58.7705 38.1275 60.0277 37.7128 60.6892C37.4397 61.1261 37.2875 61.3195 36.8012 61.4918C34.9102 62.1577 32.5618 62.9536 31.1661 63.4061C30.8807 63.4983 30.7841 63.6718 30.8396 63.9886C30.9396 64.5655 31.2616 66.5243 31.3848 67.0957C31.4303 67.3069 31.5991 67.4748 31.9122 67.4147C32.7372 67.258 34.9336 66.7199 34.9336 66.7199C34.9336 66.7199 34.2862 67.3191 33.8987 67.6726C33.8276 67.7393 33.7455 67.7882 33.6533 67.8183C33.0548 68.0184 31.5936 68.4286 31.1383 68.5286C30.783 68.6053 30.5565 68.4652 30.4654 68.0628C30.4654 68.0628 29.8425 65.4082 29.6171 64.5055C29.5816 64.3677 29.546 64.2487 29.5027 64.1131C29.334 63.5906 28.9287 62.5634 28.6999 62.0254C28.6733 61.9631 28.66 61.8964 28.661 61.8275C28.6677 61.2128 28.781 59.841 28.781 59.841C28.781 59.841 30.1257 61.1027 30.7763 61.5585C30.9229 61.6619 31.0106 61.683 31.1905 61.6374C32.0844 61.4073 34.1396 60.727 35.2678 60.3045C35.5254 60.2078 35.7508 60.0455 35.9262 59.8332C37.0932 58.4225 38.5567 56.2281 39.4017 54.5728C39.5183 54.3449 39.5405 54.0837 39.4672 53.8391L39.2851 53.2388C39.2318 53.0632 39.0464 52.8653 38.8754 52.7997C36.8867 52.0427 35.3189 51.4802 33.4768 50.8521L33.6966 50.7821ZM73.0266 33.6962C73.4641 33.535 73.9438 33.5461 74.3735 33.7273C77.7068 35.128 83.312 38.423 86.4277 40.7441C86.7286 40.9687 86.8485 41.1232 86.9273 41.4856C87.6591 44.8161 87.9367 49.9642 87.4758 54.2986C87.4425 54.6098 87.3804 54.7966 87.2182 55.129C85.244 59.1699 83.0222 62.9729 80.6837 65.9065L80.6884 65.8585C80.7189 65.5462 80.8867 63.7847 80.8958 62.8317C80.8969 62.7238 80.9469 62.6249 81.0324 62.5593C81.4665 62.2214 82.0628 61.7411 82.4004 61.4488C82.5647 61.3065 82.6557 61.1998 82.7412 61.0619C83.6939 59.5212 85.3972 56.2951 86.0834 54.3542C86.2511 53.8806 86.3177 53.3792 86.2767 52.8779C86.0568 50.1732 85.6326 46.4258 85.0008 43.9801C84.8931 43.5633 84.6178 43.2109 84.2347 43.0141C83.6895 42.734 82.6202 42.246 80.1852 41.2688C79.8476 41.1332 79.5323 40.9453 79.2547 40.7119C77.658 39.369 75.1619 37.3558 73.6085 36.1974C73.1543 35.8584 72.5747 35.735 72.0217 35.8606C70.8903 36.1174 69.4501 36.4753 68.6396 36.6954C68.3642 36.7699 68.2554 36.7766 67.9711 36.7432C67.8231 36.726 67.6318 36.7073 67.4308 36.689L67.1262 36.6622C66.7723 36.6319 66.4402 36.6063 66.3101 36.5964L66.2523 36.592C68.8938 35.3503 71.4355 34.2787 73.0266 33.6962ZM37.7833 55.5576C36.9572 56.9183 35.9701 58.3635 35.2239 59.2661C35.1262 59.384 34.9963 59.4751 34.8486 59.5307C34.0325 59.8364 32.6723 60.2966 31.6707 60.6024L37.7833 55.5576ZM26.8651 53.7712L26.3776 57.1384L24.7198 55.1908C25.0219 54.536 25.9046 53.9179 26.8651 53.7712ZM35.7945 34.7076L35.3415 35.2656C35.316 35.2901 35.2915 35.3134 35.266 35.339C34.8674 35.6336 33.1896 36.9198 32.7355 37.2799C32.6067 37.3822 32.5556 37.4711 32.5256 37.6323C32.4235 38.2015 32.2536 39.2832 32.2036 39.8823C32.1892 40.058 32.1137 40.1447 31.9349 40.2169C31.1565 40.5338 30.2338 40.8673 29.4876 41.1663C29.3278 41.2297 29.2833 41.2541 29.189 41.3264C29.1146 41.3842 28.123 42.2702 28.123 42.2702C28.123 42.2702 30.2782 41.7388 31.0688 41.5598C31.2576 41.5176 31.3386 41.5287 31.513 41.611C31.6762 41.6866 31.9482 41.7944 32.0915 41.8466C32.3113 41.9278 32.4279 41.9245 32.6711 41.8711C33.5616 41.6721 35.0595 41.3164 35.8567 41.1085C36.2709 41.0007 36.4974 40.8884 36.8483 40.6427C37.2302 40.377 38.1974 39.6511 38.1974 39.6511C38.1974 39.6511 38.1796 39.779 38.1663 39.8501C38.1563 39.9112 38.1341 39.9457 38.0941 39.9935C37.8976 40.2303 37.5534 40.616 37.3824 40.7928C36.9904 41.1985 36.7561 41.3431 36.2642 41.5487C33.9991 42.4936 30.1283 43.961 27.2247 44.9671C27.0348 45.0338 26.9527 45.0882 26.8117 45.2328C26.6584 45.3884 26.4541 45.6152 26.4541 45.6152C26.4541 45.6152 28.8214 45.7875 29.5443 45.8709C29.7786 45.8975 29.9462 45.9742 30.125 46.1288C30.719 46.6401 32.6855 48.6667 33.274 49.3704C33.274 49.3704 27.6833 50.3008 25.0928 50.9445C24.773 51.0234 24.6131 51.2268 24.541 51.4836C24.3267 52.2373 23.8214 54.6608 23.8214 54.6608C23.8214 54.6608 23.6416 54.6029 23.3906 54.4584C23.2185 54.3595 23.1308 54.2772 22.942 54.0771C22.3291 53.429 21.322 52.1884 20.8379 51.4692C20.6957 51.2568 20.6358 50.9867 20.8134 50.7699C21.3387 50.123 22.3935 48.9424 22.9753 48.3354C23.0375 48.2698 23.1164 48.1553 23.1996 47.9908C23.3954 47.6015 23.6535 46.6156 23.7434 46.2595L23.7721 46.1444L23.7759 46.1288C23.7759 46.1288 23.7704 46.1322 23.7603 46.1386L23.6541 46.2055C23.51 46.2961 23.2774 46.4426 23.1774 46.5056C23.0275 46.6012 22.9864 46.6423 22.9243 46.7735C22.8299 46.9714 22.6644 47.2838 22.539 47.5005C22.4979 47.5717 22.3879 47.6817 22.3291 47.7273C21.5863 48.2954 20.7657 48.9057 20.1816 49.317C20.1417 49.3448 20.0906 49.3326 20.0562 49.2992C19.9818 49.2247 19.6698 48.8701 19.6142 48.7867C19.5676 48.7167 19.5465 48.6511 19.5465 48.5666C19.5454 48.4188 19.5598 48.1587 19.5743 47.9652C19.592 47.7362 19.6576 47.6273 19.9363 47.3382C20.2483 47.0148 20.588 46.6746 20.9456 46.3255C21.8217 45.5874 24.0335 43.7909 27.9831 40.9695C28.0575 40.9162 28.1252 40.8539 28.1796 40.7795C28.5949 40.2192 29.773 38.6895 30.0639 38.326C30.105 38.2749 30.1505 38.2271 30.2027 38.1859C30.668 37.818 30.8978 37.659 31.3697 37.3611C32.4701 36.6674 34.6009 35.4023 35.7945 34.7076ZM59.8675 33.4564C60.033 33.4275 60.2029 33.4508 60.355 33.5231L61.5087 34.0756C61.6219 34.1301 61.7052 34.2334 61.7352 34.3579C61.8917 35.0183 62.0838 35.8931 62.2126 36.6368C62.2648 36.9459 62.2071 37.2616 62.0505 37.534C61.5731 38.3644 60.5926 39.8584 60.0441 40.6611C59.922 40.8411 59.9075 41.059 59.9453 41.2736C60.194 42.6498 61.2311 47.4555 61.2311 47.4555L60.5782 46.8608C60.4483 46.7407 60.3628 46.614 60.3073 46.4484C59.8431 45.0888 58.9748 42.2485 58.5751 40.8667C58.5107 40.6388 58.5595 40.3954 58.7094 40.2142C59.3901 39.3871 60.3816 38.0642 60.9613 37.226C61.1234 36.9904 61.1767 36.7302 61.0812 36.5357C60.9479 36.2622 60.7236 35.8465 60.5082 35.4696C60.4505 35.3651 60.3539 35.2873 60.2395 35.2495L59.4567 34.9983C59.3201 34.9549 59.1736 34.9571 59.0381 35.006C57.3326 35.6252 55.0386 36.5179 53.635 37.1004C53.4296 37.186 53.3452 37.1927 53.0965 37.1549C52.6901 37.0949 51.5065 36.8825 50.9257 36.7736C50.8214 36.7536 50.7692 36.6357 50.8225 36.5435L51.5109 35.3495C51.6042 35.1884 51.7585 35.0739 51.9406 35.0327C54.1547 34.528 57.0827 33.9477 59.8675 33.4564ZM35.367 38.9393C35.4725 38.9304 35.5725 38.9893 35.6135 39.0861C35.7523 39.4096 35.7146 39.7708 35.5802 40.0799C35.528 40.2055 35.367 40.3278 35.2349 40.3567L34.1301 40.6024C34.0635 40.6168 34.0024 40.5635 34.0068 40.4956L34.1101 39.1972C34.1179 39.1094 34.1867 39.0394 34.2744 39.0327L35.367 38.9393ZM47.9382 30.5964C48.0659 30.5953 48.1458 30.7332 48.0825 30.8432L45.3888 35.4866C45.2389 35.7601 44.9879 35.9635 44.6904 36.0536L39.6393 37.6355C39.053 37.8133 38.5578 37.9089 37.9471 37.9556C36.8267 38.0401 33.499 38.1446 33.499 38.1446L33.5722 37.9867C33.6067 37.9123 33.6677 37.8533 33.7432 37.8211L35.3177 37.1519C35.4354 37.1019 35.5387 37.0252 35.6175 36.9262L38.0493 33.9292C38.1792 33.7691 38.349 33.6157 38.53 33.5201C40.1367 32.6741 42.9937 31.4035 44.9946 30.7343C45.1834 30.6709 45.4376 30.6309 45.6364 30.6287L47.9382 30.5964ZM45.2378 25.2042C50.8118 24.714 58.3546 24.5806 65.5597 25.1264C65.9695 25.1575 66.3681 25.2542 66.7467 25.4143C69.1074 26.4081 73.2957 28.5825 77.9526 31.2494C78.158 31.3672 78.3512 31.5051 78.5288 31.6618C79.7625 32.7501 82.8881 35.9517 82.8881 35.9517L81.9132 35.7583C81.7767 35.7316 81.649 35.6783 81.5335 35.6004C79.5615 34.2742 76.6823 32.5478 74.2695 31.3306C73.983 31.1872 73.6732 31.0949 73.3545 31.0615C72.1809 30.9359 70.5941 30.8259 69.556 30.7836C69.0441 30.7625 68.6954 30.6769 68.1946 30.4223C67.2375 29.9365 64.9191 28.8838 63.7643 28.4425C63.2702 28.2535 63.0181 28.209 62.534 28.2168C60.5498 28.2457 56.0294 28.3902 53.721 28.5336C53.641 28.5381 53.5644 28.5347 53.4867 28.5225L52.3863 28.3502C55.5065 27.8122 63.2191 27.124 66.4114 26.9562L65.1123 26.5215C64.8613 26.4381 64.6004 26.3937 64.335 26.387C63.642 26.3705 62.1009 26.3396 60.1005 26.3369L59.4172 26.3371C56.3871 26.343 52.4886 26.4175 48.8931 26.6883C48.5789 26.7116 48.2724 26.7872 47.9837 26.915C46.5314 27.5537 42.9898 29.4761 39.4379 31.4507L38.6492 31.8899C37.7309 32.4021 36.8223 32.9116 35.9595 33.3971C35.9595 33.3971 36.4026 32.8269 36.4881 32.7157C36.5636 32.619 36.5869 32.6012 36.689 32.5345C36.8318 32.4408 37.3191 32.1195 37.8103 31.7934L38.1742 31.5515C38.4692 31.3549 38.7325 31.1783 38.8809 31.076C38.9542 31.026 39.0008 30.9904 39.093 30.9215C40.1623 30.1144 41.85 28.6915 42.856 27.8099C43.0837 27.6109 43.2769 27.3797 43.4356 27.1218C43.761 26.5949 44.1163 26.0235 44.335 25.7067C44.5216 25.4321 44.8403 25.2398 45.2378 25.2042ZM21.5009 12.3824C22.8777 12.2401 23.6472 12.7759 23.6472 14.1711V14.9426C23.6472 16.3699 22.8777 16.9469 21.5009 17.0903C19.5966 17.2893 17.6923 17.5049 15.7914 17.7384V19.8472C15.3927 19.8961 14.993 19.945 14.5944 19.9962V13.1806C16.894 12.8893 19.1958 12.6236 21.5009 12.3824ZM85.4041 12.1614C88.4399 12.4571 91.4734 12.7973 94.5014 13.1797V14.2791C93.1923 14.1135 91.8809 13.9556 90.5684 13.8067V19.5239C90.1698 19.4784 89.7712 19.4339 89.3704 19.3894V13.6722C88.0501 13.5265 86.7266 13.3898 85.4041 13.2609V12.1614ZM34.9734 11.2656V12.364C32.4762 12.5185 29.9801 12.7019 27.4862 12.9142V14.5928C29.7047 14.4027 31.9243 14.2371 34.1451 14.0948V15.1943C31.9243 15.3365 29.7047 15.5022 27.4862 15.6912V17.5332C29.9801 17.3197 32.4762 17.1363 34.9734 16.9829V18.0812C32.0854 18.2591 29.1995 18.477 26.3148 18.7338V11.9171C29.1995 11.6603 32.0854 11.4435 34.9734 11.2656ZM73.8131 13.1327C73.8131 11.6041 74.5704 11.2895 76.277 11.4052C77.776 11.5085 79.2728 11.6208 80.7707 11.7453C82.253 11.8676 83.2312 12.2845 83.2312 13.8441V16.8879C83.2312 18.4186 82.3863 18.6943 80.7707 18.5609C79.2728 18.4375 77.776 18.3241 76.277 18.2219C74.6448 18.1118 73.8131 17.7961 73.8131 16.1764V13.1327ZM62.1996 10.7553C65.091 10.8242 67.9813 10.9331 70.8716 11.0821V12.1804C68.3733 12.0526 65.8739 11.9537 63.3733 11.8847V13.5622C65.5974 13.6245 67.8203 13.709 70.0422 13.8168V14.9162C67.8203 14.8084 65.5974 14.7228 63.3733 14.6617V16.5026C65.8739 16.5715 68.3733 16.6704 70.8716 16.7994V17.8977C67.9813 17.7498 65.091 17.6409 62.1996 17.5709V10.7553ZM47.1543 10.7493V15.6795C47.1543 17.2392 46.3359 17.5815 44.687 17.6327C43.2513 17.6771 41.8156 17.7305 40.3799 17.795C38.8498 17.8639 37.9149 17.5726 37.9149 16.0286V11.0983L39.0874 11.0383V16.1764C39.0874 16.4888 39.355 16.7433 39.7104 16.7267C41.5924 16.6389 43.4734 16.5677 45.3555 16.5132C45.713 16.5032 45.9506 16.2298 45.9506 15.9174V10.7793C46.3515 10.7682 46.7523 10.7582 47.1543 10.7493ZM75.6097 12.4601C75.2533 12.4357 74.9856 12.6858 74.9856 13.0426V16.4132C74.9856 16.7256 75.2533 17.0535 75.6097 17.078C77.5539 17.2069 79.496 17.3537 81.438 17.5182C81.7489 17.5449 82.0598 17.2592 82.0598 16.9479V13.5762C82.0598 13.2205 81.7489 12.9259 81.438 12.8992C79.496 12.7347 77.5539 12.588 75.6097 12.4601ZM52.3394 10.671C54.4946 10.6555 56.6498 10.6632 58.8039 10.6921V11.7905C56.501 11.7604 54.197 11.7538 51.893 11.7727C51.581 11.776 51.269 12.0461 51.269 12.3585V15.7735C51.269 16.0859 51.581 16.395 51.893 16.3916C53.9594 16.3738 56.0247 16.3772 58.0911 16.4005V14.5585C56.8919 14.5452 55.6927 14.5385 54.4946 14.5396V13.4402C56.0846 13.4402 57.6747 13.4524 59.2647 13.4757V17.5144C57.0307 17.481 54.7966 17.4722 52.5625 17.4855C50.927 17.4966 50.0953 17.2143 50.0953 15.6246V12.6542C50.0953 11.1702 50.8381 10.6821 52.3394 10.671ZM21.8562 13.4452C19.8331 13.6542 17.8111 13.882 15.7914 14.1299V16.639C17.8111 16.3922 19.8331 16.1632 21.8562 15.9553C22.166 15.9219 22.4769 15.6385 22.4769 15.3417V13.961C22.4769 13.6486 22.166 13.4129 21.8562 13.4452Z" fill="#26064F"/>
</svg>
