<svg width="443" height="118" viewBox="0 0 443 118" fill="none" xmlns="http://www.w3.org/2000/svg">
<path fill-rule="evenodd" clip-rule="evenodd" d="M315.502 81.125C325.124 81.125 332.903 73.809 332.903 64.3592C332.903 54.9192 325.124 47.6032 315.507 47.6032C306.018 47.6032 298.643 54.9192 298.643 64.3641C298.643 73.809 306.013 81.125 315.502 81.125ZM311.948 29.6426C322.096 29.6426 329.869 33.7677 331.713 39.6234V30.8373H351.35V97.881H331.718V89.0998C329.869 94.8228 322.096 99.0807 311.953 99.0807C293.102 99.0807 279.001 83.78 279.001 64.3592C279.001 45.0711 293.102 29.6426 311.948 29.6426ZM168.701 30.8422H188.338V39.2202C190.845 33.3694 197.434 29.3771 205.6 29.3771C214.696 29.3771 220.626 33.1039 223.654 40.0167C228.005 31.6387 236.438 29.3771 245.794 29.3771C260.947 29.3771 269.384 39.8889 269.384 57.1808V97.8908H249.747V59.5752C249.747 51.8561 246.32 46.9394 239.864 46.9394C233.409 46.9394 228.792 52.392 228.792 60.239V97.8859H209.16V59.5752C209.16 51.8561 205.733 46.9394 199.277 46.9394C192.95 46.9394 188.338 52.392 188.338 60.239V97.8859H168.701V30.8422ZM135.493 97.8859H155.131V30.8422H135.493V97.8859ZM145.312 24.1359C146.887 24.1405 148.447 23.833 149.902 23.2312C151.357 22.6294 152.678 21.7452 153.79 20.6297C154.901 19.5142 155.78 18.1895 156.377 16.7322C156.973 15.2749 157.275 13.7139 157.264 12.1393C157.264 5.28542 151.925 0 145.312 0C138.842 0 133.355 5.28542 133.355 12.1393C133.357 15.3134 134.617 18.3573 136.857 20.6054C139.098 22.8536 142.138 24.1229 145.312 24.1359ZM82.3542 30.8422H101.986V40.0167C105.02 33.2317 112.134 29.3771 121.23 29.3771C123.074 29.3771 125.311 29.6426 126.368 29.7753V48.3997C124.201 47.9483 121.993 47.7259 119.78 47.7359C108.58 47.7359 101.986 54.2505 101.986 65.1606V97.8859H82.3542V30.8422ZM35.8425 81.125C45.3317 81.125 52.7067 73.809 52.7067 64.3592C52.7067 54.9192 45.3317 47.6032 35.8425 47.6032C26.2206 47.6032 18.4424 54.9192 18.4424 64.3641C18.4424 73.809 26.2206 81.125 35.8425 81.125ZM0 30.8422H19.6372V39.6185C21.4809 33.9004 29.2542 29.6475 39.4022 29.6475C58.2477 29.6475 72.3487 44.9482 72.3487 64.369C72.3487 83.6571 58.2477 99.0905 39.4071 99.0905C29.2542 99.0905 21.4809 94.9605 19.6372 89.1097V118H0V30.8422Z" fill="#26064F"/>
<path fill-rule="evenodd" clip-rule="evenodd" d="M412.839 59.6685V86.543C412.831 89.1929 411.775 91.732 409.901 93.6058C408.027 95.4796 405.488 96.5357 402.838 96.5435C400.188 96.5357 397.649 95.4796 395.776 93.6058C393.902 91.732 392.846 89.1929 392.838 86.543V59.6685C392.846 57.0186 393.902 54.4794 395.776 52.6056C397.649 50.7319 400.188 49.6758 402.838 49.668C405.488 49.6758 408.027 50.7319 409.901 52.6056C411.775 54.4794 412.831 57.0186 412.839 59.6685Z" fill="#26064F"/>
<path fill-rule="evenodd" clip-rule="evenodd" d="M402.838 69.669H375.963C373.314 69.6612 370.774 68.6051 368.901 66.7313C367.027 64.8575 365.971 62.3184 365.963 59.6685C365.971 57.0186 367.027 54.4794 368.901 52.6056C370.774 50.7319 373.314 49.6758 375.963 49.668H402.838C405.488 49.6758 408.027 50.7319 409.901 52.6056C411.774 54.4794 412.831 57.0186 412.838 59.6685C412.831 62.3184 411.774 64.8575 409.901 66.7313C408.027 68.6051 405.488 69.6612 402.838 69.669Z" fill="#26064F"/>
<path fill-rule="evenodd" clip-rule="evenodd" d="M412.839 32.7944V59.6689C412.831 62.3188 411.775 64.858 409.901 66.7318C408.027 68.6055 405.488 69.6617 402.838 69.6695C400.188 69.6617 397.649 68.6055 395.776 66.7318C393.902 64.858 392.846 62.3188 392.838 59.6689V32.7944C392.846 30.1445 393.902 27.6054 395.776 25.7316C397.649 23.8578 400.188 22.8017 402.838 22.7939C405.488 22.8017 408.027 23.8578 409.901 25.7316C411.775 27.6054 412.831 30.1445 412.839 32.7944Z" fill="#26064F"/>
<path fill-rule="evenodd" clip-rule="evenodd" d="M429.713 69.669H402.838C400.188 69.6612 397.649 68.6051 395.776 66.7313C393.902 64.8575 392.846 62.3184 392.838 59.6685C392.846 57.0186 393.902 54.4794 395.776 52.6056C397.649 50.7319 400.188 49.6758 402.838 49.668H429.713C432.363 49.6758 434.902 50.7319 436.776 52.6056C438.649 54.4794 439.706 57.0186 439.713 59.6685C439.706 62.3184 438.649 64.8575 436.776 66.7313C434.902 68.6051 432.363 69.6612 429.713 69.669Z" fill="#26064F"/>
</svg>
