<svg width="408" height="118" viewBox="0 0 408 118" fill="none" xmlns="http://www.w3.org/2000/svg">
<g clip-path="url(#clip0_5251_4008)">
<mask id="mask0_5251_4008" style="mask-type:luminance" maskUnits="userSpaceOnUse" x="-98" y="-46" width="621" height="269">
<path d="M522.642 -45.3477H-97.8574V222.294H522.642V-45.3477Z" fill="white"/>
</mask>
<g mask="url(#mask0_5251_4008)">
<path d="M285.714 70.6854H299.262L279.303 90.5414L293.988 112.673H279.82L268.651 94.4712H268.547L265.652 112.673H254.689L261.308 70.6854H272.27L269.581 87.956H269.685L285.714 70.6854ZM212.392 70.6854H223.354L239.28 96.3327H239.384L243.417 70.6854H254.379L247.761 112.673H236.798L220.872 86.9218H220.769L216.736 112.673H205.773L212.392 70.6854ZM187.572 96.9532H178.472L185.09 83.6125H185.194L187.572 96.9532ZM189.123 105.33L190.675 112.569H202.257L193.053 70.582H181.16L158.409 112.569H170.095L174.128 105.33H189.123ZM138.242 95.2985H139.38C142.896 95.2985 148.377 94.7815 147.653 99.8489C146.929 104.503 141.448 104.296 138.242 104.296H136.898L138.242 95.2985ZM141.448 112.673C149.101 112.673 157.064 109.777 158.512 100.986C159.443 95.0917 157.478 91.0585 151.583 90.3345V90.2311C155.203 88.4731 156.961 85.474 157.581 81.6476C158.822 73.5811 154.272 70.6854 146.826 70.6854H131.21L124.592 112.673H141.448ZM140.828 78.9587H141.655C144.654 78.9587 147.964 79.1656 147.343 82.992C146.826 86.5082 143.724 87.0252 140.828 87.0252H139.587L140.828 78.9587ZM382.926 27.2505H383.029C385.408 23.8377 388.2 22.5967 392.13 22.5967C399.783 22.5967 402.885 27.4573 402.885 34.3862V51.967H392.75V38.1092C392.75 35.4204 393.164 30.5598 388.2 30.5598C384.064 30.5598 382.926 33.6623 382.926 37.1784V51.967H372.791V23.4241H382.926V27.2505ZM347.04 33.6623C347.661 30.7666 350.143 29.112 353.039 29.112C355.727 29.112 358.209 30.87 358.726 33.6623H347.04ZM368.241 38.4195C368.241 28.6983 362.553 22.5967 352.625 22.5967C343.317 22.5967 336.802 28.2846 336.802 37.799C336.802 47.6235 343.835 53.0012 353.349 53.0012C359.864 53.0012 366.276 49.8987 367.827 43.1766H358.106C356.968 45.0381 355.417 45.762 353.245 45.762C349.109 45.762 346.937 43.5903 346.937 39.4536H368.241V38.4195ZM329.253 30.8701C327.702 30.0427 325.53 29.5256 323.772 29.5256C322.634 29.5256 320.566 30.0427 320.566 31.4905C320.566 33.4555 323.772 33.6623 325.116 33.9725C329.873 34.9033 333.389 37.1785 333.389 42.4527C333.389 50.0021 326.564 53.1046 319.945 53.1046C315.912 53.1046 311.879 51.967 308.466 49.7953L312.086 42.763C314.154 44.2108 317.567 45.6586 320.049 45.6586C321.29 45.6586 323.255 45.0381 323.255 43.4869C323.255 41.3151 320.049 41.1083 316.946 40.2809C313.74 39.4536 310.638 37.9024 310.638 32.7316C310.638 25.6992 316.946 22.5967 323.255 22.5967C326.461 22.5967 329.666 23.1138 332.666 24.4582L329.253 30.8701ZM293.574 23.5275H303.709V52.0704H293.574V23.5275ZM304.329 12.5653C304.329 15.6678 301.744 18.2532 298.641 18.2532C295.539 18.2532 292.954 15.6678 292.954 12.5653C292.954 9.46283 295.539 6.87742 298.641 6.87742C301.744 6.87742 304.329 9.46283 304.329 12.5653ZM267.823 33.6623C268.444 30.7666 270.822 29.112 273.822 29.112C276.51 29.112 279.096 30.87 279.509 33.6623H267.823ZM289.024 38.4195C289.024 28.6983 283.336 22.5967 273.408 22.5967C264.1 22.5967 257.585 28.2846 257.585 37.799C257.585 47.6235 264.617 53.0012 274.132 53.0012C280.647 53.0012 287.059 49.8987 288.61 43.1766H278.889C277.751 45.0381 276.2 45.762 274.028 45.762C269.892 45.762 267.72 43.5903 267.72 39.4536H289.024V38.4195ZM249.208 52.0704H239.074V31.9042H235.557V23.5275H239.074V19.9079C239.074 15.9781 239.177 13.0824 241.969 9.87649C244.451 6.87741 248.071 5.32617 251.897 5.32617C253.448 5.32617 254.793 5.63642 256.241 6.36034V15.0473C255.103 14.5302 254.069 14.1166 252.725 14.1166C250.139 14.1166 249.208 15.6678 249.208 18.8737V23.5275H256.241V31.9042H249.208V52.0704ZM227.698 52.0704H217.563V31.9042H214.047V23.5275H217.563V19.9079C217.563 15.9781 217.666 13.0824 220.459 9.87649C222.941 6.87741 226.56 5.32617 230.387 5.32617C231.938 5.32617 233.282 5.63642 234.73 6.36034V15.0473C233.593 14.5302 232.558 14.1166 231.214 14.1166C228.629 14.1166 227.698 15.6678 227.698 18.8737V23.5275H234.73V31.9042H227.698V52.0704ZM199.775 23.5275H209.91V52.0704H199.775V23.5275ZM210.531 12.5653C210.531 15.6678 207.945 18.2532 204.843 18.2532C201.74 18.2532 199.155 15.6678 199.155 12.5653C199.155 9.46283 201.74 6.87742 204.843 6.87742C207.945 6.87742 210.531 9.46283 210.531 12.5653ZM176.713 31.3871C180.85 31.3871 183.229 34.2828 183.229 37.799C183.229 41.4185 180.85 44.2108 176.713 44.2108C172.577 44.2108 170.198 41.4185 170.198 37.799C170.302 34.2828 172.68 31.3871 176.713 31.3871ZM193.053 23.5275H182.918V26.3197C180.85 23.8377 177.334 22.5967 174.128 22.5967C165.648 22.5967 159.857 29.629 159.857 37.799C159.857 45.9689 165.855 53.0012 174.231 53.0012C177.541 53.0012 181.057 51.7602 182.815 48.8645H182.918V52.0704H193.053V23.5275ZM135.14 18.4601H136.174C139.69 18.4601 143.724 19.0806 143.724 23.7343C143.724 28.2846 139.69 29.0086 136.174 29.0086H135.14V18.4601ZM145.999 34.9033C151.997 33.8691 155.203 28.8017 155.203 23.1138C155.203 14.1166 148.894 10.1867 140.621 10.1867H124.281V52.0704H135.14V35.9375H135.243L145.482 52.0704H159.029L145.999 34.9033Z" fill="#26064F"/>
</g>
<mask id="mask1_5251_4008" style="mask-type:luminance" maskUnits="userSpaceOnUse" x="-98" y="-46" width="621" height="269">
<path d="M522.642 -45.3477H-97.8574V222.294H522.642V-45.3477Z" fill="white"/>
</mask>
<g mask="url(#mask1_5251_4008)">
<path d="M55.7147 73.6842L86.5328 104.399L98.6326 92.2992L67.711 61.481L73.7092 55.4829V43.4865L77.9493 39.2465V49.1745L82.0859 53.3111L97.1847 38.2123L101.218 42.2456C101.218 39.6601 100.494 30.7663 93.2549 23.734C85.1884 15.8743 77.2253 20.5281 74.4331 23.2169L59.8514 37.6952L63.471 41.3148L55.5079 49.2779L47.5448 41.3148L51.1644 37.6952L36.6861 23.2169C33.8938 20.4247 25.9308 15.8743 17.8643 23.734C10.7285 30.6629 10.108 39.6601 10.108 42.2456L14.0379 38.2123L29.0333 53.3111L33.2733 49.1745V39.2465L37.5134 43.4865V55.4829L43.5116 61.481L13.0037 91.9889L25.1034 103.985L55.7147 73.6842ZM7.4192 109.673H104.217V12.9787H7.4192V109.673ZM4.62695 10.083H107.009V112.569H4.62695V10.083Z" fill="#26064F"/>
</g>
</g>
<defs>
<clipPath id="clip0_5251_4008">
<rect width="407.636" height="118" fill="white"/>
</clipPath>
</defs>
</svg>
