<svg width="580" height="144" viewBox="0 0 580 144" fill="none" xmlns="http://www.w3.org/2000/svg">
<g clip-path="url(#clip0_5251_4000)">
<path fill-rule="evenodd" clip-rule="evenodd" d="M57.2783 19.9747C53.9908 20.5052 50.7295 21.1251 47.4806 21.8298C45.3311 22.2893 43.1831 22.718 41.0598 23.2561C39.1015 23.7542 37.0939 24.1951 35.1757 24.8088C33.3207 25.3979 31.4919 26.0054 29.6755 26.7085C26.1459 28.0901 22.7952 30.0469 19.8916 32.4894C18.1138 33.9928 16.4515 35.6242 15.056 37.5101C14.0723 38.8593 13.2535 40.247 12.4609 41.7242C11.7192 43.1243 11.2073 44.782 11.1934 46.3872C11.1687 51.1072 14.1478 55.0592 17.5771 57.9936C18.7028 58.9542 19.904 59.8362 21.1191 60.6797C24.7257 63.1869 28.6531 65.3874 32.6438 67.3056C36.7624 69.2747 40.9056 71.1682 45.1013 72.9707C49.0657 74.6669 53.1211 76.1056 57.2135 77.4733C58.39 77.8634 59.5804 78.2535 60.757 78.6437C64.4654 79.8849 68.2525 81.0307 71.9347 82.3722C74.2245 83.2048 76.6686 83.985 78.9569 85.0274C81.3361 86.1083 83.8048 87.1878 85.9034 88.7421C87.3097 89.7644 88.5248 91.0442 89.4191 92.5353C90.3027 94.0048 90.8532 95.6886 90.8902 97.4079C90.9426 99.0578 90.4692 100.663 89.5857 102.059C87.2835 105.676 83.2805 108.145 79.4179 109.788C73.6494 112.237 67.7406 114.354 61.7284 116.134C58.3006 117.144 54.8728 118.146 51.4203 119.049C47.954 119.956 44.4229 120.911 40.9195 121.793C37.4269 122.676 33.9344 123.473 30.431 124.235C28.4234 124.664 26.4019 125.091 24.4065 125.509C23.2038 125.751 22.0273 126.007 20.8245 126.269C18.3173 126.818 15.8116 127.362 13.292 127.903C10.427 128.539 7.56052 129.157 4.69708 129.786C3.86441 129.97 3.03328 130.193 2.20216 130.38C1.46047 130.551 -1.31507 131.199 0.745004 131.075C3.60844 130.915 11.2582 130.244 27.603 128.045C33.5258 127.06 39.4731 126.212 45.4082 125.239C52.8004 124.025 60.1433 122.598 67.4337 120.86C69.5185 120.366 71.5893 119.836 73.6617 119.267C75.031 118.883 76.3864 118.487 77.7295 118.064C83.4594 116.279 92.6557 113.125 94.8299 112.174C103.144 108.515 108.324 105.759 111.024 99.1981C111.944 96.8698 112.378 94.2608 112.097 91.7612C111.816 89.4729 111.048 87.1569 109.86 85.1801C108.72 83.2804 107.16 81.6567 105.536 80.1594C102.504 77.3839 99.1027 75.1403 95.4698 73.2406C94.4475 72.7024 93.3974 72.1905 92.3365 71.7048C91.0182 71.0988 89.7013 70.5283 88.3706 69.9655C86.4909 69.1791 84.5974 68.496 82.6792 67.836C77.6909 66.1213 72.6255 64.5871 67.6126 62.9433C64.7723 62.0104 61.9597 61.0005 59.2212 59.8363C58.057 59.349 56.9067 58.8263 55.781 58.2758C54.4518 57.6297 53.1597 56.9204 51.8799 56.1587C50.307 55.2057 47.7366 53.562 48.4521 51.3307C48.9517 49.7379 50.6771 49.118 52.0849 48.5474C53.3894 48.017 54.771 47.647 56.1264 47.2892C60.2712 46.2207 64.504 45.4974 68.6873 44.6016C69.9147 44.3394 71.1422 44.0712 72.3711 43.7843C75.6324 43.0164 78.9954 42.4413 82.104 41.2C84.7778 40.1453 88.2041 38.4569 89.2033 35.5148C90.6342 31.2235 89.0105 26.5867 86.6698 22.9677C85.8263 21.6694 84.9567 20.3972 84.0608 19.1236C82.8334 17.3966 81.4764 15.7729 80.1473 14.1291C79.5459 13.3813 78.8165 13.4383 78.2028 13.6296C77.384 13.9117 75.1451 16.5408 57.2783 19.9747Z" fill="#26064F"/>
<path fill-rule="evenodd" clip-rule="evenodd" d="M328.51 62.9069L328.754 62.3426L329.035 61.8568L329.278 61.4097L329.522 61.0258L329.688 60.6495L329.866 60.3673L330.008 60.0928L330.185 59.9201L330.621 59.1584L330.877 58.7035L331.184 58.2564L331.835 57.1446L332.233 56.5494L332.643 55.9295L332.745 55.8262L332.883 55.7877L333.19 55.8971L333.344 55.9989L333.549 56.2426L333.958 56.8316L334.381 57.6242L334.852 58.7035L335.354 59.9895L335.904 61.55L336.006 61.8245L336.185 62.2794L336.416 62.8684L336.735 63.6286L336.774 63.7704L336.837 63.9478L336.94 64.2932L337.016 64.5692L337.079 64.8498V65.0549L337.118 65.2662L337.079 65.3294V65.4327V65.6116L336.877 65.8861L336.735 66.0587L336.388 66.1991L335.929 66.3409L335.354 66.4103H334.994L334.65 66.4427L331.247 66.7171H330.595L330.083 66.7557H329.546L329.136 66.7881L328.715 66.7557H328.409H328.1H327.923L327.537 66.6863L327.297 66.6154L327.092 66.4812L326.974 66.3024L326.873 66.0587L326.924 65.8228L326.974 65.5021L327.155 65.1567L327.411 64.7095L327.641 64.3256L327.844 63.9801L328.049 63.6995L328.203 63.4235L328.345 63.2138L328.409 63.0087L328.51 62.9069ZM306.715 79.2842C306.715 79.2842 307.203 79.4122 307.203 79.4184C309.055 79.9503 309.965 81.2024 308.546 82.84C308.098 83.3658 307.738 83.9518 307.381 84.5223L307.074 85.0404C306.765 85.5523 306.537 86.0303 306.486 86.6333C306.486 86.6333 306.509 86.9462 306.509 86.9524C306.6 87.7897 307.267 88.6856 307.675 89.4011C308.531 90.8737 309.428 92.1828 310.426 93.532C310.579 93.7495 312.765 90.1227 312.907 89.9192C313.687 88.8321 314.594 87.8684 315.4 86.8044C316.409 85.4675 317.511 84.2031 318.97 83.352C320.427 82.4946 322.102 82.1538 323.78 81.9765C325.442 81.7899 327.104 81.7144 328.754 81.6249C332.154 81.4461 335.534 81.0606 338.909 80.7306C340.214 80.6011 342.144 80.2757 343.321 80.9218C344.46 81.5417 345.33 82.6149 346.212 83.537C347.273 84.6564 348.309 85.8022 349.308 86.9694C350.499 88.3526 351.558 89.8298 352.875 91.1081C353.706 91.9268 354.565 92.6439 355.51 93.3331L355.997 93.6477C357.672 94.485 358.85 93.3855 359.208 91.6832C359.72 89.1713 358.298 86.7289 357.135 84.6118C356.509 83.4676 355.896 82.2571 355.371 81.0667C354.91 80.0768 354.449 78.5549 355.27 77.6081C355.908 76.8865 357.223 76.8479 358.095 76.6181C359.129 76.3421 360.142 76.0291 361.178 75.8178C363.249 75.3907 365.306 74.8326 367.417 74.5658C368.595 74.424 370.526 73.5481 371.537 74.5828C372.867 75.9197 371.601 78.4407 371.089 79.8717C370.258 82.2571 369.414 84.732 369.147 87.2593C368.915 89.5599 369.477 92.0363 370.936 93.8713C372.011 95.222 373.815 96.3847 375.502 95.4055C376.845 94.6191 377.829 92.9384 378.432 91.5444C379.557 88.883 380.337 86.1213 381.232 83.3828C382.037 80.9156 382.871 78.4531 383.79 76.0168C384.467 74.2389 385.247 72.4918 385.927 70.7201C386.362 69.5698 386.963 68.4966 387.437 67.3632C387.819 66.4041 387.949 65.1567 388.894 64.5553C390.044 63.8336 391.463 65.9246 392.015 66.654C393.062 68.0155 393.996 69.4419 394.957 70.862C396.016 72.3963 396.977 74.4301 398.692 75.3059C401.646 76.8279 404.294 73.2721 405.956 71.3662C407.109 70.0633 408.272 68.7202 409.461 67.4141C410.725 66.014 412.017 64.6263 413.274 63.2262C414.09 62.3303 415.164 60.5724 416.508 60.5462C417.67 60.5277 417.942 61.7998 418.043 62.7142C418.557 67.0826 418.746 71.5266 419.399 75.9089C419.655 77.5372 419.974 79.1562 420.254 80.7753L420.665 83.0636C420.87 84.1507 421.086 85.2378 421.318 86.3203C421.815 88.5638 422.342 90.8089 423.019 93.0031C423.619 94.8643 424.387 96.8766 425.923 98.1826C427.75 99.7307 431.102 99.2127 432.277 97.0508C432.521 96.5959 432.624 96.0454 432.726 95.5351C432.931 94.4603 432.828 93.3331 432.738 92.2522C432.431 88.3973 431.358 84.6302 431.292 80.7414C431.28 79.1362 431.409 77.5433 431.536 75.9458C431.804 72.2174 432.277 68.5012 432.482 64.7681C432.738 60.2008 433.147 55.3729 431.832 50.9212C431.462 49.6429 430.937 48.4078 430.256 47.2637C429.67 46.246 428.928 45.2807 428.122 44.4372C427.266 43.5413 426.331 42.7611 425.244 42.1736C424.22 41.6169 422.89 41.1759 421.727 41.1173C418.927 40.977 416.023 42.5313 413.834 44.155C411.966 45.5366 410.279 47.1094 408.68 48.7917C405.84 51.8109 402.989 54.9257 400.468 58.2379C399.739 59.2031 398.857 60.9486 397.387 60.7636C395.646 60.5338 394.724 57.911 394.189 56.5294C393.665 55.2125 393.077 53.9466 392.474 52.6744C391.683 51.0615 390.875 49.4641 390.123 47.8327C389.494 46.4773 388.855 45.0694 387.882 43.9376C386.771 42.6454 385.338 42.0194 383.753 41.4951C382.627 41.1251 381.028 40.6578 379.929 41.3162C378.456 42.1983 378.738 44.411 378.649 45.8435C378.558 47.1234 378.419 48.3631 378.302 49.6429C377.983 52.7315 377.793 55.9095 377.101 58.941C376.794 60.2841 376.347 61.9725 375.193 62.836C374.299 63.5006 373.173 63.4112 372.137 63.4559C371.294 63.4944 370.438 63.4682 369.581 63.4435C367.635 63.3988 365.692 63.3217 363.747 63.3726C362.084 63.4235 360.411 63.5268 358.736 63.59C357.251 63.6548 355.754 63.8013 354.257 63.8013C352.582 63.8969 350.534 64.1652 348.963 63.4235C347.722 62.8298 347.056 61.4868 346.505 60.2964C345.713 58.6033 344.704 57.0166 343.756 55.4037C342.9 53.9651 342.069 52.5202 341.199 51.0939C339.946 49.0415 338.704 46.9953 337.424 44.9615C336.593 43.6184 335.724 42.2816 334.829 40.9771C334.1 39.9146 333.178 38.4899 331.898 38.0473C330.725 37.6387 329.573 38.4127 329.329 39.5769C329.164 40.331 329.341 41.105 329.187 41.859C329.022 42.6593 328.703 43.4457 328.368 44.1936C327.718 45.7032 326.848 47.1095 325.966 48.4911C322.999 53.1093 320.785 58.2317 318.137 63.0349C317.638 63.9293 317.114 64.8051 316.614 65.701C315.937 66.9546 315.491 67.9893 314.007 68.3871C312.674 68.7387 311.245 68.5598 309.902 68.8913C308.24 69.3077 307.751 70.7401 307.47 72.2944C307.239 73.6113 307.203 74.9544 306.998 76.2789C306.844 77.238 306.613 78.3174 306.715 79.2842Z" fill="#26064F"/>
<path fill-rule="evenodd" clip-rule="evenodd" d="M125.363 106.322C123.994 106.368 122.638 106.624 121.283 106.546C119.696 106.456 118.698 105.491 118.111 104.085C117.42 102.401 117.024 100.496 116.601 98.7309C116.217 97.061 115.911 95.4188 116.089 93.7118C116.205 92.7836 116.345 92.1067 117.101 91.4652C118.29 90.4814 119.952 91.1213 121.206 90.4182C122.331 89.786 122.703 88.409 122.805 87.214C122.984 85.2048 122.766 83.0506 122.664 81.0368C122.358 75.8558 122.703 70.573 122.049 65.4244C121.909 64.2355 121.526 62.8739 120.208 62.5208C117.599 61.8238 117.573 59.2349 117.408 57.0021C117.304 55.602 117.292 53.9521 117.855 52.6353C118.609 50.8312 120.618 49.8968 122.382 49.354C124.097 48.8235 125.836 48.3378 127.576 47.8644C129.341 47.3849 131.17 47.1227 132.972 46.8143C134.827 46.5013 136.682 46.233 138.55 45.9446C140.366 45.6578 142.183 45.408 144.024 45.2091C145.738 45.0179 147.464 44.8066 149.191 44.7049C151.212 44.5831 153.259 44.4628 155.279 44.3857C157.097 44.3086 158.911 44.3472 160.716 44.3595C162.52 44.3718 164.31 44.4489 166.1 44.506C167.941 44.5707 169.81 44.725 171.625 44.9732C174.273 45.3325 176.792 45.792 179.07 47.2815C181.435 48.8481 183.009 52.0524 180.669 54.4193C178.302 56.8171 174.49 56.4208 171.421 56.4208C168.9 56.4146 166.395 56.484 163.875 56.5549C161.457 56.632 159.039 56.8818 156.609 57.0345C154.358 57.1748 152.119 57.3352 149.857 57.5079C147.529 57.6868 145.188 57.9103 142.86 58.1416C141.005 58.3205 139.139 58.4994 137.308 58.8386C135.774 59.1192 133.97 59.3953 132.794 60.5209C131.924 61.3582 131.885 62.7583 132.243 63.8515C132.948 65.9625 136.146 65.4321 137.833 65.3874C141.671 65.2717 145.469 64.6395 149.293 64.3835C151.058 64.2617 152.811 64.1969 154.563 64.0952C156.686 63.9672 158.797 63.8963 160.933 63.9996C162.8 64.0891 164.629 64.3064 166.458 64.6827C168.697 65.1499 170.782 66.0134 172.84 66.9663C175.475 67.8807 175.054 71.2129 174.618 73.3547C174.388 74.4804 174.018 75.4703 173.007 76.0994C170.704 77.5196 167.443 77.1603 164.871 77.2297C162.339 77.3022 159.795 77.5242 157.275 77.7555C153.297 78.1333 149.319 78.5281 145.354 79.0215C142.924 79.3283 140.494 79.7508 138.064 80.0068C136.426 80.1841 134.277 80.0191 132.935 81.1772L132.692 81.3869L132.513 81.4902L132.385 81.7323L132.231 82.053C132.052 83.0753 131.003 86.4461 132.052 87.2525L132.269 87.3543H132.615C133.945 87.3605 135.262 87.2849 136.593 87.2247C138.613 87.1368 140.635 87.0536 142.668 86.8886C146.557 86.5679 150.445 86.2487 154.333 85.9095C156.865 85.6843 159.474 85.5455 162.032 85.3127C165.869 84.9704 169.707 84.7653 173.545 84.6111C175.872 84.5155 178.111 84.5541 180.297 83.5872C182.829 82.4554 184.928 80.474 187.409 79.188C190.542 77.5705 193.752 76.1241 196.924 74.596C200.813 72.7225 204.611 70.5668 208.564 68.8275C211.608 67.4906 214.665 66.1676 217.71 64.8369C219.181 64.1969 220.689 63.5956 222.095 62.7907C223.068 62.2217 225.588 60.9866 224.948 59.4585C224.616 58.6659 223.606 58.5502 222.863 58.4608C219.947 58.1092 212.632 58.652 208.154 59.3428C200.902 60.6103 199.892 61.5617 197.871 59.5618C196.337 57.918 196.719 55.5958 196.95 53.5619C197.18 51.471 198.179 48.3054 198.882 47.519C200.98 44.7681 207.898 44.449 211.123 44.2115C212.785 44.0912 214.473 44.0403 216.149 44.0264C218.502 44.0079 220.843 44.1683 223.182 44.1683C225.218 44.2577 227.238 44.3857 229.259 44.5892C231.561 44.8205 234.081 44.8776 236.32 45.5931C237.049 45.8306 237.777 46.0742 238.468 46.3995C240.782 47.4805 242.893 48.8944 244.466 50.9144C245.401 52.111 246.014 53.4849 246.321 54.9621C246.475 55.6729 246.577 56.3699 246.475 57.0915C246.398 57.6235 246.244 58.6844 245.913 59.1069L245.772 59.2858C245.452 59.9889 244.836 60.6227 244.275 61.1284C241.538 63.5324 237.547 64.4082 234.248 65.7698C232.61 66.4483 230.999 67.2285 229.387 67.964C224.859 70.0303 220.37 72.1782 215.752 74.0532C211.954 75.606 208.167 77.2004 204.523 79.097C203.524 79.6228 202.067 80.3707 201.465 81.3869C200.864 82.4616 202.168 82.4554 203.012 82.4739C203.934 82.5063 204.867 82.4493 205.801 82.3799C208.602 82.1532 211.403 81.8865 214.217 81.5781C217.082 81.2589 219.972 81.0029 222.839 80.639C225.537 80.2936 228.235 79.9436 230.922 79.6475C233.864 79.3345 236.729 79.2266 239.671 79.2204C242.625 79.2204 245.502 79.2574 248.42 79.7447L248.855 79.814L249.621 79.8526C250.85 79.8526 252.141 79.6876 252.768 78.4525C253.79 76.4557 254.38 74.0471 255.121 71.9299C256.068 69.1852 257.052 66.4483 258.037 63.7174C258.165 63.3396 258.307 62.9634 258.447 62.5856C259.571 59.497 260.672 56.3946 261.9 53.3446C262.385 52.111 262.897 50.8897 263.294 49.6161C263.59 48.6631 263.728 47.6978 264.176 46.7896C264.919 45.3325 266.262 44.3919 267.77 45.4527C268.987 46.3101 269.818 47.7996 270.521 49.0918C271.249 50.4534 271.878 51.8103 272.222 53.3261C272.567 54.8542 272.197 56.2096 271.736 57.6744C271.263 59.1779 270.649 60.6674 270.253 62.1955C269.395 65.4768 272.618 68.1243 275.099 69.6201C277.338 70.9755 279.908 71.8914 282.314 72.9076C284.116 73.6678 285.921 74.468 287.825 74.8442C288.964 75.0632 290.409 75.293 291.419 74.5698C293.055 73.3809 293.555 71.0603 294.107 69.23C294.771 66.9787 295.268 64.6704 295.769 62.3744C296.202 60.4747 296.497 58.5441 296.702 56.6058C296.869 55.0777 297.009 53.5435 297.1 52.0154C297.199 50.0247 297.049 48.1065 297.021 46.125C297.021 44.8452 297.251 43.1891 298.148 42.1915C299.299 40.8731 301.296 41.5516 302.265 42.8052C302.292 42.8314 302.623 43.2601 302.623 43.2601C303.214 44.2578 303.647 45.351 303.979 46.4628C304.554 48.4581 304.876 50.512 305.081 52.5705C305.258 54.2713 305.373 55.9721 305.439 57.6806C305.641 63.571 305.234 69.4736 304.44 75.3053C304.005 78.4525 303.316 81.5149 302.651 84.6111C302.265 86.3135 301.972 88.0636 301.243 89.6626C300.756 90.7111 300.079 91.7273 299.311 92.5862C298.939 93.0025 298.531 93.3526 298.07 93.6471C296.471 94.6524 294.386 94.6139 292.571 94.4335C290.039 94.1976 287.609 93.5437 285.23 92.6679C283.72 92.1251 282.263 91.5361 280.817 90.8515C279.346 90.1499 277.862 89.4452 276.442 88.6387C275.011 87.8276 273.616 86.9317 272.285 85.9788C271.007 85.0783 269.755 84.0745 268.666 82.955C267.707 81.9697 266.991 80.7022 266.095 79.6598C265.135 78.5604 264.395 78.1904 263.767 79.7061C263.385 80.6899 263.18 81.7261 262.948 82.7623C262.564 84.5726 262.028 86.3644 261.466 88.1346C260.928 89.8801 258.612 94.728 256.093 92.4706C255.275 91.7412 254.686 90.8006 253.457 90.8145C252.205 90.833 251.015 91.3449 249.8 91.6132C248.522 91.9016 247.191 92.0542 245.886 92.3164C243.418 92.8206 240.949 93.3973 238.494 93.8907C236.857 94.2099 235.219 94.4396 233.594 94.7218C232.023 94.9901 230.436 95.1937 228.849 95.4327C227.213 95.6748 225.588 95.9369 223.963 96.1281C221.406 96.4473 218.86 96.7541 216.314 97.024C214.268 97.2938 212.236 97.4974 210.201 97.7333C208.5 97.9199 206.811 98.0972 205.11 98.2653C202.258 98.5397 199.431 98.7895 196.568 98.8836C192.257 99.0378 187.793 99.2938 183.546 98.438C182.599 98.2514 181.193 98.1373 180.476 97.4326C179.966 96.9346 180.374 96.0834 179.99 95.4959L179.927 95.3926L179.76 95.2137L179.606 95.1058L179.44 95.0348H179.299H179.096L178.915 95.1058L178.712 95.1767L178.532 95.317L178.174 95.5653L177.944 95.8397L177.765 96.1559L177.662 96.5059C176.741 99.4804 173.62 100.598 170.782 100.964L125.363 106.322Z" fill="#26064F"/>
<path fill-rule="evenodd" clip-rule="evenodd" d="M549.401 83.2471C543.441 83.6773 537.824 84.6857 531.773 84.1106C529.819 83.9194 526.455 83.7575 524.805 82.6781C519.971 79.4939 536.905 73.821 538.989 73.0793C544.86 70.9822 556.691 67.5668 556.691 67.5668C556.691 67.5668 567.806 64.8036 568.139 58.8177C568.546 51.5534 561.077 48.266 555.36 46.4495C552.981 45.9191 550.642 45.5166 548.223 45.2729C546.601 45.1064 544.949 45.037 543.311 44.98C540.231 44.8705 537.224 45.1712 534.152 45.5413C531.008 45.919 524.319 46.1164 523.346 50.0701C522.859 52.0839 520.583 56.2348 522.489 58.0574C524.509 59.9941 527.798 59.1893 530.28 58.9456C533.707 58.6064 537.096 57.968 540.51 57.6288C543.031 57.379 546.317 56.8223 548.389 58.6711C550.933 60.9671 544.181 63.1413 542.838 63.7165C537.737 65.8907 532.404 67.4512 527.286 69.5822C522.489 71.5775 517.679 73.4956 512.999 75.733C510.848 76.7554 508.842 78.0167 506.822 79.2441L505.849 78.578L499.953 79.2056C499.953 79.2056 494.055 79.6928 494.044 79.6928C490.092 80.0182 486.086 80.1323 482.123 80.3189C480.142 80.3883 477.033 80.4669 475.471 78.9882C472.059 75.747 473.961 71.2567 476.214 68.1235C478.681 64.7142 482.148 62.1884 485.703 60.0404C488.095 58.6017 490.743 57.4237 493.429 56.6173C495.245 56.0683 497.128 55.6134 499.018 55.3328C499.287 55.8571 499.594 56.3813 499.89 56.8933C500.042 57.1878 504.455 55.3328 504.876 55.1153C506.232 54.4122 508.125 52.9982 508.165 51.2913C508.229 49.2127 506.437 47.1403 504.813 46.1041C502.997 44.9476 500.937 44.5621 498.803 44.5436C496.486 44.5112 494.158 44.6531 491.881 44.9538C490.269 45.1712 488.686 45.5289 487.11 45.9822C484.502 46.744 482.021 47.774 479.654 49.0971C476.507 50.8565 473.437 53.2094 470.971 55.8323C469.793 57.0783 468.731 58.466 467.847 59.9371C466.709 61.8167 465.878 63.8954 465.212 65.9878C463.411 71.7748 463.96 78.982 466.571 84.4437C468.359 88.1968 471.136 91.4534 474.691 93.64C479.169 96.3955 484.834 97.3052 489.962 96.3199C492.113 95.9159 494.019 95.3531 496.001 94.5482C498.096 93.697 500.146 93.071 502.102 91.9376C502.485 91.7325 506.668 89.3363 506.909 89.6555C507.562 90.5067 507.945 91.549 508.65 92.3617C509.328 93.1481 510.185 93.8635 511.003 94.4772C512.731 95.774 514.688 96.286 516.796 96.5373C522.079 97.1695 527.44 97.4903 532.761 97.5612C537.005 97.6182 541.302 97.3284 545.524 96.9336C548.263 96.6777 551 96.3199 553.723 95.9868C560.656 95.1357 566.387 93.5937 573.895 90.354C577.437 88.6841 579.637 86.5407 580.993 84.9556C580.199 84.4575 579.279 84.0211 578.408 83.6711C572.947 81.4753 566.717 81.3859 560.912 82.1291C558.236 82.4684 555.566 82.729 552.892 82.9664C551.729 83.0744 550.563 83.1653 549.401 83.2471Z" fill="#26064F"/>
<path fill-rule="evenodd" clip-rule="evenodd" d="M456.887 89.4514C456.95 88.4368 456.836 87.4176 456.54 86.6327C455.76 84.585 453.598 82.5064 451.45 82.1101C449.506 81.76 447.165 82.1301 445.578 83.376C444.723 84.0545 443.79 85.1478 443.341 86.1655C442.356 88.3967 442.457 91.7104 443.904 93.6857C446.346 97.0302 451.515 97.0302 454.391 94.3179C455.772 93.0257 456.745 91.3773 456.887 89.4514Z" fill="#26064F"/>
</g>
<defs>
<clipPath id="clip0_5251_4000">
<rect width="580" height="144" fill="white"/>
</clipPath>
</defs>
</svg>
