<svg width="751" height="176" viewBox="0 0 751 176" fill="none" xmlns="http://www.w3.org/2000/svg">
<g clip-path="url(#clip0_5251_3997)">
<path fill-rule="evenodd" clip-rule="evenodd" d="M80.0661 32.9845V54.8943C69.6463 51.2497 58.2364 49.1219 49.1396 49.1219C37.9109 49.1219 31.6624 52.5432 31.6624 58.6905C31.6624 62.6132 34.3969 65.2129 42.2423 68.7395L63.3431 78.2071C80.222 85.7912 88.7288 96.8556 88.7288 111.232C88.7288 133.42 69.5241 147.417 39.0822 147.417C27.9799 147.417 15.1374 145.828 1.53231 142.752V120.105C15.0194 123.775 27.3732 125.734 36.9839 125.734C49.5694 125.734 56.3109 122.229 56.3109 115.694C56.3109 111.767 53.6775 108.881 47.6481 106.188L24.5544 95.9034C7.4353 88.2687 -0.464844 77.9838 -0.464844 63.3211C-0.464844 42.3088 18.0447 28.9102 47.0835 28.9102C57.2505 28.9102 69.7643 30.4565 80.0661 32.9845ZM105.161 31.2065H139.286V145.12H105.161V31.2065ZM250.237 31.2065V52.0755H198.72V77.7689H243.723V96.6449H198.72V123.282H250.903V145.12H165.56V31.2065H250.237ZM411.451 31.2065V145.12H378.435V70.1426L346.092 146.009H325.219L293.096 70.1426V145.12H270.297V31.2065H311.968L341.428 100.496L370.737 31.2065H411.451ZM522.491 31.2065V52.0755H470.898V77.7689H515.889V96.6449H470.898V123.282H523.073V145.12H437.654V31.2065H522.491ZM642.687 31.2065V145.12H606.27L565.266 72.0597V145.12H542.463V31.2065H579.84L619.964 103.302V31.2065H642.687ZM741.719 32.9845V54.8943C731.375 51.2749 719.894 49.1219 710.965 49.1219C699.56 49.1219 693.315 52.4884 693.315 58.6568C693.315 62.6764 695.864 65.0781 703.98 68.7437L724.988 78.2113C741.989 85.8755 750.39 96.843 750.39 111.388C750.39 133.458 731.169 147.425 700.794 147.425C689.675 147.425 676.782 145.828 663.194 142.761V120.114C676.664 123.775 688.992 125.743 698.54 125.743C711.041 125.743 717.968 122.237 717.968 115.909C717.968 111.721 715.541 109.02 709.221 106.197L686.22 95.9118C668.996 88.2181 661.188 78.0512 661.188 63.3337C661.188 42.3341 679.706 28.927 708.677 28.927C718.874 28.9144 731.438 30.4565 741.719 32.9845Z" fill="#26064F"/>
</g>
<defs>
<clipPath id="clip0_5251_3997">
<rect width="751" height="176" fill="white"/>
</clipPath>
</defs>
</svg>
