<svg width="171" height="118" viewBox="0 0 171 118" fill="none" xmlns="http://www.w3.org/2000/svg">
<path fill-rule="evenodd" clip-rule="evenodd" d="M84.0359 46.3453C84.0359 42.4521 89.4689 41.4373 90.7798 44.8916C91.8446 47.7038 89.7513 49.9031 87.8999 49.9031C86.2866 49.9031 84.9757 49.3191 84.3505 47.8032C84.2497 47.5589 84.0359 46.6104 84.0359 46.3453ZM73.5127 11.7407C73.6055 12.101 74.5695 12.9294 74.9002 13.1903C76.3724 14.3376 77.9777 16.3671 79.2079 17.7919C79.7 18.3593 80.059 18.8356 80.5147 19.461C80.9786 20.0988 81.3174 20.5544 81.7449 21.2088C82.2007 21.9129 83.7011 24.3069 83.7697 25.1477C83.3623 25.156 83.2857 25.2098 82.9711 25.2844L78.6715 20.6704C78.3488 20.3929 78.2601 20.3805 77.9414 20.0533C76.4087 18.4753 73.908 16.5617 72.1575 15.46C71.8025 15.2364 69.2696 13.7495 68.8138 13.911C68.8057 13.9151 68.12 14.3086 68.0555 14.3459L65.7322 15.9239C63.7518 17.4522 63.4251 17.7836 61.6907 19.5687L60.4606 21.0432C62.3321 22.3313 64.9861 23.6152 67.3496 25.4583C68.9227 26.6843 72.222 28.9788 73.3796 30.7557C73.0287 30.8385 72.9884 30.8799 72.7141 31.029C70.6732 29.6249 68.3903 28.2623 65.9016 27.3511C64.2237 26.7381 59.3231 24.9074 57.7945 24.8702C57.613 25.566 54.7452 30.2007 54.2168 35.4483C54.12 36.3926 54.7049 35.9453 57.617 36.8192C61.8521 38.0908 66.6398 40.1285 69.3664 43.9017C69.8705 44.5975 70.1932 44.9868 70.5845 45.7945C71.6614 48.0269 72.6617 50.7895 72.7141 53.3201C69.201 53.3201 70.6611 53.4775 67.5755 52.1687C66.4381 51.6882 65.6314 51.1291 64.4617 51.125C61.7069 51.1167 58.9521 51.1291 56.1972 51.1291C56.3344 51.7255 57.0402 53.0053 57.3508 53.639C57.5726 54.0946 57.7299 54.3266 57.9881 54.7656C58.9037 56.3188 59.8959 57.7725 61.0333 59.1642C61.356 59.5618 61.6504 59.7357 61.9287 60.1582C66.5188 60.1582 65.2402 60.5765 68.6323 58.837C70.0157 58.1287 69.8907 57.9672 71.9195 57.9713H97.0961C97.318 58.9529 97.7052 59.4624 97.7617 60.1582C99.0886 60.1582 101.831 59.2636 102.904 58.5967C104.009 57.9051 105.978 56.7329 106.688 55.6436C105.425 53.7053 100.496 51.1291 97.7617 51.1291C97.7052 51.8291 97.322 52.3219 97.0961 53.316H94.2969C94.7164 51.4646 95.6965 49.7954 96.5073 45.5998C98.0359 37.6849 97.8948 31.3976 95.2125 23.9258C94.8132 22.8117 94.2526 21.4491 93.6597 20.4592C93.333 19.9166 93.1152 19.4651 92.7804 18.9019C92.4416 18.3344 92.1028 17.8581 91.768 17.3404C90.6507 15.6091 89.9812 15.0748 89.0091 13.882L86.5366 11.3597C85.0483 10.0799 85.0927 10.229 82.842 10.229C77.3687 10.2331 74.4807 11.6579 73.5127 11.7407Z" fill="#26064F"/>
<path fill-rule="evenodd" clip-rule="evenodd" d="M49.9337 39.5068C49.9337 33.9941 51.4543 28.0382 54.0196 23.3207C55.5241 20.554 57.8514 17.3441 60.0899 15.1904C65.5431 9.94273 73.6745 5.99561 81.1081 5.99561C85.7989 5.99561 89.7033 6.22341 94.0715 8.00438C95.0435 8.40199 95.9672 8.76232 96.8747 9.23035C98.7785 10.2161 102.457 12.4734 104.127 14.0969L105.192 15.0537C106.369 16.1844 106.41 16.4081 107.12 17.1784C108.358 18.5204 108.668 19.1002 109.774 20.6078C110.08 21.0262 110.278 21.4403 110.552 21.8628C111.843 23.8384 112.992 26.572 113.73 28.8583C114.065 29.8937 114.38 30.8919 114.626 32.0433C115.642 36.7981 115.8 42.1865 114.654 46.8709C114.4 47.9146 114.11 49.2276 113.767 50.2009C113.593 50.6938 113.4 51.2156 113.218 51.6878C111.234 56.7615 110.056 58.1076 106.978 62.1044C105.72 63.7404 102.239 66.619 100.323 67.8532C99.0165 68.6981 97.6895 69.4851 96.2616 70.1105C90.6834 72.5624 85.2665 73.689 79.0954 72.9062C76.8891 72.6287 74.344 72.1565 72.3031 71.3986C71.8231 71.2205 71.3149 71.0217 70.8551 70.8353L68.7255 69.8785C68.4391 69.7501 68.2858 69.7253 67.9793 69.5472L63.607 66.7846C63.3731 66.6107 63.1755 66.503 62.9738 66.3415L60.711 64.4279C59.5494 63.4836 57.811 61.305 56.8309 60.0708C52.4224 54.5498 49.9337 46.5934 49.9337 39.5068ZM81.6042 2.71117C75.5339 2.87685 69.5886 4.57498 64.2927 7.88012C62.0703 9.26762 61.6105 9.65281 59.7672 11.1687C58.4927 12.2166 57.9603 12.8627 56.8228 14.0307C55.2901 15.6046 54.1083 17.1329 52.8862 19.0174C49.8652 23.6728 47.3039 30.1671 46.9974 35.8123C46.7917 39.5814 46.6828 40.6955 47.1103 44.3154C47.4814 47.4508 48.2841 50.4618 49.3933 53.3238C50.9421 57.3041 52.6724 59.9465 55.274 63.289L57.4157 65.7409C58.8194 67.1988 61.9453 69.7336 63.5143 70.6945C66.011 72.2228 68.2818 73.4529 71.085 74.4097C73.622 75.2753 77.7523 76.3356 80.4264 76.3066C81.3339 76.2983 81.6405 76.4433 82.5561 76.4433C85.2786 76.4433 87.9568 76.0291 90.5624 75.4989C91.8289 75.2422 92.926 74.8777 94.0957 74.4759C97.9839 73.1464 101.15 71.3903 104.385 68.8969L108.035 65.6705C108.386 65.3101 108.798 64.9457 109.088 64.5646C111.407 61.5494 112.601 60.5802 114.662 56.3349C114.912 55.8172 115.162 55.345 115.416 54.7859C116.159 53.1581 116.687 51.4973 117.211 49.7867C117.381 49.2359 117.514 48.5897 117.675 47.9353C118.228 45.6946 118.659 42.0209 118.659 39.6435C118.659 30.6972 115.751 23.1302 110.613 16.3087C110.407 16.0353 110.302 15.969 110.112 15.7247L109.112 14.5774C108.838 14.2792 108.838 14.1839 108.584 13.8899L106.309 11.7154C105.877 11.3675 105.563 11.1024 105.127 10.738C102.864 8.84102 100.961 7.70203 98.3388 6.35594C96.4431 5.38262 94.0674 4.42173 91.9539 3.8833C89.187 3.1792 86.3878 2.78573 83.5967 2.70703H81.6042V2.71117Z" fill="#26064F"/>
<path fill-rule="evenodd" clip-rule="evenodd" d="M122.536 110.228H108.282V97.6411H122.136C123.754 97.6411 125.069 98.6061 125.069 100.242V107.354C125.065 108.956 124.052 110.228 122.536 110.228ZM102.82 92.8573V115.293H123.867C125.44 115.293 127.783 113.67 128.8 112.286C130.994 109.296 130.53 105.776 130.53 101.476C130.53 98.7801 129.711 96.0589 127.654 94.4436C127.384 94.2282 127.323 94.1371 127.069 93.9507C125.762 92.9857 123.778 92.4473 122.003 92.4473H103.22C102.913 92.4473 102.82 92.5425 102.82 92.8573Z" fill="#26064F"/>
<path fill-rule="evenodd" clip-rule="evenodd" d="M73.7813 107.358C73.7813 105.378 73.4465 99.9773 74.2895 98.8507C74.6081 98.4241 75.2414 97.7821 75.915 97.7821H89.2374C90.4555 97.7821 91.5001 98.859 91.5001 100.106V107.905C91.5001 109.193 90.3546 110.228 89.1043 110.228H76.0481C75.0155 110.228 73.7813 109.073 73.7813 107.358ZM68.4531 100.106V108.041C68.4531 109.652 69.5341 111.814 70.615 112.933C71.5629 113.914 73.4263 115.289 75.2454 115.289H90.165C90.7378 115.289 91.1734 115.161 91.613 115C91.9438 114.875 92.5206 114.647 92.8271 114.469C93.1619 114.271 93.5168 114.001 93.8677 113.761C95.5819 112.589 96.9573 109.901 96.9573 107.768V100.242C96.9573 98.9584 96.554 97.9064 96.1143 97.0035C95.8118 96.3822 95.7271 96.2207 95.3601 95.7236C95.0495 95.3012 94.7188 94.9864 94.3275 94.5929C92.8069 93.0688 90.4797 92.4434 88.2976 92.4434H77.3751C74.0555 92.4434 71.9299 93.3753 70.2117 95.4834C69.885 95.8852 69.5946 96.2952 69.3364 96.7715C68.921 97.5502 68.4531 98.9625 68.4531 100.106Z" fill="#26064F"/>
<path fill-rule="evenodd" clip-rule="evenodd" d="M37.9473 115.289H43.4085V106.533H50.467L54.7626 110.878C55.9646 112.117 58.3161 114.051 59.1268 115.289H66.7217L55.3999 104.073L61.2282 98.2955C61.7283 97.7819 62.1276 97.3718 62.6278 96.8583C63.8096 95.6447 66.2619 93.5614 66.992 92.4473H59.5301C59.0501 93.1845 54.1253 97.931 53.1008 98.9789C52.52 99.5753 51.4028 100.59 51.0035 101.203H43.4085V92.4473H37.9473V115.289Z" fill="#26064F"/>
<path fill-rule="evenodd" clip-rule="evenodd" d="M148.778 96.8254C148.919 97.4383 151.403 101.696 151.972 102.848L152.646 104.073C152.86 104.455 153.089 104.877 153.331 105.283C153.59 105.71 153.751 106.115 153.973 106.542H143.45C143.869 105.73 144.248 104.976 144.728 104.16L148.778 96.8254ZM132.66 115.289H138.654L143.183 106.944L145.983 111.322H156.639C156.982 111.988 157.345 112.61 157.7 113.243L158.768 115.289H164.895C164.714 114.49 162.439 110.771 161.83 109.545C161.58 109.04 161.362 108.658 161.076 108.132L156.417 99.6501C156.139 99.1199 155.897 98.6602 155.598 98.1632L152.509 92.4434H145.047L143.175 95.997C143.034 96.2497 142.925 96.3863 142.78 96.6845C142.51 97.2271 142.252 97.6537 141.985 98.1922L133.455 113.782C133.197 114.312 132.93 114.768 132.66 115.289Z" fill="#26064F"/>
<path fill-rule="evenodd" clip-rule="evenodd" d="M5.84084 98.0555C5.84084 100.462 5.53834 103.021 7.07104 104.591C7.91806 105.461 9.01515 106.128 10.3704 106.128H26.8872C26.8872 111.5 28.2949 110.506 18.0944 110.506C14.8071 110.506 11.5239 110.506 8.2367 110.506C7.77689 111.4 5.5827 114.747 5.4375 115.294L28.7225 115.269C29.5049 115.136 30.6464 114.337 31.0941 113.736C31.683 112.941 32.2114 112.1 32.2114 110.783V105.577C32.2114 103.866 31.0094 102.214 29.5332 101.626C27.9037 100.975 25.1811 101.199 23.2854 101.199H13.4277C12.2298 101.199 11.165 101.352 11.165 100.106V92.4434C7.81319 92.4475 5.84084 94.6426 5.84084 98.0555Z" fill="#26064F"/>
<path fill-rule="evenodd" clip-rule="evenodd" d="M16.2307 97.2352H28.8876L31.3964 93.1099C31.5819 92.8034 31.594 92.8573 31.6868 92.4473H13.4355C13.6211 93.2673 15.6862 96.1749 16.2307 97.2352Z" fill="#26064F"/>
</svg>
