<svg width="477" height="118" viewBox="0 0 477 118" fill="none" xmlns="http://www.w3.org/2000/svg">
<path d="M94.554 52.3311H65.7852V105.124H94.554V52.3311Z" fill="#26064F"/>
<path d="M131.513 13.0127H78.6641V39.4376H131.5L131.513 13.0127Z" fill="#26064F"/>
<path d="M65.7849 25.9062H12.9922V52.3311H65.7849V25.9062Z" fill="#26064F"/>
<path d="M409.667 43.084H398.43V105.524H409.149V64.4074H409.648L430.875 105.531H431.282L452.59 64.4074H452.996V105.524H463.578V43.084H453.363L431.607 85.4247H431.288L409.667 43.084ZM167.318 105.524H177.931V52.375H205.889V43.084H177.969V52.375H144.992V61.6475H167.318V105.524ZM260.566 43.084V51.4508H280.701V105.524H291.42V51.4696H311.535V43.084H260.566ZM370.354 90.8571C370.386 91.5639 370.278 92.27 370.042 92.9365C369.773 93.5996 369.37 94.201 368.862 94.7035C368.375 95.2284 367.773 95.6307 367.101 95.8774C366.433 96.1142 365.725 96.2223 365.017 96.1958H341.811C341.103 96.2278 340.397 96.1195 339.731 95.8774C339.046 95.6294 338.427 95.2278 337.921 94.7035C337.411 94.2102 337.025 93.6051 336.789 92.9365C336.532 92.275 336.425 91.5651 336.471 90.8571V43.084H325.752V90.3575C325.653 92.251 325.929 94.1451 326.563 95.932C327.196 97.719 328.175 99.3637 329.444 100.772C330.714 102.18 332.248 103.325 333.959 104.14C335.67 104.956 337.525 105.426 339.419 105.524C339.931 105.553 340.443 105.553 340.955 105.524H365.927C367.819 105.623 369.714 105.347 371.498 104.713C373.285 104.08 374.929 103.1 376.336 101.831C377.744 100.562 378.886 99.0272 379.699 97.3157C380.515 95.6041 380.982 93.749 381.079 91.8561C381.111 91.3614 381.111 90.8649 381.079 90.3702V43.084H370.354V90.8571ZM238.809 80.4234H218.043L228.269 55.2723H228.632L238.809 80.4234ZM234.29 43.084H223.202L197.235 105.524H207.687L214.141 89.6957H242.598L249.016 105.487H260.148L234.29 43.084Z" fill="#26064F"/>
</svg>
