<svg width="410" height="162" viewBox="0 0 410 162" fill="none" xmlns="http://www.w3.org/2000/svg">
<g clip-path="url(#clip0_5251_3991)">
<path fill-rule="evenodd" clip-rule="evenodd" d="M31.5114 119.536H81.4329C82.0162 119.536 82.0162 119.828 81.4329 120.119C75.8871 122.744 67.7119 130.919 67.7119 130.919C62.1661 136.469 57.7869 139.968 48.1511 139.968H0.273416C-0.0182221 139.968 -0.0182221 139.385 0.273416 139.385C5.52758 136.469 13.4111 128.294 13.4111 128.294C16.6215 124.498 23.3362 119.536 31.5114 119.536ZM359.658 119.536H409.874C410.166 119.536 410.166 119.828 409.874 120.119C404.036 122.744 396.153 130.919 396.153 130.919C390.311 136.469 385.932 139.968 376.59 139.968H328.712C328.42 139.968 328.42 139.385 328.712 139.385C333.966 136.469 341.85 128.294 341.85 128.294C345.062 124.498 351.483 119.536 359.658 119.536ZM113.548 119.536H163.47C164.053 119.536 164.053 119.828 163.47 120.119C157.924 122.744 149.749 130.919 149.749 130.919C144.203 136.469 139.824 139.968 130.188 139.968H82.6018C82.0185 139.968 82.0185 139.385 82.3102 139.385C87.5643 136.469 95.4479 128.294 95.4479 128.294C98.6606 124.498 105.375 119.536 113.548 119.536ZM195.585 119.536H245.509C246.092 119.536 246.092 119.828 245.509 120.119C239.963 122.744 231.788 130.919 231.788 130.919C226.237 136.469 221.863 139.968 212.516 139.968H164.639C164.347 139.968 164.347 139.385 164.347 139.385C169.893 136.469 177.485 128.294 177.485 128.294C180.697 124.498 187.412 119.536 195.585 119.536ZM277.622 119.536H327.837C328.129 119.536 328.129 119.828 327.546 120.119C322 122.744 313.824 130.919 313.824 130.919C308.274 136.469 303.895 139.968 294.553 139.968H246.675C246.384 139.968 246.384 139.385 246.675 139.385C251.929 136.469 259.813 128.294 259.813 128.294C262.734 124.498 269.446 119.536 277.622 119.536Z" fill="#26064F"/>
<path fill-rule="evenodd" clip-rule="evenodd" d="M291.345 22.0312C259.81 22.0312 238.791 38.3784 238.791 63.1943C238.791 85.9665 258.063 101.145 286.669 101.145C296.016 101.145 304.191 99.9783 313.824 97.3491V78.3773C307.107 85.9665 298.932 88.8827 290.173 88.8827C273.24 88.8827 261.565 77.7917 261.565 61.4446C261.565 45.3867 273.531 33.7101 290.465 33.7101C299.515 33.7101 306.816 37.2119 312.658 43.343V24.0749C306.524 22.9061 298.932 22.0312 291.345 22.0312ZM56.0344 35.4575C67.7116 35.4575 81.7266 37.7928 87.5663 42.7551V24.6558H4.65234V42.7551C10.4898 37.7928 23.0442 35.7492 36.4736 35.7492V85.3785C36.4736 92.6738 35.8903 94.7198 32.9716 98.5155H59.5387C56.62 94.7198 56.0344 92.6738 56.0344 85.3785V35.4575ZM140.701 53.2675C136.03 55.0195 127.271 55.3112 122.892 55.3112H115.883V35.7515H125.225C133.692 35.7515 147.996 37.5012 153.544 42.4658V24.6582H93.1121C96.0309 28.16 96.6141 30.4953 96.6141 37.5012V85.3785C96.6141 92.6738 96.0309 94.7198 93.4038 98.5155H157.632V80.414C148.873 87.1283 131.942 87.1283 125.227 87.1283H115.883V66.4021H122.598C127.269 66.4021 135.736 66.9854 140.698 68.7374L140.701 53.2675ZM230.325 26.9935C220.691 23.7833 208.137 22.0312 198.503 22.0312C180.986 22.0312 164.053 27.5767 164.053 46.2615C164.053 78.375 216.601 61.4422 216.601 81.2958C216.601 87.7162 207.259 90.3455 199.67 90.3455C186.24 90.3455 176.899 88.0078 165.219 80.4186V96.7658C173.978 99.6867 185.949 101.436 198.793 101.436C216.893 101.436 233.827 96.1826 233.827 77.2085C233.827 43.3453 181.57 58.526 181.57 42.1765C181.57 35.4622 190.036 33.1269 197.334 33.1269C209.597 33.1269 223.027 36.9203 230.322 44.2202L230.325 26.9935ZM365.209 23.1977C336.887 23.1977 316.743 39.5449 316.743 62.6087C316.743 85.3809 334.848 100.268 361.413 100.268C390.021 100.268 409.874 84.506 409.874 61.1506C409.874 38.3784 391.773 23.1977 365.209 23.1977ZM363.162 89.1766C347.983 89.1766 338.345 76.9145 338.345 61.7338C338.345 46.5532 347.983 34.2911 363.162 34.2911C378.05 34.2911 387.98 46.5532 387.98 61.7338C387.98 76.9145 378.05 89.1766 363.162 89.1766Z" fill="#26064F"/>
</g>
<defs>
<clipPath id="clip0_5251_3991">
<rect width="410" height="162" fill="white"/>
</clipPath>
</defs>
</svg>
