<svg width="514" height="142" viewBox="0 0 514 142" fill="none" xmlns="http://www.w3.org/2000/svg">
<path fill-rule="evenodd" clip-rule="evenodd" d="M105.952 11.2334L32.2074 121.079L0.753906 21.1781L42.2886 49.1444L105.952 11.2334Z" fill="#26064F"/>
<path fill-rule="evenodd" clip-rule="evenodd" d="M207.013 94.9297C208.727 83.5211 209.231 80.0379 212.155 60.7038C213.062 60.098 217.952 59.4923 219.262 59.4418C238.013 59.0884 233.981 80.997 228.89 88.6701C224.605 95.1316 220.018 97.4033 207.013 94.9297ZM205.098 109.317C215.683 110.781 223.9 111.538 232.973 106.591C240.029 102.704 245.02 97.0499 248.246 88.4682C255.756 68.4778 251.068 49.4466 230.805 45.6101C221.833 43.8937 209.03 45.1557 200.662 47.4778C196.176 48.7399 200.662 47.4778 195.722 48.9923C183.323 131.983 193.807 61.8648 183.625 130.165L201.721 130.014C202.578 124.764 204.039 115.879 205.098 109.317Z" fill="#26064F"/>
<path fill-rule="evenodd" clip-rule="evenodd" d="M416.099 77.8179C412.369 101.09 395.936 98.4645 391.954 91.7506C389.837 88.116 389.787 82.8155 390.291 78.2217C391.249 69.5391 395.382 60.8564 403.548 59.6448C414.738 57.979 417.712 67.7218 416.099 77.8179ZM434.195 77.8179C435.959 67.5198 432.733 58.4838 427.743 52.6785C418.569 41.8756 378.395 35.616 372.044 77.9693C369.019 98.2121 380.361 112.448 402.842 110.782C422.652 109.318 430.969 96.4958 434.195 77.8179Z" fill="#26064F"/>
<path fill-rule="evenodd" clip-rule="evenodd" d="M302.988 47.0758C293.562 44.2994 277.684 43.7441 268.913 47.2273C255.354 52.6287 250.011 70.196 268.308 81.8066C271.333 83.7248 287.563 90.9436 279.599 95.1839C277.281 96.446 273.853 96.4964 271.081 96.446C268.157 96.3955 264.931 96.1431 262.108 95.6888C259.739 95.3354 257.622 95.1335 254.094 94.4267C252.128 104.876 253.993 95.083 251.473 108.41C264.528 111.641 288.773 114.064 297.191 101.09C299.863 97.0013 301.123 90.5902 299.409 85.5926C296.435 76.9099 285.9 72.72 278.238 67.8234C271.534 63.5325 275.567 59.5446 283.229 59.3426C289.731 59.1407 295.024 60.7056 300.669 61.1599L302.988 47.0758Z" fill="#26064F"/>
<path fill-rule="evenodd" clip-rule="evenodd" d="M503.202 27.2881L484.249 34.002C481.325 50.5092 479.208 67.7231 476.587 84.6847C475.226 93.7712 473.966 102.757 480.469 107.3C488.181 112.701 503 110.177 504.311 109.117C505.268 103.312 505.924 99.526 506.881 93.9226C493.373 95.0332 493.625 92.5092 495.137 82.3121C495.641 78.8289 497.707 62.2207 498.615 60.4034C499.32 59.5957 511.166 59.9996 512.073 59.9996L513.888 46.2688L500.581 46.1679L503.202 27.2881Z" fill="#26064F"/>
<path fill-rule="evenodd" clip-rule="evenodd" d="M476.333 59.5444C477.845 50.1045 477.391 53.2343 478.601 45.1574C467.26 43.2896 454.86 46.6718 445.333 50.3569C442.158 71.1045 439.486 89.7319 436.562 109.47L454.507 109.419L461.665 61.0588C466.252 59.5444 471.645 59.1406 476.333 59.5444Z" fill="#26064F"/>
<path fill-rule="evenodd" clip-rule="evenodd" d="M111.141 40.9167L113.207 26.4792L164.37 26.4287L162.353 40.7148L146.879 40.9167L136.545 109.167L117.794 109.369L128.027 40.9167H111.141Z" fill="#26064F"/>
<path fill-rule="evenodd" clip-rule="evenodd" d="M184.735 46.2676L166.892 46.419L157.566 109.469L175.511 109.368L184.735 46.2676Z" fill="#26064F"/>
<path fill-rule="evenodd" clip-rule="evenodd" d="M185.795 40.8662L167.75 40.9167L169.817 26.4287L187.862 26.4792L185.795 40.8662Z" fill="#26064F"/>
<path fill-rule="evenodd" clip-rule="evenodd" d="M323.103 94.6257C324.817 83.217 325.875 76.0992 328.244 60.4502C329.152 59.8444 334.041 59.2387 335.352 59.1882C354.103 58.7843 350.07 80.7435 344.979 88.366C340.644 94.8781 336.108 97.0992 323.103 94.6257ZM320.986 109.013C331.571 110.477 339.989 111.234 349.062 106.287C356.119 102.45 361.109 96.7963 364.335 88.2146C371.846 68.1738 367.158 49.1425 346.895 45.306C337.922 43.6401 325.119 44.9022 316.752 47.2243C312.266 48.4358 316.752 47.2243 311.812 48.7387C299.412 131.678 309.897 61.6113 299.664 129.861L317.81 129.76C318.667 124.51 319.927 115.575 320.986 109.013Z" fill="#26064F"/>
</svg>
