<svg width="522" height="118" viewBox="0 0 522 118" fill="none" xmlns="http://www.w3.org/2000/svg">
<g clip-path="url(#clip0_5251_3899)">
<mask id="mask0_5251_3899" style="mask-type:luminance" maskUnits="userSpaceOnUse" x="-29" y="-29" width="580" height="176">
<path d="M-28.2871 -28.2872H550.195V146.403H-28.2871V-28.2872Z" fill="white"/>
</mask>
<g mask="url(#mask0_5251_3899)">
<path d="M444.293 77.7963C456.193 74.5624 458.431 65.7538 458.706 60.7934C459.076 54.171 455.284 49.0136 451.926 46.6061C448.96 44.3188 444.751 43.3065 438.252 43.3065L418.3 43.3459L407.002 100.583H419.668L428.681 54.0276H436.144C442.032 54.0276 446.206 54.5125 446.245 60.7833C446.274 65.4083 443.332 68.2674 437.251 69.5282C433.397 70.3273 429.28 71.0557 427.433 71.376L442.701 100.583H455.986L443.388 78.0428L444.293 77.7963Z" fill="#26064F"/>
<path d="M168.553 43.3078L162.61 74.8395C162.271 76.6246 162.016 78.9988 162.016 81.8043C162.101 86.8991 165.33 91.0685 171.698 91.0685C179.176 91.0685 184.023 86.2263 186.151 74.8395L192.097 43.3078H204.931L198.976 74.6697C195.414 93.1941 187.076 101.605 170.083 101.605C157.424 101.689 149.266 95.2359 149.266 81.8043C149.266 79.2534 149.606 76.5398 150.03 74.0737L155.814 43.3078H168.553Z" fill="#26064F"/>
<path d="M205.732 100.582L216.525 43.3076H232.505L241.091 64.8941C243.718 72.1155 245.419 78.1459 247.034 85.0359H247.29C247.376 79.2511 248.139 74.1583 249.674 66.1691L253.916 43.3076H266.155L255.362 100.582H241.429L232.335 77.2093C229.616 69.5626 227.656 63.9586 225.874 56.9897H225.534C224.938 62.5139 223.582 70.1586 221.967 78.9117L217.885 100.582H205.732Z" fill="#26064F"/>
<path d="M291.137 43.3066L280.265 100.581H267.514L278.393 43.3066H291.137Z" fill="#26064F"/>
<path d="M335.983 100.352C333.519 100.921 330.205 101.616 322.991 101.612C307.615 101.604 294.779 93.5442 294.779 75.6998C294.779 63.1188 300.981 53.5152 310.41 47.9869C316.707 44.1681 323.925 42.2971 332.767 42.2971C340.07 42.2971 343.003 43.5529 346.042 44.6288L343.888 55.2488C342.103 54.4012 337.444 53.0888 331.66 53.0888C326.052 53.0888 320.867 54.5335 317.048 57.4168C311.942 60.9912 308.722 67.0215 308.722 74.5945C308.722 84.3669 314.917 90.8216 326.479 90.8216C331.149 90.8216 334.691 90.669 338.095 89.2233L335.983 100.352Z" fill="#26064F"/>
<path d="M371.642 91.0782C376.064 91.0782 380.14 89.2051 383.2 86.0662C387.365 81.9837 389.827 75.6119 389.827 68.8936C389.827 60.5669 386.605 52.8343 375.895 52.8343C371.215 52.8343 367.228 54.7891 364.081 57.9281C359.742 62.2682 357.285 68.7218 357.285 75.1027C357.285 84.7912 361.951 91.0782 371.557 91.0782H371.642ZM369.771 101.612C354.141 101.612 343.516 91.6722 343.516 76.0382C343.516 66.0941 347.342 57.5027 353.714 51.4744C359.655 45.6987 368.069 42.2971 377.341 42.2971C393.4 42.2971 403.6 52.0685 403.6 68.1258C403.6 77.8992 400.026 86.4077 393.741 92.438C387.871 98.2117 379.542 101.612 369.855 101.612H369.771Z" fill="#26064F"/>
<path d="M461.137 100.584L471.928 43.3085H487.901L496.484 64.8971C499.121 72.1175 500.817 78.1488 502.438 85.0359H502.69C502.775 79.2531 503.541 74.1603 505.06 66.171L509.316 43.3085H521.556L510.76 100.584H496.824L487.731 77.2113C485.008 69.5655 483.063 63.9605 481.28 56.9927H480.938C480.342 62.5169 478.982 70.1626 477.365 78.9126L473.291 100.584H461.137Z" fill="#26064F"/>
<path d="M115.999 79.5884C115.266 81.2967 117.525 82.2747 116.732 83.983C116.242 85.5712 117.342 86.6088 118.807 86.4865C119.416 86.0602 120.821 86.243 120.699 85.2045C121.126 82.213 117.952 80.8098 115.999 79.5884ZM91.5268 44.3035C90.063 45.0966 87.316 44.3652 87.1342 46.6241C88.9032 46.9888 91.1621 45.8917 92.6866 46.9292C91.2217 48.2103 88.2919 48.3941 88.1697 50.5925C89.8185 51.0794 90.7338 53.6445 92.4421 53.9496C94.5779 53.0939 98.8513 54.1325 99.2767 50.8976C96.5924 48.6376 96.1044 43.755 91.5268 44.3035ZM153.834 16.8938C151.82 15.4905 148.16 15.4905 146.206 17.6262C142.943 19.4882 148.71 19.6417 150.052 19.7013C152.126 19.7013 152.858 18.4799 153.834 16.8938ZM143.582 22.2058C141.264 22.4493 140.164 19.8852 137.724 20.4348C136.26 20.3732 134.611 21.5936 133.94 22.9372C135.101 23.4868 136.869 24.1577 138.333 24.8295C140.471 24.585 142.607 24.3425 143.582 22.2058ZM130.279 26.1125C128.507 24.8911 126.25 24.7689 123.992 24.8295C120.819 25.075 120.392 27.8825 118.5 29.3484C121.429 30.783 120.819 30.783 123.168 31.0871C125.549 30.4153 129.667 28.4927 130.279 26.1125ZM116.058 33.0107C110.901 29.2565 109.223 29.2878 106.111 31.7287C106.111 31.7287 109.833 35.5131 104.524 34.9039C104.524 34.9039 107.088 36.4284 107.332 37.2831C111.36 37.6499 112.336 36.2466 113.741 34.3533C114.533 33.6209 115.021 33.8341 116.058 33.0107ZM105.074 51.3239C102.937 49.859 100.435 49.5539 98.7877 47.6607C100.009 45.8311 101.899 47.9658 103.486 48.088C103.793 47.8445 104.708 48.088 104.463 47.3566C102.999 43.5105 97.1399 46.6241 95.5528 42.9619C97.3228 41.2515 100.864 42.778 102.449 41.6798C102.024 40.4584 100.374 40.2756 99.3363 39.6037C97.6279 39.4199 95.9801 40.0311 94.8213 39.1764C96.2842 37.5893 98.4209 37.3448 100.558 37.7105C99.5191 35.3909 96.2842 37.2831 94.5152 36.1254C92.4411 37.8337 88.4728 37.2215 88.1081 40.7635C87.4969 42.0456 85.9107 43.1437 84.4458 42.7174C82.4324 43.0821 82.7981 45.2805 81.7605 46.5019C80.9068 46.2574 80.4179 46.9888 79.746 47.2343C78.954 49.2488 81.7605 48.7599 82.2485 50.2864C80.2956 51.7513 77.6113 51.2017 75.1695 51.3239V52.7898C73.4621 54.0102 71.7517 51.9947 70.0434 51.5078C66.3205 49.066 68.7007 54.4376 68.0289 55.9045C69.9221 58.4059 66.1983 59.0768 66.9913 61.8853C68.2128 65.8527 68.335 70.7363 71.9962 73.3004C72.363 68.6006 69.2503 63.6553 71.8124 59.0768C72.3023 59.4445 73.0944 58.4059 73.4621 59.3829C72.7893 64.3282 73.644 69.5159 76.0848 73.4843C76.6344 73.6671 77.6113 74.0339 77.977 73.4843C77.4285 70.798 76.6344 68.051 76.9395 65.2435C77.9154 64.3282 78.3438 62.3127 80.0521 62.9229C79.6854 67.6227 81.6999 71.7133 82.2485 76.2322C83.7134 77.2688 83.8195 80.0005 85.1783 80.3218C85.0571 79.2833 84.8732 78.1831 84.1417 77.39C84.0801 75.62 83.4093 73.6065 84.6893 72.2629C86.7038 74.5228 86.7038 77.6345 88.3505 80.0773C91.2813 82.3353 87.802 78.2457 88.5344 76.9637C88.3505 74.8886 86.2775 72.6902 88.3505 70.798C90.8388 76.11 90.9469 77.0667 91.5854 78.1699C92.5927 79.3903 92.823 75.7281 94.1657 81.1149C96.6358 82.213 93.2039 76.11 95.9801 77.0404C96.9419 76.7192 96.8651 77.6345 97.0177 79.0378C97.933 82.0605 98.3149 83.1294 99.214 85.6318C99.6868 86.5633 100.222 86.4865 101.366 86.6704C102.445 86.4663 101.026 89.8184 101.944 91.7672C102.663 92.5148 103.311 92.9452 103.311 92.9452L103.975 93.7352C104.418 94.4232 104.494 94.5 104.951 94.8506C107.088 97.9329 107.088 97.1691 110.322 97.0469C110.809 97.2914 110.322 96.3761 110.322 96.0104L107.224 92.7593C106.096 91.1419 105.745 87.3412 104.34 85.9379C103.853 85.2045 102.815 85.9521 102.693 84.6236C100.13 82.6091 104.646 82.0312 104.891 80.5037C106.111 80.1379 107.118 81.2674 108.094 81.9999C108.919 84.6559 112.275 85.1135 113.741 88.2565C115.021 90.6064 116.394 92.5906 118.529 93.417C121.275 94.4232 121.734 92.7431 123.686 91.6136C129.058 87.2503 124.846 85.0822 124.114 82.2747C124.359 79.4661 121.124 78.1235 119.292 76.9637C119.14 75.4978 120.055 74.8886 118.255 74.2177C115.325 73.85 113.006 71.8355 110.809 70.0655C108.978 68.7835 105.806 68.4774 105.379 66.1588C108.43 65.4859 110.689 68.1723 113.557 68.051C113.861 65.4253 111.237 65.6082 109.772 64.0827C109.529 62.9229 108.613 62.3127 107.698 61.5802C107.026 59.8092 109.101 61.3357 109.894 60.8468C110.992 57.429 104.951 56.5753 107.148 53.4C106.721 52.5453 105.866 51.6907 105.074 51.3239ZM112.701 93.3847C111.664 90.5155 109.833 88.4717 107.698 86.0602C108.248 88.3181 109.3 91.751 110.657 92.2249C111.512 92.4077 111.909 93.7514 112.701 93.3847ZM76.3899 96.0104C72.8509 95.7053 70.104 93.7514 66.6872 93.2624C61.0115 89.6618 54.177 87.8292 49.8439 81.7867C50.5148 80.3218 48.5003 78.673 50.4531 77.88C52.7727 80.7482 55.5803 82.5808 58.203 85.3267C59.3021 85.6934 60.5842 85.6934 61.4389 86.6704C64.9778 86.4259 66.6872 89.784 70.0434 90.0265C71.4476 91.1267 74.0097 90.3932 75.6585 90.4549C75.5362 89.9063 75.903 89.1718 75.3534 88.8677C66.8095 86.0602 58.6313 82.5808 51.3078 76.5363C51.7968 75.62 51.6129 74.3996 52.0403 73.4843C53.5658 73.7278 54.665 74.5835 55.7025 75.3755C58.2646 78.6114 62.538 79.8945 65.6507 82.2747C68.6411 82.213 70.6546 84.96 73.5844 84.472C74.5603 82.8859 72.4246 82.3353 72.5458 80.8098C68.2734 79.9551 63.8807 78.9165 60.2791 76.8414C57.227 74.8269 53.2597 73.5449 51.919 69.9433C51.7968 69.2118 52.5282 68.538 53.2001 68.6006C54.177 68.8431 54.3589 69.821 54.665 70.5535C57.716 72.9963 61.0115 74.7047 64.4899 76.11C65.5274 76.1696 66.6266 75.9867 67.6025 76.2322C68.2127 76.0484 67.6025 75.4382 67.6025 75.0704C65.283 73.7894 63.4523 71.4072 61.1327 70.2494C58.9364 68.8431 55.946 69.2725 53.9325 67.3176C53.6274 66.281 53.8719 64.7545 54.5417 63.7776C56.6784 65.8527 59.2425 68.1723 62.2925 66.7074C62.3542 65.7304 61.744 64.999 61.255 64.2049C59.7911 61.9459 54.4811 61.8237 56.1289 58.0998C58.203 58.2837 59.6689 61.3357 62.2925 59.9931C62.6593 56.3915 57.8989 55.3539 57.5938 52.0564C60.2184 50.348 60.9509 54.4982 63.7584 53.8274C64.2454 51.6907 63.024 49.1872 62.7199 46.807C64.9779 45.036 62.8421 42.5952 62.9027 40.519C63.2695 37.8933 66.3821 37.955 66.1376 35.0848C65.4052 31.8509 65.8325 28.7372 65.1001 25.5629C61.8652 26.7227 61.6217 31.0578 61.1327 34.3533C59.6689 36.8568 62.7805 38.749 61.255 41.0676C60.5842 41.0676 60.0336 40.6403 59.5466 40.0311C58.5707 34.414 58.998 28.1876 61.9874 23.6697C61.8652 23.3646 61.5611 22.8766 61.1327 23.0595C57.5938 24.6466 56.4956 28.4927 56.434 32.155C56.8007 35.0252 56.7401 38.1984 58.203 40.519C58.1423 40.8848 57.9595 41.4344 57.3493 41.2515C54.2376 38.6884 54.2376 34.8423 53.3829 31.4225C51.6129 33.3774 51.6129 36.5507 50.8815 39.1764C50.8199 40.0917 51.7968 40.9464 51.0027 41.8011C51.6746 45.0966 52.0403 48.5164 53.0778 51.628C52.7727 52.118 52.2848 52.1786 51.7352 52.2402C51.1846 51.2017 49.6601 50.5309 50.0268 49.1276C48.1942 46.5635 48.6225 43.0821 47.9517 40.0311C47.8295 40.7029 47.0364 41.0676 46.9141 41.6798C45.8766 44.7309 45.0229 49.3094 47.6466 51.9341C47.7072 53.888 49.355 54.7417 50.0268 56.4531C49.6601 58.3453 51.8574 59.5667 51.0027 61.2751C49.7823 61.2135 48.378 60.4194 47.2193 59.688C46.608 54.5608 42.8246 50.7127 42.5205 45.4643C41.9709 41.8011 41.4203 37.8933 40.018 34.7807C39.6513 37.8933 39.5301 41.8011 39.5907 45.4643C39.5301 48.6992 41.299 51.1411 40.7505 54.5608C41.9709 55.4135 42.7023 58.6494 42.7023 58.6494L43.557 60.4194C43.557 60.4194 46.608 64.9374 47.6466 67.6227C48.0729 67.6843 48.0729 68.538 47.6466 68.7835C44.5946 67.8065 42.3366 65.9143 41.787 62.6178C37.6984 57.7947 38.0652 51.1411 36.6619 45.1582C36.1123 42.5335 37.2711 40.0311 36.1123 37.7105C35.5021 38.6884 34.8909 39.6644 34.8909 40.9464C35.5021 47.1121 34.5252 54.0709 38.0035 58.9545C38.4309 63.3502 42.1537 66.3427 41.6648 71.1041C44.046 72.3235 42.3366 75.4978 44.2905 76.9637C44.8391 77.5739 43.7409 77.8184 43.4358 78.0012C43.0084 77.7567 42.3982 77.3294 42.3982 76.8414C40.506 75.8645 42.1012 73.3923 39.72 72.5983C39.3543 67.654 34.8303 63.8998 34.8909 58.9545C31.7176 54.1931 33.1825 49.5539 31.9621 44.1823C31.0468 45.8917 30.7407 48.9427 31.1084 51.5078C33.1825 58.2837 32.2682 67.5317 38.1258 72.1719C38.1874 72.9034 38.6754 74.5532 37.6984 74.6754C35.8072 71.684 34.0372 69.3331 31.7176 66.5871C30.8023 61.0306 28.7888 55.4761 28.606 49.5539C28.117 50.1641 28.117 51.0188 27.7513 51.628C28.606 57.8553 29.4607 64.1443 30.9862 70.0655C31.0468 70.3716 31.4135 70.7363 31.7176 70.798C32.3278 73.4843 34.4635 75.62 35.197 78.1235C35.3182 78.3669 34.9525 78.3669 35.0748 78.6114C37.8813 81.2967 38.4915 85.0822 41.2384 87.6463C41.9709 89.4173 43.3135 91.1267 43.4358 92.9573C42.8246 93.2018 42.2144 92.53 41.6648 92.3471C38.3086 88.7445 35.9901 83.9224 32.8774 80.1986C31.5358 74.5835 28.4837 69.6382 27.0188 64.0827C26.4702 62.6794 27.5684 60.6649 25.9823 60.2982C26.348 68.1723 27.629 75.1937 31.4135 81.6635C33.6099 84.2285 34.3433 87.5241 37.0892 89.7224C38.249 90.8832 38.3086 92.8341 40.2019 93.5069C40.506 94.0555 40.2625 94.6657 39.7735 94.9718C37.1499 93.5685 35.2576 91.3702 33.6098 89.2951C31.4135 89.0496 31.2913 86.6704 30.8023 85.0226C27.3856 81.7251 26.7753 77.0243 24.6396 72.9963C25.1882 76.3535 26.0429 79.4661 27.1411 82.5182C30.8023 88.0736 32.9996 94.2393 39.1633 98.2077C39.4694 99.7959 41.3597 99.3685 41.9709 100.71C40.5666 102.787 40.7191 101.901 39.1633 100.405C35.8678 98.0238 31.7176 94.301 28.606 91.1863C27.0794 89.3557 26.4702 86.731 24.9437 85.3267C24.7609 87.5241 25.86 89.1112 26.2864 91.0651C29.3384 96.3155 33.6715 101.443 38.1258 106.143C37.7601 106.694 36.9054 106.631 36.3568 106.449C34.0372 103.884 30.5598 102.969 29.5213 99.5514C26.4086 97.842 25.6762 93.9342 23.1737 91.3096C23.5405 98.4522 28.4837 105.228 34.6464 108.036C35.4405 108.706 34.708 110.417 35.9294 110.538C36.5396 109.441 37.8207 109.378 38.736 108.646C43.8631 109.317 48.6842 109.012 52.6505 105.961C49.7207 104.251 45.5715 103.152 45.6321 98.9391C45.8766 98.6957 46.2423 97.9026 46.7919 98.3906C47.4627 98.7573 48.0729 99.4897 48.2558 100.283C51.3078 101.38 53.688 103.946 57.4715 103.764C61.8046 103.579 56.1289 102.053 55.3964 101.137C51.8574 99.4291 48.7448 95.8871 46.3646 93.0796C46.6697 92.042 46.608 90.6387 47.6466 90.0265C51.7352 96.5599 58.5091 99.7342 65.2223 100.71C65.5274 100.405 66.076 100.161 65.6507 99.6736C60.5842 98.0238 55.8854 95.2163 51.7352 91.4924C50.7593 89.8436 48.1346 90.0891 47.9517 87.8292C48.4387 86.4865 47.585 84.472 48.6842 83.5567C55.2136 92.3471 64.9778 97.4753 75.3534 97.6581C75.9626 97.4753 76.6344 96.8024 76.3899 96.0104ZM33.6098 110.66C30.7407 107.853 27.3856 105.533 24.5174 102.481C23.1737 106.388 27.0188 108.829 28.7888 111.82C29.2778 112.125 29.887 112.31 30.4972 112.31C31.657 111.942 34.0372 112.553 33.6098 110.66ZM27.5684 112.553C25.1882 111.516 24.2729 108.584 22.1978 107.182C21.2209 108.402 23.1737 110.599 22.1978 111.882C19.6964 111.087 20.1227 107.243 18.9639 105.533C16.8878 106.083 17.5596 108.462 16.1553 109.623C15.729 109.928 15.4239 109.562 15.3017 109.196C16.217 106.083 15.4239 101.504 19.6964 100.588C21.2209 98.8785 18.78 100.466 18.3527 99.5514C18.0466 98.6351 18.9023 98.2077 19.0851 97.4753C18.1082 96.3761 17.1333 92.4683 14.9966 94.9718C13.5933 96.6206 13.8974 99.1836 14.6915 101.015C16.1553 105.778 9.01574 108.402 12.19 113.164C17.3768 113.225 22.4423 113.103 27.4472 112.859C27.5078 112.798 27.629 112.735 27.5684 112.553ZM9.56432 108.462C10.7251 106.694 11.5788 104.251 11.6404 101.75C9.26023 102.542 8.95411 105.166 8.52778 107.426C8.89451 107.791 8.71064 108.89 9.56432 108.462ZM8.52778 89.6002C9.56432 87.219 12.3719 85.5712 12.9225 83.0071C13.4094 81.4806 12.0668 80.0167 12.4941 78.7337C12.2506 78.4286 12.0062 78.3053 11.6404 78.3053C10.7251 79.65 10.1755 81.1745 9.01574 82.3959C8.83288 84.7781 7.36899 87.3412 8.52778 89.6002ZM9.56432 76.4141C8.22268 75.7422 7.30635 77.1475 6.20818 77.5739C4.86654 78.8559 4.92716 80.932 5.17064 82.702C5.65961 83.1294 5.35451 84.2882 6.32942 84.1669C7.67308 81.7867 8.52778 78.9782 9.56432 76.4141ZM5.9041 73.3004C7.1235 75.0704 8.46615 72.4457 10.2978 73.3004C9.56432 71.6527 11.4566 68.051 8.52778 68.051C6.51329 69.028 6.69716 71.5294 5.9041 73.3004ZM7.36899 62.0076C7.55084 62.2521 7.55084 62.8613 7.9792 62.739C9.01574 62.6178 8.40453 61.5186 8.52778 60.8468C9.74819 58.2231 10.4806 55.3539 10.7251 52.3625C7.67308 54.377 5.96471 58.1615 7.36899 62.0076ZM10.7251 47.9658C14.3247 43.6943 15.24 37.5276 20.7329 34.0482V33.6209C19.0245 32.8278 18.0466 35.697 16.1553 35.3909C11.8223 38.0166 10.7251 43.0225 10.7251 47.9658ZM18.2304 30.5072C20.4894 30.6295 22.1362 28.6756 24.2113 28.7989C23.7849 26.9066 25.6156 25.7458 24.9437 23.9142C24.8215 23.6697 24.8215 23.3646 24.5174 23.1817C20.7329 24.0364 18.7194 26.7834 18.2304 30.5072ZM26.8349 43.9974C25.066 42.5335 22.6262 43.4498 20.7329 43.9974C18.2305 46.2574 14.8127 48.7598 14.8743 51.7513C19.268 50.1025 23.296 46.3796 26.8349 43.9974ZM20.9764 81.2371C21.6482 75.8039 22.7474 70.1867 22.32 64.6929C22.1978 64.0221 21.8927 63.4119 21.4653 62.9229C19.6964 64.6313 18.7194 66.6467 18.0466 68.7835C17.3151 73.3004 18.4749 78.3053 20.9764 81.2371ZM17.0717 89.7224C18.9639 90.6387 19.1468 93.0189 20.8551 93.9949C21.038 92.3471 20.9764 90.5155 20.55 88.989C19.6347 87.5857 21.3431 85.0226 19.0851 84.2881C18.4143 81.1745 16.6443 78.3053 15.4239 75.4978C12.9225 80.4431 16.2786 85.0822 17.0717 89.7224ZM13.5317 89.4173C13.1649 88.0736 12.0062 88.2565 11.2121 89.2951C9.87043 91.554 9.93206 94.9112 10.6029 97.4753C11.1515 97.6581 11.2727 97.2308 11.6404 97.0469C12.6164 94.7899 14.447 92.4077 13.5317 89.4173ZM13.959 67.7459C16.1553 65.4253 17.1333 62.6178 18.9639 60.1153C15.729 60.4821 14.6308 63.5947 13.2256 65.8527C13.2872 66.5235 12.9821 67.8065 13.959 67.7459ZM23.4798 51.2017C20.7329 50.4702 18.4143 52.7898 16.3392 54.2547C15.6068 55.9641 13.5933 57.429 13.5317 59.5667C13.7155 59.8708 14.0206 59.8092 14.2641 59.9931C15.9119 58.2231 17.9253 56.7572 20.55 57.0623C22.1362 55.9641 22.1978 53.8274 23.3576 52.4847C23.1131 51.9341 23.7849 51.5684 23.4798 51.2017ZM24.089 35.9415C21.3431 36.9184 17.5596 39.4199 17.499 42.5335C21.2825 40.4584 25.7378 39.7876 30.2537 39.2986C30.8023 38.6884 31.9005 37.955 31.7176 36.8568C29.0323 36.7962 26.835 35.7576 24.089 35.9415ZM26.5925 32.7056C28.9717 32.2156 30.8629 33.1946 33.1825 32.4621C34.8909 31.4842 37.6984 30.9962 38.0035 28.7989C36.6619 27.5774 34.4029 28.615 32.8774 27.8825C30.376 29.0433 27.0794 29.3484 26.5925 32.7056ZM29.0323 23.3646C31.8399 23.1211 33.427 20.8005 35.5021 19.275C36.1123 18.3587 37.6378 18.2981 37.6984 17.505C36.7831 16.223 34.9525 17.4424 33.427 17.0777C30.8629 18.0536 29.1556 20.8621 29.0323 23.3646ZM42.5205 35.208C43.069 36.4284 43.1307 38.5046 44.2905 38.8703C44.2905 35.9415 44.4733 32.8278 43.557 30.385C42.0931 31.4225 42.6417 33.4987 42.5205 35.208ZM39.0421 20.7399C36.7831 21.1672 34.4635 22.4493 33.3048 24.6466H38.0035C39.9564 24.585 41.9709 26.4176 43.8631 24.6466C44.6552 23.9142 46.9141 24.1577 46.1817 22.4493C44.839 20.4944 41.3597 20.7399 39.0421 20.7399ZM48.6842 26.7227C48.7448 26.5389 48.6225 26.2338 48.378 26.2944C47.5244 26.5389 47.2193 27.4542 46.608 28.0664C45.9988 30.2627 46.4868 32.9501 47.3415 34.7807C47.6466 34.6584 47.8901 34.414 48.0729 34.1695C47.8295 31.7287 48.5003 29.2262 48.6842 26.7227ZM41.0556 15.0015C42.4588 16.8322 44.2288 17.3221 45.8766 18.786C47.098 19.7013 47.585 21.4107 48.9882 21.7158C50.2693 20.6166 51.8574 20.9228 53.3829 20.0075C52.3454 18.786 51.1846 17.9313 49.8439 17.3221C48.9286 17.1383 48.7448 16.1007 47.9517 15.6117C45.9382 15.1844 43.0084 13.2315 41.0556 15.0015ZM52.4676 24.9517C51.0027 26.5995 49.9662 29.0433 50.4531 31.2407C52.0403 30.7517 52.3454 28.6756 53.0778 27.3319C53.7497 26.357 54.6033 25.7458 55.2742 24.6466C56.2511 22.1442 53.2597 24.4021 52.4676 24.9517ZM48.378 12.0707C51.124 14.5742 55.2136 15.0622 56.6178 18.786C57.6554 19.3366 59.1193 19.6417 60.2791 19.0921C61.9874 18.9083 63.9403 18.9083 65.4052 18.5426C65.5891 17.1999 63.6968 16.7715 63.2078 15.6117C59.3021 14.2691 55.7015 12.194 51.4907 11.6434C50.5148 11.5828 48.9286 11.0332 48.378 12.0707ZM71.8124 25.6842C70.9587 24.6466 72.4842 22.0836 70.5323 22.0209C69.7999 23.2423 69.4938 24.585 68.8836 25.868C68.8836 27.638 69.4938 29.3484 69.4938 30.9962C69.7383 31.4225 69.9221 32.2792 70.6546 32.155C71.5083 30.2021 72.7287 28.127 71.8124 25.6842ZM70.9587 41.496C70.5323 40.4584 69.1281 39.4815 68.1511 40.0311C66.9913 41.5566 66.0154 43.5105 66.8701 45.4643C67.9683 44.8531 69.8605 44.9754 70.9587 44.1823C71.386 43.266 70.7152 42.4729 70.9587 41.496ZM64.3676 11.7656C64.795 13.963 67.2358 14.452 68.5795 16.0391C69.4321 16.6503 69.3725 17.8707 70.2262 18.2374C71.5689 18.2374 72.4246 17.1383 73.4621 16.3452C73.644 15.3067 71.9962 14.8793 71.8124 13.6589C69.3109 13.0477 67.2974 10.423 64.3676 11.7656ZM79.4409 42.2284C77.7326 43.5721 75.4756 44.2429 74.3158 46.1968C74.0713 46.8676 73.7652 48.088 74.7422 48.2719C76.5132 46.7454 79.8077 44.9754 79.4409 42.2284ZM72.7287 38.8703C73.0944 39.4815 73.7652 39.4199 74.1936 40.0311C76.5748 42.4113 78.5266 39.0541 79.8683 37.8337C83.5305 32.2156 84.3246 22.8766 80.9068 16.8938C79.8077 15.3683 79.1975 13.5366 77.3668 12.8032C74.7422 20.9228 74.925 30.6295 72.7287 38.8703ZM85.1783 38.0166C87.4969 36.4901 89.9387 35.0252 92.3179 33.927C92.3179 32.3389 90.5509 31.2407 89.084 30.6911C87.8636 33.3148 85.1177 35.0252 83.2264 37.4054C82.8587 38.3823 84.5671 38.1984 85.1783 38.0166ZM86.3381 29.0433C87.2534 28.1876 88.5344 28.127 88.5344 26.7227C87.6191 26.1125 87.3756 21.0147 86.033 21.931C86.2158 23.3343 84.5671 28.7989 86.3381 29.0433ZM91.4642 28.615C94.1495 30.9356 97.8118 32.644 101.839 31.9731C102.57 30.5689 100.558 30.9962 100.07 30.0799C99.3363 26.2944 93.6616 27.3319 91.4642 28.615ZM165.281 12.8305C162.657 13.9296 159.815 17.9313 156.461 17.1999C154.263 19.275 153.774 21.4724 150.51 21.7482C144.011 22.0836 144.773 27.73 138.639 27.3319C131.408 26.8652 130.43 35.0555 120.453 34.1695C116.546 37.955 113.037 41.007 106.355 41.0383C106.782 41.9233 106.935 42.0759 107.392 42.9003C108.674 45.4643 112.153 48.5164 113.435 51.0188C114.228 53.888 114.776 56.8188 115.753 59.5667C117.463 61.7621 119.14 64.9687 121.032 67.8379C122.497 72.9034 127.41 74.7047 128.935 80.1986C130.033 81.5422 132.048 82.4575 131.314 84.5943C129.973 89.5396 130.949 96.4973 124.418 97.353C123.412 97.9329 120.515 99.123 118.133 99.2453L116.669 97.7804C115.936 98.6957 116.302 99.6059 115.753 100.583C109.65 100.216 108.231 103.046 100.908 95.7507C99.9364 94.7829 99.504 93.3695 99.4423 91.9036C97.247 90.6216 94.8213 86.6704 92.5018 85.6318C87.9242 85.0822 82.7365 86.0602 79.746 81.7867C78.5862 82.4575 79.4409 83.9224 79.5642 84.8994C82.0666 87.9504 80.1744 93.0189 83.2264 95.7053C83.775 96.7418 83.4699 98.0855 83.5305 99.2453C81.6383 99.611 79.3187 99.123 78.0993 101.137C69.4938 100.771 63.7584 107.365 55.3964 107.73C50.2097 110.234 44.5946 112.675 38.4309 113.285C31.5358 115.911 23.6021 116.094 16.0341 117.132C13.2256 118.902 10.1139 116.522 7.79533 115.36C7.55085 115.788 7.61247 116.4 7.06288 116.704C4.86654 116.155 2.9743 114.506 2.42572 112.31C1.87613 111.333 0.960825 112.125 0.349609 112.43C1.26492 108.342 2.60757 104.251 5.9041 101.32C8.89451 97.1085 5.47675 92.6532 4.31595 88.6849C3.58451 84.1669 -0.444467 80.0773 2.11961 75.0704C4.01185 71.5294 5.11002 67.258 4.62104 63.0451C4.07348 60.7245 1.75389 57.7341 4.31595 55.5974C5.11002 51.9341 8.10043 49.1872 7.36899 44.9137C7.4286 43.3266 6.75778 42.0456 6.8194 40.519C8.95411 35.0252 15.3623 32.7662 15.4239 26.5995C15.6068 24.7689 16.0947 23.1211 17.3151 21.7158C21.038 21.5936 23.3576 18.2375 26.5925 16.8938C28.1786 14.8177 29.5819 10.6069 32.9996 11.6434C38.5521 11.3393 42.2144 4.80687 47.9517 6.82136C51.5513 7.18708 55.8238 9.32482 59.3627 6.9436C61.5611 4.5634 63.8797 7.67504 66.1376 7.37095C67.4813 8.47012 69.4322 8.28626 71.0809 8.7136C75.2311 7.91953 73.3389 2.91463 75.3534 0.350554C77.0001 1.08199 76.5748 3.21973 78.0993 4.31891C78.5862 8.28626 81.6383 10.7887 83.9579 13.963C85.1177 14.6358 86.826 15.246 87.9242 14.5742C89.8164 13.475 91.0672 13.079 93.7838 13.5053C93.7838 13.5053 94.6991 14.6954 94.5152 15.0015C93.0503 15.5521 91.5854 16.223 90.3044 17.1999C91.0975 17.8707 93.5716 17.0453 94.8213 16.8938C97.3228 16.5887 98.4826 16.131 100.618 17.6576C101.138 18.878 101.289 19.0305 101.473 20.5873C96.7126 19.0305 97.0783 21.7775 93.8444 22.5099C94.6375 23.4272 95.4305 22.2058 96.7126 22.7544C98.6048 23.6081 98.3917 25.4397 102.144 25.6842C104.037 28.7989 105.256 26.357 107.026 25.6842C109.223 24.5244 110.749 24.8295 113.983 24.8295C116.302 21.9603 121.521 20.9844 125.365 21.5936C127.073 21.3501 127.227 19.7013 128.507 18.786C132.414 17.505 133.329 17.0463 139.922 17.1999C143.34 11.3393 150.969 15.3683 155.298 11.4605C157.193 10.6069 159.849 10.9382 161.863 10.4503C163.266 9.9623 164.732 9.59658 166.013 10.2068C166.868 11.1221 166.38 12.4051 165.281 12.8305ZM78.5276 32.5833C77.9791 33.4987 77.9174 35.208 76.4536 35.208C76.2081 35.1464 76.3919 34.8423 76.1485 34.7807C77.186 31.3619 77.1244 27.4542 78.3448 24.0981C80.8472 26.0509 79.3207 29.9587 78.5276 32.5833Z" fill="#26064F"/>
</g>
</g>
<defs>
<clipPath id="clip0_5251_3899">
<rect width="521.301" height="118" fill="white"/>
</clipPath>
</defs>
</svg>
