<svg width="807" height="168" viewBox="0 0 807 168" fill="none" xmlns="http://www.w3.org/2000/svg">
<path d="M200.91 34.3516C232.313 34.3516 250.907 53.6875 250.907 87.0127C250.907 120.411 232.387 140.041 200.91 140.041H163.649V34.3516H200.91ZM180.047 125.831H199.372C221.772 125.831 234.143 112.135 234.143 87.1592C234.143 62.2568 221.699 48.4873 199.372 48.4873H180.047V125.831Z" fill="black"/>
<path d="M328.676 117.408C326.553 131.397 312.938 140.994 295.515 140.994C273.116 140.994 259.207 125.978 259.207 101.881C259.207 77.7109 273.189 62.0371 294.857 62.0371C316.159 62.0371 329.555 76.6855 329.555 100.05V105.47H275.165V106.422C275.165 119.605 283.437 128.248 295.882 128.248C304.666 128.248 311.547 124.073 313.67 117.408H328.676ZM275.238 94.4102H313.743C313.377 82.6182 305.837 74.8545 294.857 74.8545C283.949 74.8545 276.044 82.7646 275.238 94.4102Z" fill="black"/>
<path fill-rule="evenodd" clip-rule="evenodd" d="M377.969 140.041H360.986L333.242 62.9883H350.079L369.404 124.585H369.697L389.022 62.9883H405.566L377.969 140.041Z" fill="black"/>
<path d="M477.223 117.408C475.1 131.397 461.485 140.994 444.062 140.994C421.662 140.994 407.754 125.978 407.754 101.881C407.754 77.7109 421.736 62.0371 443.404 62.0371C464.705 62.0371 478.102 76.6855 478.102 100.05V105.47H423.712V106.422C423.712 119.605 431.984 128.248 444.428 128.248C453.213 128.248 460.094 124.073 462.217 117.408H477.223ZM423.785 94.4102H462.29C461.924 82.6182 454.384 74.8545 443.404 74.8545C432.496 74.8545 424.59 82.7646 423.785 94.4102Z" fill="black"/>
<path fill-rule="evenodd" clip-rule="evenodd" d="M490.911 34.3516H506.723V140.041H490.911V34.3516Z" fill="black"/>
<path d="M518.336 101.515C518.336 77.2715 532.61 62.0371 554.864 62.0371C577.191 62.0371 591.392 77.2715 591.392 101.515C591.392 125.831 577.264 140.994 554.864 140.994C532.464 140.994 518.336 125.831 518.336 101.515ZM575.288 101.515C575.288 84.8887 567.674 75.0742 554.864 75.0742C542.054 75.0742 534.44 84.9619 534.44 101.515C534.44 118.214 542.054 127.955 554.864 127.955C567.674 127.955 575.288 118.214 575.288 101.515Z" fill="black"/>
<path d="M674.662 101.515C674.662 125.465 661.851 140.847 642.526 140.847C631.546 140.847 622.834 135.94 618.296 127.369H617.93V165.53H602.118V62.9893H617.417V75.8066H617.71C622.102 67.5303 631.472 62.1836 642.233 62.1836C661.778 62.1836 674.662 77.6377 674.662 101.515ZM658.411 101.515C658.411 85.9141 650.359 75.6602 638.061 75.6602C625.982 75.6602 617.857 86.1338 617.857 101.515C617.857 117.042 625.982 127.442 638.061 127.442C650.359 127.442 658.411 117.262 658.411 101.515Z" fill="black"/>
<path d="M752.242 117.408C750.119 131.397 736.503 140.994 719.081 140.994C696.681 140.994 682.772 125.978 682.772 101.881C682.772 77.7109 696.754 62.0371 718.422 62.0371C739.724 62.0371 753.12 76.6855 753.12 100.05V105.47H698.731V106.422C698.731 119.605 707.003 128.248 719.447 128.248C728.231 128.248 735.112 124.073 737.235 117.408H752.242ZM698.804 94.4102H737.308C736.942 82.6182 729.402 74.8545 718.422 74.8545C707.515 74.8545 699.609 82.7646 698.804 94.4102Z" fill="black"/>
<path fill-rule="evenodd" clip-rule="evenodd" d="M764.596 62.9893H779.675V76.0996H780.041C782.457 67.3838 789.485 62.1836 798.562 62.1836C800.831 62.1836 802.734 62.4766 803.979 62.7695V77.5645C802.734 77.0518 799.953 76.6123 796.878 76.6123C786.703 76.6123 780.407 83.4971 780.407 94.3369V140.042H764.596V62.9893Z" fill="black"/>
<path fill-rule="evenodd" clip-rule="evenodd" d="M79.3377 22.5401C84.1862 16.4725 87.4763 8.32536 86.6086 0C79.5111 0.353112 70.85 4.68499 65.8356 10.7574C61.3333 15.9575 57.3483 24.4457 58.3872 32.4221C66.3545 33.1136 74.3144 28.4376 79.3377 22.5401Z" fill="black"/>
<path fill-rule="evenodd" clip-rule="evenodd" d="M86.5182 33.9798C74.9477 33.2902 65.1101 40.5501 59.5846 40.5501C54.0561 40.5501 45.5948 34.3273 36.4432 34.495C24.5318 34.67 13.4794 41.4085 7.43492 52.1257C-4.99762 73.5655 4.15397 105.368 16.244 122.83C22.1151 131.469 29.1909 140.98 38.5143 140.639C47.3233 140.293 50.7761 134.932 61.4839 134.932C72.1837 134.932 75.294 140.639 84.6189 140.466C94.2891 140.293 100.335 131.823 106.206 123.176C112.941 113.328 115.698 103.819 115.872 103.297C115.698 103.124 97.2249 96.0335 97.0536 74.7719C96.8792 56.9693 111.557 48.5013 112.248 47.9762C103.959 35.7103 91.0081 34.3273 86.5182 33.9798Z" fill="black"/>
</svg>
