<svg width="559" height="334" viewBox="0 0 559 334" fill="none" xmlns="http://www.w3.org/2000/svg">
<g clip-path="url(#clip0_5253_4412)">
<path d="M157.4 121.304C157.4 128.177 158.143 133.75 159.443 137.836C160.929 141.923 162.787 146.381 165.387 151.211C166.316 152.697 166.688 154.183 166.688 155.484C166.688 157.341 165.573 159.199 163.158 161.057L151.455 168.859C149.783 169.973 148.112 170.53 146.625 170.53C144.768 170.53 142.91 169.602 141.053 167.93C138.452 165.143 136.223 162.171 134.365 159.199C132.508 156.041 130.65 152.512 128.607 148.239C114.117 165.329 95.9124 173.874 73.9925 173.874C58.3885 173.874 45.9425 169.416 36.8401 160.499C27.7378 151.583 23.0938 139.694 23.0938 124.833C23.0938 109.043 28.6666 96.2256 39.9981 86.566C51.3296 76.9064 66.3763 72.0766 85.5098 72.0766C91.8257 72.0766 98.3273 72.6339 105.201 73.5627C112.074 74.4915 119.133 75.9776 126.563 77.6495V64.0888C126.563 49.9709 123.591 40.1255 117.832 34.3669C111.888 28.6083 101.857 25.8219 87.5531 25.8219C81.0515 25.8219 74.364 26.5649 67.4909 28.2368C60.6177 29.9086 53.9302 31.952 47.4286 34.5527C44.4564 35.853 42.2272 36.5961 40.9269 36.9676C39.6266 37.3391 38.6978 37.5249 37.9547 37.5249C35.354 37.5249 34.0537 35.6673 34.0537 31.7663V22.6639C34.0537 19.6917 34.4252 17.4626 35.354 16.1622C36.2828 14.8619 37.9547 13.5616 40.5554 12.2612C47.057 8.91753 54.859 6.1311 63.9614 3.90196C73.0637 1.48706 82.7233 0.372485 92.9402 0.372485C115.046 0.372485 131.207 5.38806 141.61 15.4192C151.827 25.4503 157.028 40.6828 157.028 61.1166V121.304H157.4ZM81.9803 149.539C88.1104 149.539 94.4263 148.425 101.114 146.196C107.801 143.966 113.746 139.88 118.761 134.307C121.733 130.777 123.962 126.876 125.077 122.418C126.192 117.96 126.935 112.573 126.935 106.257V98.4548C121.548 97.1545 115.789 96.0399 109.845 95.2968C103.9 94.5538 98.1416 94.1823 92.383 94.1823C79.9369 94.1823 70.8346 96.5972 64.7044 101.613C58.5743 106.628 55.6021 113.687 55.6021 122.975C55.6021 131.706 57.8312 138.208 62.4753 142.666C66.9336 147.31 73.4352 149.539 81.9803 149.539ZM231.147 169.602C227.803 169.602 225.574 169.044 224.088 167.744C222.602 166.629 221.302 164.029 220.187 160.499L176.533 16.9053C175.419 13.1901 174.861 10.7752 174.861 9.47482C174.861 6.50263 176.347 4.83077 179.32 4.83077H197.524C201.054 4.83077 203.469 5.38806 204.769 6.68839C206.255 7.80296 207.37 10.4036 208.484 13.9331L239.692 136.908L268.671 13.9331C269.6 10.2179 270.714 7.80296 272.201 6.68839C273.687 5.57382 276.287 4.83077 279.631 4.83077H294.492C298.021 4.83077 300.436 5.38806 301.922 6.68839C303.409 7.80296 304.709 10.4036 305.452 13.9331L334.802 138.394L366.939 13.9331C368.054 10.2179 369.354 7.80296 370.654 6.68839C372.14 5.57382 374.555 4.83077 377.899 4.83077H395.175C398.147 4.83077 399.819 6.31687 399.819 9.47482C399.819 10.4036 399.633 11.3324 399.447 12.447C399.262 13.5616 398.89 15.0477 398.147 17.0911L353.378 160.685C352.264 164.4 350.964 166.815 349.477 167.93C347.991 169.044 345.576 169.787 342.419 169.787H326.443C322.914 169.787 320.499 169.23 319.013 167.93C317.526 166.629 316.226 164.215 315.483 160.499L286.69 40.6828L258.083 160.314C257.154 164.029 256.039 166.444 254.553 167.744C253.067 169.044 250.466 169.602 247.123 169.602H231.147ZM469.851 174.617C460.192 174.617 450.532 173.503 441.244 171.273C431.956 169.044 424.711 166.629 419.881 163.843C416.909 162.171 414.866 160.314 414.123 158.642C413.38 156.97 413.008 155.112 413.008 153.44V143.966C413.008 140.065 414.494 138.208 417.281 138.208C418.395 138.208 419.51 138.394 420.624 138.765C421.739 139.137 423.411 139.88 425.268 140.623C431.584 143.409 438.457 145.638 445.702 147.124C453.133 148.611 460.377 149.354 467.808 149.354C479.511 149.354 488.613 147.31 494.929 143.223C501.245 139.137 504.589 133.192 504.589 125.576C504.589 120.375 502.917 116.102 499.573 112.573C496.229 109.043 489.914 105.885 480.811 102.913L453.876 94.5538C440.315 90.2813 430.284 83.9654 424.154 75.6061C418.024 67.4325 414.866 58.3302 414.866 48.6706C414.866 40.8686 416.538 33.9954 419.881 28.051C423.225 22.1066 427.683 16.9053 433.256 12.8185C438.829 8.54601 445.145 5.38806 452.575 3.15891C460.006 0.92977 467.808 0.000960648 475.981 0.000960648C480.068 0.000960648 484.341 0.186723 488.427 0.744008C492.7 1.30129 496.601 2.04434 500.502 2.78739C504.217 3.7162 507.747 4.64501 511.09 5.75958C514.434 6.87415 517.035 7.98872 518.892 9.1033C521.493 10.5894 523.351 12.0755 524.465 13.7473C525.58 15.2334 526.137 17.2768 526.137 19.8775V28.6083C526.137 32.5093 524.651 34.5527 521.865 34.5527C520.378 34.5527 517.964 33.8096 514.806 32.3235C504.217 27.4937 492.328 25.0788 479.139 25.0788C468.551 25.0788 460.192 26.7507 454.433 30.2802C448.674 33.8096 445.702 39.1967 445.702 46.813C445.702 52.0143 447.56 56.4726 451.275 60.0021C454.99 63.5315 461.863 67.061 471.709 70.219L498.087 78.5783C511.462 82.8508 521.122 88.7952 526.88 96.4114C532.639 104.028 535.425 112.758 535.425 122.418C535.425 130.406 533.753 137.651 530.595 143.966C527.252 150.282 522.793 155.855 517.035 160.314C511.276 164.958 504.403 168.301 496.415 170.716C488.056 173.317 479.325 174.617 469.851 174.617Z" fill="#252F3E"/>
<path d="M504.96 264.897C443.845 310.037 355.05 334 278.702 334C171.703 334 75.293 294.433 2.47438 228.673C-3.28424 223.472 1.9171 216.413 8.79029 220.499C87.5533 266.197 184.707 293.875 285.204 293.875C353.007 293.875 427.498 279.758 496.044 250.779C506.261 246.135 514.992 257.466 504.96 264.897ZM530.41 235.918C522.608 225.887 478.768 231.088 458.891 233.503C452.947 234.246 452.018 229.045 457.405 225.144C492.329 200.623 549.729 207.682 556.416 215.855C563.104 224.215 554.559 281.615 521.865 309.108C516.849 313.38 512.019 311.151 514.248 305.578C521.679 287.188 538.212 245.763 530.41 235.918Z" fill="#FF9900"/>
</g>
<defs>
<clipPath id="clip0_5253_4412">
<rect width="558.53" height="334" fill="white"/>
</clipPath>
</defs>
</svg>
