<svg width="301" height="77" viewBox="0 0 301 77" fill="none" xmlns="http://www.w3.org/2000/svg">
<mask id="mask0_5296_6080" style="mask-type:luminance" maskUnits="userSpaceOnUse" x="0" y="8" width="301" height="61">
<path d="M300.005 8H0V68.469H300.005V8Z" fill="white"/>
</mask>
<g mask="url(#mask0_5296_6080)">
<path d="M7.897 15.8129H14.417C20.376 15.8129 23.002 17.6959 23.002 21.5209C23.002 24.8449 20.376 27.1019 15.105 27.1019H7.897V15.8129ZM0 53.4229H15.98C24.378 53.4229 32.776 50.4229 32.776 40.7659C32.776 35.0579 28.774 30.6759 23.197 30.0419V29.9099C27.76 28.5429 30.907 25.2199 30.907 20.2039C30.907 12.1159 24.004 9.04688 17.297 9.04688H0V53.4229ZM7.897 33.8679H15.479C21.871 33.8679 24.89 35.4999 24.89 40.1419C24.89 45.9629 19.236 46.6569 15.164 46.6569H7.897V33.8679Z" fill="#010101"/>
<path d="M41.7061 53.423V8" stroke="#010101" stroke-width="7.5" stroke-miterlimit="10"/>
<path d="M58.0113 38.382C58.0113 33.681 61.3353 29.36 66.8523 29.36C72.3693 29.36 75.6833 33.682 75.6833 38.382C75.6833 43.082 72.3693 47.405 66.8523 47.405C61.3343 47.405 58.0113 43.083 58.0113 38.382ZM50.4883 38.382C50.4883 47.847 57.7553 54.171 66.8523 54.171C75.9383 54.171 83.2163 47.848 83.2163 38.382C83.2163 28.916 75.9393 22.584 66.8523 22.584C57.7553 22.583 50.4883 28.917 50.4883 38.382Z" fill="#010101"/>
<path d="M94.1314 38.382C94.1314 33.681 97.4554 29.36 102.972 29.36C108.489 29.36 111.803 33.682 111.803 38.382C111.803 43.082 108.489 47.405 102.972 47.405C97.4554 47.405 94.1314 43.083 94.1314 38.382ZM86.6084 38.382C86.6084 47.847 93.8764 54.171 102.972 54.171C112.058 54.171 119.336 47.848 119.336 38.382C119.336 28.916 112.059 22.584 102.972 22.584C93.8754 22.583 86.6084 28.917 86.6084 38.382Z" fill="#010101"/>
<path d="M123.918 23.3361H131.067V28.0421H131.185C132.503 25.2201 135.384 22.5791 140.399 22.5791C145.041 22.5791 148.247 24.3931 149.81 28.1601C152.003 24.3441 155.199 22.5791 159.703 22.5791C167.727 22.5791 170.551 28.2921 170.551 35.5011V53.4241H163.028V36.3761C163.028 32.6191 161.907 29.3591 157.452 29.3591C152.752 29.3591 150.991 33.2431 150.991 37.1231V53.4231H143.478V35.5001C143.478 31.7921 141.973 29.3591 138.335 29.3591C133.388 29.3591 131.441 32.9831 131.441 37.0001V53.4231H123.918V23.3361Z" fill="#010101"/>
<path d="M201.597 38.382C201.597 43.088 198.283 47.405 192.756 47.405C187.238 47.405 183.915 43.088 183.915 38.382C183.915 33.681 187.238 29.349 192.756 29.349C198.283 29.349 201.597 33.681 201.597 38.382ZM176.648 53.423H183.797V48.913H183.915C186.117 52.537 190.061 54.17 194.269 54.17C203.533 54.17 209.119 47.276 209.119 38.381C209.119 29.481 203.16 22.583 194.575 22.583C188.939 22.583 185.921 25.209 184.357 27.166H184.17V8H176.647L176.648 53.423Z" fill="#010101"/>
<path d="M220.045 35.373C220.606 31.041 223.369 28.224 227.814 28.224C232.515 28.224 235.396 30.983 235.465 35.373H220.045ZM242.988 41.013V38.948C242.988 28.475 237.285 22.584 228.886 22.584C219.78 22.584 212.522 28.917 212.522 38.382C212.522 47.847 219.78 54.171 228.886 54.171C233.636 54.171 238.1 52.48 241.601 48.162L236.212 44.096C234.334 46.403 231.885 48.162 228.128 48.162C223.93 48.162 220.536 45.463 220.045 41.013H242.988Z" fill="#010101"/>
<path d="M247.885 23.3361H255.408V28.1011H255.536C257.168 24.6541 260.482 22.5791 264.435 22.5791C265.379 22.5791 266.254 22.7711 267.129 23.0261V30.2941C265.88 29.9841 264.681 29.7331 263.49 29.7331C256.41 29.7331 255.407 35.6921 255.407 37.3251V53.4241H247.884L247.885 23.3361Z" fill="#010101"/>
<path d="M283.957 29.3591C289.405 29.3591 292.856 32.9831 292.856 38.1991C292.856 43.2051 289.473 47.0301 283.897 47.0301C278.823 47.0301 275.056 43.0821 275.056 38.3171C275.056 32.9831 278.685 29.3591 283.957 29.3591ZM292.856 23.3361V27.8501H292.738C290.536 24.2111 286.583 22.5791 282.384 22.5791C273.111 22.5791 267.534 29.4771 267.534 38.3821C267.534 46.8981 273.493 53.7971 282.512 53.7971C286.278 53.7971 290.162 52.3611 292.366 49.4161H292.473V51.6141C292.473 57.5631 290.231 61.7041 282.954 61.7041C278.755 61.7041 275.617 60.1301 272.608 57.3571L268.104 63.5121C272.352 67.2881 277.436 68.4691 283.022 68.4691C294.745 68.4691 300.005 61.5661 300.005 50.7281V23.3361H292.856Z" fill="#010101"/>
</g>
</svg>
