<svg width="780" height="318" viewBox="0 0 780 318" fill="none" xmlns="http://www.w3.org/2000/svg">
<path d="M308.171 76.9902V198.691L323.843 198.811V140.829H361.646V125.527H323.843V92.2925H373.011V76.9902H308.171ZM401.245 101.737C406.867 101.737 411.533 97.194 411.533 91.4557C411.533 85.7173 406.987 81.1744 401.245 81.1744C395.622 81.1744 390.956 85.7173 390.956 91.4557C390.956 97.194 395.502 101.737 401.245 101.737ZM393.229 117.039V198.811H408.901V117.039H393.229ZM467.042 114.648C446.226 114.648 431.751 132.222 431.751 153.143C431.751 174.064 446.226 191.638 467.042 191.638C476.613 191.638 484.389 188.051 490.131 181.954V192.833C490.251 206.342 479.484 217.58 465.846 217.699C465.726 217.699 465.726 217.699 465.606 217.699C460.582 217.699 455.677 215.786 451.729 213.037L443.833 226.665C462.496 238.74 487.379 233.36 499.343 214.711C503.53 208.135 505.803 200.604 505.803 192.833V117.159H490.131V124.451C484.389 118.354 476.613 114.648 467.042 114.648ZM447.422 153.143C447.422 140.112 457.352 129.95 468.837 129.95C480.321 129.95 490.131 140.232 490.131 153.143C490.131 166.174 480.202 176.216 468.837 176.216C457.352 176.216 447.422 166.054 447.422 153.143ZM562.269 129.95C552.938 130.07 545.401 137.721 545.521 147.046V198.691H529.849V116.92H545.521V124.451C550.306 118.115 557.723 114.529 565.738 114.648C576.744 114.648 585.238 120.028 590.024 128.396C595.527 119.908 604.858 114.768 614.907 114.648C632.732 114.648 643.858 128.994 643.858 146.807V198.691H628.306V147.046C628.306 137.721 620.889 130.07 611.557 129.95C602.226 130.07 594.689 137.721 594.809 147.046V198.691H579.018V147.046C579.018 137.721 571.6 130.07 562.269 129.95ZM727.361 126.244C720.183 118.713 710.134 114.529 699.726 114.648C676.398 114.648 659.889 134.374 659.889 157.805C659.889 181.356 676.398 200.962 699.726 200.962C710.134 200.962 720.064 196.778 727.361 189.366V198.691H743.033V116.92H727.361V126.244ZM675.56 157.805C675.56 142.264 687.524 129.831 701.521 129.831C715.398 129.95 727.361 142.264 727.361 157.805C727.361 173.347 715.398 185.66 701.401 185.66C687.643 185.78 675.56 173.466 675.56 157.805Z" fill="black"/>
<path d="M105.755 152.427C105.755 130.191 123.819 112.139 146.071 112.139C168.322 112.139 186.387 130.191 186.387 152.427C186.387 174.663 168.322 192.715 146.071 192.715C123.819 192.715 105.755 174.663 105.755 152.427Z" fill="#1ABCFE"/>
<path d="M25.2422 232.882C25.2422 210.646 43.3066 192.594 65.5581 192.594H105.874V232.882C105.874 255.118 87.8097 273.17 65.5581 273.17C43.3066 273.17 25.2422 255.118 25.2422 232.882Z" fill="#0ACF83"/>
<path d="M105.755 31.6801V112.136H146.071C168.322 112.136 186.387 94.0846 186.387 71.8485C186.387 49.6124 168.322 31.5605 146.071 31.5605H105.755V31.6801Z" fill="#FF7262"/>
<path d="M25.2422 71.9678C25.2422 94.2039 43.3066 112.256 65.5581 112.256H105.874V31.7994H65.5581C43.3066 31.6799 25.2422 49.7317 25.2422 71.9678Z" fill="#F24E1E"/>
<path d="M25.2422 152.427C25.2422 174.663 43.3066 192.715 65.5581 192.715H105.874V112.258H65.5581C43.3066 112.139 25.2422 130.191 25.2422 152.427Z" fill="#A259FF"/>
</svg>
