<svg width="965" height="250" viewBox="0 0 965 250" fill="none" xmlns="http://www.w3.org/2000/svg">
<path d="M140.075 193.091C144.095 193.091 147.487 196.357 147.487 200.503C147.487 204.523 144.221 207.915 140.075 207.915C136.055 207.915 132.663 204.649 132.663 200.503C132.538 196.483 135.804 193.217 139.824 193.091C139.95 193.091 139.95 193.091 140.075 193.091ZM260.427 146.232C256.407 146.232 253.141 143.091 253.015 139.071C253.015 138.945 253.015 138.945 253.015 138.82C253.266 134.925 256.407 131.784 260.427 131.408C264.447 131.408 267.713 134.548 267.713 138.568C267.713 138.694 267.713 138.694 267.713 138.82C267.588 142.84 264.447 145.98 260.427 146.232ZM260.427 114.95C247.362 115.202 236.809 125.754 236.558 138.82C236.558 141.583 236.558 144.347 237.437 146.232L159.296 187.563C151.884 176.885 137.06 174.247 126.382 181.659C123.241 183.92 120.603 186.81 118.844 190.327L48.9948 153.518C41.7084 149.875 36.1807 136.935 37.0601 125.88C37.0601 120.352 39.8239 115.83 42.5878 113.945C44.5978 113.066 46.9847 113.066 48.9948 113.945H49.8742C68.2159 123.996 129.899 155.277 131.658 157.161C135.301 159.046 138.065 159.925 144.472 156.282L270.477 91.0809C272.613 90.0759 274.12 87.9402 274.12 85.5533C274.12 81.9101 270.477 80.0256 270.477 80.0256C263.065 76.3824 252.136 71.7342 241.96 66.2066C218.97 55.1513 193.216 43.2166 181.281 37.689C175.377 34.1714 167.965 34.1714 161.934 37.689L159.171 38.5684C107.663 64.3221 38.8189 98.3674 35.0501 100.126C27.638 104.774 23.9948 112.94 23.1154 123.116C22.236 139.699 30.4018 157.161 43.3415 163.568L117.839 202.136C119.472 213.568 129.271 222.237 140.829 222.362C153.643 222.362 164.698 212.312 164.698 199.372L246.482 155.277C251.13 158.92 255.653 159.925 261.181 159.925C274.246 159.674 284.799 149.121 285.05 136.056C283.417 125.001 273.367 114.95 260.427 114.95Z" fill="#3681FC"/>
<path d="M439.699 177.386C434.297 182.788 427.639 186.934 420.352 189.321C411.433 192.336 402.136 193.844 392.714 193.844C377.136 193.844 364.197 189.321 355.026 179.145C345.855 169.974 340.327 156.155 340.327 139.572V129.522C340.327 117.587 342.212 107.411 346.734 99.2456C351.257 90.0748 356.784 83.6677 364.196 79.0195C372.237 74.12 381.408 71.6074 390.83 71.6074C405.528 71.6074 417.463 75.2506 425.754 81.6577C434.046 88.0647 438.568 98.2406 440.453 111.934H412.94C412.061 105.527 410.176 100.879 406.533 98.115C402.513 95.0999 397.739 93.4667 392.714 93.4667C385.302 93.4667 379.9 96.2305 376.131 102.638C372.362 109.045 370.604 117.336 369.724 128.391V135.803C369.724 147.738 371.609 156.909 376.131 162.437C379.774 167.964 386.181 171.607 395.478 171.607C402.89 171.607 408.292 169.723 412.061 166.959V148.617H391.96V129.271H440.704V177.009L439.699 177.386Z" fill="black"/>
<path d="M456.282 192.211H483.921V104.02H456.282V192.211ZM455.277 80.9044C455.403 77.0099 457.036 73.4923 459.926 70.8541C462.689 68.0903 466.333 67.2109 470.981 67.2109C475.629 67.2109 479.272 68.0903 482.036 70.8541C484.8 73.618 486.684 76.3818 486.684 80.9044C486.559 84.7989 484.926 88.3165 482.036 90.9546C479.272 93.7185 475.629 94.5979 470.981 94.5979C466.333 94.5979 462.689 93.7185 459.926 90.9546C456.282 88.3165 455.277 85.5526 455.277 80.9044Z" fill="black"/>
<path d="M533.417 81.7832V103.894H548.115V123.24H533.417V163.693C533.417 166.205 534.045 168.844 535.301 171.105C536.181 171.984 538.944 172.989 542.713 172.989C545.477 172.989 547.362 172.989 549.12 172.11V191.457C544.095 193.341 538.819 194.22 533.542 194.22C524.372 194.22 516.96 192.336 512.437 187.813C507.914 183.291 506.03 176.758 506.03 167.587V123.492H494.975V104.145H506.03V82.0345H533.417V81.7832Z" fill="black"/>
<path d="M588.569 141.583V170.1H606.91C612.438 170.1 616.081 169.221 618.845 166.457C621.609 163.693 623.493 160.929 623.493 156.407C623.493 146.357 618.845 141.708 608.795 141.708L588.569 141.583ZM588.569 123.241H603.267C609.674 123.241 614.323 122.362 617.086 119.598C619.85 117.713 620.729 114.07 620.729 109.547C620.729 105.402 619.096 101.382 616.081 98.4922C611.936 95.9796 607.162 94.5977 602.262 94.849H588.443L588.569 123.241ZM560.177 192.085V73.4922H603.393C618.971 73.4922 630.026 76.256 638.317 81.7837C646.609 87.3113 650.252 95.6027 650.252 106.658C650.252 112.186 648.619 117.588 645.604 122.236C642.84 126.884 638.317 129.648 632.79 131.407C639.197 133.291 643.845 136.055 647.488 140.578C651.132 145.1 652.137 150.628 652.137 157.161C652.137 169.095 648.493 177.387 641.081 183.794C633.795 189.321 622.74 192.965 608.041 192.965L560.177 192.085Z" fill="black"/>
<path d="M690.703 148.996C690.703 157.287 691.582 162.815 694.346 167.338C696.858 170.855 701.004 172.991 705.401 172.865C715.451 172.865 720.1 165.453 720.1 149.875V147.112C720.1 131.534 714.572 123.242 704.522 123.242C695.351 123.242 690.703 129.649 689.823 143.468L690.703 148.996ZM663.064 147.112C662.939 138.82 664.823 130.654 668.592 123.242C672.235 116.835 676.884 111.308 683.291 107.664C689.698 104.021 697.11 102.137 706.281 102.137C719.095 102.137 730.15 105.78 737.562 114.071C744.974 122.363 748.617 133.418 748.617 147.112V148.996C748.617 162.815 744.974 173.87 736.683 182.036C729.271 190.328 718.341 193.971 705.401 193.971C692.461 193.971 682.411 190.328 674.999 182.916C667.587 175.504 663.064 165.453 663.064 152.639V147.112Z" fill="black"/>
<path d="M785.302 148.996C785.302 157.287 786.182 162.815 788.946 167.338C791.458 170.855 795.604 172.991 800.001 172.865C810.051 172.865 814.699 165.453 814.699 149.875V147.112C814.699 131.534 809.172 123.242 799.121 123.242C789.951 123.242 785.302 129.649 784.423 143.468L785.302 148.996ZM757.664 147.112C757.538 138.82 759.423 130.654 763.192 123.242C766.835 116.835 771.483 111.308 777.89 107.664C784.297 104.021 791.709 102.137 800.88 102.137C813.694 102.137 824.75 105.78 832.162 114.071C839.574 122.363 843.217 133.418 843.217 147.112V148.996C843.217 162.815 839.574 173.87 831.282 182.036C823.996 190.328 812.94 193.971 800.001 193.971C787.061 193.971 777.011 190.328 769.724 182.916C762.438 175.504 757.79 165.453 757.79 152.639V147.112H757.664Z" fill="black"/>
<path d="M891.081 159.924L882.79 167.337V192.211H855.151V67.2109H882.79V133.417L885.553 129.774L906.659 104.02H939.699L908.418 140.703L941.458 192.211H910.302L891.081 159.924Z" fill="black"/>
</svg>
