<svg width="221" height="86" viewBox="0 0 221 86" fill="none" xmlns="http://www.w3.org/2000/svg">
<g clip-path="url(#clip0_5603_16)">
<mask id="mask0_5603_16" style="mask-type:luminance" maskUnits="userSpaceOnUse" x="0" y="13" width="222" height="60">
<path d="M221.007 13H0V73H221.007V13Z" fill="white"/>
</mask>
<g mask="url(#mask0_5603_16)">
<path d="M42.6027 38.6025H24.0153C23.5359 38.6025 23.1467 38.9921 23.1467 39.4716V48.5593C23.1467 49.039 23.5359 49.429 24.0153 49.429H31.2663V60.7197C31.2663 60.7197 29.6381 61.2747 25.1368 61.2747C19.8263 61.2747 12.4077 59.3343 12.4077 43.0213C12.4077 26.7047 20.1326 24.5579 27.385 24.5579C33.6627 24.5579 36.3673 25.6633 38.088 26.1957C38.6287 26.3615 39.129 25.8231 39.129 25.3432L41.2023 16.5626C41.2023 16.3383 41.1263 16.068 40.8703 15.8842C40.1717 15.3858 35.908 13 25.1368 13C12.7282 13 0 18.2792 0 43.6574C0 69.0367 14.5729 72.8183 26.853 72.8183C37.021 72.8183 43.189 68.4733 43.189 68.4733C43.4433 68.3327 43.471 67.9777 43.471 67.8147V39.4716C43.471 38.9921 43.082 38.6025 42.6027 38.6025ZM138.343 16.1767C138.343 15.693 137.96 15.3029 137.481 15.3029H127.015C126.537 15.3029 126.148 15.693 126.148 16.1767C126.148 16.179 126.151 36.4023 126.151 36.4023H109.837V16.1767C109.837 15.693 109.452 15.3029 108.974 15.3029H98.5083C98.032 15.3029 97.644 15.693 97.644 16.1767V70.9413C97.644 71.4247 98.032 71.818 98.5083 71.818H108.974C109.452 71.818 109.837 71.4247 109.837 70.9413V47.5167H126.151C126.151 47.5167 126.122 70.9397 126.122 70.9413C126.122 71.4247 126.511 71.818 126.989 71.818H137.48C137.959 71.818 138.342 71.4247 138.343 70.9413V16.1767ZM62.3183 23.4986C62.3183 19.7301 59.297 16.6847 55.5693 16.6847C51.8457 16.6847 48.822 19.7301 48.822 23.4986C48.822 27.2629 51.8457 30.3166 55.5693 30.3166C59.297 30.3166 62.3183 27.2629 62.3183 23.4986ZM61.488 59.4177V34.1381C61.488 33.6581 61.1007 33.2657 60.622 33.2657H50.1893C49.711 33.2657 49.2827 33.7595 49.2827 34.2394V70.4573C49.2827 71.5217 49.9457 71.8383 50.8043 71.8383H60.204C61.235 71.8383 61.488 71.332 61.488 70.4403V59.4177ZM178.343 33.2657H167.958C167.481 33.2657 167.094 33.6581 167.094 34.1413V60.9943C167.094 60.9943 164.455 62.9247 160.71 62.9247C156.966 62.9247 155.972 61.2253 155.972 57.5587V34.1413C155.972 33.6581 155.585 33.2657 155.108 33.2657H144.568C144.092 33.2657 143.702 33.6581 143.702 34.1413V59.332C143.702 70.223 149.772 72.8873 158.123 72.8873C164.973 72.8873 170.496 69.103 170.496 69.103C170.496 69.103 170.759 71.0973 170.878 71.334C170.997 71.5697 171.307 71.808 171.642 71.808L178.348 71.7783C178.824 71.7783 179.213 71.385 179.213 70.9043L179.21 34.1413C179.21 33.6581 178.822 33.2657 178.343 33.2657ZM202.272 62.9453C198.67 62.8357 196.226 61.201 196.226 61.201V43.8582C196.226 43.8582 198.637 42.3807 201.594 42.1163C205.334 41.7814 208.938 42.9113 208.938 51.8327C208.938 61.2407 207.312 63.0973 202.272 62.9453ZM206.368 32.0894C200.47 32.0894 196.458 34.7212 196.458 34.7212V16.1767C196.458 15.693 196.071 15.3029 195.594 15.3029H185.099C184.622 15.3029 184.234 15.693 184.234 16.1767V70.9413C184.234 71.4247 184.622 71.818 185.1 71.818H192.382C192.71 71.818 192.958 71.649 193.141 71.3527C193.322 71.0583 193.584 68.828 193.584 68.828C193.584 68.828 197.875 72.8947 206 72.8947C215.537 72.8947 221.007 68.057 221.007 51.176C221.007 34.2951 212.271 32.0894 206.368 32.0894ZM91.6097 33.1717H83.759C83.759 33.1717 83.747 22.8026 83.747 22.8003C83.747 22.4079 83.545 22.2117 83.0913 22.2117H72.3927C71.977 22.2117 71.7533 22.3945 71.7533 22.7943V33.5121C71.7533 33.5121 66.3923 34.8064 66.0297 34.9109C65.6687 35.0155 65.403 35.3485 65.403 35.7455V42.4806C65.403 42.9651 65.79 43.3557 66.2683 43.3557H71.7533V59.558C71.7533 71.5927 80.195 72.775 85.8917 72.775C88.4943 72.775 91.608 71.939 92.122 71.7493C92.4327 71.635 92.6133 71.3133 92.6133 70.964L92.622 63.555C92.622 63.072 92.214 62.681 91.7543 62.681C91.297 62.681 90.1267 62.867 88.9217 62.867C85.0657 62.867 83.759 61.074 83.759 58.753C83.759 56.434 83.7587 43.3557 83.7587 43.3557H91.6097C92.0883 43.3557 92.4757 42.9651 92.4757 42.4806V34.0446C92.4757 33.5614 92.0883 33.1717 91.6097 33.1717Z" fill="#11110F"/>
</g>
</g>
<defs>
<clipPath id="clip0_5603_16">
<rect width="221" height="86" fill="white"/>
</clipPath>
</defs>
</svg>
