<svg width="794" height="180" viewBox="0 0 794 180" fill="none" xmlns="http://www.w3.org/2000/svg">
<g clip-path="url(#clip0_5121_6043)">
<path d="M320.676 111.493C320.676 124.86 316.962 135.078 309.54 142.144C302.116 149.216 291.422 152.75 277.459 152.75H254.799V71.7865H279.841C292.731 71.7865 302.759 75.2568 309.926 82.201C317.092 89.1381 320.676 98.9038 320.676 111.493ZM306.714 111.937C306.714 92.5537 297.646 82.8639 279.51 82.8639H268.044V141.621H277.461C296.962 141.619 306.714 131.726 306.714 111.937ZM356.639 153.858C347.108 153.858 339.655 151.083 334.282 145.524C328.911 139.966 326.219 132.315 326.219 122.572C326.219 112.568 328.712 104.706 333.698 98.9781C338.682 93.2573 345.534 90.3969 354.252 90.3969C362.342 90.3969 368.733 92.8542 373.424 97.7618C378.113 102.673 380.461 109.432 380.461 118.032V125.067H339.627C339.811 131.008 341.42 135.578 344.45 138.773C347.48 141.967 351.744 143.562 357.246 143.562C360.867 143.562 364.236 143.221 367.359 142.537C370.483 141.853 373.833 140.719 377.418 139.132V149.707C374.354 151.184 371.114 152.263 367.777 152.918C364.526 153.545 360.813 153.858 356.639 153.858ZM354.257 100.251C350.12 100.251 346.806 101.563 344.314 104.184C341.82 106.804 340.334 110.63 339.855 115.646H367.671C367.596 110.588 366.379 106.757 364.015 104.154C361.645 101.552 358.394 100.251 354.257 100.251ZM402.409 152.751L379.14 91.5018H392.883L405.348 127.112C407.49 133.095 408.781 137.931 409.225 141.623H409.667C410 138.964 411.293 134.13 413.544 127.112L426.013 91.5018H439.86L416.482 152.751H402.409ZM469.122 153.858C459.591 153.858 452.139 151.083 446.765 145.524C441.391 139.966 438.701 132.315 438.701 122.572C438.701 112.568 441.193 104.706 446.181 98.9781C451.167 93.2573 458.019 90.3969 466.736 90.3969C474.824 90.3969 481.218 92.8542 485.907 97.7618C490.595 102.673 492.944 109.432 492.944 118.032V125.067H452.111C452.295 131.008 453.905 135.578 456.933 138.773C459.962 141.967 464.228 143.562 469.729 143.562C473.351 143.562 476.718 143.221 479.842 142.537C482.963 141.853 486.315 140.719 489.902 139.132V149.707C486.838 151.183 483.598 152.262 480.261 152.918C477.008 153.545 473.298 153.858 469.122 153.858ZM466.74 100.251C462.603 100.251 459.288 101.563 456.795 104.184C454.303 106.804 452.815 110.63 452.336 115.646H480.151C480.077 110.588 478.86 106.757 476.497 104.154C474.127 101.552 470.877 100.251 466.74 100.251ZM513.95 152.751H500.933V66.5801H513.95V152.751ZM580.108 122.015C580.108 132.02 577.542 139.828 572.408 145.441C567.275 151.053 560.128 153.858 550.966 153.858C545.241 153.858 540.179 152.568 535.786 149.983C531.391 147.4 528.011 143.688 525.65 138.852C523.285 134.019 522.104 128.404 522.104 122.019C522.104 112.087 524.649 104.335 529.748 98.7589C534.845 93.1866 542.026 90.3986 551.301 90.3986C560.169 90.3986 567.181 93.2502 572.353 98.9534C577.524 104.655 580.108 112.343 580.108 122.015ZM535.51 122.015C535.51 136.156 540.735 143.226 551.189 143.226C561.531 143.226 566.702 136.156 566.702 122.015C566.702 108.023 561.499 101.025 551.078 101.025C545.611 101.025 541.653 102.832 539.194 106.451C536.738 110.072 535.51 115.258 535.51 122.015ZM619.342 153.858C611.585 153.858 605.566 151.072 601.281 145.498H600.506C601.023 150.669 601.281 153.805 601.281 154.912V179.996H588.262V91.5018H598.789C599.084 92.6438 599.694 95.3769 600.614 99.6994H601.281C605.343 93.4942 611.436 90.3933 619.565 90.3933C627.208 90.3933 633.163 93.16 637.434 98.7005C641.7 104.238 643.833 112.009 643.833 122.015C643.833 132.02 641.659 139.828 637.322 145.441C632.982 151.053 626.988 153.858 619.342 153.858ZM616.185 101.027C611.014 101.027 607.234 102.539 604.855 105.567C602.473 108.594 601.281 113.43 601.281 120.078V122.017C601.281 129.476 602.462 134.873 604.827 138.216C607.19 141.561 611.051 143.228 616.406 143.228C620.913 143.228 624.387 141.382 626.824 137.689C629.261 133.998 630.48 128.738 630.48 121.906C630.48 115.037 629.264 109.842 626.848 106.318C624.431 102.79 620.876 101.027 616.185 101.027ZM678.907 153.858C669.377 153.858 661.924 151.083 656.549 145.524C651.178 139.966 648.486 132.315 648.486 122.572C648.486 112.568 650.978 104.706 655.966 98.9781C660.948 93.2573 667.8 90.3969 676.521 90.3969C684.606 90.3969 691.001 92.8542 695.691 97.7618C700.377 102.673 702.729 109.432 702.729 118.032V125.067H661.9C662.084 131.008 663.693 135.578 666.721 138.773C669.752 141.967 674.017 143.562 679.517 143.562C683.138 143.562 686.507 143.221 689.63 142.537C692.754 141.853 696.102 140.719 699.69 139.132V149.707C696.627 151.183 693.387 152.262 690.049 152.918C686.793 153.545 683.084 153.858 678.907 153.858ZM676.526 100.251C672.388 100.251 669.073 101.563 666.581 104.184C664.089 106.806 662.602 110.63 662.122 115.646H689.94C689.865 110.588 688.647 106.757 686.284 104.154C683.914 101.552 680.663 100.251 676.526 100.251ZM741.797 90.3933C744.42 90.3933 746.581 90.5772 748.282 90.9449L747.005 103.071C745.117 102.624 743.183 102.4 741.243 102.406C736.034 102.406 731.814 104.105 728.583 107.503C725.35 110.901 723.735 115.311 723.735 120.737V152.744H710.72V91.5018H720.914L722.633 102.3H723.298C725.327 98.6457 727.978 95.7464 731.248 93.6055C734.513 91.4646 738.029 90.3933 741.797 90.3933ZM793.998 135.306C793.998 141.287 791.819 145.876 787.46 149.067C783.102 152.264 776.86 153.856 768.733 153.856C760.571 153.856 754.014 152.622 749.066 150.144V138.905C756.268 142.231 762.971 143.889 769.177 143.889C777.191 143.889 781.2 141.471 781.2 136.634C781.2 135.083 780.756 133.791 779.87 132.757C778.984 131.724 777.525 130.655 775.493 129.546C773.461 128.44 770.634 127.185 767.016 125.781C759.961 123.049 755.187 120.316 752.69 117.583C750.198 114.852 748.951 111.307 748.951 106.949C748.951 101.708 751.064 97.6345 755.297 94.7387C759.527 91.843 765.279 90.3915 772.557 90.3915C779.759 90.3915 786.573 91.85 793.001 94.7688L788.79 104.57C782.178 101.839 776.62 100.474 772.113 100.474C765.24 100.474 761.809 102.429 761.809 106.341C761.809 108.261 762.704 109.888 764.495 111.217C766.291 112.545 770.198 114.373 776.218 116.699C781.273 118.656 784.952 120.447 787.239 122.072C789.525 123.696 791.229 125.57 792.336 127.695C793.443 129.813 793.998 132.356 793.998 135.306Z" fill="#6C6D6D"/>
<path d="M420.383 41.822C418.746 42.683 416.294 43.0118 414.396 43.0418C410.532 43.1196 407.424 40.4696 405.417 37.3581C404.083 35.3211 403.28 32.9823 403.082 30.5554C402.748 26.7633 403.684 22.386 407.96 21.3112C410.845 20.5881 413.535 22.1827 414.598 24.9353C415.072 26.217 414.782 26.8499 413.629 27.3131L403.302 31.6479L406.812 31.8689C411.018 30.124 415.7 28.4976 419.893 26.7597C420.76 26.392 420.838 26.3266 420.5 25.4073C418.689 20.2239 411.841 17.4148 405.983 19.8527C401.386 21.7708 398.051 26.6325 398.051 32.0916C398.051 39.4354 403.332 45.9588 410.551 45.9588C413.836 45.9588 416.19 45.508 418.284 44.191C418.733 43.7684 421.248 41.7318 421.292 41.3005C421.291 41.1944 420.917 41.5091 420.383 41.822ZM393.174 40.6747C393.247 30.368 392.989 20.0082 393.417 9.69447C393.493 8.81761 393.574 7.80992 393.91 7.29017C394.374 6.57418 394.736 6.28425 395.799 5.58594H388.091C386.556 6.26657 385.185 7.32376 383.705 8.0698C385.263 8.0203 386.676 8.04328 388.217 8.00792C387.552 18.3641 387.968 28.6973 387.916 39.4442C387.998 42.6423 387.35 43.4785 386.116 44.7691C389.416 44.7691 392.554 44.8309 395.865 44.8309C396.547 44.4243 397.432 43.5209 397.982 43.0436C394.326 43.1515 393.233 43.4891 393.174 40.6747Z" fill="#666666"/>
<path d="M385.215 19.7967C380.57 19.7562 375.924 19.7415 371.278 19.7525C366.662 19.7525 362.504 21.9959 360.629 26.0002C359.775 27.8423 359.43 30.2148 359.968 32.4582C361.064 36.9185 365.71 39.862 370.233 39.1796C370.73 39.1107 370.893 38.9587 370.62 39.4042C369.628 41.1561 370.364 43.7726 372.313 45.0401C370.902 44.9402 369.485 44.9638 368.079 45.1109C362.575 45.7632 356.46 48.6042 356.782 54.5389C357.018 59.1566 361.689 62.5544 369.066 62.558C375.028 62.5544 380.61 60.6575 382.957 56.4659C385.438 52.0427 383.984 47.4727 380.256 44.6972C378.563 43.4314 375.617 41.6865 375.799 39.2804C375.861 38.4672 376.467 37.5886 377.605 36.9097C379.653 35.727 381.039 34.1554 381.729 32.3291C382.442 30.411 382.339 28.3055 381.632 26.405C380.958 24.6336 379.754 23.0178 378.162 21.9287H381.906L385.215 19.7967ZM375.861 47.7786C379.112 49.8275 380.157 52.3273 379.884 54.6485C379.566 57.4471 376.869 59.6339 372.295 59.9062C367.382 60.212 360.797 58.2762 362.016 51.8358C362.675 48.4026 367.235 46.6418 370.978 46.5216C372.046 46.4863 373.086 46.5605 374.122 46.5941C374.686 46.9972 375.281 47.3826 375.861 47.7786ZM373.372 37.4224C370.067 38.3364 366.429 35.757 365.261 31.18C363.951 26.131 365.282 22.9294 368.401 21.9641C372.081 20.8026 376.016 24.1386 376.911 29.5766C377.507 33.1371 376.595 36.5155 373.372 37.4224ZM357.145 31.8235C356.74 24.9271 352.111 19.0436 343.261 19.0436C335.608 19.0436 329.34 25.0084 329.34 32.3309C329.34 40.7177 336.627 46.4544 344.957 45.5581C351.876 44.8262 357.555 38.6864 357.145 31.8235ZM345.916 43.5039C341.262 44.5557 336.326 40.7142 335.115 34.1872C333.755 27.0096 335.985 22.2823 340.366 21.1173C345.567 19.756 350.859 24.9854 351.618 32.7004C352.136 37.7441 350.438 42.4573 345.916 43.5039ZM312.927 19.0418C305.166 19.0418 298.829 25.0066 298.829 32.3291C298.829 40.7159 306.188 46.4527 314.628 45.5564C321.646 44.8262 327.38 38.6846 326.949 31.8218C326.524 24.9253 321.86 19.0418 312.927 19.0418ZM315.594 43.5039C310.893 44.5557 305.911 40.7142 304.674 34.1872C303.304 27.0096 305.564 22.2823 310.002 21.1173C315.251 19.756 320.592 24.9854 321.372 32.7004C321.882 37.7441 320.175 42.4573 315.594 43.5039ZM280.554 35.1206L289.059 34.8713V42.2169C289.059 43.2758 289.073 43.4243 287.343 43.983C284.922 44.63 282.193 44.7608 279.69 44.5487C271.204 43.8291 264.747 37.1254 263.212 28.7828C261.739 20.8397 265.504 13.3351 271.823 10.2537C274.91 8.74396 278.622 8.0209 282.642 9.32205C285.15 10.1052 287.448 11.5743 289.437 13.572L288.044 16.0665L290.66 15.3699L294.676 11.242C287.844 5.60245 276.118 4.86525 268.345 8.78285C261.592 12.209 256.673 18.9852 256.443 26.5606C256.167 34.5107 260.837 40.8344 265.532 43.9865C273.3 49.2265 286.754 48.0738 294.867 43.967L294.834 43.2139H294.867V34.8713L296.744 32.6474H284.938L280.554 35.1206Z" fill="#666666"/>
<path d="M179.786 117.212C181.896 120.702 181.942 126.202 180.121 129.988L205.274 88.1111C207.522 84.3597 207.522 78.2411 205.274 74.5073L164.622 6.80668C162.365 3.07647 156.951 0.00390625 152.586 0.00390625H117.151C112.794 0.00390625 111.059 3.0747 113.305 6.80845L138.616 48.9262C138.77 49.1384 138.987 49.3311 139.12 49.5273L179.786 117.212Z" fill="url(#paint0_radial_5121_6043)"/>
<path d="M117.152 162.586H152.587C156.954 162.586 162.364 159.538 164.625 155.78L180.127 129.984C181.945 126.199 181.902 120.7 179.792 117.208L153.988 74.498C156.229 78.2318 156.229 84.3504 153.988 88.1018L128.82 129.954C128.689 130.236 128.629 130.563 128.487 130.822L113.042 156.524C111.461 159.906 113.088 162.586 117.152 162.586Z" fill="url(#paint1_radial_5121_6043)"/>
<path d="M179.787 117.212L153.983 74.502C156.224 78.2357 156.224 84.3543 153.983 88.1057L144.894 103.242L180.12 129.988C181.943 126.202 181.897 120.7 179.787 117.212Z" fill="url(#paint2_linear_5121_6043)"/>
<path d="M27.1756 45.3758C25.0868 41.8825 25.0178 36.3809 26.8537 32.5977L1.68401 74.4838C-0.563942 78.2353 -0.563942 84.3539 1.68401 88.0929L42.363 155.778C44.6074 159.513 50.0247 162.584 54.3739 162.584H89.8088C94.1826 162.584 95.9194 159.517 93.6715 155.778L68.3497 113.663C68.2082 113.446 67.9783 113.259 67.8527 113.059L27.1756 45.3758Z" fill="url(#paint3_radial_5121_6043)"/>
<path d="M89.8104 0.00390625H54.3755C50.0264 0.00390625 44.609 3.05702 42.3646 6.80845L26.8535 32.6017C25.0176 36.3849 25.0866 41.8866 27.1754 45.3799L52.9959 88.097C50.748 84.3579 50.748 78.2376 52.9959 74.4879L78.1514 32.6353C78.2735 32.356 78.3371 32.0342 78.5016 31.7655L93.9402 6.06771C95.5178 2.68754 93.8747 0.00390625 89.8104 0.00390625Z" fill="url(#paint4_radial_5121_6043)"/>
<path d="M27.1758 45.376L52.9963 88.0931C50.7483 84.3541 50.7483 78.2337 52.9963 74.484L62.0854 59.3546L26.8556 32.5996C25.0198 36.3811 25.0888 41.8845 27.1758 45.376Z" fill="url(#paint5_linear_5121_6043)"/>
</g>
<defs>
<radialGradient id="paint0_radial_5121_6043" cx="0" cy="0" r="1" gradientUnits="userSpaceOnUse" gradientTransform="translate(150.83 -9.39586) scale(144.911 144.847)">
<stop stop-color="#0DA960"/>
<stop offset="1" stop-color="#03914B"/>
</radialGradient>
<radialGradient id="paint1_radial_5121_6043" cx="0" cy="0" r="1" gradientUnits="userSpaceOnUse" gradientTransform="translate(155.691 81.3927) scale(107.486 107.439)">
<stop stop-color="#FFCD4D"/>
<stop offset="1" stop-color="#F6C338"/>
</radialGradient>
<linearGradient id="paint2_linear_5121_6043" x1="189.663" y1="102.243" x2="143.907" y2="102.243" gradientUnits="userSpaceOnUse">
<stop stop-color="#231F20" stop-opacity="0.2"/>
<stop offset="1" stop-color="#F1F2F2" stop-opacity="0.25"/>
</linearGradient>
<radialGradient id="paint3_radial_5121_6043" cx="0" cy="0" r="1" gradientUnits="userSpaceOnUse" gradientTransform="translate(56.1407 171.986) rotate(180) scale(144.914 144.851)">
<stop stop-color="#4387FD"/>
<stop offset="1" stop-color="#4683EA"/>
</radialGradient>
<radialGradient id="paint4_radial_5121_6043" cx="0" cy="0" r="1" gradientUnits="userSpaceOnUse" gradientTransform="translate(51.2803 81.204) rotate(180) scale(107.484 107.437)">
<stop stop-color="#E04A3F"/>
<stop offset="1" stop-color="#CD372D"/>
</radialGradient>
<linearGradient id="paint5_linear_5121_6043" x1="17.3049" y1="60.3464" x2="63.0705" y2="60.3464" gradientUnits="userSpaceOnUse">
<stop stop-color="#231F20" stop-opacity="0.2"/>
<stop offset="1" stop-color="#F1F2F2" stop-opacity="0.25"/>
</linearGradient>
<clipPath id="clip0_5121_6043">
<rect width="794" height="180" fill="white"/>
</clipPath>
</defs>
</svg>
