<svg width="774" height="200" viewBox="0 0 774 200" fill="none" xmlns="http://www.w3.org/2000/svg">
<path d="M154.525 87.7383H164.425V138.001C164.425 151.313 158.588 160.438 144.95 160.438C140.914 160.502 136.898 159.872 133.075 158.576V149.001C136.334 150.266 139.804 150.902 143.3 150.876C151.663 150.876 154.55 145.876 154.55 138.663L154.525 87.7383Z" fill="#20385B"/>
<path d="M182.501 83.8868C183.806 83.8868 185.082 84.2739 186.167 84.9991C187.253 85.7244 188.099 86.7551 188.598 87.9611C189.098 89.1671 189.228 90.4942 188.974 91.7744C188.719 93.0547 188.09 94.2307 187.167 95.1538C186.244 96.0768 185.068 96.7054 183.788 96.96C182.508 97.2147 181.181 97.084 179.975 96.5844C178.769 96.0849 177.738 95.239 177.013 94.1536C176.288 93.0682 175.901 91.7922 175.901 90.4868C175.837 89.6039 175.965 88.7177 176.274 87.8883C176.583 87.0589 177.067 86.3057 177.693 85.6797C178.319 85.0538 179.073 84.5697 179.902 84.2604C180.731 83.9511 181.618 83.8237 182.501 83.8868ZM177.626 104.999H187.088V159.999H177.626V104.999Z" fill="#20385B"/>
<path d="M210.626 160H201.389V105H210.626V114.688C213.814 108.188 219.314 103.575 230.089 104.225V113.475C217.989 112.225 210.626 115.888 210.626 127.55V160Z" fill="#20385B"/>
<path d="M274.425 150.1C270.9 157.363 264.3 161.1 255.838 161.1C241.2 161.1 233.838 148.675 233.838 132.5C233.838 116.988 241.525 103.9 256.925 103.9C264.963 103.9 271.125 107.538 274.425 114.688V105H283.875V160H274.425V150.1ZM258.363 152.3C266.825 152.3 274.425 146.913 274.425 134.7V130.3C274.425 118.088 267.488 112.7 259.425 112.7C248.75 112.7 243.25 119.738 243.25 132.5C243.288 145.7 248.575 152.3 258.363 152.3Z" fill="#20385B"/>
<path d="M339.876 161.099C325.901 161.099 319.413 158.349 313.801 155.487V145.374C320.513 148.887 330.851 151.424 340.426 151.424C351.313 151.424 355.426 147.124 355.426 140.749C355.426 134.374 351.476 130.962 337.726 127.662C321.476 123.699 314.176 118.087 314.176 106.212C314.176 94.9617 322.763 86.6367 339.588 86.6367C350.038 86.6367 356.751 89.1367 361.701 91.9117V101.812C354.818 98.0233 347.055 96.1256 339.201 96.3117C329.738 96.3117 324.126 99.6117 324.126 106.212C324.126 112.149 328.751 115.124 341.513 118.312C356.801 122.162 365.376 127.062 365.376 140.087C365.276 152.624 357.801 161.099 339.876 161.099Z" fill="#20385B"/>
<path d="M373.638 132.388C373.638 115.888 383.325 103.9 399.825 103.9C416.325 103.9 425.775 115.888 425.775 132.388C425.775 148.888 416.213 161.138 399.825 161.138C383.438 161.138 373.638 148.888 373.638 132.388ZM382.875 132.388C382.875 142.838 388.05 152.3 399.825 152.3C411.6 152.3 416.538 142.838 416.538 132.388C416.538 121.938 411.475 112.7 399.825 112.7C388.175 112.7 382.875 121.938 382.875 132.388Z" fill="#20385B"/>
<path d="M449.862 105.002H464.062V113.752H449.862V160.002H440.625V113.752H431.725V105.002H440.625V98.9517C440.625 88.7267 446.35 81.7892 458.125 81.7892C460.285 81.7811 462.436 82.0799 464.512 82.6767V91.4267C462.555 91.0566 460.567 90.8725 458.575 90.8767C452.737 90.8767 449.825 94.2892 449.825 99.2392L449.862 105.002Z" fill="#20385B"/>
<path d="M496.063 151.088C498.066 151.03 500.059 150.774 502.013 150.325V159.45C499.936 160.042 497.785 160.337 495.625 160.325C483.863 160.325 478.125 153.4 478.125 143.175V113.75H469.213V105H478.125V93.3379H487.363V105H502V113.75H487.375V142.9C487.375 147.788 490.238 151.088 496.063 151.088Z" fill="#20385B"/>
<path d="M566.025 160L556.563 133.375L551.563 116.438L546.563 133.375L536.988 160H524.888L504.65 105H515.1L530.938 151.637L547 105H556.013L572.075 151.637L587.913 105H598.363L578.125 160H566.025Z" fill="#20385B"/>
<path d="M641.601 150.1C638.076 157.363 631.476 161.1 623.014 161.1C608.376 161.1 601.014 148.675 601.014 132.5C601.014 116.988 608.714 103.9 624.114 103.9C632.139 103.9 638.301 107.538 641.614 114.688V105H651.076V160H641.614L641.601 150.1ZM625.539 152.3C634.014 152.3 641.601 146.913 641.601 134.7V130.3C641.601 118.088 634.664 112.7 626.601 112.7C615.926 112.7 610.426 119.738 610.426 132.5C610.464 145.7 615.751 152.3 625.539 152.3Z" fill="#20385B"/>
<path d="M674.601 160H665.363V105H674.601V114.688C677.788 108.188 683.351 103.575 694.063 104.225V113.475C681.963 112.225 674.601 115.888 674.601 127.55V160Z" fill="#20385B"/>
<path d="M727.4 161.101C706.825 161.101 697.812 149.226 697.812 132.351C697.812 115.738 707.05 103.863 723.763 103.863C740.7 103.863 747.513 115.638 747.513 132.351V136.638H707.375C708.7 145.988 714.75 152.038 727.725 152.038C733.43 152.037 739.091 151.034 744.45 149.076V157.826C740 160.226 733 161.101 727.4 161.101ZM707.262 128.601H737.95C737.4 118.376 732.787 112.538 723.325 112.538C713.312 112.501 708.25 118.976 707.262 128.538V128.601Z" fill="#20385B"/>
<path d="M108.425 121.25L67.6754 80.5L63.7504 76.5L33.0504 107.175L19.0254 121.25C18.3232 121.953 17.9287 122.906 17.9287 123.9C17.9287 124.894 18.3232 125.847 19.0254 126.55L47.0504 154.575L63.7504 171.25L94.4254 140.575L94.9004 140.1L108.425 126.5C109.113 125.799 109.497 124.857 109.497 123.875C109.497 122.893 109.113 121.951 108.425 121.25ZM63.7504 137.85L49.7504 123.85L63.7504 109.85L77.7504 123.85L63.7504 137.85Z" fill="#0082FF"/>
<path d="M63.7504 109.851C59.3472 105.447 56.8653 99.48 56.8465 93.2526C56.8278 87.0253 59.2738 81.0434 63.6504 76.6133L33.0254 107.238L49.7004 123.913L63.7504 109.851Z" fill="url(#paint0_linear_5253_4430)"/>
<path d="M77.7625 123.812L63.75 137.85C65.9481 140.04 67.6922 142.643 68.8823 145.509C70.0724 148.374 70.685 151.447 70.685 154.55C70.685 157.653 70.0724 160.726 68.8823 163.591C67.6922 166.457 65.9481 169.06 63.75 171.25L94.4625 140.537L77.7625 123.812Z" fill="url(#paint1_linear_5253_4430)"/>
<path d="M266.075 52.1738C266.075 47.1738 262.888 44.9863 256.85 43.4238C253.1 42.4738 252.188 41.6613 252.188 40.3988C252.188 38.8988 253.513 38.1363 256 38.1363C259.052 38.2503 262.041 39.0401 264.75 40.4488V34.1988C262.091 32.9538 259.187 32.3175 256.25 32.3363C249.675 32.3363 246.025 35.4988 246.025 40.5863C246.025 45.4613 249.25 47.9488 254.775 49.1738C258.588 50.0238 259.775 50.6613 259.775 52.2988C259.775 53.5488 258.863 54.5738 256.025 54.5738C252.475 54.501 249.004 53.5105 245.95 51.6988V58.2988C249.052 59.8566 252.48 60.6536 255.95 60.6238C262.788 60.6238 266.075 57.2613 266.075 52.1738Z" fill="#0052CC"/>
<path d="M341.6 32.7371V60.2371H347.5V39.2871L350 44.8371L358.25 60.2246H365.6V32.7246H359.762V50.4746L357.5 45.3496L350.85 32.7371H341.6Z" fill="#0052CC"/>
<path d="M304.512 32.7363H298.112V60.2363H304.512V32.7363Z" fill="#0052CC"/>
<path d="M196.449 32.7363V60.2363H209.524L211.587 54.2863H202.837V32.7363H196.449Z" fill="#0052CC"/>
<path d="M170.537 32.7363V38.7488H177.625V60.2238H184.012V38.7488H191.612V32.7363H170.537Z" fill="#0052CC"/>
<path d="M161.25 32.7363H152.825L143.25 60.2363H150.562L151.925 55.5863C153.593 56.0802 155.323 56.3368 157.062 56.3488C158.804 56.3541 160.535 56.097 162.2 55.5863L163.563 60.2363H170.875L161.25 32.7363ZM157.013 50.6738C155.821 50.6628 154.635 50.4947 153.487 50.1738L157.013 38.1363L160.537 50.1738C159.382 50.5004 158.188 50.6686 156.987 50.6738H157.013Z" fill="#0052CC"/>
<path d="M232.176 32.7363H223.751L214.163 60.2363H221.476L222.838 55.5863C224.51 56.081 226.244 56.3377 227.988 56.3488C229.729 56.3541 231.461 56.097 233.126 55.5863L234.488 60.2363H241.801L232.176 32.7363ZM227.938 50.6738C226.746 50.6606 225.561 50.4926 224.413 50.1738L227.938 38.1363L231.476 50.1738C230.323 50.4936 229.134 50.6617 227.938 50.6738Z" fill="#0052CC"/>
<path d="M327.5 32.7363H319.075L309.5 60.2363H316.813L318.162 55.5863C319.835 56.0787 321.569 56.3354 323.312 56.3488C325.054 56.3541 326.786 56.097 328.45 55.5863L329.812 60.2363H337.125L327.5 32.7363ZM323.312 50.6738C322.121 50.6628 320.935 50.4947 319.787 50.1738L323.312 38.1363L326.837 50.1738C325.677 50.4936 324.479 50.6616 323.275 50.6738H323.312Z" fill="#0052CC"/>
<path d="M291.537 52.1747C291.537 47.1747 288.35 44.9872 282.313 43.4247C278.563 42.4747 277.65 41.6622 277.65 40.3997C277.65 38.8997 278.975 38.1372 281.4 38.1372C284.452 38.2511 287.44 39.041 290.15 40.4497V34.1997C287.46 32.9401 284.52 32.3034 281.55 32.3372C274.975 32.3372 271.325 35.4997 271.325 40.5872C271.325 45.4622 274.55 47.9497 280.075 49.1747C283.887 50.0247 285.075 50.6622 285.075 52.2997C285.075 53.5497 284.15 54.5747 281.325 54.5747C277.775 54.5018 274.304 53.5114 271.25 51.6997V58.2997C274.352 59.8575 277.779 60.6545 281.25 60.6247C288.25 60.6247 291.537 57.2622 291.537 52.1747Z" fill="#0052CC"/>
<defs>
<linearGradient id="paint0_linear_5253_4430" x1="61.2254" y1="95.6883" x2="41.6754" y2="115.238" gradientUnits="userSpaceOnUse">
<stop offset="0.18" stop-color="#0050D3"/>
<stop offset="1" stop-color="#0082FF"/>
</linearGradient>
<linearGradient id="paint1_linear_5253_4430" x1="66.4" y1="151.85" x2="85.9125" y2="132.337" gradientUnits="userSpaceOnUse">
<stop offset="0.18" stop-color="#0050D3"/>
<stop offset="1" stop-color="#0082FF"/>
</linearGradient>
</defs>
</svg>
