<svg width="784" height="258" viewBox="0 0 784 258" fill="none" xmlns="http://www.w3.org/2000/svg">
<path d="M341.18 83.8498L337.307 94.7562H337.073C336.368 92.1762 335.195 88.5407 333.434 83.9671L312.661 31.898H292.356V114.693H305.736V63.7962C305.736 60.6298 305.619 56.8771 305.501 52.538C305.501 50.3098 305.149 48.5507 305.149 47.2607H305.501C305.971 49.6062 306.675 52.0689 307.379 54.2971L332.261 114.693H341.65L366.414 53.7107C367.001 52.3034 367.588 49.6062 368.057 47.1434H368.292C367.94 53.1243 367.705 58.6362 367.705 62.0371V114.575H382.024V31.7807H362.541L341.18 83.8498ZM395.403 114.693H409.37V55.3525H395.403V114.693ZM402.562 30.1389C400.215 30.1389 398.22 30.9598 396.577 32.4843C394.934 34.0089 394.112 36.0025 394.112 38.348C394.112 40.5762 394.934 42.5698 396.577 44.0944C398.22 45.6189 400.215 46.3225 402.562 46.3225C404.91 46.3225 406.905 45.6189 408.548 44.0944C410.191 42.5698 411.013 40.6934 411.013 38.348C411.013 36.1198 410.191 34.2434 408.548 32.6016C407.022 30.9598 405.027 30.1389 402.562 30.1389ZM458.898 54.7662C456.316 54.1798 453.734 53.9453 451.034 53.9453C444.697 53.9453 438.946 55.3525 434.016 58.0498C429.204 60.7471 425.449 64.6171 422.867 69.5425C420.285 74.468 418.994 80.2143 418.994 86.5471C418.994 92.1762 420.285 97.2189 422.749 101.793C425.214 106.366 428.735 109.884 433.195 112.347C437.655 114.81 442.819 116.1 448.452 116.1C455.142 116.1 460.776 114.81 465.235 112.23L465.47 112.113V99.3298L464.883 99.7989C462.771 101.323 460.423 102.496 458.076 103.317C455.612 104.138 453.382 104.607 451.386 104.607C445.87 104.607 441.528 102.848 438.359 99.5643C435.19 96.1634 433.547 91.4725 433.547 85.4916C433.547 79.5107 435.19 74.5853 438.594 70.9498C441.88 67.3144 446.34 65.5553 451.621 65.5553C456.198 65.5553 460.658 67.0798 464.883 70.1289L465.47 70.598V57.1116L465.235 56.9944C463.71 56.0562 461.48 55.3525 458.898 54.7662ZM504.905 54.2971C501.384 54.2971 498.215 55.4698 495.516 57.5807C493.168 59.5744 491.408 62.1543 490.117 65.5553H490V55.3525H476.033V114.693H490V84.3189C490 79.1589 491.173 74.9371 493.521 71.7707C495.75 68.6043 498.802 66.9625 502.558 66.9625C503.849 66.9625 505.257 67.1971 506.783 67.5489C508.309 67.9007 509.365 68.3698 510.069 68.8389L510.656 69.308V55.2353L510.421 55.118C509.013 54.6489 507.135 54.2971 504.905 54.2971ZM553.964 99.5643C551.382 102.848 547.391 104.49 542.227 104.49C537.063 104.49 533.073 102.848 530.256 99.4471C527.322 96.0462 525.913 91.238 525.913 85.1398C525.913 78.8071 527.322 73.8816 530.256 70.4807C533.073 67.0798 537.063 65.3207 542.11 65.3207C547.039 65.3207 550.912 66.9625 553.729 70.2462C556.546 73.5298 557.954 78.4552 557.954 84.788C557.837 91.3552 556.546 96.2807 553.964 99.5643ZM542.814 53.9453C533.073 53.9453 525.326 56.8771 519.693 62.5062C514.177 68.1353 511.36 75.9925 511.36 85.7262C511.36 94.9907 514.059 102.496 519.458 107.891C524.857 113.285 532.251 116.1 541.288 116.1C550.795 116.1 558.423 113.168 563.94 107.422C569.456 101.675 572.273 93.9353 572.273 84.4362C572.273 75.0544 569.691 67.4316 564.409 62.0371C559.362 56.6425 551.968 53.9453 542.814 53.9453ZM603.374 79.8625C598.914 78.1035 596.098 76.5789 595.041 75.5234C593.868 74.468 593.398 72.9434 593.398 70.9498C593.398 69.1907 594.103 67.9007 595.511 66.728C596.919 65.5553 598.915 65.0862 601.497 65.0862C603.844 65.0862 606.308 65.438 608.656 66.1416C611.003 66.8453 613.116 67.7834 614.876 69.0734L615.463 69.4253V56.5253L615.228 56.408C613.703 55.7044 611.473 55.118 608.891 54.6489C606.309 54.1798 603.961 53.9453 601.966 53.9453C595.276 53.9453 589.76 55.7044 585.652 58.988C581.427 62.3889 579.197 66.8453 579.197 72.1225C579.197 74.9371 579.667 77.3998 580.606 79.5107C581.544 81.6216 582.953 83.498 584.831 85.0225C586.709 86.5471 589.525 88.1889 593.398 89.8307C596.567 91.1207 599.032 92.2934 600.558 93.1143C602.083 93.9353 603.14 94.8735 603.727 95.6944C604.313 96.5153 604.665 97.688 604.665 99.0953C604.665 103.083 601.731 105.076 595.511 105.076C593.164 105.076 590.582 104.607 587.765 103.669C584.948 102.731 582.249 101.441 579.901 99.6816L579.314 99.2125V112.816L579.549 112.933C581.544 113.872 584.127 114.693 587.061 115.279C589.995 115.865 592.694 116.217 595.041 116.217C602.318 116.217 608.069 114.458 612.294 111.174C616.637 107.773 618.749 103.2 618.749 97.688C618.749 93.7007 617.576 90.2998 615.228 87.4853C612.764 84.5535 608.891 82.0907 603.374 79.8625ZM667.221 99.5643C664.639 102.848 660.649 104.49 655.485 104.49C650.32 104.49 646.33 102.848 643.396 99.4471C640.462 96.0462 639.053 91.238 639.053 85.1398C639.053 78.8071 640.462 73.8816 643.396 70.4807C646.213 67.0798 650.203 65.3207 655.25 65.3207C660.179 65.3207 664.052 66.9625 666.869 70.2462C669.686 73.5298 671.094 78.4552 671.094 84.788C671.211 91.3552 669.803 96.2807 667.221 99.5643ZM656.071 53.9453C646.33 53.9453 638.467 56.8771 632.95 62.5062C627.434 68.1353 624.618 75.9925 624.618 85.7262C624.618 94.9907 627.317 102.496 632.716 107.891C638.114 113.285 645.509 116.1 654.546 116.1C664.052 116.1 671.681 113.168 677.197 107.422C682.713 101.675 685.53 93.9353 685.53 84.4362C685.53 75.0544 682.948 67.4316 677.667 62.0371C672.62 56.6425 665.343 53.9453 656.071 53.9453ZM760.174 66.728V55.3525H746.091V37.6444L745.621 37.7616L732.359 41.8662L732.124 41.9834V55.3525H711.233V47.8471C711.233 44.3289 712.055 41.7489 713.58 39.9898C715.106 38.2307 717.336 37.4098 720.035 37.4098C722.031 37.4098 724.143 37.8789 726.138 38.8171L726.608 39.0516V26.9725L726.373 26.8553C724.495 26.1516 721.796 25.7998 718.51 25.7998C714.402 25.7998 710.646 26.738 707.36 28.4971C704.074 30.2562 701.492 32.8362 699.731 36.0025C697.971 39.1689 697.032 42.9216 697.032 47.0262V55.2353H687.173V66.6107H697.032V114.575H711.116V66.6107H732.124V97.1016C732.124 109.65 737.992 115.983 749.729 115.983C751.607 115.983 753.719 115.748 755.715 115.279C757.827 114.81 759.235 114.341 760.057 113.872L760.292 113.754V102.262L759.705 102.613C758.883 103.083 757.944 103.552 756.888 103.786C755.715 104.138 754.776 104.255 754.071 104.255C751.372 104.255 749.259 103.552 748.086 102.027C746.795 100.503 746.208 98.0398 746.208 94.4044V66.3762L760.174 66.728Z" fill="#706D6E"/>
<path d="M128.515 125.365H35.21V32.1328H128.398L128.515 125.365Z" fill="#F1511B"/>
<path d="M231.445 125.365H138.14V32.1328H231.445V125.365Z" fill="#80CC28"/>
<path d="M128.515 228.212H35.21V134.98H128.398L128.515 228.212Z" fill="#00ADEF"/>
<path d="M231.445 228.212H138.14V134.98H231.445V228.212Z" fill="#FBBC09"/>
<path d="M338.952 194.908L327.333 161.603C326.981 160.547 326.629 158.788 326.277 156.325H326.042C325.69 158.553 325.338 160.313 324.868 161.603L313.366 194.908H338.952ZM365.242 227.51H350.102L342.59 206.283H309.728L302.569 227.51H287.429L318.648 144.129H334.257L365.242 227.51ZM416.883 173.564L384.725 216.955H416.765V227.51H365.829V222.467L398.691 178.49H368.998V167.935H417L416.883 173.564ZM477.795 227.51H464.298V218.128H464.063C460.19 225.399 454.087 228.917 445.754 228.917C431.671 228.917 424.629 220.473 424.629 203.586V167.935H438.126V202.179C438.126 212.851 442.234 218.245 450.566 218.245C454.557 218.245 457.843 216.721 460.425 213.789C463.007 210.857 464.298 206.987 464.298 202.179V167.935H477.795V227.51ZM527.558 180.718C525.915 179.428 523.568 178.842 520.516 178.842C516.526 178.842 513.24 180.601 510.54 184.236C507.841 187.872 506.55 192.797 506.55 198.895V227.51H493.053V167.935H506.55V180.249H506.784C508.075 176.027 510.188 172.743 512.887 170.398C515.587 168.053 518.638 166.88 522.042 166.88C524.507 166.88 526.384 167.232 527.675 167.935V180.718H527.558ZM571.101 191.859C571.101 187.051 569.927 183.181 567.697 180.601C565.467 177.903 562.298 176.613 558.425 176.613C554.552 176.613 551.266 178.021 548.566 180.835C545.867 183.65 544.224 187.403 543.637 191.976L571.101 191.859ZM584.128 201.358H543.52C543.637 206.87 545.398 211.092 548.566 214.141C551.853 217.073 556.313 218.597 561.946 218.597C568.284 218.597 574.152 216.721 579.434 212.851V223.757C574.035 227.158 566.875 228.917 557.956 228.917C549.153 228.917 542.346 226.22 537.299 220.825C532.37 215.431 529.788 207.808 529.788 197.957C529.788 188.693 532.487 181.187 538.004 175.323C543.52 169.46 550.327 166.528 558.425 166.528C566.523 166.528 572.861 169.108 577.321 174.385C581.781 179.663 584.011 186.933 584.011 196.198V201.358H584.128Z" fill="#706D6E"/>
</svg>
