<svg width="763" height="288" viewBox="0 0 763 288" fill="none" xmlns="http://www.w3.org/2000/svg">
<path d="M345.245 192.713V122.135H346.489L397.333 192.713H413.333V89.0687H395.556V159.469H394.311L343.467 89.0687H327.467V192.713H345.245ZM463.645 194.313C487.111 194.313 501.511 179.024 501.511 153.424C501.511 128.002 487.111 112.535 463.645 112.535C440.356 112.535 425.778 128.002 425.778 153.424C425.956 179.024 440.178 194.313 463.645 194.313ZM463.645 179.38C451.2 179.38 444.089 169.958 444.089 153.424C444.089 137.069 451.2 127.469 463.645 127.469C476.089 127.469 483.2 137.069 483.2 153.424C483.2 169.958 476.089 179.38 463.645 179.38ZM517.689 94.9354V114.669H505.245V128.891H517.689V171.735C517.689 187.024 524.8 193.069 542.933 193.069C546.311 193.069 549.689 192.713 552.356 192.18V178.313C550.222 178.491 548.8 178.669 546.311 178.669C538.845 178.669 535.467 175.291 535.467 167.469V128.891H552.356V114.669H535.467V94.9354H517.689ZM563.022 192.713H580.8V114.135H563.022V192.713ZM571.911 101.158C577.778 101.158 582.578 96.3576 582.578 90.4909C582.578 84.4465 577.778 79.6465 571.911 79.6465C566.045 79.6465 561.245 84.4465 561.245 90.4909C561.245 96.3576 566.045 101.158 571.911 101.158ZM629.511 194.313C652.978 194.313 667.378 179.024 667.378 153.424C667.378 128.002 652.978 112.535 629.511 112.535C606.222 112.535 591.645 128.002 591.645 153.424C591.645 179.024 605.867 194.313 629.511 194.313ZM629.511 179.38C617.067 179.38 609.956 169.958 609.956 153.424C609.956 137.069 617.067 127.469 629.511 127.469C641.778 127.469 649.067 137.069 649.067 153.424C648.889 169.958 641.778 179.38 629.511 179.38ZM677.867 192.713H695.645V147.024C695.645 135.469 702.4 128.18 712.889 128.18C723.733 128.18 728.711 134.224 728.711 146.135V192.713H746.489V141.869C746.489 123.024 736.889 112.535 719.467 112.535C707.733 112.535 699.911 117.869 696.178 126.758H694.933V114.135H677.689C677.867 114.135 677.867 192.713 677.867 192.713Z" fill="black"/>
<path fill-rule="evenodd" clip-rule="evenodd" d="M55.1104 57.065C63.466 63.8205 66.4882 63.2872 82.1326 62.2205L229.51 53.3316C232.71 53.3316 230.044 50.1316 228.977 49.7761L204.444 32.1761C199.822 28.6205 193.422 24.3538 181.51 25.4205L38.9326 35.9094C33.7771 36.4427 32.7104 39.1094 34.8438 41.065L55.1104 57.065ZM63.9993 91.376V246.398C63.9993 254.754 68.0882 257.776 77.5104 257.243L239.466 247.82C248.888 247.287 249.955 241.598 249.955 234.843V80.8872C249.955 74.1316 247.288 70.3983 241.599 70.9316L72.3549 80.8872C66.1326 81.4205 63.9993 84.6205 63.9993 91.376ZM223.822 99.7316C224.888 104.354 223.822 109.154 219.199 109.687L211.377 111.287V225.776C204.622 229.332 198.399 231.465 193.066 231.465C184.71 231.465 182.577 228.798 176.355 220.976L125.333 140.798V218.309L141.51 221.865C141.51 221.865 141.51 231.287 128.533 231.287L92.6215 233.42C91.5549 231.287 92.6215 226.132 96.1771 225.065L105.599 222.398V119.998L92.6215 118.932C91.5549 114.309 94.2215 107.554 101.51 107.02L140.088 104.354L193.244 185.42V113.776L179.733 112.176C178.666 106.487 182.933 102.22 188.088 101.687L223.822 99.7316ZM27.0215 21.6872L175.466 10.8427C193.599 9.24272 198.399 10.3094 209.777 18.6649L257.066 51.9094C264.888 57.5983 267.555 59.1983 267.555 65.4205V247.998C267.555 259.376 263.466 266.132 248.888 267.198L76.6215 277.687C65.5993 278.22 60.4438 276.62 54.7549 269.332L19.7326 223.998C13.5104 215.643 10.8438 209.42 10.8438 202.132V39.8205C10.8438 30.3983 15.1104 22.7538 27.0215 21.6872Z" fill="black"/>
</svg>
