<svg width="171" height="68" viewBox="0 0 171 68" fill="none" xmlns="http://www.w3.org/2000/svg">
<g clip-path="url(#clip0_5294_6059)">
<mask id="mask0_5294_6059" style="mask-type:luminance" maskUnits="userSpaceOnUse" x="-19" y="-37" width="209" height="142">
<path d="M-19 -36.9998H189.939V104.992H-19V-36.9998Z" fill="white"/>
</mask>
<g mask="url(#mask0_5294_6059)">
<path fill-rule="evenodd" clip-rule="evenodd" d="M104.95 52.7914C105.628 52.9634 106.37 53.5767 106.67 54.2114C107.374 55.706 106.667 57.4287 105.12 57.9847C104.65 58.1527 103.792 58.17 103.306 58.0194C102.475 57.7634 101.76 57.05 101.511 56.23C101.408 55.8887 101.386 55.6874 101.407 55.254C101.43 54.778 101.463 54.6487 101.659 54.2487C102.26 53.034 103.588 52.4447 104.95 52.7914ZM148.046 52.1114C148.398 52.2007 148.607 52.3194 148.923 52.6114C149.228 52.8927 149.404 53.1927 149.49 53.578L149.547 53.83H147.266C144.694 53.83 144.899 53.8807 145.118 53.298C145.492 52.294 146.75 51.7847 148.046 52.1114ZM74.6229 55.4074V62.2394H77.1269H79.6323V55.4074V48.5754H77.1269H74.6229V55.4074ZM146.042 48.2994C142.224 48.97 139.728 52.2954 140.096 56.2207C140.228 57.606 140.588 58.69 141.255 59.694C142.206 61.1234 143.634 62.0447 145.542 62.4647C146.364 62.6447 148.49 62.6274 149.375 62.434C150.755 62.134 151.975 61.4927 152.859 60.6087C153.27 60.1954 153.943 59.3034 153.883 59.2474C153.868 59.234 152.912 58.8594 151.755 58.414L149.652 57.6047L149.344 57.9194C148.962 58.3087 148.647 58.4954 148.172 58.6194C146.699 59.002 145.231 58.2314 144.991 56.9514L144.939 56.6754L149.646 56.6594L154.354 56.6447L154.35 55.4994C154.347 54.6434 154.318 54.2247 154.235 53.834C153.906 52.2927 153.295 51.1194 152.316 50.1514C151.383 49.2234 150.332 48.67 148.912 48.3554C148.286 48.2154 146.692 48.186 146.042 48.2994ZM134.66 48.2994C132.454 48.6487 130.652 49.8287 129.578 51.6354C129.255 52.1767 129.003 52.8074 128.808 53.5647C128.648 54.1767 128.635 54.3274 128.634 55.3754C128.632 56.614 128.688 57.0287 128.978 57.9207C129.73 60.2487 131.632 61.9127 134.166 62.4634C134.575 62.5527 134.951 62.578 135.866 62.578C137.176 62.5767 137.684 62.4874 138.647 62.0954L139.143 61.8927L139.159 59.5967L139.175 57.3007L138.756 57.5447C138.151 57.9007 137.648 58.0434 136.884 58.0807C136.099 58.118 135.675 58.0407 135.1 57.7527C134.576 57.4887 134.163 57.0607 133.899 56.5034C133.715 56.1167 133.702 56.042 133.703 55.438C133.704 54.9074 133.731 54.7234 133.847 54.4327C134.255 53.41 135.218 52.798 136.515 52.734C137.436 52.69 137.811 52.7914 139.127 53.446C139.152 53.4594 139.174 52.4407 139.174 51.1834V48.8967L138.779 48.7394C137.575 48.258 135.994 48.0887 134.66 48.2994ZM121.459 48.3034C120.583 48.4847 119.57 49.11 119.046 49.7967L118.831 50.0767V49.3247V48.574L116.311 48.59L113.792 48.606L113.776 55.4234L113.76 62.2394H116.296H118.831L118.832 58.3594C118.832 54.258 118.839 54.1714 119.126 53.614C119.395 53.0927 119.915 52.7834 120.526 52.7807C121.059 52.778 121.356 52.89 121.682 53.2127C122.219 53.7487 122.198 53.55 122.218 58.174L122.236 62.2394H124.742H127.246L127.224 57.2767C127.204 52.3714 127.202 52.31 127.066 51.79C126.99 51.5007 126.79 50.9794 126.619 50.6314C126.363 50.1047 126.23 49.9167 125.831 49.518C125.311 48.998 124.872 48.7074 124.3 48.506C123.439 48.2047 122.327 48.1247 121.459 48.3034ZM102.044 48.2487C101.238 48.3607 100.03 48.8394 99.3963 49.298C97.9456 50.3487 96.9403 52.006 96.5896 53.9234C96.4496 54.686 96.4536 56.21 96.5963 56.9447C96.8389 58.1914 97.3109 59.286 97.9963 60.1874C98.9029 61.3807 100.19 62.2007 101.631 62.498C102.411 62.6594 103.724 62.6287 104.395 62.43C105.16 62.206 105.792 61.85 106.338 61.3354L106.836 60.866V61.5527V62.2394H109.311H111.783V55.4074V48.5754H109.311H106.836V49.282V49.9887L106.512 49.6447C105.866 48.954 104.94 48.4807 103.887 48.2967C103.398 48.21 102.484 48.1874 102.044 48.2487ZM89.4003 48.294C88.3616 48.5167 87.5123 49.0274 86.9616 49.7594L86.6803 50.1327V49.354V48.5754H84.1763H81.6723V55.4074V62.2394H84.1763H86.6803V58.514C86.6816 56.374 86.7056 54.6314 86.7416 54.418C86.8216 53.9247 87.1216 53.3287 87.3936 53.122C88.1149 52.5714 89.2576 52.702 89.7336 53.3874C90.1096 53.93 90.1029 53.8594 90.1283 58.2354L90.1496 62.2394H92.6496H95.1509V57.7554C95.1509 52.998 95.1256 52.4527 94.8656 51.5527C94.6149 50.6927 94.2736 50.106 93.6683 49.498C93.0789 48.9074 92.5803 48.6087 91.8109 48.3887C91.2109 48.218 89.9789 48.1687 89.4003 48.294ZM69.1509 42.082C66.8656 42.5407 65.3629 43.99 64.7883 46.2954C64.7043 46.6367 64.6483 47.1127 64.6243 47.694L64.5896 48.5754H63.6709H62.7509L62.7669 50.5994L62.7829 52.6247L63.6949 52.642L64.6069 52.658V57.4487V62.2394H67.0803H69.5536V57.4487V52.6567L71.2376 52.642L72.9229 52.6247L72.9389 50.5994L72.9549 48.5754H71.2509H69.5456L69.5883 48.1274C69.6843 47.1327 70.0789 46.5794 70.8656 46.3407C71.3963 46.1794 72.1563 46.2074 72.7323 46.4074C72.9323 46.478 73.1069 46.5354 73.1176 46.5354C73.1296 46.5354 73.1403 45.6047 73.1403 44.4674V42.4007L72.7843 42.2674C72.1856 42.042 71.5856 41.9594 70.6149 41.9647C70.0056 41.9687 69.5243 42.006 69.1509 42.082ZM76.2789 41.9514C74.5629 42.5194 73.8056 44.4607 74.7029 45.9914C74.9376 46.3914 75.4976 46.886 75.9683 47.1087C76.3656 47.298 76.4216 47.3074 77.1269 47.3074C77.8363 47.3074 77.8896 47.298 78.2909 47.1074C78.8309 46.8514 79.4189 46.274 79.6589 45.7647C80.3123 44.3754 79.7189 42.7767 78.2976 42.1007C77.8763 41.902 77.7629 41.8754 77.2296 41.8567C76.7656 41.8394 76.5549 41.8607 76.2789 41.9514ZM146.563 28.8927C144.09 29.202 142.139 30.97 141.6 33.3874C141.452 34.058 141.468 35.2407 141.635 35.9194C142.151 38.01 143.771 39.5767 145.864 40.006C146.131 40.0607 146.643 40.1034 147.026 40.1034C148.643 40.1034 149.912 39.5794 151.05 38.4407C152.196 37.2954 152.714 36.0354 152.714 34.3914C152.714 32.3727 151.795 30.6994 150.12 29.6687C149.128 29.058 147.712 28.7487 146.563 28.8927ZM128.478 22.9407C130.07 23.226 131.382 24.2807 131.976 25.75C132.256 26.4474 132.334 26.8607 132.334 27.6767C132.334 28.5767 132.231 29.0594 131.88 29.81C131.292 31.0687 130.207 31.9794 128.848 32.354C128.291 32.5087 126.88 32.5074 126.312 32.3527C124.667 31.9034 123.41 30.6234 122.968 28.9447C122.784 28.2514 122.784 27.0994 122.967 26.4167C123.536 24.278 125.343 22.878 127.55 22.862C127.806 22.8594 128.222 22.8954 128.478 22.9407ZM101.335 22.9407C103.195 23.2727 104.624 24.646 105.083 26.5407C105.234 27.162 105.218 28.3047 105.05 28.9447C104.61 30.6207 103.351 31.9034 101.704 32.3527C101.138 32.5074 99.7269 32.5087 99.1696 32.354C97.8109 31.9794 96.7256 31.0687 96.1376 29.81C95.7869 29.0594 95.6843 28.5767 95.6843 27.6767C95.6843 26.8607 95.7603 26.4474 96.0416 25.75C96.3803 24.9114 97.0216 24.1274 97.7749 23.63C98.7563 22.982 100.104 22.722 101.335 22.9407ZM48.2203 22.9234C49.9296 23.3154 51.2923 24.658 51.7549 26.4087C51.9389 27.1034 51.9389 28.2514 51.7549 28.9447C51.2923 30.686 49.9896 31.9874 48.2536 32.4447C47.5616 32.626 46.4123 32.626 45.7189 32.446C44.2229 32.054 42.9429 30.9514 42.3936 29.5794C41.7896 28.0714 41.9763 26.1807 42.8523 24.914C44.0523 23.1807 46.0723 22.4327 48.2203 22.9234ZM6.36426 15.6527C6.36426 15.6714 8.66426 21.1167 11.4749 27.7527C14.2856 34.3887 16.5856 39.8474 16.5829 39.8834C16.5816 39.9207 15.7563 41.894 14.7496 44.27C13.7416 46.6487 12.9176 48.602 12.9176 48.6154C12.9176 48.6274 14.9549 48.6314 17.4456 48.622L21.9736 48.606L28.7869 32.19C32.5336 23.162 35.6016 15.7394 35.6043 15.6967C35.6083 15.6354 34.6923 15.622 31.1176 15.6354L26.6283 15.6514L23.8683 22.6474C22.3509 26.4954 21.0963 29.63 21.0789 29.614C21.0616 29.5967 19.8229 26.4487 18.3256 22.618L15.6016 15.6514L10.9829 15.6354C8.44293 15.626 6.36426 15.634 6.36426 15.6527ZM125.666 15.1674C123.366 15.4767 121.183 16.3914 119.358 17.814C118.72 18.31 117.543 19.5354 117.075 20.19C115.907 21.822 115.144 23.734 114.839 25.7914C114.694 26.7807 114.692 28.55 114.836 29.5554C115.608 34.902 119.479 38.9834 124.776 40.0367C125.783 40.2354 126.38 40.29 127.588 40.29C129.902 40.29 131.876 39.834 133.764 38.8647C138.763 36.2954 141.335 30.7527 140.188 25.018C139.13 19.7247 134.922 15.8847 129.382 15.158C128.47 15.0394 126.59 15.0434 125.666 15.1674ZM98.5229 15.1674C96.1936 15.4807 93.8336 16.482 92.0949 17.8994C88.6989 20.6647 87.0403 25.1034 87.7043 29.6527C88.4363 34.6807 92.0016 38.6154 96.9749 39.8874C98.0909 40.1727 99.0909 40.29 100.428 40.29C102.763 40.29 104.532 39.89 106.479 38.9247C110.146 37.1047 112.583 33.6994 113.182 29.5554C113.326 28.55 113.324 26.7807 113.178 25.7914C112.874 23.734 112.111 21.822 110.943 20.19C110.475 19.5354 109.298 18.31 108.66 17.814C106.804 16.3674 104.635 15.4674 102.271 15.162C101.319 15.0394 99.4589 15.042 98.5229 15.1674ZM44.0483 15.102C42.1669 15.3794 40.7349 15.9087 39.3109 16.85C36.4389 18.7487 34.4803 21.9607 33.9349 25.6634C33.6829 27.3714 33.7909 29.526 34.2096 31.1807C35.2629 35.3354 38.0549 38.514 41.7243 39.7354C43.0629 40.1807 43.5483 40.254 45.1923 40.2567C46.3843 40.2594 46.7403 40.238 47.1709 40.1447C48.8949 39.7674 50.1616 39.1127 51.2056 38.0594L51.7469 37.514V38.594V39.6714H55.8589H59.9696V27.646V15.6207H55.8589H51.7469V16.7274V17.8354L51.3603 17.43C50.3709 16.3914 49.0323 15.6674 47.3563 15.2687C46.7989 15.1354 46.5323 15.1114 45.4709 15.094C44.7909 15.0834 44.1509 15.0874 44.0483 15.102ZM153.459 5.24736C153.227 5.77936 144.554 26.75 144.554 26.7807C144.554 26.798 146.826 26.8047 149.603 26.7954L154.655 26.7807L159.152 15.9287C161.627 9.9607 163.651 5.0567 163.654 5.03137C163.655 5.00603 161.39 4.98603 158.616 4.98603H153.574L153.459 5.24736ZM62.7523 22.3287V39.6714H67.0189H71.2843V33.0607C71.2843 28.69 71.3069 26.2847 71.3509 25.9647C71.4443 25.2847 71.6789 24.6287 72.0029 24.142C72.5869 23.2634 73.4323 22.8674 74.5856 22.9314C76.0749 23.014 76.9523 23.8967 77.2176 25.574C77.2576 25.8314 77.2816 28.45 77.2816 32.8234L77.2829 39.6714H81.5483H85.8149V31.6807C85.8149 24.9434 85.8003 23.562 85.7216 22.8887C85.4416 20.4927 84.6269 18.638 83.2496 17.2554C82.0629 16.0634 80.5949 15.3607 78.7843 15.1207C78.0789 15.026 76.2976 15.082 75.6749 15.2194C74.1336 15.5554 72.9216 16.2114 71.8256 17.302L71.2229 17.902V11.4434V4.98603H66.9869H62.7523V22.3287Z" fill="black"/>
</g>
</g>
<defs>
<clipPath id="clip0_5294_6059">
<rect width="171" height="68" fill="white"/>
</clipPath>
</defs>
</svg>
