<?xml version="1.0" standalone="no"?>
<!DOCTYPE svg PUBLIC "-//W3C//DTD SVG 20010904//EN"
 "http://www.w3.org/TR/2001/REC-SVG-20010904/DTD/svg10.dtd">
<svg version="1.0" xmlns="http://www.w3.org/2000/svg"
 width="320.000000pt" height="320.000000pt" viewBox="0 0 320.000000 320.000000"
 preserveAspectRatio="xMidYMid meet">
<metadata>
Created by potrace 1.14, written by Peter Selinger 2001-2017
</metadata>
<g transform="translate(0.000000,320.000000) scale(0.100000,-0.100000)"
fill="#000000" stroke="none">
<path d="M1556 3153 c-14 -27 -41 -73 -59 -104 -17 -31 -106 -184 -195 -340
-90 -156 -168 -291 -173 -299 -9 -16 -61 -106 -89 -155 -15 -27 -145 -253
-428 -745 -52 -91 -109 -190 -127 -220 -18 -30 -44 -75 -57 -100 -14 -25 -58
-101 -98 -170 -39 -69 -78 -137 -86 -151 l-13 -27 110 -62 c92 -51 113 -60
124 -48 6 7 118 200 247 428 130 228 320 561 423 740 103 179 195 339 205 355
9 17 50 87 90 155 40 69 96 166 125 215 29 50 84 144 123 210 l70 119 -81 121
c-44 66 -81 121 -82 123 -1 1 -14 -19 -29 -45z"/>
<path d="M1221 3109 c-125 -32 -332 -111 -370 -140 -13 -11 -28 -19 -33 -19
-12 0 -106 -61 -178 -116 -69 -52 -180 -160 -245 -239 -28 -33 -52 -62 -56
-65 -3 -3 -29 -41 -58 -85 -104 -157 -191 -366 -226 -544 -8 -42 -18 -89 -21
-106 -10 -50 -13 -336 -3 -395 5 -30 11 -71 14 -90 3 -19 7 -42 10 -50 2 -8 6
-27 9 -42 10 -61 58 -200 66 -192 4 5 30 45 57 89 l49 80 -17 85 c-98 470 38
938 376 1294 134 142 377 291 563 346 69 20 75 24 106 73 56 90 87 147 79 146
-4 0 -60 -14 -122 -30z"/>
<path d="M1852 3134 c2 -5 28 -50 57 -99 l52 -90 82 -26 c285 -92 551 -292
717 -541 101 -151 181 -334 214 -495 8 -38 18 -82 22 -98 3 -17 8 -97 10 -180
3 -158 -2 -207 -37 -364 -9 -41 -8 -47 33 -114 76 -127 70 -127 107 4 48 174
63 278 64 434 1 153 -4 205 -33 340 -70 337 -249 638 -524 883 -159 141 -428
273 -666 328 -36 8 -73 17 -84 21 -10 3 -16 1 -14 -3z"/>
<path d="M1759 2743 c-18 -32 -39 -68 -45 -80 -25 -45 -127 -219 -164 -278
-20 -33 -39 -65 -41 -71 -2 -5 -78 -137 -169 -292 -91 -156 -173 -297 -184
-315 -10 -17 -130 -223 -266 -457 -136 -234 -257 -442 -269 -463 -12 -21 -29
-49 -37 -63 -9 -13 -14 -24 -11 -24 2 0 40 19 83 43 44 24 120 65 169 92 172
93 167 88 197 144 51 94 775 1294 781 1295 4 1 17 -15 29 -35 l21 -37 -128
-223 c-71 -123 -138 -242 -150 -264 -13 -22 -57 -101 -100 -175 -43 -74 -89
-155 -103 -180 -13 -25 -42 -74 -62 -110 -60 -103 -101 -180 -97 -180 2 0 95
53 206 118 l203 119 263 453 264 453 -19 28 c-11 15 -20 29 -20 32 0 8 -291
501 -305 515 -10 11 -18 3 -46 -45z"/>
<path d="M2197 2059 c-47 -74 -257 -433 -257 -440 0 -5 -4 -9 -10 -9 -5 0 -10
-5 -10 -10 0 -6 -11 -27 -24 -48 -50 -78 -186 -313 -186 -321 0 -14 202 -133
211 -124 8 8 149 259 223 398 62 115 109 200 126 230 42 72 70 126 70 135 0
10 -104 185 -121 204 -4 4 -14 -2 -22 -15z"/>
<path d="M2496 1403 c-1 -1 -39 -3 -84 -4 -81 -2 -82 -2 -69 -23 8 -12 64
-103 126 -204 80 -131 105 -179 89 -171 -13 7 -99 56 -193 109 -188 107 -236
133 -239 128 -15 -19 -107 -190 -105 -192 2 -2 158 -91 346 -199 l342 -195
126 76 c69 42 125 80 125 85 0 4 -79 140 -177 301 l-176 292 -54 0 c-30 -1
-55 -2 -57 -3z"/>
<path d="M370 575 c0 -15 175 -183 255 -247 184 -144 406 -247 630 -292 44 -8
94 -18 110 -22 17 -3 107 -7 200 -9 130 -2 195 2 275 16 259 45 484 140 685
289 81 60 231 202 265 250 l18 26 -103 2 -104 2 -73 -66 c-324 -293 -792 -417
-1236 -328 -242 49 -513 192 -674 356 -25 25 -32 27 -137 30 -70 2 -111 -1
-111 -7z"/>
</g>
</svg>
