<svg width="30" height="23" viewBox="0 0 30 23" fill="none" xmlns="http://www.w3.org/2000/svg">
<g clip-path="url(#clip0_4056_7339)">
<path d="M0 0H30V22.5H0V0Z" fill="#DE2910"/>
<path d="M3.59998 8.325L5.62496 2.25L7.64993 8.325L2.25 4.6125H8.99992L3.59998 8.325Z" fill="#FFDE00"/>
<path d="M12.3829 2.36613L10.299 2.82795L11.689 1.20811L11.5527 3.3882L10.3962 1.45816L12.3829 2.36613Z" fill="#FFDE00"/>
<path d="M14.4862 5.03152L12.3862 4.64895L14.2957 3.69502L13.3245 5.6516L13.0071 3.4241L14.4862 5.03152Z" fill="#FFDE00"/>
<path d="M14.1798 8.77161L12.4185 7.56583L14.551 7.47365L12.8663 8.864L13.4849 6.70073L14.1798 8.77161Z" fill="#FFDE00"/>
<path d="M11.5307 11.2141L10.3718 9.42157L12.3744 10.1602L10.2835 10.792L11.6896 9.03551L11.5307 11.2141Z" fill="#FFDE00"/>
</g>
<defs>
<clipPath id="clip0_4056_7339">
<rect width="30" height="22.5" fill="white"/>
</clipPath>
</defs>
</svg>
