<svg width="30" height="23" viewBox="0 0 30 23" fill="none" xmlns="http://www.w3.org/2000/svg">
<g clip-path="url(#clip0_4056_7507)">
<path d="M0 0H30V11.25H0V0Z" fill="#0038A8"/>
<path d="M0 11.25H30V22.5H0V11.25Z" fill="#CE1126"/>
<path d="M19.4859 11.25L0 22.5V0" fill="white"/>
<path d="M1.25156 1.9873L1.92188 2.57793L2.7 2.14668L2.35313 2.96699L3.00937 3.57637L2.11875 3.50137L1.73906 4.30762L1.5375 3.44043L0.65625 3.32793L1.42031 2.85918L1.25156 1.9873ZM16.4297 10.0639L16.4484 10.9545L17.2922 11.2498L16.4484 11.5404L16.4297 12.4311L15.8906 11.7232L15.0375 11.9811L15.5438 11.2498L15.0375 10.5186L15.8906 10.7764L16.4297 10.0639ZM1.74375 18.192L2.11875 18.9982L3.00937 18.9232L2.35781 19.5326L2.70469 20.3529L1.92656 19.9264L1.25156 20.5076L1.42031 19.6311L0.65625 19.1717L1.54219 19.0592L1.74375 18.192ZM7.09687 6.52012L6.80625 6.81074L6.95156 9.01387L6.81094 9.02793L6.54375 7.01699L6.30469 7.25137L6.66094 9.05137C6.37287 9.10807 6.09887 9.22117 5.85469 9.38418L4.8375 7.86543H4.5L5.7375 9.47324C5.69899 9.50326 5.66147 9.53453 5.625 9.56699L4.16719 7.90293H3.75469V8.31543L5.41406 9.76855L5.32031 9.88574L3.7125 8.65293V8.98574L5.23594 10.0029C5.07656 10.2467 4.95937 10.5186 4.90312 10.8092L3.10781 10.4529L2.86875 10.6873L4.87969 10.9545C4.87031 11.0014 4.86563 11.0529 4.86563 11.0998L2.6625 10.9592L2.37187 11.2498L2.6625 11.5404L4.86563 11.3951L4.87969 11.5404L2.86875 11.8076L3.10312 12.042L4.90312 11.6857C4.95982 11.9738 5.07293 12.2478 5.23594 12.492L3.7125 13.5092V13.8467L5.32031 12.6139C5.35033 12.6524 5.3816 12.6899 5.41406 12.7264L3.75469 14.1795V14.592H4.17188L5.625 12.9326L5.74219 13.0264L4.5 14.6342H4.8375L5.85469 13.1107C6.09375 13.2701 6.37031 13.3873 6.66094 13.4436L6.30469 15.2436L6.53906 15.4779L6.80625 13.467C6.85312 13.4764 6.9 13.4811 6.95156 13.4811L6.81094 15.6842L7.09687 15.9748L7.39219 15.6842L7.24688 13.4811L7.3875 13.467L7.65469 15.4826L7.89375 15.2436L7.5375 13.4436C7.82556 13.3869 8.09957 13.2738 8.34375 13.1107L9.36094 14.6342H9.69844L8.46094 13.0264C8.49944 12.9963 8.53696 12.9651 8.57344 12.9326L10.0312 14.592H10.4438V14.1795L8.78437 12.7264L8.87812 12.6139L10.4859 13.8467V13.5092L8.9625 12.492C9.12187 12.2529 9.23906 11.9764 9.29531 11.6857L11.0906 12.042L11.3297 11.8076L9.31875 11.5404C9.32813 11.4936 9.33281 11.4467 9.33281 11.3951L11.5359 11.5357L11.8266 11.2498L11.5359 10.9592L9.33281 11.0998L9.31875 10.9592L11.3297 10.692L11.0953 10.4576L9.29531 10.8092C9.23862 10.5211 9.12551 10.2471 8.9625 10.0029L10.4859 8.98574V8.65293L8.87812 9.88574C8.8481 9.84723 8.81684 9.80972 8.78437 9.77324L10.4438 8.32012V7.90293H10.0312L8.57812 9.56699C8.54012 9.53445 8.50103 9.50318 8.46094 9.47324L9.69844 7.86543H9.36094L8.34375 9.38418C8.10469 9.2248 7.82813 9.10762 7.5375 9.05137L7.89375 7.25605L7.65937 7.02168L7.39219 9.02793L7.24688 9.01387L7.3875 6.81074L7.09687 6.52012Z" fill="#FCD116"/>
</g>
<defs>
<clipPath id="clip0_4056_7507">
<rect width="30" height="22.5" fill="white"/>
</clipPath>
</defs>
</svg>
