<svg width="30" height="23" viewBox="0 0 30 23" fill="none" xmlns="http://www.w3.org/2000/svg">
<g clip-path="url(#clip0_4056_7357)">
<path d="M12 0H30V22.5H12V0Z" fill="#FF0000"/>
<path d="M0 0H12V22.5H0V0Z" fill="#006600"/>
<path fill-rule="evenodd" clip-rule="evenodd" d="M15.9141 14.3525C14.4 14.3057 7.47656 9.98379 7.42969 9.29004L7.80938 8.65723C8.49844 9.65566 15.5766 13.8604 16.275 13.7104L15.9141 14.3525Z" fill="#FFFF00" stroke="black" stroke-width="0.075" stroke-linecap="round" stroke-linejoin="round"/>
<path fill-rule="evenodd" clip-rule="evenodd" d="M7.7297 8.56836C7.59377 8.93398 9.53908 10.134 11.8735 11.559C14.2125 12.9793 16.2281 13.8559 16.3735 13.734L16.4438 13.6027C16.4156 13.6496 16.35 13.6637 16.2422 13.6309C15.6094 13.448 13.9641 12.6934 11.925 11.4559C9.88127 10.2184 8.10939 9.0793 7.83283 8.59648C7.81127 8.55122 7.80159 8.50121 7.8047 8.45117H7.79533L7.73908 8.5543L7.7297 8.56836ZM15.9469 14.3715C15.9235 14.4184 15.8719 14.4184 15.7828 14.409C15.2203 14.348 13.5047 13.5137 11.475 12.2996C9.11252 10.884 7.16252 9.59961 7.37814 9.26211L7.43439 9.15898L7.44377 9.16367C7.25627 9.73555 11.2922 12.0418 11.5313 12.1918C13.8656 13.6355 15.8344 14.484 16.0078 14.2637L15.9469 14.3715Z" fill="#FFFF00" stroke="black" stroke-width="0.075" stroke-linecap="round" stroke-linejoin="round"/>
<path fill-rule="evenodd" clip-rule="evenodd" d="M12.0095 9.7125C13.5188 9.69844 15.3845 9.50625 16.4626 9.075L16.2282 8.7C15.5954 9.05156 13.7204 9.28594 11.9954 9.31875C9.96103 9.3 8.52197 9.10781 7.8001 8.625L7.58447 9.02813C8.90635 9.59063 10.2657 9.70781 12.0095 9.7125Z" fill="#FFFF00" stroke="black" stroke-width="0.075" stroke-linecap="round" stroke-linejoin="round"/>
<path fill-rule="evenodd" clip-rule="evenodd" d="M16.5233 9.08359C16.4858 9.14453 15.7827 9.38359 14.7515 9.56172C13.8424 9.69948 12.924 9.76687 12.0046 9.76328C11.1237 9.76659 10.2435 9.71021 9.37021 9.59453C8.2874 9.42578 7.72959 9.19141 7.51865 9.10703L7.57021 9.00391C8.16553 9.23828 8.72803 9.37891 9.38428 9.48203C10.2512 9.59909 11.1251 9.65703 11.9999 9.65547C12.9146 9.65643 13.8281 9.58905 14.7327 9.45391C15.7874 9.28047 16.364 9.06016 16.4483 8.96172L16.5233 9.08828V9.08359ZM16.3171 8.70391C16.2046 8.79766 15.6327 8.99922 14.6296 9.15859C13.7634 9.28392 12.8892 9.34658 12.014 9.34609C10.9827 9.34609 10.1343 9.27109 9.49209 9.17734C8.47022 9.04609 7.92646 8.80234 7.72959 8.73672L7.79053 8.63359C7.94521 8.71328 8.46553 8.92422 9.50146 9.06953C10.3342 9.18108 11.1738 9.23433 12.014 9.22891C12.883 9.22917 13.7509 9.16651 14.6108 9.04141C15.6187 8.90078 16.1624 8.64766 16.2468 8.58203L16.3171 8.70391ZM7.04522 11.5305C7.97334 12.032 10.0405 12.2805 11.9952 12.2992C13.7765 12.3039 16.0921 12.0273 16.9593 11.568L16.9358 11.0664C16.664 11.4883 14.1796 11.8961 11.9765 11.882C9.77334 11.8633 7.7249 11.5258 7.04053 11.0852V11.5305" fill="#FFFF00"/>
<path d="M7.04522 11.5305C7.97334 12.032 10.0405 12.2805 11.9952 12.2992C13.7765 12.3039 16.0921 12.0273 16.9593 11.568L16.9358 11.0664C16.664 11.4883 14.1796 11.8961 11.9765 11.882C9.77334 11.8633 7.7249 11.5258 7.04053 11.0852V11.5305M16.5233 9.08359C16.4858 9.14453 15.7827 9.38359 14.7515 9.56172C13.8424 9.69948 12.924 9.76687 12.0046 9.76328C11.1237 9.76659 10.2435 9.71021 9.37021 9.59453C8.2874 9.42578 7.72959 9.19141 7.51865 9.10703L7.57021 9.00391C8.16553 9.23828 8.72803 9.37891 9.38428 9.48203C10.2512 9.59909 11.1251 9.65703 11.9999 9.65547C12.9146 9.65643 13.8281 9.58905 14.7327 9.45391C15.7874 9.28047 16.364 9.06016 16.4483 8.96172L16.5233 9.08828V9.08359ZM16.3171 8.70391C16.2046 8.79766 15.6327 8.99922 14.6296 9.15859C13.7634 9.28392 12.8892 9.34658 12.014 9.34609C10.9827 9.34609 10.1343 9.27109 9.49209 9.17734C8.47022 9.04609 7.92646 8.80234 7.72959 8.73672L7.79053 8.63359C7.94521 8.71328 8.46553 8.92422 9.50146 9.06953C10.3342 9.18108 11.1738 9.23433 12.014 9.22891C12.883 9.22917 13.7509 9.16651 14.6108 9.04141C15.6187 8.90078 16.1624 8.64766 16.2468 8.58203L16.3171 8.70391Z" stroke="black" stroke-width="0.075" stroke-linecap="round" stroke-linejoin="round"/>
<path fill-rule="evenodd" clip-rule="evenodd" d="M17.0062 11.4602V11.5773C16.875 11.7367 16.0594 11.9711 15.0375 12.1398C14.0223 12.2858 12.9975 12.3547 11.9719 12.3461C10.9994 12.3544 10.0277 12.287 9.06562 12.1445C8.34776 12.0616 7.64629 11.872 6.98438 11.582V11.4461C7.43906 11.7461 8.66719 11.9711 9.07969 12.0367C9.82031 12.1492 10.7719 12.2336 11.9719 12.2336C13.2328 12.2336 14.2406 12.1445 15.0187 12.0273C15.7547 11.9195 16.8 11.643 17.0062 11.4602ZM17.0062 11.0383V11.1555C16.875 11.3102 16.0594 11.5445 15.0375 11.7133C14.0224 11.8608 12.9976 11.9313 11.9719 11.9242C10.9994 11.9299 10.028 11.8626 9.06562 11.7227C8.34776 11.6397 7.64629 11.4501 6.98438 11.1602V11.0195C7.43906 11.3242 8.67187 11.5445 9.07969 11.6102C10.0373 11.7504 11.0041 11.8178 11.9719 11.8117C13.2328 11.8117 14.2453 11.718 15.0187 11.6008C15.7547 11.4977 16.8 11.2211 17.0062 11.0383ZM11.9906 14.2633C9.85313 14.2539 8.02031 13.682 7.63125 13.5883L7.9125 14.0289C9.2273 14.4946 10.6147 14.7216 12.0094 14.6992C13.6359 14.6523 15.0563 14.5258 16.0547 14.0383L16.3453 13.5789C15.6656 13.9023 13.3453 14.2633 11.9859 14.2633" fill="#FFFF00"/>
<path d="M11.9906 14.2633C9.85313 14.2539 8.02031 13.682 7.63125 13.5883L7.9125 14.0289C9.2273 14.4946 10.6147 14.7216 12.0094 14.6992C13.6359 14.6523 15.0563 14.5258 16.0547 14.0383L16.3453 13.5789C15.6656 13.9023 13.3453 14.2633 11.9859 14.2633M17.0062 11.4602V11.5773C16.875 11.7367 16.0594 11.9711 15.0375 12.1398C14.0223 12.2858 12.9975 12.3547 11.9719 12.3461C10.9994 12.3544 10.0277 12.287 9.06562 12.1445C8.34776 12.0616 7.64629 11.872 6.98438 11.582V11.4461C7.43906 11.7461 8.66719 11.9711 9.07969 12.0367C9.82031 12.1492 10.7719 12.2336 11.9719 12.2336C13.2328 12.2336 14.2406 12.1445 15.0187 12.0273C15.7547 11.9195 16.8 11.643 17.0062 11.4602ZM17.0062 11.0383V11.1555C16.875 11.3102 16.0594 11.5445 15.0375 11.7133C14.0224 11.8608 12.9976 11.9313 11.9719 11.9242C10.9994 11.9299 10.028 11.8626 9.06562 11.7227C8.34776 11.6397 7.64629 11.4501 6.98438 11.1602V11.0195C7.43906 11.3242 8.67187 11.5445 9.07969 11.6102C10.0373 11.7504 11.0041 11.8178 11.9719 11.8117C13.2328 11.8117 14.2453 11.718 15.0187 11.6008C15.7547 11.4977 16.8 11.2211 17.0062 11.0383Z" stroke="black" stroke-width="0.075" stroke-linecap="round" stroke-linejoin="round"/>
<path fill-rule="evenodd" clip-rule="evenodd" d="M16.1672 13.9357C16.1245 13.999 16.0808 14.0615 16.0359 14.1232C15.5672 14.292 14.8172 14.4701 14.5078 14.517C13.6776 14.6717 12.8351 14.7501 11.9906 14.7514C10.0969 14.7232 8.54531 14.3529 7.81875 14.0342L7.75781 13.9357L7.76719 13.917L7.86563 13.9592C9.1997 14.4006 10.5948 14.63 12 14.6389C12.8812 14.6389 13.7578 14.5404 14.4656 14.4139C15.5531 14.1936 15.9938 14.0295 16.1297 13.9545L16.1625 13.9357H16.1672ZM16.4156 13.5232C16.3848 13.5781 16.3535 13.6328 16.3219 13.6873C16.0688 13.7811 15.3844 13.9779 14.3859 14.1186C13.7297 14.2076 13.3219 14.2967 12.0141 14.3201C10.519 14.3051 9.03321 14.0843 7.59844 13.6639L7.54688 13.5467C9.00462 13.9496 10.5067 14.17 12.0187 14.2029C13.2141 14.1795 13.725 14.0904 14.3766 14.0014C15.5391 13.8232 16.125 13.6264 16.2984 13.5748C16.2985 13.5717 16.2985 13.5686 16.2984 13.5654L16.4203 13.5186L16.4156 13.5232Z" fill="#FFFF00" stroke="black" stroke-width="0.075" stroke-linecap="round" stroke-linejoin="round"/>
<path fill-rule="evenodd" clip-rule="evenodd" d="M16.4437 11.1375C16.4483 12.5437 15.7265 13.8094 15.1499 14.3625C14.2984 15.193 13.1611 15.666 11.9718 15.6844C10.5515 15.7078 9.21553 14.7844 8.8546 14.3766C8.04714 13.5203 7.58758 12.3939 7.56553 11.2172C7.64991 9.67969 8.2546 8.61094 9.12647 7.875C9.97343 7.17777 11.0389 6.80105 12.1358 6.81094C12.7762 6.84198 13.403 7.00646 13.9761 7.29382C14.5493 7.58119 15.056 7.9851 15.464 8.47969C16.0499 9.19219 16.3077 9.96562 16.4437 11.1375ZM11.9812 6.32813C13.2925 6.32809 14.5507 6.84643 15.4814 7.77015C16.4122 8.69388 16.94 9.94809 16.9499 11.2594C16.9499 11.91 16.8218 12.5543 16.5728 13.1555C16.3238 13.7566 15.9588 14.3028 15.4987 14.7629C15.0386 15.223 14.4924 15.5879 13.8913 15.8369C13.2902 16.0859 12.6459 16.2141 11.9952 16.2141C11.3446 16.2141 10.7003 16.0859 10.0991 15.8369C9.49802 15.5879 8.95181 15.223 8.49173 14.7629C8.03164 14.3028 7.66668 13.7566 7.41769 13.1555C7.16869 12.5543 7.04053 11.91 7.04053 11.2594C7.03585 8.54062 9.25772 6.32813 11.9812 6.32813Z" fill="#FFFF00" stroke="black" stroke-width="0.075" stroke-linecap="round" stroke-linejoin="round"/>
<path fill-rule="evenodd" clip-rule="evenodd" d="M11.9954 6.30469C14.7235 6.30469 16.9454 8.52656 16.9454 11.2547C16.9454 13.9828 14.7235 16.2047 12 16.2047C9.27661 16.2047 7.05005 13.9828 7.05005 11.2547C7.05005 8.52656 9.27192 6.30469 12 6.30469H11.9954ZM7.15317 11.25C7.15317 13.9125 9.34224 16.0922 11.9954 16.0922C14.6485 16.0922 16.8376 13.9125 16.8376 11.25C16.8376 8.5875 14.6485 6.40781 11.9954 6.40781C9.34224 6.40781 7.15317 8.5875 7.15317 11.25Z" fill="#FFFF00" stroke="black" stroke-width="0.075" stroke-linecap="round" stroke-linejoin="round"/>
<path fill-rule="evenodd" clip-rule="evenodd" d="M12.0001 6.7168C13.2011 6.72051 14.3519 7.19926 15.2012 8.04852C16.0504 8.89779 16.5292 10.0486 16.5329 11.2496C16.5292 12.4511 16.0506 13.6024 15.2015 14.4524C14.3523 15.3024 13.2016 15.7822 12.0001 15.7871C9.51572 15.7871 7.46729 13.7434 7.46729 11.2496C7.47222 10.049 7.95137 8.89888 8.80037 8.04988C9.64937 7.20088 10.7994 6.72173 12.0001 6.7168ZM7.5751 11.2496C7.5751 13.6871 9.57197 15.6746 12.0001 15.6746C14.4282 15.6746 16.4251 13.6824 16.4251 11.2496C16.4251 8.81211 14.4282 6.82461 12.0001 6.82461C10.828 6.82954 9.70538 7.29733 8.8766 8.12611C8.04782 8.9549 7.58003 10.0775 7.5751 11.2496Z" fill="#FFFF00" stroke="black" stroke-width="0.075" stroke-linecap="round" stroke-linejoin="round"/>
<path fill-rule="evenodd" clip-rule="evenodd" d="M12.2015 6.28125H11.7749V16.2328H12.1968L12.2015 6.28125Z" fill="#FFFF00" stroke="black" stroke-width="0.075" stroke-linecap="round" stroke-linejoin="round"/>
<path fill-rule="evenodd" clip-rule="evenodd" d="M12.1548 6.22461H12.2626V16.2887H12.1595V6.22461H12.1548ZM11.7329 6.22461H11.8454V16.2887H11.7376V6.22461H11.7329Z" fill="#FFFF00" stroke="black" stroke-width="0.075" stroke-linecap="round" stroke-linejoin="round"/>
<path fill-rule="evenodd" clip-rule="evenodd" d="M16.95 11.4469V11.0812L16.65 10.8L14.9485 10.35L12.5016 10.1016L9.54849 10.2516L7.44849 10.7484L7.02661 11.0625V11.4328L8.10005 10.95L10.65 10.5516H13.1016L14.9016 10.7484L16.1485 11.0484L16.95 11.4469Z" fill="#FFFF00" stroke="black" stroke-width="0.075" stroke-linecap="round" stroke-linejoin="round"/>
<path fill-rule="evenodd" clip-rule="evenodd" d="M12 10.4899C13.1672 10.4899 14.2969 10.5977 15.2016 10.7711C16.1297 10.9586 16.7812 11.193 17.0062 11.4508V11.5821C16.7344 11.254 15.8578 11.0196 15.1781 10.879C14.2875 10.7102 13.1625 10.5977 11.9953 10.5977C10.7719 10.5977 9.62813 10.7196 8.74688 10.8883C8.04375 11.029 7.10156 11.3102 6.98438 11.5821V11.4461C7.04531 11.2586 7.74844 10.9774 8.73281 10.7758C9.61875 10.6024 10.7625 10.4899 11.9953 10.4899H12ZM12 10.0633C13.0734 10.0612 14.1449 10.1553 15.2016 10.3446C16.1297 10.5321 16.7812 10.7665 17.0062 11.029V11.1555C16.7344 10.8321 15.8578 10.593 15.1781 10.4571C14.2875 10.2836 13.1625 10.1758 11.9953 10.1758C10.9074 10.1724 9.82153 10.2697 8.75156 10.4665C8.07187 10.593 7.09219 10.8836 6.98438 11.1555V11.0243C7.05 10.8368 7.7625 10.5414 8.73281 10.3539C9.62344 10.1805 10.7625 10.0633 12 10.0633ZM11.9719 7.8977C13.8141 7.88833 15.4219 8.15551 16.1578 8.53051L16.425 8.99926C15.7875 8.65239 14.0531 8.29614 11.9766 8.34301C10.2844 8.35708 8.475 8.53051 7.57031 9.01801L7.88906 8.48364C8.63438 8.09458 10.3875 7.8977 11.9719 7.8977Z" fill="#FFFF00" stroke="black" stroke-width="0.075" stroke-linecap="round" stroke-linejoin="round"/>
<path fill-rule="evenodd" clip-rule="evenodd" d="M12.0001 8.28205C12.9619 8.26582 13.9234 8.33326 14.8735 8.48361C15.6235 8.62424 16.3407 8.83049 16.4438 8.94299L16.5235 9.08361C16.2751 8.92424 15.6517 8.74142 14.8548 8.59142C14.0579 8.44142 13.0407 8.38986 11.9954 8.39455C10.8095 8.38986 9.88604 8.4508 9.09854 8.59142C8.55567 8.66751 8.02861 8.83053 7.5376 9.07424L7.61729 8.92892C7.89854 8.7883 8.33447 8.61486 9.0751 8.47892C9.89541 8.32892 10.8282 8.28673 12.0001 8.28205ZM12.0001 7.86017C13.0032 7.8508 13.997 7.90705 14.7704 8.04767C15.2715 8.12207 15.7565 8.28055 16.2048 8.51642L16.322 8.70392C16.1251 8.48361 15.3845 8.27267 14.7235 8.16017C13.9548 8.02424 13.0032 7.97267 12.0001 7.9633C11.0663 7.95497 10.1334 8.02396 9.21104 8.16955C8.72873 8.23675 8.2603 8.38076 7.82353 8.59611L7.92666 8.44142C8.19854 8.3008 8.63916 8.16955 9.19229 8.06174C10.1208 7.91424 11.06 7.84524 12.0001 7.85549V7.86017ZM14.4563 13.3117C13.6439 13.1711 12.8198 13.1083 11.9954 13.1242C8.9251 13.1617 7.93603 13.757 7.81416 13.9352L7.57978 13.5602C8.36728 12.9977 10.036 12.6789 12.0142 12.707C13.0407 12.7258 13.9267 12.7961 14.6673 12.9414L14.4563 13.3164" fill="#FFFF00"/>
<path d="M14.4563 13.3117C13.6439 13.1711 12.8198 13.1083 11.9954 13.1242C8.9251 13.1617 7.93603 13.757 7.81416 13.9352L7.57978 13.5602C8.36728 12.9977 10.036 12.6789 12.0142 12.707C13.0407 12.7258 13.9267 12.7961 14.6673 12.9414L14.4563 13.3164M12.0001 8.28205C12.9619 8.26582 13.9234 8.33326 14.8735 8.48361C15.6235 8.62424 16.3407 8.83049 16.4438 8.94299L16.5235 9.08361C16.2751 8.92424 15.6517 8.74142 14.8548 8.59142C14.0579 8.44142 13.0407 8.38986 11.9954 8.39455C10.8095 8.38986 9.88604 8.4508 9.09854 8.59142C8.55567 8.66751 8.02861 8.83053 7.5376 9.07424L7.61729 8.92892C7.89854 8.7883 8.33447 8.61486 9.0751 8.47892C9.89541 8.32892 10.8282 8.28673 12.0001 8.28205ZM12.0001 7.86017C13.0032 7.8508 13.997 7.90705 14.7704 8.04767C15.2715 8.12207 15.7565 8.28055 16.2048 8.51642L16.322 8.70392C16.1251 8.48361 15.3845 8.27267 14.7235 8.16017C13.9548 8.02424 13.0032 7.97267 12.0001 7.9633C11.0663 7.95497 10.1334 8.02396 9.21104 8.16955C8.72873 8.23675 8.2603 8.38076 7.82353 8.59611L7.92666 8.44142C8.19854 8.3008 8.63916 8.16955 9.19229 8.06174C10.1208 7.91424 11.06 7.84524 12.0001 7.85549V7.86017Z" stroke="black" stroke-width="0.075" stroke-linecap="round" stroke-linejoin="round"/>
<path fill-rule="evenodd" clip-rule="evenodd" d="M11.9813 13.0729C12.8344 13.0869 13.6688 13.1197 14.4797 13.2697L14.4235 13.3729C13.6735 13.2322 12.8672 13.1854 11.986 13.1854C10.8469 13.176 9.70317 13.2838 8.70474 13.5697C8.39067 13.6588 7.87036 13.8604 7.81411 14.0291L7.75786 13.9354C7.77661 13.8322 8.08599 13.626 8.67661 13.4666C9.82036 13.1385 10.8891 13.0775 11.9813 13.0729ZM12.0188 12.6416C12.9193 12.6407 13.818 12.7191 14.7047 12.876L14.6438 12.9838C13.778 12.825 12.8991 12.7481 12.0188 12.7541C10.8844 12.7541 9.67974 12.8385 8.58286 13.1572C8.2313 13.2604 7.61724 13.4854 7.59849 13.6588L7.54224 13.5557C7.55161 13.3963 8.0813 13.1854 8.55942 13.0494C9.66099 12.726 10.8704 12.6463 12.0188 12.6416Z" fill="#FFFF00" stroke="black" stroke-width="0.075" stroke-linecap="round" stroke-linejoin="round"/>
<path fill-rule="evenodd" clip-rule="evenodd" d="M16.3782 13.6168L16.0126 14.1934L14.9485 13.2512L12.2017 11.3996L9.09854 9.69805L7.49072 9.14961L7.83291 8.51211L7.9501 8.45117L8.94853 8.69961L12.2485 10.4012L14.1517 11.6012L15.7501 12.7496L16.4017 13.4996L16.3782 13.6168Z" fill="#FFFF00" stroke="black" stroke-width="0.075" stroke-linecap="round" stroke-linejoin="round"/>
<path fill-rule="evenodd" clip-rule="evenodd" d="M7.43447 9.16413C7.71572 8.97663 9.7876 9.89538 11.9626 11.2079C14.1235 12.5204 16.1954 14.0016 16.0079 14.2782L15.947 14.3766L15.9188 14.4001C15.9235 14.3954 15.9563 14.3532 15.9188 14.2548C15.8251 13.9501 14.3532 12.7782 11.9204 11.3063C9.54385 9.89538 7.56572 9.04226 7.37354 9.28601L7.43447 9.16413ZM16.4532 13.6126C16.6313 13.2563 14.7095 11.8079 12.3235 10.3969C9.88603 9.01413 8.12353 8.19851 7.8001 8.44226L7.73447 8.5782C7.73447 8.58288 7.73447 8.56882 7.75322 8.55476C7.80947 8.50788 7.90791 8.50788 7.9501 8.50788C8.50322 8.51726 10.0829 9.24382 12.3001 10.5141C13.2751 11.0766 16.4063 13.0923 16.3923 13.6548C16.3923 13.7016 16.397 13.711 16.3782 13.7391L16.4579 13.6173L16.4532 13.6126Z" fill="#FFFF00" stroke="black" stroke-width="0.075" stroke-linecap="round" stroke-linejoin="round"/>
<path d="M9.03003 11.8019C9.03077 12.1901 9.10849 12.5742 9.25868 12.9321C9.40888 13.29 9.62857 13.6145 9.90503 13.8869C10.1781 14.1642 10.5034 14.3848 10.8621 14.5358C11.2208 14.6868 11.6058 14.7654 11.995 14.7669C12.7827 14.7669 13.5381 14.4539 14.095 13.8969C14.3705 13.623 14.5892 13.2974 14.7385 12.9387C14.8878 12.58 14.9648 12.1954 14.965 11.8069V7.84691L9.03003 7.83691V11.8019Z" fill="white" stroke="black" stroke-width="0.0933336"/>
<path d="M9.14014 11.8068C9.14119 12.1791 9.21596 12.5475 9.36014 12.8908C9.50431 13.2341 9.71503 13.5454 9.98014 13.8068C10.5125 14.3419 11.2353 14.644 11.9901 14.6468C12.7436 14.6472 13.4665 14.3487 14.0002 13.8168C14.2644 13.555 14.4742 13.2435 14.6175 12.9002C14.7608 12.557 14.8348 12.1888 14.8352 11.8168V7.9668H9.15014V11.8068M13.7002 9.1218V11.5668L13.6952 11.8218C13.6968 12.0452 13.6534 12.2666 13.5675 12.4728C13.4816 12.679 13.3549 12.8657 13.1951 13.0218C12.8772 13.3409 12.4456 13.5207 11.9951 13.5218C11.5251 13.5218 11.1101 13.3218 10.8001 13.0118C10.4811 12.6939 10.3012 12.2623 10.3001 11.8118V9.1118L13.7002 9.1218Z" fill="#FF0000"/>
<path d="M9.14014 11.8068C9.14119 12.1791 9.21596 12.5475 9.36014 12.8908C9.50431 13.2341 9.71503 13.5454 9.98014 13.8068C10.5125 14.3419 11.2353 14.644 11.9901 14.6468C12.7436 14.6472 13.4665 14.3487 14.0002 13.8168C14.2644 13.555 14.4742 13.2435 14.6175 12.9002C14.7608 12.557 14.8348 12.1888 14.8352 11.8168V7.9668H9.15014V11.8068M13.7002 9.1218V11.5668L13.6952 11.8218C13.6968 12.0452 13.6534 12.2666 13.5675 12.4728C13.4816 12.679 13.3549 12.8657 13.1951 13.0218C12.8772 13.3409 12.4456 13.5207 11.9951 13.5218C11.5251 13.5218 11.1101 13.3218 10.8001 13.0118C10.4811 12.6939 10.3012 12.2623 10.3001 11.8118V9.1118L13.7002 9.1218Z" stroke="black" stroke-width="0.0666669"/>
<path d="M9.51001 8.97184C9.51501 8.69684 9.71001 8.63184 9.71001 8.63184C9.71501 8.63184 9.92501 8.70184 9.92501 8.97684H9.51001" fill="#FFFF00"/>
<path d="M9.34001 8.63684L9.30501 8.95184H9.51501C9.51501 8.69184 9.71501 8.65184 9.71501 8.65184C9.72001 8.65184 9.91501 8.70684 9.92001 8.95184H10.13L10.09 8.63184H9.34001V8.63684ZM9.29001 8.95684H10.14C10.155 8.95684 10.17 8.97184 10.17 8.99184C10.17 9.01684 10.155 9.03184 10.14 9.03184H9.29001C9.27501 9.03184 9.26001 9.01684 9.26001 8.99184C9.26001 8.97184 9.27501 8.95684 9.29501 8.95684H9.29001Z" fill="#FFFF00" stroke="black" stroke-width="0.0666669"/>
<path d="M9.60003 8.95199C9.60003 8.78699 9.71503 8.74199 9.71503 8.74199C9.71503 8.74199 9.83003 8.79199 9.83003 8.95199H9.60003ZM9.31003 8.50199H10.125C10.14 8.50199 10.155 8.52199 10.155 8.54199C10.155 8.55699 10.14 8.57199 10.125 8.57199H9.31003C9.29503 8.57199 9.28003 8.55699 9.28003 8.53699C9.28003 8.52199 9.29503 8.50699 9.31003 8.50699V8.50199ZM9.33003 8.57699H10.1C10.115 8.57699 10.13 8.59199 10.13 8.61199C10.13 8.63199 10.115 8.64699 10.1 8.64699H9.32503C9.30503 8.64699 9.29503 8.63199 9.29503 8.61199C9.29503 8.59199 9.30503 8.57699 9.32503 8.57699H9.33003ZM9.58003 8.04699H9.64003V8.08699H9.68503V8.04699H9.75003V8.09199H9.79503V8.04199H9.85503V8.14199C9.85503 8.16199 9.84503 8.17199 9.83003 8.17199H9.61003C9.59503 8.17199 9.58003 8.16199 9.58003 8.14699V8.04699ZM9.81003 8.18199L9.82503 8.50199H9.61003L9.62503 8.17699H9.81003" fill="#FFFF00"/>
<path d="M9.81003 8.18199L9.82503 8.50199H9.61003L9.62503 8.17699H9.81003M9.60003 8.95199C9.60003 8.78699 9.71503 8.74199 9.71503 8.74199C9.71503 8.74199 9.83003 8.79199 9.83003 8.95199H9.60003ZM9.31003 8.50199H10.125C10.14 8.50199 10.155 8.52199 10.155 8.54199C10.155 8.55699 10.14 8.57199 10.125 8.57199H9.31003C9.29503 8.57199 9.28003 8.55699 9.28003 8.53699C9.28003 8.52199 9.29503 8.50699 9.31003 8.50699V8.50199ZM9.33003 8.57699H10.1C10.115 8.57699 10.13 8.59199 10.13 8.61199C10.13 8.63199 10.115 8.64699 10.1 8.64699H9.32503C9.30503 8.64699 9.29503 8.63199 9.29503 8.61199C9.29503 8.59199 9.30503 8.57699 9.32503 8.57699H9.33003ZM9.58003 8.04699H9.64003V8.08699H9.68503V8.04699H9.75003V8.09199H9.79503V8.04199H9.85503V8.14199C9.85503 8.16199 9.84503 8.17199 9.83003 8.17199H9.61003C9.59503 8.17199 9.58003 8.16199 9.58003 8.14699V8.04699Z" stroke="black" stroke-width="0.0666669"/>
<path d="M9.5501 8.33203V8.50203H9.3501V8.33203H9.5501Z" fill="#FFFF00" stroke="black" stroke-width="0.0666669"/>
<path d="M9.5501 8.33203V8.50203H9.3501V8.33203H9.5501Z" fill="#FFFF00" stroke="black" stroke-width="0.0666669"/>
<path d="M9.31494 8.20215H9.37494V8.25215H9.41994V8.20215H9.47994V8.25215H9.52494V8.20215H9.58494V8.30215C9.58494 8.32215 9.57494 8.33215 9.55994 8.33215H9.34494C9.33698 8.33215 9.32935 8.32899 9.32373 8.32336C9.3181 8.31774 9.31494 8.31011 9.31494 8.30215V8.20215Z" fill="#FFFF00" stroke="black" stroke-width="0.0666669"/>
<path d="M9.31494 8.20215H9.37494V8.25215H9.41994V8.20215H9.47994V8.25215H9.52494V8.20215H9.58494V8.30215C9.58494 8.32215 9.57494 8.33215 9.55994 8.33215H9.34494C9.33698 8.33215 9.32935 8.32899 9.32373 8.32336C9.3181 8.31774 9.31494 8.31011 9.31494 8.30215V8.20215Z" fill="#FFFF00" stroke="black" stroke-width="0.0666669"/>
<path d="M9.69507 8.28227C9.69507 8.25227 9.74007 8.25227 9.74007 8.28227V8.36227H9.69507V8.28227Z" fill="black"/>
<path d="M9.42993 8.39164C9.42993 8.36164 9.46993 8.36164 9.46993 8.39164V8.45164H9.42993V8.39164Z" fill="black"/>
<path d="M9.42993 8.39164C9.42993 8.36164 9.46993 8.36164 9.46993 8.39164V8.45164H9.42993V8.39164Z" fill="black"/>
<path d="M9.51001 8.97184C9.51501 8.69684 9.71001 8.63184 9.71001 8.63184C9.71501 8.63184 9.92501 8.70184 9.92501 8.97684H9.51001" fill="#FFFF00"/>
<path d="M9.34001 8.63684L9.30501 8.95184H9.51501C9.51501 8.69184 9.71501 8.65184 9.71501 8.65184C9.72001 8.65184 9.91501 8.70684 9.92001 8.95184H10.13L10.09 8.63184H9.34001V8.63684ZM9.29001 8.95684H10.14C10.155 8.95684 10.17 8.97184 10.17 8.99184C10.17 9.01684 10.155 9.03184 10.14 9.03184H9.29001C9.27501 9.03184 9.26001 9.01684 9.26001 8.99184C9.26001 8.97184 9.27501 8.95684 9.29501 8.95684H9.29001Z" fill="#FFFF00" stroke="black" stroke-width="0.0666669"/>
<path d="M9.60003 8.95199C9.60003 8.78699 9.71503 8.74199 9.71503 8.74199C9.71503 8.74199 9.83003 8.79199 9.83003 8.95199H9.60003ZM9.31003 8.50199H10.125C10.14 8.50199 10.155 8.52199 10.155 8.54199C10.155 8.55699 10.14 8.57199 10.125 8.57199H9.31003C9.29503 8.57199 9.28003 8.55699 9.28003 8.53699C9.28003 8.52199 9.29503 8.50699 9.31003 8.50699V8.50199ZM9.33003 8.57699H10.1C10.115 8.57699 10.13 8.59199 10.13 8.61199C10.13 8.63199 10.115 8.64699 10.1 8.64699H9.32503C9.30503 8.64699 9.29503 8.63199 9.29503 8.61199C9.29503 8.59199 9.30503 8.57699 9.32503 8.57699H9.33003ZM9.58003 8.04699H9.64003V8.08699H9.68503V8.04699H9.75003V8.09199H9.79503V8.04199H9.85503V8.14199C9.85503 8.16199 9.84503 8.17199 9.83003 8.17199H9.61003C9.59503 8.17199 9.58003 8.16199 9.58003 8.14699V8.04699ZM9.81003 8.18199L9.82503 8.50199H9.61003L9.62503 8.17699H9.81003" fill="#FFFF00"/>
<path d="M9.81003 8.18199L9.82503 8.50199H9.61003L9.62503 8.17699H9.81003M9.60003 8.95199C9.60003 8.78699 9.71503 8.74199 9.71503 8.74199C9.71503 8.74199 9.83003 8.79199 9.83003 8.95199H9.60003ZM9.31003 8.50199H10.125C10.14 8.50199 10.155 8.52199 10.155 8.54199C10.155 8.55699 10.14 8.57199 10.125 8.57199H9.31003C9.29503 8.57199 9.28003 8.55699 9.28003 8.53699C9.28003 8.52199 9.29503 8.50699 9.31003 8.50699V8.50199ZM9.33003 8.57699H10.1C10.115 8.57699 10.13 8.59199 10.13 8.61199C10.13 8.63199 10.115 8.64699 10.1 8.64699H9.32503C9.30503 8.64699 9.29503 8.63199 9.29503 8.61199C9.29503 8.59199 9.30503 8.57699 9.32503 8.57699H9.33003ZM9.58003 8.04699H9.64003V8.08699H9.68503V8.04699H9.75003V8.09199H9.79503V8.04199H9.85503V8.14199C9.85503 8.16199 9.84503 8.17199 9.83003 8.17199H9.61003C9.59503 8.17199 9.58003 8.16199 9.58003 8.14699V8.04699Z" stroke="black" stroke-width="0.0666669"/>
<path d="M9.5501 8.33203V8.50203H9.3501V8.33203H9.5501Z" fill="#FFFF00" stroke="black" stroke-width="0.0666669"/>
<path d="M9.5501 8.33203V8.50203H9.3501V8.33203H9.5501Z" fill="#FFFF00" stroke="black" stroke-width="0.0666669"/>
<path d="M9.31494 8.20215H9.37494V8.25215H9.41994V8.20215H9.47994V8.25215H9.52494V8.20215H9.58494V8.30215C9.58494 8.32215 9.57494 8.33215 9.55994 8.33215H9.34494C9.33698 8.33215 9.32935 8.32899 9.32373 8.32336C9.3181 8.31774 9.31494 8.31011 9.31494 8.30215V8.20215Z" fill="#FFFF00" stroke="black" stroke-width="0.0666669"/>
<path d="M9.31494 8.20215H9.37494V8.25215H9.41994V8.20215H9.47994V8.25215H9.52494V8.20215H9.58494V8.30215C9.58494 8.32215 9.57494 8.33215 9.55994 8.33215H9.34494C9.33698 8.33215 9.32935 8.32899 9.32373 8.32336C9.3181 8.31774 9.31494 8.31011 9.31494 8.30215V8.20215Z" fill="#FFFF00" stroke="black" stroke-width="0.0666669"/>
<path d="M9.69507 8.28227C9.69507 8.25227 9.74007 8.25227 9.74007 8.28227V8.36227H9.69507V8.28227Z" fill="black"/>
<path d="M9.42993 8.39164C9.42993 8.36164 9.46993 8.36164 9.46993 8.39164V8.45164H9.42993V8.39164Z" fill="black"/>
<path d="M9.42993 8.39164C9.42993 8.36164 9.46993 8.36164 9.46993 8.39164V8.45164H9.42993V8.39164Z" fill="black"/>
<path d="M10.4122 13.6995C10.2205 13.5022 10.3118 13.318 10.3118 13.318C10.3153 13.3145 10.513 13.2148 10.7081 13.4086L10.4157 13.7031" fill="#FFFF00"/>
<path d="M10.0548 13.5845L10.2536 13.8312L10.4016 13.6822C10.2171 13.499 10.3297 13.3289 10.3297 13.3289C10.3332 13.3254 10.5096 13.2258 10.687 13.3949L10.835 13.2458L10.5797 13.0487L10.0512 13.5809L10.0548 13.5845ZM10.2466 13.8454L10.8456 13.2423C10.8561 13.2316 10.8773 13.2316 10.8915 13.2457C10.9093 13.2633 10.9094 13.2845 10.8988 13.2951L10.2998 13.8983C10.2893 13.9089 10.2681 13.909 10.2503 13.8914C10.2361 13.8773 10.2361 13.8561 10.2501 13.8419L10.2466 13.8454Z" fill="#FFFF00" stroke="black" stroke-width="0.0666669"/>
<path d="M10.4615 13.6212C10.3444 13.5049 10.3935 13.3916 10.3935 13.3916C10.3935 13.3916 10.5101 13.3452 10.6236 13.458L10.4615 13.6212ZM9.93787 13.5099L10.5122 12.9316C10.5227 12.9209 10.5475 12.9244 10.5617 12.9385C10.5723 12.949 10.5724 12.9703 10.5618 12.9809L9.98754 13.5592C9.97697 13.5698 9.95576 13.5699 9.94157 13.5558C9.93093 13.5453 9.93085 13.524 9.94142 13.5134L9.93787 13.5099ZM10.0052 13.5485L10.5478 13.0022C10.5583 12.9915 10.5795 12.9914 10.5937 13.0055C10.6079 13.0196 10.608 13.0408 10.5974 13.0515L10.0513 13.6014C10.0372 13.6156 10.0195 13.6121 10.0054 13.598C9.99117 13.5839 9.98757 13.5663 10.0017 13.5521L10.0052 13.5485ZM9.80527 12.9977L9.84755 12.9551L9.87593 12.9833L9.90764 12.9514L9.87926 12.9232L9.92506 12.8771L9.95699 12.9088L9.9887 12.8768L9.95322 12.8416L9.9955 12.799L10.0665 12.8695C10.0806 12.8836 10.0807 12.8977 10.0701 12.9084L9.91511 13.0645C9.90454 13.0751 9.88687 13.0787 9.87623 13.0681L9.80527 12.9977ZM10.0631 12.9296L10.3008 13.1444L10.1493 13.297L9.92922 13.0574L10.0596 12.9261" fill="#FFFF00"/>
<path d="M10.0631 12.9296L10.3008 13.1444L10.1493 13.297L9.92922 13.0574L10.0596 12.9261M10.4615 13.6212C10.3444 13.5049 10.3935 13.3916 10.3935 13.3916C10.3935 13.3916 10.5101 13.3452 10.6236 13.458L10.4615 13.6212ZM9.93787 13.5099L10.5122 12.9316C10.5227 12.9209 10.5475 12.9244 10.5617 12.9385C10.5723 12.949 10.5724 12.9703 10.5618 12.9809L9.98754 13.5592C9.97697 13.5698 9.95576 13.5699 9.94157 13.5558C9.93093 13.5453 9.93085 13.524 9.94142 13.5134L9.93787 13.5099ZM10.0052 13.5485L10.5478 13.0022C10.5583 12.9915 10.5795 12.9914 10.5937 13.0055C10.6079 13.0196 10.608 13.0408 10.5974 13.0515L10.0513 13.6014C10.0372 13.6156 10.0195 13.6121 10.0054 13.598C9.99117 13.5839 9.98757 13.5663 10.0017 13.5521L10.0052 13.5485ZM9.80527 12.9977L9.84755 12.9551L9.87593 12.9833L9.90764 12.9514L9.87926 12.9232L9.92506 12.8771L9.95699 12.9088L9.9887 12.8768L9.95322 12.8416L9.9955 12.799L10.0665 12.8695C10.0806 12.8836 10.0807 12.8977 10.0701 12.9084L9.91511 13.0645C9.90454 13.0751 9.88687 13.0787 9.87623 13.0681L9.80527 12.9977Z" stroke="black" stroke-width="0.0666669"/>
<path d="M9.98639 13.2204L10.107 13.3402L9.96609 13.4821L9.84546 13.3623L9.98639 13.2204Z" fill="#FFFF00" stroke="black" stroke-width="0.0666669"/>
<path d="M9.98639 13.2204L10.107 13.3402L9.96609 13.4821L9.84546 13.3623L9.98639 13.2204Z" fill="#FFFF00" stroke="black" stroke-width="0.0666669"/>
<path d="M9.72852 13.2949L9.77079 13.2523L9.80627 13.2876L9.83798 13.2556L9.8025 13.2204L9.84478 13.1778L9.88026 13.2131L9.91197 13.1811L9.87649 13.1459L9.91877 13.1033L9.98972 13.1738C10.0039 13.1879 10.004 13.202 9.9934 13.2127L9.8419 13.3652C9.83629 13.3709 9.82867 13.3741 9.82072 13.3741C9.81276 13.3741 9.80512 13.371 9.79947 13.3654L9.72852 13.2949Z" fill="#FFFF00" stroke="black" stroke-width="0.0666669"/>
<path d="M9.72852 13.2949L9.77079 13.2523L9.80627 13.2876L9.83798 13.2556L9.8025 13.2204L9.84478 13.1778L9.88026 13.2131L9.91197 13.1811L9.87649 13.1459L9.91877 13.1033L9.98972 13.1738C10.0039 13.1879 10.004 13.202 9.9934 13.2127L9.8419 13.3652C9.83629 13.3709 9.82867 13.3741 9.82072 13.3741C9.81276 13.3741 9.80512 13.371 9.79947 13.3654L9.72852 13.2949Z" fill="#FFFF00" stroke="black" stroke-width="0.0666669"/>
<path d="M10.0531 13.0823C10.0318 13.0611 10.0635 13.0292 10.0848 13.0503L10.1415 13.1067L10.1098 13.1386L10.0531 13.0823Z" fill="black"/>
<path d="M9.94443 13.3479C9.92314 13.3267 9.95133 13.2984 9.97262 13.3195L10.0152 13.3618L9.98701 13.3902L9.94443 13.3479Z" fill="black"/>
<path d="M9.94443 13.3479C9.92314 13.3267 9.95133 13.2984 9.97262 13.3195L10.0152 13.3618L9.98701 13.3902L9.94443 13.3479Z" fill="black"/>
<path d="M9.51001 8.97184C9.51501 8.69684 9.71001 8.63184 9.71001 8.63184C9.71501 8.63184 9.92501 8.70184 9.92501 8.97684H9.51001" fill="#FFFF00"/>
<path d="M9.34001 8.63684L9.30501 8.95184H9.51501C9.51501 8.69184 9.71501 8.65184 9.71501 8.65184C9.72001 8.65184 9.91501 8.70684 9.92001 8.95184H10.13L10.09 8.63184H9.34001V8.63684ZM9.29001 8.95684H10.14C10.155 8.95684 10.17 8.97184 10.17 8.99184C10.17 9.01684 10.155 9.03184 10.14 9.03184H9.29001C9.27501 9.03184 9.26001 9.01684 9.26001 8.99184C9.26001 8.97184 9.27501 8.95684 9.29501 8.95684H9.29001Z" fill="#FFFF00" stroke="black" stroke-width="0.0666669"/>
<path d="M9.60003 8.95199C9.60003 8.78699 9.71503 8.74199 9.71503 8.74199C9.71503 8.74199 9.83003 8.79199 9.83003 8.95199H9.60003ZM9.31003 8.50199H10.125C10.14 8.50199 10.155 8.52199 10.155 8.54199C10.155 8.55699 10.14 8.57199 10.125 8.57199H9.31003C9.29503 8.57199 9.28003 8.55699 9.28003 8.53699C9.28003 8.52199 9.29503 8.50699 9.31003 8.50699V8.50199ZM9.33003 8.57699H10.1C10.115 8.57699 10.13 8.59199 10.13 8.61199C10.13 8.63199 10.115 8.64699 10.1 8.64699H9.32503C9.30503 8.64699 9.29503 8.63199 9.29503 8.61199C9.29503 8.59199 9.30503 8.57699 9.32503 8.57699H9.33003ZM9.58003 8.04699H9.64003V8.08699H9.68503V8.04699H9.75003V8.09199H9.79503V8.04199H9.85503V8.14199C9.85503 8.16199 9.84503 8.17199 9.83003 8.17199H9.61003C9.59503 8.17199 9.58003 8.16199 9.58003 8.14699V8.04699ZM9.81003 8.18199L9.82503 8.50199H9.61003L9.62503 8.17699H9.81003" fill="#FFFF00"/>
<path d="M9.81003 8.18199L9.82503 8.50199H9.61003L9.62503 8.17699H9.81003M9.60003 8.95199C9.60003 8.78699 9.71503 8.74199 9.71503 8.74199C9.71503 8.74199 9.83003 8.79199 9.83003 8.95199H9.60003ZM9.31003 8.50199H10.125C10.14 8.50199 10.155 8.52199 10.155 8.54199C10.155 8.55699 10.14 8.57199 10.125 8.57199H9.31003C9.29503 8.57199 9.28003 8.55699 9.28003 8.53699C9.28003 8.52199 9.29503 8.50699 9.31003 8.50699V8.50199ZM9.33003 8.57699H10.1C10.115 8.57699 10.13 8.59199 10.13 8.61199C10.13 8.63199 10.115 8.64699 10.1 8.64699H9.32503C9.30503 8.64699 9.29503 8.63199 9.29503 8.61199C9.29503 8.59199 9.30503 8.57699 9.32503 8.57699H9.33003ZM9.58003 8.04699H9.64003V8.08699H9.68503V8.04699H9.75003V8.09199H9.79503V8.04199H9.85503V8.14199C9.85503 8.16199 9.84503 8.17199 9.83003 8.17199H9.61003C9.59503 8.17199 9.58003 8.16199 9.58003 8.14699V8.04699Z" stroke="black" stroke-width="0.0666669"/>
<path d="M9.5501 8.33203V8.50203H9.3501V8.33203H9.5501Z" fill="#FFFF00" stroke="black" stroke-width="0.0666669"/>
<path d="M9.5501 8.33203V8.50203H9.3501V8.33203H9.5501Z" fill="#FFFF00" stroke="black" stroke-width="0.0666669"/>
<path d="M9.31494 8.20215H9.37494V8.25215H9.41994V8.20215H9.47994V8.25215H9.52494V8.20215H9.58494V8.30215C9.58494 8.32215 9.57494 8.33215 9.55994 8.33215H9.34494C9.33698 8.33215 9.32935 8.32899 9.32373 8.32336C9.3181 8.31774 9.31494 8.31011 9.31494 8.30215V8.20215Z" fill="#FFFF00" stroke="black" stroke-width="0.0666669"/>
<path d="M9.31494 8.20215H9.37494V8.25215H9.41994V8.20215H9.47994V8.25215H9.52494V8.20215H9.58494V8.30215C9.58494 8.32215 9.57494 8.33215 9.55994 8.33215H9.34494C9.33698 8.33215 9.32935 8.32899 9.32373 8.32336C9.3181 8.31774 9.31494 8.31011 9.31494 8.30215V8.20215Z" fill="#FFFF00" stroke="black" stroke-width="0.0666669"/>
<path d="M9.69507 8.28227C9.69507 8.25227 9.74007 8.25227 9.74007 8.28227V8.36227H9.69507V8.28227Z" fill="black"/>
<path d="M9.42993 8.39164C9.42993 8.36164 9.46993 8.36164 9.46993 8.39164V8.45164H9.42993V8.39164Z" fill="black"/>
<path d="M9.42993 8.39164C9.42993 8.36164 9.46993 8.36164 9.46993 8.39164V8.45164H9.42993V8.39164Z" fill="black"/>
<path d="M14.48 8.97184C14.475 8.69684 14.28 8.63184 14.28 8.63184C14.275 8.63184 14.065 8.70184 14.065 8.97684H14.48" fill="#FFFF00"/>
<path d="M14.65 8.63684L14.685 8.95184H14.475C14.475 8.69184 14.275 8.65184 14.275 8.65184C14.27 8.65184 14.075 8.70684 14.07 8.95184H13.86L13.9 8.63184H14.65V8.63684ZM14.7 8.95684H13.85C13.835 8.95684 13.82 8.97184 13.82 8.99184C13.82 9.01684 13.835 9.03184 13.85 9.03184H14.7C14.715 9.03184 14.73 9.01684 14.73 8.99184C14.73 8.97184 14.715 8.95684 14.695 8.95684H14.7Z" fill="#FFFF00" stroke="black" stroke-width="0.0666669"/>
<path d="M14.39 8.95199C14.39 8.78699 14.275 8.74199 14.275 8.74199C14.275 8.74199 14.16 8.79199 14.16 8.95199H14.39ZM14.68 8.50199H13.865C13.85 8.50199 13.835 8.52199 13.835 8.54199C13.835 8.55699 13.85 8.57199 13.865 8.57199H14.68C14.695 8.57199 14.71 8.55699 14.71 8.53699C14.71 8.52199 14.695 8.50699 14.68 8.50699V8.50199ZM14.66 8.57699H13.89C13.875 8.57699 13.86 8.59199 13.86 8.61199C13.86 8.63199 13.875 8.64699 13.89 8.64699H14.665C14.685 8.64699 14.695 8.63199 14.695 8.61199C14.695 8.59199 14.685 8.57699 14.665 8.57699H14.66ZM14.41 8.04699H14.35V8.08699H14.305V8.04699H14.24V8.09199H14.195V8.04199H14.135V8.14199C14.135 8.16199 14.145 8.17199 14.16 8.17199H14.38C14.395 8.17199 14.41 8.16199 14.41 8.14699V8.04699ZM14.18 8.18199L14.165 8.50199H14.38L14.365 8.17699H14.18" fill="#FFFF00"/>
<path d="M14.18 8.18199L14.165 8.50199H14.38L14.365 8.17699H14.18M14.39 8.95199C14.39 8.78699 14.275 8.74199 14.275 8.74199C14.275 8.74199 14.16 8.79199 14.16 8.95199H14.39ZM14.68 8.50199H13.865C13.85 8.50199 13.835 8.52199 13.835 8.54199C13.835 8.55699 13.85 8.57199 13.865 8.57199H14.68C14.695 8.57199 14.71 8.55699 14.71 8.53699C14.71 8.52199 14.695 8.50699 14.68 8.50699V8.50199ZM14.66 8.57699H13.89C13.875 8.57699 13.86 8.59199 13.86 8.61199C13.86 8.63199 13.875 8.64699 13.89 8.64699H14.665C14.685 8.64699 14.695 8.63199 14.695 8.61199C14.695 8.59199 14.685 8.57699 14.665 8.57699H14.66ZM14.41 8.04699H14.35V8.08699H14.305V8.04699H14.24V8.09199H14.195V8.04199H14.135V8.14199C14.135 8.16199 14.145 8.17199 14.16 8.17199H14.38C14.395 8.17199 14.41 8.16199 14.41 8.14699V8.04699Z" stroke="black" stroke-width="0.0666669"/>
<path d="M14.4399 8.33203V8.50203H14.6399V8.33203H14.4399Z" fill="#FFFF00" stroke="black" stroke-width="0.0666669"/>
<path d="M14.4399 8.33203V8.50203H14.6399V8.33203H14.4399Z" fill="#FFFF00" stroke="black" stroke-width="0.0666669"/>
<path d="M14.675 8.20215H14.615V8.25215H14.57V8.20215H14.51V8.25215H14.465V8.20215H14.405V8.30215C14.405 8.32215 14.415 8.33215 14.43 8.33215H14.645C14.653 8.33215 14.6606 8.32899 14.6663 8.32336C14.6719 8.31774 14.675 8.31011 14.675 8.30215V8.20215Z" fill="#FFFF00" stroke="black" stroke-width="0.0666669"/>
<path d="M14.675 8.20215H14.615V8.25215H14.57V8.20215H14.51V8.25215H14.465V8.20215H14.405V8.30215C14.405 8.32215 14.415 8.33215 14.43 8.33215H14.645C14.653 8.33215 14.6606 8.32899 14.6663 8.32336C14.6719 8.31774 14.675 8.31011 14.675 8.30215V8.20215Z" fill="#FFFF00" stroke="black" stroke-width="0.0666669"/>
<path d="M14.2949 8.28227C14.2949 8.25227 14.2499 8.25227 14.2499 8.28227V8.36227H14.2949V8.28227Z" fill="black"/>
<path d="M14.5601 8.39164C14.5601 8.36164 14.5201 8.36164 14.5201 8.39164V8.45164H14.5601V8.39164Z" fill="black"/>
<path d="M14.5601 8.39164C14.5601 8.36164 14.5201 8.36164 14.5201 8.39164V8.45164H14.5601V8.39164Z" fill="black"/>
<path d="M14.48 8.97184C14.475 8.69684 14.28 8.63184 14.28 8.63184C14.275 8.63184 14.065 8.70184 14.065 8.97684H14.48" fill="#FFFF00"/>
<path d="M14.65 8.63684L14.685 8.95184H14.475C14.475 8.69184 14.275 8.65184 14.275 8.65184C14.27 8.65184 14.075 8.70684 14.07 8.95184H13.86L13.9 8.63184H14.65V8.63684ZM14.7 8.95684H13.85C13.835 8.95684 13.82 8.97184 13.82 8.99184C13.82 9.01684 13.835 9.03184 13.85 9.03184H14.7C14.715 9.03184 14.73 9.01684 14.73 8.99184C14.73 8.97184 14.715 8.95684 14.695 8.95684H14.7Z" fill="#FFFF00" stroke="black" stroke-width="0.0666669"/>
<path d="M14.39 8.95199C14.39 8.78699 14.275 8.74199 14.275 8.74199C14.275 8.74199 14.16 8.79199 14.16 8.95199H14.39ZM14.68 8.50199H13.865C13.85 8.50199 13.835 8.52199 13.835 8.54199C13.835 8.55699 13.85 8.57199 13.865 8.57199H14.68C14.695 8.57199 14.71 8.55699 14.71 8.53699C14.71 8.52199 14.695 8.50699 14.68 8.50699V8.50199ZM14.66 8.57699H13.89C13.875 8.57699 13.86 8.59199 13.86 8.61199C13.86 8.63199 13.875 8.64699 13.89 8.64699H14.665C14.685 8.64699 14.695 8.63199 14.695 8.61199C14.695 8.59199 14.685 8.57699 14.665 8.57699H14.66ZM14.41 8.04699H14.35V8.08699H14.305V8.04699H14.24V8.09199H14.195V8.04199H14.135V8.14199C14.135 8.16199 14.145 8.17199 14.16 8.17199H14.38C14.395 8.17199 14.41 8.16199 14.41 8.14699V8.04699ZM14.18 8.18199L14.165 8.50199H14.38L14.365 8.17699H14.18" fill="#FFFF00"/>
<path d="M14.18 8.18199L14.165 8.50199H14.38L14.365 8.17699H14.18M14.39 8.95199C14.39 8.78699 14.275 8.74199 14.275 8.74199C14.275 8.74199 14.16 8.79199 14.16 8.95199H14.39ZM14.68 8.50199H13.865C13.85 8.50199 13.835 8.52199 13.835 8.54199C13.835 8.55699 13.85 8.57199 13.865 8.57199H14.68C14.695 8.57199 14.71 8.55699 14.71 8.53699C14.71 8.52199 14.695 8.50699 14.68 8.50699V8.50199ZM14.66 8.57699H13.89C13.875 8.57699 13.86 8.59199 13.86 8.61199C13.86 8.63199 13.875 8.64699 13.89 8.64699H14.665C14.685 8.64699 14.695 8.63199 14.695 8.61199C14.695 8.59199 14.685 8.57699 14.665 8.57699H14.66ZM14.41 8.04699H14.35V8.08699H14.305V8.04699H14.24V8.09199H14.195V8.04199H14.135V8.14199C14.135 8.16199 14.145 8.17199 14.16 8.17199H14.38C14.395 8.17199 14.41 8.16199 14.41 8.14699V8.04699Z" stroke="black" stroke-width="0.0666669"/>
<path d="M14.4399 8.33203V8.50203H14.6399V8.33203H14.4399Z" fill="#FFFF00" stroke="black" stroke-width="0.0666669"/>
<path d="M14.4399 8.33203V8.50203H14.6399V8.33203H14.4399Z" fill="#FFFF00" stroke="black" stroke-width="0.0666669"/>
<path d="M14.675 8.20215H14.615V8.25215H14.57V8.20215H14.51V8.25215H14.465V8.20215H14.405V8.30215C14.405 8.32215 14.415 8.33215 14.43 8.33215H14.645C14.653 8.33215 14.6606 8.32899 14.6663 8.32336C14.6719 8.31774 14.675 8.31011 14.675 8.30215V8.20215Z" fill="#FFFF00" stroke="black" stroke-width="0.0666669"/>
<path d="M14.675 8.20215H14.615V8.25215H14.57V8.20215H14.51V8.25215H14.465V8.20215H14.405V8.30215C14.405 8.32215 14.415 8.33215 14.43 8.33215H14.645C14.653 8.33215 14.6606 8.32899 14.6663 8.32336C14.6719 8.31774 14.675 8.31011 14.675 8.30215V8.20215Z" fill="#FFFF00" stroke="black" stroke-width="0.0666669"/>
<path d="M14.2949 8.28227C14.2949 8.25227 14.2499 8.25227 14.2499 8.28227V8.36227H14.2949V8.28227Z" fill="black"/>
<path d="M14.5601 8.39164C14.5601 8.36164 14.5201 8.36164 14.5201 8.39164V8.45164H14.5601V8.39164Z" fill="black"/>
<path d="M14.5601 8.39164C14.5601 8.36164 14.5201 8.36164 14.5201 8.39164V8.45164H14.5601V8.39164Z" fill="black"/>
<path d="M13.5778 13.6995C13.7694 13.5022 13.6782 13.318 13.6782 13.318C13.6746 13.3145 13.477 13.2148 13.2819 13.4086L13.5743 13.7031" fill="#FFFF00"/>
<path d="M13.9352 13.5845L13.7363 13.8312L13.5884 13.6822C13.7729 13.499 13.6603 13.3289 13.6603 13.3289C13.6568 13.3254 13.4804 13.2258 13.303 13.3949L13.155 13.2458L13.4103 13.0487L13.9387 13.5809L13.9352 13.5845ZM13.7434 13.8454L13.1444 13.2423C13.1339 13.2316 13.1126 13.2316 13.0985 13.2457C13.0807 13.2633 13.0806 13.2845 13.0912 13.2951L13.6901 13.8983C13.7007 13.9089 13.7219 13.909 13.7397 13.8914C13.7539 13.8773 13.7539 13.8561 13.7398 13.8419L13.7434 13.8454Z" fill="#FFFF00" stroke="black" stroke-width="0.0666669"/>
<path d="M13.5285 13.6212C13.6455 13.5049 13.5964 13.3916 13.5964 13.3916C13.5964 13.3916 13.4799 13.3452 13.3664 13.458L13.5285 13.6212ZM14.0521 13.5099L13.4778 12.9316C13.4673 12.9209 13.4425 12.9244 13.4283 12.9385C13.4177 12.949 13.4176 12.9703 13.4282 12.9809L14.0024 13.5592C14.013 13.5698 14.0342 13.5699 14.0484 13.5558C14.0591 13.5453 14.0591 13.524 14.0486 13.5134L14.0521 13.5099ZM13.9848 13.5485L13.4422 13.0022C13.4317 12.9915 13.4105 12.9914 13.3963 13.0055C13.3821 13.0196 13.382 13.0408 13.3926 13.0515L13.9387 13.6014C13.9528 13.6156 13.9704 13.6121 13.9846 13.598C13.9988 13.5839 14.0024 13.5663 13.9883 13.5521L13.9848 13.5485ZM14.1847 12.9977L14.1424 12.9551L14.1141 12.9833L14.0824 12.9514L14.1107 12.9232L14.0649 12.8771L14.033 12.9088L14.0013 12.8768L14.0368 12.8416L13.9945 12.799L13.9235 12.8695C13.9093 12.8836 13.9093 12.8977 13.9199 12.9084L14.0749 13.0645C14.0855 13.0751 14.1031 13.0787 14.1138 13.0681L14.1847 12.9977ZM13.9269 12.9296L13.6892 13.1444L13.8407 13.297L14.0608 13.0574L13.9304 12.9261" fill="#FFFF00"/>
<path d="M13.9269 12.9296L13.6892 13.1444L13.8407 13.297L14.0608 13.0574L13.9304 12.9261M13.5285 13.6212C13.6455 13.5049 13.5964 13.3916 13.5964 13.3916C13.5964 13.3916 13.4799 13.3452 13.3664 13.458L13.5285 13.6212ZM14.0521 13.5099L13.4778 12.9316C13.4673 12.9209 13.4425 12.9244 13.4283 12.9385C13.4177 12.949 13.4176 12.9703 13.4282 12.9809L14.0024 13.5592C14.013 13.5698 14.0342 13.5699 14.0484 13.5558C14.0591 13.5453 14.0591 13.524 14.0486 13.5134L14.0521 13.5099ZM13.9848 13.5485L13.4422 13.0022C13.4317 12.9915 13.4105 12.9914 13.3963 13.0055C13.3821 13.0196 13.382 13.0408 13.3926 13.0515L13.9387 13.6014C13.9528 13.6156 13.9704 13.6121 13.9846 13.598C13.9988 13.5839 14.0024 13.5663 13.9883 13.5521L13.9848 13.5485ZM14.1847 12.9977L14.1424 12.9551L14.1141 12.9833L14.0824 12.9514L14.1107 12.9232L14.0649 12.8771L14.033 12.9088L14.0013 12.8768L14.0368 12.8416L13.9945 12.799L13.9235 12.8695C13.9093 12.8836 13.9093 12.8977 13.9199 12.9084L14.0749 13.0645C14.0855 13.0751 14.1031 13.0787 14.1138 13.0681L14.1847 12.9977Z" stroke="black" stroke-width="0.0666669"/>
<path d="M14.0036 13.2204L13.883 13.3402L14.0239 13.4821L14.1445 13.3623L14.0036 13.2204Z" fill="#FFFF00" stroke="black" stroke-width="0.0666669"/>
<path d="M14.0036 13.2204L13.883 13.3402L14.0239 13.4821L14.1445 13.3623L14.0036 13.2204Z" fill="#FFFF00" stroke="black" stroke-width="0.0666669"/>
<path d="M14.2615 13.2949L14.2192 13.2523L14.1837 13.2876L14.152 13.2556L14.1875 13.2204L14.1452 13.1778L14.1097 13.2131L14.078 13.1811L14.1135 13.1459L14.0712 13.1033L14.0003 13.1738C13.9861 13.1879 13.986 13.202 13.9966 13.2127L14.1481 13.3652C14.1537 13.3709 14.1613 13.3741 14.1693 13.3741C14.1772 13.3741 14.1849 13.371 14.1905 13.3654L14.2615 13.2949Z" fill="#FFFF00" stroke="black" stroke-width="0.0666669"/>
<path d="M14.2615 13.2949L14.2192 13.2523L14.1837 13.2876L14.152 13.2556L14.1875 13.2204L14.1452 13.1778L14.1097 13.2131L14.078 13.1811L14.1135 13.1459L14.0712 13.1033L14.0003 13.1738C13.9861 13.1879 13.986 13.202 13.9966 13.2127L14.1481 13.3652C14.1537 13.3709 14.1613 13.3741 14.1693 13.3741C14.1772 13.3741 14.1849 13.371 14.1905 13.3654L14.2615 13.2949Z" fill="#FFFF00" stroke="black" stroke-width="0.0666669"/>
<path d="M13.9369 13.0823C13.9582 13.0611 13.9265 13.0292 13.9052 13.0503L13.8484 13.1067L13.8801 13.1386L13.9369 13.0823Z" fill="black"/>
<path d="M14.0456 13.3479C14.0668 13.3267 14.0387 13.2984 14.0174 13.3195L13.9748 13.3618L14.003 13.3902L14.0456 13.3479Z" fill="black"/>
<path d="M14.0456 13.3479C14.0668 13.3267 14.0387 13.2984 14.0174 13.3195L13.9748 13.3618L14.003 13.3902L14.0456 13.3479Z" fill="black"/>
<path d="M11.6301 11.372C11.6292 11.4776 11.6686 11.5795 11.7401 11.657C11.7735 11.6944 11.8144 11.7243 11.86 11.745C11.9056 11.7657 11.9551 11.7766 12.0051 11.777C12.1101 11.777 12.2051 11.727 12.2701 11.657C12.3417 11.5795 12.381 11.4776 12.3801 11.372V10.832H11.6301V11.372Z" fill="#003399"/>
<path d="M11.8052 11.1119C11.8466 11.1119 11.8802 11.0783 11.8802 11.0369C11.8802 10.9955 11.8466 10.9619 11.8052 10.9619C11.7638 10.9619 11.7302 10.9955 11.7302 11.0369C11.7302 11.0783 11.7638 11.1119 11.8052 11.1119Z" fill="white"/>
<path d="M12.2203 11.1119C12.2617 11.1119 12.2953 11.0783 12.2953 11.0369C12.2953 10.9955 12.2617 10.9619 12.2203 10.9619C12.1788 10.9619 12.1453 10.9955 12.1453 11.0369C12.1453 11.0783 12.1788 11.1119 12.2203 11.1119Z" fill="white"/>
<path d="M12.0101 11.3121C12.0515 11.3121 12.0851 11.2785 12.0851 11.2371C12.0851 11.1957 12.0515 11.1621 12.0101 11.1621C11.9686 11.1621 11.9351 11.1957 11.9351 11.2371C11.9351 11.2785 11.9686 11.3121 12.0101 11.3121Z" fill="white"/>
<path d="M11.8052 11.5221C11.8466 11.5221 11.8802 11.4885 11.8802 11.4471C11.8802 11.4056 11.8466 11.3721 11.8052 11.3721C11.7638 11.3721 11.7302 11.4056 11.7302 11.4471C11.7302 11.4885 11.7638 11.5221 11.8052 11.5221Z" fill="white"/>
<path d="M12.2203 11.5221C12.2617 11.5221 12.2953 11.4885 12.2953 11.4471C12.2953 11.4056 12.2617 11.3721 12.2203 11.3721C12.1788 11.3721 12.1453 11.4056 12.1453 11.4471C12.1453 11.4885 12.1788 11.5221 12.2203 11.5221Z" fill="white"/>
<path d="M11.6301 11.372C11.6292 11.4776 11.6686 11.5795 11.7401 11.657C11.7735 11.6944 11.8144 11.7243 11.86 11.745C11.9056 11.7657 11.9551 11.7766 12.0051 11.777C12.1101 11.777 12.2051 11.727 12.2701 11.657C12.3417 11.5795 12.381 11.4776 12.3801 11.372V10.832H11.6301V11.372Z" fill="#003399"/>
<path d="M11.8052 11.1119C11.8466 11.1119 11.8802 11.0783 11.8802 11.0369C11.8802 10.9955 11.8466 10.9619 11.8052 10.9619C11.7638 10.9619 11.7302 10.9955 11.7302 11.0369C11.7302 11.0783 11.7638 11.1119 11.8052 11.1119Z" fill="white"/>
<path d="M12.2203 11.1119C12.2617 11.1119 12.2953 11.0783 12.2953 11.0369C12.2953 10.9955 12.2617 10.9619 12.2203 10.9619C12.1788 10.9619 12.1453 10.9955 12.1453 11.0369C12.1453 11.0783 12.1788 11.1119 12.2203 11.1119Z" fill="white"/>
<path d="M12.0101 11.3121C12.0515 11.3121 12.0851 11.2785 12.0851 11.2371C12.0851 11.1957 12.0515 11.1621 12.0101 11.1621C11.9686 11.1621 11.9351 11.1957 11.9351 11.2371C11.9351 11.2785 11.9686 11.3121 12.0101 11.3121Z" fill="white"/>
<path d="M11.8052 11.5221C11.8466 11.5221 11.8802 11.4885 11.8802 11.4471C11.8802 11.4056 11.8466 11.3721 11.8052 11.3721C11.7638 11.3721 11.7302 11.4056 11.7302 11.4471C11.7302 11.4885 11.7638 11.5221 11.8052 11.5221Z" fill="white"/>
<path d="M12.2203 11.5221C12.2617 11.5221 12.2953 11.4885 12.2953 11.4471C12.2953 11.4056 12.2617 11.3721 12.2203 11.3721C12.1788 11.3721 12.1453 11.4056 12.1453 11.4471C12.1453 11.4885 12.1788 11.5221 12.2203 11.5221Z" fill="white"/>
<path d="M11.6301 11.372C11.6292 11.4776 11.6686 11.5795 11.7401 11.657C11.7735 11.6944 11.8144 11.7243 11.86 11.745C11.9056 11.7657 11.9551 11.7766 12.0051 11.777C12.1101 11.777 12.2051 11.727 12.2701 11.657C12.3417 11.5795 12.381 11.4776 12.3801 11.372V10.832H11.6301V11.372Z" fill="#003399"/>
<path d="M11.8052 11.1119C11.8466 11.1119 11.8802 11.0783 11.8802 11.0369C11.8802 10.9955 11.8466 10.9619 11.8052 10.9619C11.7638 10.9619 11.7302 10.9955 11.7302 11.0369C11.7302 11.0783 11.7638 11.1119 11.8052 11.1119Z" fill="white"/>
<path d="M12.2203 11.1119C12.2617 11.1119 12.2953 11.0783 12.2953 11.0369C12.2953 10.9955 12.2617 10.9619 12.2203 10.9619C12.1788 10.9619 12.1453 10.9955 12.1453 11.0369C12.1453 11.0783 12.1788 11.1119 12.2203 11.1119Z" fill="white"/>
<path d="M12.0101 11.3121C12.0515 11.3121 12.0851 11.2785 12.0851 11.2371C12.0851 11.1957 12.0515 11.1621 12.0101 11.1621C11.9686 11.1621 11.9351 11.1957 11.9351 11.2371C11.9351 11.2785 11.9686 11.3121 12.0101 11.3121Z" fill="white"/>
<path d="M11.8052 11.5221C11.8466 11.5221 11.8802 11.4885 11.8802 11.4471C11.8802 11.4056 11.8466 11.3721 11.8052 11.3721C11.7638 11.3721 11.7302 11.4056 11.7302 11.4471C11.7302 11.4885 11.7638 11.5221 11.8052 11.5221Z" fill="white"/>
<path d="M12.2203 11.5221C12.2617 11.5221 12.2953 11.4885 12.2953 11.4471C12.2953 11.4056 12.2617 11.3721 12.2203 11.3721C12.1788 11.3721 12.1453 11.4056 12.1453 11.4471C12.1453 11.4885 12.1788 11.5221 12.2203 11.5221Z" fill="white"/>
<path d="M11.6301 11.372C11.6292 11.4776 11.6686 11.5795 11.7401 11.657C11.7735 11.6944 11.8144 11.7243 11.86 11.745C11.9056 11.7657 11.9551 11.7766 12.0051 11.777C12.1101 11.777 12.2051 11.727 12.2701 11.657C12.3417 11.5795 12.381 11.4776 12.3801 11.372V10.832H11.6301V11.372Z" fill="#003399"/>
<path d="M11.8052 11.1119C11.8466 11.1119 11.8802 11.0783 11.8802 11.0369C11.8802 10.9955 11.8466 10.9619 11.8052 10.9619C11.7638 10.9619 11.7302 10.9955 11.7302 11.0369C11.7302 11.0783 11.7638 11.1119 11.8052 11.1119Z" fill="white"/>
<path d="M12.2203 11.1119C12.2617 11.1119 12.2953 11.0783 12.2953 11.0369C12.2953 10.9955 12.2617 10.9619 12.2203 10.9619C12.1788 10.9619 12.1453 10.9955 12.1453 11.0369C12.1453 11.0783 12.1788 11.1119 12.2203 11.1119Z" fill="white"/>
<path d="M12.0101 11.3121C12.0515 11.3121 12.0851 11.2785 12.0851 11.2371C12.0851 11.1957 12.0515 11.1621 12.0101 11.1621C11.9686 11.1621 11.9351 11.1957 11.9351 11.2371C11.9351 11.2785 11.9686 11.3121 12.0101 11.3121Z" fill="white"/>
<path d="M11.8052 11.5221C11.8466 11.5221 11.8802 11.4885 11.8802 11.4471C11.8802 11.4056 11.8466 11.3721 11.8052 11.3721C11.7638 11.3721 11.7302 11.4056 11.7302 11.4471C11.7302 11.4885 11.7638 11.5221 11.8052 11.5221Z" fill="white"/>
<path d="M12.2203 11.5221C12.2617 11.5221 12.2953 11.4885 12.2953 11.4471C12.2953 11.4056 12.2617 11.3721 12.2203 11.3721C12.1788 11.3721 12.1453 11.4056 12.1453 11.4471C12.1453 11.4885 12.1788 11.5221 12.2203 11.5221Z" fill="white"/>
<path d="M11.6301 11.372C11.6292 11.4776 11.6686 11.5795 11.7401 11.657C11.7735 11.6944 11.8144 11.7243 11.86 11.745C11.9056 11.7657 11.9551 11.7766 12.0051 11.777C12.1101 11.777 12.2051 11.727 12.2701 11.657C12.3417 11.5795 12.381 11.4776 12.3801 11.372V10.832H11.6301V11.372Z" fill="#003399"/>
<path d="M11.8052 11.1119C11.8466 11.1119 11.8802 11.0783 11.8802 11.0369C11.8802 10.9955 11.8466 10.9619 11.8052 10.9619C11.7638 10.9619 11.7302 10.9955 11.7302 11.0369C11.7302 11.0783 11.7638 11.1119 11.8052 11.1119Z" fill="white"/>
<path d="M12.2203 11.1119C12.2617 11.1119 12.2953 11.0783 12.2953 11.0369C12.2953 10.9955 12.2617 10.9619 12.2203 10.9619C12.1788 10.9619 12.1453 10.9955 12.1453 11.0369C12.1453 11.0783 12.1788 11.1119 12.2203 11.1119Z" fill="white"/>
<path d="M12.0101 11.3121C12.0515 11.3121 12.0851 11.2785 12.0851 11.2371C12.0851 11.1957 12.0515 11.1621 12.0101 11.1621C11.9686 11.1621 11.9351 11.1957 11.9351 11.2371C11.9351 11.2785 11.9686 11.3121 12.0101 11.3121Z" fill="white"/>
<path d="M11.8052 11.5221C11.8466 11.5221 11.8802 11.4885 11.8802 11.4471C11.8802 11.4056 11.8466 11.3721 11.8052 11.3721C11.7638 11.3721 11.7302 11.4056 11.7302 11.4471C11.7302 11.4885 11.7638 11.5221 11.8052 11.5221Z" fill="white"/>
<path d="M12.2203 11.5221C12.2617 11.5221 12.2953 11.4885 12.2953 11.4471C12.2953 11.4056 12.2617 11.3721 12.2203 11.3721C12.1788 11.3721 12.1453 11.4056 12.1453 11.4471C12.1453 11.4885 12.1788 11.5221 12.2203 11.5221Z" fill="white"/>
</g>
<defs>
<clipPath id="clip0_4056_7357">
<rect width="30" height="22.5" fill="white"/>
</clipPath>
</defs>
</svg>
