<svg width="168" height="56" viewBox="0 0 168 56" fill="none" xmlns="http://www.w3.org/2000/svg">
<path d="M154.188 0.000181999H13.3485C12.8351 0.000181999 12.3279 0.000181999 11.8159 0.00298199C11.3873 0.00578198 10.9621 0.013916 10.5294 0.0207619C9.58929 0.0318244 8.65142 0.114528 7.72391 0.268155C6.79771 0.425126 5.90052 0.721062 5.06269 1.14595C4.22589 1.57444 3.46127 2.13121 2.79659 2.79607C2.12842 3.45906 1.57144 4.22539 1.14709 5.06559C0.721558 5.90412 0.426495 6.80267 0.272089 7.73023C0.116215 8.65661 0.0323376 9.59368 0.0212099 10.533C0.00821797 10.9623 0.00684598 11.3929 0 11.8222V44.1821C0.00684598 44.6168 0.00821797 45.0379 0.0212099 45.4727C0.032341 46.412 0.116218 47.349 0.272089 48.2754C0.426069 49.2035 0.721149 50.1026 1.14709 50.9414C1.57125 51.7789 2.1283 52.5421 2.79659 53.2014C3.45875 53.8692 4.22386 54.4264 5.06269 54.8516C5.90052 55.2776 6.79761 55.5753 7.72391 55.7347C8.65158 55.8871 9.58935 55.9698 10.5294 55.9822C10.9621 55.9917 11.3873 55.9972 11.8159 55.9972C12.3279 56 12.8352 56 13.3485 56H154.188C154.691 56 155.203 56 155.706 55.9972C156.132 55.9972 156.57 55.9917 156.996 55.9822C157.935 55.9705 158.871 55.8878 159.796 55.7347C160.726 55.5742 161.626 55.2766 162.468 54.8516C163.306 54.4261 164.07 53.869 164.732 53.2014C165.399 52.5395 165.957 51.7769 166.386 50.9414C166.809 50.1019 167.101 49.2029 167.253 48.2754C167.409 47.3489 167.496 46.4121 167.513 45.4727C167.518 45.0379 167.518 44.6168 167.518 44.1821C167.529 43.6735 167.529 43.1676 167.529 42.6508V13.3507C167.529 12.838 167.529 12.3294 167.518 11.8222C167.518 11.3929 167.518 10.9623 167.513 10.533C167.496 9.59354 167.409 8.65668 167.253 7.73017C167.101 6.80315 166.809 5.90467 166.386 5.06553C165.522 3.38145 164.152 2.01061 162.468 1.14583C161.626 0.721974 160.726 0.426117 159.796 0.268029C158.871 0.113726 157.935 0.0309928 156.996 0.0205659C156.57 0.013734 156.132 0.00552998 155.706 0.00279999C155.203 0 154.691 0 154.188 0V0.000181999Z" fill="#26064F"/>
<path d="M11.8232 54.7749C11.3966 54.7749 10.9804 54.7695 10.5572 54.7599C9.68046 54.7485 8.80581 54.6722 7.94038 54.5316C7.13341 54.3926 6.35167 54.1341 5.62095 53.7646C4.89693 53.3981 4.23657 52.9175 3.66516 52.3413C3.08548 51.7719 2.60287 51.1115 2.23645 50.3862C1.866 49.6562 1.60962 48.8738 1.47625 48.0662C1.33223 47.1983 1.2543 46.3208 1.24315 45.4412C1.23428 45.1459 1.22266 44.1628 1.22266 44.1628V11.8221C1.22266 11.8221 1.23503 10.8542 1.24322 10.5698C1.2539 9.69155 1.33137 8.81539 1.47496 7.9489C1.60858 7.13903 1.86515 6.35433 2.23581 5.62197C2.60087 4.89721 3.08081 4.23629 3.657 3.66484C4.23254 3.08796 4.89501 2.60494 5.62027 2.23339C6.34931 1.86503 7.12957 1.60832 7.93491 1.47187C8.80318 1.32987 9.68087 1.25309 10.5606 1.24219L11.8239 1.2251H155.699L156.978 1.24288C157.849 1.25324 158.719 1.32933 159.579 1.4705C160.393 1.60866 161.181 1.86716 161.919 2.23749C163.372 2.98627 164.554 4.17092 165.3 5.62538C165.664 6.35269 165.917 7.13099 166.049 7.93386C166.194 8.80746 166.276 9.69051 166.292 10.5759C166.296 10.9724 166.296 11.3983 166.296 11.8221C166.307 12.3471 166.307 12.8468 166.307 13.3506V42.6507C166.307 43.1593 166.307 43.6556 166.296 44.156C166.296 44.6112 166.296 45.0283 166.291 45.4575C166.275 46.3272 166.195 47.1945 166.052 48.0524C165.921 48.8659 165.666 49.6545 165.296 50.3904C164.927 51.1078 164.447 51.7625 163.874 52.3304C163.302 52.9097 162.64 53.3931 161.915 53.7619C161.179 54.1343 160.392 54.3938 159.579 54.5316C158.714 54.673 157.839 54.7493 156.963 54.7599C156.553 54.7695 156.123 54.7749 155.706 54.7749L154.189 54.7777L11.8232 54.7749Z" fill="#26064F"/>
<path d="M34.6771 28.4204C34.6922 27.2519 35.0025 26.1062 35.5794 25.0898C36.1562 24.0735 36.9808 23.2196 37.9763 22.6076C37.3439 21.7043 36.5095 20.961 35.5396 20.4366C34.5696 19.9123 33.4908 19.6213 32.3887 19.5868C30.0377 19.34 27.7586 20.9936 26.5606 20.9936C25.3395 20.9936 23.495 19.6113 21.5088 19.6522C20.224 19.6937 18.9719 20.0673 17.8745 20.7366C16.7771 21.4058 15.8717 22.348 15.2467 23.4712C12.5391 28.159 14.5587 35.0484 17.1524 38.8376C18.45 40.6931 19.9666 42.7658 21.951 42.6923C23.8929 42.6117 24.6182 41.454 26.9622 41.454C29.2844 41.454 29.9649 42.6923 31.9896 42.6455C34.0733 42.6117 35.3861 40.7818 36.6383 38.9087C37.5706 37.5866 38.2881 36.1254 38.764 34.5792C37.5534 34.0672 36.5204 33.2102 35.7936 32.115C35.0668 31.0197 34.6785 29.7348 34.6771 28.4204Z" fill="white"/>
<path d="M30.8538 17.0956C31.9899 15.7317 32.5496 13.9787 32.4141 12.2087C30.6783 12.391 29.075 13.2206 27.9235 14.5322C27.3605 15.1729 26.9293 15.9183 26.6546 16.7258C26.3798 17.5333 26.2669 18.387 26.3223 19.2381C27.1905 19.2471 28.0494 19.0589 28.8343 18.6878C29.6192 18.3166 30.3097 17.7722 30.8538 17.0956Z" fill="white"/>
<path d="M59.2281 37.9955H52.6014L51.01 42.6945H48.2031L54.4799 25.3093H57.3961L63.6728 42.6945H60.8181L59.2281 37.9955ZM53.2877 35.8271H58.5405L55.951 28.2009H55.8785L53.2877 35.8271Z" fill="white"/>
<path d="M77.2287 36.3573C77.2287 40.2961 75.1205 42.8268 71.9391 42.8268C71.1332 42.8689 70.3317 42.6833 69.6264 42.2911C68.9211 41.8989 68.3404 41.316 67.951 40.6092H67.8908V46.8873H65.2891V30.019H67.8075V32.1272H67.8553C68.2626 31.4237 68.8531 30.8439 69.5637 30.4493C70.2744 30.0547 71.0788 29.8602 71.8912 29.8864C75.1082 29.8864 77.2287 32.4293 77.2287 36.3573ZM74.5545 36.3573C74.5545 33.7911 73.2283 32.1039 71.2049 32.1039C69.217 32.1039 67.8799 33.8266 67.8799 36.3573C67.8799 38.9112 69.217 40.6215 71.2049 40.6215C73.2283 40.6215 74.5545 38.9467 74.5545 36.3573Z" fill="white"/>
<path d="M91.1779 36.3572C91.1779 40.2961 89.0697 42.8268 85.8883 42.8268C85.0824 42.8689 84.2809 42.6833 83.5756 42.2911C82.8703 41.8989 82.2897 41.316 81.9002 40.6092H81.84V46.8873H79.2383V30.019H81.7566V32.1272H81.8045C82.2118 31.4237 82.8022 30.8439 83.5129 30.4493C84.2236 30.0547 85.028 29.8602 85.8404 29.8864C89.0574 29.8864 91.1779 32.4293 91.1779 36.3572ZM88.5037 36.3572C88.5037 33.7911 87.1775 32.1039 85.1541 32.1039C83.1662 32.1039 81.8291 33.8266 81.8291 36.3572C81.8291 38.9111 83.1662 40.6215 85.1541 40.6215C87.1776 40.6215 88.5037 38.9467 88.5037 36.3572H88.5037Z" fill="white"/>
<path d="M100.402 37.8506C100.594 39.5746 102.269 40.7065 104.558 40.7065C106.751 40.7065 108.329 39.5745 108.329 38.02C108.329 36.6706 107.377 35.8626 105.124 35.3089L102.871 34.7661C99.6784 33.995 98.1963 32.5021 98.1963 30.0794C98.1963 27.0798 100.81 25.0195 104.522 25.0195C108.196 25.0195 110.714 27.0798 110.799 30.0794H108.173C108.015 28.3445 106.581 27.2972 104.485 27.2972C102.389 27.2972 100.955 28.3568 100.955 29.899C100.955 31.1281 101.871 31.8513 104.112 32.405L106.028 32.8753C109.594 33.7188 111.077 35.1517 111.077 37.6946C111.077 40.9471 108.486 42.9842 104.365 42.9842C100.51 42.9842 97.9064 40.995 97.7383 37.8504L100.402 37.8506Z" fill="white"/>
<path d="M116.687 27.0208V30.0204H119.098V32.0807H116.687V39.0684C116.687 40.1539 117.17 40.6598 118.23 40.6598C118.516 40.6548 118.801 40.6347 119.086 40.5996V42.6476C118.609 42.7366 118.125 42.7769 117.64 42.7679C115.074 42.7679 114.073 41.8041 114.073 39.3459V32.0807H112.23V30.0204H114.073V27.0208H116.687Z" fill="white"/>
<path d="M120.496 36.3586C120.496 32.3706 122.845 29.8645 126.508 29.8645C130.183 29.8645 132.52 32.3705 132.52 36.3586C132.52 40.3576 130.195 42.8527 126.508 42.8527C122.822 42.8527 120.496 40.3576 120.496 36.3586ZM129.869 36.3586C129.869 33.6229 128.616 32.0082 126.508 32.0082C124.399 32.0082 123.147 33.6352 123.147 36.3586C123.147 39.1053 124.399 40.7076 126.508 40.7076C128.616 40.7076 129.869 39.1053 129.869 36.3586H129.869Z" fill="white"/>
<path d="M134.664 30.0189H137.146V32.1763H137.206C137.374 31.5025 137.768 30.907 138.324 30.49C138.879 30.0729 139.561 29.8597 140.255 29.8862C140.554 29.8852 140.853 29.9178 141.146 29.9833V32.4169C140.767 32.3012 140.373 32.2481 139.977 32.2597C139.599 32.2443 139.222 32.311 138.872 32.455C138.523 32.5991 138.208 32.8171 137.951 33.0941C137.693 33.3712 137.498 33.7007 137.38 34.06C137.262 34.4194 137.223 34.8 137.266 35.1759V42.694H134.664L134.664 30.0189Z" fill="white"/>
<path d="M153.141 38.9727C152.791 41.2736 150.55 42.8527 147.683 42.8527C143.996 42.8527 141.707 40.3822 141.707 36.4188C141.707 32.443 144.008 29.8645 147.574 29.8645C151.08 29.8645 153.286 32.2735 153.286 36.1166V37.008H144.333V37.1653C144.292 37.6317 144.35 38.1017 144.505 38.5438C144.659 38.986 144.906 39.3903 145.228 39.7299C145.551 40.0694 145.942 40.3365 146.375 40.5133C146.809 40.6902 147.275 40.7727 147.743 40.7555C148.358 40.8131 148.975 40.6707 149.502 40.3495C150.03 40.0283 150.439 39.5454 150.67 38.9727L153.141 38.9727ZM144.346 35.1897H150.683C150.706 34.7702 150.642 34.3505 150.496 33.9568C150.349 33.5631 150.123 33.204 149.831 32.9019C149.539 32.5998 149.188 32.3614 148.799 32.2015C148.411 32.0416 147.994 31.9637 147.574 31.9727C147.15 31.9702 146.73 32.0516 146.338 32.2122C145.946 32.3729 145.589 32.6095 145.289 32.9086C144.989 33.2077 144.751 33.5633 144.589 33.9548C144.427 34.3463 144.345 34.766 144.346 35.1897V35.1897Z" fill="white"/>
<path d="M52.9549 12.2238C53.5003 12.1847 54.0477 12.2671 54.5574 12.4651C55.0672 12.6631 55.5266 12.9718 55.9027 13.3689C56.2787 13.7659 56.5619 14.2415 56.7318 14.7613C56.9018 15.2811 56.9543 15.8321 56.8855 16.3746C56.8855 19.0433 55.4432 20.5774 52.9549 20.5774H49.9375V12.2238H52.9549ZM51.2349 19.396H52.8099C53.1997 19.4193 53.5898 19.3554 53.9517 19.2089C54.3137 19.0625 54.6384 18.8372 54.9023 18.5494C55.1662 18.2616 55.3626 17.9186 55.4772 17.5453C55.5918 17.172 55.6217 16.7779 55.5648 16.3916C55.6176 16.0069 55.5846 15.6152 55.4683 15.2446C55.3519 14.8741 55.155 14.5339 54.8917 14.2484C54.6284 13.9629 54.3053 13.7392 53.9454 13.5933C53.5854 13.4473 53.1977 13.3828 52.8099 13.4043H51.2349V19.396Z" fill="white"/>
<path d="M58.35 17.4236C58.3104 17.0093 58.3578 16.5914 58.4891 16.1965C58.6205 15.8016 58.833 15.4385 59.1129 15.1305C59.3928 14.8225 59.734 14.5765 60.1146 14.4081C60.4952 14.2397 60.9068 14.1527 61.3229 14.1527C61.7391 14.1527 62.1507 14.2397 62.5313 14.4081C62.9119 14.5765 63.2531 14.8225 63.533 15.1305C63.8129 15.4385 64.0254 15.8016 64.1567 16.1965C64.2881 16.5914 64.3355 17.0093 64.2959 17.4236C64.3363 17.8383 64.2894 18.2569 64.1584 18.6524C64.0274 19.048 63.815 19.4117 63.5351 19.7203C63.2551 20.0289 62.9136 20.2755 62.5326 20.4442C62.1517 20.613 61.7396 20.7001 61.3229 20.7001C60.9063 20.7001 60.4942 20.613 60.1132 20.4442C59.7323 20.2755 59.3908 20.0289 59.1108 19.7203C58.8308 19.4117 58.6185 19.048 58.4875 18.6524C58.3564 18.2569 58.3096 17.8383 58.35 17.4236ZM63.0162 17.4236C63.0162 16.0571 62.4023 15.258 61.325 15.258C60.2435 15.258 59.6352 16.0571 59.6352 17.4236C59.6352 18.8011 60.2436 19.594 61.325 19.594C62.4023 19.594 63.0162 18.7956 63.0162 17.4236H63.0162Z" fill="white"/>
<path d="M72.2008 20.5775H70.9101L69.6072 15.9345H69.5088L68.2113 20.5775H66.933L65.1953 14.2734H66.4572L67.5865 19.0838H67.6795L68.9756 14.2734H70.1691L71.4652 19.0838H71.5637L72.6875 14.2734H73.9316L72.2008 20.5775Z" fill="white"/>
<path d="M75.3945 14.2729H76.5922V15.2744H76.6852C76.8429 14.9147 77.1089 14.6132 77.4461 14.4118C77.7833 14.2105 78.1749 14.1194 78.5664 14.1512C78.8731 14.1282 79.1811 14.1744 79.4676 14.2865C79.754 14.3987 80.0115 14.5738 80.2211 14.799C80.4307 15.0242 80.5869 15.2936 80.6781 15.5874C80.7694 15.8811 80.7934 16.1916 80.7484 16.4959V20.5769H79.5043V16.8084C79.5043 15.7953 79.0641 15.2915 78.1439 15.2915C77.9357 15.2818 77.7278 15.3172 77.5345 15.3954C77.3412 15.4735 77.1671 15.5926 77.0242 15.7443C76.8812 15.896 76.7727 16.0769 76.7062 16.2745C76.6396 16.4721 76.6166 16.6817 76.6387 16.889V20.577H75.3945L75.3945 14.2729Z" fill="white"/>
<path d="M82.7266 11.8124H83.9707V20.5774H82.7266V11.8124Z" fill="white"/>
<path d="M85.7015 17.4216C85.6619 17.0073 85.7093 16.5893 85.8408 16.1944C85.9722 15.7995 86.1847 15.4364 86.4646 15.1284C86.7445 14.8204 87.0858 14.5743 87.4664 14.4059C87.847 14.2376 88.2586 14.1506 88.6748 14.1506C89.091 14.1506 89.5026 14.2376 89.8832 14.4059C90.2638 14.5743 90.6051 14.8204 90.885 15.1284C91.165 15.4364 91.3774 15.7995 91.5088 16.1944C91.6403 16.5893 91.6877 17.0073 91.6481 17.4216C91.6884 17.8363 91.6415 18.2549 91.5105 18.6504C91.3794 19.046 91.167 19.4097 90.887 19.7183C90.607 20.0269 90.2655 20.2734 89.8845 20.4422C89.5036 20.6109 89.0915 20.6981 88.6748 20.6981C88.2581 20.6981 87.846 20.6109 87.4651 20.4422C87.0841 20.2734 86.7426 20.0269 86.4626 19.7183C86.1826 19.4097 85.9702 19.046 85.8391 18.6504C85.7081 18.2549 85.6612 17.8363 85.7015 17.4216ZM90.3677 17.4216C90.3677 16.0551 89.7538 15.256 88.6765 15.256C87.5951 15.256 86.9867 16.0551 86.9867 17.4216C86.9867 18.7991 87.5951 19.592 88.6765 19.592C89.7538 19.592 90.3677 18.7936 90.3677 17.4216H90.3677Z" fill="white"/>
<path d="M92.9609 18.7957C92.9609 17.6609 93.8059 17.0067 95.3056 16.9137L97.0133 16.8153V16.2712C97.0133 15.6053 96.573 15.2294 95.7227 15.2294C95.0281 15.2294 94.5469 15.4843 94.4088 15.93H93.2043C93.3314 14.8472 94.35 14.1527 95.7801 14.1527C97.3605 14.1527 98.2519 14.9395 98.2519 16.2712V20.5785H97.0543V19.6925H96.9559C96.7561 20.0103 96.4755 20.2694 96.1428 20.4433C95.8101 20.6172 95.4373 20.6997 95.0623 20.6823C94.7977 20.7099 94.5302 20.6816 94.2771 20.5994C94.024 20.5173 93.791 20.383 93.593 20.2052C93.395 20.0275 93.2365 19.8102 93.1276 19.5674C93.0188 19.3246 92.962 19.0617 92.9609 18.7957ZM97.0133 18.257V17.7299L95.4738 17.8284C94.6057 17.8865 94.2119 18.1818 94.2119 18.7375C94.2119 19.3049 94.7041 19.6351 95.3809 19.6351C95.5792 19.6552 95.7795 19.6351 95.9699 19.5762C96.1603 19.5173 96.3369 19.4207 96.4892 19.2921C96.6415 19.1635 96.7664 19.0056 96.8564 18.8278C96.9465 18.65 96.9998 18.4558 97.0133 18.257Z" fill="white"/>
<path d="M99.8828 17.4227C99.8828 15.4307 100.907 14.1688 102.5 14.1688C102.894 14.1506 103.285 14.245 103.627 14.4409C103.969 14.6367 104.249 14.926 104.433 15.2748H104.526V11.8124H105.77V20.5774H104.578V19.5814H104.479C104.281 19.9279 103.992 20.2136 103.643 20.4075C103.294 20.6013 102.899 20.696 102.5 20.6813C100.896 20.6814 99.8828 19.4195 99.8828 17.4227ZM101.168 17.4227C101.168 18.7598 101.798 19.5644 102.852 19.5644C103.901 19.5644 104.549 18.7482 104.549 17.4282C104.549 16.1143 103.894 15.2865 102.852 15.2865C101.805 15.2865 101.168 16.0965 101.168 17.4227H101.168Z" fill="white"/>
<path d="M110.92 17.4236C110.881 17.0093 110.928 16.5914 111.059 16.1965C111.191 15.8016 111.403 15.4385 111.683 15.1305C111.963 14.8225 112.304 14.5765 112.685 14.4081C113.065 14.2397 113.477 14.1527 113.893 14.1527C114.309 14.1527 114.721 14.2397 115.102 14.4081C115.482 14.5765 115.823 14.8225 116.103 15.1305C116.383 15.4385 116.596 15.8016 116.727 16.1965C116.858 16.5914 116.906 17.0093 116.866 17.4236C116.907 17.8383 116.86 18.2569 116.729 18.6524C116.598 19.048 116.385 19.4117 116.105 19.7203C115.825 20.0289 115.484 20.2755 115.103 20.4442C114.722 20.613 114.31 20.7001 113.893 20.7001C113.477 20.7001 113.065 20.613 112.684 20.4442C112.303 20.2755 111.961 20.0289 111.681 19.7203C111.401 19.4117 111.189 19.048 111.058 18.6524C110.927 18.2569 110.88 17.8383 110.92 17.4236ZM115.587 17.4236C115.587 16.0571 114.973 15.258 113.895 15.258C112.814 15.258 112.206 16.0571 112.206 17.4236C112.206 18.8011 112.814 19.594 113.895 19.594C114.973 19.594 115.587 18.7956 115.587 17.4236Z" fill="white"/>
<path d="M118.535 14.2729H119.733V15.2744H119.826C119.984 14.9147 120.249 14.6132 120.587 14.4118C120.924 14.2105 121.316 14.1194 121.707 14.1512C122.014 14.1282 122.322 14.1744 122.608 14.2865C122.895 14.3987 123.152 14.5738 123.362 14.799C123.571 15.0242 123.727 15.2936 123.819 15.5874C123.91 15.8811 123.934 16.1916 123.889 16.4959V20.5769H122.645V16.8084C122.645 15.7953 122.205 15.2915 121.285 15.2915C121.076 15.2818 120.868 15.3172 120.675 15.3954C120.482 15.4735 120.308 15.5926 120.165 15.7443C120.022 15.896 119.913 16.0769 119.847 16.2745C119.78 16.4721 119.757 16.6817 119.779 16.889V20.577H118.535V14.2729Z" fill="white"/>
<path d="M130.918 12.7039V14.3022H132.284V15.3501H130.918V18.5917C130.918 19.252 131.19 19.5412 131.81 19.5412C131.968 19.5407 132.127 19.5311 132.284 19.5125V20.5488C132.061 20.5888 131.834 20.61 131.607 20.6124C130.224 20.6124 129.673 20.1257 129.673 18.9102V15.35H128.672V14.3021H129.673V12.7039H130.918Z" fill="white"/>
<path d="M133.984 11.8124H135.218V15.2865H135.316C135.481 14.9234 135.755 14.6202 136.099 14.4181C136.443 14.216 136.841 14.1249 137.238 14.1572C137.543 14.1406 137.848 14.1915 138.132 14.3064C138.415 14.4212 138.669 14.5972 138.876 14.8216C139.084 15.0461 139.239 15.3136 139.331 15.605C139.423 15.8964 139.45 16.2045 139.409 16.5074V20.5775H138.164V16.8143C138.164 15.8073 137.695 15.2974 136.816 15.2974C136.602 15.2798 136.387 15.3092 136.186 15.3835C135.984 15.4578 135.802 15.5751 135.651 15.7274C135.499 15.8796 135.383 16.063 135.31 16.2648C135.237 16.4666 135.21 16.6819 135.229 16.8956V20.5774H133.984L133.984 11.8124Z" fill="white"/>
<path d="M146.663 18.8743C146.494 19.4504 146.128 19.9488 145.628 20.2822C145.129 20.6156 144.528 20.7628 143.931 20.6981C143.516 20.7091 143.103 20.6295 142.722 20.465C142.34 20.3004 141.999 20.0549 141.722 19.7453C141.445 19.4357 141.238 19.0695 141.117 18.6721C140.996 18.2748 140.962 17.8558 141.019 17.4442C140.964 17.0314 140.998 16.6115 141.119 16.2129C141.24 15.8144 141.445 15.4465 141.721 15.1342C141.996 14.8219 142.336 14.5725 142.716 14.4028C143.097 14.2331 143.509 14.1471 143.926 14.1507C145.68 14.1507 146.738 15.3491 146.738 17.3287V17.7628H142.286V17.8325C142.267 18.0639 142.296 18.2967 142.372 18.5162C142.448 18.7356 142.568 18.9368 142.726 19.1068C142.885 19.2769 143.076 19.412 143.29 19.5036C143.503 19.5951 143.733 19.6411 143.965 19.6385C144.263 19.6742 144.564 19.6206 144.832 19.4846C145.099 19.3485 145.319 19.136 145.465 18.8743L146.663 18.8743ZM142.286 16.8427H145.471C145.486 16.6311 145.458 16.4186 145.386 16.2188C145.315 16.019 145.202 15.8363 145.056 15.6825C144.91 15.5287 144.734 15.4072 144.538 15.3257C144.342 15.2443 144.131 15.2047 143.919 15.2096C143.704 15.2069 143.49 15.2473 143.291 15.3284C143.091 15.4095 142.91 15.5297 142.758 15.6819C142.606 15.8341 142.486 16.0152 142.405 16.2146C142.324 16.4139 142.284 16.6275 142.286 16.8427H142.286Z" fill="white"/>
</svg>
