<svg width="104" height="95" viewBox="0 0 104 95" fill="none" xmlns="http://www.w3.org/2000/svg">
<rect width="104" height="94.66" rx="4" fill="#231F20"/>
<rect x="5" y="4.7998" width="94" height="84.9043" rx="3.5" stroke="#E5443C"/>
<path d="M17.656 20L15.698 12.3H17.194L18.822 19.065H18.976L20.604 12.3H22.1L20.142 20H17.656ZM24.1258 20V12.3H29.0758V13.62H25.5778V15.457H28.7678V16.777H25.5778V18.68H29.1418V20H24.1258ZM31.3166 20V12.3H34.6606C35.1446 12.3 35.5663 12.3843 35.9256 12.553C36.285 12.7217 36.5636 12.96 36.7616 13.268C36.9596 13.576 37.0586 13.939 37.0586 14.357V14.489C37.0586 14.951 36.9486 15.325 36.7286 15.611C36.5086 15.897 36.2373 16.106 35.9146 16.238V16.436C36.208 16.4507 36.4353 16.5533 36.5966 16.744C36.758 16.9273 36.8386 17.173 36.8386 17.481V20H35.3866V17.69C35.3866 17.514 35.339 17.371 35.2436 17.261C35.1556 17.151 35.0053 17.096 34.7926 17.096H32.7686V20H31.3166ZM32.7686 15.776H34.5066C34.8513 15.776 35.119 15.6843 35.3096 15.501C35.5076 15.3103 35.6066 15.061 35.6066 14.753V14.643C35.6066 14.335 35.5113 14.0893 35.3206 13.906C35.13 13.7153 34.8586 13.62 34.5066 13.62H32.7686V15.776ZM39.3668 20V12.3H40.8188V20H39.3668ZM43.3672 20V12.3H48.2072V13.62H44.8192V15.479H47.9432V16.799H44.8192V20H43.3672ZM50.3432 20V12.3H51.7952V20H50.3432ZM54.3436 20V12.3H59.2936V13.62H55.7956V15.457H58.9856V16.777H55.7956V18.68H59.3596V20H54.3436ZM61.3144 20V18.724H62.3264V13.576H61.3144V12.3H64.4824C65.5164 12.3 66.3011 12.564 66.8364 13.092C67.3791 13.6127 67.6504 14.39 67.6504 15.424V16.876C67.6504 17.91 67.3791 18.691 66.8364 19.219C66.3011 19.7397 65.5164 20 64.4824 20H61.3144ZM63.7784 18.68H64.5044C65.0911 18.68 65.5201 18.526 65.7914 18.218C66.0627 17.91 66.1984 17.4773 66.1984 16.92V15.38C66.1984 14.8153 66.0627 14.3827 65.7914 14.082C65.5201 13.774 65.0911 13.62 64.5044 13.62H63.7784V18.68ZM73.6335 20V18.724H74.6455V13.576H73.6335V12.3H77.5935C78.0629 12.3 78.4699 12.3807 78.8145 12.542C79.1665 12.696 79.4379 12.9197 79.6285 13.213C79.8265 13.499 79.9255 13.8437 79.9255 14.247V14.357C79.9255 14.709 79.8595 14.9987 79.7275 15.226C79.5955 15.446 79.4379 15.6183 79.2545 15.743C79.0785 15.8603 78.9099 15.9447 78.7485 15.996V16.194C78.9099 16.238 79.0859 16.3223 79.2765 16.447C79.4672 16.5643 79.6285 16.7367 79.7605 16.964C79.8999 17.1913 79.9695 17.4883 79.9695 17.855V17.965C79.9695 18.3903 79.8705 18.757 79.6725 19.065C79.4745 19.3657 79.1995 19.5967 78.8475 19.758C78.5029 19.9193 78.0995 20 77.6375 20H73.6335ZM76.0975 18.68H77.4615C77.7769 18.68 78.0299 18.603 78.2205 18.449C78.4185 18.295 78.5175 18.075 78.5175 17.789V17.679C78.5175 17.393 78.4222 17.173 78.2315 17.019C78.0409 16.865 77.7842 16.788 77.4615 16.788H76.0975V18.68ZM76.0975 15.468H77.4395C77.7402 15.468 77.9859 15.391 78.1765 15.237C78.3745 15.083 78.4735 14.8703 78.4735 14.599V14.489C78.4735 14.2103 78.3782 13.9977 78.1875 13.851C77.9969 13.697 77.7475 13.62 77.4395 13.62H76.0975V15.468ZM84.0878 20V17.349L81.4698 12.3H83.0868L84.7148 15.6H84.9128L86.5408 12.3H88.1578L85.5398 17.349V20H84.0878Z" fill="white"/>
<g clip-path="url(#clip0_6484_3663)">
<mask id="mask0_6484_3663" style="mask-type:luminance" maskUnits="userSpaceOnUse" x="4" y="24" width="96" height="73">
<path d="M99.3897 24.3657H4.5V96.0791H99.3897V24.3657Z" fill="white"/>
</mask>
<g mask="url(#mask0_6484_3663)">
<path fill-rule="evenodd" clip-rule="evenodd" d="M25.9142 72.0842H18.9583C18.8381 72.0848 18.7229 72.1329 18.6379 72.2179C18.5529 72.3029 18.5049 72.4179 18.5043 72.5382V78.1212C18.5051 78.2413 18.5532 78.3563 18.6382 78.4413C18.7231 78.5263 18.8381 78.5743 18.9583 78.5752H25.9142V79.5209H18.9583C18.7747 79.5217 18.5929 79.4862 18.4231 79.4164C18.2534 79.3465 18.0992 79.2437 17.9694 79.114C17.8397 78.9842 17.7369 78.83 17.667 78.6603C17.5972 78.4905 17.5617 78.3087 17.5625 78.1252V72.5421C17.5617 72.3586 17.5972 72.1767 17.667 72.007C17.7369 71.8373 17.8397 71.683 17.9694 71.5533C18.0992 71.4235 18.2534 71.3207 18.4231 71.2509C18.5929 71.181 18.7747 71.1455 18.9583 71.1464H25.9142V72.0842ZM38.9757 71.1416V72.0874H32.2767V74.8513H37.6611V75.8049H32.2759V78.5736H38.9749V79.5194H31.3302V71.1416H38.9757Z" fill="white"/>
<path d="M52.7703 72.5491V75.0033C52.7715 75.1868 52.7358 75.3686 52.6657 75.5383C52.5956 75.708 52.4933 75.8622 52.3632 75.9919C52.2337 76.1217 52.0793 76.2244 51.9097 76.2943C51.74 76.3642 51.558 76.3998 51.3747 76.3991H50.0956L52.724 79.5161H51.4794L48.8623 76.3991H45.7885C45.6365 76.3913 45.485 76.3758 45.3346 76.3526V79.5161H44.3888V71.1533H51.3674C51.5512 71.1526 51.7327 71.1882 51.9023 71.2581C52.0725 71.328 52.2264 71.4308 52.3564 71.5605C52.4859 71.6903 52.5888 71.8445 52.6584 72.0141C52.7285 72.1838 52.7641 72.3656 52.7636 72.5491H52.7703ZM45.7917 75.4455H51.3747C51.433 75.4462 51.4907 75.4353 51.545 75.4133C51.5987 75.3913 51.6479 75.3588 51.6891 75.3176C51.7304 75.2764 51.7627 75.2274 51.7847 75.1734C51.8068 75.1194 51.8175 75.0616 51.8169 75.0033V72.5491C51.8175 72.49 51.8068 72.4313 51.7853 72.3763C51.7632 72.3214 51.7304 72.2714 51.6891 72.2291C51.649 72.1859 51.6004 72.1516 51.5461 72.1285C51.4918 72.1054 51.433 72.0941 51.3742 72.0951H45.7909C45.6707 72.0958 45.5556 72.1438 45.4706 72.2288C45.3856 72.3138 45.3376 72.4289 45.3369 72.5491V75.0033C45.3357 75.0624 45.347 75.1209 45.3701 75.1753C45.3932 75.2296 45.4276 75.2785 45.4709 75.3186C45.5132 75.36 45.5634 75.3925 45.6185 75.4143C45.6736 75.4361 45.7324 75.4467 45.7917 75.4455Z" fill="white"/>
<path fill-rule="evenodd" clip-rule="evenodd" d="M57.7725 71.1416H66.1438V72.0874H62.44V79.5201H61.4939V72.0874H57.7725V71.1416ZM71.2179 79.5162V71.1416H72.1639V79.5162H71.2179ZM84.7333 71.1416H85.9434L82.4425 75.3289L85.9547 79.5162H84.7333L81.6164 75.8057H78.9179V79.5162H77.9657V71.1416H78.9196V74.8513H81.6181L84.7333 71.1416Z" fill="white"/>
<path fill-rule="evenodd" clip-rule="evenodd" d="M66.8128 35.5324L67.0051 36.6949C67.1566 37.7762 67.2268 38.8675 67.2151 39.9594C67.2138 42.3723 66.9228 44.7763 66.3481 47.1198C65.571 50.3036 64.2174 53.3181 62.3544 56.0143C60.2015 59.1107 57.0887 62.1562 52.5513 64.6033L51.9961 64.9025L51.4411 64.6033C46.9037 62.1562 43.7922 59.1107 41.6381 56.0143C39.775 53.3181 38.4215 50.3036 37.6443 47.1198C37.0697 44.7767 36.7787 42.3731 36.7773 39.9606C36.7656 38.8687 36.8358 37.7775 36.9874 36.6961L37.1796 35.5337C37.196 35.4389 37.1935 35.3418 37.1722 35.248C37.1509 35.1542 37.1113 35.0655 37.0555 34.987C36.9998 34.9086 36.9291 34.842 36.8476 34.791C36.766 34.74 36.6751 34.7057 36.5802 34.69C36.4853 34.6743 36.3882 34.6775 36.2945 34.6995C36.2009 34.7215 36.1125 34.7618 36.0345 34.8181C35.9565 34.8744 35.8904 34.9455 35.84 35.0275C35.7896 35.1095 35.756 35.2006 35.741 35.2956L35.5487 36.458C35.3834 37.618 35.3063 38.7889 35.3183 39.9606C35.3192 42.4919 35.6244 45.0139 36.2273 47.4725C37.048 50.8298 38.4767 54.0083 40.4426 56.8507C42.7151 60.1216 46.0112 63.3377 50.7549 65.8904L51.6562 66.3755C51.7625 66.4329 51.8812 66.463 52.0019 66.463C52.1226 66.463 52.2414 66.4329 52.3476 66.3755L53.2476 65.8904C57.9863 63.3364 61.2836 60.1216 63.56 56.8507C65.5249 54.0085 66.9527 50.8304 67.7727 47.4737C68.3756 45.0152 68.6808 42.4932 68.6817 39.9619C68.6937 38.7902 68.6166 37.6193 68.4513 36.4593L68.2591 35.2969C68.2441 35.2019 68.2104 35.1107 68.16 35.0288C68.1097 34.9468 68.0436 34.8756 67.9655 34.8193C67.8875 34.763 67.7991 34.7227 67.7055 34.7007C67.6118 34.6788 67.5147 34.6755 67.4198 34.6912C67.3249 34.7069 67.234 34.7413 67.1524 34.7923C67.0709 34.8432 67.0002 34.9099 66.9445 34.9883C66.8888 35.0667 66.8492 35.1554 66.8279 35.2493C66.8066 35.3431 66.804 35.4402 66.8205 35.535L66.8128 35.5324Z" fill="white"/>
<path fill-rule="evenodd" clip-rule="evenodd" d="M41.1634 34.7407L51.998 31.4304L63.0745 34.812C63.26 34.8674 63.4598 34.8471 63.6304 34.7556C63.8008 34.664 63.9282 34.5086 63.9844 34.3234C64.0406 34.1382 64.0212 33.9383 63.9304 33.7674C63.8396 33.5965 63.6847 33.4685 63.4998 33.4115L52.2106 29.965C52.0721 29.9225 51.9239 29.9225 51.7854 29.965L40.7369 33.3376C40.6446 33.3652 40.5586 33.4108 40.4839 33.4717C40.4093 33.5326 40.3474 33.6077 40.3018 33.6926C40.2562 33.7775 40.2278 33.8706 40.2183 33.9664C40.2088 34.0623 40.2183 34.1592 40.2463 34.2514C40.2743 34.3436 40.3202 34.4294 40.3815 34.5038C40.4427 34.5782 40.518 34.6398 40.6031 34.685C40.6882 34.7302 40.7814 34.7582 40.8773 34.7673C40.9733 34.7764 41.0701 34.7665 41.1622 34.7381L41.1634 34.7407Z" fill="white"/>
<path fill-rule="evenodd" clip-rule="evenodd" d="M35.8134 35.7462L51.3465 66.0634C51.4071 66.1819 51.499 66.2816 51.6121 66.3515C51.7253 66.4214 51.8555 66.4591 51.9886 66.4602C52.1216 66.4614 52.2524 66.4262 52.3669 66.3582C52.4812 66.2902 52.5749 66.1922 52.6375 66.0748L62.1102 48.3584L62.1242 48.3304L68.1873 35.7258C68.2694 35.5518 68.2796 35.3525 68.2156 35.1711C68.1516 34.9896 68.0186 34.8408 67.8454 34.7569C67.6723 34.6731 67.4731 34.6609 67.291 34.7231C67.109 34.7853 66.9589 34.9169 66.8733 35.0892L60.8204 47.6836L52.0175 64.1587L37.1108 35.079C37.0678 34.9927 37.0081 34.9157 36.9352 34.8526C36.8623 34.7895 36.7776 34.7415 36.686 34.7113C36.5943 34.6812 36.4977 34.6695 36.4015 34.677C36.3054 34.6845 36.2117 34.711 36.1258 34.755C36.04 34.7989 35.9637 34.8595 35.9015 34.9332C35.8392 35.0068 35.7922 35.0921 35.7631 35.184C35.7341 35.276 35.7235 35.3728 35.7322 35.4689C35.7408 35.5649 35.7684 35.6583 35.8134 35.7436V35.7462Z" fill="white"/>
<path fill-rule="evenodd" clip-rule="evenodd" d="M43.249 49.2478H60.5222C60.7155 49.2478 60.9008 49.1711 61.0376 49.0343C61.1742 48.8977 61.2511 48.7123 61.2511 48.5189C61.2511 48.3256 61.1742 48.1403 61.0376 48.0035C60.9008 47.8669 60.7155 47.79 60.5222 47.79H43.249C43.0557 47.79 42.8703 47.8669 42.7336 48.0035C42.5969 48.1403 42.5201 48.3256 42.5201 48.5189C42.5201 48.7123 42.5969 48.8977 42.7336 49.0343C42.8703 49.1711 43.0557 49.2478 43.249 49.2478Z" fill="white"/>
</g>
</g>
<defs>
<clipPath id="clip0_6484_3663">
<rect width="76" height="52.8293" fill="white" transform="translate(14 29)"/>
</clipPath>
</defs>
</svg>
