<svg width="189" height="56" viewBox="0 0 189 56" fill="none" xmlns="http://www.w3.org/2000/svg">
<path d="M182 56.0002H7C3.15 56.0002 0 52.8502 0 49.0002V7.00024C0 3.15025 3.15 0.000244141 7 0.000244141H182C185.85 0.000244141 189 3.15025 189 7.00024V49.0002C189 52.8502 185.85 56.0002 182 56.0002Z" fill="#26064F"/>
<path d="M182 0.000244141H7C3.15 0.000244141 0 3.15025 0 7.00024V49.0002C0 52.8502 3.15 56.0002 7 56.0002H182C185.85 56.0002 189 52.8502 189 49.0002V7.00024C189 3.15025 185.85 0.000244141 182 0.000244141ZM182 1.11968C185.242 1.11968 187.88 3.75784 187.88 7.00024V49.0002C187.88 52.2427 185.242 54.8808 182 54.8808H7C3.75757 54.8808 1.12055 52.2427 1.12055 49.0002V7.00024C1.12055 3.75784 3.75757 1.11968 7 1.11968H182Z" fill="#26064F"/>
<path d="M14.0465 12.4972C14.0118 11.8012 14.2355 11.1169 14.6747 10.5758L31.6929 27.7963L14.4984 45.1848C14.1821 44.6778 14.0247 44.0877 14.0465 43.4905V12.4972Z" fill="white"/>
<path d="M37.6133 21.8014L32.3093 27.1681L15.4154 10.0872C15.7866 9.98424 16.1757 9.96286 16.556 10.0245C16.9363 10.0862 17.2987 10.2295 17.6184 10.4445L37.6133 21.8014Z" fill="white"/>
<path d="M15.1444 45.7787L32.3069 28.421L37.857 34.0397L17.6172 45.5409C17.2611 45.7918 16.8459 45.9457 16.4123 45.9874C15.9787 46.0291 15.5418 45.9572 15.1444 45.7787Z" fill="white"/>
<path d="M38.4001 22.2451L44.9345 25.9624C46.8938 27.0734 46.8938 28.8954 44.9227 30.0123L38.6461 33.5889L32.9198 27.7939L38.4001 22.2451Z" fill="white"/>
<path d="M66.501 14.4812C66.501 15.6541 66.1536 16.5882 65.458 17.285C64.6678 18.1136 63.6379 18.5281 62.3719 18.5281C61.1594 18.5281 60.1286 18.1081 59.2809 17.267C58.4316 16.4264 58.0078 15.3841 58.0078 14.1404C58.0078 12.8962 58.4316 11.8544 59.2809 11.0133C60.1286 10.1727 61.1594 9.75216 62.3719 9.75216C62.9735 9.75216 63.5494 9.86976 64.0963 10.1044C64.6431 10.3396 65.0818 10.6518 65.4099 11.0428L64.6716 11.7816C64.1155 11.1172 63.3498 10.7852 62.3719 10.7852C61.4876 10.7852 60.723 11.0959 60.0778 11.7177C59.4323 12.3401 59.1098 13.1472 59.1098 14.1404C59.1098 15.1336 59.4323 15.9407 60.0778 16.5632C60.723 17.1849 61.4876 17.4956 62.3719 17.4956C63.3099 17.4956 64.0919 17.1833 64.718 16.5577C65.1245 16.1502 65.3595 15.5837 65.4224 14.8563H62.3719V13.8473H66.4425C66.4818 14.0666 66.501 14.2772 66.501 14.4812Z" fill="white"/>
<path d="M66.5004 14.4813H66.3604C66.3592 15.6275 66.0245 16.5178 65.3584 17.1862L65.3568 17.1873L65.3563 17.1884C64.5911 17.9884 63.6077 18.3866 62.3712 18.3883C61.1911 18.3866 60.2034 17.9841 59.3787 17.1681C58.5557 16.3505 58.1487 15.3524 58.1472 14.1406C58.1487 12.9281 58.5557 11.9306 59.3787 11.1135C60.2034 10.297 61.1911 9.89397 62.3712 9.89229C62.9548 9.89229 63.5104 10.0061 64.0404 10.2331C64.5708 10.4617 64.9899 10.7613 65.3021 11.1333L65.4093 11.043L65.3103 10.944L64.572 11.6834L64.6709 11.7818L64.7787 11.6922C64.1968 10.9948 63.3798 10.6433 62.3712 10.6454C61.4542 10.6443 60.6475 10.9719 59.9803 11.6173C59.3066 12.2648 58.968 13.1173 58.9692 14.1406C58.968 15.1638 59.3066 16.0163 59.9803 16.6638C60.6475 17.3093 61.4542 17.6369 62.3712 17.6357C63.3403 17.6374 64.1662 17.3087 64.8164 16.6568C65.2507 16.2214 65.4968 15.6183 65.5614 14.8684L65.5744 14.7164H62.5112V13.9874H66.4418V13.8474L66.3039 13.872C66.3423 14.0843 66.3604 14.286 66.3604 14.4813H66.5004H66.6404C66.6404 14.2685 66.6206 14.0498 66.5796 13.8223L66.5589 13.7074H62.2312V14.8564V14.9964H65.4218V14.8564L65.2823 14.8444C65.2206 15.5489 64.9963 16.0793 64.6184 16.4589C64.0168 17.0582 63.2786 17.3541 62.3712 17.3557C61.5197 17.3546 60.7973 17.0615 60.1744 16.4627C59.5576 15.866 59.2507 15.1042 59.2492 14.1406C59.2507 13.1769 59.5576 12.4152 60.1744 11.8185C60.7973 11.2197 61.5197 10.9265 62.3712 10.9254C63.3179 10.9276 64.0328 11.2404 64.5638 11.8721L64.6623 11.9891L65.5083 11.142L65.599 11.0512L65.5164 10.9532C65.1724 10.5432 64.7142 10.2177 64.1508 9.97602C63.5865 9.73367 62.9909 9.61229 62.3712 9.61229C61.1266 9.61117 60.0525 10.0487 59.1813 10.9145C58.3068 11.7786 57.8661 12.8647 57.8672 14.1406C57.8661 15.4159 58.3068 16.5026 59.1818 17.3672C60.0525 18.2324 61.1266 18.6694 62.3712 18.6683C63.6674 18.6694 64.7426 18.2389 65.5586 17.3819L65.4573 17.2852L65.5563 17.3842C66.2815 16.6595 66.6414 15.6806 66.6404 14.4813H66.5004Z" fill="white"/>
<path d="M72.9547 10.9725H69.1292V13.6359H72.5791V14.6453H69.1292V17.3087H72.9547V18.3407H68.0508V9.94048H72.9547V10.9725Z" fill="white"/>
<path d="M72.9541 10.9724V10.8324H68.9886V13.7758H72.4384V14.5048L68.9886 14.5053V17.4487H72.8141V18.2006H68.1902V10.0804H72.8141V10.9724H72.9541V10.8324V10.9724H73.0941V9.94044V9.80044H67.9102V18.4807H73.0941V17.3087V17.1687H69.2686V14.7853H72.7184V13.6358V13.4958H69.2686V11.1124H73.0941V10.9724H72.9541Z" fill="white"/>
<path d="M77.5044 18.3407H76.4243V10.9725H74.0781V9.94048H79.8506V10.9725H77.5044V18.3407Z" fill="white"/>
<path d="M77.5077 18.3406V18.2006H76.5676V10.8324H74.2214V10.0804H79.7139V10.8324H77.3677V18.3406H77.5077V18.2006V18.3406H77.6477V11.1124H79.9939V9.94044V9.80044H73.9414V10.9724V11.1124H76.2876V18.4807H77.5077H77.6477V18.3406H77.5077Z" fill="white"/>
<path d="M84.0312 18.3407V9.94048H85.1103V18.3407H84.0312Z" fill="white"/>
<path d="M84.0306 18.3406H84.1706V10.0804H84.9696V18.2006H84.0306V18.3406H84.1706H84.0306V18.4807H85.1096H85.2496V9.80044H84.0306H83.8906V18.4807H84.0306V18.3406Z" fill="white"/>
<path d="M89.8988 18.3407H88.8187V10.9725H86.4727V9.94048H92.245V10.9725H89.8988V18.3407Z" fill="white"/>
<path d="M89.8943 18.3406V18.2006H88.9542V10.8324H86.6081V10.0804H92.1005V10.8324H89.7543V18.3406H89.8943V18.2006V18.3406H90.0343V11.1124H92.3805V9.94044V9.80044H86.3281V10.9724V11.1124H88.6742V18.4807H89.8943H90.0343V18.3406H89.8943Z" fill="white"/>
<path d="M97.8078 16.5517C98.4296 17.1812 99.1904 17.4956 100.09 17.4956C100.99 17.4956 101.751 17.1812 102.372 16.5517C102.994 15.9223 103.306 15.1177 103.306 14.1404C103.306 13.1632 102.994 12.3586 102.372 11.7291C101.751 11.0997 100.99 10.7852 100.09 10.7852C99.1904 10.7852 98.4296 11.0997 97.8078 11.7291C97.1871 12.3586 96.8754 13.1632 96.8754 14.1404C96.8754 15.1177 97.1871 15.9223 97.8078 16.5517ZM103.17 17.2549C102.344 18.1042 101.317 18.5281 100.09 18.5281C98.8616 18.5281 97.8351 18.1042 97.0111 17.2549C96.1846 16.4067 95.7734 15.3683 95.7734 14.1404C95.7734 12.9126 96.1846 11.874 97.0111 11.0259C97.8351 10.1765 98.8616 9.75216 100.09 9.75216C101.311 9.75216 102.335 10.1787 103.165 11.0314C103.993 11.884 104.408 12.9203 104.408 14.1404C104.408 15.3683 103.994 16.4067 103.17 17.2549Z" fill="white"/>
<path d="M97.8072 16.5518L97.7077 16.6503C98.3525 17.3049 99.157 17.6374 100.089 17.6357C101.021 17.6374 101.827 17.3049 102.471 16.6503C103.12 15.995 103.446 15.1473 103.445 14.1406C103.446 13.1338 103.12 12.2861 102.471 11.6309C101.827 10.9762 101.021 10.6437 100.089 10.6454C99.157 10.6437 98.3525 10.9762 97.7077 11.6309C97.0601 12.2861 96.7331 13.1338 96.7348 14.1406C96.7331 15.1473 97.0601 15.995 97.7077 16.6503L97.8072 16.5518L97.9068 16.4534C97.3129 15.849 97.0159 15.0888 97.0148 14.1406C97.0159 13.1923 97.3129 12.4321 97.9068 11.8277C98.5061 11.2234 99.2219 10.9271 100.089 10.9254C100.956 10.9271 101.674 11.2234 102.272 11.8277C102.867 12.4321 103.163 13.1923 103.165 14.1406C103.163 15.0888 102.867 15.849 102.272 16.4534C101.674 17.0577 100.956 17.3541 100.089 17.3557C99.2219 17.3541 98.5061 17.0577 97.9068 16.4534L97.8072 16.5518ZM103.169 17.2551L103.069 17.1578C102.267 17.9803 101.285 18.3866 100.089 18.3883C98.8934 18.3866 97.9116 17.9803 97.1104 17.1578L97.1066 17.1534L97.1104 17.1578C96.3093 16.3325 95.9139 15.3372 95.9128 14.1406C95.9139 12.9439 96.3093 11.9487 97.1104 11.1233C97.9116 10.3008 98.8934 9.89397 100.089 9.89229C101.277 9.89397 102.257 10.3025 103.064 11.1294C103.868 11.9585 104.265 12.9522 104.267 14.1406C104.265 15.3372 103.869 16.3325 103.069 17.1578L103.169 17.2551L103.27 17.3524C104.119 16.4807 104.548 15.3995 104.547 14.1406C104.548 12.8888 104.117 11.8098 103.265 10.9342C102.412 10.0553 101.343 9.61075 100.089 9.61229C98.8294 9.61075 97.7575 10.0532 96.9098 10.9287V10.9282C96.0594 11.8004 95.6317 12.8816 95.6328 14.1406C95.6317 15.3995 96.0594 16.4807 96.9098 17.3529L96.9136 17.3569L96.9098 17.3524C97.7575 18.228 98.8294 18.6694 100.089 18.6683C101.349 18.6694 102.421 18.228 103.27 17.3524L103.169 17.2551Z" fill="white"/>
<path d="M105.922 18.3407V9.94048H107.236L111.318 16.4753H111.365L111.318 14.8564V9.94048H112.398V18.3407H111.272L107 11.4892H106.954L107 13.1086V18.3407H105.922Z" fill="white"/>
<path d="M105.921 18.3406H106.061V10.0804H107.157L111.24 16.6152H111.364H111.508L111.457 14.8543V10.0804H112.258V18.2006H111.349L107.077 11.3492H106.953H106.809L106.86 13.1108V18.2006H105.921V18.3406H106.061H105.921V18.4807H107H107.14V13.1063L107.093 11.4854L106.953 11.4892V11.6292H107V11.4892L106.881 11.5636L111.193 18.4807H112.398H112.538V9.80044H111.317H111.177V14.8581L111.224 16.479L111.364 16.4752V16.3352H111.317V16.4752L111.436 16.4009L107.312 9.80044H105.921H105.781V18.4807H105.921V18.3406Z" fill="white"/>
<path d="M149.828 42.1413H152.441V24.6392H149.828V42.1413ZM173.359 30.9438L170.364 38.5319H170.275L167.166 30.9438H164.352L169.013 41.5495L166.356 47.4489H169.082L176.264 30.9438H173.359ZM158.544 40.1534C157.687 40.1534 156.494 39.7257 156.494 38.667C156.494 37.3161 157.981 36.7982 159.263 36.7982C160.413 36.7982 160.952 37.0459 161.65 37.384C161.447 39.005 160.051 40.1534 158.544 40.1534ZM158.859 30.5609C156.967 30.5609 155.009 31.3944 154.198 33.2407L156.516 34.2087C157.012 33.2407 157.935 32.9252 158.903 32.9252C160.254 32.9252 161.628 33.7362 161.65 35.1773V35.3572C161.177 35.087 160.165 34.6818 158.926 34.6818C156.427 34.6818 153.882 36.0549 153.882 38.6221C153.882 40.9639 155.931 42.4727 158.227 42.4727C159.984 42.4727 160.952 41.6846 161.561 40.7616H161.65V42.1123H164.172V35.402C164.172 32.2952 161.853 30.5609 158.859 30.5609ZM142.713 33.0744H138.998V27.0751H142.713C144.666 27.0751 145.775 28.6922 145.775 30.0747C145.775 31.4311 144.666 33.0744 142.713 33.0744ZM142.646 24.6392H136.387V42.1413H138.998V35.5103H142.646C145.542 35.5103 148.388 33.4141 148.388 30.0747C148.388 26.7355 145.542 24.6392 142.646 24.6392ZM108.512 40.1566C106.707 40.1566 105.196 38.6456 105.196 36.5702C105.196 34.4729 106.707 32.9389 108.512 32.9389C110.294 32.9389 111.692 34.4729 111.692 36.5702C111.692 38.6456 110.294 40.1566 108.512 40.1566ZM111.512 31.9239H111.421C110.835 31.2248 109.707 30.5933 108.286 30.5933C105.309 30.5933 102.58 33.2095 102.58 36.5702C102.58 39.9084 105.309 42.5023 108.286 42.5023C109.707 42.5023 110.835 41.8706 111.421 41.1493H111.512V42.0062C111.512 44.2846 110.294 45.5025 108.332 45.5025C106.73 45.5025 105.738 44.3518 105.331 43.3822L103.054 44.3294C103.708 45.9083 105.444 47.8481 108.332 47.8481C111.399 47.8481 113.993 46.0434 113.993 41.6453V30.9542H111.512V31.9239ZM115.797 42.1413H118.413V24.6386H115.797V42.1413ZM122.271 36.3673C122.203 34.0665 124.052 32.8939 125.383 32.8939C126.421 32.8939 127.3 33.4124 127.593 34.1573L122.271 36.3673ZM130.39 34.3826C129.895 33.0515 128.383 30.5933 125.293 30.5933C122.225 30.5933 119.677 33.0067 119.677 36.5478C119.677 39.886 122.203 42.5023 125.586 42.5023C128.315 42.5023 129.895 40.8331 130.549 39.8635L128.518 38.5099C127.842 39.5025 126.917 40.1566 125.586 40.1566C124.255 40.1566 123.308 39.5475 122.699 38.3524L130.661 35.0591L130.39 34.3826ZM66.9573 32.4203V34.9464H73.0019C72.8214 36.3673 72.3478 37.4047 71.6259 38.1266C70.7466 39.0065 69.3706 39.9762 66.9573 39.9762C63.2355 39.9762 60.3261 36.9765 60.3261 33.2549C60.3261 29.5333 63.2355 26.5332 66.9573 26.5332C68.9648 26.5332 70.4305 27.3228 71.5132 28.3378L73.2951 26.5561C71.784 25.1123 69.7764 24.0071 66.9573 24.0071C61.8596 24.0071 57.5742 28.1574 57.5742 33.2549C57.5742 38.3524 61.8596 42.5023 66.9573 42.5023C69.7092 42.5023 71.784 41.6005 73.4078 39.9084C75.0769 38.2393 75.5959 35.8937 75.5959 33.9993C75.5959 33.4124 75.5509 32.8715 75.4602 32.4203H66.9573ZM82.4681 40.1566C80.6633 40.1566 79.1069 38.668 79.1069 36.5478C79.1069 34.405 80.6633 32.9389 82.4681 32.9389C84.2722 32.9389 85.8286 34.405 85.8286 36.5478C85.8286 38.668 84.2722 40.1566 82.4681 40.1566ZM82.4681 30.5933C79.1747 30.5933 76.4905 33.0968 76.4905 36.5478C76.4905 39.9762 79.1747 42.5023 82.4681 42.5023C85.7608 42.5023 88.445 39.9762 88.445 36.5478C88.445 33.0968 85.7608 30.5933 82.4681 30.5933ZM95.5069 40.1566C93.7028 40.1566 92.1463 38.668 92.1463 36.5478C92.1463 34.405 93.7028 32.9389 95.5069 32.9389C97.3111 32.9389 98.8675 34.405 98.8675 36.5478C98.8675 38.668 97.3111 40.1566 95.5069 40.1566ZM95.5069 30.5933C92.2136 30.5933 89.53 33.0968 89.53 36.5478C89.53 39.9762 92.2136 42.5023 95.5069 42.5023C98.7998 42.5023 101.484 39.9762 101.484 36.5478C101.484 33.0968 98.7998 30.5933 95.5069 30.5933Z" fill="white"/>
</svg>
