<svg width="465" height="667" viewBox="0 0 465 667" fill="none" xmlns="http://www.w3.org/2000/svg">
<g opacity="0.07">
<path d="M429.379 617.784C463.556 647.363 484.292 666.267 484.292 666.267C599.535 233.169 657.156 16.6195 657.156 16.6195C615.148 5.71174 594.143 0.257211 594.143 0.257211C486.732 414.684 429.379 617.784 429.379 617.784Z" fill="url(#paint0_linear_1055_84)"/>
<path d="M286.222 465.947C367.448 546.286 408.062 586.455 408.062 586.455C514.064 197.022 567.065 2.30575 567.065 2.30575C509.685 56.9348 480.995 84.2494 480.995 84.2494C409.38 336.072 373.573 461.983 373.573 461.983C361.998 450.844 356.21 445.274 356.21 445.274C411.069 235.96 438.499 131.303 438.499 131.303C382.361 187.743 354.293 215.963 354.293 215.963C308.912 382.62 286.222 465.947 286.222 465.947Z" fill="url(#paint1_linear_1055_84)"/>
<path d="M329.549 202.535C289.831 190.482 269.494 185.04 269.494 185.04C234.919 326.064 217.583 397.473 217.583 397.473C247.626 426.605 262.999 440.272 262.999 440.272C307.366 281.78 329.549 202.535 329.549 202.535Z" fill="url(#paint2_linear_1055_84)"/>
<path d="M104.553 201.547C187.536 223.101 229.026 233.877 229.026 233.877C229.026 233.877 233.59 215.769 242.716 179.553C115.947 146.334 52.563 129.725 52.563 129.725C18.175 165.554 0.981102 183.469 0.981102 183.469C83.6521 263.235 124.988 303.119 124.988 303.119C168.565 289.828 190.353 283.183 190.353 283.183C133.153 228.759 104.553 201.547 104.553 201.547Z" fill="url(#paint3_linear_1055_84)"/>
</g>
<defs>
<linearGradient id="paint0_linear_1055_84" x1="2615.58" y1="3613.51" x2="1726.91" y2="4120.8" gradientUnits="userSpaceOnUse">
<stop stop-color="#A15FCB"/>
<stop offset="0.21" stop-color="#7F69E7"/>
<stop offset="0.29" stop-color="#6A73F4"/>
<stop offset="0.38" stop-color="#6378F7"/>
<stop offset="0.47" stop-color="#598AF3"/>
<stop offset="0.58" stop-color="#62A7DE"/>
<stop offset="0.73" stop-color="#76C0C3"/>
</linearGradient>
<linearGradient id="paint1_linear_1055_84" x1="2615.58" y1="3613.51" x2="1726.91" y2="4120.8" gradientUnits="userSpaceOnUse">
<stop stop-color="#A15FCB"/>
<stop offset="0.21" stop-color="#7F69E7"/>
<stop offset="0.29" stop-color="#6A73F4"/>
<stop offset="0.38" stop-color="#6378F7"/>
<stop offset="0.47" stop-color="#598AF3"/>
<stop offset="0.58" stop-color="#62A7DE"/>
<stop offset="0.73" stop-color="#76C0C3"/>
</linearGradient>
<linearGradient id="paint2_linear_1055_84" x1="2615.58" y1="3613.51" x2="1726.91" y2="4120.8" gradientUnits="userSpaceOnUse">
<stop stop-color="#A15FCB"/>
<stop offset="0.21" stop-color="#7F69E7"/>
<stop offset="0.29" stop-color="#6A73F4"/>
<stop offset="0.38" stop-color="#6378F7"/>
<stop offset="0.47" stop-color="#598AF3"/>
<stop offset="0.58" stop-color="#62A7DE"/>
<stop offset="0.73" stop-color="#76C0C3"/>
</linearGradient>
<linearGradient id="paint3_linear_1055_84" x1="2615.58" y1="3613.51" x2="1726.91" y2="4120.8" gradientUnits="userSpaceOnUse">
<stop stop-color="#A15FCB"/>
<stop offset="0.21" stop-color="#7F69E7"/>
<stop offset="0.29" stop-color="#6A73F4"/>
<stop offset="0.38" stop-color="#6378F7"/>
<stop offset="0.47" stop-color="#598AF3"/>
<stop offset="0.58" stop-color="#62A7DE"/>
<stop offset="0.73" stop-color="#76C0C3"/>
</linearGradient>
</defs>
</svg>
