<svg width="1440" height="436" viewBox="0 0 1440 436" fill="none" xmlns="http://www.w3.org/2000/svg">
<mask id="mask0_5280_6027" style="mask-type:alpha" maskUnits="userSpaceOnUse" x="0" y="0" width="1440" height="436">
<rect width="1440" height="436" transform="matrix(1 0 0 -1 0 436)" fill="url(#paint0_linear_5280_6027)" fill-opacity="0.25"/>
</mask>
<g mask="url(#mask0_5280_6027)">
<g opacity="0.3">
<path d="M1292.95 75.8809C1268.04 39.1767 1253.17 16 1253.17 16C1033.72 397.114 924 587.671 924 587.671C961.085 608.672 979.627 619.173 979.627 619.173C1186.9 253.762 1292.95 75.8809 1292.95 75.8809Z" fill="url(#paint1_linear_5280_6027)"/>
<path d="M1292.95 75.8809C1268.04 39.1767 1253.17 16 1253.17 16C1033.72 397.114 924 587.671 924 587.671C961.085 608.672 979.627 619.173 979.627 619.173C1186.9 253.762 1292.95 75.8809 1292.95 75.8809Z" fill="url(#paint2_linear_5280_6027)"/>
<path d="M1390.18 256.096C1333.53 159.352 1305.21 110.978 1305.21 110.978C1105.63 453.064 1005.84 624.107 1005.84 624.107C1074.17 586.912 1108.34 568.315 1108.34 568.315C1240.31 347.889 1306.29 237.675 1306.29 237.675C1314.44 251.169 1318.52 257.916 1318.52 257.916C1213.25 442.319 1160.62 534.52 1160.62 534.52C1228.23 495.294 1262.04 475.681 1262.04 475.681C1347.46 329.291 1390.18 256.096 1390.18 256.096Z" fill="url(#paint3_linear_5280_6027)"/>
<path d="M1390.18 256.096C1333.53 159.352 1305.21 110.978 1305.21 110.978C1105.63 453.064 1005.84 624.107 1005.84 624.107C1074.17 586.912 1108.34 568.315 1108.34 568.315C1240.31 347.889 1306.29 237.675 1306.29 237.675C1314.44 251.169 1318.52 257.916 1318.52 257.916C1213.25 442.319 1160.62 534.52 1160.62 534.52C1228.23 495.294 1262.04 475.681 1262.04 475.681C1347.46 329.291 1390.18 256.096 1390.18 256.096Z" fill="url(#paint4_linear_5280_6027)"/>
<path d="M1282.1 494.687C1316.72 516.191 1334.63 526.511 1334.63 526.511C1403.29 401.665 1437.89 338.404 1437.89 338.404C1416.8 303.174 1405.68 286.321 1405.68 286.321C1323.29 425.232 1282.1 494.687 1282.1 494.687Z" fill="url(#paint5_linear_5280_6027)"/>
<path d="M1282.1 494.687C1316.72 516.191 1334.63 526.511 1334.63 526.511C1403.29 401.665 1437.89 338.404 1437.89 338.404C1416.8 303.174 1405.68 286.321 1405.68 286.321C1323.29 425.232 1282.1 494.687 1282.1 494.687Z" fill="url(#paint6_linear_5280_6027)"/>
<path d="M1495.33 552.747C1422.07 511.256 1385.45 490.511 1385.45 490.511C1385.45 490.511 1376.51 506.51 1358.65 538.509C1470.48 602.17 1526.4 634 1526.4 634C1568.13 608.782 1589 596.172 1589 596.172C1530.84 499.602 1501.76 451.316 1501.76 451.316C1457.04 452.846 1434.67 453.611 1434.67 453.611C1475.11 519.701 1495.33 552.747 1495.33 552.747Z" fill="url(#paint7_linear_5280_6027)"/>
<path d="M1495.33 552.747C1422.07 511.256 1385.45 490.511 1385.45 490.511C1385.45 490.511 1376.51 506.51 1358.65 538.509C1470.48 602.17 1526.4 634 1526.4 634C1568.13 608.782 1589 596.172 1589 596.172C1530.84 499.602 1501.76 451.316 1501.76 451.316C1457.04 452.846 1434.67 453.611 1434.67 453.611C1475.11 519.701 1495.33 552.747 1495.33 552.747Z" fill="url(#paint8_linear_5280_6027)"/>
</g>
</g>
<defs>
<linearGradient id="paint0_linear_5280_6027" x1="-2043.54" y1="-2351.94" x2="-681.268" y2="-3451.87" gradientUnits="userSpaceOnUse">
<stop stop-color="#A15FCB"/>
<stop offset="0.21" stop-color="#7F69E7"/>
<stop offset="0.29" stop-color="#6A73F4"/>
<stop offset="0.38" stop-color="#6378F7"/>
<stop offset="0.47" stop-color="#598AF3"/>
<stop offset="0.58" stop-color="#62A7DE"/>
<stop offset="0.73" stop-color="#76C0C3"/>
</linearGradient>
<linearGradient id="paint1_linear_5280_6027" x1="-19.7173" y1="-3317.71" x2="952.258" y2="-3573.4" gradientUnits="userSpaceOnUse">
<stop stop-color="#A15FCB"/>
<stop offset="0.21" stop-color="#7F69E7"/>
<stop offset="0.29" stop-color="#6A73F4"/>
<stop offset="0.38" stop-color="#6378F7"/>
<stop offset="0.47" stop-color="#598AF3"/>
<stop offset="0.58" stop-color="#62A7DE"/>
<stop offset="0.73" stop-color="#76C0C3"/>
</linearGradient>
<linearGradient id="paint2_linear_5280_6027" x1="1256.5" y1="16" x2="1257" y2="436" gradientUnits="userSpaceOnUse">
<stop stop-color="white"/>
<stop offset="1" stop-color="white" stop-opacity="0"/>
</linearGradient>
<linearGradient id="paint3_linear_5280_6027" x1="-19.7173" y1="-3317.71" x2="952.258" y2="-3573.4" gradientUnits="userSpaceOnUse">
<stop stop-color="#A15FCB"/>
<stop offset="0.21" stop-color="#7F69E7"/>
<stop offset="0.29" stop-color="#6A73F4"/>
<stop offset="0.38" stop-color="#6378F7"/>
<stop offset="0.47" stop-color="#598AF3"/>
<stop offset="0.58" stop-color="#62A7DE"/>
<stop offset="0.73" stop-color="#76C0C3"/>
</linearGradient>
<linearGradient id="paint4_linear_5280_6027" x1="1256.5" y1="16" x2="1257" y2="436" gradientUnits="userSpaceOnUse">
<stop stop-color="white"/>
<stop offset="1" stop-color="white" stop-opacity="0"/>
</linearGradient>
<linearGradient id="paint5_linear_5280_6027" x1="-19.7173" y1="-3317.71" x2="952.258" y2="-3573.4" gradientUnits="userSpaceOnUse">
<stop stop-color="#A15FCB"/>
<stop offset="0.21" stop-color="#7F69E7"/>
<stop offset="0.29" stop-color="#6A73F4"/>
<stop offset="0.38" stop-color="#6378F7"/>
<stop offset="0.47" stop-color="#598AF3"/>
<stop offset="0.58" stop-color="#62A7DE"/>
<stop offset="0.73" stop-color="#76C0C3"/>
</linearGradient>
<linearGradient id="paint6_linear_5280_6027" x1="1256.5" y1="16" x2="1257" y2="436" gradientUnits="userSpaceOnUse">
<stop stop-color="white"/>
<stop offset="1" stop-color="white" stop-opacity="0"/>
</linearGradient>
<linearGradient id="paint7_linear_5280_6027" x1="-19.7173" y1="-3317.71" x2="952.258" y2="-3573.4" gradientUnits="userSpaceOnUse">
<stop stop-color="#A15FCB"/>
<stop offset="0.21" stop-color="#7F69E7"/>
<stop offset="0.29" stop-color="#6A73F4"/>
<stop offset="0.38" stop-color="#6378F7"/>
<stop offset="0.47" stop-color="#598AF3"/>
<stop offset="0.58" stop-color="#62A7DE"/>
<stop offset="0.73" stop-color="#76C0C3"/>
</linearGradient>
<linearGradient id="paint8_linear_5280_6027" x1="1256.5" y1="16" x2="1257" y2="436" gradientUnits="userSpaceOnUse">
<stop stop-color="white"/>
<stop offset="1" stop-color="white" stop-opacity="0"/>
</linearGradient>
</defs>
</svg>
