<svg width="790" height="648" viewBox="0 0 790 648" fill="none" xmlns="http://www.w3.org/2000/svg">
<g opacity="0.25" filter="url(#filter0_f_5413_894)">
<path fill-rule="evenodd" clip-rule="evenodd" d="M669.837 268.635L577.203 286.065C566.72 253.505 546.446 224.972 519.146 204.36C491.847 183.749 458.853 172.062 424.667 170.896L425.376 76.1152C542.49 79.5796 640.273 160.048 669.837 268.635Z" fill="#4D70ED"/>
</g>
<g opacity="0.25" filter="url(#filter1_f_5413_894)">
<path fill-rule="evenodd" clip-rule="evenodd" d="M221.02 451.889L275.251 420.418C291.973 449.234 316.969 472.358 346.996 486.792L320.012 542.929C278.587 523.182 244.058 491.303 221.02 451.889Z" fill="#AC52F3"/>
</g>
<g opacity="0.25" filter="url(#filter2_f_5413_894)">
<path fill-rule="evenodd" clip-rule="evenodd" d="M437.65 558.142C431.176 558.71 424.622 559 418 559C386.191 559 355.944 552.31 328.59 540.26L351.455 488.855C377.033 500.233 405.071 504.965 432.967 502.612L437.65 558.142Z" fill="#C62ADF"/>
</g>
<g opacity="0.25" filter="url(#filter3_f_5413_894)">
<path fill-rule="evenodd" clip-rule="evenodd" d="M449.275 514.292C445.583 514.938 441.853 515.473 438.088 515.891L436.634 502.261C440.095 501.892 443.544 501.414 446.976 500.828L449.275 514.292Z" fill="#DF2AA1"/>
</g>
<g opacity="0.25" filter="url(#filter4_f_5413_894)">
<path fill-rule="evenodd" clip-rule="evenodd" d="M632.126 415.322C616.303 458.364 587.814 495.286 551.176 521.569L515.757 472.43C542.805 452.934 563.369 425.759 574.781 394.432L632.126 415.322Z" fill="#4FEDB9"/>
</g>
<g opacity="0.25" filter="url(#filter5_f_5413_894)">
<path fill-rule="evenodd" clip-rule="evenodd" d="M633.997 409.031C641.779 386.113 646 361.549 646 335.999C646 316.997 643.666 298.539 639.267 280.898L578.515 292.109C587.614 324.185 586.863 358.255 576.359 389.899L633.997 409.031Z" fill="#69BBF5"/>
</g>
<g opacity="0.25" filter="url(#filter6_f_5413_894)">
<path fill-rule="evenodd" clip-rule="evenodd" d="M536.412 509.242C513.342 525.133 486.92 536.508 458.424 542.093L450.374 500.211C472.67 495.925 493.852 487.117 512.612 474.328L536.412 509.242Z" fill="#5AEB83"/>
</g>
<g opacity="0.25" filter="url(#filter7_f_5413_894)">
<path fill-rule="evenodd" clip-rule="evenodd" d="M202.998 452.222C185.126 418.6 175 380.233 175 339.5C175 313.946 178.985 289.323 186.369 266.219L259.997 288.621C253.644 309.502 251.466 331.429 253.587 353.152C255.708 374.874 262.087 395.966 272.359 415.223L202.998 452.222Z" fill="#8755F0"/>
</g>
<g opacity="0.25" filter="url(#filter8_f_5413_894)">
<path fill-rule="evenodd" clip-rule="evenodd" d="M415.962 75.0004L417.073 170.812C382.869 171.208 349.62 182.149 321.864 202.141C294.108 222.133 273.196 250.203 261.983 282.519L166.719 249.465C203.551 147.711 301.034 75 415.5 75C415.654 75 415.808 75.0001 415.962 75.0004Z" fill="#6462F4"/>
</g>
<path fill-rule="evenodd" clip-rule="evenodd" d="M669.837 268.635L577.203 286.065C566.72 253.505 546.446 224.972 519.146 204.36C491.847 183.749 458.853 172.062 424.667 170.896L425.376 76.1152C542.49 79.5796 640.273 160.048 669.837 268.635Z" fill="#4D70ED"/>
<path fill-rule="evenodd" clip-rule="evenodd" d="M221.02 451.889L275.251 420.418C291.973 449.234 316.969 472.358 346.996 486.792L320.012 542.929C278.587 523.182 244.058 491.303 221.02 451.889Z" fill="#AC52F3"/>
<path fill-rule="evenodd" clip-rule="evenodd" d="M437.65 558.142C431.176 558.71 424.622 559 418 559C386.191 559 355.944 552.31 328.59 540.26L351.455 488.855C377.033 500.233 405.071 504.965 432.967 502.612L437.65 558.142Z" fill="#C62ADF"/>
<path fill-rule="evenodd" clip-rule="evenodd" d="M449.275 514.292C445.583 514.938 441.853 515.473 438.088 515.891L436.634 502.261C440.095 501.892 443.544 501.414 446.976 500.828L449.275 514.292Z" fill="#DF2AA1"/>
<path fill-rule="evenodd" clip-rule="evenodd" d="M632.126 415.322C616.303 458.364 587.814 495.286 551.176 521.569L515.757 472.43C542.805 452.934 563.369 425.759 574.781 394.432L632.126 415.322Z" fill="#4FEDB9"/>
<path fill-rule="evenodd" clip-rule="evenodd" d="M633.997 409.031C641.779 386.113 646 361.549 646 335.999C646 316.997 643.666 298.539 639.267 280.898L578.515 292.109C587.614 324.185 586.863 358.255 576.359 389.899L633.997 409.031Z" fill="#69BBF5"/>
<path fill-rule="evenodd" clip-rule="evenodd" d="M536.412 509.242C513.342 525.133 486.92 536.508 458.424 542.093L450.374 500.211C472.67 495.925 493.852 487.117 512.612 474.328L536.412 509.242Z" fill="#5AEB83"/>
<path fill-rule="evenodd" clip-rule="evenodd" d="M202.998 452.222C185.126 418.6 175 380.233 175 339.5C175 313.946 178.985 289.323 186.369 266.219L259.997 288.621C253.644 309.502 251.466 331.429 253.587 353.152C255.708 374.874 262.087 395.966 272.359 415.223L202.998 452.222Z" fill="#8755F0"/>
<path fill-rule="evenodd" clip-rule="evenodd" d="M415.962 75.0004L417.073 170.812C382.869 171.208 349.62 182.149 321.864 202.141C294.108 222.133 273.196 250.203 261.983 282.519L166.719 249.465C203.551 147.711 301.034 75 415.5 75C415.654 75 415.808 75.0001 415.962 75.0004Z" fill="#6462F4"/>
<path d="M320.12 338.201L314 348.945H318.692L322.024 342.961H322.432V362.001H326.92V338.201H320.12Z" fill="white"/>
<path d="M331.288 347.313V352.889C331.288 359.145 334.96 362.477 340.4 362.477C345.84 362.477 349.512 359.145 349.512 352.889V347.313C349.512 341.261 345.84 337.725 340.4 337.725C334.96 337.725 331.288 341.261 331.288 347.313ZM335.776 347.109C335.776 343.947 337.476 341.737 340.4 341.737C343.222 341.737 345.024 343.811 345.024 347.109V353.093C345.024 356.323 343.596 358.465 340.4 358.465C337.306 358.465 335.776 356.459 335.776 353.093V347.109Z" fill="white"/>
<path d="M352.902 347.313V352.889C352.902 359.145 356.574 362.477 362.014 362.477C367.454 362.477 371.126 359.145 371.126 352.889V347.313C371.126 341.261 367.454 337.725 362.014 337.725C356.574 337.725 352.902 341.261 352.902 347.313ZM357.39 347.109C357.39 343.947 359.09 341.737 362.014 341.737C364.836 341.737 366.638 343.811 366.638 347.109V353.093C366.638 356.323 365.21 358.465 362.014 358.465C358.92 358.465 357.39 356.459 357.39 353.093V347.109Z" fill="white"/>
<path d="M385.04 347.313V352.889C385.04 359.145 388.712 362.477 394.152 362.477C399.592 362.477 403.264 359.145 403.264 352.889V347.313C403.264 341.261 399.592 337.725 394.152 337.725C388.712 337.725 385.04 341.261 385.04 347.313ZM389.528 347.109C389.528 343.947 391.228 341.737 394.152 341.737C396.974 341.737 398.776 343.811 398.776 347.109V353.093C398.776 356.323 397.348 358.465 394.152 358.465C391.058 358.465 389.528 356.459 389.528 353.093V347.109Z" fill="white"/>
<path d="M406.654 347.313V352.889C406.654 359.145 410.326 362.477 415.766 362.477C421.206 362.477 424.878 359.145 424.878 352.889V347.313C424.878 341.261 421.206 337.725 415.766 337.725C410.326 337.725 406.654 341.261 406.654 347.313ZM411.142 347.109C411.142 343.947 412.842 341.737 415.766 341.737C418.588 341.737 420.39 343.811 420.39 347.109V353.093C420.39 356.323 418.962 358.465 415.766 358.465C412.672 358.465 411.142 356.459 411.142 353.093V347.109Z" fill="white"/>
<path d="M428.268 347.313V352.889C428.268 359.145 431.94 362.477 437.38 362.477C442.82 362.477 446.492 359.145 446.492 352.889V347.313C446.492 341.261 442.82 337.725 437.38 337.725C431.94 337.725 428.268 341.261 428.268 347.313ZM432.756 347.109C432.756 343.947 434.456 341.737 437.38 341.737C440.202 341.737 442.004 343.811 442.004 347.109V353.093C442.004 356.323 440.576 358.465 437.38 358.465C434.286 358.465 432.756 356.459 432.756 353.093V347.109Z" fill="white"/>
<path d="M460.406 347.313V352.889C460.406 359.145 464.078 362.477 469.518 362.477C474.958 362.477 478.63 359.145 478.63 352.889V347.313C478.63 341.261 474.958 337.725 469.518 337.725C464.078 337.725 460.406 341.261 460.406 347.313ZM464.894 347.109C464.894 343.947 466.594 341.737 469.518 341.737C472.34 341.737 474.142 343.811 474.142 347.109V353.093C474.142 356.323 472.714 358.465 469.518 358.465C466.424 358.465 464.894 356.459 464.894 353.093V347.109Z" fill="white"/>
<path d="M482.02 347.313V352.889C482.02 359.145 485.692 362.477 491.132 362.477C496.572 362.477 500.244 359.145 500.244 352.889V347.313C500.244 341.261 496.572 337.725 491.132 337.725C485.692 337.725 482.02 341.261 482.02 347.313ZM486.508 347.109C486.508 343.947 488.208 341.737 491.132 341.737C493.954 341.737 495.756 343.811 495.756 347.109V353.093C495.756 356.323 494.328 358.465 491.132 358.465C488.038 358.465 486.508 356.459 486.508 353.093V347.109Z" fill="white"/>
<path d="M503.634 347.313V352.889C503.634 359.145 507.306 362.477 512.746 362.477C518.186 362.477 521.858 359.145 521.858 352.889V347.313C521.858 341.261 518.186 337.725 512.746 337.725C507.306 337.725 503.634 341.261 503.634 347.313ZM508.122 347.109C508.122 343.947 509.822 341.737 512.746 341.737C515.568 341.737 517.37 343.811 517.37 347.109V353.093C517.37 356.323 515.942 358.465 512.746 358.465C509.652 358.465 508.122 356.459 508.122 353.093V347.109Z" fill="white"/>
<path d="M365.28 303V305.12H369.66V317H371.98V305.12H376.36V303H365.28Z" fill="white" fill-opacity="0.6"/>
<path d="M375.488 312.06C375.488 315.14 377.708 317.28 380.608 317.28C383.508 317.28 385.728 315.14 385.728 312.06C385.728 308.98 383.508 306.86 380.608 306.86C377.708 306.86 375.488 308.98 375.488 312.06ZM377.688 312.06C377.688 310.08 378.868 308.84 380.608 308.84C382.348 308.84 383.528 310.08 383.528 312.06C383.528 314.04 382.348 315.3 380.608 315.3C378.868 315.3 377.688 314.04 377.688 312.06Z" fill="white" fill-opacity="0.6"/>
<path d="M386.654 307.14V309.04H389.274V315.2C389.274 316.26 390.034 317 391.074 317H393.714V315.1H392.014C391.654 315.1 391.474 314.92 391.474 314.52V309.04H394.274V307.14H391.474V303.9H389.274V307.14H386.654Z" fill="white" fill-opacity="0.6"/>
<path d="M395.973 309.56L397.813 310.6C398.353 309.5 399.233 308.78 400.693 308.78C402.173 308.78 402.993 309.54 402.993 310.68V310.94L399.293 311.32C397.073 311.54 395.773 312.56 395.773 314.24C395.773 316.08 397.233 317.28 399.453 317.28C401.513 317.28 402.373 316.3 402.733 315.52H403.013V317H405.173V310.74C405.173 308.4 403.453 306.86 400.773 306.86C398.373 306.86 396.913 308.06 395.973 309.56ZM398.053 314.14C398.053 313.34 398.733 313 399.773 312.9L402.993 312.56V312.72C402.993 314.24 401.953 315.46 399.913 315.46C398.713 315.46 398.053 314.94 398.053 314.14Z" fill="white" fill-opacity="0.6"/>
<path d="M409.982 303H407.782V317H409.982V303Z" fill="white" fill-opacity="0.6"/>
<path d="M418.352 309.84C418.352 311.7 419.712 312.5 422.212 312.82L422.792 312.9C423.852 313.04 424.992 313.16 424.992 314.04C424.992 314.9 424.032 315.44 422.812 315.44C421.372 315.44 420.072 314.64 419.452 313.26L417.612 314.34C418.452 315.76 419.992 317.28 422.752 317.28C425.332 317.28 427.152 315.92 427.152 313.98C427.152 312.04 425.692 311.36 422.992 311.02L422.412 310.94C421.352 310.8 420.512 310.66 420.512 309.82C420.512 309.1 421.172 308.66 422.192 308.66C423.432 308.66 424.532 309.32 425.452 310.48L427.052 309.26C425.612 307.7 424.232 306.86 422.212 306.86C420.072 306.86 418.352 308 418.352 309.84Z" fill="white" fill-opacity="0.6"/>
<path d="M438.544 317V307.14H436.344V312.26C436.344 314.16 435.344 315.24 433.624 315.24C432.104 315.24 431.244 314.38 431.244 312.84V307.14H429.044V313.04C429.044 315.68 430.764 317.16 432.884 317.16C434.764 317.16 435.684 316.28 436.104 315.36H436.384V317H438.544Z" fill="white" fill-opacity="0.6"/>
<path d="M441.258 321H443.458V315.52H443.698C444.238 316.4 445.118 317.28 446.958 317.28C449.498 317.28 451.538 315.1 451.538 312.06C451.538 309.02 449.498 306.86 446.958 306.86C445.118 306.86 444.238 307.74 443.698 308.6H443.418V307.14H441.258V321ZM446.378 315.32C444.638 315.32 443.458 314.08 443.458 312.06C443.458 310.04 444.638 308.82 446.378 308.82C448.078 308.82 449.338 309.98 449.338 312.06C449.338 314.14 448.078 315.32 446.378 315.32Z" fill="white" fill-opacity="0.6"/>
<path d="M453.646 321H455.846V315.52H456.086C456.626 316.4 457.506 317.28 459.346 317.28C461.886 317.28 463.926 315.1 463.926 312.06C463.926 309.02 461.886 306.86 459.346 306.86C457.506 306.86 456.626 307.74 456.086 308.6H455.806V307.14H453.646V321ZM458.766 315.32C457.026 315.32 455.846 314.08 455.846 312.06C455.846 310.04 457.026 308.82 458.766 308.82C460.466 308.82 461.726 309.98 461.726 312.06C461.726 314.14 460.466 315.32 458.766 315.32Z" fill="white" fill-opacity="0.6"/>
<path d="M468.233 303H466.033V317H468.233V303Z" fill="white" fill-opacity="0.6"/>
<path d="M478.16 307.14L475.36 314.42H475.12L472.3 307.14H469.92L474.08 317.4L472.54 321H474.92L480.54 307.14H478.16Z" fill="white" fill-opacity="0.6"/>
<g opacity="0.5" filter="url(#filter9_f_5413_894)">
<path d="M611.888 92.696C611.888 88.976 614.6 86.864 618.128 86.864C621.416 86.864 624.032 89 624.032 92.36C624.032 95.816 621.704 97.232 618.32 98.216C615.968 98.912 614.744 99.44 614.744 101.192V101.456H623.864V104H611.936V101.48C611.936 98.384 614 96.968 617.072 96.056C619.664 95.264 621.248 94.424 621.248 92.264C621.248 90.44 619.952 89.384 618.152 89.384C616.088 89.384 614.672 90.512 614.672 92.792V93.32H611.888V92.696ZM625.981 93.68C625.981 89.384 628.477 86.864 632.341 86.864C636.157 86.864 638.701 89.384 638.701 93.68V97.52C638.701 101.888 636.205 104.336 632.341 104.336C628.477 104.336 625.981 101.888 625.981 97.52V93.68ZM628.765 93.584V97.616C628.765 100.28 629.965 101.816 632.341 101.816C634.765 101.816 635.917 100.232 635.917 97.616V93.584C635.917 90.92 634.645 89.384 632.341 89.384C630.013 89.384 628.765 90.968 628.765 93.584ZM656.978 92.912L661.01 86.864L663.17 88.472L658.394 93.968L656.978 92.912ZM647.978 90.704C647.978 88.328 649.418 86.888 651.866 86.888C654.242 86.888 655.754 88.328 655.754 90.704V91.16C655.754 93.512 654.314 94.952 651.866 94.952C649.418 94.952 647.978 93.512 647.978 91.16V90.704ZM650.186 90.584V91.256C650.186 92.36 650.762 93.08 651.866 93.08C652.994 93.08 653.546 92.36 653.546 91.256V90.584C653.546 89.456 652.994 88.76 651.866 88.76C650.762 88.76 650.186 89.456 650.186 90.584ZM656.45 100.064C656.45 97.688 657.89 96.248 660.338 96.248C662.714 96.248 664.226 97.688 664.226 100.064V100.52C664.226 102.872 662.786 104.312 660.338 104.312C657.89 104.312 656.45 102.872 656.45 100.52V100.064ZM655.154 98.264L651.122 104.312L648.986 102.704L653.738 97.208L655.154 98.264ZM658.658 99.944V100.616C658.658 101.72 659.21 102.44 660.338 102.44C661.442 102.44 662.018 101.72 662.018 100.616V99.944C662.018 98.816 661.442 98.12 660.338 98.12C659.21 98.12 658.658 98.816 658.658 99.944Z" fill="#4D70ED"/>
</g>
<path d="M611.888 92.696C611.888 88.976 614.6 86.864 618.128 86.864C621.416 86.864 624.032 89 624.032 92.36C624.032 95.816 621.704 97.232 618.32 98.216C615.968 98.912 614.744 99.44 614.744 101.192V101.456H623.864V104H611.936V101.48C611.936 98.384 614 96.968 617.072 96.056C619.664 95.264 621.248 94.424 621.248 92.264C621.248 90.44 619.952 89.384 618.152 89.384C616.088 89.384 614.672 90.512 614.672 92.792V93.32H611.888V92.696ZM625.981 93.68C625.981 89.384 628.477 86.864 632.341 86.864C636.157 86.864 638.701 89.384 638.701 93.68V97.52C638.701 101.888 636.205 104.336 632.341 104.336C628.477 104.336 625.981 101.888 625.981 97.52V93.68ZM628.765 93.584V97.616C628.765 100.28 629.965 101.816 632.341 101.816C634.765 101.816 635.917 100.232 635.917 97.616V93.584C635.917 90.92 634.645 89.384 632.341 89.384C630.013 89.384 628.765 90.968 628.765 93.584ZM656.978 92.912L661.01 86.864L663.17 88.472L658.394 93.968L656.978 92.912ZM647.978 90.704C647.978 88.328 649.418 86.888 651.866 86.888C654.242 86.888 655.754 88.328 655.754 90.704V91.16C655.754 93.512 654.314 94.952 651.866 94.952C649.418 94.952 647.978 93.512 647.978 91.16V90.704ZM650.186 90.584V91.256C650.186 92.36 650.762 93.08 651.866 93.08C652.994 93.08 653.546 92.36 653.546 91.256V90.584C653.546 89.456 652.994 88.76 651.866 88.76C650.762 88.76 650.186 89.456 650.186 90.584ZM656.45 100.064C656.45 97.688 657.89 96.248 660.338 96.248C662.714 96.248 664.226 97.688 664.226 100.064V100.52C664.226 102.872 662.786 104.312 660.338 104.312C657.89 104.312 656.45 102.872 656.45 100.52V100.064ZM655.154 98.264L651.122 104.312L648.986 102.704L653.738 97.208L655.154 98.264ZM658.658 99.944V100.616C658.658 101.72 659.21 102.44 660.338 102.44C661.442 102.44 662.018 101.72 662.018 100.616V99.944C662.018 98.816 661.442 98.12 660.338 98.12C659.21 98.12 658.658 98.816 658.658 99.944Z" fill="#4D70ED"/>
<path d="M616.364 118.148C619.01 118.148 620.99 119.57 620.99 122.126V122.684H618.938V122.27C618.938 120.74 617.912 120.002 616.364 120.002C615.032 120.002 614.132 120.686 614.132 121.676C614.132 122.846 615.068 123.17 616.724 123.548L617.21 123.656C619.676 124.196 621.152 125.15 621.152 127.382C621.152 129.812 619.208 131.252 616.58 131.252C613.502 131.252 611.54 129.524 611.54 126.662V126.176H613.61V126.554C613.61 128.318 614.636 129.398 616.616 129.398C618.218 129.398 619.082 128.534 619.082 127.472C619.082 126.32 618.218 125.888 616.58 125.546L616.094 125.438C613.664 124.898 612.062 124.034 612.062 121.712C612.062 119.516 613.97 118.148 616.364 118.148ZM622.205 122.126H624.563V119.21H626.543V122.126H629.063V123.836H626.543V128.768C626.543 129.128 626.705 129.29 627.029 129.29H628.559V131H626.183C625.247 131 624.563 130.334 624.563 129.38V123.836H622.205V122.126ZM630.593 124.304C631.439 122.954 632.753 121.874 634.913 121.874C637.325 121.874 638.873 123.26 638.873 125.366V131H636.929V129.668H636.677C636.353 130.37 635.579 131.252 633.725 131.252C631.727 131.252 630.413 130.172 630.413 128.516C630.413 127.004 631.583 126.086 633.581 125.888L636.911 125.546V125.312C636.911 124.286 636.173 123.602 634.841 123.602C633.527 123.602 632.735 124.25 632.249 125.24L630.593 124.304ZM632.465 128.426C632.465 129.146 633.059 129.614 634.139 129.614C635.975 129.614 636.911 128.516 636.911 127.148V127.004L634.013 127.31C633.077 127.4 632.465 127.706 632.465 128.426ZM650.257 122.126L646.225 125.51L650.149 131H647.827L644.803 126.698L643.201 128.03V131H641.221V118.4H643.201V125.51H643.417L647.431 122.126H650.257ZM651.215 119.48C651.215 118.634 651.881 118.04 652.709 118.04C653.537 118.04 654.185 118.634 654.185 119.48C654.185 120.308 653.537 120.92 652.709 120.92C651.881 120.92 651.215 120.308 651.215 119.48ZM653.699 122.126V131H651.719V122.126H653.699ZM656.153 122.126H658.097V123.584H658.349C658.745 122.756 659.555 121.982 661.247 121.982C663.173 121.982 664.703 123.296 664.703 125.672V131H662.723V125.852C662.723 124.466 661.949 123.71 660.581 123.71C659.033 123.71 658.133 124.682 658.133 126.392V131H656.153V122.126ZM673.788 122.126H675.732V130.712C675.732 133.124 674.004 134.852 671.268 134.852C668.856 134.852 667.488 133.718 666.606 132.368L668.316 131.342C668.802 132.278 669.702 133.124 671.142 133.124C672.654 133.124 673.752 132.332 673.752 130.622V129.416H673.536C673.068 130.208 672.258 131 670.602 131C668.334 131 666.48 129.11 666.48 126.428C666.48 123.764 668.334 121.874 670.602 121.874C672.258 121.874 673.068 122.666 673.536 123.44H673.788V122.126ZM671.124 129.236C672.69 129.236 673.752 128.192 673.752 126.428C673.752 124.682 672.69 123.638 671.124 123.638C669.594 123.638 668.46 124.628 668.46 126.428C668.46 128.246 669.594 129.236 671.124 129.236ZM685.426 122.126V123.494H685.678C686.002 122.522 686.74 122.09 687.946 122.09H688.882V123.944H687.442C686.236 123.944 685.48 124.61 685.48 125.906V131H683.5V122.126H685.426ZM689.52 126.482C689.52 123.836 691.374 121.856 693.966 121.856C696.558 121.856 698.286 123.71 698.286 126.338V127.202H691.572C691.662 128.588 692.652 129.542 694.092 129.542C695.37 129.542 696.072 128.858 696.468 128.084L698.106 129.02C697.458 130.028 696.378 131.252 694.128 131.252C691.428 131.252 689.52 129.2 689.52 126.482ZM691.572 125.726H696.252C696.162 124.394 695.316 123.566 693.948 123.566C692.544 123.566 691.734 124.394 691.572 125.726ZM699.24 122.126H701.256L702.48 129.146H702.714L704.226 122.126H707.034L708.528 129.146H708.762L709.986 122.126H712.002L710.148 131H707.25L705.738 123.98H705.504L703.992 131H701.112L699.24 122.126ZM713.301 124.304C714.147 122.954 715.461 121.874 717.621 121.874C720.033 121.874 721.581 123.26 721.581 125.366V131H719.637V129.668H719.385C719.061 130.37 718.287 131.252 716.433 131.252C714.435 131.252 713.121 130.172 713.121 128.516C713.121 127.004 714.291 126.086 716.289 125.888L719.619 125.546V125.312C719.619 124.286 718.881 123.602 717.549 123.602C716.235 123.602 715.443 124.25 714.957 125.24L713.301 124.304ZM715.173 128.426C715.173 129.146 715.767 129.614 716.847 129.614C718.683 129.614 719.619 128.516 719.619 127.148V127.004L716.721 127.31C715.785 127.4 715.173 127.706 715.173 128.426ZM725.855 122.126V123.494H726.107C726.431 122.522 727.169 122.09 728.375 122.09H729.311V123.944H727.871C726.665 123.944 725.909 124.61 725.909 125.906V131H723.929V122.126H725.855ZM739.201 118.4V131H737.257V129.668H737.005C736.537 130.46 735.727 131.252 734.071 131.252C731.803 131.252 729.949 129.29 729.949 126.554C729.949 123.818 731.803 121.874 734.071 121.874C735.727 121.874 736.537 122.666 737.005 123.44H737.221V118.4H739.201ZM734.593 123.638C733.063 123.638 731.929 124.682 731.929 126.554C731.929 128.426 733.063 129.488 734.593 129.488C736.159 129.488 737.221 128.372 737.221 126.554C737.221 124.736 736.159 123.638 734.593 123.638ZM741.422 124.556C741.422 122.9 742.97 121.874 744.896 121.874C746.714 121.874 747.956 122.63 749.252 124.034L747.812 125.132C746.984 124.088 745.994 123.494 744.878 123.494C743.96 123.494 743.366 123.89 743.366 124.538C743.366 125.294 744.122 125.42 745.076 125.546L745.598 125.618C748.028 125.924 749.342 126.536 749.342 128.282C749.342 130.028 747.704 131.252 745.382 131.252C742.898 131.252 741.512 129.884 740.756 128.606L742.412 127.634C742.97 128.876 744.14 129.596 745.436 129.596C746.534 129.596 747.398 129.11 747.398 128.336C747.398 127.544 746.372 127.436 745.418 127.31L744.896 127.238C742.646 126.95 741.422 126.23 741.422 124.556Z" fill="white"/>
<g opacity="0.5" filter="url(#filter10_f_5413_894)">
<path d="M672.56 329.2H676.832V346H674.048V331.984H673.76L671.024 336.664H668.048L672.56 329.2ZM679.559 335.68C679.559 331.384 682.055 328.864 685.919 328.864C689.735 328.864 692.279 331.384 692.279 335.68V339.52C692.279 343.888 689.783 346.336 685.919 346.336C682.055 346.336 679.559 343.888 679.559 339.52V335.68ZM682.343 335.584V339.616C682.343 342.28 683.543 343.816 685.919 343.816C688.343 343.816 689.495 342.232 689.495 339.616V335.584C689.495 332.92 688.223 331.384 685.919 331.384C683.591 331.384 682.343 332.968 682.343 335.584ZM710.556 334.912L714.588 328.864L716.748 330.472L711.972 335.968L710.556 334.912ZM701.556 332.704C701.556 330.328 702.996 328.888 705.444 328.888C707.82 328.888 709.332 330.328 709.332 332.704V333.16C709.332 335.512 707.892 336.952 705.444 336.952C702.996 336.952 701.556 335.512 701.556 333.16V332.704ZM703.764 332.584V333.256C703.764 334.36 704.34 335.08 705.444 335.08C706.572 335.08 707.124 334.36 707.124 333.256V332.584C707.124 331.456 706.572 330.76 705.444 330.76C704.34 330.76 703.764 331.456 703.764 332.584ZM710.028 342.064C710.028 339.688 711.468 338.248 713.916 338.248C716.292 338.248 717.804 339.688 717.804 342.064V342.52C717.804 344.872 716.364 346.312 713.916 346.312C711.468 346.312 710.028 344.872 710.028 342.52V342.064ZM708.732 340.264L704.7 346.312L702.564 344.704L707.316 339.208L708.732 340.264ZM712.236 341.944V342.616C712.236 343.72 712.788 344.44 713.916 344.44C715.02 344.44 715.596 343.72 715.596 342.616V341.944C715.596 340.816 715.02 340.12 713.916 340.12C712.788 340.12 712.236 340.816 712.236 341.944Z" fill="#69BBF5"/>
</g>
<path d="M672.56 329.2H676.832V346H674.048V331.984H673.76L671.024 336.664H668.048L672.56 329.2ZM679.559 335.68C679.559 331.384 682.055 328.864 685.919 328.864C689.735 328.864 692.279 331.384 692.279 335.68V339.52C692.279 343.888 689.783 346.336 685.919 346.336C682.055 346.336 679.559 343.888 679.559 339.52V335.68ZM682.343 335.584V339.616C682.343 342.28 683.543 343.816 685.919 343.816C688.343 343.816 689.495 342.232 689.495 339.616V335.584C689.495 332.92 688.223 331.384 685.919 331.384C683.591 331.384 682.343 332.968 682.343 335.584ZM710.556 334.912L714.588 328.864L716.748 330.472L711.972 335.968L710.556 334.912ZM701.556 332.704C701.556 330.328 702.996 328.888 705.444 328.888C707.82 328.888 709.332 330.328 709.332 332.704V333.16C709.332 335.512 707.892 336.952 705.444 336.952C702.996 336.952 701.556 335.512 701.556 333.16V332.704ZM703.764 332.584V333.256C703.764 334.36 704.34 335.08 705.444 335.08C706.572 335.08 707.124 334.36 707.124 333.256V332.584C707.124 331.456 706.572 330.76 705.444 330.76C704.34 330.76 703.764 331.456 703.764 332.584ZM710.028 342.064C710.028 339.688 711.468 338.248 713.916 338.248C716.292 338.248 717.804 339.688 717.804 342.064V342.52C717.804 344.872 716.364 346.312 713.916 346.312C711.468 346.312 710.028 344.872 710.028 342.52V342.064ZM708.732 340.264L704.7 346.312L702.564 344.704L707.316 339.208L708.732 340.264ZM712.236 341.944V342.616C712.236 343.72 712.788 344.44 713.916 344.44C715.02 344.44 715.596 343.72 715.596 342.616V341.944C715.596 340.816 715.02 340.12 713.916 340.12C712.788 340.12 712.236 340.816 712.236 341.944Z" fill="#69BBF5"/>
<path d="M671.17 360.4H673.258V371.092H679.27V373H671.17V360.4ZM680.373 361.48C680.373 360.634 681.039 360.04 681.867 360.04C682.695 360.04 683.343 360.634 683.343 361.48C683.343 362.308 682.695 362.92 681.867 362.92C681.039 362.92 680.373 362.308 680.373 361.48ZM682.857 364.126V373H680.877V364.126H682.857ZM694.004 376.6H692.024V371.668H691.808C691.34 372.46 690.53 373.252 688.874 373.252C686.606 373.252 684.752 371.29 684.752 368.554C684.752 365.818 686.606 363.874 688.874 363.874C690.53 363.874 691.34 364.666 691.808 365.44H692.06V364.126H694.004V376.6ZM689.396 371.488C690.962 371.488 692.024 370.372 692.024 368.554C692.024 366.736 690.962 365.638 689.396 365.638C687.866 365.638 686.732 366.682 686.732 368.554C686.732 370.426 687.866 371.488 689.396 371.488ZM704.901 373H702.957V371.524H702.705C702.327 372.352 701.499 373.144 699.807 373.144C697.899 373.144 696.351 371.812 696.351 369.436V364.126H698.331V369.256C698.331 370.642 699.105 371.416 700.473 371.416C702.021 371.416 702.921 370.444 702.921 368.734V364.126H704.901V373ZM706.84 361.48C706.84 360.634 707.506 360.04 708.334 360.04C709.162 360.04 709.81 360.634 709.81 361.48C709.81 362.308 709.162 362.92 708.334 362.92C707.506 362.92 706.84 362.308 706.84 361.48ZM709.324 364.126V373H707.344V364.126H709.324ZM720.472 360.4V373H718.528V371.668H718.276C717.808 372.46 716.998 373.252 715.342 373.252C713.074 373.252 711.22 371.29 711.22 368.554C711.22 365.818 713.074 363.874 715.342 363.874C716.998 363.874 717.808 364.666 718.276 365.44H718.492V360.4H720.472ZM715.864 365.638C714.334 365.638 713.2 366.682 713.2 368.554C713.2 370.426 714.334 371.488 715.864 371.488C717.43 371.488 718.492 370.372 718.492 368.554C718.492 366.736 717.43 365.638 715.864 365.638ZM722.423 361.48C722.423 360.634 723.089 360.04 723.917 360.04C724.745 360.04 725.393 360.634 725.393 361.48C725.393 362.308 724.745 362.92 723.917 362.92C723.089 362.92 722.423 362.308 722.423 361.48ZM724.907 364.126V373H722.927V364.126H724.907ZM726.389 364.126H728.747V361.21H730.727V364.126H733.247V365.836H730.727V370.768C730.727 371.128 730.889 371.29 731.213 371.29H732.743V373H730.367C729.431 373 728.747 372.334 728.747 371.38V365.836H726.389V364.126ZM741.544 364.126H743.686L738.628 376.6H736.486L737.872 373.36L734.128 364.126H736.27L738.808 370.678H739.024L741.544 364.126Z" fill="white"/>
<g opacity="0.5" filter="url(#filter11_f_5413_894)">
<path d="M619.56 478.2H623.832V495H621.048V480.984H620.76L618.024 485.664H615.048L619.56 478.2ZM626.559 484.68C626.559 480.384 629.055 477.864 632.919 477.864C636.735 477.864 639.279 480.384 639.279 484.68V488.52C639.279 492.888 636.783 495.336 632.919 495.336C629.055 495.336 626.559 492.888 626.559 488.52V484.68ZM629.343 484.584V488.616C629.343 491.28 630.543 492.816 632.919 492.816C635.343 492.816 636.495 491.232 636.495 488.616V484.584C636.495 481.92 635.223 480.384 632.919 480.384C630.591 480.384 629.343 481.968 629.343 484.584ZM657.556 483.912L661.588 477.864L663.748 479.472L658.972 484.968L657.556 483.912ZM648.556 481.704C648.556 479.328 649.996 477.888 652.444 477.888C654.82 477.888 656.332 479.328 656.332 481.704V482.16C656.332 484.512 654.892 485.952 652.444 485.952C649.996 485.952 648.556 484.512 648.556 482.16V481.704ZM650.764 481.584V482.256C650.764 483.36 651.34 484.08 652.444 484.08C653.572 484.08 654.124 483.36 654.124 482.256V481.584C654.124 480.456 653.572 479.76 652.444 479.76C651.34 479.76 650.764 480.456 650.764 481.584ZM657.028 491.064C657.028 488.688 658.468 487.248 660.916 487.248C663.292 487.248 664.804 488.688 664.804 491.064V491.52C664.804 493.872 663.364 495.312 660.916 495.312C658.468 495.312 657.028 493.872 657.028 491.52V491.064ZM655.732 489.264L651.7 495.312L649.564 493.704L654.316 488.208L655.732 489.264ZM659.236 490.944V491.616C659.236 492.72 659.788 493.44 660.916 493.44C662.02 493.44 662.596 492.72 662.596 491.616V490.944C662.596 489.816 662.02 489.12 660.916 489.12C659.788 489.12 659.236 489.816 659.236 490.944Z" fill="#4FEDB9"/>
</g>
<path d="M619.56 478.2H623.832V495H621.048V480.984H620.76L618.024 485.664H615.048L619.56 478.2ZM626.559 484.68C626.559 480.384 629.055 477.864 632.919 477.864C636.735 477.864 639.279 480.384 639.279 484.68V488.52C639.279 492.888 636.783 495.336 632.919 495.336C629.055 495.336 626.559 492.888 626.559 488.52V484.68ZM629.343 484.584V488.616C629.343 491.28 630.543 492.816 632.919 492.816C635.343 492.816 636.495 491.232 636.495 488.616V484.584C636.495 481.92 635.223 480.384 632.919 480.384C630.591 480.384 629.343 481.968 629.343 484.584ZM657.556 483.912L661.588 477.864L663.748 479.472L658.972 484.968L657.556 483.912ZM648.556 481.704C648.556 479.328 649.996 477.888 652.444 477.888C654.82 477.888 656.332 479.328 656.332 481.704V482.16C656.332 484.512 654.892 485.952 652.444 485.952C649.996 485.952 648.556 484.512 648.556 482.16V481.704ZM650.764 481.584V482.256C650.764 483.36 651.34 484.08 652.444 484.08C653.572 484.08 654.124 483.36 654.124 482.256V481.584C654.124 480.456 653.572 479.76 652.444 479.76C651.34 479.76 650.764 480.456 650.764 481.584ZM657.028 491.064C657.028 488.688 658.468 487.248 660.916 487.248C663.292 487.248 664.804 488.688 664.804 491.064V491.52C664.804 493.872 663.364 495.312 660.916 495.312C658.468 495.312 657.028 493.872 657.028 491.52V491.064ZM655.732 489.264L651.7 495.312L649.564 493.704L654.316 488.208L655.732 489.264ZM659.236 490.944V491.616C659.236 492.72 659.788 493.44 660.916 493.44C662.02 493.44 662.596 492.72 662.596 491.616V490.944C662.596 489.816 662.02 489.12 660.916 489.12C659.788 489.12 659.236 489.816 659.236 490.944Z" fill="#4FEDB9"/>
<path d="M619.17 509.4H622.842L625.776 519.822H625.992L628.926 509.4H632.598V522H630.546V511.614H630.33L627.432 522H624.336L621.438 511.614H621.222V522H619.17V509.4ZM634.794 515.304C635.64 513.954 636.954 512.874 639.114 512.874C641.526 512.874 643.074 514.26 643.074 516.366V522H641.13V520.668H640.878C640.554 521.37 639.78 522.252 637.926 522.252C635.928 522.252 634.614 521.172 634.614 519.516C634.614 518.004 635.784 517.086 637.782 516.888L641.112 516.546V516.312C641.112 515.286 640.374 514.602 639.042 514.602C637.728 514.602 636.936 515.25 636.45 516.24L634.794 515.304ZM636.666 519.426C636.666 520.146 637.26 520.614 638.34 520.614C640.176 520.614 641.112 519.516 641.112 518.148V518.004L638.214 518.31C637.278 518.4 636.666 518.706 636.666 519.426ZM647.348 513.126V514.494H647.6C647.924 513.522 648.662 513.09 649.868 513.09H650.804V514.944H649.364C648.158 514.944 647.402 515.61 647.402 516.906V522H645.422V513.126H647.348ZM661.388 513.126L657.356 516.51L661.28 522H658.958L655.934 517.698L654.332 519.03V522H652.352V509.4H654.332V516.51H654.548L658.562 513.126H661.388ZM661.659 517.482C661.659 514.836 663.513 512.856 666.105 512.856C668.697 512.856 670.425 514.71 670.425 517.338V518.202H663.711C663.801 519.588 664.791 520.542 666.231 520.542C667.509 520.542 668.211 519.858 668.607 519.084L670.245 520.02C669.597 521.028 668.517 522.252 666.267 522.252C663.567 522.252 661.659 520.2 661.659 517.482ZM663.711 516.726H668.391C668.301 515.394 667.455 514.566 666.087 514.566C664.683 514.566 663.873 515.394 663.711 516.726ZM671.181 513.126H673.539V510.21H675.519V513.126H678.039V514.836H675.519V519.768C675.519 520.128 675.681 520.29 676.005 520.29H677.535V522H675.159C674.223 522 673.539 521.334 673.539 520.38V514.836H671.181V513.126ZM679.353 510.48C679.353 509.634 680.019 509.04 680.847 509.04C681.675 509.04 682.323 509.634 682.323 510.48C682.323 511.308 681.675 511.92 680.847 511.92C680.019 511.92 679.353 511.308 679.353 510.48ZM681.837 513.126V522H679.857V513.126H681.837ZM684.29 513.126H686.234V514.584H686.486C686.882 513.756 687.692 512.982 689.384 512.982C691.31 512.982 692.84 514.296 692.84 516.672V522H690.86V516.852C690.86 515.466 690.086 514.71 688.718 514.71C687.17 514.71 686.27 515.682 686.27 517.392V522H684.29V513.126ZM701.926 513.126H703.87V521.712C703.87 524.124 702.142 525.852 699.406 525.852C696.994 525.852 695.626 524.718 694.744 523.368L696.454 522.342C696.94 523.278 697.84 524.124 699.28 524.124C700.792 524.124 701.89 523.332 701.89 521.622V520.416H701.674C701.206 521.208 700.396 522 698.74 522C696.472 522 694.618 520.11 694.618 517.428C694.618 514.764 696.472 512.874 698.74 512.874C700.396 512.874 701.206 513.666 701.674 514.44H701.926V513.126ZM699.262 520.236C700.828 520.236 701.89 519.192 701.89 517.428C701.89 515.682 700.828 514.638 699.262 514.638C697.732 514.638 696.598 515.628 696.598 517.428C696.598 519.246 697.732 520.236 699.262 520.236ZM711.115 518.418C711.115 517.014 711.925 515.898 712.915 515.16V514.89C712.411 514.206 712.087 513.486 712.087 512.64V512.532C712.087 510.516 713.689 509.148 715.903 509.148C718.153 509.148 719.719 510.552 719.719 512.694V513.072H717.613V512.748C717.613 511.74 716.983 511.056 715.867 511.056C714.823 511.056 714.193 511.704 714.193 512.568V512.64C714.193 513.63 714.967 514.35 716.227 515.61L718.261 517.626H718.567L720.313 514.674H722.545L719.953 518.994V519.3L722.671 522H719.971L718.837 520.866H718.549C717.739 521.694 716.731 522.27 715.273 522.27C712.735 522.27 711.115 520.56 711.115 518.418ZM713.221 518.346C713.221 519.372 714.049 520.344 715.345 520.344C716.155 520.344 716.749 520.02 717.217 519.57V519.282L714.445 516.546H714.175C713.599 516.96 713.221 517.554 713.221 518.274V518.346ZM732.33 509.4H735.66L739.368 522H737.19L736.362 519.084H731.628L730.782 522H728.604L732.33 509.4ZM732.15 517.176H735.84L734.094 511.182H733.878L732.15 517.176ZM740.361 510.48C740.361 509.634 741.027 509.04 741.855 509.04C742.683 509.04 743.331 509.634 743.331 510.48C743.331 511.308 742.683 511.92 741.855 511.92C741.027 511.92 740.361 511.308 740.361 510.48ZM742.845 513.126V522H740.865V513.126H742.845ZM747.225 513.126V514.494H747.477C747.801 513.522 748.539 513.09 749.745 513.09H750.681V514.944H749.241C748.035 514.944 747.279 515.61 747.279 516.906V522H745.299V513.126H747.225ZM760.571 509.4V522H758.627V520.668H758.375C757.907 521.46 757.097 522.252 755.441 522.252C753.173 522.252 751.319 520.29 751.319 517.554C751.319 514.818 753.173 512.874 755.441 512.874C757.097 512.874 757.907 513.666 758.375 514.44H758.591V509.4H760.571ZM755.963 514.638C754.433 514.638 753.299 515.682 753.299 517.554C753.299 519.426 754.433 520.488 755.963 520.488C757.529 520.488 758.591 519.372 758.591 517.554C758.591 515.736 757.529 514.638 755.963 514.638ZM764.952 513.126V514.494H765.204C765.528 513.522 766.266 513.09 767.472 513.09H768.408V514.944H766.968C765.762 514.944 765.006 515.61 765.006 516.906V522H763.026V513.126H764.952ZM769.046 517.554C769.046 514.782 771.044 512.874 773.654 512.874C776.264 512.874 778.262 514.782 778.262 517.554C778.262 520.326 776.264 522.252 773.654 522.252C771.044 522.252 769.046 520.326 769.046 517.554ZM771.026 517.554C771.026 519.336 772.088 520.47 773.654 520.47C775.22 520.47 776.282 519.336 776.282 517.554C776.282 515.772 775.22 514.656 773.654 514.656C772.088 514.656 771.026 515.772 771.026 517.554ZM780.155 525.6V513.126H782.099V514.44H782.351C782.837 513.666 783.629 512.874 785.285 512.874C787.571 512.874 789.407 514.818 789.407 517.554C789.407 520.29 787.571 522.252 785.285 522.252C783.629 522.252 782.837 521.46 782.351 520.668H782.135V525.6H780.155ZM784.763 520.488C786.293 520.488 787.427 519.426 787.427 517.554C787.427 515.682 786.293 514.638 784.763 514.638C783.197 514.638 782.135 515.736 782.135 517.554C782.135 519.372 783.197 520.488 784.763 520.488Z" fill="white"/>
<g opacity="0.5" filter="url(#filter12_f_5413_894)">
<path d="M501.288 554.2H513.48V556.648L506.952 571H503.904L510.36 556.744H501.288V554.2ZM531.129 559.912L535.161 553.864L537.321 555.472L532.545 560.968L531.129 559.912ZM522.129 557.704C522.129 555.328 523.569 553.888 526.017 553.888C528.393 553.888 529.905 555.328 529.905 557.704V558.16C529.905 560.512 528.465 561.952 526.017 561.952C523.569 561.952 522.129 560.512 522.129 558.16V557.704ZM524.337 557.584V558.256C524.337 559.36 524.913 560.08 526.017 560.08C527.145 560.08 527.697 559.36 527.697 558.256V557.584C527.697 556.456 527.145 555.76 526.017 555.76C524.913 555.76 524.337 556.456 524.337 557.584ZM530.601 567.064C530.601 564.688 532.041 563.248 534.489 563.248C536.865 563.248 538.377 564.688 538.377 567.064V567.52C538.377 569.872 536.937 571.312 534.489 571.312C532.041 571.312 530.601 569.872 530.601 567.52V567.064ZM529.305 565.264L525.273 571.312L523.137 569.704L527.889 564.208L529.305 565.264ZM532.809 566.944V567.616C532.809 568.72 533.361 569.44 534.489 569.44C535.593 569.44 536.169 568.72 536.169 567.616V566.944C536.169 565.816 535.593 565.12 534.489 565.12C533.361 565.12 532.809 565.816 532.809 566.944Z" fill="#5AEB83"/>
</g>
<path d="M501.288 554.2H513.48V556.648L506.952 571H503.904L510.36 556.744H501.288V554.2ZM531.129 559.912L535.161 553.864L537.321 555.472L532.545 560.968L531.129 559.912ZM522.129 557.704C522.129 555.328 523.569 553.888 526.017 553.888C528.393 553.888 529.905 555.328 529.905 557.704V558.16C529.905 560.512 528.465 561.952 526.017 561.952C523.569 561.952 522.129 560.512 522.129 558.16V557.704ZM524.337 557.584V558.256C524.337 559.36 524.913 560.08 526.017 560.08C527.145 560.08 527.697 559.36 527.697 558.256V557.584C527.697 556.456 527.145 555.76 526.017 555.76C524.913 555.76 524.337 556.456 524.337 557.584ZM530.601 567.064C530.601 564.688 532.041 563.248 534.489 563.248C536.865 563.248 538.377 564.688 538.377 567.064V567.52C538.377 569.872 536.937 571.312 534.489 571.312C532.041 571.312 530.601 569.872 530.601 567.52V567.064ZM529.305 565.264L525.273 571.312L523.137 569.704L527.889 564.208L529.305 565.264ZM532.809 566.944V567.616C532.809 568.72 533.361 569.44 534.489 569.44C535.593 569.44 536.169 568.72 536.169 567.616V566.944C536.169 565.816 535.593 565.12 534.489 565.12C533.361 565.12 532.809 565.816 532.809 566.944Z" fill="#5AEB83"/>
<path d="M503.17 585.4H511.108V587.308H505.258V590.728H510.766V592.636H505.258V598H503.17V585.4ZM512.248 593.554C512.248 590.782 514.246 588.874 516.856 588.874C519.466 588.874 521.464 590.782 521.464 593.554C521.464 596.326 519.466 598.252 516.856 598.252C514.246 598.252 512.248 596.326 512.248 593.554ZM514.228 593.554C514.228 595.336 515.29 596.47 516.856 596.47C518.422 596.47 519.484 595.336 519.484 593.554C519.484 591.772 518.422 590.656 516.856 590.656C515.29 590.656 514.228 591.772 514.228 593.554ZM531.799 598H529.855V596.524H529.603C529.225 597.352 528.397 598.144 526.705 598.144C524.797 598.144 523.249 596.812 523.249 594.436V589.126H525.229V594.256C525.229 595.642 526.003 596.416 527.371 596.416C528.919 596.416 529.819 595.444 529.819 593.734V589.126H531.799V598ZM534.242 589.126H536.186V590.584H536.438C536.834 589.756 537.644 588.982 539.336 588.982C541.262 588.982 542.792 590.296 542.792 592.672V598H540.812V592.852C540.812 591.466 540.038 590.71 538.67 590.71C537.122 590.71 536.222 591.682 536.222 593.392V598H534.242V589.126ZM553.821 585.4V598H551.877V596.668H551.625C551.157 597.46 550.347 598.252 548.691 598.252C546.423 598.252 544.569 596.29 544.569 593.554C544.569 590.818 546.423 588.874 548.691 588.874C550.347 588.874 551.157 589.666 551.625 590.44H551.841V585.4H553.821ZM549.213 590.638C547.683 590.638 546.549 591.682 546.549 593.554C546.549 595.426 547.683 596.488 549.213 596.488C550.779 596.488 551.841 595.372 551.841 593.554C551.841 591.736 550.779 590.638 549.213 590.638ZM555.718 593.482C555.718 590.836 557.572 588.856 560.164 588.856C562.756 588.856 564.484 590.71 564.484 593.338V594.202H557.77C557.86 595.588 558.85 596.542 560.29 596.542C561.568 596.542 562.27 595.858 562.666 595.084L564.304 596.02C563.656 597.028 562.576 598.252 560.326 598.252C557.626 598.252 555.718 596.2 555.718 593.482ZM557.77 592.726H562.45C562.36 591.394 561.514 590.566 560.146 590.566C558.742 590.566 557.932 591.394 557.77 592.726ZM568.226 589.126V590.494H568.478C568.802 589.522 569.54 589.09 570.746 589.09H571.682V590.944H570.242C569.036 590.944 568.28 591.61 568.28 592.906V598H566.3V589.126H568.226ZM572.82 591.556C572.82 589.9 574.368 588.874 576.294 588.874C578.112 588.874 579.354 589.63 580.65 591.034L579.21 592.132C578.382 591.088 577.392 590.494 576.276 590.494C575.358 590.494 574.764 590.89 574.764 591.538C574.764 592.294 575.52 592.42 576.474 592.546L576.996 592.618C579.426 592.924 580.74 593.536 580.74 595.282C580.74 597.028 579.102 598.252 576.78 598.252C574.296 598.252 572.91 596.884 572.154 595.606L573.81 594.634C574.368 595.876 575.538 596.596 576.834 596.596C577.932 596.596 578.796 596.11 578.796 595.336C578.796 594.544 577.77 594.436 576.816 594.31L576.294 594.238C574.044 593.95 572.82 593.23 572.82 591.556ZM589.789 589.126V590.494H590.041C590.365 589.522 591.103 589.09 592.309 589.09H593.245V590.944H591.805C590.599 590.944 589.843 591.61 589.843 592.906V598H587.863V589.126H589.789ZM593.884 593.554C593.884 590.782 595.882 588.874 598.492 588.874C601.102 588.874 603.1 590.782 603.1 593.554C603.1 596.326 601.102 598.252 598.492 598.252C595.882 598.252 593.884 596.326 593.884 593.554ZM595.864 593.554C595.864 595.336 596.926 596.47 598.492 596.47C600.058 596.47 601.12 595.336 601.12 593.554C601.12 591.772 600.058 590.656 598.492 590.656C596.926 590.656 595.864 591.772 595.864 593.554ZM613.435 598H611.491V596.524H611.239C610.861 597.352 610.033 598.144 608.341 598.144C606.433 598.144 604.885 596.812 604.885 594.436V589.126H606.865V594.256C606.865 595.642 607.639 596.416 609.007 596.416C610.555 596.416 611.455 595.444 611.455 593.734V589.126H613.435V598ZM615.878 589.126H617.822V590.584H618.074C618.47 589.756 619.28 588.982 620.972 588.982C622.898 588.982 624.428 590.296 624.428 592.672V598H622.448V592.852C622.448 591.466 621.674 590.71 620.306 590.71C618.758 590.71 617.858 591.682 617.858 593.392V598H615.878V589.126ZM635.457 585.4V598H633.513V596.668H633.261C632.793 597.46 631.983 598.252 630.327 598.252C628.059 598.252 626.205 596.29 626.205 593.554C626.205 590.818 628.059 588.874 630.327 588.874C631.983 588.874 632.793 589.666 633.261 590.44H633.477V585.4H635.457ZM630.849 590.638C629.319 590.638 628.185 591.682 628.185 593.554C628.185 595.426 629.319 596.488 630.849 596.488C632.415 596.488 633.477 595.372 633.477 593.554C633.477 591.736 632.415 590.638 630.849 590.638Z" fill="white"/>
<g opacity="0.5" filter="url(#filter13_f_5413_894)">
<path d="M449.56 596.2H453.832V613H451.048V598.984H450.76L448.024 603.664H445.048L449.56 596.2ZM472.715 601.912L476.747 595.864L478.907 597.472L474.131 602.968L472.715 601.912ZM463.715 599.704C463.715 597.328 465.155 595.888 467.603 595.888C469.979 595.888 471.491 597.328 471.491 599.704V600.16C471.491 602.512 470.051 603.952 467.603 603.952C465.155 603.952 463.715 602.512 463.715 600.16V599.704ZM465.923 599.584V600.256C465.923 601.36 466.499 602.08 467.603 602.08C468.731 602.08 469.283 601.36 469.283 600.256V599.584C469.283 598.456 468.731 597.76 467.603 597.76C466.499 597.76 465.923 598.456 465.923 599.584ZM472.187 609.064C472.187 606.688 473.627 605.248 476.075 605.248C478.451 605.248 479.963 606.688 479.963 609.064V609.52C479.963 611.872 478.523 613.312 476.075 613.312C473.627 613.312 472.187 611.872 472.187 609.52V609.064ZM470.891 607.264L466.859 613.312L464.723 611.704L469.475 606.208L470.891 607.264ZM474.395 608.944V609.616C474.395 610.72 474.947 611.44 476.075 611.44C477.179 611.44 477.755 610.72 477.755 609.616V608.944C477.755 607.816 477.179 607.12 476.075 607.12C474.947 607.12 474.395 607.816 474.395 608.944Z" fill="#DF2AA1"/>
</g>
<path d="M449.56 596.2H453.832V613H451.048V598.984H450.76L448.024 603.664H445.048L449.56 596.2ZM472.715 601.912L476.747 595.864L478.907 597.472L474.131 602.968L472.715 601.912ZM463.715 599.704C463.715 597.328 465.155 595.888 467.603 595.888C469.979 595.888 471.491 597.328 471.491 599.704V600.16C471.491 602.512 470.051 603.952 467.603 603.952C465.155 603.952 463.715 602.512 463.715 600.16V599.704ZM465.923 599.584V600.256C465.923 601.36 466.499 602.08 467.603 602.08C468.731 602.08 469.283 601.36 469.283 600.256V599.584C469.283 598.456 468.731 597.76 467.603 597.76C466.499 597.76 465.923 598.456 465.923 599.584ZM472.187 609.064C472.187 606.688 473.627 605.248 476.075 605.248C478.451 605.248 479.963 606.688 479.963 609.064V609.52C479.963 611.872 478.523 613.312 476.075 613.312C473.627 613.312 472.187 611.872 472.187 609.52V609.064ZM470.891 607.264L466.859 613.312L464.723 611.704L469.475 606.208L470.891 607.264ZM474.395 608.944V609.616C474.395 610.72 474.947 611.44 476.075 611.44C477.179 611.44 477.755 610.72 477.755 609.616V608.944C477.755 607.816 477.179 607.12 476.075 607.12C474.947 607.12 474.395 607.816 474.395 608.944Z" fill="#DF2AA1"/>
<path d="M449.906 627.4H453.236L456.944 640H454.766L453.938 637.084H449.204L448.358 640H446.18L449.906 627.4ZM449.726 635.176H453.416L451.67 629.182H451.454L449.726 635.176ZM467.047 627.4V640H465.103V638.668H464.851C464.383 639.46 463.573 640.252 461.917 640.252C459.649 640.252 457.795 638.29 457.795 635.554C457.795 632.818 459.649 630.874 461.917 630.874C463.573 630.874 464.383 631.666 464.851 632.44H465.067V627.4H467.047ZM462.439 632.638C460.909 632.638 459.775 633.682 459.775 635.554C459.775 637.426 460.909 638.488 462.439 638.488C464.005 638.488 465.067 637.372 465.067 635.554C465.067 633.736 464.005 632.638 462.439 632.638ZM468.566 631.126H470.708L473.084 638.2H473.3L475.676 631.126H477.818L474.632 640H471.752L468.566 631.126ZM478.828 628.48C478.828 627.634 479.494 627.04 480.322 627.04C481.15 627.04 481.798 627.634 481.798 628.48C481.798 629.308 481.15 629.92 480.322 629.92C479.494 629.92 478.828 629.308 478.828 628.48ZM481.312 631.126V640H479.332V631.126H481.312ZM483.532 633.556C483.532 631.9 485.08 630.874 487.006 630.874C488.824 630.874 490.066 631.63 491.362 633.034L489.922 634.132C489.094 633.088 488.104 632.494 486.988 632.494C486.07 632.494 485.476 632.89 485.476 633.538C485.476 634.294 486.232 634.42 487.186 634.546L487.708 634.618C490.138 634.924 491.452 635.536 491.452 637.282C491.452 639.028 489.814 640.252 487.492 640.252C485.008 640.252 483.622 638.884 482.866 637.606L484.522 636.634C485.08 637.876 486.25 638.596 487.546 638.596C488.644 638.596 489.508 638.11 489.508 637.336C489.508 636.544 488.482 636.436 487.528 636.31L487.006 636.238C484.756 635.95 483.532 635.23 483.532 633.556ZM492.705 635.554C492.705 632.782 494.703 630.874 497.313 630.874C499.923 630.874 501.921 632.782 501.921 635.554C501.921 638.326 499.923 640.252 497.313 640.252C494.703 640.252 492.705 638.326 492.705 635.554ZM494.685 635.554C494.685 637.336 495.747 638.47 497.313 638.47C498.879 638.47 499.941 637.336 499.941 635.554C499.941 633.772 498.879 632.656 497.313 632.656C495.747 632.656 494.685 633.772 494.685 635.554ZM505.74 631.126V632.494H505.992C506.316 631.522 507.054 631.09 508.26 631.09H509.196V632.944H507.756C506.55 632.944 505.794 633.61 505.794 634.906V640H503.814V631.126H505.74ZM510.334 633.556C510.334 631.9 511.882 630.874 513.808 630.874C515.626 630.874 516.868 631.63 518.164 633.034L516.724 634.132C515.896 633.088 514.906 632.494 513.79 632.494C512.872 632.494 512.278 632.89 512.278 633.538C512.278 634.294 513.034 634.42 513.988 634.546L514.51 634.618C516.94 634.924 518.254 635.536 518.254 637.282C518.254 639.028 516.616 640.252 514.294 640.252C511.81 640.252 510.424 638.884 509.668 637.606L511.324 636.634C511.882 637.876 513.052 638.596 514.348 638.596C515.446 638.596 516.31 638.11 516.31 637.336C516.31 636.544 515.284 636.436 514.33 636.31L513.808 636.238C511.558 635.95 510.334 635.23 510.334 633.556Z" fill="white"/>
<g opacity="0.5" filter="url(#filter14_f_5413_894)">
<path d="M201.754 522.2H206.026V539H203.242V524.984H202.954L200.218 529.664H197.242L201.754 522.2ZM208.753 528.68C208.753 524.384 211.249 521.864 215.113 521.864C218.929 521.864 221.473 524.384 221.473 528.68V532.52C221.473 536.888 218.977 539.336 215.113 539.336C211.249 539.336 208.753 536.888 208.753 532.52V528.68ZM211.537 528.584V532.616C211.537 535.28 212.737 536.816 215.113 536.816C217.537 536.816 218.689 535.232 218.689 532.616V528.584C218.689 525.92 217.417 524.384 215.113 524.384C212.785 524.384 211.537 525.968 211.537 528.584ZM239.75 527.912L243.782 521.864L245.942 523.472L241.166 528.968L239.75 527.912ZM230.75 525.704C230.75 523.328 232.19 521.888 234.638 521.888C237.014 521.888 238.526 523.328 238.526 525.704V526.16C238.526 528.512 237.086 529.952 234.638 529.952C232.19 529.952 230.75 528.512 230.75 526.16V525.704ZM232.958 525.584V526.256C232.958 527.36 233.534 528.08 234.638 528.08C235.766 528.08 236.318 527.36 236.318 526.256V525.584C236.318 524.456 235.766 523.76 234.638 523.76C233.534 523.76 232.958 524.456 232.958 525.584ZM239.222 535.064C239.222 532.688 240.662 531.248 243.11 531.248C245.486 531.248 246.998 532.688 246.998 535.064V535.52C246.998 537.872 245.558 539.312 243.11 539.312C240.662 539.312 239.222 537.872 239.222 535.52V535.064ZM237.926 533.264L233.894 539.312L231.758 537.704L236.51 532.208L237.926 533.264ZM241.43 534.944V535.616C241.43 536.72 241.982 537.44 243.11 537.44C244.214 537.44 244.79 536.72 244.79 535.616V534.944C244.79 533.816 244.214 533.12 243.11 533.12C241.982 533.12 241.43 533.816 241.43 534.944Z" fill="#AC52F3"/>
</g>
<path d="M201.754 522.2H206.026V539H203.242V524.984H202.954L200.218 529.664H197.242L201.754 522.2ZM208.753 528.68C208.753 524.384 211.249 521.864 215.113 521.864C218.929 521.864 221.473 524.384 221.473 528.68V532.52C221.473 536.888 218.977 539.336 215.113 539.336C211.249 539.336 208.753 536.888 208.753 532.52V528.68ZM211.537 528.584V532.616C211.537 535.28 212.737 536.816 215.113 536.816C217.537 536.816 218.689 535.232 218.689 532.616V528.584C218.689 525.92 217.417 524.384 215.113 524.384C212.785 524.384 211.537 525.968 211.537 528.584ZM239.75 527.912L243.782 521.864L245.942 523.472L241.166 528.968L239.75 527.912ZM230.75 525.704C230.75 523.328 232.19 521.888 234.638 521.888C237.014 521.888 238.526 523.328 238.526 525.704V526.16C238.526 528.512 237.086 529.952 234.638 529.952C232.19 529.952 230.75 528.512 230.75 526.16V525.704ZM232.958 525.584V526.256C232.958 527.36 233.534 528.08 234.638 528.08C235.766 528.08 236.318 527.36 236.318 526.256V525.584C236.318 524.456 235.766 523.76 234.638 523.76C233.534 523.76 232.958 524.456 232.958 525.584ZM239.222 535.064C239.222 532.688 240.662 531.248 243.11 531.248C245.486 531.248 246.998 532.688 246.998 535.064V535.52C246.998 537.872 245.558 539.312 243.11 539.312C240.662 539.312 239.222 537.872 239.222 535.52V535.064ZM237.926 533.264L233.894 539.312L231.758 537.704L236.51 532.208L237.926 533.264ZM241.43 534.944V535.616C241.43 536.72 241.982 537.44 243.11 537.44C244.214 537.44 244.79 536.72 244.79 535.616V534.944C244.79 533.816 244.214 533.12 243.11 533.12C241.982 533.12 241.43 533.816 241.43 534.944Z" fill="#AC52F3"/>
<path d="M97.3129 558.278C97.3129 555.074 99.2569 553.148 102.389 553.148C105.503 553.148 107.231 554.948 107.231 557.702V558.08H105.143V557.72C105.143 556.118 104.261 555.038 102.389 555.038C100.499 555.038 99.4009 556.298 99.4009 558.188V561.212C99.4009 563.174 100.463 564.362 102.389 564.362C104.351 564.362 105.143 563.264 105.143 561.68V561.32H107.231V561.662C107.231 564.452 105.575 566.252 102.389 566.252C99.2929 566.252 97.3129 564.434 97.3129 561.122V558.278ZM108.599 561.554C108.599 558.782 110.597 556.874 113.207 556.874C115.817 556.874 117.815 558.782 117.815 561.554C117.815 564.326 115.817 566.252 113.207 566.252C110.597 566.252 108.599 564.326 108.599 561.554ZM110.579 561.554C110.579 563.336 111.641 564.47 113.207 564.47C114.773 564.47 115.835 563.336 115.835 561.554C115.835 559.772 114.773 558.656 113.207 558.656C111.641 558.656 110.579 559.772 110.579 561.554ZM119.708 557.126H121.652V558.368H121.904C122.318 557.558 123.092 556.982 124.298 556.982C125.504 556.982 126.296 557.612 126.71 558.476H126.962C127.34 557.684 128.078 556.982 129.5 556.982C131.102 556.982 132.47 558.152 132.47 559.988V566H130.49V560.132C130.49 559.214 129.806 558.692 128.852 558.692C127.844 558.692 127.088 559.304 127.088 560.528V566H125.108V560.132C125.108 559.214 124.46 558.692 123.506 558.692C122.48 558.692 121.688 559.304 121.688 560.528V566H119.708V557.126ZM134.812 557.126H136.756V558.368H137.008C137.422 557.558 138.196 556.982 139.402 556.982C140.608 556.982 141.4 557.612 141.814 558.476H142.066C142.444 557.684 143.182 556.982 144.604 556.982C146.206 556.982 147.574 558.152 147.574 559.988V566H145.594V560.132C145.594 559.214 144.91 558.692 143.956 558.692C142.948 558.692 142.192 559.304 142.192 560.528V566H140.212V560.132C140.212 559.214 139.564 558.692 138.61 558.692C137.584 558.692 136.792 559.304 136.792 560.528V566H134.812V557.126ZM158.358 566H156.414V564.524H156.162C155.784 565.352 154.956 566.144 153.264 566.144C151.356 566.144 149.808 564.812 149.808 562.436V557.126H151.788V562.256C151.788 563.642 152.562 564.416 153.93 564.416C155.478 564.416 156.378 563.444 156.378 561.734V557.126H158.358V566ZM160.801 557.126H162.745V558.584H162.997C163.393 557.756 164.203 556.982 165.895 556.982C167.821 556.982 169.351 558.296 169.351 560.672V566H167.371V560.852C167.371 559.466 166.597 558.71 165.229 558.71C163.681 558.71 162.781 559.682 162.781 561.392V566H160.801V557.126ZM171.182 554.48C171.182 553.634 171.848 553.04 172.676 553.04C173.504 553.04 174.152 553.634 174.152 554.48C174.152 555.308 173.504 555.92 172.676 555.92C171.848 555.92 171.182 555.308 171.182 554.48ZM173.666 557.126V566H171.686V557.126H173.666ZM175.148 557.126H177.506V554.21H179.486V557.126H182.006V558.836H179.486V563.768C179.486 564.128 179.648 564.29 179.972 564.29H181.502V566H179.126C178.19 566 177.506 565.334 177.506 564.38V558.836H175.148V557.126ZM190.304 557.126H192.446L187.388 569.6H185.246L186.632 566.36L182.888 557.126H185.03L187.568 563.678H187.784L190.304 557.126ZM201.192 557.126V558.494H201.444C201.768 557.522 202.506 557.09 203.712 557.09H204.648V558.944H203.208C202.002 558.944 201.246 559.61 201.246 560.906V566H199.266V557.126H201.192ZM205.286 561.554C205.286 558.782 207.284 556.874 209.894 556.874C212.504 556.874 214.502 558.782 214.502 561.554C214.502 564.326 212.504 566.252 209.894 566.252C207.284 566.252 205.286 564.326 205.286 561.554ZM207.266 561.554C207.266 563.336 208.328 564.47 209.894 564.47C211.46 564.47 212.522 563.336 212.522 561.554C212.522 559.772 211.46 558.656 209.894 558.656C208.328 558.656 207.266 559.772 207.266 561.554ZM224.837 566H222.893V564.524H222.641C222.263 565.352 221.435 566.144 219.743 566.144C217.835 566.144 216.287 564.812 216.287 562.436V557.126H218.267V562.256C218.267 563.642 219.041 564.416 220.409 564.416C221.957 564.416 222.857 563.444 222.857 561.734V557.126H224.837V566ZM227.28 557.126H229.224V558.584H229.476C229.872 557.756 230.682 556.982 232.374 556.982C234.3 556.982 235.83 558.296 235.83 560.672V566H233.85V560.852C233.85 559.466 233.076 558.71 231.708 558.71C230.16 558.71 229.26 559.682 229.26 561.392V566H227.28V557.126ZM246.859 553.4V566H244.915V564.668H244.663C244.195 565.46 243.385 566.252 241.729 566.252C239.461 566.252 237.607 564.29 237.607 561.554C237.607 558.818 239.461 556.874 241.729 556.874C243.385 556.874 244.195 557.666 244.663 558.44H244.879V553.4H246.859ZM242.251 558.638C240.721 558.638 239.587 559.682 239.587 561.554C239.587 563.426 240.721 564.488 242.251 564.488C243.817 564.488 244.879 563.372 244.879 561.554C244.879 559.736 243.817 558.638 242.251 558.638Z" fill="white"/>
<g opacity="0.5" filter="url(#filter15_f_5413_894)">
<path d="M366.286 590.672C366.286 587.216 368.878 584.888 372.43 584.864C375.886 584.84 378.478 587.168 378.478 590.528V596.408C378.478 600.104 375.862 602.336 372.31 602.336C368.854 602.336 366.478 600.344 366.478 597.032H369.286C369.286 598.64 370.27 599.792 372.31 599.792C374.446 599.792 375.694 598.544 375.694 596.528V594.44H375.406C374.926 595.184 373.918 596.264 371.59 596.264C368.662 596.264 366.286 594.008 366.286 590.672ZM372.406 593.96C374.35 593.96 375.694 592.664 375.694 590.672C375.694 588.68 374.326 587.384 372.406 587.384C370.438 587.384 369.07 588.704 369.07 590.672C369.07 592.664 370.414 593.96 372.406 593.96ZM396.75 590.912L400.782 584.864L402.942 586.472L398.166 591.968L396.75 590.912ZM387.75 588.704C387.75 586.328 389.19 584.888 391.638 584.888C394.014 584.888 395.526 586.328 395.526 588.704V589.16C395.526 591.512 394.086 592.952 391.638 592.952C389.19 592.952 387.75 591.512 387.75 589.16V588.704ZM389.958 588.584V589.256C389.958 590.36 390.534 591.08 391.638 591.08C392.766 591.08 393.318 590.36 393.318 589.256V588.584C393.318 587.456 392.766 586.76 391.638 586.76C390.534 586.76 389.958 587.456 389.958 588.584ZM396.222 598.064C396.222 595.688 397.662 594.248 400.11 594.248C402.486 594.248 403.998 595.688 403.998 598.064V598.52C403.998 600.872 402.558 602.312 400.11 602.312C397.662 602.312 396.222 600.872 396.222 598.52V598.064ZM394.926 596.264L390.894 602.312L388.758 600.704L393.51 595.208L394.926 596.264ZM398.43 597.944V598.616C398.43 599.72 398.982 600.44 400.11 600.44C401.214 600.44 401.79 599.72 401.79 598.616V597.944C401.79 596.816 401.214 596.12 400.11 596.12C398.982 596.12 398.43 596.816 398.43 597.944Z" fill="#C62ADF"/>
</g>
<path d="M366.286 590.672C366.286 587.216 368.878 584.888 372.43 584.864C375.886 584.84 378.478 587.168 378.478 590.528V596.408C378.478 600.104 375.862 602.336 372.31 602.336C368.854 602.336 366.478 600.344 366.478 597.032H369.286C369.286 598.64 370.27 599.792 372.31 599.792C374.446 599.792 375.694 598.544 375.694 596.528V594.44H375.406C374.926 595.184 373.918 596.264 371.59 596.264C368.662 596.264 366.286 594.008 366.286 590.672ZM372.406 593.96C374.35 593.96 375.694 592.664 375.694 590.672C375.694 588.68 374.326 587.384 372.406 587.384C370.438 587.384 369.07 588.704 369.07 590.672C369.07 592.664 370.414 593.96 372.406 593.96ZM396.75 590.912L400.782 584.864L402.942 586.472L398.166 591.968L396.75 590.912ZM387.75 588.704C387.75 586.328 389.19 584.888 391.638 584.888C394.014 584.888 395.526 586.328 395.526 588.704V589.16C395.526 591.512 394.086 592.952 391.638 592.952C389.19 592.952 387.75 591.512 387.75 589.16V588.704ZM389.958 588.584V589.256C389.958 590.36 390.534 591.08 391.638 591.08C392.766 591.08 393.318 590.36 393.318 589.256V588.584C393.318 587.456 392.766 586.76 391.638 586.76C390.534 586.76 389.958 587.456 389.958 588.584ZM396.222 598.064C396.222 595.688 397.662 594.248 400.11 594.248C402.486 594.248 403.998 595.688 403.998 598.064V598.52C403.998 600.872 402.558 602.312 400.11 602.312C397.662 602.312 396.222 600.872 396.222 598.52V598.064ZM394.926 596.264L390.894 602.312L388.758 600.704L393.51 595.208L394.926 596.264ZM398.43 597.944V598.616C398.43 599.72 398.982 600.44 400.11 600.44C401.214 600.44 401.79 599.72 401.79 598.616V597.944C401.79 596.816 401.214 596.12 400.11 596.12C398.982 596.12 398.43 596.816 398.43 597.944Z" fill="#C62ADF"/>
<path d="M361.136 616.4H371.108V618.308H367.166V629H365.078V618.308H361.136V616.4ZM370.323 624.482C370.323 621.836 372.177 619.856 374.769 619.856C377.361 619.856 379.089 621.71 379.089 624.338V625.202H372.375C372.465 626.588 373.455 627.542 374.895 627.542C376.173 627.542 376.875 626.858 377.271 626.084L378.909 627.02C378.261 628.028 377.181 629.252 374.931 629.252C372.231 629.252 370.323 627.2 370.323 624.482ZM372.375 623.726H377.055C376.965 622.394 376.119 621.566 374.751 621.566C373.347 621.566 372.537 622.394 372.375 623.726ZM380.582 622.304C381.428 620.954 382.742 619.874 384.902 619.874C387.314 619.874 388.862 621.26 388.862 623.366V629H386.918V627.668H386.666C386.342 628.37 385.568 629.252 383.714 629.252C381.716 629.252 380.402 628.172 380.402 626.516C380.402 625.004 381.572 624.086 383.57 623.888L386.9 623.546V623.312C386.9 622.286 386.162 621.602 384.83 621.602C383.516 621.602 382.724 622.25 382.238 623.24L380.582 622.304ZM382.454 626.426C382.454 627.146 383.048 627.614 384.128 627.614C385.964 627.614 386.9 626.516 386.9 625.148V625.004L384.002 625.31C383.066 625.4 382.454 625.706 382.454 626.426ZM391.21 620.126H393.154V621.368H393.406C393.82 620.558 394.594 619.982 395.8 619.982C397.006 619.982 397.798 620.612 398.212 621.476H398.464C398.842 620.684 399.58 619.982 401.002 619.982C402.604 619.982 403.972 621.152 403.972 622.988V629H401.992V623.132C401.992 622.214 401.308 621.692 400.354 621.692C399.346 621.692 398.59 622.304 398.59 623.528V629H396.61V623.132C396.61 622.214 395.962 621.692 395.008 621.692C393.982 621.692 393.19 622.304 393.19 623.528V629H391.21V620.126Z" fill="white"/>
<g opacity="0.5" filter="url(#filter16_f_5413_894)">
<path d="M105.457 361.2H109.729V378H106.945V363.984H106.657L103.921 368.664H100.945L105.457 361.2ZM112.696 361.2H124.312V363.648L119.512 367.704V367.992H120.136C122.584 367.992 124.648 369.768 124.648 372.768C124.648 376.104 122.008 378.336 118.48 378.336C114.664 378.336 112.12 375.984 112.12 372.672V371.76H114.904V372.552C114.904 374.424 116.2 375.816 118.456 375.816C120.568 375.816 121.864 374.52 121.864 372.744C121.864 370.992 120.568 370.032 118.888 370.032H116.104V367.512L120.52 363.744H112.696V361.2ZM142.75 366.912L146.782 360.864L148.942 362.472L144.166 367.968L142.75 366.912ZM133.75 364.704C133.75 362.328 135.19 360.888 137.638 360.888C140.014 360.888 141.526 362.328 141.526 364.704V365.16C141.526 367.512 140.086 368.952 137.638 368.952C135.19 368.952 133.75 367.512 133.75 365.16V364.704ZM135.958 364.584V365.256C135.958 366.36 136.534 367.08 137.638 367.08C138.766 367.08 139.318 366.36 139.318 365.256V364.584C139.318 363.456 138.766 362.76 137.638 362.76C136.534 362.76 135.958 363.456 135.958 364.584ZM142.222 374.064C142.222 371.688 143.662 370.248 146.11 370.248C148.486 370.248 149.998 371.688 149.998 374.064V374.52C149.998 376.872 148.558 378.312 146.11 378.312C143.662 378.312 142.222 376.872 142.222 374.52V374.064ZM140.926 372.264L136.894 378.312L134.758 376.704L139.51 371.208L140.926 372.264ZM144.43 373.944V374.616C144.43 375.72 144.982 376.44 146.11 376.44C147.214 376.44 147.79 375.72 147.79 374.616V373.944C147.79 372.816 147.214 372.12 146.11 372.12C144.982 372.12 144.43 372.816 144.43 373.944Z" fill="#8755F0"/>
</g>
<path d="M105.457 361.2H109.729V378H106.945V363.984H106.657L103.921 368.664H100.945L105.457 361.2ZM112.696 361.2H124.312V363.648L119.512 367.704V367.992H120.136C122.584 367.992 124.648 369.768 124.648 372.768C124.648 376.104 122.008 378.336 118.48 378.336C114.664 378.336 112.12 375.984 112.12 372.672V371.76H114.904V372.552C114.904 374.424 116.2 375.816 118.456 375.816C120.568 375.816 121.864 374.52 121.864 372.744C121.864 370.992 120.568 370.032 118.888 370.032H116.104V367.512L120.52 363.744H112.696V361.2ZM142.75 366.912L146.782 360.864L148.942 362.472L144.166 367.968L142.75 366.912ZM133.75 364.704C133.75 362.328 135.19 360.888 137.638 360.888C140.014 360.888 141.526 362.328 141.526 364.704V365.16C141.526 367.512 140.086 368.952 137.638 368.952C135.19 368.952 133.75 367.512 133.75 365.16V364.704ZM135.958 364.584V365.256C135.958 366.36 136.534 367.08 137.638 367.08C138.766 367.08 139.318 366.36 139.318 365.256V364.584C139.318 363.456 138.766 362.76 137.638 362.76C136.534 362.76 135.958 363.456 135.958 364.584ZM142.222 374.064C142.222 371.688 143.662 370.248 146.11 370.248C148.486 370.248 149.998 371.688 149.998 374.064V374.52C149.998 376.872 148.558 378.312 146.11 378.312C143.662 378.312 142.222 376.872 142.222 374.52V374.064ZM140.926 372.264L136.894 378.312L134.758 376.704L139.51 371.208L140.926 372.264ZM144.43 373.944V374.616C144.43 375.72 144.982 376.44 146.11 376.44C147.214 376.44 147.79 375.72 147.79 374.616V373.944C147.79 372.816 147.214 372.12 146.11 372.12C144.982 372.12 144.43 372.816 144.43 373.944Z" fill="#8755F0"/>
<path d="M1.44882 392.4H3.53682V403.092H9.54882V405H1.44882V392.4ZM10.8673 398.304C11.7133 396.954 13.0273 395.874 15.1873 395.874C17.5993 395.874 19.1473 397.26 19.1473 399.366V405H17.2033V403.668H16.9513C16.6273 404.37 15.8533 405.252 13.9993 405.252C12.0013 405.252 10.6873 404.172 10.6873 402.516C10.6873 401.004 11.8573 400.086 13.8553 399.888L17.1853 399.546V399.312C17.1853 398.286 16.4473 397.602 15.1153 397.602C13.8013 397.602 13.0093 398.25 12.5233 399.24L10.8673 398.304ZM12.7393 402.426C12.7393 403.146 13.3333 403.614 14.4133 403.614C16.2493 403.614 17.1853 402.516 17.1853 401.148V401.004L14.2873 401.31C13.3513 401.4 12.7393 401.706 12.7393 402.426ZM29.8672 405H27.9232V403.524H27.6712C27.2932 404.352 26.4652 405.144 24.7732 405.144C22.8652 405.144 21.3172 403.812 21.3172 401.436V396.126H23.2972V401.256C23.2972 402.642 24.0712 403.416 25.4392 403.416C26.9872 403.416 27.8872 402.444 27.8872 400.734V396.126H29.8672V405ZM32.3102 396.126H34.2542V397.584H34.5062C34.9022 396.756 35.7122 395.982 37.4042 395.982C39.3302 395.982 40.8602 397.296 40.8602 399.672V405H38.8802V399.852C38.8802 398.466 38.1062 397.71 36.7382 397.71C35.1902 397.71 34.2902 398.682 34.2902 400.392V405H32.3102V396.126ZM42.6373 400.554C42.6373 397.818 44.6353 395.874 47.2453 395.874C49.6753 395.874 51.2233 397.296 51.6373 399.294L49.6933 399.744C49.5493 398.592 48.7393 397.656 47.2633 397.656C45.7333 397.656 44.6173 398.808 44.6173 400.554C44.6173 402.3 45.6973 403.47 47.2813 403.47C48.8113 403.47 49.4773 402.534 49.7113 401.382L51.6553 401.832C51.2413 403.686 49.8193 405.252 47.2633 405.252C44.6353 405.252 42.6373 403.29 42.6373 400.554ZM53.4652 392.4H55.4452V397.584H55.6612C56.0572 396.756 56.8672 395.982 58.5592 395.982C60.4852 395.982 62.0152 397.296 62.0152 399.672V405H60.0352V399.852C60.0352 398.466 59.2612 397.71 57.8932 397.71C56.3452 397.71 55.4452 398.682 55.4452 400.392V405H53.4652V392.4ZM64.3502 408.6V396.126H66.2942V397.44H66.5462C67.0322 396.666 67.8242 395.874 69.4802 395.874C71.7662 395.874 73.6022 397.818 73.6022 400.554C73.6022 403.29 71.7662 405.252 69.4802 405.252C67.8242 405.252 67.0322 404.46 66.5462 403.668H66.3302V408.6H64.3502ZM68.9582 403.488C70.4882 403.488 71.6222 402.426 71.6222 400.554C71.6222 398.682 70.4882 397.638 68.9582 397.638C67.3922 397.638 66.3302 398.736 66.3302 400.554C66.3302 402.372 67.3922 403.488 68.9582 403.488ZM75.1758 398.304C76.0218 396.954 77.3358 395.874 79.4958 395.874C81.9078 395.874 83.4558 397.26 83.4558 399.366V405H81.5118V403.668H81.2598C80.9358 404.37 80.1618 405.252 78.3078 405.252C76.3098 405.252 74.9958 404.172 74.9958 402.516C74.9958 401.004 76.1658 400.086 78.1638 399.888L81.4938 399.546V399.312C81.4938 398.286 80.7558 397.602 79.4238 397.602C78.1098 397.602 77.3178 398.25 76.8318 399.24L75.1758 398.304ZM77.0478 402.426C77.0478 403.146 77.6418 403.614 78.7218 403.614C80.5578 403.614 81.4938 402.516 81.4938 401.148V401.004L78.5958 401.31C77.6598 401.4 77.0478 401.706 77.0478 402.426ZM94.498 392.4V405H92.554V403.668H92.302C91.834 404.46 91.024 405.252 89.368 405.252C87.1 405.252 85.246 403.29 85.246 400.554C85.246 397.818 87.1 395.874 89.368 395.874C91.024 395.874 91.834 396.666 92.302 397.44H92.518V392.4H94.498ZM89.89 397.638C88.36 397.638 87.226 398.682 87.226 400.554C87.226 402.426 88.36 403.488 89.89 403.488C91.456 403.488 92.518 402.372 92.518 400.554C92.518 398.736 91.456 397.638 89.89 397.638ZM104.192 396.126V397.494H104.444C104.768 396.522 105.506 396.09 106.712 396.09H107.648V397.944H106.208C105.002 397.944 104.246 398.61 104.246 399.906V405H102.266V396.126H104.192ZM108.286 400.554C108.286 397.782 110.284 395.874 112.894 395.874C115.504 395.874 117.502 397.782 117.502 400.554C117.502 403.326 115.504 405.252 112.894 405.252C110.284 405.252 108.286 403.326 108.286 400.554ZM110.266 400.554C110.266 402.336 111.328 403.47 112.894 403.47C114.46 403.47 115.522 402.336 115.522 400.554C115.522 398.772 114.46 397.656 112.894 397.656C111.328 397.656 110.266 398.772 110.266 400.554ZM127.837 405H125.893V403.524H125.641C125.263 404.352 124.435 405.144 122.743 405.144C120.835 405.144 119.287 403.812 119.287 401.436V396.126H121.267V401.256C121.267 402.642 122.041 403.416 123.409 403.416C124.957 403.416 125.857 402.444 125.857 400.734V396.126H127.837V405ZM130.28 396.126H132.224V397.584H132.476C132.872 396.756 133.682 395.982 135.374 395.982C137.3 395.982 138.83 397.296 138.83 399.672V405H136.85V399.852C136.85 398.466 136.076 397.71 134.708 397.71C133.16 397.71 132.26 398.682 132.26 400.392V405H130.28V396.126ZM149.859 392.4V405H147.915V403.668H147.663C147.195 404.46 146.385 405.252 144.729 405.252C142.461 405.252 140.607 403.29 140.607 400.554C140.607 397.818 142.461 395.874 144.729 395.874C146.385 395.874 147.195 396.666 147.663 397.44H147.879V392.4H149.859ZM145.251 397.638C143.721 397.638 142.587 398.682 142.587 400.554C142.587 402.426 143.721 403.488 145.251 403.488C146.817 403.488 147.879 402.372 147.879 400.554C147.879 398.736 146.817 397.638 145.251 397.638Z" fill="white"/>
<g opacity="0.5" filter="url(#filter17_f_5413_894)">
<path d="M173.66 82.696C173.66 78.976 176.372 76.864 179.9 76.864C183.188 76.864 185.804 79 185.804 82.36C185.804 85.816 183.476 87.232 180.092 88.216C177.74 88.912 176.516 89.44 176.516 91.192V91.456H185.636V94H173.708V91.48C173.708 88.384 175.772 86.968 178.844 86.056C181.436 85.264 183.02 84.424 183.02 82.264C183.02 80.44 181.724 79.384 179.924 79.384C177.86 79.384 176.444 80.512 176.444 82.792V83.32H173.66V82.696ZM187.753 83.68C187.753 79.384 190.249 76.864 194.113 76.864C197.929 76.864 200.473 79.384 200.473 83.68V87.52C200.473 91.888 197.977 94.336 194.113 94.336C190.249 94.336 187.753 91.888 187.753 87.52V83.68ZM190.537 83.584V87.616C190.537 90.28 191.737 91.816 194.113 91.816C196.537 91.816 197.689 90.232 197.689 87.616V83.584C197.689 80.92 196.417 79.384 194.113 79.384C191.785 79.384 190.537 80.968 190.537 83.584ZM218.75 82.912L222.782 76.864L224.942 78.472L220.166 83.968L218.75 82.912ZM209.75 80.704C209.75 78.328 211.19 76.888 213.638 76.888C216.014 76.888 217.526 78.328 217.526 80.704V81.16C217.526 83.512 216.086 84.952 213.638 84.952C211.19 84.952 209.75 83.512 209.75 81.16V80.704ZM211.958 80.584V81.256C211.958 82.36 212.534 83.08 213.638 83.08C214.766 83.08 215.318 82.36 215.318 81.256V80.584C215.318 79.456 214.766 78.76 213.638 78.76C212.534 78.76 211.958 79.456 211.958 80.584ZM218.222 90.064C218.222 87.688 219.662 86.248 222.11 86.248C224.486 86.248 225.998 87.688 225.998 90.064V90.52C225.998 92.872 224.558 94.312 222.11 94.312C219.662 94.312 218.222 92.872 218.222 90.52V90.064ZM216.926 88.264L212.894 94.312L210.758 92.704L215.51 87.208L216.926 88.264ZM220.43 89.944V90.616C220.43 91.72 220.982 92.44 222.11 92.44C223.214 92.44 223.79 91.72 223.79 90.616V89.944C223.79 88.816 223.214 88.12 222.11 88.12C220.982 88.12 220.43 88.816 220.43 89.944Z" fill="#6462F4"/>
</g>
<path d="M173.172 93V91.056C173.172 89.872 173.364 88.904 173.748 88.152C174.148 87.384 174.716 86.76 175.452 86.28C176.188 85.784 177.084 85.376 178.14 85.056L179.676 84.576C180.3 84.368 180.828 84.12 181.26 83.832C181.692 83.544 182.028 83.192 182.268 82.776C182.508 82.344 182.628 81.84 182.628 81.264V81.168C182.628 80.304 182.332 79.624 181.74 79.128C181.148 78.616 180.356 78.36 179.364 78.36C178.372 78.36 177.564 78.632 176.94 79.176C176.316 79.704 176.004 80.488 176.004 81.528V81.936H173.22V81.576C173.22 80.36 173.492 79.328 174.036 78.48C174.58 77.632 175.316 76.984 176.244 76.536C177.172 76.088 178.212 75.864 179.364 75.864C180.516 75.864 181.548 76.088 182.46 76.536C183.388 76.968 184.108 77.576 184.62 78.36C185.148 79.144 185.412 80.064 185.412 81.12V81.36C185.412 82.432 185.196 83.336 184.764 84.072C184.332 84.808 183.732 85.416 182.964 85.896C182.212 86.36 181.356 86.744 180.396 87.048L178.908 87.504C178.188 87.728 177.612 87.968 177.18 88.224C176.764 88.48 176.468 88.776 176.292 89.112C176.116 89.432 176.028 89.84 176.028 90.336V90.504H185.268V93H173.172ZM194.381 93.336C192.413 93.336 190.837 92.784 189.653 91.68C188.469 90.576 187.877 88.912 187.877 86.688V82.512C187.877 80.336 188.469 78.688 189.653 77.568C190.837 76.432 192.413 75.864 194.381 75.864C196.365 75.864 197.941 76.432 199.109 77.568C200.293 78.688 200.885 80.336 200.885 82.512V86.688C200.885 88.912 200.293 90.576 199.109 91.68C197.941 92.784 196.365 93.336 194.381 93.336ZM194.381 90.84C195.645 90.84 196.573 90.488 197.165 89.784C197.773 89.08 198.077 88.08 198.077 86.784V82.392C198.077 81.08 197.749 80.08 197.093 79.392C196.437 78.704 195.533 78.36 194.381 78.36C193.197 78.36 192.285 78.712 191.645 79.416C191.005 80.12 190.685 81.112 190.685 82.392V86.784C190.685 88.112 190.989 89.12 191.597 89.808C192.221 90.496 193.149 90.84 194.381 90.84ZM212.222 93.312L210.518 91.968L223.55 75.888L225.23 77.232L212.222 93.312ZM222.47 93.264C221.27 93.264 220.326 92.936 219.638 92.28C218.95 91.624 218.606 90.728 218.606 89.592V89.424C218.606 88.288 218.95 87.392 219.638 86.736C220.326 86.08 221.27 85.752 222.47 85.752C223.654 85.752 224.59 86.08 225.278 86.736C225.982 87.392 226.334 88.288 226.334 89.424V89.592C226.334 90.728 225.99 91.624 225.302 92.28C224.614 92.936 223.67 93.264 222.47 93.264ZM222.47 91.44C222.982 91.44 223.382 91.28 223.67 90.96C223.974 90.624 224.126 90.2 224.126 89.688V89.328C224.126 88.8 223.974 88.376 223.67 88.056C223.382 87.736 222.982 87.576 222.47 87.576C221.958 87.576 221.55 87.736 221.246 88.056C220.958 88.376 220.814 88.8 220.814 89.328V89.688C220.814 90.2 220.958 90.624 221.246 90.96C221.55 91.28 221.958 91.44 222.47 91.44ZM213.278 83.448C212.078 83.448 211.134 83.12 210.446 82.464C209.758 81.808 209.414 80.92 209.414 79.8V79.632C209.414 78.48 209.758 77.576 210.446 76.92C211.134 76.264 212.078 75.936 213.278 75.936C214.462 75.936 215.406 76.264 216.11 76.92C216.814 77.576 217.166 78.48 217.166 79.632V79.8C217.166 80.92 216.822 81.808 216.134 82.464C215.446 83.12 214.494 83.448 213.278 83.448ZM213.278 81.624C213.806 81.624 214.214 81.464 214.502 81.144C214.806 80.824 214.958 80.4 214.958 79.872V79.512C214.958 79 214.806 78.584 214.502 78.264C214.214 77.928 213.806 77.76 213.278 77.76C212.766 77.76 212.358 77.928 212.054 78.264C211.766 78.584 211.622 79 211.622 79.512V79.872C211.622 80.4 211.766 80.824 212.054 81.144C212.358 81.464 212.766 81.624 213.278 81.624Z" fill="#6462F4"/>
<path d="M136.845 108.4H141.885C144.225 108.4 145.845 109.93 145.845 112.288C145.845 114.628 144.171 116.176 141.885 116.176H138.933V121H136.845V108.4ZM138.933 110.308V114.268H141.669C142.965 114.268 143.757 113.53 143.757 112.288C143.757 111.046 142.983 110.308 141.669 110.308H138.933ZM155.942 121H153.998V119.524H153.746C153.368 120.352 152.54 121.144 150.848 121.144C148.94 121.144 147.392 119.812 147.392 117.436V112.126H149.372V117.256C149.372 118.642 150.146 119.416 151.514 119.416C153.062 119.416 153.962 118.444 153.962 116.734V112.126H155.942V121ZM158.385 108.4H160.365V113.44H160.581C161.067 112.666 161.859 111.874 163.515 111.874C165.801 111.874 167.637 113.818 167.637 116.554C167.637 119.29 165.801 121.252 163.515 121.252C161.859 121.252 161.067 120.46 160.581 119.668H160.329V121H158.385V108.4ZM162.993 113.638C161.427 113.638 160.365 114.736 160.365 116.554C160.365 118.372 161.427 119.488 162.993 119.488C164.523 119.488 165.657 118.426 165.657 116.554C165.657 114.682 164.523 113.638 162.993 113.638ZM171.514 108.4V121H169.534V108.4H171.514ZM173.464 109.48C173.464 108.634 174.13 108.04 174.958 108.04C175.786 108.04 176.434 108.634 176.434 109.48C176.434 110.308 175.786 110.92 174.958 110.92C174.13 110.92 173.464 110.308 173.464 109.48ZM175.948 112.126V121H173.968V112.126H175.948ZM177.844 116.554C177.844 113.818 179.842 111.874 182.452 111.874C184.882 111.874 186.43 113.296 186.844 115.294L184.9 115.744C184.756 114.592 183.946 113.656 182.47 113.656C180.94 113.656 179.824 114.808 179.824 116.554C179.824 118.3 180.904 119.47 182.488 119.47C184.018 119.47 184.684 118.534 184.918 117.382L186.862 117.832C186.448 119.686 185.026 121.252 182.47 121.252C179.842 121.252 177.844 119.29 177.844 116.554ZM193.751 114.556C193.751 112.9 195.299 111.874 197.225 111.874C199.043 111.874 200.285 112.63 201.581 114.034L200.141 115.132C199.313 114.088 198.323 113.494 197.207 113.494C196.289 113.494 195.695 113.89 195.695 114.538C195.695 115.294 196.451 115.42 197.405 115.546L197.927 115.618C200.357 115.924 201.671 116.536 201.671 118.282C201.671 120.028 200.033 121.252 197.711 121.252C195.227 121.252 193.841 119.884 193.085 118.606L194.741 117.634C195.299 118.876 196.469 119.596 197.765 119.596C198.863 119.596 199.727 119.11 199.727 118.336C199.727 117.544 198.701 117.436 197.747 117.31L197.225 117.238C194.975 116.95 193.751 116.23 193.751 114.556ZM203.228 114.304C204.074 112.954 205.388 111.874 207.548 111.874C209.96 111.874 211.508 113.26 211.508 115.366V121H209.564V119.668H209.312C208.988 120.37 208.214 121.252 206.36 121.252C204.362 121.252 203.048 120.172 203.048 118.516C203.048 117.004 204.218 116.086 206.216 115.888L209.546 115.546V115.312C209.546 114.286 208.808 113.602 207.476 113.602C206.162 113.602 205.37 114.25 204.884 115.24L203.228 114.304ZM205.1 118.426C205.1 119.146 205.694 119.614 206.774 119.614C208.61 119.614 209.546 118.516 209.546 117.148V117.004L206.648 117.31C205.712 117.4 205.1 117.706 205.1 118.426ZM215.836 108.4V121H213.856V108.4H215.836ZM217.732 116.482C217.732 113.836 219.586 111.856 222.178 111.856C224.77 111.856 226.498 113.71 226.498 116.338V117.202H219.784C219.874 118.588 220.864 119.542 222.304 119.542C223.582 119.542 224.284 118.858 224.68 118.084L226.318 119.02C225.67 120.028 224.59 121.252 222.34 121.252C219.64 121.252 217.732 119.2 217.732 116.482ZM219.784 115.726H224.464C224.374 114.394 223.528 113.566 222.16 113.566C220.756 113.566 219.946 114.394 219.784 115.726Z" fill="white"/>
<defs>
<filter id="filter0_f_5413_894" x="349.667" y="1.11523" width="395.17" height="359.949" filterUnits="userSpaceOnUse" color-interpolation-filters="sRGB">
<feFlood flood-opacity="0" result="BackgroundImageFix"/>
<feBlend mode="normal" in="SourceGraphic" in2="BackgroundImageFix" result="shape"/>
<feGaussianBlur stdDeviation="37.5" result="effect1_foregroundBlur_5413_894"/>
</filter>
<filter id="filter1_f_5413_894" x="146.02" y="345.418" width="275.977" height="272.51" filterUnits="userSpaceOnUse" color-interpolation-filters="sRGB">
<feFlood flood-opacity="0" result="BackgroundImageFix"/>
<feBlend mode="normal" in="SourceGraphic" in2="BackgroundImageFix" result="shape"/>
<feGaussianBlur stdDeviation="37.5" result="effect1_foregroundBlur_5413_894"/>
</filter>
<filter id="filter2_f_5413_894" x="253.59" y="413.855" width="259.06" height="220.145" filterUnits="userSpaceOnUse" color-interpolation-filters="sRGB">
<feFlood flood-opacity="0" result="BackgroundImageFix"/>
<feBlend mode="normal" in="SourceGraphic" in2="BackgroundImageFix" result="shape"/>
<feGaussianBlur stdDeviation="37.5" result="effect1_foregroundBlur_5413_894"/>
</filter>
<filter id="filter3_f_5413_894" x="361.634" y="425.828" width="162.641" height="165.062" filterUnits="userSpaceOnUse" color-interpolation-filters="sRGB">
<feFlood flood-opacity="0" result="BackgroundImageFix"/>
<feBlend mode="normal" in="SourceGraphic" in2="BackgroundImageFix" result="shape"/>
<feGaussianBlur stdDeviation="37.5" result="effect1_foregroundBlur_5413_894"/>
</filter>
<filter id="filter4_f_5413_894" x="440.757" y="319.432" width="266.369" height="277.139" filterUnits="userSpaceOnUse" color-interpolation-filters="sRGB">
<feFlood flood-opacity="0" result="BackgroundImageFix"/>
<feBlend mode="normal" in="SourceGraphic" in2="BackgroundImageFix" result="shape"/>
<feGaussianBlur stdDeviation="37.5" result="effect1_foregroundBlur_5413_894"/>
</filter>
<filter id="filter5_f_5413_894" x="501.359" y="205.898" width="219.641" height="278.133" filterUnits="userSpaceOnUse" color-interpolation-filters="sRGB">
<feFlood flood-opacity="0" result="BackgroundImageFix"/>
<feBlend mode="normal" in="SourceGraphic" in2="BackgroundImageFix" result="shape"/>
<feGaussianBlur stdDeviation="37.5" result="effect1_foregroundBlur_5413_894"/>
</filter>
<filter id="filter6_f_5413_894" x="375.374" y="399.328" width="236.039" height="217.766" filterUnits="userSpaceOnUse" color-interpolation-filters="sRGB">
<feFlood flood-opacity="0" result="BackgroundImageFix"/>
<feBlend mode="normal" in="SourceGraphic" in2="BackgroundImageFix" result="shape"/>
<feGaussianBlur stdDeviation="37.5" result="effect1_foregroundBlur_5413_894"/>
</filter>
<filter id="filter7_f_5413_894" x="100" y="191.219" width="247.359" height="336.004" filterUnits="userSpaceOnUse" color-interpolation-filters="sRGB">
<feFlood flood-opacity="0" result="BackgroundImageFix"/>
<feBlend mode="normal" in="SourceGraphic" in2="BackgroundImageFix" result="shape"/>
<feGaussianBlur stdDeviation="37.5" result="effect1_foregroundBlur_5413_894"/>
</filter>
<filter id="filter8_f_5413_894" x="91.7188" y="0" width="400.354" height="357.52" filterUnits="userSpaceOnUse" color-interpolation-filters="sRGB">
<feFlood flood-opacity="0" result="BackgroundImageFix"/>
<feBlend mode="normal" in="SourceGraphic" in2="BackgroundImageFix" result="shape"/>
<feGaussianBlur stdDeviation="37.5" result="effect1_foregroundBlur_5413_894"/>
</filter>
<filter id="filter9_f_5413_894" x="603.888" y="78.8633" width="68.3379" height="33.4727" filterUnits="userSpaceOnUse" color-interpolation-filters="sRGB">
<feFlood flood-opacity="0" result="BackgroundImageFix"/>
<feBlend mode="normal" in="SourceGraphic" in2="BackgroundImageFix" result="shape"/>
<feGaussianBlur stdDeviation="4" result="effect1_foregroundBlur_5413_894"/>
</filter>
<filter id="filter10_f_5413_894" x="660.048" y="320.863" width="65.7563" height="33.4727" filterUnits="userSpaceOnUse" color-interpolation-filters="sRGB">
<feFlood flood-opacity="0" result="BackgroundImageFix"/>
<feBlend mode="normal" in="SourceGraphic" in2="BackgroundImageFix" result="shape"/>
<feGaussianBlur stdDeviation="4" result="effect1_foregroundBlur_5413_894"/>
</filter>
<filter id="filter11_f_5413_894" x="607.048" y="469.863" width="65.7563" height="33.4727" filterUnits="userSpaceOnUse" color-interpolation-filters="sRGB">
<feFlood flood-opacity="0" result="BackgroundImageFix"/>
<feBlend mode="normal" in="SourceGraphic" in2="BackgroundImageFix" result="shape"/>
<feGaussianBlur stdDeviation="4" result="effect1_foregroundBlur_5413_894"/>
</filter>
<filter id="filter12_f_5413_894" x="493.288" y="545.863" width="53.0884" height="33.4492" filterUnits="userSpaceOnUse" color-interpolation-filters="sRGB">
<feFlood flood-opacity="0" result="BackgroundImageFix"/>
<feBlend mode="normal" in="SourceGraphic" in2="BackgroundImageFix" result="shape"/>
<feGaussianBlur stdDeviation="4" result="effect1_foregroundBlur_5413_894"/>
</filter>
<filter id="filter13_f_5413_894" x="437.048" y="587.863" width="50.9146" height="33.4492" filterUnits="userSpaceOnUse" color-interpolation-filters="sRGB">
<feFlood flood-opacity="0" result="BackgroundImageFix"/>
<feBlend mode="normal" in="SourceGraphic" in2="BackgroundImageFix" result="shape"/>
<feGaussianBlur stdDeviation="4" result="effect1_foregroundBlur_5413_894"/>
</filter>
<filter id="filter14_f_5413_894" x="189.242" y="513.863" width="65.7559" height="33.4727" filterUnits="userSpaceOnUse" color-interpolation-filters="sRGB">
<feFlood flood-opacity="0" result="BackgroundImageFix"/>
<feBlend mode="normal" in="SourceGraphic" in2="BackgroundImageFix" result="shape"/>
<feGaussianBlur stdDeviation="4" result="effect1_foregroundBlur_5413_894"/>
</filter>
<filter id="filter15_f_5413_894" x="358.286" y="576.84" width="53.7124" height="33.4961" filterUnits="userSpaceOnUse" color-interpolation-filters="sRGB">
<feFlood flood-opacity="0" result="BackgroundImageFix"/>
<feBlend mode="normal" in="SourceGraphic" in2="BackgroundImageFix" result="shape"/>
<feGaussianBlur stdDeviation="4" result="effect1_foregroundBlur_5413_894"/>
</filter>
<filter id="filter16_f_5413_894" x="92.9453" y="352.863" width="65.0527" height="33.4727" filterUnits="userSpaceOnUse" color-interpolation-filters="sRGB">
<feFlood flood-opacity="0" result="BackgroundImageFix"/>
<feBlend mode="normal" in="SourceGraphic" in2="BackgroundImageFix" result="shape"/>
<feGaussianBlur stdDeviation="4" result="effect1_foregroundBlur_5413_894"/>
</filter>
<filter id="filter17_f_5413_894" x="165.66" y="68.8633" width="68.3379" height="33.4727" filterUnits="userSpaceOnUse" color-interpolation-filters="sRGB">
<feFlood flood-opacity="0" result="BackgroundImageFix"/>
<feBlend mode="normal" in="SourceGraphic" in2="BackgroundImageFix" result="shape"/>
<feGaussianBlur stdDeviation="4" result="effect1_foregroundBlur_5413_894"/>
</filter>
</defs>
</svg>
